<svg width="785" height="772" viewBox="0 0 785 772" fill="none" xmlns="http://www.w3.org/2000/svg">
<g clip-path="url(#clip0_342_51)">
<path d="M64.1202 164.639C71.5279 157.77 97.4418 147.237 107.682 147.105C118.099 146.971 150.066 154.294 162.739 161.374C188.058 175.518 206.068 192.294 240.635 233.743C248.607 251.826 267.015 269.761 275.192 286.221C283.425 302.79 290.908 317.977 296.164 331.046C301.499 344.311 304.198 354.621 303.582 361.629C303.285 365.008 302.267 366.975 301.097 368.155C299.97 369.291 297.917 370.485 293.871 371.019L290.946 371.405L289.321 373.814C287.119 377.079 285.689 377.701 285.224 377.826C284.776 377.947 283.536 378.061 281.038 376.571C278.588 375.109 275.716 372.563 272.285 368.899C268.891 365.276 265.169 360.804 260.964 355.668C244.249 335.257 220.643 305.236 184.195 284.492L183.94 284.347L183.665 284.234L180.453 282.891C113.685 254.737 57.6531 235.827 53.3653 214.032C49.0927 192.314 47.016 180.501 64.1202 164.639Z" fill="#8BCDE5" stroke="#0E6B96" stroke-width="12"/>
<path d="M380.071 75.6885C403.139 48.0432 442.789 48.4363 457.593 51.3776C473.596 54.5573 481.314 71.2665 477.241 120.468C464.387 153.121 446.716 149.509 401.776 207.423L414.032 192.303L396.571 214.207C374.292 256.545 363.184 295.002 359.833 325.285C358.991 332.908 358.277 339.535 357.445 345.179C356.605 350.877 355.706 355.106 354.62 358.038C353.538 360.963 352.589 361.751 352.029 362C351.424 362.268 349.956 362.494 346.788 360.771L344.697 359.633L342.663 360.854C339.363 362.833 337.149 362.989 335.667 362.547C334.227 362.118 332.678 360.884 331.059 358.027C327.618 351.956 325.062 340.686 323.315 324.619C319.858 292.818 311.577 245.739 327.641 196.012C344.345 121.217 365.26 104.504 380.071 75.6885Z" fill="#87CFE5" stroke="#0E6B96" stroke-width="12"/>
<path d="M349.5 346C451.975 346 535 422.584 535 517C535 611.416 451.975 688 349.5 688C247.025 688 164 611.416 164 517C164 422.584 247.025 346 349.5 346Z" fill="#86D0E3" stroke="#0C74AB" stroke-width="7"/>
<path d="M476.502 635.957C442.002 672.201 378.002 686.606 353.002 684.283C246.002 689.859 165.502 602.403 168.002 515.606C169.568 461.239 155.002 589.489 294.002 644.321C368.502 679.172 476.502 635.957 476.502 635.957Z" fill="#37B4CA"/>
<path opacity="0.77" d="M264.2 380.465L276.015 372.49L291.058 365.856L298.888 364.071L305.688 363.945L308.09 367.967L309.874 372.308L310.147 378.18L301.288 378.241L287.345 381.301L277.66 384.043L267.287 389.019L264.679 383.976L264.2 380.465Z" fill="#004F80"/>
<path opacity="0.7" d="M341.851 337.464L349.612 335.661L357.252 335.324L365.741 336.226L376.533 338.03L385.992 340.623L386.355 347.723L376.047 347.722L364.284 348.059L355.189 348.735L348.398 350.312L340.637 352.115L338.94 345.804L339.183 340.957L341.851 337.464Z" fill="#014C83"/>
<path d="M138 594.624L137.92 594.257L135.42 582.757L135.123 581.388L133.963 580.603L118.433 570.082L118.401 570.062L110.903 565.21L108.41 558.146L105.545 539.045L108.347 523.172L111.072 518.176L111.103 518.121L111.131 518.065L115.416 509.493L124.439 499.521L133.458 491.926L145.29 485.773L153.102 483.604L162.068 485.553L165.333 492.49L165.351 492.528L170 501.827V519.586L167.097 531.684L166.9 532.5L167.097 533.316L170.097 545.816L170.147 546.026L170.223 546.229L174.957 558.854L175.404 559.349L184.457 569.354L190 584.135V594.433L188.018 600.377L176.24 609.438L163.814 614.5H149.277L141.271 607.757L138 601.625V594.624Z" fill="#86D0E3" stroke="#0C74AB" stroke-width="7"/>
<path d="M170.63 582.191C170.691 581.958 170.62 581.711 170.442 581.505C170.264 581.3 169.995 581.154 169.683 581.096C169.37 581.038 169.037 581.074 168.744 581.193C168.451 581.312 168.223 581.504 168.122 581.729C167.905 582.215 167.698 582.687 167.491 583.174C163.396 591.733 163.222 601.823 166.688 610.692C166.865 611.198 167.038 611.678 167.227 612.182C169.681 611.554 172.135 610.925 174.589 610.297C174.331 609.842 174.09 609.411 173.843 608.956C169.234 600.962 167.802 592.441 170.261 583.652C170.38 583.161 170.5 582.684 170.63 582.191Z" fill="#0074AB"/>
<path d="M154.63 585.191C154.691 584.958 154.62 584.711 154.442 584.505C154.264 584.3 153.995 584.154 153.683 584.096C153.37 584.038 153.037 584.074 152.744 584.193C152.451 584.312 152.223 584.504 152.122 584.729C151.905 585.215 151.698 585.687 151.491 586.174C147.396 594.733 147.222 604.823 150.688 613.692C150.865 614.198 151.038 614.678 151.227 615.182C153.681 614.554 156.135 613.925 158.589 613.297C158.331 612.842 158.09 612.411 157.843 611.956C153.234 603.962 151.802 595.441 154.261 586.652C154.38 586.161 154.5 585.684 154.63 585.191Z" fill="#0074AB"/>
<path d="M359.852 557.405C368.622 540.833 369.168 525.004 368.535 493" stroke="#076FA2" stroke-width="5" stroke-linecap="round"/>
<path d="M291.551 400.308C315.615 393.606 343.559 409.559 353.694 445.954C357.718 460.403 357.624 472.901 352.812 482.774C348.067 492.509 338.489 500.188 322.303 504.695C298.329 511.372 273.785 496.351 266.512 470.234C259.239 444.116 267.577 406.985 291.551 400.308Z" fill="#FEFEFE" stroke="#0F79AB" stroke-width="6"/>
<path d="M378.929 363.992C390.777 360.693 403.538 364.139 414.631 372.691C425.721 381.24 434.952 394.773 439.504 411.118C444.632 429.531 445.473 445.334 441.248 457.517C437.092 469.5 427.911 478.343 412.008 482.771C400.164 486.07 387.812 482.655 377.112 474.098C366.401 465.532 357.5 451.901 352.862 435.248C348.224 418.594 348.798 402.324 353.54 389.455C358.276 376.599 367.086 367.291 378.929 363.992Z" fill="#FEFEFE" stroke="#0F79AB" stroke-width="6"/>
<path d="M340.26 466.413C347.975 464.265 351.823 453.886 348.856 443.232C345.889 432.577 337.23 425.682 329.515 427.83C321.801 429.979 317.952 440.358 320.919 451.012C323.886 461.666 332.546 468.562 340.26 466.413Z" fill="#2B2A28"/>
<path d="M343.147 433.909C345.05 437.016 342.736 440.779 340.076 441.52C337.416 442.261 334.598 440.486 333.782 437.556C332.966 434.626 334.461 431.65 337.121 430.91C339.782 430.169 342.331 430.979 343.147 433.909Z" fill="#F9FAFB"/>
<path d="M389.595 433.841C392.562 444.495 389.195 454.74 381.481 456.888C373.767 459.036 365.107 452.141 362.14 441.487C359.173 430.832 363.022 420.454 370.736 418.305C380.078 418.302 386.506 422.748 389.595 433.841Z" fill="#2B2A28"/>
<path d="M384.368 424.383C386.271 427.491 383.957 431.253 381.297 431.994C378.637 432.735 375.819 430.96 375.003 428.03C374.187 425.1 375.682 422.125 378.342 421.384C381.002 420.643 383.552 421.453 384.368 424.383Z" fill="#F9FAFB"/>
<path d="M371.167 505.982C382.819 504.043 390.683 492.963 388.731 481.235C386.779 469.507 375.75 461.572 364.098 463.511C352.446 465.451 344.582 476.53 346.534 488.258C348.486 499.986 359.515 507.921 371.167 505.982Z" fill="#ED6F7A"/>
<path d="M270.981 522L268.882 536.5C270.981 545 279.449 566.053 293.949 588.724C308.303 611.165 330.599 628.299 362.753 621.488C389.83 607.31 408.891 573.712 414.499 554.5C417.328 544.807 416.598 543.545 417.497 536.5C417.232 538.425 417.798 534.146 417.497 536.5C414.462 539.104 406.294 539.258 402.128 542.263C384.943 554.659 362.218 562.728 337.499 554.5C314.499 549.5 303.999 540.18 286.999 533.695C272.5 523 272.885 531.682 270.981 529.5C266.5 531.5 271.633 542.988 270.981 542.263C271.003 542.368 268.882 530.452 270.981 522Z" fill="#D20223"/>
<path d="M417.497 536.5C416.598 543.545 417.328 544.807 414.499 554.5C408.891 573.712 389.83 607.31 362.753 621.488C330.599 628.299 308.303 611.165 293.949 588.724C279.449 566.053 270.981 545 268.882 536.5L270.981 522C268.882 530.452 271.003 542.368 270.981 542.263C271.633 542.988 266.5 531.5 270.981 529.5C272.885 531.682 272.5 523 286.999 533.695C303.999 540.18 314.499 549.5 337.499 554.5C362.218 562.728 384.943 554.659 402.128 542.263C406.294 539.258 414.462 539.104 417.497 536.5ZM417.497 536.5C417.798 534.146 417.232 538.425 417.497 536.5Z" stroke="#076FA2" stroke-width="6"/>
<path d="M434 510C434.527 509.37 441.502 508.5 444.5 512C439 524.5 425.249 516.856 425.828 517.429C426.407 518.002 437.965 514.551 438.001 515.402C438.038 516.253 442.028 516.113 441.502 516.742C438.921 519.828 436.884 522.754 434 525.5C380.263 574.497 317.615 570.341 265.384 522.801C262.447 520.144 259.649 517.413 256.9 514.519C256.337 513.927 256.014 513.116 256.001 512.264C255.988 511.413 256.287 510.591 256.831 509.978C257.375 509.366 258.12 509.015 258.902 509C259.685 508.986 260.44 509.311 261.002 509.903C263.644 512.684 266.333 515.308 269.154 517.861C319.195 563.656 374.318 564.365 425.001 517.861C427.722 515.27 431.575 512.901 434 510Z" fill="#076FA2"/>
<path d="M383.948 552.076L383.895 552.092L383.842 552.101L374.996 553.595L374.95 553.603L374.904 553.606L367.212 554.104L367.182 554.106L361 554.106L361 573.949L361.323 577.5L364.327 580.744L367.091 582.533L371.055 583L374.691 583L378.604 581.617L382.561 578.356L386.55 572.719L389.14 564.573L391 556.38L391 550L383.948 552.076Z" fill="#FEFEFE" stroke="#0578A5" stroke-width="3"/>
<path d="M336.192 553.806L336.252 553.821L336.315 553.831L345.53 555.158L345.583 555.165L345.635 555.168L353.649 555.611L353.682 555.613L360 555.613L360 573.091L359.67 576.182L356.591 579.016L353.746 580.588L349.646 581L345.881 581L341.837 579.781L337.746 576.906L333.617 571.931L330.932 564.727L329 557.472L329 552L336.192 553.806Z" fill="#FEFEFE" stroke="#0875A4" stroke-width="3"/>
<path d="M302.085 595.332C307.454 603.33 323.206 614.882 336.451 619.77C350.054 621.103 348.98 624.863 348.98 617.992C340.389 603.33 331.081 591.777 299.579 590C296.357 590 298.505 590 302.085 595.332Z" fill="#FF1863"/>
<g clip-path="url(#clip1_342_51)">
<path d="M311 685.999C329.453 685.999 339.418 691.775 344.985 699.29C350.752 707.075 352.5 717.635 352.5 728.499C352.5 739.728 351.623 748.379 344.348 754.751C336.743 761.414 321.12 766.499 288.501 766.499C266.107 766.499 250.008 765.43 238.449 763.532C226.816 761.621 220.242 758.938 216.485 756.063C212.994 753.391 211.645 750.331 211.114 746.491C210.834 744.465 210.79 742.237 210.832 739.692C210.871 737.3 211.001 734.303 211.001 731.499C211.001 728.009 213.71 723.247 220.266 717.68C226.594 712.306 235.607 706.957 246.019 702.205C266.892 692.676 292.368 685.999 311 685.999Z" fill="#87CFE5" stroke="#0178B2" stroke-width="9"/>
<path d="M347.614 715.95C358.614 758.95 325.16 763.999 286.5 763.999C247.84 763.999 226 760.999 220.5 753.999C207.5 747.999 261.115 752.95 289.114 749.95C374.114 749.95 328 672.999 347.614 715.95Z" fill="#31A7BA"/>
</g>
<g clip-path="url(#clip2_342_51)">
<path d="M403 685.999C384.547 685.999 374.582 691.775 369.015 699.29C363.248 707.075 361.5 717.635 361.5 728.499C361.5 739.728 362.377 748.379 369.652 754.751C377.257 761.414 392.88 766.499 425.499 766.499C447.893 766.499 463.992 765.43 475.551 763.532C487.184 761.621 493.758 758.938 497.515 756.063C501.006 753.391 502.355 750.331 502.886 746.491C503.166 744.465 503.21 742.237 503.168 739.692C503.129 737.3 502.999 734.303 502.999 731.499C502.999 728.009 500.29 723.247 493.734 717.68C487.406 712.306 478.393 706.957 467.981 702.205C447.108 692.676 421.632 685.999 403 685.999Z" fill="#87CFE5" stroke="#0178B2" stroke-width="9"/>
<path d="M366.386 715.95C355.386 758.95 388.84 763.999 427.5 763.999C466.16 763.999 488 760.999 493.5 753.999C506.5 747.999 452.885 752.95 424.886 749.95C339.886 749.95 386 672.999 366.386 715.95Z" fill="#31A7BA"/>
</g>
<ellipse cx="671.301" cy="705.963" rx="111.322" ry="65.0372" fill="#AE2C23"/>
<path d="M779.896 693.509C722.465 664.844 696.944 695.676 654.06 769.067" stroke="#833430" stroke-width="5" stroke-linecap="round"/>
<path d="M567.038 728.097C635.758 680.755 675.576 657.754 767.173 673.029" stroke="#833430" stroke-width="5" stroke-linecap="round"/>
<path d="M589.057 663.066C657.498 665.788 685.864 662.441 716.361 646.684" stroke="#833430" stroke-width="5" stroke-linecap="round"/>
<path d="M639.945 644.246C734.01 642.816 755.003 697.817 734.68 760.239" stroke="#833430" stroke-width="5" stroke-linecap="round"/>
<g clip-path="url(#clip3_342_51)">
<path d="M464.919 391.914C464.341 397.804 466.365 400.796 469.357 402.82C472.997 405.283 479.11 407.066 488.401 408.636C506.114 411.627 533.621 413.466 563.268 421.472L563.697 421.588L564.105 421.76C585.1 430.619 603.844 438.443 620.724 442.105C636.919 445.618 650.876 445.185 663.141 438.164C670.094 424.879 671.691 413.923 669.788 404.935C667.864 395.849 662.298 388.436 654.236 382.306C637.786 369.801 610.882 362.611 584.012 359.115L583.806 359.089L583.602 359.048C558.569 354.149 530.065 357.206 506.95 364.387C495.433 367.964 485.448 372.508 478.039 377.441C470.66 382.355 466.238 387.385 464.919 391.914Z" fill="#87CFE5" stroke="#0076B8" stroke-width="7"/>
<path d="M617.88 412.2C617.465 412.155 617.057 411.974 616.745 411.71C616.435 411.445 616.246 411.117 616.221 410.788C616.195 410.458 616.335 410.149 616.609 409.918C616.882 409.687 617.266 409.552 617.678 409.555C618.564 409.562 619.424 409.573 620.31 409.59C635.988 409.456 653.37 413.82 667.796 421.174C668.624 421.574 669.408 421.957 670.231 422.368C668.571 424.471 666.911 426.573 665.252 428.676C664.531 428.221 663.847 427.793 663.124 427.349C650.472 419.277 636.164 414.057 620.477 412.498C619.605 412.393 618.757 412.295 617.88 412.2Z" fill="#0074AB"/>
<path d="M623.296 386.224C622.876 386.148 622.477 385.935 622.185 385.647C621.894 385.358 621.733 385.018 621.74 384.686C621.748 384.354 621.922 384.053 622.224 383.836C622.527 383.619 622.933 383.502 623.353 383.526C624.118 383.572 624.842 383.617 625.607 383.67C639.046 384.353 653.353 387.683 666.255 392.23C666.991 392.478 667.693 392.715 668.426 392.966C669.736 393.41 670.796 394.221 671.352 395.263C671.909 396.303 671.915 397.489 671.392 398.517C670.868 399.545 669.864 400.318 668.623 400.625C667.379 400.934 666 400.75 664.767 400.158C664.09 399.833 663.444 399.523 662.768 399.203C650.868 393.375 638.799 388.978 625.499 386.633C624.753 386.492 624.046 386.359 623.296 386.224Z" fill="#007BA4"/>
</g>
</g>
<defs>
<clipPath id="clip0_342_51">
<rect width="785" height="772" fill="white"/>
</clipPath>
<clipPath id="clip1_342_51">
<rect width="151" height="90" fill="white" transform="translate(206 680.999)"/>
</clipPath>
<clipPath id="clip2_342_51">
<rect width="151" height="90" fill="white" transform="matrix(-1 0 0 1 508 680.999)"/>
</clipPath>
<clipPath id="clip3_342_51">
<rect width="84.439" height="215.437" fill="white" transform="matrix(-0.260733 0.965411 0.965411 0.260733 478.016 323.999)"/>
</clipPath>
</defs>
</svg>
