<svg width="785" height="772" viewBox="0 0 785 772" fill="none" xmlns="http://www.w3.org/2000/svg">
<g clip-path="url(#clip0_299_2)">
<path d="M60.8653 196.852C67.7328 189.442 92.7769 176.982 102.978 176.077C113.355 175.156 145.784 180.043 158.956 186.146C185.271 198.336 204.496 213.703 242.097 252.423C251.412 269.852 271.121 286.345 280.519 302.14C289.98 318.04 298.589 332.618 304.818 345.252C311.139 358.077 314.61 368.154 314.525 375.188C314.484 378.58 313.618 380.618 312.539 381.883C311.502 383.1 309.544 384.446 305.551 385.284L302.664 385.891L301.225 388.415C299.276 391.837 297.897 392.565 297.443 392.725C297.005 392.88 295.777 393.088 293.174 391.79C290.62 390.517 287.564 388.196 283.866 384.802C280.208 381.445 276.16 377.267 271.578 372.464C253.369 353.373 227.562 325.222 189.651 307.291L189.387 307.165L189.104 307.073L185.799 305.977C117.095 282.947 59.7947 268.325 53.8725 246.916C47.9714 225.583 45.0082 213.96 60.8653 196.852Z" fill="#8BCDE5" stroke="#0E6B96" stroke-width="12"/>
<path d="M431.338 91.3303C456.94 66.0145 496.372 70.1929 510.826 74.5346C526.453 79.2282 532.539 96.598 523.787 145.186C507.873 176.461 490.627 171.179 440.361 224.535L454.005 210.655L434.532 230.792C408.311 270.808 393.581 308.028 387.354 337.853C385.787 345.36 384.444 351.889 383.076 357.428C381.696 363.019 380.397 367.143 379.036 369.958C377.679 372.767 376.66 373.461 376.078 373.655C375.451 373.864 373.967 373.949 370.978 371.931L369.006 370.598L366.865 371.619C363.391 373.274 361.171 373.218 359.739 372.637C358.347 372.072 356.922 370.696 355.584 367.697C352.739 361.325 351.271 349.863 351.066 333.702C350.661 301.717 346.916 254.062 367.655 206.096C391.426 133.239 413.842 118.6 431.338 91.3303Z" fill="#87CFE5" stroke="#0E6B96" stroke-width="12"/>
<path d="M354.5 347C456.975 347 540 423.584 540 518C540 612.416 456.975 689 354.5 689C252.025 689 169 612.416 169 518C169 423.584 252.025 347 354.5 347Z" fill="#86D0E3" stroke="#0C74AB" stroke-width="7"/>
<path d="M481.502 636.957C447.002 673.201 383.002 687.606 358.002 685.283C251.002 690.859 170.502 603.403 173.002 516.606C174.568 462.239 160.002 590.489 299.002 645.321C373.502 680.172 481.502 636.957 481.502 636.957Z" fill="#37B4CA"/>
<path opacity="0.77" d="M269.201 381.465L281.017 373.49L296.06 366.856L303.89 365.071L310.69 364.945L313.092 368.967L314.876 373.308L315.149 379.18L306.29 379.241L292.346 382.301L282.662 385.043L272.289 390.019L269.681 384.976L269.201 381.465Z" fill="#004F80"/>
<path opacity="0.7" d="M346.851 338.464L354.612 336.661L362.252 336.324L370.741 337.226L381.533 339.03L390.992 341.623L391.355 348.723L381.047 348.722L369.284 349.059L360.189 349.735L353.398 351.312L345.637 353.115L343.94 346.804L344.183 341.957L346.851 338.464Z" fill="#014C83"/>
<path d="M143 595.624L142.92 595.257L140.42 583.757L140.123 582.388L138.963 581.603L123.433 571.082L123.401 571.062L115.903 566.21L113.41 559.146L110.545 540.045L113.347 524.172L116.072 519.176L116.103 519.121L116.131 519.065L120.416 510.493L129.439 500.521L138.458 492.926L150.29 486.773L158.102 484.604L167.068 486.553L170.333 493.49L170.351 493.528L175 502.827V520.586L172.097 532.684L171.9 533.5L172.097 534.316L175.097 546.816L175.147 547.026L175.223 547.229L179.957 559.854L180.404 560.349L189.457 570.354L195 585.135V595.433L193.018 601.377L181.24 610.438L168.814 615.5H154.277L146.271 608.757L143 602.625V595.624Z" fill="#86D0E3" stroke="#0C74AB" stroke-width="7"/>
<path d="M175.63 583.191C175.691 582.958 175.62 582.711 175.442 582.505C175.264 582.3 174.995 582.154 174.683 582.096C174.37 582.038 174.037 582.074 173.744 582.193C173.451 582.312 173.223 582.504 173.122 582.729C172.905 583.215 172.698 583.687 172.491 584.174C168.396 592.733 168.222 602.823 171.688 611.692C171.865 612.198 172.038 612.678 172.227 613.182C174.681 612.554 177.135 611.925 179.589 611.297C179.331 610.842 179.09 610.411 178.843 609.956C174.234 601.962 172.802 593.441 175.261 584.652C175.38 584.161 175.5 583.684 175.63 583.191Z" fill="#0074AB"/>
<path d="M159.63 586.191C159.691 585.958 159.62 585.711 159.442 585.505C159.264 585.3 158.995 585.154 158.683 585.096C158.37 585.038 158.037 585.074 157.744 585.193C157.451 585.312 157.223 585.504 157.122 585.729C156.905 586.215 156.698 586.687 156.491 587.174C152.396 595.733 152.222 605.823 155.688 614.692C155.865 615.198 156.038 615.678 156.227 616.182C158.681 615.554 161.135 614.925 163.589 614.297C163.331 613.842 163.09 613.411 162.843 612.956C158.234 604.962 156.802 596.441 159.261 587.652C159.38 587.161 159.5 586.684 159.63 586.191Z" fill="#0074AB"/>
<path d="M364.852 558.405C373.622 541.833 374.168 526.004 373.535 494" stroke="#076FA2" stroke-width="5" stroke-linecap="round"/>
<path d="M296.551 401.308C320.615 394.607 348.559 410.559 358.694 446.955C362.718 461.403 362.624 473.901 357.812 483.774C353.067 493.509 343.489 501.188 327.303 505.696C303.329 512.372 278.785 497.351 271.512 471.234C264.239 445.116 272.577 407.985 296.551 401.308Z" fill="#FEFEFE" stroke="#0F79AB" stroke-width="6"/>
<path d="M383.928 364.992C395.775 361.693 408.536 365.14 419.629 373.692C430.719 382.24 439.95 395.773 444.502 412.119C449.63 430.531 450.471 446.335 446.246 458.518C442.09 470.501 432.909 479.343 417.007 483.772C405.162 487.07 392.81 483.655 382.11 475.098C371.399 466.532 362.498 452.901 357.86 436.248C353.222 419.594 353.796 403.325 358.538 390.455C363.275 377.599 372.084 368.291 383.928 364.992Z" fill="#FEFEFE" stroke="#0F79AB" stroke-width="6"/>
<path d="M345.26 467.413C352.975 465.265 356.823 454.886 353.856 444.232C350.889 433.578 342.23 426.682 334.515 428.831C326.801 430.979 322.952 441.358 325.919 452.012C328.886 462.666 337.546 469.562 345.26 467.413Z" fill="#2B2A28"/>
<path d="M348.147 434.909C350.05 438.017 347.736 441.779 345.076 442.52C342.416 443.261 339.598 441.486 338.782 438.556C337.966 435.626 339.461 432.651 342.121 431.91C344.782 431.169 347.331 431.979 348.147 434.909Z" fill="#F9FAFB"/>
<path d="M394.593 434.841C397.56 445.495 394.193 455.74 386.479 457.888C378.765 460.036 370.105 453.141 367.138 442.487C364.171 431.832 368.02 421.454 375.734 419.305C385.076 419.302 391.504 423.748 394.593 434.841Z" fill="#2B2A28"/>
<path d="M389.366 425.383C391.269 428.491 388.955 432.254 386.295 432.994C383.635 433.735 380.817 431.961 380.001 429.031C379.185 426.101 380.68 423.125 383.34 422.384C386 421.643 388.55 422.453 389.366 425.383Z" fill="#F9FAFB"/>
<path d="M376.167 506.982C387.819 505.043 395.683 493.963 393.731 482.235C391.779 470.507 380.75 462.572 369.098 464.511C357.446 466.451 349.582 477.53 351.534 489.258C353.486 500.986 364.515 508.921 376.167 506.982Z" fill="#ED6F7A"/>
<path d="M275.983 529L273.884 543.5C275.983 552 284.451 573.053 298.951 595.724C313.305 618.165 335.601 635.299 367.755 628.488C394.832 614.31 413.893 580.712 419.501 561.5C422.33 551.807 421.6 550.545 422.499 543.5C422.8 541.146 422.233 545.425 422.499 543.5C419.464 546.104 411.296 546.258 407.13 549.263C389.945 561.659 367.22 569.728 342.501 561.5C319.501 556.5 309.001 547.18 292.001 540.695C277.502 530 277.887 538.682 275.983 536.5C271.502 538.5 276.635 549.988 275.983 549.263C276.005 549.368 273.884 537.452 275.983 529Z" fill="#D20223"/>
<path d="M422.499 543.5C421.6 550.545 422.33 551.807 419.501 561.5C413.893 580.712 394.832 614.31 367.755 628.488C335.601 635.299 313.305 618.165 298.951 595.724C284.451 573.053 275.983 552 273.884 543.5L275.983 529C273.884 537.452 276.005 549.368 275.983 549.263C276.635 549.988 271.502 538.5 275.983 536.5C277.887 538.682 277.502 530 292.001 540.695C309.001 547.18 319.501 556.5 342.501 561.5C367.22 569.728 389.945 561.659 407.13 549.263C411.296 546.258 419.464 546.104 422.499 543.5ZM422.499 543.5C422.8 541.146 422.233 545.425 422.499 543.5Z" stroke="#076FA2" stroke-width="6"/>
<path d="M439 517C439.527 516.37 446.502 515.5 449.5 519C444 531.5 430.249 523.856 430.828 524.429C431.407 525.002 442.965 521.551 443.001 522.402C443.038 523.253 447.028 523.113 446.502 523.742C443.921 526.828 441.884 529.754 439 532.5C385.263 581.497 322.615 577.341 270.384 529.801C267.447 527.144 264.649 524.413 261.9 521.519C261.337 520.927 261.014 520.116 261.001 519.264C260.988 518.413 261.287 517.591 261.831 516.978C262.375 516.366 263.12 516.015 263.902 516C264.685 515.986 265.44 516.311 266.002 516.903C268.644 519.684 271.333 522.308 274.154 524.861C324.195 570.656 379.318 571.365 430.001 524.861C432.722 522.27 436.575 519.901 439 517Z" fill="#076FA2"/>
<path d="M388.948 559.076L388.895 559.092L388.842 559.101L379.996 560.595L379.95 560.603L379.904 560.606L372.212 561.104L372.182 561.106L366 561.106L366 580.949L366.323 584.5L369.327 587.744L372.091 589.533L376.055 590L379.691 590L383.604 588.617L387.561 585.356L391.55 579.719L394.14 571.573L396 563.38L396 557L388.948 559.076Z" fill="#FEFEFE" stroke="#0578A5" stroke-width="3"/>
<path d="M341.192 560.806L341.252 560.821L341.315 560.831L350.53 562.158L350.583 562.165L350.635 562.168L358.649 562.611L358.682 562.613L365 562.613L365 580.091L364.67 583.182L361.591 586.016L358.746 587.588L354.646 588L350.881 588L346.837 586.781L342.746 583.906L338.617 578.931L335.932 571.727L334 564.472L334 559L341.192 560.806Z" fill="#FEFEFE" stroke="#0875A4" stroke-width="3"/>
<path d="M307.085 602.332C312.454 610.33 328.206 621.882 341.451 626.77C355.054 628.103 353.98 631.863 353.98 624.992C345.389 610.33 336.081 598.777 304.579 597C301.357 597 303.505 597 307.085 602.332Z" fill="#FF1863"/>
<g clip-path="url(#clip1_299_2)">
<path d="M315.998 686.999C334.451 686.999 344.416 692.775 349.983 700.29C355.75 708.075 357.498 718.635 357.498 729.499C357.498 740.728 356.621 749.379 349.346 755.751C341.741 762.414 326.118 767.499 293.499 767.499C271.105 767.499 255.006 766.43 243.447 764.532C231.814 762.621 225.24 759.938 221.483 757.063C217.992 754.391 216.643 751.331 216.112 747.491C215.832 745.465 215.788 743.237 215.83 740.692C215.869 738.3 215.999 735.303 215.999 732.499C215.999 729.009 218.708 724.247 225.264 718.68C231.592 713.306 240.605 707.957 251.017 703.205C271.89 693.676 297.366 686.999 315.998 686.999Z" fill="#87CFE5" stroke="#0178B2" stroke-width="9"/>
<path d="M352.613 716.95C363.613 759.95 330.159 764.999 291.498 764.999C252.839 764.999 230.998 761.999 225.499 754.999C212.499 748.999 266.113 753.95 294.113 750.95C379.113 750.95 332.999 673.999 352.613 716.95Z" fill="#31A7BA"/>
</g>
<g clip-path="url(#clip2_299_2)">
<path d="M408.002 686.999C389.549 686.999 379.584 692.775 374.017 700.29C368.25 708.075 366.502 718.635 366.502 729.499C366.502 740.728 367.379 749.379 374.654 755.751C382.259 762.414 397.882 767.499 430.501 767.499C452.895 767.499 468.994 766.43 480.553 764.532C492.186 762.621 498.76 759.938 502.517 757.063C506.008 754.391 507.357 751.331 507.888 747.491C508.168 745.465 508.212 743.237 508.17 740.692C508.131 738.3 508.001 735.303 508.001 732.499C508.001 729.009 505.292 724.247 498.736 718.68C492.408 713.306 483.395 707.957 472.983 703.205C452.11 693.676 426.634 686.999 408.002 686.999Z" fill="#87CFE5" stroke="#0178B2" stroke-width="9"/>
<path d="M371.387 716.95C360.387 759.95 393.841 764.999 432.502 764.999C471.161 764.999 493.002 761.999 498.501 754.999C511.501 748.999 457.887 753.95 429.887 750.95C344.887 750.95 391.001 673.999 371.387 716.95Z" fill="#31A7BA"/>
</g>
<ellipse cx="664.839" cy="525.574" rx="96.0886" ry="104.426" fill="#AE2C23"/>
<path d="M758.574 505.578C709.002 459.552 686.974 509.057 649.957 626.896" stroke="#833430" stroke-width="5" stroke-linecap="round"/>
<path d="M574.843 561.114C634.16 485.1 668.528 448.168 747.591 472.694" stroke="#833430" stroke-width="5" stroke-linecap="round"/>
<path d="M593.848 456.697C652.923 461.068 677.408 455.694 703.732 430.394" stroke="#833430" stroke-width="5" stroke-linecap="round"/>
<path d="M637.774 426.48C718.967 424.183 737.088 512.494 719.545 612.722" stroke="#833430" stroke-width="5" stroke-linecap="round"/>
<g clip-path="url(#clip3_299_2)">
<path d="M480.155 408.636C481.361 414.421 484.048 416.652 487.316 417.667C491.294 418.901 497.285 418.734 506.058 417.393C522.782 414.837 547.932 408.195 576.801 406.773L577.219 406.753L577.635 406.792C599.012 408.821 618.073 410.552 634.247 408.888C649.766 407.292 662.128 402.621 671.047 392.195C673.381 377.423 671.604 366.504 667.272 358.527C662.892 350.462 655.743 345.102 646.735 341.725C628.358 334.836 602.181 336.2 577.117 341.069L576.925 341.107L576.73 341.131C552.899 344.104 528.288 355.711 509.707 369.601C500.45 376.522 492.845 383.895 487.659 390.852C482.494 397.782 480.01 403.921 480.155 408.636Z" fill="#87CFE5" stroke="#0076B8" stroke-width="7"/>
<path d="M622.953 381.282C622.568 381.366 622.15 381.318 621.794 381.161C621.439 381.003 621.174 380.749 621.055 380.443C620.935 380.137 620.971 379.8 621.148 379.496C621.325 379.193 621.629 378.947 621.998 378.824C622.793 378.561 623.565 378.309 624.363 378.056C638.352 373.144 655.182 371.996 670.241 374.596C671.099 374.725 671.913 374.85 672.769 374.99C671.899 377.499 671.029 380.007 670.159 382.516C669.382 382.303 668.644 382.104 667.867 381.902C654.185 378.076 639.855 377.471 625.364 380.772C624.553 380.939 623.765 381.104 622.953 381.282Z" fill="#0074AB"/>
<path d="M620.199 354.896C619.801 354.951 619.381 354.871 619.036 354.685C618.691 354.499 618.448 354.224 618.357 353.906C618.266 353.588 618.334 353.248 618.541 352.948C618.749 352.649 619.078 352.414 619.461 352.309C620.159 352.12 620.819 351.942 621.52 351.759C633.744 348.308 647.519 347.115 660.394 347.507C661.125 347.519 661.822 347.53 662.552 347.545C663.854 347.569 665.04 348.017 665.842 348.84C666.644 349.66 666.997 350.787 666.829 351.926C666.662 353.064 665.99 354.108 664.97 354.778C663.947 355.452 662.659 355.698 661.383 355.51C660.681 355.408 660.013 355.309 659.314 355.21C646.961 353.292 634.876 352.787 622.29 354.613C621.581 354.706 620.909 354.795 620.199 354.896Z" fill="#007BA4"/>
</g>
</g>
<defs>
<clipPath id="clip0_299_2">
<rect width="785" height="772" fill="white"/>
</clipPath>
<clipPath id="clip1_299_2">
<rect width="151" height="90" fill="white" transform="translate(211 681.999)"/>
</clipPath>
<clipPath id="clip2_299_2">
<rect width="151" height="90" fill="white" transform="matrix(-1 0 0 1 513 681.999)"/>
</clipPath>
<clipPath id="clip3_299_2">
<rect width="84.439" height="202.776" fill="white" transform="matrix(0.0491859 0.99879 0.99879 -0.0491859 472 339.974)"/>
</clipPath>
</defs>
</svg>
