<svg width="785" height="772" viewBox="0 0 785 772" fill="none" xmlns="http://www.w3.org/2000/svg">
<g clip-path="url(#clip0_282_6)">
<path d="M111.075 147.008C119.371 141.242 146.503 134.439 156.661 135.741C166.994 137.066 197.623 148.79 209.181 157.574C232.271 175.12 247.756 194.251 276.184 240.13C281.548 259.15 297.265 279.484 303.059 296.927C308.892 314.484 314.176 330.569 317.552 344.245C320.978 358.126 322.209 368.713 320.618 375.565C319.851 378.869 318.568 380.675 317.244 381.679C315.97 382.646 313.769 383.541 309.689 383.504L306.739 383.477L304.793 385.635C302.155 388.559 300.652 388.975 300.174 389.034C299.714 389.091 298.47 389.031 296.205 387.206C293.984 385.415 291.496 382.493 288.612 378.385C285.758 374.322 282.699 369.374 279.253 363.7C265.558 341.15 246.385 308.122 213.198 282.482L212.967 282.303L212.71 282.152L209.717 280.373C147.545 243.154 94.7106 216.59 93.5145 194.41C92.3227 172.308 91.9193 160.32 111.075 147.008Z" fill="#8BCDE5" stroke="#0E6B96" stroke-width="12"/>
<path d="M391.417 78.2525C414.034 50.2377 453.686 49.9894 468.535 52.6909C484.588 55.6113 492.575 72.1934 489.299 121.455C476.975 154.311 459.247 150.985 415.25 209.618L427.259 194.302L410.155 216.486C388.564 259.179 378.08 297.81 375.219 328.144C374.5 335.779 373.894 342.417 373.153 348.074C372.405 353.784 371.575 358.027 370.537 360.977C369.502 363.919 368.566 364.722 368.009 364.981C367.409 365.258 365.945 365.508 362.749 363.836L360.641 362.732L358.626 363.986C355.359 366.018 353.147 366.21 351.659 365.792C350.212 365.386 348.643 364.177 346.979 361.347C343.44 355.332 340.702 344.105 338.695 328.068C334.723 296.328 325.683 249.389 340.94 199.408C356.432 124.353 377.074 107.304 391.417 78.2525Z" fill="#87CFE5" stroke="#0E6B96" stroke-width="12"/>
<path d="M358.5 347C460.975 347 544 423.583 544 518C544 612.416 460.975 689 358.5 689C256.025 689 173 612.416 173 518C173 423.583 256.025 347 358.5 347Z" fill="#86D0E3" stroke="#0C74AB" stroke-width="7"/>
<path d="M485.502 636.956C451.002 673.201 387.002 687.606 362.002 685.282C255.002 690.859 174.502 603.402 177.002 516.606C178.568 462.239 164.002 590.489 303.002 645.32C377.502 680.171 485.502 636.956 485.502 636.956Z" fill="#37B4CA"/>
<path opacity="0.77" d="M307.201 453.465L319.017 445.49L334.06 438.856L341.89 437.071L348.69 436.945L351.092 440.967L352.876 445.307L353.149 451.18L344.29 451.241L330.346 454.301L320.662 457.043L310.289 462.019L307.681 456.976L307.201 453.465Z" fill="#004F80"/>
<path opacity="0.7" d="M388.851 418.464L396.612 416.661L404.252 416.323L412.741 417.226L423.533 419.03L432.992 421.622L433.355 428.722L423.047 428.722L411.284 429.059L402.189 429.735L395.398 431.312L387.637 433.115L385.94 426.803L386.183 421.957L388.851 418.464Z" fill="#014C83"/>
<path d="M396.069 539.637C416.504 491.973 453.502 496.473 486.269 512.468" stroke="#076FA2" stroke-width="7" stroke-linecap="round"/>
<path d="M147 595.624L146.92 595.257L144.42 583.757L144.123 582.388L142.963 581.603L127.433 571.082L127.401 571.062L119.903 566.21L117.41 559.146L114.545 540.045L117.347 524.172L120.072 519.176L120.103 519.121L120.131 519.065L124.416 510.493L133.439 500.521L142.458 492.926L154.29 486.773L162.102 484.604L171.068 486.553L174.333 493.49L174.351 493.528L179 502.827V520.586L176.097 532.684L175.9 533.5L176.097 534.316L179.097 546.816L179.147 547.026L179.223 547.229L183.957 559.854L184.404 560.349L193.457 570.354L199 585.135V595.433L197.018 601.377L185.24 610.438L172.814 615.5H158.277L150.271 608.757L147 602.625V595.624Z" fill="#86D0E3" stroke="#0C74AB" stroke-width="7"/>
<path d="M179.63 583.191C179.691 582.958 179.62 582.711 179.442 582.505C179.264 582.3 178.995 582.154 178.683 582.096C178.37 582.038 178.037 582.074 177.744 582.193C177.451 582.312 177.223 582.504 177.122 582.729C176.905 583.215 176.698 583.687 176.491 584.174C172.396 592.733 172.222 602.823 175.688 611.692C175.865 612.198 176.038 612.678 176.227 613.182C178.681 612.554 181.135 611.925 183.589 611.297C183.331 610.842 183.09 610.411 182.843 609.956C178.234 601.962 176.802 593.441 179.261 584.652C179.38 584.161 179.5 583.684 179.63 583.191Z" fill="#0074AB"/>
<path d="M163.63 586.191C163.691 585.958 163.62 585.711 163.442 585.505C163.264 585.3 162.995 585.154 162.683 585.096C162.37 585.038 162.037 585.074 161.744 585.193C161.451 585.312 161.223 585.504 161.122 585.729C160.905 586.215 160.698 586.687 160.491 587.174C156.396 595.733 156.222 605.823 159.688 614.692C159.865 615.198 160.038 615.678 160.227 616.182C162.681 615.554 165.135 614.925 167.589 614.297C167.331 613.842 167.09 613.411 166.843 612.956C162.234 604.962 160.802 596.441 163.261 587.652C163.38 587.161 163.5 586.684 163.63 586.191Z" fill="#0074AB"/>
<g clip-path="url(#clip1_282_6)">
<path d="M386.852 602.47C394.769 589.911 394.555 577.665 392.394 552.852" stroke="#076FA2" stroke-width="5" stroke-linecap="round"/>
<path d="M307.948 566.96C307.543 566.534 306.977 566.28 306.376 566.253C305.775 566.226 305.187 566.428 304.742 566.816C304.297 567.204 304.031 567.745 304.003 568.32C303.974 568.896 304.186 569.459 304.591 569.885C306.576 571.972 308.689 573.948 310.907 575.806C352.243 608.95 416.604 604.124 456.782 571.965C459.041 570.168 461.193 568.321 463.308 566.363C463.741 565.962 463.989 565.414 464 564.838C464.01 564.262 463.78 563.706 463.361 563.291C462.943 562.877 462.369 562.639 461.768 562.63C461.166 562.62 460.585 562.84 460.152 563.241C458.12 565.122 456.052 566.897 453.882 568.624C415.389 599.601 352.883 603.994 313.896 572.537C311.803 570.784 309.814 568.922 307.948 566.96Z" fill="#076FA2"/>
<path d="M364.948 598.578L367.748 598.58L377.134 598.162L377.182 598.169L377.231 598.171L385.471 597.259L389.376 596.444H391.555L391.895 614.808L391.555 617.711L388.386 620.364L385.471 621.828L381.29 622.21H377.455L373.328 621.079L369.155 618.412L364.948 613.802L362.216 607.14L360.254 600.44V598.162L364.948 598.578Z" fill="#FEFEFE" stroke="#0578A5" stroke-width="3"/>
<path d="M413.859 591.963H412.491V593.185H406.666H405.039L403.026 594.815L396.656 595.63L392.105 596.852V601.321V615.868L392.408 618.441L395.228 620.799L397.834 622.108L401.59 622.451H405.039L408.743 621.436L412.491 619.043L416.272 614.902L418.732 608.907L420.502 602.868V590.333L413.859 591.963Z" fill="#FEFEFE" stroke="#0875A4" stroke-width="3"/>
</g>
<path d="M398.167 561.982C409.819 560.043 417.683 548.963 415.731 537.235C413.779 525.507 402.75 517.572 391.098 519.511C379.446 521.451 371.582 532.53 373.534 544.258C375.486 555.986 386.515 563.921 398.167 561.982Z" fill="#ED6F7A"/>
<path d="M292.561 542.719C319.444 503.514 347.103 503.068 377.516 525.496" stroke="#076FA2" stroke-width="7" stroke-linecap="round"/>
<g clip-path="url(#clip2_282_6)">
<path d="M319.998 686.999C338.451 686.999 348.416 692.775 353.983 700.29C359.75 708.075 361.498 718.635 361.498 729.499C361.498 740.728 360.621 749.379 353.346 755.751C345.741 762.414 330.118 767.499 297.499 767.499C275.105 767.499 259.006 766.43 247.447 764.532C235.814 762.621 229.24 759.938 225.483 757.063C221.992 754.391 220.643 751.331 220.112 747.491C219.832 745.465 219.788 743.237 219.83 740.692C219.869 738.3 219.999 735.303 219.999 732.499C219.999 729.009 222.708 724.247 229.264 718.68C235.592 713.306 244.605 707.957 255.017 703.205C275.89 693.676 301.366 686.999 319.998 686.999Z" fill="#87CFE5" stroke="#0178B2" stroke-width="9"/>
<path d="M356.613 716.95C367.613 759.95 334.159 764.999 295.498 764.999C256.839 764.999 234.998 761.999 229.499 754.999C216.499 748.999 270.113 753.95 298.113 750.95C383.113 750.95 336.999 673.999 356.613 716.95Z" fill="#31A7BA"/>
</g>
<g clip-path="url(#clip3_282_6)">
<path d="M412.002 686.999C393.549 686.999 383.584 692.775 378.017 700.29C372.25 708.075 370.502 718.635 370.502 729.499C370.502 740.728 371.379 749.379 378.654 755.751C386.259 762.414 401.882 767.499 434.501 767.499C456.895 767.499 472.994 766.43 484.553 764.532C496.186 762.621 502.76 759.938 506.517 757.063C510.008 754.391 511.357 751.331 511.888 747.491C512.168 745.465 512.212 743.237 512.17 740.692C512.131 738.3 512.001 735.303 512.001 732.499C512.001 729.009 509.292 724.247 502.736 718.68C496.408 713.306 487.395 707.957 476.983 703.205C456.11 693.676 430.634 686.999 412.002 686.999Z" fill="#87CFE5" stroke="#0178B2" stroke-width="9"/>
<path d="M375.387 716.95C364.387 759.95 397.841 764.999 436.502 764.999C475.161 764.999 497.002 761.999 502.501 754.999C515.501 748.999 461.887 753.95 433.887 750.95C348.887 750.95 395.001 673.999 375.387 716.95Z" fill="#31A7BA"/>
</g>
<ellipse cx="667.148" cy="707.879" rx="114.882" ry="64.1213" fill="#AE2C23"/>
<path d="M779.215 695.6C719.947 667.339 693.61 697.737 649.354 770.094" stroke="#833430" stroke-width="5" stroke-linecap="round"/>
<path d="M559.551 729.702C630.469 683.026 671.559 660.349 766.086 675.409" stroke="#833430" stroke-width="5" stroke-linecap="round"/>
<path d="M582.273 665.586C652.903 668.27 682.176 664.97 713.649 649.435" stroke="#833430" stroke-width="5" stroke-linecap="round"/>
<path d="M634.791 647.032C731.863 645.621 753.529 699.847 732.555 761.391" stroke="#833430" stroke-width="5" stroke-linecap="round"/>
<path d="M487.625 409.797C496.297 419.297 491.297 415.797 513.797 419.297C542.797 419.297 507.797 417.743 535.797 419.297C554.89 426.632 543.446 418.249 574.943 433.52L575.399 433.741L575.823 434.013C597.638 448.011 617.127 460.423 635.198 468.223C652.536 475.706 668.011 478.7 682.63 474.702C692.348 463.146 695.795 452.599 695.077 443.16C694.35 433.616 689.346 424.849 681.388 416.75C665.152 400.227 636.557 386.445 607.432 376.359L607.208 376.282L606.989 376.191C580.109 365.155 545.916 374.697 519.295 376.191C506.031 376.936 490.295 383.297 487.626 391.297C484.297 401.281 482.297 400.297 487.625 409.797Z" fill="#87CFE5" stroke="#0076B8" stroke-width="7"/>
<path d="M636.661 437.67C636.21 437.523 635.787 437.243 635.484 436.902C635.182 436.561 635.024 436.188 635.047 435.853C635.069 435.517 635.271 435.243 635.609 435.08C635.946 434.916 636.391 434.876 636.845 434.979C637.822 435.204 638.769 435.426 639.745 435.661C657.073 439.376 675.591 448 690.385 458.883C691.237 459.486 692.045 460.061 692.889 460.673C690.734 462.364 688.578 464.056 686.423 465.748C685.697 465.117 685.008 464.521 684.278 463.901C671.553 452.736 656.56 444.012 639.483 438.605C638.536 438.286 637.615 437.98 636.661 437.67Z" fill="#0074AB"/>
<path d="M646.63 413.066C646.179 412.887 645.771 412.577 645.492 412.217C645.216 411.858 645.091 411.478 645.15 411.149C645.209 410.819 645.447 410.562 645.815 410.419C646.183 410.276 646.649 410.259 647.109 410.387C647.946 410.621 648.738 410.843 649.575 411.084C664.306 415.064 679.587 421.902 693.131 429.609C693.905 430.037 694.643 430.445 695.414 430.876C696.793 431.641 697.838 432.711 698.291 433.888C698.746 435.062 698.57 436.247 697.835 437.145C697.099 438.043 695.871 438.569 694.455 438.571C693.034 438.574 691.539 438.052 690.269 437.158C689.571 436.667 688.906 436.199 688.209 435.714C675.968 426.974 663.322 419.621 649 414.015C648.198 413.691 647.437 413.385 646.63 413.066Z" fill="#007BA4"/>
</g>
<defs>
<clipPath id="clip0_282_6">
<rect width="785" height="772" fill="white"/>
</clipPath>
<clipPath id="clip1_282_6">
<rect width="172" height="66" fill="white" transform="translate(292 561)"/>
</clipPath>
<clipPath id="clip2_282_6">
<rect width="151" height="90" fill="white" transform="translate(215 681.999)"/>
</clipPath>
<clipPath id="clip3_282_6">
<rect width="151" height="90" fill="white" transform="matrix(-1 0 0 1 517 681.999)"/>
</clipPath>
</defs>
</svg>
