<svg width="785" height="772" viewBox="0 0 785 772" fill="none" xmlns="http://www.w3.org/2000/svg">
<g clip-path="url(#clip0_342_100)">
<path d="M63.8672 196.852C70.7347 189.442 95.7789 176.982 105.98 176.077C116.357 175.156 148.786 180.043 161.958 186.146C188.273 198.336 207.498 213.703 245.099 252.423C254.413 269.852 274.123 286.345 283.521 302.14C292.982 318.04 301.591 332.618 307.82 345.252C314.141 358.077 317.612 368.154 317.527 375.188C317.486 378.58 316.619 380.618 315.541 381.883C314.504 383.1 312.546 384.446 308.553 385.284L305.665 385.891L304.227 388.415C302.278 391.837 300.899 392.565 300.445 392.725C300.007 392.88 298.779 393.088 296.176 391.79C293.622 390.517 290.566 388.196 286.868 384.802C283.21 381.445 279.162 377.267 274.58 372.464C256.371 353.373 230.564 325.222 192.653 307.291L192.389 307.165L192.106 307.073L188.801 305.977C120.097 282.947 62.7966 268.325 56.8745 246.916C50.9734 225.583 48.0102 213.96 63.8672 196.852Z" fill="#8BCDE5" stroke="#0E6B96" stroke-width="12"/>
<path d="M434.338 91.3303C459.94 66.0145 499.372 70.1929 513.826 74.5346C529.453 79.2282 535.539 96.598 526.787 145.186C510.873 176.461 493.627 171.179 443.361 224.535L457.005 210.655L437.532 230.792C411.311 270.808 396.581 308.028 390.354 337.853C388.787 345.36 387.444 351.889 386.076 357.428C384.696 363.019 383.397 367.143 382.036 369.958C380.679 372.767 379.66 373.461 379.078 373.655C378.451 373.864 376.967 373.949 373.978 371.931L372.006 370.598L369.865 371.619C366.391 373.274 364.171 373.218 362.739 372.637C361.347 372.072 359.922 370.696 358.584 367.697C355.739 361.325 354.271 349.863 354.066 333.702C353.661 301.717 349.916 254.062 370.655 206.096C394.426 133.239 416.842 118.6 434.338 91.3303Z" fill="#87CFE5" stroke="#0E6B96" stroke-width="12"/>
<path d="M348 347C445.227 347 524 423.584 524 518C524 612.416 445.227 689 348 689C250.773 689 172 612.416 172 518C172 423.584 250.773 347 348 347Z" fill="#86D0E3" stroke="#0C74AB" stroke-width="7"/>
<path d="M468.499 636.957C435.766 673.201 375.043 687.606 351.324 685.283C249.803 690.859 173.426 603.403 175.798 516.606C177.284 462.239 163.464 590.489 295.345 645.321C366.03 680.172 468.499 636.957 468.499 636.957Z" fill="#37B4CA"/>
<path opacity="0.77" d="M267.068 381.465L278.278 373.49L292.551 366.856L299.98 365.071L306.431 364.945L308.711 368.967L310.404 373.308L310.662 379.18L302.256 379.241L289.027 382.301L279.839 385.043L269.997 390.019L267.523 384.976L267.068 381.465Z" fill="#004F80"/>
<path opacity="0.7" d="M340.743 338.464L348.107 336.661L355.355 336.324L363.409 337.226L373.649 339.03L382.624 341.623L382.968 348.723L373.188 348.722L362.028 349.059L353.398 349.735L346.955 351.312L339.591 353.115L337.981 346.804L338.211 341.957L340.743 338.464Z" fill="#014C83"/>
<path d="M146 595.624L145.92 595.257L143.42 583.757L143.123 582.388L141.963 581.603L126.433 571.082L126.401 571.062L118.903 566.21L116.41 559.146L113.545 540.045L116.347 524.172L119.072 519.176L119.103 519.121L119.131 519.065L123.416 510.493L132.439 500.521L141.458 492.926L153.29 486.773L161.102 484.604L170.068 486.553L173.333 493.49L173.351 493.528L178 502.827V520.586L175.097 532.684L174.9 533.5L175.097 534.316L178.097 546.816L178.147 547.026L178.223 547.229L182.957 559.854L183.404 560.349L192.457 570.354L198 585.135V595.433L196.018 601.377L184.24 610.438L171.814 615.5H157.277L149.271 608.757L146 602.625V595.624Z" fill="#86D0E3" stroke="#0C74AB" stroke-width="7"/>
<path d="M178.63 583.191C178.691 582.958 178.62 582.711 178.442 582.505C178.264 582.3 177.995 582.154 177.683 582.096C177.37 582.038 177.037 582.074 176.744 582.193C176.451 582.312 176.223 582.504 176.122 582.729C175.905 583.215 175.698 583.687 175.491 584.174C171.396 592.733 171.222 602.823 174.688 611.692C174.865 612.198 175.038 612.678 175.227 613.182C177.681 612.554 180.135 611.925 182.589 611.297C182.331 610.842 182.09 610.411 181.843 609.956C177.234 601.962 175.802 593.441 178.261 584.652C178.38 584.161 178.5 583.684 178.63 583.191Z" fill="#0074AB"/>
<path d="M162.63 586.191C162.691 585.958 162.62 585.711 162.442 585.505C162.264 585.3 161.995 585.154 161.683 585.096C161.37 585.038 161.037 585.074 160.744 585.193C160.451 585.312 160.223 585.504 160.122 585.729C159.905 586.215 159.698 586.687 159.491 587.174C155.396 595.733 155.222 605.823 158.688 614.692C158.865 615.198 159.038 615.678 159.227 616.182C161.681 615.554 164.135 614.925 166.589 614.297C166.331 613.842 166.09 613.411 165.843 612.956C161.234 604.962 159.802 596.441 162.261 587.652C162.38 587.161 162.5 586.684 162.63 586.191Z" fill="#0074AB"/>
<path d="M362.852 561.405C371.622 544.833 372.168 529.004 371.535 497" stroke="#076FA2" stroke-width="5" stroke-linecap="round"/>
<path d="M293.383 406.085C317.891 399.259 346.798 417.121 357.864 456.856C362.257 472.63 362.397 486.207 357.658 496.843C352.986 507.33 343.326 515.491 326.842 520.082C302.428 526.881 277.018 510.096 269.077 481.582C261.136 453.068 268.969 412.884 293.383 406.085Z" fill="#FEFEFE" stroke="#0F79AB" stroke-width="6"/>
<path d="M373.699 371.316C385.272 368.093 397.932 372.158 409.091 381.672C420.247 391.183 429.712 406.007 434.647 423.73C440.207 443.693 441.474 460.729 437.652 473.727C433.893 486.512 425.099 495.776 409.564 500.102C397.995 503.324 385.738 499.305 374.966 489.796C364.182 480.278 355.04 465.357 350.011 447.3C344.982 429.244 345.096 411.745 349.408 398.022C353.714 384.315 362.129 374.539 373.699 371.316Z" fill="#FEFEFE" stroke="#0F79AB" stroke-width="6"/>
<path d="M345.616 481.573C353.33 479.424 357.179 469.046 354.212 458.391C351.245 447.737 342.585 440.842 334.871 442.99C327.156 445.138 323.308 455.517 326.275 466.172C329.242 476.826 337.901 483.721 345.616 481.573Z" fill="#2B2A28"/>
<path d="M348.502 449.068C350.406 452.176 348.092 455.939 345.432 456.68C342.772 457.42 339.954 455.646 339.138 452.716C338.322 449.786 339.817 446.81 342.477 446.069C345.137 445.328 347.686 446.138 348.502 449.068Z" fill="#F9FAFB"/>
<path d="M394.951 449C397.918 459.654 394.551 469.899 386.836 472.047C379.122 474.196 370.463 467.3 367.496 456.646C364.528 445.992 368.377 435.613 376.091 433.465C385.433 433.462 391.862 437.908 394.951 449Z" fill="#2B2A28"/>
<path d="M389.721 439.543C391.625 442.65 389.31 446.413 386.65 447.154C383.991 447.895 381.172 446.12 380.356 443.19C379.54 440.26 381.036 437.284 383.696 436.544C386.355 435.803 388.905 436.613 389.721 439.543Z" fill="#F9FAFB"/>
<path d="M372.167 514.982C383.819 513.043 391.683 501.963 389.731 490.235C387.779 478.507 376.75 470.572 365.098 472.511C353.446 474.451 345.582 485.53 347.534 497.258C349.486 508.986 360.515 516.921 372.167 514.982Z" fill="#ED6F7A"/>
<path d="M269.103 541L266.999 549.47C269.103 554.436 277.5 564.5 294 572C310.001 573.5 314.752 569.5 335.752 566.5C362.883 558.218 426.158 569.5 434.5 552.837C437.335 547.175 423.5 543.869 415.908 549.47C423.999 543.5 428.499 545.5 415.908 549.47C412.867 550.991 404.683 551.082 400.509 552.837C383.29 560.078 360.52 564.791 335.752 559.985C312.707 557.064 302.186 551.62 285.153 547.832C270.625 541.584 271.01 546.656 269.103 545.381C264.613 546.55 269.757 553.261 269.103 552.837C269.125 552.898 266.999 545.937 269.103 541Z" fill="#D20223"/>
<path d="M415.908 549.47C423.5 543.869 437.335 547.175 434.5 552.837C426.158 569.5 362.883 558.218 335.752 566.5C314.752 569.5 310.001 573.5 294 572C277.5 564.5 269.103 554.436 266.999 549.47L269.103 541C266.999 545.937 269.125 552.898 269.103 552.837C269.757 553.261 264.613 546.55 269.103 545.381C271.01 546.656 270.625 541.584 285.153 547.832C302.186 551.62 312.707 557.064 335.752 559.985C360.52 564.791 383.29 560.078 400.509 552.837C404.683 551.082 412.867 550.991 415.908 549.47ZM415.908 549.47C428.499 545.5 423.999 543.5 415.908 549.47Z" stroke="#076FA2" stroke-width="6"/>
<path d="M437.5 536.035C441.999 536.836 438.5 536.188 441 536.035C442.634 535.935 438.5 536.035 441.5 536.535C442.08 536.948 442.463 536.922 442.5 537.535C444.499 538.535 442 537.035 444.5 539.035C444.5 540.805 444.999 540.035 441.999 542.035C386.499 572.035 323.5 567.035 269.5 545.035C265.818 543.535 267.985 545.035 266 543.535C265.5 543.157 265 542.535 264 540.035C263.987 539.422 264.455 538.975 265 538.535C268 537.035 264.5 538.535 268.5 537.035C270.5 537.035 271.936 537.109 272.5 537.535C275.5 539.035 272.444 537.464 277.5 539.535C330 561.035 377.5 561.944 430.5 539.035C433.228 537.169 444.5 537.035 437.5 536.035Z" fill="#076FA2"/>
<path d="M398.572 556.477L398.512 556.503L398.45 556.521L388.187 559.685L388.134 559.701L388.08 559.712L379.027 561.598L378.993 561.605L371.653 562.688L374.814 584.103L375.764 587.879L379.846 590.853L383.412 592.3L388.193 592.109L392.51 591.472L396.935 589.294L401.112 585.081L404.95 578.299L406.727 569.054L407.63 559.885L406.613 553L398.572 556.477Z" fill="#FEFEFE" stroke="#0578A5" stroke-width="3"/>
<path d="M347.353 561.586L347.415 561.594L347.478 561.596L356.785 561.833L356.839 561.834L356.891 561.831L364.902 561.331L364.935 561.329L371.209 560.588L373.259 577.946L373.293 581.054L370.568 584.23L367.927 586.124L363.904 587.014L360.164 587.456L356.005 586.719L351.605 584.344L346.922 579.887L343.41 573.048L340.641 566.069L339.999 560.636L347.353 561.586Z" fill="#FEFEFE" stroke="#0875A4" stroke-width="3"/>
<g clip-path="url(#clip1_342_100)">
<path d="M319 686.999C337.453 686.999 347.418 692.775 352.985 700.29C358.752 708.075 360.5 718.635 360.5 729.499C360.5 740.728 359.623 749.379 352.348 755.751C344.743 762.414 329.12 767.499 296.501 767.499C274.107 767.499 258.008 766.43 246.449 764.532C234.816 762.621 228.242 759.938 224.485 757.063C220.994 754.391 219.645 751.331 219.114 747.491C218.834 745.465 218.79 743.237 218.832 740.692C218.871 738.3 219.001 735.303 219.001 732.499C219.001 729.009 221.71 724.247 228.266 718.68C234.594 713.306 243.607 707.957 254.019 703.205C274.892 693.676 300.368 686.999 319 686.999Z" fill="#87CFE5" stroke="#0178B2" stroke-width="9"/>
<path d="M355.614 716.95C366.614 759.95 333.16 764.999 294.5 764.999C255.84 764.999 234 761.999 228.5 754.999C215.5 748.999 269.115 753.95 297.114 750.95C382.114 750.95 336 673.999 355.614 716.95Z" fill="#31A7BA"/>
</g>
<g clip-path="url(#clip2_342_100)">
<path d="M411 686.999C392.547 686.999 382.582 692.775 377.015 700.29C371.248 708.075 369.5 718.635 369.5 729.499C369.5 740.728 370.377 749.379 377.652 755.751C385.257 762.414 400.88 767.499 433.499 767.499C455.893 767.499 471.992 766.43 483.551 764.532C495.184 762.621 501.758 759.938 505.515 757.063C509.006 754.391 510.355 751.331 510.886 747.491C511.166 745.465 511.21 743.237 511.168 740.692C511.129 738.3 510.999 735.303 510.999 732.499C510.999 729.009 508.29 724.247 501.734 718.68C495.406 713.306 486.393 707.957 475.981 703.205C455.108 693.676 429.632 686.999 411 686.999Z" fill="#87CFE5" stroke="#0178B2" stroke-width="9"/>
<path d="M374.386 716.95C363.386 759.95 396.84 764.999 435.5 764.999C474.16 764.999 496 761.999 501.5 754.999C514.5 748.999 460.885 753.95 432.886 750.95C347.886 750.95 394 673.999 374.386 716.95Z" fill="#31A7BA"/>
</g>
<ellipse cx="676.364" cy="543.91" rx="96.5748" ry="108.09" fill="#AE2C23"/>
<path d="M770.574 523.212C720.751 475.572 698.611 526.813 661.408 648.788" stroke="#833430" stroke-width="5" stroke-linecap="round"/>
<path d="M585.913 580.697C645.53 502.016 680.073 463.788 759.536 489.175" stroke="#833430" stroke-width="5" stroke-linecap="round"/>
<path d="M605.014 472.616C664.388 477.14 688.997 471.578 715.454 445.39" stroke="#833430" stroke-width="5" stroke-linecap="round"/>
<path d="M649.161 441.339C730.765 438.961 748.978 530.371 731.347 634.116" stroke="#833430" stroke-width="5" stroke-linecap="round"/>
<g clip-path="url(#clip3_342_100)">
<path d="M479.454 415.344C481.162 420.617 484.046 422.428 487.407 423.047C491.497 423.8 497.482 423.045 506.151 420.917C522.678 416.861 547.289 408.152 576.076 403.939L576.493 403.878L576.913 403.873C598.496 403.626 617.732 403.332 633.786 400.163C649.189 397.123 661.164 391.531 669.195 380.917C670.256 366.912 667.532 356.909 662.504 349.905C657.421 342.824 649.798 338.542 640.486 336.294C621.488 331.711 595.392 335.601 570.713 342.648L570.524 342.703L570.331 342.744C546.723 347.9 523.081 361.185 505.674 375.994C497.002 383.372 490.024 391.007 485.432 398.013C480.859 404.991 478.902 410.963 479.454 415.344Z" fill="#87CFE5" stroke="#0076B8" stroke-width="7"/>
<path d="M620.089 375.555C619.711 375.671 619.289 375.669 618.918 375.558C618.549 375.446 618.262 375.236 618.117 374.962C617.97 374.689 617.976 374.372 618.127 374.071C618.278 373.77 618.562 373.511 618.92 373.359C619.694 373.034 620.445 372.722 621.223 372.405C634.807 366.427 651.561 363.672 666.866 364.591C667.736 364.625 668.562 364.66 669.432 364.705C668.777 367.131 668.123 369.557 667.469 371.982C666.672 371.862 665.916 371.75 665.121 371.639C651.089 369.441 636.686 370.31 622.459 374.839C621.662 375.074 620.888 375.308 620.089 375.555Z" fill="#0074AB"/>
<path d="M615.05 351.229C614.656 351.321 614.229 351.288 613.867 351.15C613.506 351.01 613.238 350.778 613.12 350.491C613.002 350.203 613.04 349.88 613.222 349.58C613.404 349.28 613.713 349.028 614.088 348.892C614.77 348.645 615.416 348.413 616.102 348.173C628.045 343.732 641.737 341.241 654.664 340.32C655.397 340.257 656.096 340.198 656.828 340.139C658.134 340.03 659.36 340.33 660.234 341.017C661.109 341.702 661.559 342.717 661.49 343.795C661.421 344.874 660.838 345.913 659.874 346.641C658.908 347.371 657.64 347.729 656.345 347.682C655.634 347.656 654.956 347.632 654.248 347.609C641.711 347.057 629.566 347.795 617.12 350.756C616.417 350.914 615.753 351.065 615.05 351.229Z" fill="#007BA4"/>
</g>
</g>
<defs>
<clipPath id="clip0_342_100">
<rect width="785" height="772" fill="white"/>
</clipPath>
<clipPath id="clip1_342_100">
<rect width="151" height="90" fill="white" transform="translate(214 681.999)"/>
</clipPath>
<clipPath id="clip2_342_100">
<rect width="151" height="90" fill="white" transform="matrix(-1 0 0 1 516 681.999)"/>
</clipPath>
<clipPath id="clip3_342_100">
<rect width="79.0489" height="204.107" fill="white" transform="matrix(0.144831 0.989456 0.989456 -0.144831 465.354 352.143)"/>
</clipPath>
</defs>
</svg>
