<svg width="785" height="772" viewBox="0 0 785 772" fill="none" xmlns="http://www.w3.org/2000/svg">
<g clip-path="url(#clip0_278_113)">
<path d="M108.012 125.56C116.24 119.613 143.46 113.043 153.75 114.696C164.217 116.378 195.444 129.693 207.34 139.376C231.106 158.719 247.233 179.558 277.118 229.311C283.023 249.771 299.415 271.903 305.715 290.689C312.056 309.599 317.806 326.922 321.567 341.621C325.384 356.541 326.898 367.884 325.469 375.165C324.779 378.676 323.53 380.572 322.219 381.61C320.958 382.611 318.759 383.511 314.638 383.366L311.659 383.261L309.75 385.516C307.162 388.573 305.655 388.979 305.174 389.03C304.71 389.079 303.453 388.983 301.12 386.974C298.83 385.003 296.243 381.817 293.225 377.354C290.239 372.939 287.023 367.573 283.398 361.422C268.99 336.976 248.781 301.192 214.613 272.942L214.374 272.744L214.111 272.576L211.043 270.599C147.311 229.23 93.2815 199.487 91.5027 175.757C89.7304 152.11 89.0144 139.291 108.012 125.56Z" fill="#8BCDE5" stroke="#0E6B96" stroke-width="12"/>
<path d="M428.422 75.1528C456.1 49.3754 500.037 52.8458 516.228 56.9282C533.732 61.3415 541.021 78.6031 532.769 127.351C516.035 158.915 496.714 153.941 442.484 208.205L457.222 194.078L436.197 214.566C408.277 255.056 393.04 292.543 387.024 322.482C385.511 330.018 384.217 336.571 382.865 342.135C381.501 347.752 380.183 351.899 378.756 354.739C377.334 357.572 376.222 358.284 375.581 358.489C374.891 358.709 373.246 358.821 369.864 356.856L367.632 355.559L365.283 356.618C361.474 358.336 359.007 358.319 357.398 357.764C355.834 357.224 354.209 355.873 352.631 352.899C349.277 346.577 347.298 335.14 346.582 318.982C345.163 287.002 339.557 239.411 361.146 191.07C385.348 117.781 409.809 102.738 428.422 75.1528Z" fill="#87CFE5" stroke="#0E6B96" stroke-width="12"/>
<path d="M363.5 321C465.975 321 549 403.406 549 505C549 606.594 465.975 689 363.5 689C261.025 689 178 606.594 178 505C178 403.406 261.025 321 363.5 321Z" fill="#86D0E3" stroke="#0C74AB" stroke-width="7"/>
<path d="M490.502 633C456.002 672 392.002 687.5 367.002 685C260.002 691 179.502 596.895 182.002 503.5C183.568 445 169.002 583 308.002 642C382.502 679.5 490.502 633 490.502 633Z" fill="#37B4CA"/>
<path opacity="0.77" d="M288.201 402.401L300.017 393.82L315.06 386.681L322.89 384.76L329.69 384.625L332.092 388.953L333.876 393.623L334.149 399.942L325.29 400.008L311.346 403.301L301.662 406.251L291.289 411.605L288.681 406.179L288.201 402.401Z" fill="#004F80"/>
<path opacity="0.7" d="M370.851 359.183L378.612 357.244L386.252 356.881L394.741 357.851L405.533 359.792L414.992 362.582L415.355 370.222L405.047 370.221L393.284 370.584L384.189 371.311L377.398 373.008L369.637 374.948L367.94 368.157L368.183 362.943L370.851 359.183Z" fill="#014C83"/>
<path d="M385.065 469.664C405.5 422 442.498 426.5 475.266 442.495" stroke="#076FA2" stroke-width="7" stroke-linecap="round"/>
<path d="M375.852 564.895C383.769 549.482 383.555 534.453 381.394 504" stroke="#076FA2" stroke-width="5" stroke-linecap="round"/>
<path d="M152 595.624L151.92 595.257L149.42 583.757L149.123 582.388L147.963 581.603L132.433 571.082L132.401 571.062L124.903 566.21L122.41 559.146L119.545 540.045L122.347 524.172L125.072 519.176L125.103 519.121L125.131 519.065L129.416 510.493L138.439 500.521L147.458 492.926L159.29 486.773L167.102 484.604L176.068 486.553L179.333 493.49L179.351 493.528L184 502.827V520.586L181.097 532.684L180.9 533.5L181.097 534.316L184.097 546.816L184.147 547.026L184.223 547.229L188.957 559.854L189.404 560.349L198.457 570.354L204 585.135V595.433L202.018 601.377L190.24 610.438L177.814 615.5H163.277L155.271 608.757L152 602.625V595.624Z" fill="#86D0E3" stroke="#0C74AB" stroke-width="7"/>
<path d="M184.63 583.191C184.691 582.958 184.62 582.711 184.442 582.505C184.264 582.3 183.995 582.154 183.683 582.096C183.37 582.038 183.037 582.074 182.744 582.193C182.451 582.312 182.223 582.504 182.122 582.729C181.905 583.215 181.698 583.687 181.491 584.174C177.396 592.733 177.222 602.823 180.688 611.692C180.865 612.198 181.038 612.678 181.227 613.182C183.681 612.554 186.135 611.925 188.589 611.297C188.331 610.842 188.09 610.411 187.843 609.956C183.234 601.962 181.802 593.441 184.261 584.652C184.38 584.161 184.5 583.684 184.63 583.191Z" fill="#0074AB"/>
<path d="M168.63 586.191C168.691 585.958 168.62 585.711 168.442 585.505C168.264 585.3 167.995 585.154 167.683 585.096C167.37 585.038 167.037 585.074 166.744 585.193C166.451 585.312 166.223 585.504 166.122 585.729C165.905 586.215 165.698 586.687 165.491 587.174C161.396 595.733 161.222 605.823 164.688 614.692C164.865 615.198 165.038 615.678 165.227 616.182C167.681 615.554 170.135 614.925 172.589 614.297C172.331 613.842 172.09 613.411 171.843 612.956C167.234 604.962 165.802 596.441 168.261 587.652C168.38 587.161 168.5 586.684 168.63 586.191Z" fill="#0074AB"/>
<path d="M285.234 522.981C284.799 522.392 284.193 522.041 283.548 522.004C282.903 521.966 282.273 522.246 281.796 522.782C281.318 523.317 281.033 524.065 281.003 524.859C280.972 525.654 281.2 526.431 281.634 527.02C283.763 529.902 286.028 532.632 288.407 535.197C332.739 580.972 401.764 574.306 444.854 529.893C447.276 527.411 449.584 524.86 451.853 522.156C452.317 521.603 452.583 520.845 452.594 520.05C452.605 519.254 452.358 518.486 451.91 517.914C451.461 517.342 450.846 517.014 450.201 517C449.555 516.987 448.932 517.291 448.468 517.844C446.289 520.442 444.071 522.893 441.743 525.278C400.46 568.061 333.426 574.128 291.613 530.682C289.369 528.261 287.235 525.691 285.234 522.981Z" fill="#076FA2"/>
<path d="M353.948 563.119L356.748 563.121L366.134 562.608L366.182 562.616L366.231 562.619L374.471 561.5L378.376 560.5H380.555L380.895 583.037L380.555 586.601L377.386 589.856L374.471 591.652L370.29 592.121H366.455L362.328 590.733L358.155 587.46L353.948 581.803L351.216 573.627L349.254 565.403V562.608L353.948 563.119Z" fill="#FEFEFE" stroke="#0578A5" stroke-width="3"/>
<path d="M402.859 555H401.491V556.5H395.666H394.039L392.026 558.5L385.656 559.5L381.105 561V566.485V584.339L381.408 587.496L384.228 590.39L386.834 591.996L390.59 592.417H394.039L397.743 591.172L401.491 588.235L405.272 583.153L407.732 575.795L409.502 568.384V553L402.859 555Z" fill="#FEFEFE" stroke="#0875A4" stroke-width="3"/>
<path d="M287.854 494.521C310.999 453 338.499 450 370.854 469.521" stroke="#076FA2" stroke-width="7" stroke-linecap="round"/>
<path d="M383.167 507.982C394.819 506.043 402.683 494.963 400.731 483.235C398.779 471.507 387.75 463.572 376.098 465.511C364.446 467.451 356.582 478.53 358.534 490.258C360.486 501.986 371.515 509.921 383.167 507.982Z" fill="#ED6F7A"/>
<g clip-path="url(#clip1_278_113)">
<path d="M324.998 686.999C343.451 686.999 353.416 692.775 358.983 700.29C364.75 708.075 366.498 718.635 366.498 729.499C366.498 740.728 365.621 749.379 358.346 755.751C350.741 762.414 335.118 767.499 302.499 767.499C280.105 767.499 264.006 766.43 252.447 764.532C240.814 762.621 234.24 759.938 230.483 757.063C226.992 754.391 225.643 751.331 225.112 747.491C224.832 745.465 224.788 743.237 224.83 740.692C224.869 738.3 224.999 735.303 224.999 732.499C224.999 729.009 227.708 724.247 234.264 718.68C240.592 713.306 249.605 707.957 260.017 703.205C280.89 693.676 306.366 686.999 324.998 686.999Z" fill="#87CFE5" stroke="#0178B2" stroke-width="9"/>
<path d="M361.613 716.95C372.613 759.95 339.159 764.999 300.498 764.999C261.839 764.999 239.998 761.999 234.499 754.999C221.499 748.999 275.113 753.95 303.113 750.95C388.113 750.95 341.999 673.999 361.613 716.95Z" fill="#31A7BA"/>
</g>
<g clip-path="url(#clip2_278_113)">
<path d="M417.002 686.999C398.549 686.999 388.584 692.775 383.017 700.29C377.25 708.075 375.502 718.635 375.502 729.499C375.502 740.728 376.379 749.379 383.654 755.751C391.259 762.414 406.882 767.499 439.501 767.499C461.895 767.499 477.994 766.43 489.553 764.532C501.186 762.621 507.76 759.938 511.517 757.063C515.008 754.391 516.357 751.331 516.888 747.491C517.168 745.465 517.212 743.237 517.17 740.692C517.131 738.3 517.001 735.303 517.001 732.499C517.001 729.009 514.292 724.247 507.736 718.68C501.408 713.306 492.395 707.957 481.983 703.205C461.11 693.676 435.634 686.999 417.002 686.999Z" fill="#87CFE5" stroke="#0178B2" stroke-width="9"/>
<path d="M380.387 716.95C369.387 759.95 402.841 764.999 441.502 764.999C480.161 764.999 502.002 761.999 507.501 754.999C520.501 748.999 466.887 753.95 438.887 750.95C353.887 750.95 400.001 673.999 380.387 716.95Z" fill="#31A7BA"/>
</g>
<ellipse cx="670.578" cy="438.49" rx="112.503" ry="103.51" fill="#AE2C23"/>
<path d="M780.324 418.669C722.284 373.047 696.492 422.117 653.152 538.924" stroke="#833430" stroke-width="5" stroke-linecap="round"/>
<path d="M565.208 473.719C634.657 398.372 674.897 361.763 767.467 386.074" stroke="#833430" stroke-width="5" stroke-linecap="round"/>
<path d="M587.461 370.217C656.628 374.549 685.295 369.223 716.116 344.145" stroke="#833430" stroke-width="5" stroke-linecap="round"/>
<path d="M638.889 340.266C733.952 337.988 755.169 425.525 734.63 524.874" stroke="#833430" stroke-width="5" stroke-linecap="round"/>
<g clip-path="url(#clip3_278_113)">
<path d="M495.625 389.439C497.981 394.894 501.536 396.521 505.592 396.821C510.527 397.186 517.638 395.734 527.876 392.525C547.394 386.408 576.301 374.443 610.468 366.837L610.963 366.727L611.464 366.676C637.255 364.089 660.237 361.703 679.242 356.585C697.477 351.675 711.462 344.405 720.431 332.189C720.865 317.095 717.012 306.69 710.584 299.74C704.084 292.715 694.716 288.955 683.447 287.554C660.46 284.697 629.491 291.667 600.404 301.862L600.181 301.941L599.953 302.006C572.034 310.063 544.559 326.816 524.63 344.529C514.7 353.354 506.812 362.272 501.74 370.259C496.687 378.214 494.703 384.813 495.625 389.439Z" fill="#87CFE5" stroke="#0076B8" stroke-width="7"/>
<path d="M661.398 331.741C660.954 331.906 660.448 331.948 659.999 331.87C659.55 331.79 659.195 331.596 659.005 331.319C658.813 331.042 658.802 330.703 658.965 330.364C659.127 330.027 659.451 329.719 659.87 329.518C660.776 329.087 661.656 328.672 662.566 328.25C678.451 320.393 698.319 315.643 716.673 314.977C717.715 314.92 718.705 314.869 719.747 314.824C719.109 317.488 718.472 320.153 717.834 322.818C716.874 322.775 715.964 322.736 715.006 322.704C698.098 321.864 680.93 324.344 664.19 330.719C663.25 331.057 662.339 331.391 661.398 331.741Z" fill="#0074AB"/>
<path d="M653.924 306.266C653.459 306.407 652.946 306.417 652.505 306.308C652.065 306.198 651.731 305.979 651.573 305.684C651.414 305.389 651.441 305.039 651.64 304.698C651.84 304.359 652.195 304.056 652.634 303.869C653.436 303.533 654.194 303.215 655 302.884C669.014 296.849 685.236 292.71 700.637 290.332C701.51 290.187 702.342 290.048 703.213 289.906C704.769 289.65 706.253 289.838 707.339 290.479C708.425 291.117 709.024 292.154 709.006 293.315C708.987 294.476 708.352 295.65 707.243 296.532C706.132 297.417 704.637 297.937 703.086 298.025C702.234 298.075 701.422 298.122 700.575 298.174C685.552 298.933 671.075 301.03 656.371 305.537C655.54 305.782 654.755 306.014 653.924 306.266Z" fill="#007BA4"/>
</g>
</g>
<defs>
<clipPath id="clip0_278_113">
<rect width="785" height="772" fill="white"/>
</clipPath>
<clipPath id="clip1_278_113">
<rect width="151" height="90" fill="white" transform="translate(220 681.999)"/>
</clipPath>
<clipPath id="clip2_278_113">
<rect width="151" height="90" fill="white" transform="matrix(-1 0 0 1 522 681.999)"/>
</clipPath>
<clipPath id="clip3_278_113">
<rect width="84.439" height="245.567" fill="white" transform="matrix(0.217298 0.976105 0.976105 -0.217298 475 323.361)"/>
</clipPath>
</defs>
</svg>
