<svg width="785" height="772" viewBox="0 0 785 772" fill="none" xmlns="http://www.w3.org/2000/svg">
<g clip-path="url(#clip0_278_66)">
<path d="M108.012 125.56C116.24 119.613 143.46 113.043 153.75 114.696C164.217 116.378 195.444 129.693 207.34 139.376C231.106 158.719 247.233 179.558 277.118 229.311C283.023 249.771 299.415 271.903 305.715 290.689C312.056 309.599 317.806 326.922 321.567 341.621C325.384 356.541 326.898 367.884 325.469 375.165C324.779 378.676 323.53 380.572 322.219 381.61C320.958 382.611 318.759 383.511 314.638 383.366L311.659 383.261L309.75 385.516C307.162 388.573 305.655 388.979 305.174 389.03C304.71 389.079 303.453 388.983 301.12 386.974C298.83 385.003 296.243 381.817 293.225 377.354C290.239 372.939 287.023 367.573 283.398 361.422C268.99 336.976 248.781 301.192 214.613 272.942L214.374 272.744L214.111 272.576L211.043 270.599C147.311 229.23 93.2815 199.487 91.5027 175.757C89.7304 152.11 89.0144 139.291 108.012 125.56Z" fill="#8BCDE5" stroke="#0E6B96" stroke-width="12"/>
<path d="M428.422 75.1528C456.1 49.3754 500.037 52.8458 516.228 56.9282C533.732 61.3415 541.021 78.6031 532.769 127.351C516.035 158.915 496.714 153.941 442.484 208.205L457.222 194.078L436.197 214.566C408.277 255.056 393.04 292.543 387.024 322.482C385.511 330.018 384.217 336.571 382.865 342.135C381.501 347.752 380.183 351.899 378.756 354.739C377.334 357.572 376.222 358.284 375.581 358.489C374.891 358.709 373.246 358.821 369.864 356.856L367.632 355.559L365.283 356.618C361.474 358.336 359.007 358.319 357.398 357.764C355.834 357.224 354.209 355.873 352.631 352.899C349.277 346.577 347.298 335.14 346.582 318.982C345.163 287.002 339.557 239.411 361.146 191.07C385.348 117.781 409.809 102.738 428.422 75.1528Z" fill="#87CFE5" stroke="#0E6B96" stroke-width="12"/>
<path d="M363.5 321C465.975 321 549 403.406 549 505C549 606.594 465.975 689 363.5 689C261.025 689 178 606.594 178 505C178 403.406 261.025 321 363.5 321Z" fill="#86D0E3" stroke="#0C74AB" stroke-width="7"/>
<path d="M490.502 633C456.002 672 392.002 687.5 367.002 685C260.002 691 179.502 596.895 182.002 503.5C183.568 445 169.002 583 308.002 642C382.502 679.5 490.502 633 490.502 633Z" fill="#37B4CA"/>
<path opacity="0.77" d="M278.201 380.401L290.017 371.82L305.06 364.681L312.89 362.76L319.69 362.625L322.092 366.953L323.876 371.623L324.149 377.942L315.29 378.008L301.346 381.301L291.662 384.251L281.289 389.605L278.681 384.179L278.201 380.401Z" fill="#004F80"/>
<path opacity="0.7" d="M368.851 343.183L376.612 341.244L384.252 340.881L392.741 341.851L403.533 343.792L412.992 346.582L413.355 354.222L403.047 354.221L391.284 354.584L382.189 355.311L375.398 357.008L367.637 358.948L365.94 352.157L366.183 346.943L368.851 343.183Z" fill="#014C83"/>
<path d="M375.852 564.895C383.769 549.482 383.555 534.453 381.394 504" stroke="#076FA2" stroke-width="5" stroke-linecap="round"/>
<path d="M152 595.624L151.92 595.257L149.42 583.757L149.123 582.388L147.963 581.603L132.433 571.082L132.401 571.062L124.903 566.21L122.41 559.146L119.545 540.045L122.347 524.172L125.072 519.176L125.103 519.121L125.131 519.065L129.416 510.493L138.439 500.521L147.458 492.926L159.29 486.773L167.102 484.604L176.068 486.553L179.333 493.49L179.351 493.528L184 502.827V520.586L181.097 532.684L180.9 533.5L181.097 534.316L184.097 546.816L184.147 547.026L184.223 547.229L188.957 559.854L189.404 560.349L198.457 570.354L204 585.135V595.433L202.018 601.377L190.24 610.438L177.814 615.5H163.277L155.271 608.757L152 602.625V595.624Z" fill="#86D0E3" stroke="#0C74AB" stroke-width="7"/>
<path d="M184.63 583.191C184.691 582.958 184.62 582.711 184.442 582.505C184.264 582.3 183.995 582.154 183.683 582.096C183.37 582.038 183.037 582.074 182.744 582.193C182.451 582.312 182.223 582.504 182.122 582.729C181.905 583.215 181.698 583.687 181.491 584.174C177.396 592.733 177.222 602.823 180.688 611.692C180.865 612.198 181.038 612.678 181.227 613.182C183.681 612.554 186.135 611.925 188.589 611.297C188.331 610.842 188.09 610.411 187.843 609.956C183.234 601.962 181.802 593.441 184.261 584.652C184.38 584.161 184.5 583.684 184.63 583.191Z" fill="#0074AB"/>
<path d="M168.63 586.191C168.691 585.958 168.62 585.711 168.442 585.505C168.264 585.3 167.995 585.154 167.683 585.096C167.37 585.038 167.037 585.074 166.744 585.193C166.451 585.312 166.223 585.504 166.122 585.729C165.905 586.215 165.698 586.687 165.491 587.174C161.396 595.733 161.222 605.823 164.688 614.692C164.865 615.198 165.038 615.678 165.227 616.182C167.681 615.554 170.135 614.925 172.589 614.297C172.331 613.842 172.09 613.411 171.843 612.956C167.234 604.962 165.802 596.441 168.261 587.652C168.38 587.161 168.5 586.684 168.63 586.191Z" fill="#0074AB"/>
<path d="M309.299 389.818C333.94 385.717 360.486 407.318 367.449 449.153C370.213 465.761 369.03 479.631 363.359 489.929C357.768 500.084 347.524 507.282 330.95 510.041C306.402 514.127 283.173 494.032 278.177 464.012C273.18 433.99 284.751 393.904 309.299 389.818Z" fill="#FEFEFE" stroke="#0F79AB" stroke-width="6"/>
<path d="M399.628 360.505C411.76 358.486 424.224 364.128 434.58 375.237C444.934 386.342 453 402.752 456.144 421.644C459.686 442.926 459.166 460.692 453.892 473.702C448.705 486.5 438.762 495.083 422.478 497.794C410.351 499.812 398.292 494.262 388.33 483.203C378.356 472.132 370.629 455.659 367.425 436.411C364.221 417.162 366.197 399.074 372.047 385.37C377.89 371.68 387.501 362.523 399.628 360.505Z" fill="#FEFEFE" stroke="#0F79AB" stroke-width="6"/>
<path d="M352.879 473.888C360.778 472.573 365.71 462.664 363.894 451.754C362.078 440.844 354.203 433.066 346.303 434.381C338.404 435.695 333.472 445.605 335.288 456.515C337.104 467.425 344.979 475.203 352.879 473.888Z" fill="#2B2A28"/>
<path d="M359.21 441.876C360.771 445.169 358.07 448.663 355.346 449.117C352.622 449.57 350.009 447.505 349.51 444.505C349.01 441.505 350.814 438.705 353.538 438.252C356.262 437.799 358.71 438.876 359.21 441.876Z" fill="#F9FAFB"/>
<path d="M405.401 446.754C407.217 457.664 402.778 467.491 394.879 468.806C386.979 470.121 379.104 462.343 377.288 451.433C375.472 440.523 380.404 430.613 388.303 429.299C397.592 430.29 403.511 435.395 405.401 446.754Z" fill="#2B2A28"/>
<path d="M401.21 436.794C402.771 440.086 400.069 443.581 397.346 444.034C394.622 444.488 392.009 442.423 391.51 439.423C391.01 436.423 392.814 433.623 395.538 433.17C398.261 432.717 400.71 433.793 401.21 436.794Z" fill="#F9FAFB"/>
<path d="M381.167 511.982C392.819 510.043 400.683 498.963 398.731 487.235C396.779 475.507 385.75 467.572 374.098 469.511C362.446 471.451 354.582 482.53 356.534 494.258C358.486 505.986 369.515 513.921 381.167 511.982Z" fill="#ED6F7A"/>
<path d="M285.234 522.981C284.799 522.392 284.193 522.041 283.548 522.004C282.903 521.966 282.273 522.246 281.796 522.782C281.318 523.317 281.033 524.065 281.003 524.859C280.972 525.654 281.2 526.431 281.634 527.02C283.763 529.902 286.028 532.632 288.407 535.197C332.739 580.972 401.764 574.306 444.854 529.893C447.276 527.411 449.584 524.86 451.853 522.156C452.317 521.603 452.583 520.845 452.594 520.05C452.605 519.254 452.358 518.486 451.91 517.914C451.461 517.342 450.846 517.014 450.201 517C449.555 516.987 448.932 517.291 448.468 517.844C446.289 520.442 444.071 522.893 441.743 525.278C400.46 568.061 333.426 574.128 291.613 530.682C289.369 528.261 287.235 525.691 285.234 522.981Z" fill="#076FA2"/>
<path d="M353.948 563.119L356.748 563.121L366.134 562.608L366.182 562.616L366.231 562.619L374.471 561.5L378.376 560.5H380.555L380.895 583.037L380.555 586.601L377.386 589.856L374.471 591.652L370.29 592.121H366.455L362.328 590.733L358.155 587.46L353.948 581.803L351.216 573.627L349.254 565.403V562.608L353.948 563.119Z" fill="#FEFEFE" stroke="#0578A5" stroke-width="3"/>
<path d="M402.859 555H401.491V556.5H395.666H394.039L392.026 558.5L385.656 559.5L381.105 561V566.485V584.339L381.408 587.496L384.228 590.39L386.834 591.996L390.59 592.417H394.039L397.743 591.172L401.491 588.235L405.272 583.153L407.732 575.795L409.502 568.384V553L402.859 555Z" fill="#FEFEFE" stroke="#0875A4" stroke-width="3"/>
<g clip-path="url(#clip1_278_66)">
<path d="M324.998 686.999C343.451 686.999 353.416 692.775 358.983 700.29C364.75 708.075 366.498 718.635 366.498 729.499C366.498 740.728 365.621 749.379 358.346 755.751C350.741 762.414 335.118 767.499 302.499 767.499C280.105 767.499 264.006 766.43 252.447 764.532C240.814 762.621 234.24 759.938 230.483 757.063C226.992 754.391 225.643 751.331 225.112 747.491C224.832 745.465 224.788 743.237 224.83 740.692C224.869 738.3 224.999 735.303 224.999 732.499C224.999 729.009 227.708 724.247 234.264 718.68C240.592 713.306 249.605 707.957 260.017 703.205C280.89 693.676 306.366 686.999 324.998 686.999Z" fill="#87CFE5" stroke="#0178B2" stroke-width="9"/>
<path d="M361.613 716.95C372.613 759.95 339.159 764.999 300.498 764.999C261.839 764.999 239.998 761.999 234.499 754.999C221.499 748.999 275.113 753.95 303.113 750.95C388.113 750.95 341.999 673.999 361.613 716.95Z" fill="#31A7BA"/>
</g>
<g clip-path="url(#clip2_278_66)">
<path d="M417.002 686.999C398.549 686.999 388.584 692.775 383.017 700.29C377.25 708.075 375.502 718.635 375.502 729.499C375.502 740.728 376.379 749.379 383.654 755.751C391.259 762.414 406.882 767.499 439.501 767.499C461.895 767.499 477.994 766.43 489.553 764.532C501.186 762.621 507.76 759.938 511.517 757.063C515.008 754.391 516.357 751.331 516.888 747.491C517.168 745.465 517.212 743.237 517.17 740.692C517.131 738.3 517.001 735.303 517.001 732.499C517.001 729.009 514.292 724.247 507.736 718.68C501.408 713.306 492.395 707.957 481.983 703.205C461.11 693.676 435.634 686.999 417.002 686.999Z" fill="#87CFE5" stroke="#0178B2" stroke-width="9"/>
<path d="M380.387 716.95C369.387 759.95 402.841 764.999 441.502 764.999C480.161 764.999 502.002 761.999 507.501 754.999C520.501 748.999 466.887 753.95 438.887 750.95C353.887 750.95 400.001 673.999 380.387 716.95Z" fill="#31A7BA"/>
</g>
<ellipse cx="655.578" cy="420.49" rx="112.503" ry="103.51" fill="#AE2C23"/>
<path d="M765.324 400.669C707.284 355.047 681.492 404.117 638.152 520.924" stroke="#833430" stroke-width="5" stroke-linecap="round"/>
<path d="M550.208 455.719C619.657 380.372 659.897 343.763 752.467 368.074" stroke="#833430" stroke-width="5" stroke-linecap="round"/>
<path d="M572.461 352.217C641.628 356.549 670.295 351.223 701.116 326.145" stroke="#833430" stroke-width="5" stroke-linecap="round"/>
<path d="M623.889 322.266C718.952 319.988 740.169 407.525 719.63 506.874" stroke="#833430" stroke-width="5" stroke-linecap="round"/>
<g clip-path="url(#clip3_278_66)">
<path d="M482.602 395.055C485.652 400.14 489.206 401.311 493.015 401.115C497.649 400.878 504.013 398.588 512.998 394.191C530.128 385.809 555.037 370.536 585.515 358.917L585.956 358.749L586.413 358.638C609.919 352.971 630.852 347.843 647.665 340.507C663.796 333.468 675.612 324.621 681.993 311.513C680.002 296.605 674.78 286.831 667.717 280.768C660.577 274.64 651.293 272.073 640.622 272.057C618.852 272.027 591.239 282.634 565.883 296.186L565.688 296.291L565.487 296.382C540.875 307.689 518.053 327.502 502.379 347.346C494.571 357.233 488.669 366.964 485.232 375.439C481.808 383.88 481.013 390.614 482.602 395.055Z" fill="#87CFE5" stroke="#0076B8" stroke-width="7"/>
<path d="M627.179 318.213C626.793 318.43 626.332 318.533 625.902 318.51C625.474 318.486 625.113 318.338 624.893 318.088C624.672 317.839 624.607 317.506 624.704 317.153C624.802 316.801 625.053 316.459 625.41 316.211C626.181 315.677 626.932 315.162 627.709 314.637C641.194 304.982 658.865 297.904 675.779 295.028C676.737 294.845 677.646 294.676 678.605 294.505C678.436 297.205 678.268 299.905 678.099 302.605C677.201 302.678 676.351 302.75 675.458 302.834C659.646 304.053 644.119 308.571 629.606 316.87C628.789 317.317 627.996 317.755 627.179 318.213Z" fill="#0074AB"/>
<path d="M616.21 294.046C615.801 294.24 615.327 294.312 614.9 294.259C614.475 294.204 614.13 294.028 613.937 293.757C613.743 293.486 613.712 293.139 613.843 292.779C613.974 292.42 614.255 292.08 614.634 291.843C615.323 291.415 615.976 291.01 616.671 290.587C628.71 282.951 643.097 276.916 657.001 272.712C657.788 272.464 658.537 272.227 659.323 271.981C660.724 271.541 662.13 271.547 663.239 272.046C664.347 272.542 665.067 273.491 665.234 274.635C665.401 275.78 664.998 277.013 664.11 278.015C663.219 279.021 661.915 279.713 660.492 279.988C659.71 280.14 658.964 280.284 658.186 280.438C644.376 283.002 631.284 286.818 618.363 293.032C617.631 293.374 616.94 293.697 616.21 294.046Z" fill="#007BA4"/>
</g>
</g>
<defs>
<clipPath id="clip0_278_66">
<rect width="785" height="772" fill="white"/>
</clipPath>
<clipPath id="clip1_278_66">
<rect width="151" height="90" fill="white" transform="translate(220 681.999)"/>
</clipPath>
<clipPath id="clip2_278_66">
<rect width="151" height="90" fill="white" transform="matrix(-1 0 0 1 522 681.999)"/>
</clipPath>
<clipPath id="clip3_278_66">
<rect width="84.439" height="228.83" fill="white" transform="matrix(0.356233 0.934397 0.934397 -0.356233 453 332.517)"/>
</clipPath>
</defs>
</svg>
