<svg width="785" height="772" viewBox="0 0 785 772" fill="none" xmlns="http://www.w3.org/2000/svg">
<g clip-path="url(#clip0_337_2)">
<path d="M53.8653 196.852C60.7328 189.442 85.7769 176.982 95.9779 176.077C106.355 175.156 138.784 180.043 151.956 186.146C178.271 198.336 197.496 213.703 235.097 252.423C244.412 269.852 264.121 286.345 273.519 302.14C282.98 318.04 291.589 332.618 297.818 345.252C304.139 358.077 307.61 368.154 307.525 375.188C307.484 378.58 306.618 380.618 305.539 381.883C304.502 383.1 302.544 384.446 298.551 385.284L295.664 385.891L294.225 388.415C292.276 391.837 290.897 392.565 290.443 392.725C290.005 392.88 288.777 393.088 286.174 391.79C283.62 390.517 280.564 388.196 276.866 384.802C273.208 381.445 269.16 377.267 264.578 372.464C246.369 353.373 220.562 325.222 182.651 307.291L182.387 307.165L182.104 307.073L178.799 305.977C110.095 282.947 52.7947 268.325 46.8725 246.916C40.9714 225.583 38.0082 213.96 53.8653 196.852Z" fill="#8BCDE5" stroke="#0E6B96" stroke-width="12"/>
<path d="M424.338 91.3303C449.94 66.0145 489.372 70.1929 503.826 74.5346C519.453 79.2282 525.539 96.598 516.787 145.186C500.873 176.461 483.627 171.179 433.361 224.535L447.005 210.655L427.532 230.792C401.311 270.808 386.581 308.028 380.354 337.853C378.787 345.36 377.444 351.889 376.076 357.428C374.696 363.019 373.397 367.143 372.036 369.958C370.679 372.767 369.66 373.461 369.078 373.655C368.451 373.864 366.967 373.949 363.978 371.931L362.006 370.598L359.865 371.619C356.391 373.274 354.171 373.218 352.739 372.637C351.347 372.072 349.922 370.696 348.584 367.697C345.739 361.325 344.271 349.863 344.066 333.702C343.661 301.717 339.916 254.062 360.655 206.096C384.426 133.239 406.842 118.6 424.338 91.3303Z" fill="#87CFE5" stroke="#0E6B96" stroke-width="12"/>
<path d="M347.5 347C449.975 347 533 423.584 533 518C533 612.416 449.975 689 347.5 689C245.025 689 162 612.416 162 518C162 423.584 245.025 347 347.5 347Z" fill="#86D0E3" stroke="#0C74AB" stroke-width="7"/>
<path d="M474.502 636.957C440.002 673.201 376.002 687.606 351.002 685.283C244.002 690.859 163.502 603.403 166.002 516.606C167.568 462.239 153.002 590.489 292.002 645.321C366.502 680.172 474.502 636.957 474.502 636.957Z" fill="#37B4CA"/>
<path opacity="0.77" d="M262.201 381.465L274.017 373.49L289.06 366.856L296.89 365.071L303.69 364.945L306.092 368.967L307.876 373.308L308.149 379.18L299.29 379.241L285.346 382.301L275.662 385.043L265.289 390.019L262.681 384.976L262.201 381.465Z" fill="#004F80"/>
<path opacity="0.7" d="M339.851 338.464L347.612 336.661L355.252 336.324L363.741 337.226L374.533 339.03L383.992 341.623L384.355 348.723L374.047 348.722L362.284 349.059L353.189 349.735L346.398 351.312L338.637 353.115L336.94 346.804L337.183 341.957L339.851 338.464Z" fill="#014C83"/>
<path d="M136 595.624L135.92 595.257L133.42 583.757L133.123 582.388L131.963 581.603L116.433 571.082L116.401 571.062L108.903 566.21L106.41 559.146L103.545 540.045L106.347 524.172L109.072 519.176L109.103 519.121L109.131 519.065L113.416 510.493L122.439 500.521L131.458 492.926L143.29 486.773L151.102 484.604L160.068 486.553L163.333 493.49L163.351 493.528L168 502.827V520.586L165.097 532.684L164.9 533.5L165.097 534.316L168.097 546.816L168.147 547.026L168.223 547.229L172.957 559.854L173.404 560.349L182.457 570.354L188 585.135V595.433L186.018 601.377L174.24 610.438L161.814 615.5H147.277L139.271 608.757L136 602.625V595.624Z" fill="#86D0E3" stroke="#0C74AB" stroke-width="7"/>
<path d="M168.63 583.191C168.691 582.958 168.62 582.711 168.442 582.505C168.264 582.3 167.995 582.154 167.683 582.096C167.37 582.038 167.037 582.074 166.744 582.193C166.451 582.312 166.223 582.504 166.122 582.729C165.905 583.215 165.698 583.687 165.491 584.174C161.396 592.733 161.222 602.823 164.688 611.692C164.865 612.198 165.038 612.678 165.227 613.182C167.681 612.554 170.135 611.925 172.589 611.297C172.331 610.842 172.09 610.411 171.843 609.956C167.234 601.962 165.802 593.441 168.261 584.652C168.38 584.161 168.5 583.684 168.63 583.191Z" fill="#0074AB"/>
<path d="M152.63 586.191C152.691 585.958 152.62 585.711 152.442 585.505C152.264 585.3 151.995 585.154 151.683 585.096C151.37 585.038 151.037 585.074 150.744 585.193C150.451 585.312 150.223 585.504 150.122 585.729C149.905 586.215 149.698 586.687 149.491 587.174C145.396 595.733 145.222 605.823 148.688 614.692C148.865 615.198 149.038 615.678 149.227 616.182C151.681 615.554 154.135 614.925 156.589 614.297C156.331 613.842 156.09 613.411 155.843 612.956C151.234 604.962 149.802 596.441 152.261 587.652C152.38 587.161 152.5 586.684 152.63 586.191Z" fill="#0074AB"/>
<path d="M357.852 558.405C366.622 541.833 367.168 526.004 366.535 494" stroke="#076FA2" stroke-width="5" stroke-linecap="round"/>
<path d="M286.026 391.925C310.533 385.1 339.441 402.962 350.506 442.696C354.899 458.471 355.04 472.048 350.301 482.684C345.628 493.171 335.969 501.332 319.485 505.922C295.07 512.721 269.661 495.936 261.72 467.423C253.779 438.909 261.611 398.724 286.026 391.925Z" fill="#FEFEFE" stroke="#0F79AB" stroke-width="6"/>
<path d="M366.343 357.157C377.917 353.934 390.576 357.998 401.736 367.513C412.892 377.023 422.356 391.848 427.292 409.57C432.851 429.533 434.118 446.57 430.296 459.568C426.538 472.352 417.743 481.616 402.209 485.943C390.639 489.165 378.382 485.145 367.61 475.636C356.826 466.118 347.684 451.197 342.655 433.141C337.627 415.084 337.741 397.586 342.052 383.863C346.359 370.155 354.774 360.379 366.343 357.157Z" fill="#FEFEFE" stroke="#0F79AB" stroke-width="6"/>
<path d="M338.26 467.413C345.975 465.265 349.823 454.886 346.856 444.232C343.889 433.577 335.23 426.682 327.515 428.83C319.801 430.979 315.952 441.358 318.919 452.012C321.886 462.666 330.546 469.562 338.26 467.413Z" fill="#2B2A28"/>
<path d="M341.147 434.909C343.05 438.016 340.736 441.779 338.076 442.52C335.416 443.261 332.598 441.486 331.782 438.556C330.966 435.626 332.461 432.65 335.121 431.91C337.782 431.169 340.331 431.979 341.147 434.909Z" fill="#F9FAFB"/>
<path d="M387.593 434.84C390.56 445.495 387.193 455.739 379.479 457.888C371.765 460.036 363.105 453.141 360.138 442.486C357.171 431.832 361.02 421.453 368.734 419.305C378.076 419.302 384.504 423.748 387.593 434.84Z" fill="#2B2A28"/>
<path d="M382.366 425.383C384.269 428.491 381.955 432.253 379.295 432.994C376.635 433.735 373.817 431.96 373.001 429.03C372.185 426.1 373.68 423.125 376.34 422.384C379 421.643 381.55 422.453 382.366 425.383Z" fill="#F9FAFB"/>
<path d="M369.167 506.982C380.819 505.043 388.683 493.963 386.731 482.235C384.779 470.507 373.75 462.572 362.098 464.511C350.446 466.451 342.582 477.53 344.534 489.258C346.486 500.986 357.515 508.921 369.167 506.982Z" fill="#ED6F7A"/>
<path d="M259.105 531L257.001 539.47C259.105 544.436 267.502 554.5 284.002 562C300.003 563.5 304.754 559.5 325.754 556.5C352.885 548.218 416.159 559.5 424.502 542.837C427.337 537.175 413.502 533.869 405.91 539.47C414.001 533.5 418.501 535.5 405.91 539.47C402.869 540.991 394.685 541.082 390.511 542.837C373.292 550.078 350.522 554.791 325.754 549.985C302.709 547.064 292.188 541.62 275.155 537.832C260.627 531.584 261.012 536.656 259.105 535.381C254.615 536.55 259.758 543.261 259.105 542.837C259.127 542.898 257.001 535.937 259.105 531Z" fill="#D20223"/>
<path d="M405.91 539.47C413.502 533.869 427.337 537.175 424.502 542.837C416.159 559.5 352.885 548.218 325.754 556.5C304.754 559.5 300.003 563.5 284.002 562C267.502 554.5 259.105 544.436 257.001 539.47L259.105 531C257.001 535.937 259.127 542.898 259.105 542.837C259.758 543.261 254.615 536.55 259.105 535.381C261.012 536.656 260.627 531.584 275.155 537.832C292.188 541.62 302.709 547.064 325.754 549.985C350.522 554.791 373.292 550.078 390.511 542.837C394.685 541.082 402.869 540.991 405.91 539.47ZM405.91 539.47C418.501 535.5 414.001 533.5 405.91 539.47Z" stroke="#076FA2" stroke-width="6"/>
<path d="M427.5 526.035C431.999 526.836 428.5 526.188 431 526.035C432.634 525.935 428.5 526.035 431.5 526.535C432.08 526.948 432.463 526.922 432.5 527.535C434.499 528.535 432 527.035 434.5 529.035C434.5 530.805 434.999 530.035 431.999 532.035C376.499 562.035 313.5 557.035 259.5 535.035C255.818 533.535 257.985 535.035 256 533.535C255.5 533.157 255 532.535 254 530.035C253.987 529.422 254.455 528.975 255 528.535C258 527.035 254.5 528.535 258.5 527.035C260.5 527.035 261.936 527.109 262.5 527.535C265.5 529.035 262.444 527.464 267.5 529.535C320 551.035 367.5 551.944 420.5 529.035C423.228 527.169 434.5 527.035 427.5 526.035Z" fill="#076FA2"/>
<path d="M388.572 546.477L388.512 546.503L388.45 546.521L378.187 549.685L378.134 549.701L378.08 549.712L369.027 551.598L368.993 551.605L361.653 552.688L364.814 574.103L365.764 577.879L369.846 580.853L373.412 582.3L378.193 582.109L382.51 581.472L386.935 579.294L391.112 575.081L394.95 568.299L396.727 559.054L397.63 549.885L396.613 543L388.572 546.477Z" fill="#FEFEFE" stroke="#0578A5" stroke-width="3"/>
<path d="M337.353 551.586L337.415 551.594L337.478 551.596L346.785 551.833L346.839 551.834L346.891 551.831L354.902 551.331L354.935 551.329L361.209 550.588L363.259 567.946L363.293 571.054L360.568 574.23L357.927 576.124L353.904 577.014L350.164 577.456L346.005 576.719L341.605 574.344L336.922 569.887L333.41 563.048L330.641 556.069L329.999 550.636L337.353 551.586Z" fill="#FEFEFE" stroke="#0875A4" stroke-width="3"/>
<g clip-path="url(#clip1_337_2)">
<path d="M308.998 686.999C327.451 686.999 337.416 692.775 342.983 700.29C348.75 708.075 350.498 718.635 350.498 729.499C350.498 740.728 349.621 749.379 342.346 755.751C334.741 762.414 319.118 767.499 286.499 767.499C264.105 767.499 248.006 766.43 236.447 764.532C224.814 762.621 218.24 759.938 214.483 757.063C210.992 754.391 209.643 751.331 209.112 747.491C208.832 745.465 208.788 743.237 208.83 740.692C208.869 738.3 208.999 735.303 208.999 732.499C208.999 729.009 211.708 724.247 218.264 718.68C224.592 713.306 233.605 707.957 244.017 703.205C264.89 693.676 290.366 686.999 308.998 686.999Z" fill="#87CFE5" stroke="#0178B2" stroke-width="9"/>
<path d="M345.613 716.95C356.613 759.95 323.159 764.999 284.498 764.999C245.839 764.999 223.998 761.999 218.499 754.999C205.499 748.999 259.113 753.95 287.113 750.95C372.113 750.95 325.999 673.999 345.613 716.95Z" fill="#31A7BA"/>
</g>
<g clip-path="url(#clip2_337_2)">
<path d="M401.002 686.999C382.549 686.999 372.584 692.775 367.017 700.29C361.25 708.075 359.502 718.635 359.502 729.499C359.502 740.728 360.379 749.379 367.654 755.751C375.259 762.414 390.882 767.499 423.501 767.499C445.895 767.499 461.994 766.43 473.553 764.532C485.186 762.621 491.76 759.938 495.517 757.063C499.008 754.391 500.357 751.331 500.888 747.491C501.168 745.465 501.212 743.237 501.17 740.692C501.131 738.3 501.001 735.303 501.001 732.499C501.001 729.009 498.292 724.247 491.736 718.68C485.408 713.306 476.395 707.957 465.983 703.205C445.11 693.676 419.634 686.999 401.002 686.999Z" fill="#87CFE5" stroke="#0178B2" stroke-width="9"/>
<path d="M364.387 716.95C353.387 759.95 386.841 764.999 425.502 764.999C464.161 764.999 486.002 761.999 491.501 754.999C504.501 748.999 450.887 753.95 422.887 750.95C337.887 750.95 384.001 673.999 364.387 716.95Z" fill="#31A7BA"/>
</g>
<ellipse cx="657.523" cy="411.986" rx="102.273" ry="98.0139" fill="#AE2C23"/>
<path d="M757.291 393.218C704.528 350.018 681.082 396.483 641.683 507.087" stroke="#833430" stroke-width="5" stroke-linecap="round"/>
<path d="M561.734 445.344C624.869 373.998 661.449 339.333 745.601 362.353" stroke="#833430" stroke-width="5" stroke-linecap="round"/>
<path d="M581.961 347.338C644.839 351.441 670.899 346.397 698.917 322.651" stroke="#833430" stroke-width="5" stroke-linecap="round"/>
<path d="M628.717 318.977C715.135 316.821 734.422 399.71 715.751 493.783" stroke="#833430" stroke-width="5" stroke-linecap="round"/>
<g clip-path="url(#clip3_337_2)">
<path d="M490.705 422.423C494.346 427.111 498.093 427.825 501.955 427.143C506.656 426.313 512.907 423.213 521.611 417.672C538.203 407.11 562.011 388.672 591.877 373.17L592.31 372.946L592.764 372.777C616.142 364.111 636.953 356.312 653.332 346.835C669.046 337.743 680.172 327.397 685.312 313.49C681.728 298.857 675.383 289.764 667.549 284.613C659.629 279.406 649.895 278.03 639.012 279.38C616.81 282.134 589.759 296.258 565.317 313.036L565.13 313.165L564.934 313.282C541.016 327.722 519.81 350.427 505.898 372.249C498.966 383.121 493.963 393.594 491.342 402.497C488.731 411.364 488.623 418.191 490.705 422.423Z" fill="#87CFE5" stroke="#0076B8" stroke-width="7"/>
<path d="M630.119 327.192C629.748 327.458 629.288 327.62 628.847 327.652C628.408 327.683 628.025 327.581 627.775 327.36C627.523 327.139 627.422 326.815 627.485 326.45C627.548 326.086 627.768 325.712 628.106 325.419C628.837 324.787 629.548 324.177 630.286 323.553C643.03 312.186 660.311 302.857 677.258 297.822C678.215 297.517 679.126 297.231 680.085 296.938C680.195 299.656 680.304 302.374 680.414 305.091C679.506 305.28 678.647 305.461 677.745 305.659C661.748 308.898 646.387 315.396 632.454 325.541C631.667 326.091 630.904 326.63 630.119 327.192Z" fill="#0074AB"/>
<path d="M616.411 304.46C616.014 304.707 615.539 304.84 615.098 304.841C614.659 304.84 614.289 304.709 614.063 304.463C613.838 304.217 613.77 303.874 613.866 303.498C613.963 303.123 614.213 302.747 614.574 302.462C615.233 301.946 615.856 301.459 616.521 300.947C628.001 291.782 642.042 283.915 655.782 277.938C656.558 277.589 657.297 277.257 658.073 276.911C659.456 276.292 660.89 276.118 662.073 276.474C663.255 276.829 664.088 277.684 664.377 278.806C664.667 279.927 664.385 281.21 663.583 282.324C662.78 283.443 661.523 284.301 660.099 284.757C659.318 285.009 658.573 285.248 657.796 285.502C643.981 289.829 631.029 295.314 618.501 303.173C617.791 303.607 617.119 304.019 616.411 304.46Z" fill="#007BA4"/>
</g>
</g>
<defs>
<clipPath id="clip0_337_2">
<rect width="785" height="772" fill="white"/>
</clipPath>
<clipPath id="clip1_337_2">
<rect width="151" height="90" fill="white" transform="translate(204 681.999)"/>
</clipPath>
<clipPath id="clip2_337_2">
<rect width="151" height="90" fill="white" transform="matrix(-1 0 0 1 506 681.999)"/>
</clipPath>
<clipPath id="clip3_337_2">
<rect width="84.439" height="236.072" fill="white" transform="matrix(0.460689 0.887562 0.887562 -0.460689 454 363.756)"/>
</clipPath>
</defs>
</svg>
