<svg width="785" height="772" viewBox="0 0 785 772" fill="none" xmlns="http://www.w3.org/2000/svg">
<g clip-path="url(#clip0_181_1646)">
<path d="M29.501 219.5C34.4869 210.657 56.4627 193.303 66.5004 190.5C76.7112 187.649 110.645 186.681 125.5 190.5C155.178 198.128 178.544 210.31 226.5 243C240.422 259.115 264.569 272.36 278.149 286.788C291.82 301.312 304.288 314.641 313.853 326.419C323.561 338.374 329.682 348.044 331.429 355.255C332.271 358.732 331.93 360.977 331.174 362.469C330.446 363.905 328.825 365.642 325.022 367.234L322.272 368.386L321.481 371.233C320.409 375.092 319.21 376.091 318.795 376.338C318.394 376.577 317.211 377.015 314.252 376.167C311.348 375.335 307.666 373.522 303.057 370.731C298.498 367.97 293.333 364.442 287.467 360.371C264.154 344.193 230.829 320.144 187.977 308.777L187.678 308.697L187.369 308.655L183.755 308.142C108.562 297.226 47.0447 292.811 35.5025 272C24.0012 251.263 17.9888 239.919 29.501 219.5Z" fill="#8BCDE5" stroke="#0E6B96" stroke-width="12"/>
<path d="M505.5 126.5C540.001 111 580.484 128.424 594.501 137.5C609.654 147.311 611 166 587.5 209.5C561.5 234 544.807 223.074 476 257L494.5 248.368L468 261C428.536 290.352 402.046 320.942 386.717 347.353C382.859 354.001 379.525 359.789 376.455 364.622C373.356 369.501 370.773 373.003 368.509 375.233C366.25 377.458 364.968 377.774 364.296 377.762C363.571 377.748 361.978 377.325 359.408 374.376L357.712 372.43L355.147 372.678C350.988 373.078 348.657 372.268 347.313 371.225C346.005 370.21 344.902 368.408 344.365 365.085C343.223 358.02 345.03 346.555 349.551 331.025C358.499 300.289 368.505 253.426 404.501 214.603C451 153 479.001 146.629 505.5 126.5Z" fill="#87CFE5" stroke="#0E6B96" stroke-width="12"/>
<path d="M361 321C457.675 321 536 403.406 536 505C536 606.594 457.675 689 361 689C264.325 689 186 606.594 186 505C186 403.406 264.325 321 361 321Z" fill="#86D0E3" stroke="#0C74AB" stroke-width="7"/>
<path d="M480.814 633C448.267 672 387.889 687.5 364.304 685C263.361 691 187.418 596.895 189.776 503.5C191.253 445 177.512 583 308.644 642C378.927 679.5 480.814 633 480.814 633Z" fill="#37B4CA"/>
<path opacity="0.77" d="M276.754 364.401L287.901 355.82L302.093 348.681L309.48 346.76L315.894 346.625L318.161 350.953L319.844 355.623L320.101 361.942L311.743 362.008L298.589 365.301L289.453 368.251L279.668 373.605L277.207 368.179L276.754 364.401Z" fill="#004F80"/>
<path opacity="0.7" d="M355.67 331.183L362.992 329.244L370.199 328.881L378.208 329.851L388.389 331.792L397.313 334.582L397.655 342.222L387.931 342.221L376.834 342.584L368.254 343.311L361.847 345.008L354.525 346.948L352.924 340.157L353.153 334.943L355.67 331.183Z" fill="#014C83"/>
<path d="M375.902 562.119C383.972 545.831 383.892 530.02 382.003 497.999" stroke="#076FA2" stroke-width="5" stroke-linecap="round"/>
<path d="M155 599.897L154.994 599.795L153.994 582.795L153.835 580.098L151.187 579.568L136.841 576.699L129.903 572.21L127.41 565.146L124.545 546.045L127.347 530.172L130.072 525.176L130.103 525.121L130.131 525.065L134.416 516.493L143.439 506.521L152.458 498.926L164.29 492.773L172.102 490.604L181.068 492.553L184.333 499.49L184.351 499.528L189 508.827V526.586L186.097 538.684L185.9 539.5L186.097 540.316L189.097 552.816L189.147 553.026L189.223 553.229L193.957 565.854L194.404 566.349L203.457 576.354L209 591.135V601.433L207.018 607.377L195.24 616.438L182.814 621.5H168.277L160.135 614.644L155 606.94V599.897Z" fill="#86D0E3" stroke="#0C74AB" stroke-width="7"/>
<path d="M188.61 585.369C188.751 585.174 188.774 584.917 188.683 584.662C188.591 584.406 188.393 584.172 188.122 584.006C187.852 583.839 187.528 583.751 187.211 583.757C186.896 583.762 186.614 583.859 186.438 584.032C186.06 584.407 185.696 584.772 185.328 585.152C178.418 591.655 174.612 601 174.641 610.523C174.624 611.059 174.612 611.569 174.606 612.107C177.121 612.407 179.637 612.707 182.152 613.007C182.076 612.49 182.006 612.001 181.941 611.488C180.529 602.369 182.271 593.906 187.738 586.598C188.026 586.183 188.311 585.781 188.61 585.369Z" fill="#0074AB"/>
<path d="M172.639 580.926C172.765 580.721 172.768 580.463 172.658 580.215C172.547 579.967 172.332 579.749 172.05 579.603C171.768 579.456 171.438 579.394 171.123 579.422C170.809 579.451 170.535 579.569 170.372 579.755C170.024 580.157 169.688 580.548 169.349 580.954C162.944 587.955 159.847 597.559 160.588 607.053C160.611 607.589 160.637 608.098 160.671 608.636C163.202 608.747 165.733 608.858 168.263 608.969C168.149 608.46 168.043 607.977 167.939 607.47C165.85 598.482 166.955 589.912 171.861 582.216C172.117 581.781 172.371 581.359 172.639 580.926Z" fill="#0074AB"/>
<path d="M314.998 377C339.639 372.899 366.185 394.5 373.148 436.335C375.912 452.943 374.729 466.813 369.059 477.111C363.467 487.266 353.223 494.464 336.649 497.223C312.101 501.308 288.873 481.214 283.876 451.193C278.879 421.172 290.45 381.086 314.998 377Z" fill="#FEFEFE" stroke="#0F79AB" stroke-width="6"/>
<path d="M401.554 347.505C413.686 345.486 426.15 351.128 436.506 362.237C446.859 373.342 454.925 389.752 458.07 408.644C461.612 429.926 461.092 447.692 455.818 460.702C450.631 473.5 440.688 482.083 424.404 484.794C412.276 486.812 400.218 481.262 390.255 470.203C380.282 459.132 372.554 442.659 369.351 423.411C366.147 404.162 368.122 386.074 373.972 372.37C379.816 358.68 389.426 349.523 401.554 347.505Z" fill="#FEFEFE" stroke="#0F79AB" stroke-width="6"/>
<path d="M383.167 501.982C394.819 500.043 402.683 488.963 400.731 477.235C398.779 465.507 387.75 457.572 376.098 459.511C364.446 461.451 356.582 472.53 358.534 484.258C360.486 495.986 371.515 503.921 383.167 501.982Z" fill="#ED6F7A"/>
<path d="M356.879 463.888C364.778 462.573 369.71 452.664 367.894 441.754C366.078 430.844 358.203 423.066 350.303 424.381C342.404 425.695 337.472 435.605 339.288 446.515C341.104 457.425 348.979 465.203 356.879 463.888Z" fill="#2B2A28"/>
<path d="M363.21 431.876C364.771 435.169 362.07 438.663 359.346 439.117C356.622 439.57 354.009 437.505 353.51 434.505C353.01 431.505 354.814 428.705 357.538 428.252C360.262 427.799 362.71 428.876 363.21 431.876Z" fill="#F9FAFB"/>
<path d="M405.401 435.754C407.217 446.664 402.778 456.491 394.879 457.806C386.979 459.121 379.104 451.343 377.288 440.433C375.472 429.523 380.404 419.613 388.303 418.299C397.592 419.29 403.511 424.395 405.401 435.754Z" fill="#2B2A28"/>
<path d="M401.21 425.794C402.771 429.086 400.069 432.581 397.346 433.034C394.622 433.488 392.009 431.423 391.51 428.423C391.01 425.423 392.814 422.623 395.538 422.17C398.261 421.717 400.71 422.793 401.21 425.794Z" fill="#F9FAFB"/>
<path d="M282.234 522.981C281.799 522.392 281.193 522.041 280.548 522.004C279.903 521.966 279.273 522.246 278.796 522.782C278.318 523.317 278.033 524.065 278.003 524.859C277.972 525.654 278.2 526.431 278.634 527.02C280.763 529.902 283.028 532.632 285.407 535.197C329.739 580.972 398.764 574.306 441.854 529.893C444.276 527.411 446.584 524.86 448.853 522.156C449.317 521.603 449.583 520.845 449.594 520.05C449.605 519.254 449.358 518.486 448.91 517.914C448.461 517.342 447.846 517.014 447.201 517C446.555 516.987 445.932 517.291 445.468 517.844C443.289 520.442 441.071 522.893 438.743 525.278C397.46 568.061 330.426 574.128 288.613 530.682C286.369 528.261 284.235 525.691 282.234 522.981Z" fill="#076FA2"/>
<path d="M350.948 563.119L353.748 563.121L363.134 562.608L363.182 562.616L363.231 562.619L371.471 561.5L375.376 560.5H377.555L377.895 583.037L377.555 586.601L374.386 589.856L371.471 591.652L367.29 592.121H363.455L359.328 590.733L355.155 587.46L350.948 581.803L348.216 573.627L346.254 565.403V562.608L350.948 563.119Z" fill="#FEFEFE" stroke="#0578A5" stroke-width="3"/>
<path d="M399.859 555H398.491V556.5H392.666H391.039L389.026 558.5L382.656 559.5L378.105 561V566.485V584.339L378.408 587.496L381.228 590.39L383.834 591.996L387.59 592.417H391.039L394.743 591.172L398.491 588.235L402.272 583.153L404.732 575.795L406.502 568.384V553L399.859 555Z" fill="#FEFEFE" stroke="#0875A4" stroke-width="3"/>
<g clip-path="url(#clip1_181_1646)">
<path d="M332.998 686.999C351.451 686.999 361.416 692.775 366.983 700.29C372.75 708.075 374.498 718.635 374.498 729.499C374.498 740.728 373.621 749.379 366.346 755.751C358.741 762.414 343.118 767.499 310.499 767.499C288.105 767.499 272.006 766.43 260.447 764.532C248.814 762.621 242.24 759.938 238.483 757.063C234.992 754.391 233.643 751.331 233.112 747.491C232.832 745.465 232.788 743.237 232.83 740.692C232.869 738.3 232.999 735.303 232.999 732.499C232.999 729.009 235.708 724.247 242.264 718.68C248.592 713.306 257.605 707.957 268.017 703.205C288.89 693.676 314.366 686.999 332.998 686.999Z" fill="#87CFE5" stroke="#0178B2" stroke-width="9"/>
<path d="M369.613 716.95C380.613 759.95 347.159 764.999 308.498 764.999C269.839 764.999 247.998 761.999 242.499 754.999C229.499 748.999 283.113 753.95 311.113 750.95C396.113 750.95 349.999 673.999 369.613 716.95Z" fill="#31A7BA"/>
</g>
<g clip-path="url(#clip2_181_1646)">
<path d="M425.002 686.999C406.549 686.999 396.584 692.775 391.017 700.29C385.25 708.075 383.502 718.635 383.502 729.499C383.502 740.728 384.379 749.379 391.654 755.751C399.259 762.414 414.882 767.499 447.501 767.499C469.895 767.499 485.994 766.43 497.553 764.532C509.186 762.621 515.76 759.938 519.517 757.063C523.008 754.391 524.357 751.331 524.888 747.491C525.168 745.465 525.212 743.237 525.17 740.692C525.131 738.3 525.001 735.303 525.001 732.499C525.001 729.009 522.292 724.247 515.736 718.68C509.408 713.306 500.395 707.957 489.983 703.205C469.11 693.676 443.634 686.999 425.002 686.999Z" fill="#87CFE5" stroke="#0178B2" stroke-width="9"/>
<path d="M388.387 716.95C377.387 759.95 410.841 764.999 449.502 764.999C488.161 764.999 510.002 761.999 515.501 754.999C528.501 748.999 474.887 753.95 446.887 750.95C361.887 750.95 408.001 673.999 388.387 716.95Z" fill="#31A7BA"/>
</g>
<ellipse cx="670.578" cy="508.49" rx="112.503" ry="103.51" fill="#AE2C23"/>
<path d="M780.324 488.669C722.284 443.047 696.492 492.117 653.152 608.924" stroke="#833430" stroke-width="5" stroke-linecap="round"/>
<path d="M565.208 543.719C634.657 468.372 674.897 431.763 767.467 456.074" stroke="#833430" stroke-width="5" stroke-linecap="round"/>
<path d="M587.461 440.217C656.628 444.549 685.295 439.223 716.116 414.145" stroke="#833430" stroke-width="5" stroke-linecap="round"/>
<path d="M638.889 410.266C733.952 407.988 755.169 495.525 734.63 594.874" stroke="#833430" stroke-width="5" stroke-linecap="round"/>
<g clip-path="url(#clip3_181_1646)">
<path d="M509.66 400.853C511.107 406.591 514.012 408.722 517.497 409.614C521.737 410.7 528.063 410.31 537.295 408.643C554.892 405.465 581.273 397.887 611.739 395.391L612.18 395.355L612.62 395.378C635.272 396.611 655.466 397.631 672.509 395.365C688.862 393.191 701.786 388.061 710.902 377.306C712.93 362.452 710.727 351.602 705.911 343.788C701.043 335.889 693.329 330.797 683.709 327.756C664.084 321.555 636.461 323.893 610.119 329.695L609.917 329.74L609.712 329.771C584.616 333.63 558.953 346.151 539.73 360.729C530.153 367.992 522.335 375.646 517.062 382.795C511.81 389.915 509.367 396.145 509.66 400.853Z" fill="#87CFE5" stroke="#0076B8" stroke-width="7"/>
<path d="M659.749 368.188C659.346 368.286 658.903 368.254 658.521 368.11C658.141 367.966 657.854 367.721 657.72 367.42C657.584 367.118 657.611 366.781 657.789 366.47C657.967 366.16 658.281 365.903 658.667 365.767C659.499 365.474 660.308 365.193 661.144 364.91C675.781 359.479 693.532 357.704 709.524 359.743C710.434 359.839 711.298 359.934 712.207 360.043C711.362 362.583 710.518 365.123 709.673 367.663C708.845 367.479 708.06 367.307 707.233 367.134C692.66 363.819 677.499 363.748 662.282 367.589C661.43 367.785 660.603 367.98 659.749 368.188Z" fill="#0074AB"/>
<path d="M656.057 341.912C655.638 341.983 655.192 341.917 654.822 341.745C654.452 341.572 654.186 341.306 654.081 340.991C653.976 340.676 654.037 340.334 654.248 340.027C654.458 339.72 654.799 339.473 655.2 339.354C655.932 339.139 656.625 338.936 657.36 338.727C670.175 334.822 684.697 333.116 698.315 333.029C699.088 333.013 699.825 332.998 700.596 332.986C701.973 332.961 703.24 333.365 704.112 334.158C704.984 334.948 705.39 336.062 705.247 337.206C705.104 338.351 704.425 339.418 703.366 340.127C702.305 340.838 700.952 341.132 699.597 340.992C698.853 340.916 698.144 340.842 697.403 340.77C684.291 339.312 671.505 339.258 658.258 341.551C657.512 341.671 656.805 341.785 656.057 341.912Z" fill="#007BA4"/>
</g>
</g>
<defs>
<clipPath id="clip0_181_1646">
<rect width="785" height="772" fill="white"/>
</clipPath>
<clipPath id="clip1_181_1646">
<rect width="151" height="90" fill="white" transform="translate(228 681.999)"/>
</clipPath>
<clipPath id="clip2_181_1646">
<rect width="151" height="90" fill="white" transform="matrix(-1 0 0 1 530 681.999)"/>
</clipPath>
<clipPath id="clip3_181_1646">
<rect width="84.439" height="214.45" fill="white" transform="matrix(0.0816754 0.996659 0.996659 -0.0816754 499 332.515)"/>
</clipPath>
</defs>
</svg>
