<svg width="476" height="786" viewBox="0 0 476 786" fill="none" xmlns="http://www.w3.org/2000/svg">
<g clip-path="url(#clip0_236_600)">
<path d="M132.578 1.54358C142.909 -1.54686 152.937 0.0334363 162.483 6.01333C172.193 12.0965 181.536 22.8451 189.687 38.1754C205.972 68.8014 216.732 116.289 216.756 175.597C214.991 200.161 214.233 224.922 213.479 247.833C212.721 270.896 211.968 291.998 210.225 309.449C208.455 327.162 205.74 340.064 201.626 347.367C199.642 350.889 197.705 352.434 196.025 353.025C194.408 353.595 191.903 353.674 187.888 351.839L184.985 350.513L182.263 352.178C178.573 354.435 176.935 354.261 176.441 354.12C175.965 353.984 174.759 353.368 173.201 350.243C171.672 347.176 170.301 342.672 168.978 336.609C167.668 330.612 166.485 323.491 165.189 315.353C160.038 283.01 153.367 236.026 130.117 191.518L129.955 191.207L129.758 190.918L127.463 187.527C79.8933 116.773 71.0951 73.7051 78.1476 47.2799C85.1752 20.9482 108.724 8.67943 132.578 1.54358Z" fill="#8BCDE5" stroke="#0E6B96" stroke-width="12"/>
<path d="M271.114 51.1865C290.507 22.5221 313.823 11.2083 331.886 14.5752C351.413 18.215 372.472 32.6943 377.906 60.3935C383.409 88.4422 373.272 131.79 325.709 193.513L325.615 193.636L325.527 193.762C296.687 235.44 288.831 278.986 283.647 309.16C282.343 316.755 281.233 323.359 280.012 328.977C278.779 334.648 277.526 338.849 276.09 341.749C274.658 344.642 273.466 345.402 272.769 345.635C272.018 345.885 270.208 346.069 266.381 344.255L263.856 343.057L261.316 344.219C257.196 346.102 254.473 346.194 252.671 345.71C250.919 345.239 249.061 343.961 247.176 341.059C243.168 334.891 240.43 323.552 238.855 307.441C235.737 275.554 237.494 230 237.494 182.972C237.494 123.897 251.917 79.5632 271.114 51.1865Z" fill="#87CFE5" stroke="#0E6B96" stroke-width="12"/>
<path d="M237.5 335C339.975 335 423 417.406 423 519C423 620.594 339.975 703 237.5 703C135.025 703 52.0005 620.594 52.0005 519C52.0005 417.406 135.025 335 237.5 335Z" fill="#86D0E3" stroke="#0C74AB" stroke-width="7"/>
<path d="M364.501 647C330.001 686 266.001 701.5 241.001 699C134.001 705 53.5005 610.895 56.0005 517.5C57.5664 459 43.0005 597 182.001 656C256.501 693.5 364.501 647 364.501 647Z" fill="#37B4CA"/>
<path opacity="0.77" d="M173.5 394L182.5 382.5L195 371.5L202 367.5L208.5 365.5L212 369L215 373L217 379L208.5 381.5L196 388.5L187.5 394L179 402L175 397.5L173.5 394Z" fill="#004F80"/>
<path opacity="0.7" d="M264.5 358.5H272.5L280 360L288 363L298 367.5L306.5 372.5L305 380L295 377.5L283.5 375L274.5 373.5H267.5H259.5V366.5L261 361.5L264.5 358.5Z" fill="#014C83"/>
<g clip-path="url(#clip1_236_600)">
<path d="M193.5 432.038C218.48 432.038 239.5 456.267 239.5 486.107C239.5 502.944 236.056 516.431 228.771 525.659C221.589 534.757 210.302 540.176 193.5 540.176C168.614 540.176 149 516.541 149 486.107C149 455.673 168.614 432.038 193.5 432.038Z" fill="#FEFEFE" stroke="#0F79AB" stroke-width="6"/>
<path d="M288.176 405.004C301.85 405.004 314.49 412.616 323.821 425.275C333.149 437.929 339 455.44 339 474.593C339 496.166 335.187 513.606 327.027 525.574C319.002 537.346 306.53 544.181 288.176 544.181C274.506 544.181 262.294 536.727 253.386 524.182C244.468 511.624 239 494.106 239 474.593C239 455.079 244.468 437.561 253.386 425.003C262.294 412.458 274.506 405.004 288.176 405.004Z" fill="#FEFEFE" stroke="#0F79AB" stroke-width="6"/>
<path d="M241 550.189C252.046 550.189 261 540.551 261 528.661C261 516.772 252.046 507.134 241 507.134C229.954 507.134 221 516.772 221 528.661C221 540.551 229.954 550.189 241 550.189Z" fill="#ED6F7A"/>
<path d="M273.5 490.112C273.5 501.172 267.508 510.138 259.5 510.138C251.492 510.138 245 501.172 245 490.112C245 479.052 251.492 470.087 259.5 470.087C268.5 472.59 273.5 478.598 273.5 490.112Z" fill="#2B2A28"/>
<path d="M221.5 510.138C229.508 510.138 236 501.172 236 490.112C236 479.052 229.508 470.087 221.5 470.087C213.492 470.087 207 479.052 207 490.112C207 501.172 213.492 510.138 221.5 510.138Z" fill="#2B2A28"/>
<path d="M271 479.599C272 483.103 268.761 486.107 266 486.107C263.239 486.107 261 483.642 261 480.6C261 477.559 263.239 475.093 266 475.093C268.761 475.093 271 476.557 271 479.599Z" fill="#F9FAFB"/>
<path d="M233 479.599C234 483.103 230.761 486.107 228 486.107C225.239 486.107 223 483.642 223 480.6C223 477.559 225.239 475.093 228 475.093C230.761 475.093 233 476.557 233 479.599Z" fill="#F9FAFB"/>
<g clip-path="url(#clip2_236_600)">
<path d="M193.5 433C218.48 433 239.5 457.198 239.5 487C239.5 503.815 236.056 517.285 228.771 526.501C221.589 535.588 210.302 541 193.5 541C168.614 541 149 517.395 149 487C149 456.605 168.614 433 193.5 433Z" fill="#FEFEFE" stroke="#0F79AB" stroke-width="6"/>
<path d="M288.176 406C301.85 406 314.49 413.602 323.821 426.245C333.149 438.883 339 456.372 339 475.5C339 497.046 335.187 514.464 327.027 526.417C319.002 538.174 306.53 545 288.176 545C274.506 545 262.294 537.555 253.386 525.026C244.468 512.484 239 494.989 239 475.5C239 456.011 244.468 438.516 253.386 425.974C262.294 413.445 274.506 406 288.176 406Z" fill="#FEFEFE" stroke="#0F79AB" stroke-width="6"/>
<path d="M330.5 432.5C353 492 326.5 464.5 293.176 459.209C251.744 452.631 220.5 475.5 250 427C254.229 420.047 267.472 403.794 289 404.5C307.499 405.107 325.958 420.491 330.5 432.5Z" fill="#87CFE5"/>
<path d="M330.5 432.5C353 492 326.5 464.5 293.176 459.209C251.744 452.631 220.5 475.5 250 427C254.229 420.047 267.472 403.794 289 404.5C307.499 405.107 325.958 420.491 330.5 432.5Z" stroke="#0379AB" stroke-width="6"/>
<path d="M239 550C250.046 550 259 540.374 259 528.5C259 516.626 250.046 507 239 507C227.954 507 219 516.626 219 528.5C219 540.374 227.954 550 239 550Z" fill="#ED6F7A"/>
<path d="M215.5 507C207.492 507 201 498.046 201 487C201 475.954 207.492 467 215.5 467C223.508 467 230 475.954 230 487C230 498.046 223.508 507 215.5 507Z" fill="#2B2A28"/>
<path d="M204 476.5C203 480 206.239 483 209 483C211.761 483 214 480.538 214 477.5C214 474.462 211.761 472 209 472C206.239 472 204 473.462 204 476.5Z" fill="#F9FAFB"/>
<path d="M215.5 507C207.492 507 201 498.046 201 487C201 475.954 207.492 467 215.5 467C223.508 467 230 475.954 230 487C230 498.046 223.508 507 215.5 507Z" fill="#2B2A28"/>
<path d="M204 476.5C203 480 206.239 483 209 483C211.761 483 214 480.538 214 477.5C214 474.462 211.761 472 209 472C206.239 472 204 473.462 204 476.5Z" fill="#F9FAFB"/>
<path d="M233.004 451.562C250.504 479.062 230.704 460.233 193.673 468.254C154.504 476.738 138.345 498.846 151.504 461.562C157.504 444.562 178.504 427.562 195.174 430.29C211.187 428.918 228.944 443.226 233.004 451.562Z" fill="#87CFE5"/>
<path d="M233.004 451.562C250.504 479.062 230.704 460.233 193.673 468.254C154.504 476.738 138.345 498.846 151.504 461.562C157.504 444.562 178.504 427.562 195.174 430.29C211.187 428.918 228.944 443.226 233.004 451.562Z" stroke="#0379AB" stroke-width="6"/>
<path d="M278.5 487C278.5 498.046 272.508 507 264.5 507C256.492 507 250 498.046 250 487C250 475.954 256.492 467 264.5 467C273.5 469.5 278.5 475.5 278.5 487Z" fill="#2B2A28"/>
<path d="M276 476.5C277 480 273.761 483 271 483C268.239 483 266 480.538 266 477.5C266 474.462 268.239 472 271 472C273.761 472 276 473.462 276 476.5Z" fill="#F9FAFB"/>
</g>
</g>
<g clip-path="url(#clip3_236_600)">
<path d="M199 700.999C217.453 700.999 227.418 706.775 232.985 714.29C238.752 722.075 240.5 732.635 240.5 743.499C240.5 754.728 239.623 763.379 232.348 769.751C224.743 776.414 209.12 781.499 176.5 781.499C154.106 781.499 138.008 780.43 126.449 778.532C114.815 776.621 108.241 773.938 104.485 771.063C100.993 768.391 99.6442 765.331 99.1137 761.491C98.8339 759.465 98.7896 757.237 98.8315 754.692C98.8709 752.3 99.0004 749.303 99.0004 746.499C99.0004 743.009 101.71 738.247 108.265 732.68C114.594 727.306 123.607 721.957 134.018 717.205C154.892 707.676 180.368 700.999 199 700.999Z" fill="#87CFE5" stroke="#0178B2" stroke-width="9"/>
<path d="M235.614 730.95C246.614 773.95 213.16 778.999 174.5 778.999C135.84 778.999 114 775.999 108.5 768.999C95.5 762.999 149.114 767.95 177.114 764.95C262.114 764.95 216 687.999 235.614 730.95Z" fill="#31A7BA"/>
</g>
<g clip-path="url(#clip4_236_600)">
<path d="M291.001 700.999C272.548 700.999 262.583 706.775 257.016 714.29C251.249 722.075 249.501 732.635 249.501 743.499C249.501 754.728 250.378 763.379 257.653 769.751C265.258 776.414 280.881 781.499 313.5 781.499C335.894 781.499 351.993 780.43 363.552 778.532C375.185 776.621 381.759 773.938 385.516 771.063C389.007 768.391 390.356 765.331 390.887 761.491C391.167 759.465 391.211 757.237 391.169 754.692C391.13 752.3 391 749.303 391 746.499C391 743.009 388.291 738.247 381.735 732.68C375.407 727.306 366.394 721.957 355.982 717.205C335.109 707.676 309.633 700.999 291.001 700.999Z" fill="#87CFE5" stroke="#0178B2" stroke-width="9"/>
<path d="M254.387 730.95C243.387 773.95 276.841 778.999 315.501 778.999C354.161 778.999 376.001 775.999 381.501 768.999C394.5 762.999 340.886 767.95 312.887 764.95C227.887 764.95 274.001 687.999 254.387 730.95Z" fill="#31A7BA"/>
</g>
<g clip-path="url(#clip5_236_600)">
<path d="M144.219 534.979C143.683 534.391 142.936 534.039 142.141 534.002C141.346 533.965 140.569 534.245 139.981 534.78C139.393 535.316 139.041 536.063 139.004 536.858C138.966 537.653 139.246 538.43 139.782 539.018C142.406 541.901 145.198 544.63 148.13 547.196C202.772 592.971 287.849 586.305 340.959 541.892C343.945 539.41 346.79 536.859 349.586 534.155C350.158 533.601 350.486 532.844 350.5 532.048C350.513 531.253 350.209 530.484 349.656 529.913C349.103 529.341 348.345 529.012 347.55 528.999C346.754 528.986 345.986 529.289 345.414 529.842C342.728 532.441 339.994 534.892 337.125 537.277C286.242 580.059 203.618 586.126 152.082 542.681C149.315 540.26 146.686 537.689 144.219 534.979Z" fill="#076FA2"/>
<path d="M209.668 576.961L209.737 576.977L209.806 576.986L221.306 578.486L221.366 578.494L221.425 578.497L231.425 578.997L231.463 578.999H239.5V598.915L239.08 602.478L235.175 605.734L231.582 607.53L226.429 607.999H221.702L216.615 606.611L211.471 603.337L206.286 597.68L202.918 589.504L200.5 581.281V574.877L209.668 576.961Z" fill="#FEFEFE" stroke="#0578A5" stroke-width="3"/>
<path d="M268.38 576.721L268.312 576.737L268.241 576.747L257.837 578.102L257.777 578.11L257.718 578.113L248.67 578.565L248.633 578.567H241.5V596.42L241.873 599.578L245.349 602.472L248.561 604.078L253.19 604.499H257.441L262.007 603.253L266.626 600.317L271.287 595.235L274.319 587.876L276.5 580.465V574.876L268.38 576.721Z" fill="#FEFEFE" stroke="#0875A4" stroke-width="3"/>
</g>
<g clip-path="url(#clip6_236_600)">
<path d="M62.0857 498.503C67.3398 499.179 69.4645 501.071 70.5213 503.433C71.8072 506.308 71.9222 510.71 71.1053 517.198C69.548 529.564 64.6902 548.262 64.6902 569.5V569.808L64.7439 570.112C67.5145 585.727 69.9139 599.653 69.1346 611.584C68.3868 623.031 64.7351 632.272 55.7566 639.195C42.5809 641.442 32.686 640.532 25.323 637.641C17.8795 634.718 12.744 629.665 9.30938 623.176C2.30366 609.938 2.37047 590.678 5.63848 572.107L5.66387 571.964L5.67657 571.821C7.2941 554.223 16.6393 535.742 28.3035 521.603C34.1148 514.559 40.4062 508.711 46.4314 504.654C52.4325 500.612 57.8413 498.567 62.0857 498.503Z" fill="#87CFE5" stroke="#0076B8" stroke-width="7"/>
<path d="M43.8178 604.292C43.8759 604.007 43.8145 603.702 43.6576 603.446C43.5001 603.191 43.2598 603.006 42.9793 602.93C42.6988 602.853 42.398 602.891 42.1327 603.032C41.868 603.173 41.6605 603.405 41.5662 603.68C41.3647 604.273 41.1721 604.849 40.9797 605.444C37.1836 615.888 36.8963 628.281 39.901 639.239C40.0545 639.864 40.2034 640.457 40.3672 641.08C42.5837 640.351 44.8003 639.622 47.0168 638.893C46.7908 638.33 46.5791 637.796 46.3633 637.233C42.3183 627.33 41.1399 616.835 43.4664 606.08C43.5798 605.479 43.6941 604.895 43.8178 604.292Z" fill="#0074AB"/>
<path d="M19.9754 603.224C20.0078 602.93 19.9166 602.625 19.7347 602.378C19.5521 602.132 19.2939 601.963 19.0038 601.908C18.7137 601.853 18.4117 601.915 18.1514 602.078C17.8918 602.241 17.6951 602.491 17.6175 602.776C17.4783 603.295 17.3473 603.786 17.214 604.307C14.6529 613.403 14.1899 623.556 15.1129 632.991C15.1558 633.527 15.1967 634.038 15.2424 634.573C15.321 635.528 15.7769 636.382 16.5522 636.941C17.325 637.5 18.3538 637.718 19.3699 637.554C20.386 637.39 21.2939 636.859 21.8517 636.086C22.4119 635.311 22.5761 634.357 22.3505 633.427C22.2276 632.916 22.1097 632.429 21.9899 631.92C19.7184 622.923 18.7297 614.072 19.8133 604.769C19.8659 604.245 19.9165 603.749 19.9754 603.224Z" fill="#007BA4"/>
</g>
<g clip-path="url(#clip7_236_600)">
<path d="M413.915 498.503C408.661 499.179 406.536 501.07 405.48 503.433C404.194 506.307 404.079 510.71 404.896 517.197C406.453 529.564 411.311 548.261 411.311 569.5V569.808L411.257 570.111C408.486 585.727 406.087 599.653 406.866 611.584C407.614 623.031 411.266 632.272 420.244 639.195C433.42 641.442 443.315 640.532 450.678 637.641C458.121 634.718 463.257 629.665 466.692 623.176C473.697 609.938 473.631 590.677 470.362 572.106L470.337 571.964L470.324 571.82C468.707 554.223 459.362 535.742 447.697 521.603C441.886 514.558 435.595 508.711 429.57 504.653C423.568 500.612 418.16 498.567 413.915 498.503Z" fill="#87CFE5" stroke="#0076B8" stroke-width="7"/>
<path d="M432.183 604.292C432.125 604.007 432.187 603.702 432.343 603.446C432.501 603.191 432.741 603.006 433.022 602.93C433.302 602.853 433.603 602.891 433.868 603.032C434.133 603.173 434.341 603.405 434.435 603.68C434.636 604.273 434.829 604.849 435.021 605.444C438.817 615.888 439.105 628.281 436.1 639.239C435.947 639.864 435.798 640.457 435.634 641.08C433.417 640.351 431.201 639.622 428.984 638.893C429.21 638.33 429.422 637.796 429.638 637.233C433.683 627.33 434.861 616.835 432.535 606.08C432.421 605.479 432.307 604.895 432.183 604.292Z" fill="#0074AB"/>
<path d="M456.026 603.224C455.993 602.93 456.084 602.625 456.266 602.378C456.449 602.132 456.707 601.963 456.997 601.908C457.287 601.853 457.589 601.915 457.85 602.078C458.109 602.241 458.306 602.491 458.383 602.776C458.523 603.295 458.654 603.786 458.787 604.307C461.348 613.403 461.811 623.556 460.888 632.991C460.845 633.527 460.804 634.038 460.759 634.573C460.68 635.528 460.224 636.382 459.449 636.941C458.676 637.5 457.647 637.718 456.631 637.554C455.615 637.39 454.707 636.859 454.149 636.086C453.589 635.311 453.425 634.357 453.65 633.427C453.773 632.916 453.891 632.429 454.011 631.92C456.283 622.923 457.271 614.072 456.188 604.769C456.135 604.245 456.084 603.749 456.026 603.224Z" fill="#007BA4"/>
</g>
</g>
<defs>
<clipPath id="clip0_236_600">
<rect width="476" height="786" fill="white"/>
</clipPath>
<clipPath id="clip1_236_600">
<rect width="196" height="148.189" fill="white" transform="translate(146 402)"/>
</clipPath>
<clipPath id="clip2_236_600">
<rect width="196" height="147" fill="white" transform="translate(146 403)"/>
</clipPath>
<clipPath id="clip3_236_600">
<rect width="151" height="90" fill="white" transform="translate(94 695.999)"/>
</clipPath>
<clipPath id="clip4_236_600">
<rect width="151" height="90" fill="white" transform="matrix(-1 0 0 1 396 695.999)"/>
</clipPath>
<clipPath id="clip5_236_600">
<rect width="212" height="81" fill="white" transform="translate(139 528.999)"/>
</clipPath>
<clipPath id="clip6_236_600">
<rect width="76" height="149" fill="white" transform="translate(0 495)"/>
</clipPath>
<clipPath id="clip7_236_600">
<rect width="76" height="149" fill="white" transform="matrix(-1 0 0 1 476.001 495)"/>
</clipPath>
</defs>
</svg>
