<svg width="564" height="893" viewBox="0 0 564 893" fill="none" xmlns="http://www.w3.org/2000/svg">
<path d="M273.297 501.999C170.822 501.999 87.7969 419.593 87.7969 317.999C87.7969 216.405 170.822 133.999 273.297 133.999C375.772 133.999 458.797 216.405 458.797 317.999C458.797 419.593 375.772 501.999 273.297 501.999Z" fill="#86D0E3" stroke="#0C74AB" stroke-width="7"/>
<path opacity="0.7" d="M287.297 476.785L300.297 478.285L307.797 476.785L315.797 473.785L325.797 469.285L334.297 464.285L332.797 456.785L322.797 459.285L311.297 461.785L302.297 463.285L295.297 463.285L287.297 456.785L282.797 463.285L282.797 469.285L287.297 476.785Z" fill="#014C83"/>
<path d="M146.297 189.999C180.797 150.999 244.797 135.499 269.797 137.999C376.797 131.999 457.297 226.104 454.797 319.499C453.231 377.999 467.797 239.999 328.797 180.999C254.297 143.499 146.297 189.999 146.297 189.999Z" fill="#37B4CA"/>
<path opacity="0.7" d="M251.297 476.999L238.297 478.499L230.797 476.999L222.797 473.999L212.797 469.499L204.297 464.499L205.797 456.999L215.797 459.499L227.297 461.999L236.297 463.499L243.297 463.499L251.297 456.999L255.797 463.499L255.797 469.499L251.297 476.999Z" fill="#014C83"/>
<path d="M169.247 297.137C164.117 300.25 159.22 300.02 156.541 297.44C153.691 294.694 151.214 287.44 155.501 271.711L155.633 271.228L155.641 270.728C155.657 269.806 156.041 268.125 157.057 265.622C158.037 263.21 159.471 260.351 161.274 257.192C164.876 250.881 169.803 243.62 175.068 236.737C180.338 229.849 185.866 223.449 190.642 218.824C193.039 216.504 195.158 214.716 196.896 213.541C198.83 212.234 199.636 212.142 199.583 212.141L200.69 212.16L201.649 211.607C225.368 197.936 240.594 194.087 249.312 195.161C253.48 195.675 255.898 197.273 257.305 199.225C258.774 201.263 259.536 204.244 259.265 208.171C258.716 216.108 254.002 226.506 246.017 235.817C238.084 245.067 227.323 252.768 215.274 255.744L211.786 256.605L212.269 260.164C212.696 263.307 212.474 265.42 211.702 267.238C210.908 269.111 209.337 271.128 206.225 273.705C199.81 279.017 188.531 285.431 169.247 297.137Z" fill="#86D0E3" stroke="#0C74AB" stroke-width="8"/>
<path d="M338.599 264.376L338.551 264.666C338.061 267.621 338.199 269.612 338.838 271.333C339.494 273.1 340.844 275.031 343.589 277.55C349.271 282.764 359.359 289.174 376.664 300.888C381.183 303.948 385.427 303.799 387.781 301.611C390.395 299.18 392.924 292.451 389.498 277.411L389.391 276.938L389.399 276.454C389.414 275.596 389.121 274.005 388.272 271.609C387.455 269.301 386.236 266.555 384.688 263.511C381.596 257.428 377.322 250.402 372.724 243.724C368.122 237.038 363.272 230.812 359.057 226.292C356.942 224.024 355.071 222.278 353.539 221.126C351.804 219.822 351.163 219.79 351.367 219.793L350.398 219.777L349.545 219.318C336.611 212.384 326.775 207.803 319.449 205.074C311.938 202.278 307.644 201.66 305.498 201.964C304.874 202.053 304.625 202.195 304.552 202.247C304.518 202.32 304.43 202.565 304.438 203.128C304.463 204.987 305.467 208.099 307.649 212.411C311.908 220.825 319.36 231.407 325.984 241.001C329.245 245.724 332.309 250.216 334.551 253.944C335.671 255.806 336.642 257.569 337.34 259.135C337.977 260.563 338.634 262.351 338.604 264.081L338.599 264.376Z" fill="#86D0E3" stroke="#0C74AB" stroke-width="8"/>
<path d="M239.973 270.763C226.192 270.526 214.278 268.803 205.986 264.937C201.89 263.028 198.858 260.678 196.867 257.898C194.911 255.166 193.792 251.787 193.866 247.468C194.172 229.667 199.278 218.618 207.262 212.283C215.339 205.873 227.255 203.564 242.724 205.283L242.909 205.303L243.097 205.307C257.147 205.548 268.954 205.911 279.839 209.96C290.515 213.931 300.641 221.601 310.739 237.202L311.298 238.066L312.204 238.553L312.884 238.929C316.141 240.788 317.351 242.337 317.726 243.277C317.999 243.965 318.046 244.865 316.957 246.404C315.786 248.06 313.575 249.985 310.244 252.043C306.969 254.066 302.871 256.061 298.213 257.957C279.416 265.611 253.237 270.99 239.973 270.763Z" fill="#86D0E3" stroke="#0C74AB" stroke-width="8"/>
<path d="M339.24 293.469C332.184 293.348 327.467 292.877 323.801 291.72C320.311 290.617 317.599 288.834 314.72 285.672C311.723 282.381 308.621 277.685 304.383 270.737C300.213 263.9 294.974 254.935 287.904 243.631L287.701 243.307L287.441 243.027C277.053 231.857 266.38 221.314 257.234 212.894C249.097 205.403 241.983 199.425 237.312 196.229C239.613 195.846 242.399 195.524 245.642 195.314C262.89 194.196 292.093 196.272 327.424 207.627C354.871 218.111 363.736 239.863 362.648 258.993C362.098 268.667 358.997 277.552 354.532 283.883C350.028 290.27 344.55 293.56 339.24 293.469Z" fill="#86D0E3" stroke="#0C74AB" stroke-width="8"/>
<path d="M345.658 266.492C345.623 266.305 345.667 266.106 345.773 265.94C345.879 265.775 346.038 265.657 346.223 265.61C346.408 265.563 346.605 265.591 346.777 265.687C346.949 265.782 347.082 265.936 347.141 266.117C347.266 266.508 347.386 266.887 347.505 267.278C349.876 274.157 349.925 282.272 347.833 289.411C347.725 289.818 347.621 290.204 347.507 290.61C346.062 290.108 344.617 289.606 343.173 289.104C343.327 288.738 343.472 288.391 343.62 288.025C346.382 281.589 347.273 274.732 345.868 267.667C345.801 267.272 345.732 266.888 345.658 266.492Z" fill="#0074AB"/>
<path d="M231.276 859.417C221.209 866.971 207.89 868.968 189.565 862.458C173.082 856.602 161.77 848.221 153.995 838.271C146.204 828.301 141.825 816.575 139.505 803.827C137.182 791.057 136.941 777.364 137.355 763.535C137.563 756.625 137.932 749.724 138.279 742.896C138.614 736.3 138.928 729.774 139.049 723.456C163.243 669.679 181.027 608.269 196.709 563.145C204.624 540.368 211.948 521.9 219.246 510.357C222.911 504.56 226.353 500.869 229.548 499.12C232.485 497.512 235.319 497.467 238.535 499.368L239.242 499.785L240.062 499.786C245.865 499.786 250.59 499.913 254.498 500.435C258.397 500.956 261.271 501.846 263.472 503.231C267.677 505.876 270.388 510.968 271.77 522.395C273.146 533.774 273.109 550.484 272.709 575.205C272.311 599.826 271.562 632.21 271.561 674.698C268.051 727.866 265.555 781.745 254.558 819.062C249.054 837.737 241.572 851.691 231.276 859.417Z" fill="#86D0E3" stroke="#0C74AB" stroke-width="6"/>
<path d="M363.442 884.215C387.895 877.775 404.577 864.911 415.421 848.062C426.403 830.997 431.528 809.633 432.362 786.27C434.031 739.497 418.472 685.541 399.829 644.527C390.398 623.78 382.581 602.617 375.659 582.953C368.717 563.232 362.71 545.13 356.832 530.264C350.915 515.299 345.332 504.178 339.45 498.144C336.565 495.184 333.828 493.682 331.162 493.341C328.527 493.004 325.457 493.736 321.751 496.263L320.987 496.785L320.061 496.785C313.23 496.785 307.84 496.857 303.526 497.301C299.194 497.747 296.268 498.542 294.21 499.774C290.451 502.023 288.494 506.44 288.057 517.838C287.625 529.107 288.678 545.691 289.449 570.685C290.215 595.545 290.685 628.409 289.06 671.837C289.047 687.911 283.449 736.672 290.279 784.171C297.097 831.588 316.017 875.556 363.442 884.215Z" fill="#86D0E3" stroke="#0C74AB" stroke-width="6"/>
<g clip-path="url(#clip0_254_218)">
<path d="M359.617 142.011C339.024 141.084 328.163 134.813 322.289 127.027C316.203 118.96 314.727 108.323 315.215 97.4701C315.72 86.252 317.088 77.654 325.492 71.653C334.279 65.3793 351.942 61.0841 388.343 62.722C413.334 63.8464 431.251 65.7218 444.065 68.1989C456.961 70.6919 464.177 73.7026 468.239 76.7629C472.016 79.6076 473.384 82.7317 473.803 86.5952C474.024 88.6334 473.973 90.8604 473.812 93.4013C473.661 95.7891 473.382 98.7761 473.255 101.578C473.099 105.064 469.861 109.685 462.296 114.917C454.991 119.968 444.693 124.859 432.861 129.084C409.139 137.555 380.409 142.946 359.617 142.011Z" fill="#87CFE5" stroke="#0178B2" stroke-width="9"/>
<path d="M320.103 110.251C309.761 66.7421 347.32 63.3787 390.463 65.3198C433.605 67.261 457.843 71.3546 463.666 78.6236C477.903 85.2704 418.295 77.6317 386.914 79.2227C292.059 74.9549 340.061 154.144 320.103 110.251Z" fill="#31A7BA"/>
</g>
<g clip-path="url(#clip1_254_218)">
<path d="M170.813 146.265C189.402 149.977 200.572 146.317 207.651 140.069C214.986 133.594 218.814 123.591 220.942 112.937C223.141 101.925 223.952 93.2654 217.871 85.5525C211.515 77.4892 196.773 69.3599 163.913 62.7975C141.354 58.2922 124.927 56.101 112.911 55.6375C100.818 55.1709 93.6696 56.4796 89.3228 58.5429C85.2822 60.4608 83.324 63.1896 82.0374 66.8492C81.3587 68.7799 80.8779 70.955 80.4216 73.4596C79.9928 75.8134 79.5365 78.778 78.9872 81.5283C78.3038 84.9506 80.1005 90.1655 85.6139 96.943C90.937 103.486 98.9685 110.545 108.526 117.3C127.688 130.843 152.044 142.517 170.813 146.265Z" fill="#87CFE5" stroke="#0178B2" stroke-width="9"/>
<path d="M213.564 124.259C233.066 84.3049 200.354 72.6241 161.409 64.8465C122.465 57.0689 99.876 55.6171 92.9647 61.375C78.6939 64.6436 133.673 70.5739 161.292 79.1487C246.918 96.249 185.394 162.433 213.564 124.259Z" fill="#31A7BA"/>
</g>
<g clip-path="url(#clip2_254_218)">
<path d="M299.055 332.614L297.387 332.614L295.584 334.495L285.749 334.505L285.689 334.498L285.63 334.495L275.63 333.995L275.592 333.993L267.555 333.993L267.555 314.077L267.975 310.513L271.88 307.257L275.473 305.462L280.626 304.993L285.353 304.993L290.44 306.38L295.584 309.654L300.769 315.311L304.137 323.487L306.555 331.711L305.055 332.614L299.055 332.614Z" fill="#FEFEFE" stroke="#0578A5" stroke-width="3"/>
<path d="M242.175 332.471L242.243 332.455L242.314 332.445L247.516 331.768L251.555 333.114L258.055 333.614L261.885 334.614L268.682 334.614L269.055 312.771L268.682 309.614L265.206 306.72L261.994 305.114L257.365 304.693L253.114 304.693L248.548 305.938L243.929 308.875L239.268 313.957L236.236 321.315L234.055 328.727L236.236 328.727L242.175 332.471Z" fill="#FEFEFE" stroke="#0875A4" stroke-width="3"/>
<path d="M349.459 302.066C349.879 301.579 350.466 301.288 351.09 301.257C351.713 301.226 352.323 301.458 352.785 301.901C353.247 302.345 353.523 302.964 353.552 303.622C353.581 304.28 353.362 304.923 352.941 305.411C350.882 307.797 348.69 310.057 346.389 312.182C303.503 350.086 236.728 344.566 195.043 307.79C192.7 305.735 190.467 303.622 188.272 301.383C187.823 300.925 187.566 300.298 187.555 299.639C187.545 298.98 187.783 298.344 188.217 297.871C188.651 297.397 189.246 297.125 189.87 297.114C190.495 297.103 191.098 297.354 191.547 297.813C193.655 299.964 195.801 301.994 198.053 303.969C237.989 339.394 302.838 344.418 343.288 308.443C345.459 306.439 347.523 304.31 349.459 302.066Z" fill="#076FA2"/>
<path d="M273.638 337.113C275.822 348.453 270.072 370.056 270.072 370.056" stroke="#076FA2" stroke-width="5" stroke-linecap="round"/>
</g>
<path d="M320.073 430.159C268.243 414.143 278.901 427.337 278.901 401.256C278.901 386.541 281.984 374.754 288.504 366.689C294.932 358.736 305.034 354 320.073 354C342.346 354 359.901 374.657 359.901 401.256C359.901 427.856 371.902 446.175 320.073 430.159Z" fill="#FEFEFE" stroke="#0F79AB" stroke-width="6"/>
<path d="M294.398 386C286.39 386 279.898 392.268 279.898 400C279.898 407.732 286.39 414 294.398 414C302.407 414 308.898 407.732 308.898 400C308.898 392.268 302.407 386 294.398 386Z" fill="#2B2A28"/>
<path d="M223.747 430.159C277.592 413.52 264.918 427.337 264.918 401.257C264.918 386.541 261.836 374.754 255.316 366.689C248.887 358.736 238.785 354 223.747 354C201.473 354 183.918 374.657 183.918 401.257C183.918 427.856 169.902 446.798 223.747 430.159Z" fill="#FEFEFE" stroke="#0F79AB" stroke-width="6"/>
<path d="M249.42 387C257.428 387 263.92 393.268 263.92 401C263.92 408.732 257.428 415 249.42 415C241.412 415 234.92 408.732 234.92 401C234.92 393.268 241.412 387 249.42 387Z" fill="#2B2A28"/>
<path d="M328.364 254.593C328.303 254.28 328.379 253.947 328.563 253.67C328.748 253.394 329.025 253.196 329.346 253.119C329.667 253.04 330.009 253.087 330.308 253.246C330.607 253.405 330.839 253.663 330.941 253.966C331.159 254.618 331.367 255.252 331.575 255.906C335.695 267.402 335.78 280.965 332.143 292.895C331.956 293.576 331.775 294.222 331.576 294.9C329.065 294.061 326.554 293.222 324.043 292.383C324.312 291.772 324.563 291.191 324.82 290.58C329.622 279.822 331.17 268.364 328.729 256.555C328.612 255.896 328.493 255.255 328.364 254.593Z" fill="#0074AB"/>
<path d="M274.114 343.895C261.529 343.895 251.327 354.44 251.327 367.447C251.327 380.455 261.529 391 274.114 391C286.7 391 296.902 380.455 296.902 367.448C296.902 354.44 286.7 343.895 274.114 343.895Z" fill="#ED6F7A"/>
<path d="M232.94 241.826C233.227 241.984 233.579 242.025 233.912 241.95C234.244 241.874 234.531 241.688 234.713 241.423C234.897 241.158 234.963 240.832 234.906 240.508C234.848 240.185 234.671 239.89 234.408 239.697C233.838 239.284 233.284 238.886 232.709 238.482C222.77 230.95 209.467 226.393 196.538 225.748C195.807 225.693 195.112 225.644 194.38 225.6C194.375 228.153 194.37 230.705 194.366 233.258C195.056 233.217 195.709 233.181 196.395 233.15C208.555 232.351 220.33 234.734 231.131 240.846C231.741 241.17 232.332 241.49 232.94 241.826Z" fill="#0074AB"/>
<path d="M235.893 260.993C236.179 261.153 236.531 261.195 236.865 261.122C237.197 261.047 237.484 260.863 237.668 260.598C237.853 260.334 237.921 260.009 237.865 259.685C237.809 259.361 237.634 259.065 237.371 258.871C236.803 258.456 236.251 258.055 235.678 257.648C225.776 250.072 212.495 245.456 199.569 244.754C198.838 244.695 198.144 244.643 197.412 244.596C197.395 247.148 197.378 249.701 197.361 252.254C198.051 252.216 198.704 252.182 199.391 252.155C211.554 251.41 223.317 253.845 234.089 260.006C234.697 260.333 235.286 260.655 235.893 260.993Z" fill="#0074AB"/>
<defs>
<clipPath id="clip0_254_218">
<rect width="168.678" height="90" fill="white" transform="translate(476.566 152.278) rotate(-177.424)"/>
</clipPath>
<clipPath id="clip1_254_218">
<rect width="155.117" height="90" fill="white" transform="matrix(0.980636 0.19584 0.19584 -0.980636 64.0605 130.044)"/>
</clipPath>
<clipPath id="clip2_254_218">
<rect width="212" height="81" fill="white" transform="translate(371.555 372.115) rotate(-180)"/>
</clipPath>
</defs>
</svg>
