<svg width="564" height="817" viewBox="0 0 564 817" fill="none" xmlns="http://www.w3.org/2000/svg">
<g clip-path="url(#clip0_245_93)">
<path d="M251.236 591.214C148.761 591.214 65.7363 508.808 65.7363 407.214C65.7363 305.62 148.761 223.214 251.236 223.214C353.711 223.214 436.736 305.62 436.736 407.214C436.736 508.808 353.712 591.214 251.236 591.214Z" fill="#86D0E3" stroke="#0C74AB" stroke-width="7"/>
<path opacity="0.7" d="M265.236 566L278.236 567.5L285.736 566L293.736 563L303.736 558.5L312.236 553.5L310.736 546L300.736 548.5L289.236 551L280.236 552.5L273.236 552.5L265.236 546L260.736 552.5L260.736 558.5L265.236 566Z" fill="#014C83"/>
<path d="M124.236 279.214C158.736 240.214 222.736 224.714 247.736 227.214C354.736 221.214 435.236 315.319 432.736 408.714C431.17 467.214 445.736 329.214 306.736 270.214C232.236 232.714 124.236 279.214 124.236 279.214Z" fill="#37B4CA"/>
<path opacity="0.7" d="M229.236 566.214L216.236 567.714L208.736 566.214L200.736 563.214L190.736 558.714L182.236 553.714L183.736 546.214L193.736 548.714L205.236 551.214L214.236 552.714L221.236 552.714L229.236 546.214L233.736 552.714L233.736 558.714L229.236 566.214Z" fill="#014C83"/>
<path d="M327.456 515.057C314.142 506.565 297.93 510.037 265.558 511.308" stroke="#076FA2" stroke-width="9" stroke-linecap="round"/>
<path d="M284.764 514.2C312.414 511.668 324.555 509.697 336.703 504.623" stroke="#076FA2" stroke-width="4" stroke-linecap="round"/>
<path d="M267.047 513.07C304.58 512.736 320.579 511.077 329.741 502.488" stroke="#076FA2" stroke-width="4" stroke-linecap="round"/>
<path d="M278.008 511.701C305.511 512.781 316.964 511.625 318.764 501.274" stroke="#076FA2" stroke-width="6" stroke-linecap="round"/>
<path d="M265.883 508.789L341.037 510.14" stroke="#076FA2" stroke-width="7" stroke-linecap="round"/>
<path d="M147.186 386.352C142.057 389.465 137.159 389.235 134.481 386.655C131.631 383.909 129.153 376.655 133.441 360.926L133.572 360.443L133.581 359.942C133.596 359.021 133.98 357.34 134.997 354.837C135.976 352.425 137.41 349.566 139.213 346.407C142.815 340.096 147.742 332.835 153.007 325.952C158.278 319.064 163.805 312.664 168.582 308.039C170.978 305.719 173.098 303.931 174.835 302.756C176.769 301.449 177.576 301.357 177.522 301.356L178.629 301.375L179.588 300.822C203.308 287.151 218.533 283.302 227.251 284.376C231.42 284.89 233.838 286.488 235.244 288.44C236.713 290.478 237.476 293.458 237.204 297.386C236.656 305.323 231.942 315.721 223.957 325.032C216.024 334.282 205.262 341.983 193.214 344.958L189.726 345.82L190.209 349.379C190.635 352.522 190.413 354.635 189.642 356.453C188.847 358.326 187.276 360.343 184.164 362.92C177.749 368.232 166.471 374.646 147.186 386.352Z" fill="#86D0E3" stroke="#0C74AB" stroke-width="8"/>
<path d="M316.536 353.59L316.489 353.881C315.999 356.836 316.136 358.826 316.776 360.548C317.432 362.315 318.782 364.246 321.527 366.765C327.208 371.979 337.296 378.389 354.601 390.103C359.121 393.163 363.364 393.014 365.718 390.825C368.332 388.394 370.861 381.666 367.436 366.626L367.328 366.153L367.337 365.669C367.351 364.811 367.059 363.22 366.21 360.824C365.392 358.516 364.173 355.77 362.625 352.726C359.533 346.643 355.259 339.617 350.661 332.938C346.059 326.253 341.209 320.027 336.995 315.507C334.879 313.239 333.009 311.492 331.476 310.34C329.742 309.037 329.1 309.004 329.304 309.008L328.336 308.991L327.482 308.533C314.549 301.599 304.713 297.017 297.386 294.289C289.876 291.493 285.581 290.875 283.435 291.179C282.811 291.268 282.562 291.409 282.49 291.462C282.455 291.535 282.368 291.78 282.375 292.343C282.401 294.201 283.404 297.314 285.587 301.626C289.845 310.04 297.298 320.622 303.922 330.216C307.182 334.938 310.246 339.431 312.488 343.159C313.608 345.021 314.579 346.784 315.278 348.35C315.914 349.778 316.571 351.566 316.542 353.296L316.536 353.59Z" fill="#86D0E3" stroke="#0C74AB" stroke-width="8"/>
<path d="M217.913 359.977C204.132 359.741 192.218 358.018 183.926 354.152C179.829 352.243 176.797 349.893 174.807 347.113C172.85 344.38 171.731 341.002 171.806 336.683C172.111 318.882 177.218 307.833 185.201 301.497C193.278 295.088 205.195 292.779 220.663 294.497L220.849 294.518L221.036 294.521C235.086 294.762 246.893 295.126 257.778 299.175C268.454 303.146 278.58 310.816 288.679 326.417L289.237 327.281L290.144 327.768L290.823 328.144C294.08 330.002 295.291 331.552 295.665 332.492C295.939 333.18 295.985 334.08 294.897 335.619C293.725 337.275 291.515 339.2 288.184 341.257C284.909 343.28 280.81 345.276 276.153 347.172C257.355 354.826 231.176 360.205 217.913 359.977Z" fill="#86D0E3" stroke="#0C74AB" stroke-width="8"/>
<path d="M317.179 382.684C310.123 382.563 305.407 382.092 301.741 380.934C298.25 379.832 295.539 378.049 292.66 374.887C289.663 371.596 286.56 366.9 282.323 359.952C278.153 353.115 272.913 344.15 265.843 332.846L265.64 332.522L265.381 332.242C254.992 321.072 244.32 310.529 235.173 302.109C227.036 294.618 219.922 288.639 215.251 285.444C217.553 285.061 220.339 284.739 223.582 284.528C240.83 283.411 270.032 285.487 305.364 296.842C332.81 307.326 341.675 329.078 340.587 348.208C340.037 357.882 336.936 366.767 332.472 373.098C327.968 379.485 322.49 382.775 317.179 382.684Z" fill="#86D0E3" stroke="#0C74AB" stroke-width="8"/>
<path d="M323.598 355.707C323.563 355.52 323.606 355.321 323.712 355.155C323.818 354.99 323.978 354.872 324.162 354.825C324.347 354.778 324.544 354.806 324.716 354.901C324.888 354.997 325.022 355.151 325.08 355.332C325.206 355.722 325.325 356.102 325.445 356.493C327.816 363.372 327.865 371.487 325.772 378.625C325.665 379.033 325.561 379.419 325.446 379.825C324.002 379.323 322.557 378.821 321.112 378.319C321.267 377.953 321.411 377.606 321.559 377.24C324.322 370.803 325.212 363.947 323.808 356.881C323.74 356.487 323.672 356.103 323.598 355.707Z" fill="#0074AB"/>
<path d="M177.099 513.884C190.732 505.915 206.797 510.015 239.095 512.542" stroke="#076FA2" stroke-width="9" stroke-linecap="round"/>
<path d="M219.791 514.685C192.26 511.081 180.205 508.64 168.262 503.099" stroke="#076FA2" stroke-width="4" stroke-linecap="round"/>
<path d="M237.537 514.244C200.045 512.453 184.123 510.174 175.301 501.235" stroke="#076FA2" stroke-width="4" stroke-linecap="round"/>
<path d="M226.639 512.45C199.114 512.462 187.714 510.862 186.318 500.449" stroke="#076FA2" stroke-width="6" stroke-linecap="round"/>
<path d="M238.867 510.011L163.717 508.444" stroke="#076FA2" stroke-width="7" stroke-linecap="round"/>
<path d="M244.657 747.642C241.667 778.226 208.39 814.891 145.396 804.621C95.2042 789.826 59.7987 771.799 37.0882 751.3C14.4418 730.859 4.41766 707.976 4.84381 683.134L4.84941 682.808L4.78457 682.489C2.5658 671.509 9.07697 658.258 22.6972 644.535C36.1573 630.973 55.8824 617.664 78.217 606.741C100.535 595.827 125.301 587.373 148.757 583.421C172.27 579.46 194.159 580.074 210.934 586.951L211.335 587.115L211.766 587.16C218.611 587.861 223.488 588.905 226.765 590.168C230.12 591.46 231.251 592.764 231.583 593.6C231.871 594.325 231.882 595.555 230.544 597.695C229.216 599.82 226.857 602.331 223.49 605.192C216.78 610.892 206.762 617.413 195.179 624.447C183.493 631.544 170.83 638.802 158.216 646.405C145.773 653.905 133.761 661.52 124.175 668.87C114.722 676.119 107.127 683.476 104.156 690.563C102.618 694.232 102.229 698.047 103.692 701.728C105.129 705.345 108.169 708.357 112.512 710.869C121.106 715.839 135.939 719.499 158.456 721.765L159.305 721.851L160.072 721.475C191.359 706.19 213.321 705.749 226.825 712.25C240.145 718.663 246.157 732.301 244.657 747.642Z" fill="#86D0E3" stroke="#0C74AB" stroke-width="6"/>
<path d="M288.839 750.014C292.429 782.824 326.353 822.392 389.532 814.312C490.496 788.26 527.495 732.485 528.35 682.641L528.356 682.315L528.432 681.998C531.026 671.101 524.973 657.634 511.832 643.451C498.845 629.436 479.589 615.458 457.642 603.776C435.712 592.102 411.251 582.803 387.944 578.049C364.581 573.283 342.683 573.146 325.682 579.443L325.276 579.594L324.844 579.623L323.58 579.716C317.379 580.204 312.878 581.067 309.773 582.187C306.407 583.4 305.186 584.723 304.787 585.667C304.416 586.545 304.403 587.948 305.659 590.272C306.908 592.584 309.17 595.329 312.412 598.473C318.876 604.741 328.609 612.002 339.881 619.866C351.257 627.802 363.595 635.942 375.876 644.449C387.989 652.839 399.668 661.332 408.932 669.449C418.082 677.467 425.33 685.494 427.981 693.018C429.347 696.894 429.562 700.838 427.984 704.568C426.424 708.255 423.294 711.296 418.836 713.777C410.031 718.677 395.044 721.944 372.455 723.437L371.602 723.493L370.848 723.092C340.092 706.737 318.683 706.071 305.678 712.699C292.828 719.248 287.037 733.544 288.839 750.014Z" fill="#86D0E3" stroke="#0C74AB" stroke-width="6"/>
<g clip-path="url(#clip1_245_93)">
<path d="M326.025 229.039C307.201 237.44 294.682 236.701 285.941 232.374C276.885 227.89 270.798 219.043 266.371 209.122C261.795 198.867 259.164 190.568 263.988 181.437C269.03 171.891 282.895 160.135 316.17 145.285C339.014 135.09 355.872 128.736 368.437 125.208C381.083 121.657 388.883 121.114 393.886 122.029C398.536 122.88 401.16 125.06 403.266 128.325C404.377 130.048 405.33 132.062 406.325 134.405C407.259 136.608 408.348 139.403 409.491 141.964C410.914 145.151 410.091 150.733 405.672 158.801C401.406 166.59 394.392 175.577 385.709 184.657C368.298 202.861 345.032 220.557 326.025 229.039Z" fill="#87CFE5" stroke="#0178B2" stroke-width="9"/>
<path d="M276.469 218.356C247.724 184.097 279.792 164.257 319.229 146.657C358.666 129.057 382.168 121.854 390.631 125.742C406.338 125.303 349.628 145.189 322.288 160.676C235.58 199.372 313.981 248.65 276.469 218.356Z" fill="#31A7BA"/>
</g>
<g clip-path="url(#clip2_245_93)">
<path d="M131.626 228.538C146.2 240.659 157.764 242.763 166.966 240.643C176.499 238.445 184.632 231.475 191.579 223.122C198.759 214.488 203.598 207.261 201.928 197.583C200.181 187.465 191.094 173.293 165.331 151.867C147.644 137.157 134.246 127.403 123.903 121.27C113.493 115.098 106.585 112.842 101.78 112.585C97.3135 112.346 94.2916 113.812 91.4167 116.416C89.9001 117.79 88.441 119.473 86.8464 121.458C85.3478 123.323 83.534 125.712 81.7406 127.869C79.5091 130.552 78.6039 135.993 80.2218 144.578C81.784 152.867 85.482 162.9 90.6659 173.393C101.059 194.43 116.91 216.299 131.626 228.538Z" fill="#87CFE5" stroke="#0178B2" stroke-width="9"/>
<path d="M179.697 229.56C215.881 203.726 192.687 177.869 162.153 152.475C131.619 127.08 112.452 115.04 103.632 116.809C89.5277 112.883 135.039 144.294 155.235 164.993C222.368 220.827 136.741 249.699 179.697 229.56Z" fill="#31A7BA"/>
</g>
<g clip-path="url(#clip3_245_93)">
<path d="M274.994 433.826L273.326 433.826L271.523 435.707L261.688 435.718L261.629 435.71L261.569 435.707L251.569 435.207L251.531 435.205L243.494 435.205L243.494 415.289L243.914 411.726L247.819 408.47L251.412 406.674L256.565 406.205L261.293 406.205L266.38 407.593L271.523 410.866L276.709 416.523L280.076 424.699L282.494 432.923L280.994 433.826L274.994 433.826Z" fill="#FEFEFE" stroke="#0578A5" stroke-width="3"/>
<path d="M218.114 433.683L218.182 433.667L218.253 433.658L223.455 432.98L227.494 434.326L233.994 434.826L237.824 435.826L244.621 435.826L244.994 413.984L244.621 410.827L241.145 407.932L237.933 406.327L233.304 405.906L229.053 405.906L224.487 407.151L219.868 410.087L215.207 415.169L212.175 422.528L209.994 429.939L212.175 429.939L218.114 433.683Z" fill="#FEFEFE" stroke="#0875A4" stroke-width="3"/>
<path d="M325.398 403.278C325.819 402.791 326.405 402.5 327.029 402.469C327.653 402.438 328.263 402.67 328.725 403.114C329.186 403.557 329.462 404.176 329.492 404.834C329.521 405.492 329.301 406.136 328.881 406.623C326.821 409.01 324.63 411.27 322.329 413.394C279.442 451.298 212.667 445.778 170.983 409.002C168.639 406.947 166.406 404.835 164.212 402.596C163.763 402.138 163.505 401.51 163.494 400.851C163.484 400.193 163.723 399.557 164.157 399.083C164.591 398.61 165.186 398.337 165.81 398.326C166.435 398.316 167.037 398.567 167.486 399.025C169.594 401.176 171.74 403.206 173.992 405.181C213.929 440.607 278.778 445.63 319.227 409.656C321.398 407.651 323.462 405.522 325.398 403.278Z" fill="#076FA2"/>
<path d="M249.577 438.325C251.762 449.665 246.012 471.269 246.012 471.269" stroke="#076FA2" stroke-width="5" stroke-linecap="round"/>
</g>
<path d="M307.287 343.633C307.227 343.347 307.302 343.043 307.486 342.79C307.67 342.538 307.948 342.357 308.269 342.286C308.589 342.214 308.931 342.257 309.231 342.402C309.529 342.548 309.761 342.783 309.863 343.06C310.081 343.656 310.289 344.235 310.496 344.834C314.615 355.341 314.7 367.737 311.064 378.642C310.877 379.264 310.696 379.855 310.498 380.475C307.988 379.708 305.478 378.941 302.968 378.174C303.237 377.615 303.488 377.085 303.745 376.526C308.544 366.693 310.091 356.22 307.652 345.427C307.535 344.824 307.416 344.238 307.287 343.633Z" fill="#0074AB"/>
<path d="M210.158 329.891C210.446 330.036 210.797 330.073 211.13 330.005C211.462 329.935 211.748 329.765 211.931 329.523C212.114 329.281 212.181 328.983 212.123 328.687C212.066 328.392 211.889 328.122 211.625 327.946C211.056 327.568 210.502 327.205 209.928 326.835C199.993 319.951 186.696 315.785 173.774 315.196C173.043 315.146 172.348 315.101 171.616 315.061C171.612 317.394 171.607 319.727 171.602 322.061C172.292 322.023 172.945 321.99 173.631 321.962C185.785 321.232 197.554 323.409 208.351 328.996C208.96 329.293 209.55 329.584 210.158 329.891Z" fill="#0074AB"/>
<path d="M210.496 350.621C210.783 350.767 211.134 350.806 211.467 350.739C211.8 350.671 212.087 350.502 212.27 350.26C212.455 350.019 212.523 349.721 212.467 349.425C212.411 349.129 212.236 348.859 211.973 348.682C211.406 348.302 210.854 347.936 210.282 347.564C200.384 340.639 187.109 336.42 174.189 335.778C173.459 335.725 172.765 335.677 172.033 335.634C172.016 337.967 171.999 340.3 171.982 342.634C172.672 342.599 173.325 342.568 174.011 342.543C186.169 341.862 197.926 344.088 208.693 349.719C209.301 350.018 209.89 350.312 210.496 350.621Z" fill="#0074AB"/>
<path d="M250.697 450.181C238.118 450.181 227.92 459.819 227.92 471.708C227.92 483.598 238.118 493.236 250.697 493.236C263.277 493.236 273.475 483.598 273.475 471.708C273.475 459.819 263.277 450.181 250.697 450.181Z" fill="#ED6F7A"/>
</g>
<defs>
<clipPath id="clip0_245_93">
<rect width="563.737" height="816.215" fill="white" transform="translate(563.736 816.215) rotate(180)"/>
</clipPath>
<clipPath id="clip1_245_93">
<rect width="168.678" height="90" fill="white" transform="translate(435.174 185.804) rotate(155.95)"/>
</clipPath>
<clipPath id="clip2_245_93">
<rect width="155.117" height="90" fill="white" transform="matrix(0.768842 0.639439 0.639439 -0.768842 45.5 163.41)"/>
</clipPath>
<clipPath id="clip3_245_93">
<rect width="212" height="81" fill="white" transform="translate(347.494 473.328) rotate(180)"/>
</clipPath>
</defs>
</svg>
