<svg width="564" height="817" viewBox="0 0 564 817" fill="none" xmlns="http://www.w3.org/2000/svg">
<g clip-path="url(#clip0_254_171)">
<path d="M270.133 498.215C167.658 498.215 84.6328 415.809 84.6328 314.215C84.6328 212.621 167.658 130.215 270.133 130.215C372.608 130.215 455.633 212.621 455.633 314.215C455.633 415.809 372.608 498.215 270.133 498.215Z" fill="#86D0E3" stroke="#0C74AB" stroke-width="7"/>
<path opacity="0.7" d="M284.133 473L297.133 474.5L304.633 473L312.633 470L322.633 465.5L331.133 460.5L329.633 453L319.633 455.5L308.133 458L299.133 459.5L292.133 459.5L284.133 453L279.633 459.5L279.633 465.5L284.133 473Z" fill="#014C83"/>
<path d="M143.133 186.215C177.633 147.215 241.633 131.715 266.633 134.215C373.633 128.215 454.133 222.32 451.633 315.715C450.067 374.215 464.633 236.215 325.633 177.215C251.133 139.715 143.133 186.215 143.133 186.215Z" fill="#37B4CA"/>
<path opacity="0.7" d="M248.133 473.215L235.133 474.715L227.633 473.215L219.633 470.215L209.633 465.715L201.133 460.715L202.633 453.215L212.633 455.715L224.133 458.215L233.133 459.715L240.133 459.715L248.133 453.215L252.633 459.715L252.633 465.715L248.133 473.215Z" fill="#014C83"/>
<path d="M346.352 422.058C333.039 413.565 316.827 417.038 284.454 418.309" stroke="#076FA2" stroke-width="9" stroke-linecap="round"/>
<path d="M303.66 421.2C331.31 418.668 343.451 416.697 355.6 411.623" stroke="#076FA2" stroke-width="4" stroke-linecap="round"/>
<path d="M285.943 420.07C323.477 419.736 339.475 418.077 348.637 409.488" stroke="#076FA2" stroke-width="4" stroke-linecap="round"/>
<path d="M296.904 418.701C324.408 419.782 335.861 418.625 337.661 408.274" stroke="#076FA2" stroke-width="6" stroke-linecap="round"/>
<path d="M284.779 415.789L359.934 417.141" stroke="#076FA2" stroke-width="7" stroke-linecap="round"/>
<path d="M166.083 293.352C160.953 296.466 156.056 296.236 153.377 293.656C150.527 290.91 148.049 283.655 152.337 267.926L152.469 267.444L152.477 266.943C152.493 266.021 152.876 264.341 153.893 261.837C154.873 259.425 156.307 256.566 158.11 253.408C161.711 247.096 166.638 239.835 171.904 232.953C177.174 226.065 182.701 219.665 187.478 215.04C189.874 212.72 191.994 210.931 193.732 209.757C195.666 208.449 196.472 208.357 196.418 208.356L197.526 208.375L198.485 207.822C222.204 194.152 237.43 190.302 246.148 191.377C250.316 191.89 252.734 193.488 254.141 195.44C255.61 197.479 256.372 200.459 256.101 204.386C255.552 212.323 250.838 222.721 242.853 232.032C234.92 241.282 224.159 248.983 212.11 251.959L208.622 252.82L209.105 256.38C209.532 259.523 209.31 261.635 208.538 263.453C207.743 265.327 206.173 267.343 203.06 269.921C196.646 275.233 185.367 281.646 166.083 293.352Z" fill="#86D0E3" stroke="#0C74AB" stroke-width="8"/>
<path d="M335.433 260.591L335.385 260.881C334.895 263.836 335.033 265.827 335.672 267.548C336.328 269.315 337.678 271.246 340.423 273.765C346.105 278.979 356.192 285.39 373.498 297.104C378.017 300.163 382.261 300.015 384.615 297.826C387.229 295.395 389.758 288.667 386.332 273.626L386.225 273.154L386.233 272.669C386.248 271.811 385.955 270.221 385.106 267.824C384.289 265.516 383.069 262.77 381.522 259.726C378.43 253.643 374.155 246.618 369.558 239.939C364.956 233.254 360.106 227.027 355.891 222.507C353.776 220.239 351.905 218.493 350.372 217.341C348.638 216.037 347.997 216.005 348.201 216.008L347.232 215.992L346.378 215.534C333.445 208.599 323.609 204.018 316.283 201.29C308.772 198.493 304.478 197.875 302.332 198.18C301.708 198.268 301.459 198.41 301.386 198.462C301.352 198.536 301.264 198.78 301.272 199.343C301.297 201.202 302.301 204.314 304.483 208.626C308.742 217.041 316.194 227.622 322.818 237.217C326.079 241.939 329.143 246.431 331.385 250.159C332.505 252.021 333.476 253.784 334.174 255.351C334.811 256.779 335.468 258.566 335.438 260.296L335.433 260.591Z" fill="#86D0E3" stroke="#0C74AB" stroke-width="8"/>
<path d="M236.809 266.978C223.028 266.741 211.114 265.018 202.822 261.153C198.726 259.243 195.694 256.893 193.703 254.113C191.747 251.381 190.628 248.002 190.702 243.683C191.007 225.883 196.114 214.833 204.098 208.498C212.175 202.088 224.091 199.779 239.56 201.498L239.745 201.519L239.933 201.522C253.983 201.763 265.79 202.127 276.675 206.175C287.35 210.146 297.477 217.816 307.575 233.417L308.134 234.282L309.04 234.768L309.72 235.144C312.977 237.003 314.187 238.552 314.562 239.492C314.835 240.18 314.881 241.081 313.793 242.619C312.622 244.275 310.411 246.2 307.08 248.258C303.805 250.281 299.707 252.276 295.049 254.172C276.252 261.826 250.073 267.205 236.809 266.978Z" fill="#86D0E3" stroke="#0C74AB" stroke-width="8"/>
<path d="M336.076 289.684C329.02 289.563 324.303 289.092 320.637 287.935C317.147 286.833 314.435 285.049 311.556 281.887C308.559 278.596 305.457 273.9 301.219 266.952C297.049 260.115 291.809 251.151 284.739 239.846L284.537 239.522L284.277 239.242C273.888 228.072 263.216 217.529 254.07 209.109C245.933 201.618 238.819 195.64 234.148 192.445C236.449 192.061 239.235 191.739 242.478 191.529C259.726 190.411 288.929 192.487 324.26 203.842C351.707 214.326 360.572 236.078 359.484 255.209C358.934 264.883 355.833 273.767 351.368 280.099C346.864 286.486 341.386 289.775 336.076 289.684Z" fill="#86D0E3" stroke="#0C74AB" stroke-width="8"/>
<path d="M342.494 262.708C342.459 262.52 342.503 262.321 342.609 262.156C342.715 261.991 342.874 261.872 343.059 261.826C343.244 261.778 343.44 261.807 343.613 261.902C343.785 261.997 343.918 262.151 343.977 262.332C344.102 262.723 344.222 263.102 344.341 263.494C346.712 270.372 346.761 278.487 344.669 285.626C344.561 286.033 344.457 286.42 344.343 286.826C342.898 286.324 341.453 285.821 340.009 285.319C340.163 284.953 340.308 284.606 340.456 284.24C343.218 277.804 344.108 270.948 342.704 263.882C342.637 263.487 342.568 263.104 342.494 262.708Z" fill="#0074AB"/>
<path d="M195.993 420.885C209.627 412.915 225.691 417.015 257.99 419.542" stroke="#076FA2" stroke-width="9" stroke-linecap="round"/>
<path d="M238.688 421.685C211.157 418.082 199.101 415.641 187.159 410.099" stroke="#076FA2" stroke-width="4" stroke-linecap="round"/>
<path d="M256.434 421.244C218.942 419.453 203.019 417.174 194.198 408.235" stroke="#076FA2" stroke-width="4" stroke-linecap="round"/>
<path d="M245.535 419.451C218.01 419.462 206.611 417.862 205.214 407.449" stroke="#076FA2" stroke-width="6" stroke-linecap="round"/>
<path d="M257.764 417.011L182.614 415.444" stroke="#076FA2" stroke-width="7" stroke-linecap="round"/>
<path d="M242.517 773.926C230.433 786.941 209.77 794.714 178.237 789.556C88.875 768.448 60.0257 689.76 60.8957 639.052L60.8984 638.893L60.8845 638.735C59.092 618.537 66.7303 597.375 80.0446 577.319C93.3408 557.291 112.131 538.627 132.148 523.543C152.175 508.452 173.269 497.065 191.083 491.467C199.997 488.666 207.941 487.362 214.444 487.676C220.945 487.99 225.713 489.897 228.76 493.207L229.529 494.043L230.66 494.159L233.177 494.43C238.882 495.073 243.441 495.798 246.998 496.607C251.125 497.546 253.647 498.544 255.037 499.475C256.314 500.331 256.17 500.764 256.162 500.84C256.106 501.347 255.627 502.447 253.875 504.241C250.461 507.736 244.076 512.049 235.662 517.446C227.382 522.757 217.362 528.983 207.139 536.162C186.743 550.488 165.014 568.955 153.782 592.595C142.418 616.511 141.988 645.305 163.35 679.587L164.825 681.955L167.294 680.654C192.131 667.57 212.606 669.427 227.563 678.647C242.679 687.965 252.66 705.11 255.683 723.446C258.706 741.777 254.7 760.804 242.517 773.926Z" fill="#86D0E3" stroke="#0C74AB" stroke-width="6"/>
<path d="M323.983 793.011C337.459 807.82 359.056 817.076 390.587 813.047C440.425 800.157 467.343 769.566 480.516 734.537C493.766 699.304 493.134 659.459 487.446 628.543C484.682 613.521 475.389 594.678 462.473 575.307C449.601 556.002 433.313 536.44 416.857 520.015C400.361 503.549 383.875 490.415 370.636 483.785C363.978 480.45 358.486 478.939 354.387 479.174C352.391 479.289 350.797 479.813 349.527 480.679C348.262 481.54 347.147 482.856 346.285 484.831L345.5 486.63L343.536 486.631L342.452 486.635C337.117 486.682 333.052 487.074 330.052 487.744C326.794 488.472 325.163 489.446 324.409 490.282C323.81 490.948 323.523 491.788 323.818 493.264C324.141 494.882 325.14 497.016 326.965 499.721C330.603 505.114 336.823 511.79 344.533 519.701C352.167 527.535 361.168 536.487 370.066 546.23C387.822 565.67 405.652 588.753 412.184 613.755C415.467 626.322 415.905 639.407 412.032 652.733C408.162 666.05 400.04 679.418 386.492 692.647L384.81 694.29L382.812 693.048C359.457 678.527 341.068 680.207 328.258 689.578C315.17 699.152 307.106 717.311 305.904 737.222C304.705 757.077 310.379 778.062 323.983 793.011Z" fill="#86D0E3" stroke="#0C74AB" stroke-width="6"/>
<g clip-path="url(#clip1_254_171)">
<path d="M356.454 138.224C335.862 137.298 325.001 131.026 319.127 123.24C313.041 115.173 311.565 104.536 312.053 93.6833C312.558 82.4653 313.925 73.8673 322.33 67.8663C331.117 61.5926 348.779 57.2974 385.181 58.9352C410.172 60.0596 428.089 61.9351 440.903 64.4121C453.799 66.9051 461.015 69.9158 465.077 72.9761C468.853 75.8208 470.221 78.9449 470.641 82.8084C470.862 84.8466 470.811 87.0737 470.65 89.6145C470.499 92.0023 470.219 94.9894 470.093 97.7911C469.937 101.277 466.699 105.899 459.133 111.13C451.829 116.181 441.531 121.072 429.699 125.297C405.977 133.768 377.247 139.16 356.454 138.224Z" fill="#87CFE5" stroke="#0178B2" stroke-width="9"/>
<path d="M316.941 106.464C306.599 62.9553 344.158 59.5919 387.301 61.533C430.443 63.4742 454.68 67.5678 460.503 74.8368C474.741 81.4836 415.133 73.8449 383.752 75.4359C288.897 71.1681 336.899 150.357 316.941 106.464Z" fill="#31A7BA"/>
</g>
<g clip-path="url(#clip2_254_171)">
<path d="M167.649 142.478C186.238 146.191 197.408 142.531 204.487 136.282C211.822 129.808 215.65 119.804 217.778 109.15C219.977 98.1384 220.788 89.4786 214.707 81.7658C208.351 73.7025 193.609 65.5731 160.749 59.0108C138.19 54.5055 121.763 52.3143 109.747 51.8507C97.6538 51.3841 90.5056 52.6929 86.1587 54.7561C82.1182 56.6741 80.1599 59.4029 78.8734 63.0625C78.1947 64.9932 77.7139 67.1683 77.2576 69.6729C76.8288 72.0267 76.3724 74.9913 75.8232 77.7416C75.1397 81.1638 76.9364 86.3788 82.4499 93.1563C87.7729 99.6996 95.8045 106.758 105.362 113.513C124.524 127.057 148.88 138.73 167.649 142.478Z" fill="#87CFE5" stroke="#0178B2" stroke-width="9"/>
<path d="M210.4 120.473C229.902 80.5182 197.19 68.8374 158.245 61.0598C119.301 53.2822 96.7119 51.8304 89.8006 57.5883C75.5298 60.8569 130.509 66.7872 158.127 75.3619C243.754 92.4623 182.23 158.647 210.4 120.473Z" fill="#31A7BA"/>
</g>
<g clip-path="url(#clip3_254_171)">
<path d="M293.891 340.826L292.223 340.826L290.42 342.707L280.585 342.718L280.525 342.71L280.466 342.707L270.466 342.207L270.428 342.205L262.391 342.205L262.391 322.289L262.811 318.726L266.716 315.47L270.309 313.674L275.462 313.205L280.189 313.205L285.276 314.593L290.42 317.866L295.605 323.523L298.973 331.699L301.391 339.923L299.891 340.826L293.891 340.826Z" fill="#FEFEFE" stroke="#0578A5" stroke-width="3"/>
<path d="M237.011 340.683L237.079 340.667L237.15 340.658L242.352 339.98L246.391 341.326L252.891 341.826L256.721 342.826L263.518 342.826L263.891 320.984L263.518 317.827L260.042 314.932L256.83 313.327L252.201 312.906L247.95 312.906L243.384 314.151L238.765 317.087L234.104 322.169L231.072 329.528L228.891 336.939L231.072 336.939L237.011 340.683Z" fill="#FEFEFE" stroke="#0875A4" stroke-width="3"/>
<path d="M344.295 310.278C344.715 309.791 345.302 309.5 345.926 309.469C346.549 309.438 347.159 309.67 347.621 310.114C348.083 310.557 348.359 311.176 348.388 311.834C348.417 312.492 348.198 313.136 347.777 313.623C345.718 316.01 343.526 318.27 341.225 320.394C298.338 358.298 231.564 352.778 189.879 316.002C187.536 313.947 185.303 311.835 183.108 309.596C182.659 309.138 182.402 308.51 182.391 307.851C182.381 307.193 182.619 306.557 183.053 306.083C183.487 305.61 184.082 305.337 184.706 305.326C185.331 305.316 185.934 305.567 186.383 306.025C188.491 308.176 190.637 310.206 192.889 312.181C232.825 347.607 297.674 352.63 338.124 316.656C340.295 314.651 342.359 312.522 344.295 310.278Z" fill="#076FA2"/>
<path d="M268.474 345.325C270.658 356.665 264.908 378.269 264.908 378.269" stroke="#076FA2" stroke-width="5" stroke-linecap="round"/>
</g>
<path d="M326.184 250.634C326.123 250.348 326.199 250.044 326.383 249.79C326.567 249.538 326.844 249.357 327.165 249.286C327.486 249.214 327.828 249.257 328.127 249.403C328.426 249.548 328.657 249.784 328.759 250.06C328.977 250.657 329.185 251.236 329.393 251.834C333.511 262.342 333.596 274.738 329.961 285.643C329.774 286.265 329.593 286.855 329.394 287.475C326.884 286.708 324.375 285.941 321.865 285.175C322.133 284.616 322.385 284.085 322.641 283.526C327.441 273.694 328.988 263.221 326.549 252.427C326.431 251.824 326.313 251.239 326.184 250.634Z" fill="#0074AB"/>
<path d="M229.055 236.892C229.342 237.036 229.694 237.074 230.027 237.005C230.359 236.936 230.645 236.766 230.827 236.523C231.011 236.281 231.077 235.984 231.02 235.688C230.962 235.392 230.785 235.122 230.522 234.946C229.953 234.569 229.399 234.205 228.824 233.835C218.89 226.951 205.593 222.786 192.67 222.197C191.939 222.146 191.245 222.101 190.513 222.061C190.508 224.394 190.503 226.728 190.499 229.061C191.188 229.023 191.841 228.99 192.527 228.962C204.682 228.232 216.451 230.41 227.247 235.996C227.856 236.293 228.447 236.585 229.055 236.892Z" fill="#0074AB"/>
<path d="M229.392 257.622C229.679 257.767 230.031 257.806 230.364 257.739C230.696 257.671 230.983 257.502 231.167 257.26C231.352 257.019 231.42 256.722 231.364 256.425C231.308 256.13 231.132 255.859 230.87 255.682C230.303 255.302 229.751 254.936 229.178 254.564C219.28 247.64 206.005 243.42 193.086 242.778C192.355 242.725 191.661 242.677 190.929 242.634C190.912 244.967 190.895 247.301 190.878 249.634C191.568 249.599 192.221 249.568 192.907 249.543C205.065 248.863 216.823 251.088 227.59 256.719C228.197 257.018 228.786 257.312 229.392 257.622Z" fill="#0074AB"/>
<path d="M269.594 357.181C257.014 357.181 246.817 366.819 246.817 378.708C246.817 390.598 257.014 400.236 269.594 400.236C282.173 400.236 292.371 390.598 292.371 378.708C292.371 366.819 282.173 357.181 269.594 357.181Z" fill="#ED6F7A"/>
</g>
<defs>
<clipPath id="clip0_254_171">
<rect width="563.737" height="816.215" fill="white" transform="translate(563.736 816.215) rotate(180)"/>
</clipPath>
<clipPath id="clip1_254_171">
<rect width="168.678" height="90" fill="white" transform="translate(473.404 148.491) rotate(-177.424)"/>
</clipPath>
<clipPath id="clip2_254_171">
<rect width="155.117" height="90" fill="white" transform="matrix(0.980636 0.19584 0.19584 -0.980636 60.8965 126.258)"/>
</clipPath>
<clipPath id="clip3_254_171">
<rect width="212" height="81" fill="white" transform="translate(366.391 380.328) rotate(180)"/>
</clipPath>
</defs>
</svg>
