<svg width="564" height="817" viewBox="0 0 564 817" fill="none" xmlns="http://www.w3.org/2000/svg">
<g clip-path="url(#clip0_254_124)">
<path d="M263.236 612.214C160.761 612.214 77.7363 529.808 77.7363 428.214C77.7363 326.62 160.761 244.214 263.236 244.214C365.711 244.214 448.736 326.62 448.736 428.214C448.736 529.808 365.712 612.214 263.236 612.214Z" fill="#86D0E3" stroke="#0C74AB" stroke-width="7"/>
<path opacity="0.7" d="M277.236 587L290.236 588.5L297.736 587L305.736 584L315.736 579.5L324.236 574.5L322.736 567L312.736 569.5L301.236 572L292.236 573.5L285.236 573.5L277.236 567L272.736 573.5L272.736 579.5L277.236 587Z" fill="#014C83"/>
<path d="M136.236 300.214C170.736 261.214 234.736 245.714 259.736 248.214C366.736 242.214 447.236 336.319 444.736 429.714C443.17 488.214 457.736 350.214 318.736 291.214C244.236 253.714 136.236 300.214 136.236 300.214Z" fill="#37B4CA"/>
<path opacity="0.7" d="M241.236 587.214L228.236 588.714L220.736 587.214L212.736 584.214L202.736 579.714L194.236 574.714L195.736 567.214L205.736 569.714L217.236 572.214L226.236 573.714L233.236 573.714L241.236 567.214L245.736 573.714L245.736 579.714L241.236 587.214Z" fill="#014C83"/>
<path d="M339.456 536.057C326.142 527.565 309.93 531.037 277.558 532.308" stroke="#076FA2" stroke-width="9" stroke-linecap="round"/>
<path d="M296.764 535.2C324.414 532.668 336.555 530.697 348.703 525.623" stroke="#076FA2" stroke-width="4" stroke-linecap="round"/>
<path d="M279.047 534.07C316.58 533.736 332.579 532.077 341.741 523.488" stroke="#076FA2" stroke-width="4" stroke-linecap="round"/>
<path d="M290.008 532.701C317.511 533.781 328.964 532.625 330.764 522.274" stroke="#076FA2" stroke-width="6" stroke-linecap="round"/>
<path d="M277.883 529.789L353.037 531.14" stroke="#076FA2" stroke-width="7" stroke-linecap="round"/>
<path d="M159.186 407.352C154.057 410.465 149.159 410.235 146.481 407.655C143.631 404.909 141.153 397.655 145.441 381.926L145.572 381.443L145.581 380.942C145.596 380.021 145.98 378.34 146.997 375.837C147.976 373.425 149.41 370.566 151.213 367.407C154.815 361.096 159.742 353.835 165.007 346.952C170.278 340.064 175.805 333.664 180.582 329.039C182.978 326.719 185.098 324.931 186.835 323.756C188.769 322.449 189.576 322.357 189.522 322.356L190.629 322.375L191.588 321.822C215.308 308.151 230.533 304.302 239.251 305.376C243.42 305.89 245.838 307.488 247.244 309.44C248.713 311.478 249.476 314.458 249.204 318.386C248.656 326.323 243.942 336.721 235.957 346.032C228.024 355.282 217.262 362.983 205.214 365.958L201.726 366.82L202.209 370.379C202.635 373.522 202.413 375.635 201.642 377.453C200.847 379.326 199.276 381.343 196.164 383.92C189.749 389.232 178.471 395.646 159.186 407.352Z" fill="#86D0E3" stroke="#0C74AB" stroke-width="8"/>
<path d="M328.536 374.59L328.489 374.881C327.999 377.836 328.136 379.826 328.776 381.548C329.432 383.315 330.782 385.246 333.527 387.765C339.208 392.979 349.296 399.389 366.601 411.103C371.121 414.163 375.364 414.014 377.718 411.825C380.332 409.394 382.861 402.666 379.436 387.626L379.328 387.153L379.337 386.669C379.351 385.811 379.059 384.22 378.21 381.824C377.392 379.516 376.173 376.77 374.625 373.726C371.533 367.643 367.259 360.617 362.661 353.938C358.059 347.253 353.209 341.027 348.995 336.507C346.879 334.239 345.009 332.492 343.476 331.34C341.742 330.037 341.1 330.004 341.304 330.008L340.336 329.991L339.482 329.533C326.549 322.599 316.713 318.017 309.386 315.289C301.876 312.493 297.581 311.875 295.435 312.179C294.811 312.268 294.562 312.409 294.49 312.462C294.455 312.535 294.368 312.78 294.375 313.343C294.401 315.201 295.404 318.314 297.587 322.626C301.845 331.04 309.298 341.622 315.922 351.216C319.182 355.938 322.246 360.431 324.488 364.159C325.608 366.021 326.579 367.784 327.278 369.35C327.914 370.778 328.571 372.566 328.542 374.296L328.536 374.59Z" fill="#86D0E3" stroke="#0C74AB" stroke-width="8"/>
<path d="M229.913 380.977C216.132 380.741 204.218 379.018 195.926 375.152C191.829 373.243 188.797 370.893 186.807 368.113C184.85 365.38 183.731 362.002 183.806 357.683C184.111 339.882 189.218 328.833 197.201 322.497C205.278 316.088 217.195 313.779 232.663 315.497L232.849 315.518L233.036 315.521C247.086 315.762 258.893 316.126 269.778 320.175C280.454 324.146 290.58 331.816 300.679 347.417L301.237 348.281L302.144 348.768L302.823 349.144C306.08 351.002 307.291 352.552 307.665 353.492C307.939 354.18 307.985 355.08 306.897 356.619C305.725 358.275 303.515 360.2 300.184 362.257C296.909 364.28 292.81 366.276 288.153 368.172C269.355 375.826 243.176 381.205 229.913 380.977Z" fill="#86D0E3" stroke="#0C74AB" stroke-width="8"/>
<path d="M329.179 403.684C322.123 403.563 317.407 403.092 313.741 401.934C310.25 400.832 307.539 399.049 304.66 395.887C301.663 392.596 298.56 387.9 294.323 380.952C290.153 374.115 284.913 365.15 277.843 353.846L277.64 353.522L277.381 353.242C266.992 342.072 256.32 331.529 247.173 323.109C239.036 315.618 231.922 309.639 227.251 306.444C229.553 306.061 232.339 305.739 235.582 305.528C252.83 304.411 282.032 306.487 317.364 317.842C344.81 328.326 353.675 350.078 352.587 369.208C352.037 378.882 348.936 387.767 344.472 394.098C339.968 400.485 334.49 403.775 329.179 403.684Z" fill="#86D0E3" stroke="#0C74AB" stroke-width="8"/>
<path d="M335.598 376.707C335.563 376.52 335.606 376.321 335.712 376.155C335.818 375.99 335.978 375.872 336.162 375.825C336.347 375.778 336.544 375.806 336.716 375.901C336.888 375.997 337.022 376.151 337.08 376.332C337.206 376.722 337.325 377.102 337.445 377.493C339.816 384.372 339.865 392.487 337.772 399.625C337.665 400.033 337.561 400.419 337.446 400.825C336.002 400.323 334.557 399.821 333.112 399.319C333.267 398.953 333.411 398.606 333.559 398.24C336.322 391.803 337.212 384.947 335.808 377.881C335.74 377.487 335.672 377.103 335.598 376.707Z" fill="#0074AB"/>
<path d="M189.097 534.884C202.73 526.915 218.795 531.015 251.093 533.542" stroke="#076FA2" stroke-width="9" stroke-linecap="round"/>
<path d="M231.791 535.685C204.26 532.081 192.205 529.64 180.262 524.099" stroke="#076FA2" stroke-width="4" stroke-linecap="round"/>
<path d="M249.537 535.244C212.045 533.453 196.123 531.174 187.301 522.235" stroke="#076FA2" stroke-width="4" stroke-linecap="round"/>
<path d="M238.639 533.45C211.114 533.462 199.714 531.862 198.318 521.449" stroke="#076FA2" stroke-width="6" stroke-linecap="round"/>
<path d="M250.867 531.011L175.717 529.444" stroke="#076FA2" stroke-width="7" stroke-linecap="round"/>
<path d="M250.191 766.569C243.038 794.019 203.031 824.829 128.999 798.671L128.923 798.645L128.846 798.622C78.2886 783.737 47.1199 771.526 28.6556 756.861C19.5127 749.599 13.5493 741.779 9.88871 732.754C6.21215 723.69 4.7817 713.22 4.99908 700.551L5.00466 700.226L4.93984 699.905C2.74649 689.051 9.82656 676.051 24.5922 662.618C39.1524 649.372 60.3568 636.49 84.1843 626C107.992 615.519 134.255 607.497 158.845 603.871C183.503 600.235 206.146 601.068 222.933 607.95L223.359 608.126L223.818 608.164L225.135 608.282C231.586 608.888 236.037 609.768 238.875 610.811C240.386 611.367 241.257 611.904 241.719 612.321C241.937 612.519 242.033 612.662 242.073 612.736C242.108 612.802 242.116 612.839 242.118 612.869C242.124 612.936 242.124 613.273 241.695 613.977C241.267 614.68 240.524 615.559 239.376 616.605C237.079 618.698 233.567 621.103 228.993 623.787C219.869 629.139 207.103 635.267 192.871 641.907C178.693 648.522 163.103 655.626 148.518 662.87C133.945 670.108 120.229 677.556 109.787 684.899C104.566 688.571 100.075 692.277 96.6876 695.985C93.3261 699.664 90.8583 703.554 90.0361 707.602C89.18 711.817 90.1742 715.893 93.1241 719.575C95.9773 723.135 100.588 726.251 106.896 729.026C119.517 734.578 140 739.217 170.408 742.759L171.281 742.861L172.072 742.475C203.384 727.178 224.8 727.072 237.194 733.457C249.329 739.708 253.797 752.729 250.191 766.569Z" fill="#86D0E3" stroke="#0C74AB" stroke-width="6"/>
<path d="M309.199 759.157C316.733 786.325 354.852 820.69 418.435 812.548C469.172 799.468 501.453 784.662 521.154 767.031C540.51 749.708 547.93 729.466 548.485 704.644C546.766 701.12 543.49 696.526 538.761 691.144C533.799 685.497 527.372 679.132 519.801 672.429C504.66 659.025 485.057 644.373 463.698 631.528C442.328 618.677 419.3 607.696 397.303 601.551C375.262 595.393 354.585 594.183 337.684 600.444L337.277 600.594L336.844 600.624C329.986 601.09 325.087 601.993 321.775 603.187C318.408 604.4 317.187 605.723 316.788 606.667C316.417 607.545 316.405 608.948 317.661 611.273C318.91 613.584 321.172 616.329 324.414 619.473C330.878 625.741 340.61 633.002 351.882 640.866C363.258 648.802 375.595 656.943 387.876 665.449C399.99 673.839 411.669 682.332 420.934 690.45C430.084 698.467 437.331 706.495 439.981 714.018C441.347 717.895 441.563 721.838 439.985 725.568C438.425 729.255 435.295 732.297 430.837 734.777C422.032 739.677 407.045 742.944 384.455 744.437L383.604 744.493L382.85 744.092C351.929 727.649 331.5 725.623 320.085 730.25C314.505 732.511 310.961 736.393 309.181 741.261C307.375 746.204 307.319 752.375 309.199 759.157Z" fill="#86D0E3" stroke="#0C74AB" stroke-width="6"/>
<g clip-path="url(#clip1_254_124)">
<path d="M351.389 251.906C335.372 264.881 323.086 267.4 313.524 265.475C303.618 263.481 295.454 256.505 288.615 248.063C281.547 239.337 276.863 231.999 279.166 221.931C281.574 211.407 291.934 196.471 320.248 173.534C339.686 157.788 354.332 147.298 365.56 140.646C376.861 133.951 384.256 131.413 389.326 131.005C394.039 130.627 397.136 132.055 400.014 134.667C401.532 136.044 402.972 137.744 404.538 139.751C406.01 141.638 407.784 144.057 409.549 146.237C411.746 148.948 412.391 154.554 410.205 163.488C408.095 172.114 403.638 182.608 397.593 193.622C385.472 215.703 367.562 238.805 351.389 251.906Z" fill="#87CFE5" stroke="#0178B2" stroke-width="9"/>
<path d="M300.756 254.378C264.141 228.7 290.002 201.254 323.559 174.07C357.116 146.887 377.962 133.861 387.142 135.433C402.203 130.954 352.548 164.805 330.133 186.824C256.352 246.592 344.817 273.961 300.756 254.378Z" fill="#31A7BA"/>
</g>
<g clip-path="url(#clip2_254_124)">
<path d="M152.798 250.735C163.096 266.65 173.508 272.105 182.923 272.824C192.678 273.568 202.519 269.339 211.64 263.437C221.067 257.336 227.841 251.88 229.131 242.143C230.48 231.965 226.029 215.729 207.825 187.596C195.327 168.283 185.445 154.979 177.4 146.042C169.304 137.047 163.382 132.835 158.872 131.157C154.68 129.597 151.359 130.096 147.838 131.725C145.981 132.584 144.086 133.756 141.973 135.175C139.986 136.509 137.543 138.249 135.188 139.772C132.258 141.668 129.772 146.592 128.757 155.27C127.778 163.648 128.317 174.326 130.138 185.888C133.787 209.067 142.399 234.666 152.798 250.735Z" fill="#87CFE5" stroke="#0178B2" stroke-width="9"/>
<path d="M198.377 266.04C240.617 252.166 226.185 220.571 204.609 187.229C183.033 153.887 168.326 136.682 159.379 135.741C147.087 127.789 181.166 171.338 194.274 197.116C241.712 270.423 151.371 272.459 198.377 266.04Z" fill="#31A7BA"/>
</g>
<g clip-path="url(#clip3_254_124)">
<path d="M286.994 454.826L285.326 454.826L283.523 456.707L273.688 456.718L273.629 456.71L273.569 456.707L263.569 456.207L263.531 456.205L255.494 456.205L255.494 436.289L255.914 432.726L259.819 429.47L263.412 427.674L268.565 427.205L273.293 427.205L278.38 428.593L283.523 431.866L288.709 437.523L292.076 445.699L294.494 453.923L292.994 454.826L286.994 454.826Z" fill="#FEFEFE" stroke="#0578A5" stroke-width="3"/>
<path d="M230.114 454.683L230.182 454.667L230.253 454.658L235.455 453.98L239.494 455.326L245.994 455.826L249.824 456.826L256.621 456.826L256.994 434.984L256.621 431.827L253.145 428.932L249.933 427.327L245.304 426.906L241.053 426.906L236.487 428.151L231.868 431.087L227.207 436.169L224.175 443.528L221.994 450.939L224.175 450.939L230.114 454.683Z" fill="#FEFEFE" stroke="#0875A4" stroke-width="3"/>
<path d="M337.398 424.278C337.819 423.791 338.405 423.5 339.029 423.469C339.653 423.438 340.263 423.67 340.725 424.114C341.186 424.557 341.462 425.176 341.492 425.834C341.521 426.492 341.301 427.136 340.881 427.623C338.821 430.01 336.63 432.27 334.329 434.394C291.442 472.298 224.667 466.778 182.983 430.002C180.639 427.947 178.406 425.835 176.212 423.596C175.763 423.138 175.505 422.51 175.494 421.851C175.484 421.193 175.723 420.557 176.157 420.083C176.591 419.61 177.186 419.337 177.81 419.326C178.435 419.316 179.037 419.567 179.486 420.025C181.594 422.176 183.74 424.206 185.992 426.181C225.929 461.607 290.778 466.63 331.227 430.656C333.398 428.651 335.462 426.522 337.398 424.278Z" fill="#076FA2"/>
<path d="M261.577 459.325C263.762 470.665 258.012 492.269 258.012 492.269" stroke="#076FA2" stroke-width="5" stroke-linecap="round"/>
</g>
<path d="M319.287 364.633C319.227 364.347 319.302 364.043 319.486 363.79C319.67 363.538 319.948 363.357 320.269 363.286C320.589 363.214 320.931 363.257 321.231 363.402C321.529 363.548 321.761 363.783 321.863 364.06C322.081 364.656 322.289 365.235 322.496 365.834C326.615 376.341 326.7 388.737 323.064 399.642C322.877 400.264 322.696 400.855 322.498 401.475C319.988 400.708 317.478 399.941 314.968 399.174C315.237 398.615 315.488 398.085 315.745 397.526C320.544 387.693 322.091 377.22 319.652 366.427C319.535 365.824 319.416 365.238 319.287 364.633Z" fill="#0074AB"/>
<path d="M222.158 350.891C222.446 351.036 222.797 351.073 223.13 351.005C223.462 350.935 223.748 350.765 223.931 350.523C224.114 350.281 224.181 349.983 224.123 349.687C224.066 349.392 223.889 349.122 223.625 348.946C223.056 348.568 222.502 348.205 221.928 347.835C211.993 340.951 198.696 336.785 185.774 336.196C185.043 336.146 184.348 336.101 183.616 336.061C183.612 338.394 183.607 340.727 183.602 343.061C184.292 343.023 184.945 342.99 185.631 342.962C197.785 342.232 209.554 344.409 220.351 349.996C220.96 350.293 221.55 350.584 222.158 350.891Z" fill="#0074AB"/>
<path d="M222.496 371.621C222.783 371.767 223.134 371.806 223.467 371.739C223.8 371.671 224.087 371.502 224.27 371.26C224.455 371.019 224.523 370.721 224.467 370.425C224.411 370.129 224.236 369.859 223.973 369.682C223.406 369.302 222.854 368.936 222.282 368.564C212.384 361.639 199.109 357.42 186.189 356.778C185.459 356.725 184.765 356.677 184.033 356.634C184.016 358.967 183.999 361.3 183.982 363.634C184.672 363.599 185.325 363.568 186.011 363.543C198.169 362.862 209.926 365.088 220.693 370.719C221.301 371.017 221.89 371.312 222.496 371.621Z" fill="#0074AB"/>
<path d="M262.697 471.181C250.118 471.181 239.92 480.819 239.92 492.708C239.92 504.598 250.118 514.236 262.697 514.236C275.277 514.236 285.475 504.598 285.475 492.708C285.475 480.819 275.277 471.181 262.697 471.181Z" fill="#ED6F7A"/>
</g>
<defs>
<clipPath id="clip0_254_124">
<rect width="563.737" height="816.215" fill="white" transform="translate(563.736 816.215) rotate(180)"/>
</clipPath>
<clipPath id="clip1_254_124">
<rect width="168.678" height="90" fill="white" transform="translate(445.678 181.961) rotate(140.99)"/>
</clipPath>
<clipPath id="clip2_254_124">
<rect width="155.117" height="90" fill="white" transform="matrix(0.543284 0.839549 0.839549 -0.543284 90 162.896)"/>
</clipPath>
<clipPath id="clip3_254_124">
<rect width="212" height="81" fill="white" transform="translate(359.494 494.328) rotate(180)"/>
</clipPath>
</defs>
</svg>
