<svg width="81" height="82" viewBox="0 0 81 82" fill="none" xmlns="http://www.w3.org/2000/svg">
<path fill-rule="evenodd" clip-rule="evenodd" d="M0.841702 20.8974C-2.56592 24.2151 21.5055 48.9695 34.7429 56.7349C41.5837 60.7481 51.7183 59.5465 57.3601 54.0536C63.0023 48.5604 62.029 40.8426 55.1878 36.8293C41.9509 29.0641 4.24932 17.5798 0.841702 20.8974Z" fill="#FF9425"/>
<path fill-rule="evenodd" clip-rule="evenodd" d="M0.982989 20.7791C0.908957 20.8357 0.832 20.9036 0.832 20.9036C0.832 20.9036 55.8968 55.2707 57.3596 54.0536C63.538 48.913 62.0619 40.8098 55.1873 36.8293C29.2958 21.8383 3.5899 18.802 0.982989 20.7791Z" fill="#FF8600"/>
<path d="M56.9274 39.1518C54.2776 40.9779 51.757 42.8989 49.9761 45.2556" stroke="#EF6A00" stroke-width="2" stroke-miterlimit="10" stroke-linecap="round" stroke-linejoin="round"/>
<path d="M44.9626 32.4964C42.5788 33.2777 41.2094 34.8654 39.9323 36.5971" stroke="#EF6A00" stroke-width="2" stroke-miterlimit="10" stroke-linecap="round" stroke-linejoin="round"/>
<path d="M28.5761 25.8299C26.3761 27.7444 24.8013 29.472 23.5914 31.0907" stroke="#EF6A00" stroke-width="2" stroke-miterlimit="10" stroke-linecap="round" stroke-linejoin="round"/>
<path fill-rule="evenodd" clip-rule="evenodd" d="M55.2842 52.5656C55.2842 52.5656 59.8515 60.828 62.3556 63.2699C64.8489 65.7014 71.4054 64.5856 72.7852 63.0789C74.6778 61.0117 74.154 57.6203 70.3954 56.1252C66.8553 54.7168 55.2842 52.5656 55.2842 52.5656Z" fill="#129447"/>
<path fill-rule="evenodd" clip-rule="evenodd" d="M55.3572 52.5403C55.3572 52.5403 56.2453 56.4648 55.1798 60.5607C54.5873 62.8393 51.5917 64.9369 51.4619 66.5947C51.3065 68.5815 52.1757 70.5887 54.5956 70.2577C57.0146 69.9269 58.7604 67.8457 60.3597 65.1309C63.1586 60.3798 56.8955 53.996 55.3572 52.5403Z" fill="#00AA63"/>
<path fill-rule="evenodd" clip-rule="evenodd" d="M54.7905 52.7354C54.7905 52.7354 53.2505 56.001 50.4724 59.7043C48.503 62.3291 44.9209 64.9712 44.6646 65.1338C41.1591 67.3591 42.7699 70.0276 46.3544 69.6392C49.4768 69.3005 52.1118 67.4328 53.5962 65.5516C57.425 60.7 56.8493 53.245 54.7905 52.7354Z" fill="#129447"/>
<path fill-rule="evenodd" clip-rule="evenodd" d="M54.7911 52.7352C54.7911 52.7352 59.7112 52.1104 64.4201 50.2167C67.0397 49.1631 68.8052 46.3219 70.7905 45.7855C73.1698 45.1427 75.8444 45.2775 76.0795 47.2127C76.3144 49.1477 73.5216 51.6407 71.354 52.9671C66.134 56.162 56.4039 53.9349 54.7911 52.7352Z" fill="#00AA63"/>
<path fill-rule="evenodd" clip-rule="evenodd" d="M54.7908 52.7354C54.7908 52.7354 59.886 50.2975 63.7169 47.2432C66.8218 44.7677 68.1979 42.401 69.2363 41.6196C71.1464 40.1824 73.5855 40.17 74.4446 41.912C75.3036 43.6542 73.0904 46.975 71.5582 48.2778C66.8378 52.291 57.3977 53.4101 54.7908 52.7354Z" fill="#129447"/>
<path d="M37.7174 49.4745C34.998 50.6368 32.9106 52.5692 31.6567 53.8653" stroke="#EF6A00" stroke-width="2" stroke-miterlimit="10" stroke-linecap="round" stroke-linejoin="round"/>
<path d="M24.3786 40.946C22.2769 41.8956 20.4894 43.5511 19.3923 44.6663" stroke="#EF6A00" stroke-width="2" stroke-miterlimit="10" stroke-linecap="round" stroke-linejoin="round"/>
<path d="M11.3605 30.4892C10.2544 31.0455 9.2332 32.0371 8.59722 32.7059" stroke="#EF6A00" stroke-width="2" stroke-miterlimit="10" stroke-linecap="round" stroke-linejoin="round"/>
</svg>
