<svg width="476" height="786" viewBox="0 0 476 786" fill="none" xmlns="http://www.w3.org/2000/svg">
<g clip-path="url(#clip0_155_22)">
<path d="M86.9297 16.714C96.5345 11.8056 106.682 11.5521 117.15 15.7185C127.798 19.957 138.925 28.8566 149.706 42.4838C171.246 69.7071 190.39 114.534 201.105 172.94C203.797 197.451 207.515 221.974 210.903 244.675C214.315 267.526 217.378 288.445 218.81 305.946C220.262 323.711 219.917 336.908 217.187 344.843C215.87 348.67 214.243 350.541 212.698 351.426C211.21 352.279 208.76 352.809 204.48 351.727L201.386 350.945L199.008 353.076C195.786 355.965 194.143 356.089 193.632 356.039C193.139 355.991 191.842 355.602 189.746 352.806C187.689 350.061 185.529 345.873 183.134 340.14C180.765 334.471 178.317 327.671 175.575 319.89C164.678 288.966 149.647 243.897 118.755 204.258L118.539 203.981L118.293 203.732L115.425 200.807C55.8798 139.709 39.4621 98.8815 41.6354 71.5831C43.8011 44.3812 64.7521 28.0476 86.9297 16.714Z" fill="#8BCDE5" stroke="#0E6B96" stroke-width="12"/>
<path d="M307.345 63.0001C329.956 36.7664 354.435 28.2455 371.981 33.7082C390.948 39.6138 410.17 56.4775 412.328 84.658C414.514 113.194 399.378 155.113 344.924 210.922L344.816 211.034L344.714 211.149C311.199 249.217 298.305 291.6 289.629 320.998C287.446 328.398 285.571 334.835 283.702 340.279C281.814 345.774 280.078 349.805 278.313 352.52C276.553 355.23 275.28 355.846 274.561 355.996C273.785 356.157 271.966 356.128 268.378 353.876L266.01 352.389L263.352 353.247C259.04 354.637 256.325 354.41 254.592 353.718C252.907 353.044 251.211 351.556 249.678 348.449C246.419 341.847 245.025 330.25 245.345 314.045C245.977 281.971 253.048 236.878 258.547 190.113C265.454 131.368 284.962 88.9707 307.345 63.0001Z" fill="#87CFE5" stroke="#0E6B96" stroke-width="12"/>
<path d="M237.5 334.426C339.975 334.426 423 416.937 423 518.661C423 620.384 339.975 702.896 237.5 702.896C135.025 702.896 52.0005 620.384 52.0005 518.661C52.0005 416.937 135.025 334.426 237.5 334.426Z" fill="#86D0E3" stroke="#0C74AB" stroke-width="7"/>
<path d="M364.501 646.824C330.001 685.874 266.001 701.394 241.001 698.89C134.001 704.898 53.5005 610.673 56.0005 517.159C57.5664 458.584 43.0005 596.76 182.001 655.836C256.501 693.383 364.501 646.824 364.501 646.824Z" fill="#37B4CA"/>
<path opacity="0.77" d="M173.5 393.501L182.5 381.987L195 370.973L202 366.968L208.5 364.965L212 368.47L215 372.475L217 378.482L208.5 380.986L196 387.994L187.5 393.501L179 401.512L175 397.006L173.5 393.501Z" fill="#004F80"/>
<path opacity="0.7" d="M264.5 357.956H272.5L280 359.458L288 362.462L298 366.968L306.5 371.974L305 379.483L295 376.98L283.5 374.477L274.5 372.975H267.5H259.5V365.966L261 360.96L264.5 357.956Z" fill="#014C83"/>
<g clip-path="url(#clip1_155_22)">
<path d="M199 700.891C217.453 700.891 227.418 706.676 232.985 714.199C238.752 721.994 240.5 732.568 240.5 743.446C240.5 754.689 239.623 763.351 232.348 769.732C224.743 776.403 209.12 781.494 176.5 781.494C154.106 781.494 138.008 780.424 126.449 778.523C114.815 776.61 108.241 773.924 104.485 771.045C100.993 768.37 99.6442 765.306 99.1137 761.461C98.8339 759.432 98.7896 757.202 98.8315 754.653C98.8709 752.258 99.0004 749.258 99.0004 746.449C99.0004 742.955 101.71 738.187 108.265 732.613C114.594 727.232 123.607 721.877 134.018 717.118C154.892 707.577 180.368 700.891 199 700.891Z" fill="#87CFE5" stroke="#0178B2" stroke-width="9"/>
<path d="M235.614 730.881C246.614 773.936 213.16 778.991 174.5 778.991C135.84 778.991 114 775.987 108.5 768.978C95.5 762.97 149.114 767.928 177.114 764.925C262.114 764.925 216 687.875 235.614 730.881Z" fill="#31A7BA"/>
</g>
<g clip-path="url(#clip2_155_22)">
<path d="M291.001 700.891C272.548 700.891 262.583 706.676 257.016 714.199C251.249 721.994 249.501 732.568 249.501 743.446C249.501 754.689 250.378 763.351 257.653 769.732C265.258 776.403 280.881 781.494 313.501 781.494C335.895 781.494 351.993 780.424 363.552 778.523C375.186 776.61 381.76 773.924 385.516 771.045C389.008 768.37 390.357 765.306 390.887 761.461C391.167 759.432 391.211 757.202 391.169 754.653C391.13 752.258 391.001 749.258 391.001 746.449C391.001 742.955 388.291 738.187 381.736 732.613C375.407 727.232 366.394 721.877 355.983 717.118C335.109 707.577 309.633 700.891 291.001 700.891Z" fill="#87CFE5" stroke="#0178B2" stroke-width="9"/>
<path d="M254.387 730.881C243.387 773.936 276.841 778.991 315.501 778.991C354.161 778.991 376.001 775.987 381.501 768.978C394.501 762.97 340.887 767.928 312.887 764.925C227.887 764.925 274.001 687.875 254.387 730.881Z" fill="#31A7BA"/>
</g>
<g clip-path="url(#clip3_155_22)">
<path d="M193.5 431.55C218.481 431.55 239.5 455.778 239.5 485.618C239.5 502.455 236.057 515.942 228.772 525.17C221.589 534.268 210.302 539.687 193.5 539.687C168.615 539.687 149 516.052 149 485.618C149 455.184 168.615 431.55 193.5 431.55Z" fill="#FEFEFE" stroke="#0F79AB" stroke-width="6"/>
<path d="M288.176 404.515C301.85 404.515 314.49 412.127 323.821 424.786C333.149 437.44 339 454.951 339 474.104C339 495.678 335.187 513.118 327.027 525.086C319.002 536.858 306.53 543.692 288.176 543.692C274.506 543.692 262.294 536.238 253.386 523.693C244.469 511.135 239 493.617 239 474.104C239 454.59 244.469 437.073 253.386 424.514C262.294 411.97 274.506 404.515 288.176 404.515Z" fill="#FEFEFE" stroke="#0F79AB" stroke-width="6"/>
<path d="M241 549.7C252.046 549.7 261 540.062 261 528.173C261 516.283 252.046 506.645 241 506.645C229.955 506.645 221 516.283 221 528.173C221 540.062 229.955 549.7 241 549.7Z" fill="#ED6F7A"/>
<path d="M273.5 489.623C273.5 500.683 267.508 509.649 259.5 509.649C251.492 509.649 245 500.683 245 489.623C245 478.564 251.492 469.598 259.5 469.598C268.5 472.101 273.5 478.109 273.5 489.623Z" fill="#2B2A28"/>
<path d="M221.5 509.649C229.509 509.649 236 500.683 236 489.623C236 478.564 229.509 469.598 221.5 469.598C213.492 469.598 207 478.564 207 489.623C207 500.683 213.492 509.649 221.5 509.649Z" fill="#2B2A28"/>
<path d="M271 479.11C272 482.614 268.761 485.618 266 485.618C263.239 485.618 261 483.153 261 480.111C261 477.07 263.239 474.604 266 474.604C268.761 474.604 271 476.069 271 479.11Z" fill="#F9FAFB"/>
<path d="M233 479.11C234 482.614 230.762 485.618 228 485.618C225.239 485.618 223 483.153 223 480.111C223 477.07 225.239 474.604 228 474.604C230.762 474.604 233 476.069 233 479.11Z" fill="#F9FAFB"/>
</g>
<g clip-path="url(#clip4_155_22)">
<path d="M62.0857 498.137C67.3398 498.815 69.4645 500.708 70.5213 503.073C71.8072 505.952 71.9222 510.36 71.1053 516.856C69.548 529.238 64.6902 547.959 64.6902 569.225V569.533L64.7439 569.837C67.5145 585.473 69.9139 599.417 69.1346 611.363C68.3868 622.824 64.7351 632.077 55.7566 639.009C42.5809 641.259 32.686 640.348 25.323 637.453C17.8795 634.526 12.744 629.467 9.30938 622.97C2.30366 609.715 2.37047 590.43 5.63848 571.835L5.66387 571.692L5.67657 571.548C7.2941 553.928 16.6393 535.424 28.3035 521.266C34.1148 514.213 40.4062 508.358 46.4314 504.296C52.4325 500.249 57.8413 498.201 62.0857 498.137Z" fill="#87CFE5" stroke="#0076B8" stroke-width="7"/>
<path d="M43.8178 604.062C43.8759 603.776 43.8145 603.471 43.6576 603.215C43.5001 602.959 43.2598 602.774 42.9793 602.698C42.6988 602.621 42.398 602.659 42.1327 602.8C41.868 602.941 41.6605 603.173 41.5662 603.449C41.3647 604.043 41.1721 604.619 40.9797 605.215C37.1836 615.672 36.8963 628.081 39.901 639.053C40.0545 639.679 40.2034 640.273 40.3672 640.897C42.5837 640.167 44.8003 639.437 47.0168 638.707C46.7908 638.143 46.5791 637.608 46.3633 637.045C42.3183 627.129 41.1399 616.621 43.4664 605.852C43.5798 605.25 43.6941 604.665 43.8178 604.062Z" fill="#0074AB"/>
<path d="M19.9754 602.992C20.0078 602.698 19.9166 602.392 19.7347 602.145C19.5521 601.899 19.2939 601.729 19.0038 601.674C18.7137 601.619 18.4117 601.681 18.1514 601.845C17.8918 602.008 17.6951 602.258 17.6175 602.544C17.4783 603.063 17.3473 603.555 17.214 604.076C14.6529 613.184 14.1899 623.35 15.1129 632.797C15.1558 633.334 15.1967 633.845 15.2424 634.381C15.321 635.337 15.7769 636.192 16.5522 636.752C17.325 637.312 18.3538 637.53 19.3699 637.366C20.386 637.202 21.2939 636.67 21.8517 635.896C22.4119 635.12 22.5761 634.165 22.3505 633.234C22.2276 632.722 22.1097 632.234 21.9899 631.725C19.7184 622.716 18.7297 613.854 19.8133 604.539C19.8659 604.014 19.9165 603.518 19.9754 602.992Z" fill="#007BA4"/>
</g>
<path d="M334.693 540.197L334.578 540.617L334.578 541.056C334.577 555.812 326.424 585.314 307.638 609.25C289.041 632.943 260.153 651.033 218.493 643.841C183.411 628.873 168.247 605.465 160.981 585.181C157.316 574.947 155.635 565.436 154.47 557.999C154.081 555.513 153.736 553.184 153.392 551.151C157.324 553.901 162.08 557.025 167.477 560.198C189.743 573.286 223.609 587.62 255.635 578.934C285.726 578.814 308.535 562.987 322.748 550.8C326.318 547.739 329.362 544.892 331.829 542.589C332.956 541.536 333.936 540.625 334.781 539.86C334.752 539.97 334.724 540.083 334.693 540.197Z" fill="#D20223" stroke="#076FA2" stroke-width="6"/>
<path d="M151.764 541.512C151.275 540.923 150.593 540.571 149.867 540.534C149.142 540.496 148.432 540.777 147.895 541.313C147.358 541.849 147.037 542.598 147.003 543.393C146.969 544.189 147.225 544.967 147.714 545.556C150.109 548.443 152.658 551.175 155.335 553.744C205.222 599.578 282.896 592.904 331.385 548.433C334.111 545.948 336.708 543.394 339.261 540.687C339.783 540.133 340.083 539.374 340.096 538.577C340.107 537.781 339.83 537.012 339.325 536.439C338.82 535.867 338.128 535.538 337.402 535.524C336.676 535.511 335.974 535.815 335.452 536.369C333 538.97 330.504 541.425 327.884 543.813C281.429 586.65 205.995 592.724 158.943 549.224C156.417 546.8 154.016 544.226 151.764 541.512Z" fill="#076FA2"/>
<path d="M210.606 582.547L210.668 582.563L210.731 582.572L221.231 584.073L221.285 584.081L221.339 584.084L230.469 584.585L230.504 584.587L237.842 584.587L237.842 604.528L237.458 608.096L233.893 611.356L230.613 613.154L225.908 613.624L221.592 613.624L216.947 612.234L212.251 608.957L207.517 603.292L204.443 595.106L202.235 586.872L202.235 580.46L210.606 582.547Z" fill="#FEFEFE" stroke="#0578A5" stroke-width="3"/>
<path d="M264.208 582.307L264.146 582.322L264.082 582.332L254.583 583.689L254.528 583.697L254.474 583.7L246.214 584.153L246.18 584.155L239.667 584.155L239.667 602.031L240.008 605.192L243.182 608.09L246.114 609.698L250.34 610.119L254.221 610.119L258.39 608.873L262.607 605.932L266.862 600.844L269.631 593.476L271.622 586.056L271.622 580.459L264.208 582.307Z" fill="#FEFEFE" stroke="#0875A4" stroke-width="3"/>
<path d="M301.294 612.696C294.446 621.707 274.361 634.724 257.47 640.231C240.124 641.733 241.493 645.97 241.493 638.228C252.449 621.707 264.318 608.69 304.489 606.688C308.597 606.688 305.858 606.688 301.294 612.696Z" fill="#FF1863"/>
<g clip-path="url(#clip5_155_22)">
<path fill-rule="evenodd" clip-rule="evenodd" d="M272.424 610.765C276.177 600.95 366.61 613.11 402.15 626.735C420.518 633.775 430.386 652.685 424.172 668.935C417.958 685.186 398.002 692.662 379.634 685.621C344.095 671.997 268.672 620.58 272.424 610.765Z" fill="#FF9425"/>
<path fill-rule="evenodd" clip-rule="evenodd" d="M272.316 611.15C272.36 610.955 272.427 610.742 272.427 610.742C272.427 610.742 425.28 664.967 424.171 668.935C419.489 685.692 397.965 692.759 379.633 685.621C310.598 658.738 270.806 617.993 272.316 611.15Z" fill="#FF8600"/>
<path d="M387.464 685.867C388.553 679.13 390.035 672.502 393.508 666.634" stroke="#EF6A00" stroke-width="5" stroke-miterlimit="10" stroke-linecap="round" stroke-linejoin="round"/>
<path d="M356.223 673.122C355.112 668.083 357.237 663.836 359.828 659.579" stroke="#EF6A00" stroke-width="5" stroke-miterlimit="10" stroke-linecap="round" stroke-linejoin="round"/>
<path d="M319.376 652.761C321.248 646.694 323.454 641.928 325.855 637.92" stroke="#EF6A00" stroke-width="5" stroke-miterlimit="10" stroke-linecap="round" stroke-linejoin="round"/>
<path fill-rule="evenodd" clip-rule="evenodd" d="M417.942 667.12C417.942 667.12 443.753 665.197 452.838 666.62C461.883 668.037 467.445 680.672 465.529 684.84C462.9 690.558 454.01 693.677 445.641 688.966C437.757 684.53 417.942 667.12 417.942 667.12Z" fill="#129447"/>
<path fill-rule="evenodd" clip-rule="evenodd" d="M417.974 667.276C417.974 667.276 428.617 664.152 437.213 657.455C441.995 653.729 443.307 646.073 447.166 643.882C451.791 641.257 457.759 640.375 460.007 644.943C462.255 649.508 459.407 654.989 454.837 660.969C446.838 671.434 423.446 668.203 417.974 667.276Z" fill="#00AA63"/>
<path fill-rule="evenodd" clip-rule="evenodd" d="M417.732 666.066C417.732 666.066 423.714 659.535 429.196 650.349C433.082 643.838 434.976 634.524 435.046 633.888C436.025 625.201 444.533 624.814 448.111 631.459C451.228 637.247 450.019 644.009 447.326 648.802C440.382 661.162 421.565 669.014 417.732 666.066Z" fill="#129447"/>
<path fill-rule="evenodd" clip-rule="evenodd" d="M417.732 666.067C417.732 666.067 422.422 675.297 423.766 685.667C424.514 691.436 419.845 697.852 421.048 701.914C422.489 706.781 426.19 711.235 431.182 709.345C436.174 707.455 438.701 699.679 439.186 694.366C440.355 681.57 422.678 667.426 417.732 666.067Z" fill="#00AA63"/>
<path fill-rule="evenodd" clip-rule="evenodd" d="M417.733 666.067C417.733 666.067 418.243 677.749 415.663 687.982C413.572 696.275 409.566 701.457 408.979 704.176C407.901 709.176 410.946 713.398 416.257 712.813C421.569 712.229 426.836 704.471 428.065 700.282C431.85 687.377 422.658 669.764 417.733 666.067Z" fill="#129447"/>
<path d="M388.284 640.48C387.673 634.409 389.731 628.516 391.294 624.815" stroke="#EF6A00" stroke-width="5" stroke-miterlimit="10" stroke-linecap="round" stroke-linejoin="round"/>
<path d="M348.336 628.772C347.955 624.18 349.466 619.335 350.609 616.251" stroke="#EF6A00" stroke-width="5" stroke-miterlimit="10" stroke-linecap="round" stroke-linejoin="round"/>
<path d="M308.968 617.533C308.923 614.965 310.041 612.027 310.862 610.136" stroke="#EF6A00" stroke-width="5" stroke-miterlimit="10" stroke-linecap="round" stroke-linejoin="round"/>
<path d="M403.225 543.964C398.328 541.941 395.545 542.53 393.455 544.059C390.913 545.919 388.628 549.689 386.119 555.734C381.335 567.258 376.275 585.926 365.737 604.39L365.585 604.657L365.387 604.895C355.234 617.093 346.241 628.009 340.998 638.767C335.967 649.09 334.553 658.937 338.913 669.417C349.238 677.915 358.281 682.04 366.108 683.185C374.02 684.342 380.987 682.501 387.188 678.566C399.839 670.538 409.337 653.761 415.714 635.994L415.764 635.857L415.824 635.726C423.151 619.624 424.207 598.915 421.095 580.829C419.545 571.818 416.984 563.608 413.765 557.087C410.56 550.594 406.879 546.128 403.225 543.964Z" fill="#87CFE5" stroke="#0076B8" stroke-width="7"/>
</g>
</g>
<defs>
<clipPath id="clip0_155_22">
<rect width="476" height="786" fill="white"/>
</clipPath>
<clipPath id="clip1_155_22">
<rect width="151" height="90.1148" fill="white" transform="translate(94 695.885)"/>
</clipPath>
<clipPath id="clip2_155_22">
<rect width="151" height="90.1148" fill="white" transform="matrix(-1 0 0 1 396.001 695.885)"/>
</clipPath>
<clipPath id="clip3_155_22">
<rect width="196" height="148.189" fill="white" transform="translate(146 401.511)"/>
</clipPath>
<clipPath id="clip4_155_22">
<rect width="76" height="149.19" fill="white" transform="translate(0 494.63)"/>
</clipPath>
<clipPath id="clip5_155_22">
<rect width="156.179" height="209.026" fill="white" transform="matrix(0.392207 -0.919801 0.919568 0.393109 256 646.654)"/>
</clipPath>
</defs>
</svg>
