<svg width="476" height="786" viewBox="0 0 476 786" fill="none" xmlns="http://www.w3.org/2000/svg">
<g clip-path="url(#clip0_157_1021)">
<g clip-path="url(#clip1_157_1021)">
<path d="M86.9296 16.7143C96.5345 11.8058 106.682 11.5524 117.15 15.7188C127.798 19.9572 138.925 28.8568 149.706 42.484C171.246 69.7073 190.39 114.534 201.105 172.941C203.797 197.451 207.515 221.975 210.903 244.675C214.315 267.526 217.378 288.445 218.81 305.947C220.262 323.711 219.917 336.908 217.187 344.843C215.87 348.67 214.243 350.541 212.698 351.426C211.21 352.28 208.76 352.81 204.48 351.727L201.386 350.945L199.008 353.076C195.786 355.965 194.143 356.089 193.632 356.04C193.139 355.992 191.842 355.603 189.746 352.806C187.689 350.061 185.529 345.873 183.134 340.141C180.765 334.471 178.317 327.671 175.575 319.89C164.678 288.966 149.647 243.897 118.755 204.259L118.539 203.982L118.293 203.733L115.425 200.807C55.8798 139.71 39.4621 98.8817 41.6354 71.5833C43.8011 44.3815 64.7521 28.0479 86.9296 16.7143Z" fill="#8BCDE5" stroke="#0E6B96" stroke-width="12"/>
<path d="M307.345 63.0001C329.956 36.7664 354.435 28.2455 371.981 33.7082C390.948 39.6138 410.17 56.4775 412.328 84.658C414.514 113.194 399.378 155.113 344.924 210.922L344.816 211.034L344.714 211.149C311.199 249.217 298.305 291.6 289.629 320.998C287.446 328.398 285.571 334.835 283.702 340.279C281.814 345.774 280.078 349.805 278.313 352.52C276.553 355.23 275.28 355.846 274.561 355.996C273.785 356.157 271.966 356.128 268.378 353.876L266.01 352.389L263.352 353.247C259.04 354.637 256.325 354.41 254.592 353.718C252.907 353.044 251.211 351.556 249.678 348.449C246.419 341.847 245.025 330.25 245.345 314.045C245.977 281.971 253.048 236.878 258.547 190.113C265.454 131.368 284.962 88.9707 307.345 63.0001Z" fill="#87CFE5" stroke="#0E6B96" stroke-width="12"/>
<path d="M237.5 334.426C339.975 334.426 423 416.937 423 518.661C423 620.384 339.975 702.895 237.5 702.895C135.025 702.895 52.0005 620.384 52.0005 518.661C52.0005 416.937 135.025 334.426 237.5 334.426Z" fill="#86D0E3" stroke="#0C74AB" stroke-width="7"/>
<path d="M364.501 646.824C330.001 685.874 266.001 701.394 241.001 698.89C134.001 704.898 53.5005 610.673 56.0005 517.159C57.5664 458.584 43.0005 596.76 182.001 655.836C256.501 693.383 364.501 646.824 364.501 646.824Z" fill="#37B4CA"/>
<path opacity="0.77" d="M173.5 393.501L182.5 381.987L195 370.972L202 366.967L208.5 364.965L212 368.469L215 372.474L217 378.482L208.5 380.985L196 387.994L187.5 393.501L179 401.511L175 397.006L173.5 393.501Z" fill="#004F80"/>
<path opacity="0.7" d="M264.5 357.956H272.5L280 359.458L288 362.462L298 366.968L306.5 371.974L305 379.483L295 376.98L283.5 374.477L274.5 372.975H267.5H259.5V365.966L261 360.96L264.5 357.956Z" fill="#014C83"/>
<g clip-path="url(#clip2_157_1021)">
<path d="M199 700.891C217.453 700.891 227.418 706.675 232.985 714.199C238.752 721.994 240.5 732.567 240.5 743.445C240.5 754.689 239.623 763.351 232.348 769.732C224.743 776.403 209.12 781.494 176.5 781.494C154.106 781.494 138.008 780.424 126.449 778.523C114.815 776.61 108.241 773.923 104.485 771.045C100.993 768.369 99.6442 765.306 99.1137 761.46C98.8339 759.432 98.7896 757.202 98.8315 754.653C98.8709 752.258 99.0004 749.257 99.0004 746.449C99.0004 742.955 101.71 738.187 108.265 732.613C114.594 727.232 123.607 721.877 134.018 717.118C154.892 707.577 180.368 700.891 199 700.891Z" fill="#87CFE5" stroke="#0178B2" stroke-width="9"/>
<path d="M235.614 730.881C246.614 773.936 213.16 778.991 174.5 778.991C135.84 778.991 114 775.987 108.5 768.978C95.5 762.97 149.114 767.928 177.114 764.925C262.114 764.925 216 687.875 235.614 730.881Z" fill="#31A7BA"/>
</g>
<g clip-path="url(#clip3_157_1021)">
<path d="M291.001 700.891C272.548 700.891 262.583 706.675 257.016 714.199C251.249 721.994 249.501 732.567 249.501 743.445C249.501 754.689 250.378 763.351 257.653 769.732C265.258 776.403 280.881 781.494 313.501 781.494C335.895 781.494 351.993 780.424 363.552 778.523C375.186 776.61 381.76 773.923 385.516 771.045C389.008 768.369 390.357 765.306 390.887 761.46C391.167 759.432 391.211 757.202 391.169 754.653C391.13 752.258 391.001 749.257 391.001 746.449C391.001 742.955 388.291 738.187 381.736 732.613C375.407 727.232 366.394 721.877 355.983 717.118C335.109 707.577 309.633 700.891 291.001 700.891Z" fill="#87CFE5" stroke="#0178B2" stroke-width="9"/>
<path d="M254.387 730.881C243.387 773.936 276.841 778.991 315.501 778.991C354.161 778.991 376.001 775.987 381.501 768.978C394.501 762.97 340.887 767.928 312.887 764.925C227.887 764.925 274.001 687.875 254.387 730.881Z" fill="#31A7BA"/>
</g>
<g clip-path="url(#clip4_157_1021)">
<path d="M62.0857 498.138C67.3398 498.815 69.4645 500.708 70.5213 503.074C71.8072 505.952 71.9222 510.361 71.1053 516.856C69.548 529.238 64.6902 547.96 64.6902 569.225V569.533L64.7439 569.837C67.5145 585.473 69.9139 599.417 69.1346 611.363C68.3868 622.825 64.7351 632.077 55.7566 639.009C42.5809 641.259 32.686 640.348 25.323 637.453C17.8795 634.527 12.744 629.467 9.30938 622.97C2.30366 609.715 2.37047 590.43 5.63848 571.835L5.66387 571.692L5.67657 571.549C7.2941 553.929 16.6393 535.424 28.3035 521.267C34.1148 514.214 40.4062 508.358 46.4314 504.296C52.4325 500.25 57.8413 498.202 62.0857 498.138Z" fill="#87CFE5" stroke="#0076B8" stroke-width="7"/>
<path d="M43.8178 604.062C43.8759 603.776 43.8145 603.471 43.6576 603.215C43.5001 602.959 43.2598 602.774 42.9793 602.698C42.6988 602.621 42.398 602.659 42.1327 602.8C41.868 602.941 41.6605 603.173 41.5662 603.449C41.3647 604.043 41.1721 604.619 40.9797 605.215C37.1836 615.672 36.8963 628.081 39.901 639.053C40.0545 639.679 40.2034 640.273 40.3672 640.897C42.5837 640.167 44.8003 639.437 47.0168 638.707C46.7908 638.143 46.5791 637.608 46.3633 637.045C42.3183 627.129 41.1399 616.621 43.4664 605.852C43.5798 605.25 43.6941 604.665 43.8178 604.062Z" fill="#0074AB"/>
<path d="M19.9754 602.993C20.0078 602.698 19.9166 602.393 19.7347 602.146C19.5521 601.899 19.2939 601.73 19.0038 601.675C18.7137 601.62 18.4117 601.682 18.1514 601.845C17.8918 602.008 17.6951 602.259 17.6175 602.544C17.4783 603.064 17.3473 603.555 17.214 604.077C14.6529 613.185 14.1899 623.351 15.1129 632.798C15.1558 633.334 15.1967 633.846 15.2424 634.382C15.321 635.338 15.7769 636.193 16.5522 636.753C17.325 637.312 18.3538 637.531 19.3699 637.366C20.386 637.202 21.2939 636.67 21.8517 635.897C22.4119 635.121 22.5761 634.165 22.3505 633.234C22.2276 632.722 22.1097 632.235 21.9899 631.725C19.7184 622.717 18.7297 613.854 19.8133 604.54C19.8659 604.015 19.9165 603.518 19.9754 602.993Z" fill="#007BA4"/>
</g>
<path d="M344.279 603C297.279 611.5 285.779 575.5 302.279 552" stroke="#076FA2" stroke-width="6" stroke-linecap="round"/>
<path d="M193.319 565.107C193.081 564.703 192.749 564.461 192.396 564.436C192.043 564.41 191.697 564.602 191.436 564.97C191.174 565.338 191.018 565.851 191.001 566.397C190.985 566.943 191.109 567.476 191.347 567.88C192.513 569.86 193.755 571.734 195.058 573.496C219.343 604.928 257.155 600.351 280.759 569.853C282.086 568.149 283.351 566.397 284.594 564.541C284.848 564.161 284.994 563.64 285 563.094C285.006 562.548 284.87 562.02 284.625 561.628C284.379 561.235 284.042 561.009 283.689 561C283.335 560.991 282.994 561.2 282.739 561.579C281.546 563.364 280.33 565.047 279.055 566.684C256.441 596.062 219.719 600.228 196.814 570.395C195.584 568.733 194.416 566.968 193.319 565.107Z" fill="#076FA2"/>
<path d="M217.334 591.963L217.375 591.979L217.416 591.987L224.306 593.487L224.341 593.495L224.377 593.498L230.368 593.998L230.39 594H235.205V613.916L234.953 617.48L232.614 620.735L230.462 622.531L227.375 623H224.543L221.495 621.612L218.414 618.339L215.307 612.682L213.29 604.506L211.842 596.282V589.879L217.334 591.963Z" fill="#FEFEFE" stroke="#0578A5" stroke-width="3"/>
<path d="M252.506 591.723L252.465 591.738L252.423 591.748L246.19 593.104L246.154 593.111L246.119 593.114L240.699 593.566L240.676 593.568H236.403V611.422L236.627 614.579L238.709 617.474L240.633 619.079L243.406 619.5H245.953L248.688 618.255L251.455 615.318L254.247 610.236L256.064 602.878L257.37 595.467V589.878L252.506 591.723Z" fill="#FEFEFE" stroke="#0875A4" stroke-width="3"/>
<path d="M126 601C173 609.5 184.5 573.5 168 550" stroke="#076FA2" stroke-width="6" stroke-linecap="round"/>
<g clip-path="url(#clip5_157_1021)">
<path d="M189.5 426.038C214.48 426.038 235.5 450.267 235.5 480.107C235.5 496.943 232.056 510.431 224.771 519.658C217.589 528.757 206.302 534.176 189.5 534.176C164.614 534.176 145 510.541 145 480.107C145 449.673 164.614 426.038 189.5 426.038Z" fill="#FEFEFE" stroke="#0F79AB" stroke-width="6"/>
<path d="M284.176 399.004C297.85 399.004 310.49 406.616 319.821 419.275C329.149 431.929 335 449.44 335 468.593C335 490.167 331.187 507.606 323.027 519.575C315.002 531.347 302.53 538.181 284.176 538.181C270.506 538.181 258.294 530.727 249.386 518.182C240.468 505.624 235 488.106 235 468.593C235 449.079 240.468 431.561 249.386 419.003C258.294 406.458 270.506 399.004 284.176 399.004Z" fill="#FEFEFE" stroke="#0F79AB" stroke-width="6"/>
<path d="M237 544.189C248.046 544.189 257 534.55 257 522.661C257 510.772 248.046 501.134 237 501.134C225.954 501.134 217 510.772 217 522.661C217 534.55 225.954 544.189 237 544.189Z" fill="#ED6F7A"/>
<path d="M269.5 484.112C269.5 495.172 263.508 504.138 255.5 504.138C247.492 504.138 241 495.172 241 484.112C241 473.053 247.492 464.087 255.5 464.087C264.5 466.59 269.5 472.598 269.5 484.112Z" fill="#2B2A28"/>
<path d="M217.5 504.138C225.508 504.138 232 495.172 232 484.112C232 473.053 225.508 464.087 217.5 464.087C209.492 464.087 203 473.053 203 484.112C203 495.172 209.492 504.138 217.5 504.138Z" fill="#2B2A28"/>
<path d="M267 473.599C268 477.103 264.761 480.107 262 480.107C259.239 480.107 257 477.642 257 474.6C257 471.559 259.239 469.093 262 469.093C264.761 469.093 267 470.558 267 473.599Z" fill="#F9FAFB"/>
<path d="M229 473.599C230 477.103 226.761 480.107 224 480.107C221.239 480.107 219 477.642 219 474.6C219 471.559 221.239 469.093 224 469.093C226.761 469.093 229 470.558 229 473.599Z" fill="#F9FAFB"/>
</g>
</g>
<path fill-rule="evenodd" clip-rule="evenodd" d="M305.469 656.379C299.588 665.026 311.003 672.347 340.859 692.234C356.288 702.511 376.72 699.232 386.458 684.916C396.195 670.599 391.573 650.632 376.143 640.355C346.287 620.469 311.28 637.751 305.469 656.379Z" fill="#FF9425"/>
<path fill-rule="evenodd" clip-rule="evenodd" d="M324.695 621.409C324.562 621.556 315.403 638.383 315.403 638.383C315.403 638.383 383.862 688.091 386.457 684.915C397.417 671.502 391.631 650.546 376.143 640.354C317.812 601.969 329.385 616.247 324.695 621.409Z" fill="#FF8600"/>
<path d="M380.509 646.34C375.68 651.112 371.149 656.128 368.286 662.259" stroke="#EF6A00" stroke-width="5" stroke-miterlimit="10" stroke-linecap="round" stroke-linejoin="round"/>
<path d="M353.647 629.306C349.011 631.367 346.733 635.502 344.695 640.005" stroke="#EF6A00" stroke-width="5" stroke-miterlimit="10" stroke-linecap="round" stroke-linejoin="round"/>
<path fill-rule="evenodd" clip-rule="evenodd" d="M381.685 681.097C381.685 681.097 393.881 702.414 399.86 708.695C405.812 714.949 418.916 711.952 421.241 708.027C424.431 702.644 422.203 693.871 413.967 690.062C406.208 686.475 381.685 681.097 381.685 681.097Z" fill="#129447"/>
<path fill-rule="evenodd" clip-rule="evenodd" d="M381.826 681.031C381.826 681.031 384.985 691.178 384.184 701.8C383.739 707.71 378.291 713.191 378.587 717.486C378.941 722.632 381.411 727.815 386.274 726.917C391.137 726.021 394.02 720.603 396.387 713.547C400.53 701.199 385.483 684.774 381.826 681.031Z" fill="#00AA63"/>
<path fill-rule="evenodd" clip-rule="evenodd" d="M380.726 681.546C380.726 681.546 378.668 690.026 374.212 699.661C371.054 706.49 364.585 713.391 364.113 713.816C357.66 719.636 361.878 726.518 369.118 725.453C375.423 724.525 380.208 719.645 382.621 714.749C388.848 702.124 385.133 682.831 380.726 681.546Z" fill="#129447"/>
<path fill-rule="evenodd" clip-rule="evenodd" d="M380.728 681.545C380.728 681.545 390.633 679.845 399.674 674.864C404.702 672.093 407.368 664.706 411.268 663.285C415.943 661.581 421.488 661.886 422.629 666.892C423.769 671.898 418.873 678.4 414.865 681.87C405.216 690.229 384.451 684.624 380.728 681.545Z" fill="#00AA63"/>
<path fill-rule="evenodd" clip-rule="evenodd" d="M380.727 681.545C380.727 681.545 390.377 675.148 397.218 667.176C402.762 660.715 404.788 654.565 406.658 652.524C410.099 648.771 415.109 648.698 417.467 653.194C419.825 657.691 416.401 666.327 413.693 669.725C405.349 680.194 386.317 683.249 380.727 681.545Z" fill="#129447"/>
<path d="M344.512 673.385C339.314 676.44 335.678 681.478 333.539 684.855" stroke="#EF6A00" stroke-width="5" stroke-miterlimit="10" stroke-linecap="round" stroke-linejoin="round"/>
<path d="M313.847 648.936C309.847 651.429 306.733 655.746 304.856 658.651" stroke="#EF6A00" stroke-width="5" stroke-miterlimit="10" stroke-linecap="round" stroke-linejoin="round"/>
<path d="M304.739 652.106C305.432 648.52 313.887 652.871 308.012 650.175C311.528 652.381 313.736 651.376 311.456 653.133C304.88 656.576 309.36 662.574 304.725 662.455C302.875 659.302 303.279 659.666 304.739 652.106Z" fill="#FF9425"/>
<path d="M320.396 613.853C328.573 610.907 337.979 616.808 327.414 616.356C328.829 619.144 329.119 622.51 325.718 621.942C317.094 618.508 323.315 625.959 315.781 617.608C315.51 616.787 313.628 618.158 320.396 613.853Z" fill="#FF9221"/>
<path d="M304.688 641.053C306.089 640.982 302.314 640.514 307.6 641.455C311.183 643.703 314.428 642.816 313.247 644.699C312.066 646.582 318.118 654.23 306.552 647.449C301.493 649.025 301.405 652.771 304.688 641.053Z" fill="#C65104"/>
<path d="M302.777 646.981C304.178 646.91 302.725 641.318 306.413 641.186C309.995 643.434 312.629 648.568 311.448 650.451C310.267 652.334 307.856 649.693 304.744 652.491C306.982 669.097 299.604 659.243 302.777 646.981Z" fill="#C65104"/>
<path d="M306.702 634.241C309.828 632.226 309.386 632.211 313.287 632.671C316.629 634.768 319.323 638.139 317.732 640.43C312.922 647.354 311.816 643.181 308.471 642.573C301.777 644.338 305.687 639.569 306.702 634.241Z" fill="#C65104"/>
<path d="M315.669 617.064C318.796 615.049 317.683 614.661 321.585 615.121C324.927 617.218 327.62 620.589 326.029 622.88C321.22 629.804 320.114 625.63 316.769 625.023C310.075 626.788 310.055 626.844 315.669 617.064Z" fill="#C65104"/>
<path d="M311.105 625.127C314.231 623.112 313.788 623.098 317.69 623.557C321.032 625.654 323.725 629.025 322.134 631.316C317.325 638.24 315.014 637.015 311.67 636.408C304.976 638.173 305.544 633.99 311.105 625.127Z" fill="#C65104"/>
<path d="M305.31 662.156C305.457 662.248 305.851 662.28 306.453 662.062C307.858 661.554 307.369 659.536 307.661 658.412C307.952 657.286 308.242 656.166 308.348 654.924C308.398 654.335 308.772 653.667 309.298 653.073C310.164 652.096 311.846 652.223 313.043 651.395C313.597 651.012 314.115 650.597 314.323 650.02C314.693 648.994 313.315 647.921 313.269 646.584C313.23 645.421 314.445 643.634 315.752 642.537C316.948 641.532 317.795 640.932 318.127 640.489C318.928 639.416 318.13 637.77 317.691 636.568C317.474 635.974 317.914 635.133 318.538 634.383C319.691 632.999 321.847 632.488 322.837 631.743C323.325 631.377 322.365 630.52 322.213 629.937C321.91 628.767 322.841 627.449 324.147 625.281C325.068 623.751 326.79 622.966 327.715 622.07C328.513 621.295 327.767 619.765 327.797 618.477C327.812 617.886 328.051 617.328 328.306 616.836C329.401 616.324 330.364 616.274 330.955 616.157C331.228 616.056 331.447 615.87 332.118 615.958" stroke="#C65104" stroke-width="2" stroke-linecap="round"/>
<path d="M316.024 633.312C315.924 630.989 324.192 635.639 318.512 632.632C322.027 634.837 323.765 634.583 322.112 635.339C317.027 636.406 322.135 641.404 318.048 640.409C315.806 637.882 316.232 638.211 316.024 633.312Z" fill="#FF9425"/>
<path d="M306.309 644.947C306.649 644.404 306.922 643.512 307.533 642.189C308.008 641.16 307.853 640.071 308.071 639.028C308.274 638.128 308.339 637.333 308.439 636.828C308.54 636.55 308.743 636.226 308.953 635.892" stroke="#C65104" stroke-width="2" stroke-linecap="round"/>
<path d="M303.841 661.615C303.851 661.385 303.634 660.87 303.362 660.438C303.077 659.984 303.035 659.451 302.929 658.934C302.817 658.39 302.993 657.719 303.092 657.163C303.192 656.608 303.231 656.113 303.294 655.583C303.36 655.033 303.322 654.463 303.27 653.861C303.218 653.258 303.28 652.73 303.197 652.108C303.112 651.479 303.141 650.793 303.112 650.158C303.07 649.274 303.067 648.755 303.284 648.156C303.574 647.354 303.398 646.216 303.454 645.44C303.503 644.757 303.624 643.84 303.701 643.177C303.787 642.428 303.711 641.903 303.927 641.233C304.088 640.732 304.283 640.27 304.579 639.367C304.818 638.637 305.068 638.014 305.317 637.291C305.612 636.435 305.812 635.965 305.97 635.495C306.137 635 306.192 634.496 306.302 633.995C306.405 633.523 306.636 633.068 306.959 632.301C307.824 630.245 308.838 629.054 309.317 628.111C309.555 627.695 309.824 627.337 310.413 626.506C310.885 625.79 311.71 624.476 312.559 623.123" stroke="#FF8600" stroke-width="2" stroke-linecap="round"/>
<path d="M319.813 615.011C319.621 615.174 319.065 615.487 318.528 615.768C318.024 616.031 317.692 616.523 317.307 616.851C316.92 617.179 316.535 617.505 316.166 617.984C315.782 618.483 314.849 619.472 314.146 620.414C313.621 621.214 313.263 621.855 313.015 622.359C312.797 622.741 312.396 623.382 311.982 624.041" stroke="#FF8600" stroke-width="2" stroke-linecap="round"/>
<path d="M400.744 562.773C396.32 559.86 393.477 559.908 391.135 561.011C388.286 562.352 385.328 565.615 381.718 571.066C374.835 581.458 366.327 598.802 352.479 614.906L352.279 615.138L352.04 615.334C339.758 625.367 328.858 634.362 321.67 643.916C314.774 653.082 311.517 662.47 313.811 673.574C322.336 683.868 330.432 689.629 337.899 692.238C345.448 694.875 352.637 694.393 359.472 691.712C373.415 686.243 385.922 671.596 395.553 655.384L395.628 655.26L395.712 655.143C405.959 640.745 410.923 620.639 411.297 602.314C411.485 593.184 410.527 584.648 408.604 577.643C406.689 570.667 403.921 565.589 400.744 562.773Z" fill="#87CFE5" stroke="#0076B8" stroke-width="7"/>
<path d="M345.62 654.894C345.762 654.64 346.008 654.448 346.294 654.357C346.58 654.266 346.882 654.283 347.144 654.407C347.407 654.532 347.611 654.757 347.72 655.037C347.829 655.316 347.835 655.627 347.727 655.898C347.493 656.479 347.264 657.041 347.021 657.618C343.09 668.012 335.228 677.595 325.805 683.945C325.28 684.319 324.781 684.671 324.251 685.036C323.045 683.038 321.84 681.04 320.635 679.042C321.173 678.763 321.682 678.496 322.213 678.21C331.737 673.339 339.473 666.15 344.722 656.479C345.027 655.949 345.321 655.431 345.62 654.894Z" fill="#0074AB"/>
<path d="M364.394 669.63C364.561 669.386 364.829 669.215 365.128 669.146C365.427 669.078 365.733 669.119 365.988 669.266C366.245 669.414 366.433 669.658 366.524 669.95C366.615 670.243 366.601 670.561 366.474 670.828C366.241 671.313 366.02 671.77 365.781 672.252C361.793 680.818 355.524 688.818 348.672 695.371C348.291 695.749 347.926 696.11 347.543 696.486C346.861 697.158 345.958 697.508 345.006 697.427C344.055 697.346 343.133 696.841 342.47 696.054C341.806 695.268 341.464 694.273 341.545 693.323C341.625 692.371 342.123 691.54 342.901 690.982C343.327 690.674 343.734 690.382 344.157 690.074C351.745 684.734 358.265 678.668 363.509 670.907C363.811 670.475 364.096 670.067 364.394 669.63Z" fill="#007BA4"/>
</g>
<defs>
<clipPath id="clip0_157_1021">
<rect width="476" height="786" fill="white"/>
</clipPath>
<clipPath id="clip1_157_1021">
<rect width="476" height="786" fill="white"/>
</clipPath>
<clipPath id="clip2_157_1021">
<rect width="151" height="90.1148" fill="white" transform="translate(94 695.885)"/>
</clipPath>
<clipPath id="clip3_157_1021">
<rect width="151" height="90.1148" fill="white" transform="matrix(-1 0 0 1 396.001 695.885)"/>
</clipPath>
<clipPath id="clip4_157_1021">
<rect width="76" height="149.19" fill="white" transform="translate(0 494.63)"/>
</clipPath>
<clipPath id="clip5_157_1021">
<rect width="196" height="148.189" fill="white" transform="translate(142 396)"/>
</clipPath>
</defs>
</svg>
