<svg width="476" height="792" viewBox="0 0 476 792" fill="none" xmlns="http://www.w3.org/2000/svg">
<path d="M132.06 7.54358C142.35 4.45313 152.338 6.03344 161.847 12.0133C171.519 18.0965 180.826 28.8452 188.945 44.1755C205.166 74.8016 215.884 122.289 215.908 181.597C214.15 206.161 213.395 230.922 212.644 253.833C211.889 276.896 211.139 297.998 209.403 315.449C207.64 333.162 204.935 346.064 200.837 353.367C198.861 356.889 196.932 358.434 195.258 359.025C193.648 359.595 191.152 359.674 187.153 357.839L184.261 356.513L181.55 358.178C177.875 360.435 176.243 360.261 175.751 360.12C175.277 359.984 174.075 359.368 172.524 356.243C171.001 353.176 169.635 348.672 168.317 342.609C167.012 336.612 165.833 329.491 164.542 321.353C159.412 289.01 152.767 242.026 129.608 197.518L129.447 197.207L129.25 196.918L126.964 193.527C79.5807 122.773 70.8169 79.7053 77.8418 53.28C84.8419 26.9483 108.298 14.6794 132.06 7.54358Z" fill="#8BCDE5" stroke="#0E6B96" stroke-width="12"/>
<path d="M302.399 61.946C325.837 36.5676 350.507 28.9349 367.779 35.0122C386.451 41.582 404.988 59.0983 406.137 87.3019C407.302 115.861 390.75 157.161 334.566 210.925L334.455 211.032L334.349 211.143C299.637 247.946 285.3 289.788 275.622 318.822C273.186 326.13 271.092 332.488 269.038 337.854C266.964 343.272 265.094 347.233 263.241 349.881C261.392 352.522 260.103 353.092 259.382 353.216C258.605 353.348 256.795 353.255 253.302 350.879L250.998 349.311L248.321 350.073C243.98 351.307 241.285 350.983 239.584 350.23C237.931 349.498 236.296 347.952 234.88 344.797C231.869 338.091 230.893 326.467 231.785 310.304C233.551 278.314 242.188 233.558 249.318 187.078C258.276 128.692 279.197 87.0698 302.399 61.946Z" fill="#87CFE5" stroke="#0E6B96" stroke-width="12"/>
<path d="M236.571 341.001C338.645 341.001 421.345 423.407 421.345 525.001C421.345 626.595 338.645 709.002 236.571 709.002C134.497 709.002 51.7969 626.595 51.7969 525.001C51.7969 423.407 134.497 341.001 236.571 341.001Z" fill="#86D0E3" stroke="#0C74AB" stroke-width="7"/>
<path d="M363.075 653.001C328.71 692.002 264.96 707.502 240.058 705.002C133.476 711.002 53.2913 616.896 55.7815 523.501C57.3413 465.001 42.8324 603.001 181.289 662.002C255.497 699.502 363.075 653.001 363.075 653.001Z" fill="#37B4CA"/>
<path opacity="0.77" d="M172.822 400.001L181.787 388.501L194.238 377.501L201.21 373.501L207.685 371.501L211.171 375.001L214.159 379.001L216.152 385.001L207.685 387.501L195.234 394.501L186.767 400.001L178.3 408.001L174.316 403.501L172.822 400.001Z" fill="#004F80"/>
<path opacity="0.7" d="M263.465 364.501H271.434L278.905 366.001L286.873 369.001L296.834 373.501L305.301 378.501L303.807 386.001L293.846 383.501L282.391 381.001L273.426 379.501H266.454H258.485V372.501L259.979 367.501L263.465 364.501Z" fill="#014C83"/>
<g clip-path="url(#clip0_152_8)">
<path d="M198.61 706.999C217.027 706.999 226.973 712.775 232.529 720.29C238.285 728.075 240.029 738.635 240.029 749.499C240.029 760.728 239.154 769.379 231.893 775.751C224.303 782.414 208.711 787.499 176.155 787.499C153.805 787.499 137.737 786.43 126.201 784.532C114.591 782.621 108.029 779.938 104.28 777.063C100.796 774.391 99.4492 771.331 98.9198 767.491C98.6405 765.465 98.5963 763.237 98.6381 760.692C98.6774 758.3 98.8067 755.303 98.8067 752.499C98.8067 749.009 101.511 744.247 108.053 738.68C114.37 733.306 123.365 727.957 133.756 723.205C154.589 713.676 180.015 706.999 198.61 706.999Z" fill="#87CFE5" stroke="#0178B2" stroke-width="9"/>
<path d="M235.153 736.95C246.131 779.95 212.743 784.999 174.158 784.999C135.574 784.999 113.777 781.999 108.288 774.999C95.313 768.999 148.822 773.95 176.767 770.95C261.601 770.95 215.577 693.999 235.153 736.95Z" fill="#31A7BA"/>
</g>
<g clip-path="url(#clip1_152_8)">
<path d="M290.431 706.999C272.014 706.999 262.069 712.775 256.513 720.29C250.757 728.075 249.012 738.635 249.012 749.499C249.012 760.728 249.888 769.379 257.148 775.751C264.738 782.414 280.331 787.499 312.887 787.499C335.237 787.499 351.304 786.43 362.84 784.532C374.451 782.621 381.012 779.938 384.761 777.063C388.246 774.391 389.592 771.331 390.122 767.491C390.401 765.465 390.445 763.237 390.403 760.692C390.364 758.3 390.235 755.303 390.235 752.499C390.235 749.009 387.531 744.247 380.988 738.68C374.672 733.306 365.677 727.957 355.286 723.205C334.453 713.676 309.027 706.999 290.431 706.999Z" fill="#87CFE5" stroke="#0178B2" stroke-width="9"/>
<path d="M253.889 736.95C242.91 779.95 276.299 784.999 314.883 784.999C353.467 784.999 375.265 781.999 380.754 774.999C393.728 768.999 340.219 773.95 312.274 770.95C227.441 770.95 273.464 693.999 253.889 736.95Z" fill="#31A7BA"/>
</g>
<g clip-path="url(#clip2_152_8)">
<path d="M143.936 540.979C143.402 540.391 142.656 540.039 141.863 540.002C141.069 539.965 140.294 540.245 139.707 540.78C139.119 541.316 138.769 542.063 138.731 542.858C138.694 543.653 138.973 544.43 139.508 545.018C142.127 547.901 144.914 550.63 147.84 553.196C202.375 598.971 287.286 592.305 340.292 547.892C343.272 545.41 346.111 542.859 348.902 540.155C349.473 539.601 349.8 538.844 349.814 538.048C349.827 537.253 349.523 536.484 348.972 535.913C348.42 535.341 347.663 535.012 346.87 534.999C346.075 534.986 345.309 535.289 344.738 535.842C342.057 538.441 339.328 540.892 336.465 543.277C285.682 586.059 203.219 592.126 151.784 548.681C149.023 546.26 146.398 543.689 143.936 540.979Z" fill="#076FA2"/>
<path d="M209.257 582.961L209.326 582.977L209.395 582.986L220.872 584.486L220.932 584.494L220.991 584.497L230.972 584.997L231.01 584.999H239.031V604.915L238.612 608.478L234.714 611.734L231.129 613.53L225.985 613.999H221.267L216.19 612.611L211.057 609.337L205.881 603.68L202.521 595.504L200.107 587.281V580.877L209.257 582.961Z" fill="#FEFEFE" stroke="#0578A5" stroke-width="3"/>
<path d="M267.855 582.721L267.787 582.737L267.716 582.747L257.332 584.102L257.272 584.11L257.214 584.113L248.183 584.565L248.146 584.567H241.027V602.42L241.4 605.578L244.869 608.472L248.075 610.078L252.694 610.499H256.937L261.494 609.253L266.104 606.317L270.756 601.235L273.782 593.876L275.959 586.465V580.876L267.855 582.721Z" fill="#FEFEFE" stroke="#0875A4" stroke-width="3"/>
</g>
<g clip-path="url(#clip3_152_8)">
<path d="M193.122 438C218.053 438 239.032 462.198 239.032 492C239.032 508.815 235.595 522.285 228.324 531.501C221.156 540.588 209.891 546 193.122 546C168.285 546 148.709 522.395 148.709 492C148.709 461.605 168.285 438 193.122 438Z" fill="#FEFEFE" stroke="#0F79AB" stroke-width="6"/>
<path d="M287.612 411C301.26 411 313.875 418.602 323.188 431.245C332.497 443.883 338.337 461.372 338.337 480.5C338.337 502.046 334.531 519.464 326.387 531.417C318.378 543.174 305.93 550 287.612 550C273.969 550 261.781 542.555 252.891 530.026C243.99 517.484 238.533 499.989 238.533 480.5C238.533 461.011 243.99 443.516 252.891 430.974C261.781 418.445 273.969 411 287.612 411Z" fill="#FEFEFE" stroke="#0F79AB" stroke-width="6"/>
<path d="M240.529 556C251.553 556 260.49 546.374 260.49 534.5C260.49 522.626 251.553 513 240.529 513C229.505 513 220.568 522.626 220.568 534.5C220.568 546.374 229.505 556 240.529 556Z" fill="#ED6F7A"/>
<path d="M272.965 496C272.965 507.046 266.985 516 258.993 516C251 516 244.521 507.046 244.521 496C244.521 484.954 251 476 258.993 476C267.975 478.5 272.965 484.5 272.965 496Z" fill="#2B2A28"/>
<path d="M221.067 516C229.059 516 235.538 507.046 235.538 496C235.538 484.954 229.059 476 221.067 476C213.074 476 206.595 484.954 206.595 496C206.595 507.046 213.074 516 221.067 516Z" fill="#2B2A28"/>
<path d="M270.47 485.5C271.468 489 268.236 492 265.48 492C262.724 492 260.49 489.538 260.49 486.5C260.49 483.462 262.724 481 265.48 481C268.236 481 270.47 482.462 270.47 485.5Z" fill="#F9FAFB"/>
<path d="M232.544 485.5C233.542 489 230.31 492 227.554 492C224.798 492 222.564 489.538 222.564 486.5C222.564 483.462 224.798 481 227.554 481C230.31 481 232.544 482.462 232.544 485.5Z" fill="#F9FAFB"/>
</g>
<g clip-path="url(#clip4_152_8)">
<path d="M61.9642 504.503C67.208 505.179 69.3285 507.071 70.3832 509.433C71.6666 512.308 71.7814 516.71 70.9661 523.198C69.4118 535.564 64.5636 554.262 64.5636 575.5V575.808L64.6171 576.112C67.3823 591.727 69.777 605.653 68.9993 617.584C68.2529 629.031 64.6084 638.272 55.6474 645.195C42.4975 647.442 32.622 646.532 25.2734 643.641C17.8445 640.718 12.7191 635.665 9.29117 629.176C2.29917 615.938 2.36585 596.678 5.62746 578.107L5.6528 577.964L5.66547 577.821C7.27984 560.223 16.6067 541.742 28.2481 527.603C34.048 520.559 40.3271 514.711 46.3405 510.654C52.3299 506.612 57.7281 504.567 61.9642 504.503Z" fill="#87CFE5" stroke="#0076B8" stroke-width="7"/>
<path d="M43.7319 610.292C43.7899 610.007 43.7286 609.702 43.572 609.446C43.4148 609.191 43.175 609.006 42.895 608.93C42.6151 608.853 42.3149 608.891 42.0501 609.032C41.7859 609.173 41.5788 609.405 41.4847 609.68C41.2836 610.273 41.0914 610.849 40.8993 611.444C37.1107 621.888 36.8239 634.281 39.8228 645.239C39.976 645.864 40.1246 646.457 40.288 647.08C42.5002 646.351 44.7125 645.622 46.9246 644.893C46.6991 644.33 46.4878 643.796 46.2724 643.233C42.2353 633.33 41.0592 622.835 43.3812 612.08C43.4943 611.479 43.6084 610.895 43.7319 610.292Z" fill="#0074AB"/>
<path d="M19.9362 609.224C19.9685 608.93 19.8775 608.625 19.696 608.378C19.5137 608.132 19.256 607.963 18.9665 607.908C18.677 607.853 18.3756 607.915 18.1158 608.078C17.8567 608.241 17.6604 608.491 17.5829 608.776C17.444 609.295 17.3133 609.786 17.1802 610.307C14.6241 619.403 14.162 629.556 15.0832 638.991C15.126 639.527 15.1669 640.038 15.2125 640.573C15.2909 641.528 15.7459 642.382 16.5197 642.941C17.291 643.5 18.3178 643.718 19.3319 643.554C20.346 643.39 21.2521 642.859 21.8088 642.086C22.3679 641.311 22.5318 640.357 22.3067 639.427C22.184 638.916 22.0663 638.429 21.9468 637.92C19.6797 628.923 18.6929 620.072 19.7744 610.769C19.8269 610.245 19.8774 609.749 19.9362 609.224Z" fill="#007BA4"/>
</g>
<g clip-path="url(#clip5_152_8)">
<path fill-rule="evenodd" clip-rule="evenodd" d="M258.28 634.153C258.885 623.674 348.569 607.838 386.487 610.033C406.083 611.167 421.182 626.173 420.181 643.522C419.181 660.872 402.46 674.036 382.863 672.902C344.945 670.708 257.677 644.631 258.28 634.153Z" fill="#FF9425"/>
<path fill-rule="evenodd" clip-rule="evenodd" d="M258.294 634.552C258.277 634.353 258.276 634.13 258.276 634.13C258.276 634.13 420.037 639.41 420.181 643.521C420.791 660.89 402.453 674.139 382.862 672.902C309.081 668.24 258.925 641.522 258.294 634.552Z" fill="#FF8600"/>
<path d="M390.384 670.763C389.385 664.02 388.792 657.263 390.322 650.626" stroke="#EF6A00" stroke-width="5" stroke-miterlimit="10" stroke-linecap="round" stroke-linejoin="round"/>
<path d="M356.82 668.102C354.242 663.643 354.98 658.957 356.158 654.119" stroke="#EF6A00" stroke-width="5" stroke-miterlimit="10" stroke-linecap="round" stroke-linejoin="round"/>
<path d="M315.624 659.891C315.572 653.55 316.23 648.346 317.303 643.803" stroke="#EF6A00" stroke-width="5" stroke-miterlimit="10" stroke-linecap="round" stroke-linejoin="round"/>
<path fill-rule="evenodd" clip-rule="evenodd" d="M413.708 643.682C413.708 643.682 437.676 634.029 446.746 632.63C455.777 631.237 464.884 641.576 464.321 646.124C463.548 652.363 456.035 658.026 446.652 656.08C437.814 654.247 413.708 643.682 413.708 643.682Z" fill="#129447"/>
<path fill-rule="evenodd" clip-rule="evenodd" d="M413.785 643.821C413.785 643.821 422.964 637.622 429.116 628.643C432.538 623.648 431.473 615.963 434.481 612.708C438.087 608.808 443.497 606.16 447.015 609.826C450.533 613.49 449.48 619.569 446.94 626.646C442.493 639.03 419.27 643.045 413.785 643.821Z" fill="#00AA63"/>
<path fill-rule="evenodd" clip-rule="evenodd" d="M413.189 642.744C413.189 642.744 416.905 634.715 419.345 624.31C421.073 616.935 420.06 607.496 419.935 606.87C418.241 598.305 426.216 595.358 431.628 600.598C436.34 605.163 437.233 611.964 436.12 617.342C433.25 631.211 417.725 644.387 413.189 642.744Z" fill="#129447"/>
<path fill-rule="evenodd" clip-rule="evenodd" d="M413.189 642.744C413.189 642.744 420.439 650.107 424.85 659.57C427.304 664.833 424.803 672.355 427.174 675.856C430.015 680.052 434.88 683.169 439.057 679.857C443.234 676.545 443.289 668.378 442.144 663.175C439.39 650.642 418.304 642.539 413.189 642.744Z" fill="#00AA63"/>
<path fill-rule="evenodd" clip-rule="evenodd" d="M413.191 642.744C413.191 642.744 417.206 653.708 417.843 664.229C418.36 672.755 416.114 678.901 416.378 681.667C416.863 686.753 421.036 689.848 425.91 687.682C430.786 685.516 433.451 676.535 433.354 672.176C433.055 658.747 418.991 644.77 413.191 642.744Z" fill="#129447"/>
<path d="M377.451 627.317C375.037 621.724 375.213 615.492 375.581 611.496" stroke="#EF6A00" stroke-width="5" stroke-miterlimit="10" stroke-linecap="round" stroke-linejoin="round"/>
<path d="M335.92 628.282C334.17 624.028 334.144 618.958 334.299 615.677" stroke="#EF6A00" stroke-width="5" stroke-miterlimit="10" stroke-linecap="round" stroke-linejoin="round"/>
<path d="M295.082 629.518C294.263 627.087 294.439 623.952 294.649 621.904" stroke="#EF6A00" stroke-width="5" stroke-miterlimit="10" stroke-linecap="round" stroke-linejoin="round"/>
<path d="M362.503 530.93C357.234 530.489 354.765 531.893 353.24 533.981C351.383 536.522 350.35 540.803 349.789 547.317C348.721 559.735 349.549 579.036 345.104 599.803L345.04 600.103L344.924 600.39C338.953 615.077 333.697 628.191 331.96 640.02C330.295 651.368 331.925 661.17 339.237 669.822C351.625 674.781 361.472 675.966 369.262 674.683C377.137 673.386 383.207 669.523 387.916 663.898C397.523 652.423 401.488 633.577 402.185 614.734L402.191 614.588L402.208 614.445C404.312 596.9 399.06 576.87 390.636 560.6C386.44 552.493 381.523 545.456 376.493 540.225C371.483 535.016 366.632 531.882 362.503 530.93Z" fill="#87CFE5" stroke="#0076B8" stroke-width="7"/>
</g>
<defs>
<clipPath id="clip0_152_8">
<rect width="150.704" height="90" fill="white" transform="translate(93.8159 701.999)"/>
</clipPath>
<clipPath id="clip1_152_8">
<rect width="150.704" height="90" fill="white" transform="matrix(-1 0 0 1 395.226 701.999)"/>
</clipPath>
<clipPath id="clip2_152_8">
<rect width="211.585" height="81" fill="white" transform="translate(138.728 534.999)"/>
</clipPath>
<clipPath id="clip3_152_8">
<rect width="195.616" height="148" fill="white" transform="translate(145.715 408)"/>
</clipPath>
<clipPath id="clip4_152_8">
<rect width="75.8512" height="149" fill="white" transform="translate(0 501)"/>
</clipPath>
<clipPath id="clip5_152_8">
<rect width="155.997" height="208.594" fill="white" transform="matrix(0.0952496 -0.995453 0.995418 0.0956203 253.502 673.288)"/>
</clipPath>
</defs>
</svg>
