<svg width="476" height="786" viewBox="0 0 476 786" fill="none" xmlns="http://www.w3.org/2000/svg">
<g clip-path="url(#clip0_157_636)">
<path d="M86.9297 16.714C96.5345 11.8056 106.682 11.5521 117.15 15.7185C127.798 19.957 138.925 28.8566 149.706 42.4838C171.246 69.7071 190.39 114.534 201.105 172.94C203.797 197.451 207.515 221.974 210.903 244.675C214.315 267.526 217.378 288.445 218.81 305.946C220.262 323.711 219.917 336.908 217.187 344.843C215.87 348.67 214.243 350.541 212.698 351.426C211.21 352.279 208.76 352.809 204.48 351.727L201.386 350.945L199.008 353.076C195.786 355.965 194.143 356.089 193.632 356.039C193.139 355.991 191.842 355.602 189.746 352.806C187.689 350.061 185.529 345.873 183.134 340.14C180.765 334.471 178.317 327.671 175.575 319.89C164.678 288.966 149.647 243.897 118.755 204.258L118.539 203.981L118.293 203.732L115.425 200.807C55.8798 139.709 39.4621 98.8815 41.6354 71.5831C43.8011 44.3812 64.7521 28.0476 86.9297 16.714Z" fill="#8BCDE5" stroke="#0E6B96" stroke-width="12"/>
<path d="M307.345 63.0001C329.956 36.7664 354.435 28.2455 371.981 33.7082C390.948 39.6138 410.17 56.4775 412.328 84.658C414.514 113.194 399.378 155.113 344.924 210.922L344.816 211.034L344.714 211.149C311.199 249.217 298.305 291.6 289.629 320.998C287.446 328.398 285.571 334.835 283.702 340.279C281.814 345.774 280.078 349.805 278.313 352.52C276.553 355.23 275.28 355.846 274.561 355.996C273.785 356.157 271.966 356.128 268.378 353.876L266.01 352.389L263.352 353.247C259.04 354.637 256.325 354.41 254.592 353.718C252.907 353.044 251.211 351.556 249.678 348.449C246.419 341.847 245.025 330.25 245.345 314.045C245.977 281.971 253.048 236.878 258.547 190.113C265.454 131.368 284.962 88.9707 307.345 63.0001Z" fill="#87CFE5" stroke="#0E6B96" stroke-width="12"/>
<path d="M237.5 334.426C339.975 334.426 423 416.937 423 518.661C423 620.384 339.975 702.896 237.5 702.896C135.025 702.896 52.0005 620.384 52.0005 518.661C52.0005 416.937 135.025 334.426 237.5 334.426Z" fill="#86D0E3" stroke="#0C74AB" stroke-width="7"/>
<path d="M364.501 646.824C330.001 685.874 266.001 701.394 241.001 698.89C134.001 704.898 53.5005 610.673 56.0005 517.159C57.5664 458.584 43.0005 596.76 182.001 655.836C256.501 693.383 364.501 646.824 364.501 646.824Z" fill="#37B4CA"/>
<path opacity="0.77" d="M173.5 393.501L182.5 381.987L195 370.973L202 366.968L208.5 364.965L212 368.47L215 372.475L217 378.482L208.5 380.986L196 387.994L187.5 393.501L179 401.512L175 397.006L173.5 393.501Z" fill="#004F80"/>
<path opacity="0.7" d="M264.5 357.956H272.5L280 359.458L288 362.462L298 366.968L306.5 371.974L305 379.483L295 376.98L283.5 374.477L274.5 372.975H267.5H259.5V365.966L261 360.96L264.5 357.956Z" fill="#014C83"/>
<g clip-path="url(#clip1_157_636)">
<path d="M199 700.891C217.453 700.891 227.418 706.676 232.985 714.199C238.752 721.994 240.5 732.568 240.5 743.446C240.5 754.689 239.623 763.351 232.348 769.732C224.743 776.403 209.12 781.494 176.5 781.494C154.106 781.494 138.008 780.424 126.449 778.523C114.815 776.61 108.241 773.924 104.485 771.045C100.993 768.37 99.6442 765.306 99.1137 761.461C98.8339 759.432 98.7896 757.202 98.8315 754.653C98.8709 752.258 99.0004 749.258 99.0004 746.449C99.0004 742.955 101.71 738.187 108.265 732.613C114.594 727.232 123.607 721.877 134.018 717.118C154.892 707.577 180.368 700.891 199 700.891Z" fill="#87CFE5" stroke="#0178B2" stroke-width="9"/>
<path d="M235.614 730.881C246.614 773.936 213.16 778.991 174.5 778.991C135.84 778.991 114 775.987 108.5 768.978C95.5 762.97 149.114 767.928 177.114 764.925C262.114 764.925 216 687.875 235.614 730.881Z" fill="#31A7BA"/>
</g>
<g clip-path="url(#clip2_157_636)">
<path d="M291.001 700.891C272.548 700.891 262.583 706.676 257.016 714.199C251.249 721.994 249.501 732.568 249.501 743.446C249.501 754.689 250.378 763.351 257.653 769.732C265.258 776.403 280.881 781.494 313.501 781.494C335.895 781.494 351.993 780.424 363.552 778.523C375.186 776.61 381.76 773.924 385.516 771.045C389.008 768.37 390.357 765.306 390.887 761.461C391.167 759.432 391.211 757.202 391.169 754.653C391.13 752.258 391.001 749.258 391.001 746.449C391.001 742.955 388.291 738.187 381.736 732.613C375.407 727.232 366.394 721.877 355.983 717.118C335.109 707.577 309.633 700.891 291.001 700.891Z" fill="#87CFE5" stroke="#0178B2" stroke-width="9"/>
<path d="M254.387 730.881C243.387 773.936 276.841 778.991 315.501 778.991C354.161 778.991 376.001 775.987 381.501 768.978C394.501 762.97 340.887 767.928 312.887 764.925C227.887 764.925 274.001 687.875 254.387 730.881Z" fill="#31A7BA"/>
</g>
<g clip-path="url(#clip3_157_636)">
<path d="M193.5 431.55C218.481 431.55 239.5 455.778 239.5 485.618C239.5 502.455 236.057 515.942 228.772 525.17C221.589 534.268 210.302 539.687 193.5 539.687C168.615 539.687 149 516.052 149 485.618C149 455.184 168.615 431.55 193.5 431.55Z" fill="#FEFEFE" stroke="#0F79AB" stroke-width="6"/>
<path d="M288.176 404.515C301.85 404.515 314.49 412.127 323.821 424.786C333.149 437.44 339 454.951 339 474.104C339 495.678 335.187 513.118 327.027 525.086C319.002 536.858 306.53 543.692 288.176 543.692C274.506 543.692 262.294 536.238 253.386 523.693C244.469 511.135 239 493.617 239 474.104C239 454.59 244.469 437.073 253.386 424.514C262.294 411.97 274.506 404.515 288.176 404.515Z" fill="#FEFEFE" stroke="#0F79AB" stroke-width="6"/>
<path d="M241 549.7C252.046 549.7 261 540.062 261 528.173C261 516.283 252.046 506.645 241 506.645C229.955 506.645 221 516.283 221 528.173C221 540.062 229.955 549.7 241 549.7Z" fill="#ED6F7A"/>
<path d="M273.5 489.623C273.5 500.683 267.508 509.649 259.5 509.649C251.492 509.649 245 500.683 245 489.623C245 478.564 251.492 469.598 259.5 469.598C268.5 472.101 273.5 478.109 273.5 489.623Z" fill="#2B2A28"/>
<path d="M221.5 509.649C229.509 509.649 236 500.683 236 489.623C236 478.564 229.509 469.598 221.5 469.598C213.492 469.598 207 478.564 207 489.623C207 500.683 213.492 509.649 221.5 509.649Z" fill="#2B2A28"/>
<path d="M271 479.11C272 482.614 268.761 485.618 266 485.618C263.239 485.618 261 483.153 261 480.111C261 477.07 263.239 474.604 266 474.604C268.761 474.604 271 476.069 271 479.11Z" fill="#F9FAFB"/>
<path d="M233 479.11C234 482.614 230.762 485.618 228 485.618C225.239 485.618 223 483.153 223 480.111C223 477.07 225.239 474.604 228 474.604C230.762 474.604 233 476.069 233 479.11Z" fill="#F9FAFB"/>
</g>
<g clip-path="url(#clip4_157_636)">
<path d="M62.086 498.137C67.3401 498.815 69.4648 500.708 70.5216 503.073C71.8075 505.952 71.9225 510.36 71.1056 516.856C69.5483 529.238 64.6905 547.959 64.6905 569.225V569.533L64.7442 569.837C67.5148 585.473 69.9142 599.417 69.1349 611.363C68.3871 622.824 64.7354 632.077 55.7569 639.009C42.5812 641.259 32.6863 640.348 25.3233 637.453C17.8798 634.526 12.7443 629.467 9.30963 622.97C2.30391 609.715 2.37071 590.43 5.63872 571.835L5.66411 571.692L5.67681 571.548C7.29434 553.928 16.6396 535.424 28.3038 521.266C34.1151 514.213 40.4065 508.358 46.4317 504.296C52.4328 500.249 57.8416 498.201 62.086 498.137Z" fill="#87CFE5" stroke="#0076B8" stroke-width="7"/>
<path d="M43.8178 604.062C43.8759 603.776 43.8145 603.471 43.6576 603.215C43.5001 602.959 43.2598 602.774 42.9793 602.698C42.6988 602.621 42.398 602.659 42.1327 602.8C41.868 602.941 41.6605 603.173 41.5662 603.449C41.3647 604.043 41.1721 604.619 40.9797 605.215C37.1836 615.672 36.8963 628.081 39.901 639.053C40.0545 639.679 40.2034 640.273 40.3672 640.897C42.5837 640.167 44.8003 639.437 47.0168 638.707C46.7908 638.143 46.5791 637.608 46.3633 637.045C42.3183 627.129 41.1399 616.621 43.4664 605.852C43.5798 605.25 43.6941 604.665 43.8178 604.062Z" fill="#0074AB"/>
<path d="M19.9754 602.992C20.0078 602.698 19.9166 602.392 19.7347 602.145C19.5521 601.899 19.2939 601.729 19.0038 601.674C18.7137 601.619 18.4117 601.681 18.1514 601.845C17.8918 602.008 17.6951 602.258 17.6175 602.544C17.4783 603.063 17.3473 603.555 17.214 604.076C14.6529 613.184 14.1899 623.35 15.1129 632.797C15.1558 633.334 15.1967 633.845 15.2424 634.381C15.321 635.337 15.7769 636.192 16.5522 636.752C17.325 637.312 18.3538 637.53 19.3699 637.366C20.386 637.202 21.2939 636.67 21.8517 635.896C22.4119 635.12 22.5761 634.165 22.3505 633.234C22.2276 632.722 22.1097 632.234 21.9899 631.725C19.7184 622.716 18.7297 613.854 19.8133 604.539C19.8659 604.014 19.9165 603.518 19.9754 602.992Z" fill="#007BA4"/>
</g>
<path d="M344.279 603C297.279 611.5 285.779 575.5 302.279 552" stroke="#076FA2" stroke-width="6" stroke-linecap="round"/>
<path d="M193.319 565.107C193.081 564.703 192.749 564.461 192.396 564.436C192.043 564.41 191.697 564.602 191.436 564.97C191.174 565.338 191.018 565.851 191.001 566.397C190.985 566.943 191.109 567.476 191.347 567.88C192.513 569.86 193.755 571.734 195.058 573.496C219.343 604.928 257.155 600.351 280.759 569.853C282.086 568.149 283.351 566.397 284.594 564.541C284.848 564.161 284.994 563.64 285 563.094C285.006 562.548 284.87 562.02 284.625 561.628C284.379 561.235 284.042 561.009 283.689 561C283.335 560.991 282.994 561.2 282.739 561.579C281.546 563.364 280.33 565.047 279.055 566.684C256.441 596.062 219.719 600.228 196.814 570.395C195.584 568.733 194.416 566.968 193.319 565.107Z" fill="#076FA2"/>
<path d="M217.334 591.963L217.375 591.979L217.417 591.987L224.306 593.487L224.341 593.495L224.377 593.498L230.368 593.998L230.391 594H235.205V613.916L234.954 617.48L232.614 620.735L230.462 622.531L227.375 623H224.543L221.495 621.612L218.414 618.339L215.308 612.682L213.291 604.506L211.842 596.282V589.879L217.334 591.963Z" fill="#FEFEFE" stroke="#0578A5" stroke-width="3"/>
<path d="M252.506 591.723L252.465 591.738L252.423 591.748L246.19 593.104L246.154 593.111L246.119 593.114L240.699 593.566L240.676 593.568H236.403V611.422L236.627 614.579L238.709 617.474L240.633 619.079L243.406 619.5H245.953L248.688 618.255L251.455 615.318L254.247 610.236L256.064 602.878L257.37 595.467V589.878L252.506 591.723Z" fill="#FEFEFE" stroke="#0875A4" stroke-width="3"/>
<path d="M126 601C173 609.5 184.5 573.5 168 550" stroke="#076FA2" stroke-width="6" stroke-linecap="round"/>
<path fill-rule="evenodd" clip-rule="evenodd" d="M258.183 628.336C261.014 618.229 352.182 621.962 388.828 632.225C407.767 637.529 419.338 655.421 414.652 672.155C409.965 688.89 390.785 698.17 371.845 692.866C335.2 682.603 255.353 638.443 258.183 628.336Z" fill="#FF9425"/>
<path fill-rule="evenodd" clip-rule="evenodd" d="M258.111 628.729C258.137 628.531 258.184 628.313 258.184 628.313C258.184 628.313 415.388 668.107 414.651 672.155C411.536 689.252 390.756 698.269 371.844 692.866C300.622 672.514 257.239 635.673 258.111 628.729Z" fill="#FF8600"/>
<path d="M379.664 692.387C380.127 685.586 380.991 678.858 383.906 672.702" stroke="#EF6A00" stroke-width="5" stroke-miterlimit="10" stroke-linecap="round" stroke-linejoin="round"/>
<path d="M347.38 682.601C345.809 677.693 347.532 673.273 349.721 668.8" stroke="#EF6A00" stroke-width="5" stroke-miterlimit="10" stroke-linecap="round" stroke-linejoin="round"/>
<path d="M308.811 665.759C310.115 659.553 311.871 654.61 313.892 650.402" stroke="#EF6A00" stroke-width="5" stroke-miterlimit="10" stroke-linecap="round" stroke-linejoin="round"/>
<path fill-rule="evenodd" clip-rule="evenodd" d="M408.281 670.926C408.281 670.926 433.804 666.627 442.981 667.203C452.118 667.776 458.823 679.826 457.3 684.148C455.21 690.077 446.646 694.001 437.878 690.09C429.618 686.408 408.281 670.926 408.281 670.926Z" fill="#129447"/>
<path fill-rule="evenodd" clip-rule="evenodd" d="M408.327 671.078C408.327 671.078 418.635 666.988 426.576 659.533C430.994 655.386 431.593 647.651 435.233 645.115C439.597 642.078 445.457 640.649 448.118 644.983C450.779 649.316 448.448 655.03 444.449 661.399C437.45 672.545 413.861 671.494 408.327 671.078Z" fill="#00AA63"/>
<path fill-rule="evenodd" clip-rule="evenodd" d="M407.974 669.898C407.974 669.898 413.328 662.851 417.938 653.208C421.206 646.374 422.231 636.936 422.244 636.299C422.415 627.568 430.851 626.397 435.028 632.674C438.666 638.142 438.086 644.978 435.847 649.993C430.074 662.927 412.063 672.474 407.974 669.898Z" fill="#129447"/>
<path fill-rule="evenodd" clip-rule="evenodd" d="M407.975 669.898C407.975 669.898 413.496 678.643 415.792 688.832C417.069 694.499 413.013 701.312 414.586 705.239C416.47 709.947 420.566 714.034 425.362 711.693C430.159 709.351 431.957 701.385 431.949 696.057C431.932 683.224 413.024 670.793 407.975 669.898Z" fill="#00AA63"/>
<path fill-rule="evenodd" clip-rule="evenodd" d="M407.975 669.899C407.975 669.899 409.562 681.469 407.938 691.884C406.622 700.324 403.11 705.847 402.777 708.605C402.165 713.677 405.588 717.595 410.822 716.522C416.057 715.45 420.585 707.248 421.422 702.969C423.999 689.786 413.221 673.12 407.975 669.899Z" fill="#129447"/>
<path d="M376.29 647.176C375.122 641.194 376.626 635.144 377.84 631.319" stroke="#EF6A00" stroke-width="5" stroke-miterlimit="10" stroke-linecap="round" stroke-linejoin="round"/>
<path d="M335.432 639.227C334.628 634.695 335.686 629.737 336.539 626.565" stroke="#EF6A00" stroke-width="5" stroke-miterlimit="10" stroke-linecap="round" stroke-linejoin="round"/>
<path d="M295.195 631.689C294.913 629.138 295.755 626.114 296.398 624.158" stroke="#EF6A00" stroke-width="5" stroke-miterlimit="10" stroke-linecap="round" stroke-linejoin="round"/>
<path d="M340.637 628.125C340.072 628.061 341.041 630.486 339.827 630.971C338.432 631.527 336.524 631.928 336.578 633.117C336.603 633.709 337.552 636.657 337.077 637.986C336.566 639.417 337.057 639.768 336.529 639.909C335.494 640.186 336.539 645.297 333.787 645.887C332.609 646.14 329.958 644.709 329.559 645.083C328.733 645.861 326.41 644.874 325.076 643.862C324.014 643.057 324.019 641.561 323.408 640.457C323.086 639.875 322.935 639.199 322.658 638.632C322.525 638.36 322.241 638.219 321.989 638.243C320.38 638.39 320.013 641.58 319.025 642.473C318.572 642.881 318.218 643.416 317.685 643.752C316.687 644.38 315.281 644.141 314.054 644.33C312.785 644.526 311.618 644.662 310.211 644.458C309.419 644.343 308.099 644.345 306.692 643.8C305.277 643.251 304.724 641.659 304.113 640.554C303.5 639.448 303.667 638.695 303.127 638.539C301.784 638.154 300.684 640.177 299.474 641.006C298.21 641.871 296.962 642.632 295.644 643.139C294.424 643.608 292.607 643.542 288.354 643.746C285.923 643.862 283.137 643.875 281.448 643.785C279.967 643.705 278.217 642.965 277.162 642.03C276.005 641.006 274.845 640.054 274.017 638.841C273.258 637.73 271.761 636.832 271.303 635.676C270.843 634.513 269.807 633.738 269.148 632.62C268.465 631.461 268.294 629.792 267.924 628.514C267.736 627.286 267.514 626.344 267.546 625.721C267.59 625.391 267.692 625.033 267.797 624.664" stroke="#C65104" stroke-width="2" stroke-linecap="round"/>
<path d="M267.266 623.899C268.046 630.205 271.74 638.456 277.709 642.912C285.15 645.032 296.117 643.397 299.544 640.835C305.437 636.43 297.042 635.145 301.823 623.786C295.958 622.669 277.049 623.92 267.266 623.899Z" fill="#934511"/>
<path d="M293.661 626.14C292.842 632.666 304.072 640.916 307.956 644.198C312.911 645.609 319.548 642.793 321.007 639.648C325.052 630.922 325.626 627.518 322.093 624.881C317.218 625.571 290.565 620.581 293.661 626.14Z" fill="#934511"/>
<path d="M314.316 627.345C313.498 633.869 324.727 642.12 328.612 645.402C333.566 646.813 340.204 643.997 341.662 640.851C345.707 632.126 346.282 628.722 342.749 626.085C337.873 626.775 311.221 621.784 314.316 627.345Z" fill="#934511"/>
<path d="M351.102 662.897C351.167 662.613 351.349 662.361 351.598 662.193C351.847 662.026 352.142 661.957 352.429 662.003C352.715 662.05 352.974 662.209 353.157 662.446C353.34 662.684 353.433 662.981 353.405 663.271C353.343 663.894 353.28 664.498 353.209 665.12C352.343 676.199 347.477 687.599 340.208 696.332C339.809 696.838 339.428 697.316 339.021 697.815C337.304 696.234 335.589 694.653 333.872 693.072C334.311 692.653 334.724 692.255 335.154 691.831C342.934 684.49 348.349 675.423 350.682 664.67C350.827 664.076 350.965 663.497 351.102 662.897Z" fill="#0074AB"/>
<path d="M373.249 671.79C373.341 671.509 373.551 671.27 373.818 671.12C374.087 670.971 374.391 670.925 374.678 670.995C374.965 671.065 375.215 671.246 375.383 671.502C375.553 671.758 375.628 672.067 375.581 672.358C375.493 672.889 375.409 673.389 375.314 673.919C373.883 683.259 370.103 692.694 365.358 700.902C365.098 701.372 364.849 701.821 364.586 702.289C364.12 703.125 363.351 703.714 362.414 703.902C361.479 704.091 360.452 703.864 359.595 703.294C358.738 702.725 358.131 701.866 357.943 700.93C357.754 699.994 357.999 699.057 358.59 698.304C358.913 697.889 359.222 697.495 359.542 697.081C365.332 689.831 369.894 682.182 372.757 673.264C372.926 672.765 373.085 672.293 373.249 671.79Z" fill="#007BA4"/>
<path d="M379.502 558.384C374.439 556.826 371.722 557.668 369.783 559.382C367.423 561.466 365.496 565.427 363.556 571.671C359.856 583.573 356.542 602.605 347.753 621.941L347.626 622.22L347.452 622.475C338.468 635.544 330.521 647.23 326.294 658.413C322.238 669.143 321.739 679.067 327.048 689.086C338.113 696.583 347.498 699.849 355.397 700.263C363.383 700.682 370.149 698.208 375.961 693.721C387.817 684.569 395.725 667.007 400.434 648.748L400.471 648.608L400.519 648.472C406.328 631.782 405.467 611.09 400.698 593.392C398.323 584.575 395.015 576.648 391.209 570.46C387.418 564.299 383.34 560.199 379.502 558.384Z" fill="#87CFE5" stroke="#0076B8" stroke-width="7"/>
<path d="M352.36 662.251C352.425 661.967 352.607 661.714 352.856 661.547C353.105 661.379 353.4 661.311 353.687 661.357C353.973 661.404 354.232 661.562 354.415 661.8C354.598 662.038 354.691 662.335 354.663 662.625C354.601 663.248 354.538 663.852 354.467 664.474C353.601 675.553 348.735 686.953 341.465 695.686C341.067 696.192 340.686 696.67 340.279 697.169C338.562 695.588 336.847 694.007 335.13 692.426C335.569 692.007 335.982 691.609 336.412 691.185C344.192 683.844 349.607 674.777 351.94 664.024C352.085 663.43 352.223 662.851 352.36 662.251Z" fill="#0074AB"/>
<path d="M374.507 671.144C374.599 670.863 374.809 670.624 375.076 670.474C375.345 670.325 375.649 670.279 375.936 670.349C376.223 670.419 376.473 670.6 376.642 670.856C376.811 671.112 376.886 671.421 376.839 671.712C376.751 672.243 376.667 672.743 376.572 673.273C375.141 682.613 371.361 692.048 366.617 700.256C366.356 700.726 366.107 701.175 365.844 701.643C365.378 702.479 364.609 703.068 363.672 703.256C362.737 703.445 361.71 703.218 360.853 702.648C359.996 702.079 359.389 701.22 359.201 700.284C359.012 699.348 359.257 698.411 359.848 697.658C360.171 697.243 360.48 696.849 360.8 696.435C366.59 689.185 371.152 681.536 374.015 672.618C374.184 672.119 374.343 671.647 374.507 671.144Z" fill="#007BA4"/>
</g>
<defs>
<clipPath id="clip0_157_636">
<rect width="476" height="786" fill="white"/>
</clipPath>
<clipPath id="clip1_157_636">
<rect width="151" height="90.1148" fill="white" transform="translate(94 695.885)"/>
</clipPath>
<clipPath id="clip2_157_636">
<rect width="151" height="90.1148" fill="white" transform="matrix(-1 0 0 1 396.001 695.885)"/>
</clipPath>
<clipPath id="clip3_157_636">
<rect width="196" height="148.189" fill="white" transform="translate(146 401.511)"/>
</clipPath>
<clipPath id="clip4_157_636">
<rect width="76" height="149.19" fill="white" transform="translate(0 494.63)"/>
</clipPath>
</defs>
</svg>
