<svg width="499" height="786" viewBox="0 0 499 786" fill="none" xmlns="http://www.w3.org/2000/svg">
<g clip-path="url(#clip0_196_2)">
<g clip-path="url(#clip1_196_2)">
<path d="M67.7156 544.934C72.9697 545.61 75.0944 547.502 76.1512 549.864C77.4371 552.739 77.5521 557.142 76.7352 563.629C75.1779 575.995 70.3201 594.693 70.3201 615.931V616.239L70.3738 616.543C73.1444 632.158 75.5438 646.084 74.7645 658.015C74.0167 669.462 70.365 678.703 61.3865 685.626C48.2108 687.873 38.3159 686.963 30.9529 684.072C23.5094 681.149 18.3739 676.096 14.9393 669.607C7.93354 656.369 8.00035 637.109 11.2684 618.538L11.2938 618.395L11.3065 618.252C12.924 600.654 22.2692 582.173 33.9334 568.034C39.7447 560.99 46.0361 555.142 52.0613 551.085C58.0624 547.044 63.4712 544.998 67.7156 544.934Z" fill="#87CFE5" stroke="#0076B8" stroke-width="7"/>
<path d="M49.4476 650.723C49.5057 650.438 49.4443 650.133 49.2874 649.877C49.1299 649.622 48.8896 649.437 48.6091 649.361C48.3286 649.284 48.0278 649.322 47.7625 649.463C47.4978 649.604 47.2903 649.836 47.196 650.111C46.9945 650.704 46.8019 651.28 46.6095 651.875C42.8134 662.319 42.5261 674.712 45.5308 685.67C45.6843 686.295 45.8332 686.888 45.997 687.511C48.2135 686.782 50.4301 686.053 52.6466 685.324C52.4206 684.761 52.2089 684.227 51.9931 683.664C47.9481 673.761 46.7697 663.266 49.0962 652.511C49.2096 651.91 49.3239 651.326 49.4476 650.723Z" fill="#0074AB"/>
<path d="M25.6048 649.655C25.6372 649.361 25.546 649.056 25.3641 648.809C25.1815 648.563 24.9233 648.394 24.6332 648.339C24.3431 648.284 24.0411 648.346 23.7808 648.509C23.5212 648.672 23.3245 648.922 23.2469 649.207C23.1077 649.726 22.9767 650.217 22.8434 650.738C20.2823 659.834 19.8193 669.987 20.7423 679.422C20.7852 679.958 20.8261 680.469 20.8718 681.004C20.9504 681.959 21.4063 682.813 22.1816 683.372C22.9544 683.931 23.9832 684.149 24.9993 683.985C26.0154 683.821 26.9233 683.29 27.4811 682.517C28.0413 681.742 28.2055 680.788 27.9799 679.858C27.857 679.347 27.7391 678.86 27.6193 678.351C25.3478 669.354 24.3591 660.503 25.4427 651.2C25.4953 650.676 25.5459 650.18 25.6048 649.655Z" fill="#007BA4"/>
</g>
<path d="M250.13 382.431C352.605 382.431 435.63 464.837 435.63 566.431C435.63 668.025 352.605 750.431 250.13 750.431C147.655 750.431 64.6299 668.025 64.6299 566.431C64.6299 464.837 147.655 382.431 250.13 382.431Z" fill="#86D0E3" stroke="#0C74AB" stroke-width="7"/>
<path d="M377.13 694.431C342.63 733.431 278.63 748.931 253.63 746.431C146.63 752.431 66.1299 658.326 68.6299 564.931C70.1958 506.431 55.6299 644.431 194.63 703.431C269.13 740.931 377.13 694.431 377.13 694.431Z" fill="#37B4CA"/>
<g clip-path="url(#clip2_196_2)">
<path d="M199.13 479.469C224.11 479.469 245.13 503.698 245.13 533.538C245.13 550.375 241.686 563.862 234.401 573.09C227.219 582.188 215.932 587.607 199.13 587.607C174.244 587.607 154.63 563.972 154.63 533.538C154.63 503.104 174.244 479.469 199.13 479.469Z" fill="#FEFEFE" stroke="#0F79AB" stroke-width="6"/>
<path d="M293.806 452.435C307.48 452.435 320.12 460.047 329.451 472.706C338.779 485.36 344.63 502.871 344.63 522.024C344.63 543.598 340.817 561.037 332.657 573.006C324.632 584.778 312.16 591.612 293.806 591.612C280.136 591.612 267.924 584.158 259.016 571.613C250.098 559.055 244.63 541.537 244.63 522.024C244.63 502.51 250.098 484.992 259.016 472.434C267.924 459.889 280.136 452.435 293.806 452.435Z" fill="#FEFEFE" stroke="#0F79AB" stroke-width="6"/>
<path d="M246.63 597.62C257.676 597.62 266.63 587.982 266.63 576.092C266.63 564.203 257.676 554.565 246.63 554.565C235.584 554.565 226.63 564.203 226.63 576.092C226.63 587.982 235.584 597.62 246.63 597.62Z" fill="#ED6F7A"/>
<path d="M279.13 537.543C279.13 548.603 273.138 557.569 265.13 557.569C257.122 557.569 250.63 548.603 250.63 537.543C250.63 526.484 257.122 517.518 265.13 517.518C274.13 520.021 279.13 526.029 279.13 537.543Z" fill="#2B2A28"/>
<path d="M227.13 557.569C235.138 557.569 241.63 548.603 241.63 537.543C241.63 526.484 235.138 517.518 227.13 517.518C219.122 517.518 212.63 526.484 212.63 537.543C212.63 548.603 219.122 557.569 227.13 557.569Z" fill="#2B2A28"/>
<path d="M276.63 527.03C277.63 530.534 274.391 533.538 271.63 533.538C268.869 533.538 266.63 531.073 266.63 528.031C266.63 524.99 268.869 522.524 271.63 522.524C274.391 522.524 276.63 523.988 276.63 527.03Z" fill="#F9FAFB"/>
<path d="M238.63 527.03C239.63 530.534 236.391 533.538 233.63 533.538C230.868 533.538 228.63 531.073 228.63 528.031C228.63 524.99 230.868 522.524 233.63 522.524C236.391 522.524 238.63 523.988 238.63 527.03Z" fill="#F9FAFB"/>
</g>
<path opacity="0.77" d="M184.301 454.417L194.849 449.985L206.902 442.333L212.524 437.399L216.848 432.302L216.785 428.181L216.209 424.348L214.084 420.791L208.489 427.491L198.526 436.346L191.364 442.144L182.896 447.191L183.229 452.05L184.301 454.417Z" fill="#004F80"/>
<path opacity="0.7" d="M246.618 424.597L253 429.421L259.888 432.748L268.078 435.179L278.769 437.619L288.565 438.757L291.891 431.869L282.406 427.833L271.725 422.892L263.641 418.662L258.057 414.441L251.675 409.616L247.454 415.2L245.636 420.093L246.618 424.597Z" fill="#014C83"/>
<g clip-path="url(#clip3_196_2)">
<path d="M199.13 479.469C224.11 479.469 245.13 503.698 245.13 533.538C245.13 550.375 241.686 563.862 234.401 573.09C227.219 582.188 215.932 587.607 199.13 587.607C174.244 587.607 154.63 563.972 154.63 533.538C154.63 503.104 174.244 479.469 199.13 479.469Z" fill="#FEFEFE" stroke="#0F79AB" stroke-width="6"/>
<path d="M293.806 452.435C307.48 452.435 320.12 460.047 329.451 472.706C338.779 485.36 344.63 502.871 344.63 522.024C344.63 543.598 340.817 561.037 332.657 573.006C324.632 584.778 312.16 591.612 293.806 591.612C280.136 591.612 267.924 584.158 259.016 571.613C250.098 559.055 244.63 541.537 244.63 522.024C244.63 502.51 250.098 484.992 259.016 472.434C267.924 459.889 280.136 452.435 293.806 452.435Z" fill="#FEFEFE" stroke="#0F79AB" stroke-width="6"/>
<path d="M246.63 597.62C257.676 597.62 266.63 587.982 266.63 576.092C266.63 564.203 257.676 554.565 246.63 554.565C235.584 554.565 226.63 564.203 226.63 576.092C226.63 587.982 235.584 597.62 246.63 597.62Z" fill="#ED6F7A"/>
<path d="M279.13 537.543C279.13 548.603 273.138 557.569 265.13 557.569C257.122 557.569 250.63 548.603 250.63 537.543C250.63 526.484 257.122 517.518 265.13 517.518C274.13 520.021 279.13 526.029 279.13 537.543Z" fill="#2B2A28"/>
<path d="M227.13 557.569C235.138 557.569 241.63 548.603 241.63 537.543C241.63 526.484 235.138 517.518 227.13 517.518C219.122 517.518 212.63 526.484 212.63 537.543C212.63 548.603 219.122 557.569 227.13 557.569Z" fill="#2B2A28"/>
<path d="M276.63 527.03C277.63 530.534 274.391 533.538 271.63 533.538C268.869 533.538 266.63 531.073 266.63 528.031C266.63 524.99 268.869 522.524 271.63 522.524C274.391 522.524 276.63 523.988 276.63 527.03Z" fill="#F9FAFB"/>
<path d="M238.63 527.03C239.63 530.534 236.391 533.538 233.63 533.538C230.868 533.538 228.63 531.073 228.63 528.031C228.63 524.99 230.868 522.524 233.63 522.524C236.391 522.524 238.63 523.988 238.63 527.03Z" fill="#F9FAFB"/>
</g>
<path d="M369.215 650.713C373.418 647.381 378.536 645.653 385.05 646.288L385.192 646.302L385.335 646.307C389.862 646.46 395.602 648.778 401.895 653.269C408.104 657.7 414.453 663.966 420.133 671.331C431.59 686.189 439.703 704.69 439.168 720.487C439.022 724.789 439.116 729.006 439.243 733.016C439.37 737.072 439.527 740.85 439.526 744.496C439.524 751.825 438.864 757.844 436.464 762.774C431.97 772.004 419.972 779.813 384.158 780.558C373.753 780.205 366.308 779.934 360.772 778.766C355.438 777.641 352.661 775.841 350.887 772.919C348.896 769.64 347.707 764.228 347.554 754.743C347.403 745.381 348.253 732.804 349.706 715.732L349.716 715.618L349.72 715.503C350.298 698.428 352.674 679.953 358.438 666.269C361.31 659.451 364.893 654.138 369.215 650.713Z" fill="#87CFE5" stroke="#0E6B96" stroke-width="9"/>
<path d="M434.141 733.344C433.375 755.981 432.841 771.73 396.424 773.101C343.761 779.133 354.704 765.826 355.894 730.693C356.661 708.056 374.187 671.389 394.251 672.068C417.548 665.693 433.17 700.092 434.141 733.344Z" fill="#37B4CA"/>
<path d="M139.384 644.017C135.085 640.516 129.886 638.722 123.301 639.392L123.154 639.407L123.007 639.413C118.431 639.577 112.615 642.003 106.23 646.722C99.9333 651.375 93.4971 657.953 87.7446 665.687C76.1508 681.274 67.9245 700.728 68.5241 717.39C68.6858 721.884 68.6033 726.291 68.4884 730.491C68.3722 734.735 68.2264 738.701 68.2394 742.528C68.2656 750.22 68.9565 756.589 71.441 761.816C76.0867 771.589 88.3499 779.726 124.668 780.468C135.23 780.087 142.779 779.795 148.389 778.567C153.774 777.389 156.616 775.509 158.442 772.387C160.491 768.885 161.681 763.142 161.805 753.191C161.928 743.363 161.024 730.172 159.491 712.292L159.482 712.181L159.478 712.07C158.833 694.169 156.358 674.769 150.437 660.387C147.485 653.215 143.808 647.621 139.384 644.017Z" fill="#87CFE5" stroke="#0E6B96" stroke-width="9"/>
<path d="M73.7398 730.85C74.593 754.561 75.1866 771.058 112.172 772.456C165.669 778.719 154.513 764.791 153.189 727.991C152.335 704.279 134.418 665.888 114.045 666.621C90.3667 659.967 74.6172 696.017 73.7398 730.85Z" fill="#37B4CA"/>
<g clip-path="url(#clip4_196_2)">
<path d="M419.545 545.934C414.291 546.61 412.166 548.501 411.11 550.864C409.824 553.738 409.709 558.141 410.526 564.628C412.083 576.995 416.941 595.692 416.941 616.931V617.239L416.887 617.542C414.116 633.158 411.717 647.084 412.496 659.015C413.244 670.462 416.896 679.703 425.874 686.626C439.05 688.873 448.945 687.963 456.308 685.072C463.751 682.149 468.887 677.096 472.321 670.607C479.327 657.369 479.26 638.108 475.992 619.537L475.967 619.395L475.954 619.251C474.337 601.654 464.992 583.173 453.327 569.034C447.516 561.989 441.225 556.142 435.199 552.084C429.198 548.043 423.79 545.998 419.545 545.934Z" fill="#87CFE5" stroke="#0076B8" stroke-width="7"/>
<path d="M437.813 651.723C437.755 651.438 437.816 651.133 437.973 650.877C438.131 650.622 438.371 650.437 438.652 650.361C438.932 650.284 439.233 650.322 439.498 650.463C439.763 650.604 439.97 650.836 440.065 651.111C440.266 651.704 440.459 652.28 440.651 652.875C444.447 663.319 444.735 675.712 441.73 686.67C441.576 687.295 441.428 687.888 441.264 688.511C439.047 687.782 436.831 687.053 434.614 686.324C434.84 685.761 435.052 685.227 435.268 684.664C439.313 674.761 440.491 664.266 438.165 653.511C438.051 652.91 437.937 652.326 437.813 651.723Z" fill="#0074AB"/>
<path d="M461.656 650.655C461.624 650.361 461.715 650.056 461.897 649.809C462.079 649.563 462.337 649.394 462.628 649.339C462.918 649.284 463.22 649.346 463.48 649.509C463.74 649.672 463.936 649.922 464.014 650.207C464.153 650.726 464.284 651.217 464.417 651.738C466.978 660.834 467.441 670.987 466.518 680.422C466.476 680.958 466.435 681.469 466.389 682.004C466.31 682.959 465.854 683.813 465.079 684.372C464.306 684.931 463.278 685.149 462.261 684.985C461.245 684.821 460.337 684.29 459.78 683.517C459.219 682.742 459.055 681.788 459.281 680.858C459.404 680.347 459.522 679.86 459.641 679.351C461.913 670.354 462.902 661.503 461.818 652.2C461.765 651.676 461.715 651.18 461.656 650.655Z" fill="#007BA4"/>
</g>
<path d="M178.523 341.931C151.315 330.006 147.359 733.431 63.8587 692.431C-67.3307 628.015 57.5617 333.593 114.859 326.431C326.859 299.931 139.358 305.431 180.779 346.931L213.771 314.931L172.562 335.734C201.35 360.962 183.662 352.488 188.837 370.753C190.139 375.35 191.247 379.348 192.466 382.748C193.696 386.181 194.947 388.724 196.381 390.48C197.81 392.231 200.703 389.309 201.399 389.45C202.148 389.601 204.579 389.057 208.399 387.959H211.128L216.399 386.17C220.511 387.31 217.6 386.463 219.399 386.17C221.147 385.885 227.017 386.138 228.899 384.381C232.899 380.648 231.976 379.465 233.548 369.712C236.661 350.41 233.549 359.931 228.899 332.431C219.892 279.164 206.401 354.15 178.523 341.931Z" fill="#87CFE5" stroke="#0E6B96" stroke-width="12"/>
<g clip-path="url(#clip5_196_2)">
<path d="M225.075 617.431L227.13 617.431L229.873 616.431L235.63 616.431L237.13 616.431L238.909 616.431L242.943 616.431L245.29 615.431L252.18 615.431L252.18 622.79L253.495 643.855L253.372 647.646L250.255 651.298L247.309 653.388L242.943 654.159L238.909 654.41L234.478 653.214L229.873 650.025L225.075 644.318L221.663 635.85L219.057 627.281L218.634 620.508L225.075 617.431Z" fill="#FEFEFE" stroke="#0578A5" stroke-width="3"/>
<path d="M274.63 618.931H272.299L270.63 617.931H268.868L265.476 616.431H262.318L253.911 615.431L253.634 640.068L253.911 642.946L256.493 645.584L258.879 647.047L262.318 647.431H265.476L268.868 646.296L272.299 643.619L275.761 638.987L278.014 632.28L279.634 625.525V620.431L274.63 618.931Z" fill="#FEFEFE" stroke="#0875A4" stroke-width="3"/>
<path d="M187.231 650.127C222.97 603.526 261.007 599.268 320.88 655.431" stroke="#0C74AB" stroke-width="5" stroke-linecap="round"/>
</g>
<path d="M183.381 340.931C177.381 336.431 200.624 313.22 211.881 312.931C226.381 318.931 213.96 327.547 216.209 348.873C214.868 350.299 206.929 369.795 197.38 367.431C187.831 365.067 211.881 422.431 183.381 340.931Z" fill="#87CFE5"/>
<path d="M123.461 348.092C121.554 342.908 143.381 323.931 175.381 323.931C188.381 321.931 165.381 339.431 158.29 362.534C156.949 363.959 149.01 383.455 139.461 381.092C129.912 378.728 121.3 351.196 123.461 348.092Z" fill="#87CFE5"/>
<path d="M317.972 341.217C345.18 329.292 349.136 732.717 432.636 691.717C563.826 627.301 438.933 332.879 381.636 325.717C169.636 299.217 357.137 304.717 315.716 346.217L282.725 314.217L323.933 335.019C295.145 360.248 312.833 351.774 307.658 370.039C306.356 374.636 305.248 378.634 304.03 382.034C302.799 385.467 301.548 388.01 300.115 389.765C298.685 391.517 295.792 388.594 295.096 388.735C294.347 388.887 291.917 388.343 288.096 387.245H285.367L280.096 385.456C275.984 386.596 278.895 385.749 277.096 385.456C275.348 385.171 269.478 385.424 267.596 383.667C263.596 379.933 264.519 378.75 262.947 368.998C259.834 349.696 262.946 359.217 267.596 331.717C276.603 278.45 290.094 353.436 317.972 341.217Z" fill="#87CFE5" stroke="#0E6B96" stroke-width="12"/>
<path d="M312.136 340.217C318.136 335.717 294.893 312.506 283.636 312.217C269.136 318.217 281.557 326.833 279.308 348.159C280.649 349.585 288.587 369.08 298.136 366.717C307.686 364.353 283.636 421.717 312.136 340.217Z" fill="#87CFE5"/>
<path d="M372.056 347.377C373.963 342.194 352.136 323.217 320.136 323.217C307.136 321.217 330.136 338.717 337.227 361.819C338.568 363.245 346.507 382.741 356.056 380.377C365.605 378.014 374.217 350.482 372.056 347.377Z" fill="#87CFE5"/>
</g>
<defs>
<clipPath id="clip0_196_2">
<rect width="498" height="786" fill="white" transform="translate(0.120117)"/>
</clipPath>
<clipPath id="clip1_196_2">
<rect width="76" height="149" fill="white" transform="translate(5.62988 541.431)"/>
</clipPath>
<clipPath id="clip2_196_2">
<rect width="196" height="148.189" fill="white" transform="translate(151.63 449.431)"/>
</clipPath>
<clipPath id="clip3_196_2">
<rect width="196" height="148.189" fill="white" transform="translate(151.63 449.431)"/>
</clipPath>
<clipPath id="clip4_196_2">
<rect width="76" height="149" fill="white" transform="matrix(-1 0 0 1 481.631 542.431)"/>
</clipPath>
<clipPath id="clip5_196_2">
<rect width="212" height="81" fill="white" transform="translate(145.634 576.429)"/>
</clipPath>
</defs>
</svg>
