<svg width="476" height="786" viewBox="0 0 476 786" fill="none" xmlns="http://www.w3.org/2000/svg">
<g clip-path="url(#clip0_176_1000)">
<path d="M86.9297 16.7143C96.5345 11.8058 106.682 11.5524 117.15 15.7188C127.798 19.9572 138.925 28.8568 149.706 42.484C171.246 69.7073 190.39 114.534 201.105 172.941C203.797 197.451 207.515 221.975 210.903 244.675C214.315 267.526 217.378 288.445 218.81 305.946C220.262 323.711 219.917 336.908 217.187 344.843C215.87 348.67 214.243 350.541 212.698 351.426C211.21 352.28 208.76 352.81 204.48 351.727L201.386 350.945L199.008 353.076C195.786 355.965 194.143 356.089 193.632 356.04C193.139 355.992 191.842 355.603 189.746 352.806C187.689 350.061 185.529 345.873 183.134 340.141C180.765 334.471 178.317 327.671 175.575 319.89C164.678 288.966 149.647 243.897 118.755 204.259L118.539 203.982L118.293 203.733L115.425 200.807C55.8798 139.71 39.4621 98.8817 41.6354 71.5833C43.8011 44.3815 64.7521 28.0479 86.9297 16.7143Z" fill="#8BCDE5" stroke="#0E6B96" stroke-width="12"/>
<path d="M307.345 63.0001C329.956 36.7664 354.435 28.2455 371.981 33.7082C390.948 39.6138 410.17 56.4775 412.328 84.658C414.514 113.194 399.378 155.113 344.924 210.922L344.816 211.034L344.714 211.149C311.199 249.217 298.305 291.6 289.629 320.998C287.446 328.398 285.571 334.835 283.702 340.279C281.814 345.774 280.078 349.805 278.313 352.52C276.553 355.23 275.28 355.846 274.561 355.996C273.785 356.157 271.966 356.128 268.378 353.876L266.01 352.389L263.352 353.247C259.04 354.637 256.325 354.41 254.592 353.718C252.907 353.044 251.211 351.556 249.678 348.449C246.419 341.847 245.025 330.25 245.345 314.045C245.977 281.971 253.048 236.878 258.547 190.113C265.454 131.368 284.962 88.9707 307.345 63.0001Z" fill="#87CFE5" stroke="#0E6B96" stroke-width="12"/>
<path d="M237.5 334.426C339.975 334.426 423 416.937 423 518.661C423 620.384 339.975 702.895 237.5 702.895C135.025 702.895 52.0005 620.384 52.0005 518.661C52.0005 416.937 135.025 334.426 237.5 334.426Z" fill="#86D0E3" stroke="#0C74AB" stroke-width="7"/>
<path d="M364.501 646.824C330.001 685.874 266.001 701.394 241.001 698.89C134.001 704.898 53.5005 610.673 56.0005 517.159C57.5664 458.584 43.0005 596.76 182.001 655.836C256.501 693.383 364.501 646.824 364.501 646.824Z" fill="#37B4CA"/>
<path opacity="0.77" d="M173.5 393.501L182.5 381.987L195 370.972L202 366.967L208.5 364.965L212 368.469L215 372.474L217 378.482L208.5 380.985L196 387.994L187.5 393.501L179 401.511L175 397.006L173.5 393.501Z" fill="#004F80"/>
<path opacity="0.7" d="M264.5 357.956H272.5L280 359.458L288 362.462L298 366.968L306.5 371.974L305 379.483L295 376.98L283.5 374.477L274.5 372.975H267.5H259.5V365.966L261 360.96L264.5 357.956Z" fill="#014C83"/>
<g clip-path="url(#clip1_176_1000)">
<path d="M199 700.892C217.453 700.892 227.418 706.676 232.985 714.2C238.752 721.995 240.5 732.568 240.5 743.446C240.5 754.69 239.623 763.351 232.348 769.732C224.743 776.403 209.12 781.494 176.5 781.494C154.106 781.494 138.008 780.425 126.449 778.524C114.815 776.61 108.241 773.924 104.485 771.045C100.993 768.37 99.6442 765.307 99.1137 761.461C98.8339 759.432 98.7896 757.202 98.8315 754.653C98.8709 752.258 99.0004 749.258 99.0004 746.45C99.0004 742.955 101.71 738.187 108.265 732.614C114.594 727.233 123.607 721.877 134.018 717.118C154.892 707.578 180.368 700.892 199 700.892Z" fill="#87CFE5" stroke="#0178B2" stroke-width="9"/>
<path d="M235.614 730.881C246.614 773.936 213.16 778.99 174.5 778.99C135.84 778.99 114 775.987 108.5 768.978C95.5 762.97 149.114 767.928 177.114 764.924C262.114 764.924 216 687.874 235.614 730.881Z" fill="#31A7BA"/>
</g>
<g clip-path="url(#clip2_176_1000)">
<path d="M291.001 700.892C272.548 700.892 262.583 706.676 257.016 714.2C251.249 721.995 249.501 732.568 249.501 743.446C249.501 754.69 250.378 763.351 257.653 769.732C265.258 776.403 280.881 781.494 313.501 781.494C335.895 781.494 351.993 780.425 363.552 778.524C375.186 776.61 381.76 773.924 385.516 771.045C389.008 768.37 390.357 765.307 390.887 761.461C391.167 759.432 391.211 757.202 391.169 754.653C391.13 752.258 391.001 749.258 391.001 746.45C391.001 742.955 388.291 738.187 381.736 732.614C375.407 727.233 366.394 721.877 355.983 717.118C335.109 707.578 309.633 700.892 291.001 700.892Z" fill="#87CFE5" stroke="#0178B2" stroke-width="9"/>
<path d="M254.387 730.881C243.387 773.936 276.841 778.99 315.501 778.99C354.161 778.99 376.001 775.987 381.501 768.978C394.501 762.97 340.887 767.928 312.887 764.924C227.887 764.924 274.001 687.874 254.387 730.881Z" fill="#31A7BA"/>
</g>
<g clip-path="url(#clip3_176_1000)">
<path d="M193.5 431.55C218.481 431.55 239.5 455.778 239.5 485.619C239.5 502.455 236.057 515.942 228.772 525.17C221.589 534.269 210.302 539.688 193.5 539.688C168.615 539.688 149 516.052 149 485.619C149 455.185 168.615 431.55 193.5 431.55Z" fill="#FEFEFE" stroke="#0F79AB" stroke-width="6"/>
<path d="M288.176 404.516C301.85 404.516 314.49 412.128 323.821 424.787C333.149 437.441 339 454.952 339 474.104C339 495.678 335.187 513.118 327.027 525.086C319.002 536.858 306.53 543.693 288.176 543.693C274.506 543.693 262.294 536.238 253.386 523.693C244.469 511.135 239 493.618 239 474.104C239 454.591 244.469 437.073 253.386 424.515C262.294 411.97 274.506 404.516 288.176 404.516Z" fill="#FEFEFE" stroke="#0F79AB" stroke-width="6"/>
<path d="M241 549.7C252.046 549.7 261 540.062 261 528.173C261 516.284 252.046 506.646 241 506.646C229.955 506.646 221 516.284 221 528.173C221 540.062 229.955 549.7 241 549.7Z" fill="#ED6F7A"/>
<path d="M273.5 489.624C273.5 500.684 267.508 509.65 259.5 509.65C251.492 509.65 245 500.684 245 489.624C245 478.564 251.492 469.599 259.5 469.599C268.5 472.102 273.5 478.109 273.5 489.624Z" fill="#2B2A28"/>
<path d="M221.5 509.65C229.509 509.65 236 500.684 236 489.624C236 478.564 229.509 469.599 221.5 469.599C213.492 469.599 207 478.564 207 489.624C207 500.684 213.492 509.65 221.5 509.65Z" fill="#2B2A28"/>
<path d="M271 479.11C272 482.615 268.761 485.619 266 485.619C263.239 485.619 261 483.153 261 480.112C261 477.07 263.239 474.604 266 474.604C268.761 474.604 271 476.069 271 479.11Z" fill="#F9FAFB"/>
<path d="M233 479.11C234 482.615 230.762 485.619 228 485.619C225.239 485.619 223 483.153 223 480.112C223 477.07 225.239 474.604 228 474.604C230.762 474.604 233 476.069 233 479.11Z" fill="#F9FAFB"/>
</g>
<g clip-path="url(#clip4_176_1000)">
<path d="M401.914 498.138C396.66 498.815 394.535 500.708 393.479 503.074C392.193 505.952 392.078 510.361 392.895 516.856C394.452 529.238 399.31 547.96 399.31 569.225V569.533L399.256 569.837C396.485 585.473 394.086 599.417 394.865 611.363C395.613 622.825 399.265 632.077 408.243 639.009C421.419 641.259 431.314 640.348 438.677 637.453C446.12 634.527 451.256 629.467 454.691 622.97C461.696 609.715 461.63 590.43 458.362 571.835L458.336 571.692L458.323 571.549C456.706 553.929 447.361 535.424 435.696 521.267C429.885 514.214 423.594 508.358 417.569 504.296C411.567 500.25 406.159 498.202 401.914 498.138Z" fill="#87CFE5" stroke="#0076B8" stroke-width="7"/>
<path d="M420.182 604.061C420.124 603.776 420.186 603.47 420.342 603.214C420.5 602.959 420.74 602.773 421.021 602.697C421.301 602.62 421.602 602.658 421.867 602.8C422.132 602.941 422.34 603.173 422.434 603.448C422.635 604.042 422.828 604.619 423.02 605.215C426.816 615.672 427.104 628.081 424.099 639.053C423.946 639.679 423.797 640.272 423.633 640.896C421.416 640.166 419.2 639.436 416.983 638.706C417.209 638.143 417.421 637.608 417.637 637.044C421.682 627.129 422.86 616.62 420.534 605.851C420.42 605.25 420.306 604.665 420.182 604.061Z" fill="#0074AB"/>
<path d="M444.025 602.992C443.992 602.697 444.083 602.392 444.265 602.145C444.448 601.898 444.706 601.729 444.996 601.674C445.286 601.619 445.588 601.681 445.849 601.844C446.108 602.007 446.305 602.258 446.383 602.543C446.522 603.063 446.653 603.554 446.786 604.076C449.347 613.184 449.81 623.35 448.887 632.797C448.844 633.333 448.803 633.845 448.758 634.381C448.679 635.337 448.223 636.192 447.448 636.752C446.675 637.311 445.646 637.53 444.63 637.365C443.614 637.201 442.706 636.67 442.148 635.896C441.588 635.12 441.424 634.164 441.65 633.233C441.772 632.721 441.89 632.234 442.01 631.724C444.282 622.716 445.27 613.853 444.187 604.539C444.134 604.014 444.084 603.517 444.025 602.992Z" fill="#007BA4"/>
</g>
<path fill-rule="evenodd" clip-rule="evenodd" d="M155.495 675.635C156.586 686.035 143.065 687.085 107.354 690.481C88.8978 692.236 72.4483 679.68 70.6428 662.461C68.8371 645.241 82.3552 629.836 100.811 628.082C136.523 624.687 159.188 656.475 155.495 675.635Z" fill="#FF9425"/>
<path fill-rule="evenodd" clip-rule="evenodd" d="M155.101 635.731C155.148 635.924 155.257 655.081 155.257 655.081C155.257 655.081 71.4269 666.487 70.6432 662.461C67.3331 645.459 82.3452 629.734 100.812 628.082C170.362 621.861 153.411 628.965 155.101 635.731Z" fill="#FF8600"/>
<path d="M94.1333 631.29C96.1308 637.779 97.7495 644.341 97.3705 651.097" stroke="#EF6A00" stroke-width="5" stroke-miterlimit="10" stroke-linecap="round" stroke-linejoin="round"/>
<path d="M125.859 628.991C128.968 633.001 129.018 637.72 128.683 642.653" stroke="#EF6A00" stroke-width="5" stroke-miterlimit="10" stroke-linecap="round" stroke-linejoin="round"/>
<path fill-rule="evenodd" clip-rule="evenodd" d="M76.6547 661.354C76.6547 661.354 55.8241 674.365 47.5853 677.07C39.3826 679.764 29.256 670.924 29.064 666.366C28.8004 660.114 34.9139 653.439 43.9717 653.98C52.5047 654.49 76.6547 661.354 76.6547 661.354Z" fill="#129447"/>
<path fill-rule="evenodd" clip-rule="evenodd" d="M76.5613 661.23C76.5613 661.23 68.978 668.676 64.6578 678.413C62.2538 683.83 64.4606 691.236 62.168 694.88C59.4214 699.246 54.7936 702.644 50.9336 699.553C47.0736 696.462 47.0963 690.325 48.3494 682.989C50.5414 670.151 71.568 662.798 76.5613 661.23Z" fill="#00AA63"/>
<path fill-rule="evenodd" clip-rule="evenodd" d="M77.2866 662.203C77.2866 662.203 75.0879 670.649 74.4551 681.245C74.0069 688.756 76.4419 697.896 76.6563 698.493C79.588 706.673 72.6158 710.742 66.7411 706.378C61.6255 702.577 59.7189 696.015 59.9086 690.559C60.3958 676.491 72.7964 661.251 77.2866 662.203Z" fill="#129447"/>
<path fill-rule="evenodd" clip-rule="evenodd" d="M77.2859 662.203C77.2859 662.203 69.363 656.019 63.7548 647.354C60.6359 642.533 61.7816 634.764 59.0176 631.667C55.7053 627.955 50.676 625.599 47.3028 629.47C43.9297 633.342 45.1674 641.386 47.0563 646.339C51.6029 658.269 72.5482 663.154 77.2859 662.203Z" fill="#00AA63"/>
<path fill-rule="evenodd" clip-rule="evenodd" d="M77.2861 662.203C77.2861 662.203 71.8107 652.002 69.5555 641.742C67.7274 633.427 68.852 627.05 68.1698 624.368C66.9147 619.433 62.5346 616.999 58.3299 619.844C54.1253 622.691 53.0563 631.918 53.8347 636.194C56.2332 649.364 71.5553 661.06 77.2861 662.203Z" fill="#129447"/>
<path d="M113.053 672.147C116.187 677.297 117.007 683.456 117.293 687.443" stroke="#EF6A00" stroke-width="5" stroke-miterlimit="10" stroke-linecap="round" stroke-linejoin="round"/>
<path d="M151.636 665.115C153.98 669.203 154.681 674.479 154.96 677.927" stroke="#EF6A00" stroke-width="5" stroke-miterlimit="10" stroke-linecap="round" stroke-linejoin="round"/>
<path d="M158.16 672.216C159.246 668.729 149.739 668.562 156.19 668.967C152.049 669.247 150.58 667.317 151.756 669.943C155.921 676.088 149.136 679.253 153.277 681.34C156.398 679.438 155.87 679.567 158.16 672.216Z" fill="#FF9425"/>
<path d="M162.462 631.107C156.653 624.643 145.574 625.392 155.096 629.992C152.53 631.779 150.682 634.608 153.948 635.717C163.17 636.771 154.164 640.392 164.753 636.599C165.38 636.004 166.389 638.102 162.462 631.107Z" fill="#FF9221"/>
<path d="M163.434 662.503C162.234 661.778 165.78 663.152 160.678 661.48C156.459 661.765 154.019 659.449 154.169 661.666C154.319 663.884 145.369 667.758 158.766 667.256C162.477 671.039 160.783 674.38 163.434 662.503Z" fill="#C65104"/>
<path d="M162.313 668.63C161.113 667.904 165.038 663.665 161.852 661.804C157.632 662.089 152.882 665.367 153.032 667.584C153.182 669.802 156.556 668.615 157.973 672.553C148.146 686.125 159.307 680.933 162.313 668.63Z" fill="#C65104"/>
<path d="M164.882 655.548C163.081 652.293 163.478 652.49 159.823 651.05C155.887 651.316 151.919 653.011 152.237 655.782C153.199 664.158 156.148 661.004 159.381 662.052C164.444 666.774 163.256 660.722 164.882 655.548Z" fill="#C65104"/>
<path d="M165.108 636.173C163.307 632.919 164.471 633.103 160.816 631.663C156.88 631.929 152.912 633.624 153.23 636.395C154.191 644.771 157.14 641.617 160.374 642.664C165.436 647.387 165.427 647.445 165.108 636.173Z" fill="#C65104"/>
<path d="M165.315 645.435C163.514 642.181 163.911 642.378 160.256 640.937C156.32 641.203 152.352 642.898 152.67 645.669C153.632 654.045 156.247 654.059 159.48 655.106C164.542 659.828 166.021 655.874 165.315 645.435Z" fill="#C65104"/>
<path d="M152.902 680.8C152.729 680.812 152.367 680.653 151.94 680.176C150.942 679.064 152.327 677.518 152.602 676.389C152.878 675.26 153.153 674.135 153.647 672.992C153.882 672.448 153.869 671.683 153.686 670.911C153.385 669.641 151.843 668.957 151.18 667.661C150.874 667.061 150.614 666.451 150.703 665.844C150.863 664.766 152.584 664.471 153.257 663.316C153.842 662.309 153.617 660.16 152.985 658.575C152.406 657.125 151.943 656.195 151.861 655.648C151.663 654.323 153.144 653.251 154.1 652.4C154.573 651.979 154.582 651.03 154.387 650.074C154.027 648.309 152.368 646.838 151.849 645.714C151.593 645.16 152.843 644.86 153.253 644.418C154.074 643.531 153.877 641.929 153.752 639.401C153.665 637.618 152.518 636.111 152.128 634.884C151.791 633.824 153.172 632.829 153.755 631.68C154.022 631.152 154.075 630.547 154.083 629.994C153.361 629.024 152.536 628.525 152.071 628.142C151.878 627.924 151.773 627.657 151.14 627.416" stroke="#C65104" stroke-width="2" stroke-linecap="round"/>
<path d="M157.109 650.321C158.296 648.32 148.812 648.506 155.239 648.544C151.099 648.824 149.688 647.778 150.786 649.226C154.762 652.572 147.896 654.558 151.968 655.615C155.139 654.449 154.608 654.538 157.109 650.321Z" fill="#FF9425"/>
<path d="M160.165 665.166C160.121 664.526 160.303 663.612 160.39 662.157C160.459 661.026 161.11 660.14 161.412 659.118C161.659 658.229 161.978 657.498 162.128 657.005C162.171 656.712 162.145 656.331 162.119 655.938" stroke="#C65104" stroke-width="2" stroke-linecap="round"/>
<path d="M154.453 681.018C154.553 680.811 154.988 680.46 155.431 680.208C155.897 679.943 156.186 679.493 156.524 679.088C156.88 678.662 157.043 677.988 157.219 677.451C157.393 676.914 157.593 676.46 157.788 675.963C157.99 675.448 158.294 674.963 158.624 674.457C158.955 673.951 159.15 673.456 159.518 672.947C159.89 672.433 160.189 671.815 160.515 671.269C160.97 670.511 161.218 670.054 161.311 669.424C161.435 668.58 162.128 667.662 162.446 666.951C162.726 666.326 163.052 665.461 163.299 664.841C163.577 664.14 163.893 663.713 164.019 663.02C164.114 662.504 164.161 662.004 164.328 661.068C164.463 660.312 164.537 659.645 164.66 658.891C164.805 657.997 164.851 657.488 164.934 656.999C165.021 656.485 165.211 656.014 165.351 655.521C165.483 655.056 165.496 654.545 165.574 653.717C165.785 651.497 165.455 649.968 165.479 648.91C165.466 648.431 165.399 647.989 165.273 646.977C165.195 646.124 165.09 644.576 164.983 642.982" stroke="#FF8600" stroke-width="2" stroke-linecap="round"/>
<path d="M162.429 632.403C162.521 632.638 162.863 633.176 163.203 633.678C163.522 634.148 163.582 634.739 163.767 635.21C163.952 635.681 164.137 636.151 164.235 636.748C164.338 637.37 164.692 638.682 164.866 639.844C164.95 640.797 164.962 641.532 164.942 642.093C164.953 642.533 165.004 643.287 165.056 644.063" stroke="#FF8600" stroke-width="2" stroke-linecap="round"/>
<path d="M115.841 548.093C121.117 547.619 123.6 549.007 125.141 551.086C127.017 553.616 128.079 557.89 128.681 564.401C129.828 576.811 129.118 596.117 133.7 616.856L133.766 617.156L133.884 617.441C139.958 632.091 145.305 645.173 147.118 656.99C148.857 668.328 147.285 678.14 140.012 686.837C127.631 691.873 117.772 693.119 109.96 691.884C102.061 690.636 95.9556 686.811 91.2025 681.215C81.5056 669.8 77.4163 650.979 76.6011 632.14L76.5944 631.995L76.5758 631.852C74.359 614.32 79.4974 594.258 87.8373 577.936C91.9916 569.804 96.8738 562.737 101.882 557.475C106.87 552.235 111.71 549.071 115.841 548.093Z" fill="#87CFE5" stroke="#0076B8" stroke-width="7"/>
<path d="M120.824 655.332C120.82 655.041 120.694 654.756 120.485 654.54C120.276 654.325 120.002 654.196 119.712 654.182C119.422 654.168 119.136 654.27 118.907 654.464C118.679 654.659 118.527 654.93 118.494 655.219C118.425 655.842 118.361 656.446 118.302 657.069C116.847 668.086 119.241 680.248 124.538 690.3C124.823 690.878 125.096 691.424 125.391 691.997C127.399 690.807 129.405 689.617 131.412 688.427C131.07 687.926 130.748 687.451 130.416 686.947C124.33 678.15 120.916 668.156 120.867 657.153C120.848 656.542 120.834 655.947 120.824 655.332Z" fill="#0074AB"/>
<path d="M97.3131 659.433C97.2811 659.139 97.126 658.861 96.8953 658.659C96.6636 658.458 96.3751 658.349 96.0805 658.358C95.7848 658.367 95.5031 658.492 95.2849 658.707C95.0656 658.922 94.928 659.209 94.9139 659.504C94.8894 660.042 94.8678 660.549 94.8504 661.087C94.311 670.52 96.0494 680.534 98.9864 689.549C99.1434 690.062 99.294 690.553 99.4539 691.065C99.7363 691.98 100.366 692.716 101.243 693.094C102.119 693.474 103.171 693.465 104.127 693.085C105.084 692.706 105.856 691.992 106.234 691.116C106.614 690.239 106.569 689.272 106.147 688.412C105.917 687.94 105.697 687.49 105.47 687.019C101.312 678.724 98.4364 670.295 97.4878 660.977C97.4263 660.453 97.3688 659.959 97.3131 659.433Z" fill="#007BA4"/>
<g clip-path="url(#clip5_176_1000)">
<path d="M145.218 543.981C144.683 543.392 143.936 543.041 143.141 543.004C142.346 542.966 141.569 543.246 140.981 543.782C140.392 544.317 140.041 545.065 140.003 545.859C139.966 546.654 140.246 547.431 140.782 548.02C143.405 550.902 146.198 553.632 149.13 556.197C203.771 601.972 288.849 595.306 341.959 550.893C344.945 548.411 347.79 545.86 350.586 543.156C351.158 542.603 351.486 541.845 351.5 541.05C351.513 540.254 351.209 539.486 350.656 538.914C350.103 538.342 349.345 538.014 348.55 538C347.754 537.987 346.986 538.291 346.414 538.844C343.728 541.442 340.994 543.893 338.125 546.278C287.242 589.061 204.618 595.128 153.081 551.682C150.315 549.261 147.685 546.691 145.218 543.981Z" fill="#076FA2"/>
<path d="M210.668 585.963L210.736 585.979L210.806 585.987L222.306 587.487L222.365 587.495L222.425 587.498L232.425 587.998L232.463 588H240.5V607.916L240.08 611.48L236.175 614.735L232.582 616.531L227.429 617H222.701L217.614 615.612L212.471 612.339L207.285 606.682L203.918 598.506L201.5 590.282V583.879L210.668 585.963Z" fill="#FEFEFE" stroke="#0578A5" stroke-width="3"/>
<path d="M269.38 585.723L269.312 585.738L269.241 585.748L258.837 587.104L258.777 587.111L258.718 587.114L249.67 587.566L249.633 587.568H242.5V605.422L242.873 608.579L246.349 611.474L249.561 613.079L254.19 613.5H258.441L263.007 612.255L267.626 609.318L272.287 604.236L275.319 596.878L277.5 589.467V583.878L269.38 585.723Z" fill="#FEFEFE" stroke="#0875A4" stroke-width="3"/>
</g>
</g>
<defs>
<clipPath id="clip0_176_1000">
<rect width="476" height="786" fill="white"/>
</clipPath>
<clipPath id="clip1_176_1000">
<rect width="151" height="90.1148" fill="white" transform="translate(94 695.885)"/>
</clipPath>
<clipPath id="clip2_176_1000">
<rect width="151" height="90.1148" fill="white" transform="matrix(-1 0 0 1 396.001 695.885)"/>
</clipPath>
<clipPath id="clip3_176_1000">
<rect width="196" height="148.189" fill="white" transform="translate(146 401.512)"/>
</clipPath>
<clipPath id="clip4_176_1000">
<rect width="76" height="149.19" fill="white" transform="matrix(-1 0 0 1 464 494.63)"/>
</clipPath>
<clipPath id="clip5_176_1000">
<rect width="212" height="81" fill="white" transform="translate(140 538)"/>
</clipPath>
</defs>
</svg>
