<svg width="476" height="792" viewBox="0 0 476 792" fill="none" xmlns="http://www.w3.org/2000/svg">
<path d="M212.463 572.202L212.526 572.219L212.59 572.228L223.205 573.813L223.26 573.821L223.315 573.824L232.546 574.353L232.581 574.355L240 574.355L240 595.401L239.612 599.166L236.008 602.607L232.691 604.505L227.934 605L223.57 605L218.875 603.534L214.127 600.074L209.34 594.096L206.232 585.457L204 576.767L204 570L212.463 572.202Z" fill="#FEFEFE" stroke="#0578A5" stroke-width="3"/>
<path d="M303.294 591.254C296.446 597.239 276.361 605.884 259.47 609.542C242.124 610.539 243.493 613.354 243.493 608.212C254.449 597.239 266.318 588.594 306.489 587.264C310.597 587.264 307.858 587.264 303.294 591.254Z" fill="#FF1863"/>
<path d="M266.576 572.055L266.514 572.072L266.449 572.083L256.937 573.593L256.882 573.602L256.828 573.605L248.555 574.109L248.522 574.111L242 574.111L242 594.001L242.341 597.518L245.519 600.743L248.456 602.531L252.688 603L256.575 603L260.749 601.613L264.972 598.341L269.234 592.68L272.006 584.482L274 576.226L274 570L266.576 572.055Z" fill="#FEFEFE" stroke="#0875A4" stroke-width="3"/>
<path d="M132.319 7.54358C142.63 4.45313 152.637 6.03344 162.164 12.0133C171.856 18.0965 181.181 28.8452 189.316 44.1755C205.569 74.8016 216.308 122.289 216.332 181.597C214.57 206.161 213.814 230.922 213.061 253.833C212.305 276.896 211.553 297.998 209.813 315.449C208.047 333.162 205.337 346.064 201.231 353.367C199.251 356.889 197.318 358.434 195.641 359.025C194.027 359.595 191.527 359.674 187.52 357.839L184.623 356.513L181.906 358.178C178.223 360.435 176.589 360.261 176.096 360.12C175.621 359.984 174.417 359.368 172.862 356.243C171.336 353.176 169.968 348.672 168.647 342.609C167.34 336.612 166.159 329.491 164.865 321.353C159.724 289.01 153.067 242.026 129.862 197.518L129.701 197.207L129.504 196.918L127.213 193.527C79.7368 122.773 70.9558 79.7053 77.9944 53.28C85.0083 26.9483 108.511 14.6794 132.319 7.54358Z" fill="#8BCDE5" stroke="#0E6B96" stroke-width="12"/>
<path d="M302.992 61.946C326.477 36.5676 351.195 28.9349 368.501 35.0122C387.209 41.582 405.782 59.0983 406.934 87.3019C408.101 115.861 391.516 157.161 335.223 210.925L335.111 211.032L335.005 211.143C300.225 247.946 285.86 289.788 276.162 318.822C273.722 326.13 271.624 332.488 269.566 337.854C267.488 343.272 265.614 347.233 263.757 349.881C261.905 352.522 260.614 353.092 259.891 353.216C259.112 353.348 257.299 353.255 253.799 350.879L251.491 349.311L248.809 350.073C244.459 351.307 241.759 350.983 240.055 350.23C238.398 349.498 236.759 347.952 235.341 344.797C232.324 338.091 231.346 326.467 232.24 310.304C234.009 278.314 242.663 233.558 249.808 187.078C258.783 128.692 279.745 87.0698 302.992 61.946Z" fill="#87CFE5" stroke="#0E6B96" stroke-width="12"/>
<path d="M237.035 341.001C339.31 341.001 422.172 423.407 422.172 525.001C422.172 626.595 339.31 709.002 237.035 709.002C134.761 709.002 51.8984 626.595 51.8984 525.001C51.8984 423.407 134.761 341.001 237.035 341.001Z" fill="#86D0E3" stroke="#0C74AB" stroke-width="7"/>
<path d="M363.786 653.001C329.354 692.002 265.479 707.502 240.528 705.002C133.738 711.002 53.3954 616.896 55.8905 523.501C57.4534 465.001 42.916 603.001 181.644 662.002C255.998 699.502 363.786 653.001 363.786 653.001Z" fill="#37B4CA"/>
<path opacity="0.77" d="M173.161 400.001L182.143 388.501L194.619 377.501L201.605 373.501L208.092 371.501L211.585 375.001L214.579 379.001L216.575 385.001L208.092 387.501L195.617 394.501L187.133 400.001L178.65 408.001L174.658 403.501L173.161 400.001Z" fill="#004F80"/>
<path opacity="0.7" d="M263.982 364.501H271.967L279.452 366.001L287.436 369.001L297.417 373.501L305.9 378.501L304.403 386.001L294.423 383.501L282.945 381.001L273.963 379.501H266.977H258.992V372.501L260.489 367.501L263.982 364.501Z" fill="#014C83"/>
<g clip-path="url(#clip0_158_1617)">
<path d="M199 706.999C217.453 706.999 227.418 712.775 232.985 720.29C238.752 728.075 240.5 738.635 240.5 749.499C240.5 760.728 239.623 769.379 232.348 775.751C224.743 782.414 209.12 787.499 176.5 787.499C154.106 787.499 138.008 786.43 126.449 784.532C114.815 782.621 108.241 779.938 104.485 777.063C100.993 774.391 99.6442 771.331 99.1137 767.491C98.8339 765.465 98.7896 763.237 98.8315 760.692C98.8709 758.3 99.0004 755.303 99.0004 752.499C99.0004 749.009 101.71 744.247 108.265 738.68C114.594 733.306 123.607 727.957 134.018 723.205C154.892 713.676 180.368 706.999 199 706.999Z" fill="#87CFE5" stroke="#0178B2" stroke-width="9"/>
<path d="M235.614 736.95C246.614 779.95 213.16 784.998 174.5 784.998C135.84 784.998 114 781.998 108.5 774.998C95.5 768.998 149.114 773.95 177.114 770.95C262.114 770.95 216 693.998 235.614 736.95Z" fill="#31A7BA"/>
</g>
<g clip-path="url(#clip1_158_1617)">
<path d="M291.001 706.999C272.548 706.999 262.583 712.775 257.016 720.29C251.249 728.075 249.501 738.635 249.501 749.499C249.501 760.728 250.378 769.379 257.653 775.751C265.258 782.414 280.881 787.499 313.501 787.499C335.895 787.499 351.993 786.43 363.552 784.532C375.186 782.621 381.76 779.938 385.516 777.063C389.008 774.391 390.357 771.331 390.887 767.491C391.167 765.465 391.211 763.237 391.169 760.692C391.13 758.3 391.001 755.303 391.001 752.499C391.001 749.009 388.291 744.247 381.736 738.68C375.407 733.306 366.394 727.957 355.983 723.205C335.109 713.676 309.633 706.999 291.001 706.999Z" fill="#87CFE5" stroke="#0178B2" stroke-width="9"/>
<path d="M254.387 736.95C243.387 779.95 276.841 784.998 315.501 784.998C354.161 784.998 376.001 781.998 381.501 774.998C394.501 768.998 340.887 773.95 312.887 770.95C227.887 770.95 274.001 693.998 254.387 736.95Z" fill="#31A7BA"/>
</g>
<g clip-path="url(#clip2_158_1617)">
<path d="M193.5 438C218.481 438 239.5 462.198 239.5 492C239.5 508.815 236.057 522.285 228.772 531.501C221.589 540.588 210.302 546 193.5 546C168.615 546 149 522.395 149 492C149 461.605 168.615 438 193.5 438Z" fill="#FEFEFE" stroke="#0F79AB" stroke-width="6"/>
<path d="M288.176 411C301.85 411 314.49 418.602 323.821 431.245C333.149 443.883 339 461.372 339 480.5C339 502.047 335.187 519.464 327.027 531.417C319.002 543.174 306.53 550 288.176 550C274.506 550 262.294 542.555 253.386 530.026C244.469 517.484 239 499.989 239 480.5C239 461.011 244.469 443.516 253.386 430.974C262.294 418.445 274.506 411 288.176 411Z" fill="#FEFEFE" stroke="#0F79AB" stroke-width="6"/>
<path d="M241 556C252.046 556 261 546.374 261 534.5C261 522.626 252.046 513 241 513C229.955 513 221 522.626 221 534.5C221 546.374 229.955 556 241 556Z" fill="#ED6F7A"/>
<path d="M273.5 496C273.5 507.046 267.508 516 259.5 516C251.492 516 245 507.046 245 496C245 484.954 251.492 476 259.5 476C268.5 478.5 273.5 484.5 273.5 496Z" fill="#2B2A28"/>
<path d="M221.5 516C229.509 516 236 507.046 236 496C236 484.954 229.509 476 221.5 476C213.492 476 207 484.954 207 496C207 507.046 213.492 516 221.5 516Z" fill="#2B2A28"/>
<path d="M271 485.5C272 489 268.761 492 266 492C263.239 492 261 489.538 261 486.5C261 483.462 263.239 481 266 481C268.761 481 271 482.462 271 485.5Z" fill="#F9FAFB"/>
<path d="M233 485.5C234 489 230.762 492 228 492C225.239 492 223 489.538 223 486.5C223 483.462 225.239 481 228 481C230.762 481 233 482.462 233 485.5Z" fill="#F9FAFB"/>
</g>
<g clip-path="url(#clip3_158_1617)">
<path d="M62.0857 504.503C67.3398 505.18 69.4645 507.071 70.5213 509.433C71.8072 512.308 71.9222 516.711 71.1053 523.198C69.548 535.564 64.6902 554.262 64.6902 575.5V575.808L64.7439 576.112C67.5145 591.727 69.9139 605.653 69.1346 617.584C68.3868 629.031 64.7351 638.272 55.7566 645.195C42.5809 647.442 32.686 646.533 25.323 643.641C17.8795 640.718 12.744 635.665 9.30938 629.176C2.30366 615.938 2.37047 596.678 5.63848 578.107L5.66387 577.964L5.67657 577.821C7.2941 560.223 16.6393 541.742 28.3035 527.603C34.1148 520.559 40.4062 514.711 46.4314 510.654C52.4325 506.613 57.8413 504.567 62.0857 504.503Z" fill="#87CFE5" stroke="#0076B8" stroke-width="7"/>
<path d="M43.8178 610.293C43.8759 610.008 43.8145 609.703 43.6576 609.447C43.5001 609.192 43.2598 609.007 42.9793 608.931C42.6988 608.854 42.398 608.892 42.1327 609.033C41.868 609.174 41.6605 609.406 41.5662 609.681C41.3647 610.274 41.1721 610.85 40.9797 611.445C37.1836 621.889 36.8963 634.282 39.901 645.24C40.0545 645.865 40.2034 646.458 40.3672 647.081C42.5837 646.352 44.8003 645.623 47.0168 644.894C46.7908 644.331 46.5791 643.797 46.3633 643.234C42.3183 633.331 41.1399 622.836 43.4664 612.081C43.5798 611.48 43.6941 610.896 43.8178 610.293Z" fill="#0074AB"/>
<path d="M19.9754 609.224C20.0078 608.93 19.9166 608.625 19.7347 608.378C19.5521 608.132 19.2939 607.963 19.0038 607.908C18.7137 607.853 18.4117 607.915 18.1514 608.078C17.8918 608.241 17.6951 608.491 17.6175 608.776C17.4783 609.295 17.3473 609.786 17.214 610.307C14.6529 619.403 14.1899 629.556 15.1129 638.991C15.1558 639.527 15.1967 640.038 15.2424 640.573C15.321 641.528 15.7769 642.382 16.5522 642.941C17.325 643.5 18.3538 643.718 19.3699 643.554C20.386 643.39 21.2939 642.859 21.8517 642.086C22.4119 641.311 22.5761 640.357 22.3505 639.427C22.2276 638.916 22.1097 638.429 21.9899 637.92C19.7184 628.923 18.7297 620.072 19.8133 610.769C19.8659 610.245 19.9165 609.749 19.9754 609.224Z" fill="#007BA4"/>
</g>
<path d="M334.912 543.256L334.797 543.574L334.797 543.907C334.796 555.088 326.615 577.443 307.766 595.579C289.106 613.533 260.121 627.24 218.32 621.791C183.12 610.448 167.905 592.712 160.615 577.342C156.937 569.587 155.25 562.38 154.082 556.745C153.691 554.861 153.346 553.096 153 551.556C156.946 553.639 161.717 556.007 167.133 558.411C189.473 568.328 223.454 579.19 255.588 572.608C285.779 572.517 308.666 560.524 322.926 551.29C326.508 548.97 329.563 546.813 332.038 545.068C333.169 544.27 334.152 543.58 335 543C334.971 543.083 334.943 543.169 334.912 543.256Z" fill="#D20223" stroke="#076FA2" stroke-width="6"/>
<path d="M210.463 572.202L210.526 572.219L210.59 572.228L221.205 573.813L221.26 573.821L221.315 573.824L230.546 574.353L230.581 574.355L238 574.355L238 595.401L237.612 599.166L234.008 602.607L230.691 604.505L225.934 605L221.57 605L216.875 603.534L212.127 600.074L207.34 594.096L204.232 585.457L202 576.767L202 570L210.463 572.202Z" fill="#FEFEFE" stroke="#0578A5" stroke-width="3"/>
<path d="M301.294 591.254C294.446 597.239 274.361 605.884 257.47 609.542C240.124 610.539 241.493 613.354 241.493 608.212C252.449 597.239 264.318 588.594 304.489 587.264C308.597 587.264 305.858 587.264 301.294 591.254Z" fill="#FF1863"/>
<path d="M264.576 572.055L264.514 572.072L264.449 572.083L254.937 573.593L254.882 573.602L254.828 573.605L246.555 574.109L246.522 574.111L240 574.111L240 594.001L240.341 597.518L243.519 600.743L246.456 602.531L250.688 603L254.575 603L258.749 601.613L262.972 598.341L267.234 592.68L270.006 584.482L272 576.226L272 570L264.576 572.055Z" fill="#FEFEFE" stroke="#0875A4" stroke-width="3"/>
<path fill-rule="evenodd" clip-rule="evenodd" d="M305.27 641.441C300.407 650.699 312.578 656.679 344.497 673.052C360.992 681.514 380.92 675.939 388.972 660.611C397.023 645.283 390.167 625.968 373.671 617.507C341.753 601.134 308.931 622.275 305.27 641.441Z" fill="#FF9425"/>
<path fill-rule="evenodd" clip-rule="evenodd" d="M320.408 604.516C320.292 604.678 313.1 622.434 313.1 622.434C313.1 622.434 386.754 664.06 388.972 660.61C398.34 646.041 390.215 625.876 373.671 617.506C311.364 585.982 324.481 598.856 320.408 604.516Z" fill="#FF8600"/>
<path d="M378.688 622.958C374.43 628.247 370.497 633.744 368.349 640.161" stroke="#EF6A00" stroke-width="5" stroke-miterlimit="10" stroke-linecap="round" stroke-linejoin="round"/>
<path d="M350.067 609.08C345.695 611.654 343.901 616.02 342.386 620.726" stroke="#EF6A00" stroke-width="5" stroke-miterlimit="10" stroke-linecap="round" stroke-linejoin="round"/>
<path fill-rule="evenodd" clip-rule="evenodd" d="M383.796 657.358C383.796 657.358 398.332 677.155 404.984 682.718C411.607 688.257 424.286 683.793 426.152 679.63C428.711 673.919 425.502 665.456 416.887 662.606C408.772 659.921 383.796 657.358 383.796 657.358Z" fill="#129447"/>
<path fill-rule="evenodd" clip-rule="evenodd" d="M383.929 657.276C383.929 657.276 388.218 667 388.627 677.644C388.855 683.566 384.064 689.63 384.845 693.863C385.78 698.936 388.821 703.805 393.551 702.363C398.281 700.92 400.532 695.211 402.083 687.932C404.799 675.194 387.987 660.581 383.929 657.276Z" fill="#00AA63"/>
<path fill-rule="evenodd" clip-rule="evenodd" d="M382.895 657.912C382.895 657.912 381.812 666.572 378.477 676.65C376.114 683.793 370.468 691.382 370.048 691.858C364.297 698.372 369.268 704.732 376.34 702.853C382.5 701.216 386.7 695.825 388.543 690.687C393.298 677.437 387.419 658.689 382.895 657.912Z" fill="#129447"/>
<path fill-rule="evenodd" clip-rule="evenodd" d="M382.896 657.912C382.896 657.912 392.545 655.1 400.963 649.126C405.644 645.802 407.456 638.161 411.17 636.307C415.621 634.084 421.165 633.758 422.866 638.603C424.566 643.447 420.439 650.462 416.851 654.364C408.211 663.764 386.945 660.549 382.896 657.912Z" fill="#00AA63"/>
<path fill-rule="evenodd" clip-rule="evenodd" d="M382.896 657.912C382.896 657.912 391.759 650.462 397.651 641.766C402.427 634.718 403.743 628.377 405.37 626.138C408.362 622.019 413.332 621.378 416.185 625.578C419.037 629.779 416.615 638.747 414.309 642.43C407.206 653.778 388.643 658.971 382.896 657.912Z" fill="#129447"/>
<path d="M345.989 653.911C341.171 657.535 338.129 662.953 336.387 666.551" stroke="#EF6A00" stroke-width="5" stroke-miterlimit="10" stroke-linecap="round" stroke-linejoin="round"/>
<path d="M312.75 633.096C309.059 636.027 306.454 640.668 304.919 643.768" stroke="#EF6A00" stroke-width="5" stroke-miterlimit="10" stroke-linecap="round" stroke-linejoin="round"/>
<path d="M304.06 637.278C304.342 633.637 313.236 637.001 307.093 634.989C310.836 636.782 312.916 635.533 310.85 637.537C304.707 641.704 309.839 647.155 305.219 647.562C303.024 644.64 303.466 644.955 304.06 637.278Z" fill="#FF9425"/>
<path d="M315.28 597.497C323.069 593.642 333.084 598.439 322.536 599.188C324.258 601.797 324.927 605.109 321.484 604.93C312.526 602.496 319.552 609.194 311.119 601.751C310.757 600.965 309.043 602.541 315.28 597.497Z" fill="#FF9221"/>
<path d="M302.756 626.303C304.14 626.073 300.336 626.037 305.695 626.372C309.509 628.199 312.633 626.95 311.673 628.955C310.713 630.959 317.593 637.872 305.333 632.446C300.485 634.586 300.822 638.317 302.756 626.303Z" fill="#C65104"/>
<path d="M301.53 632.409C302.913 632.179 300.836 626.788 304.485 626.239C308.299 628.066 311.498 632.869 310.538 634.873C309.578 636.878 306.883 634.527 304.109 637.66C308.215 653.906 299.768 644.951 301.53 632.409Z" fill="#C65104"/>
<path d="M303.985 619.306C306.863 616.95 306.421 616.985 310.35 617C313.908 618.704 316.966 621.748 315.645 624.205C311.652 631.629 310.079 627.608 306.688 627.384C300.237 629.897 303.581 624.715 303.985 619.306Z" fill="#C65104"/>
<path d="M310.947 601.223C313.825 598.867 312.675 598.607 316.604 598.622C320.162 600.326 323.22 603.37 321.899 605.826C317.906 613.251 316.334 609.23 312.942 609.006C306.491 611.519 306.478 611.577 310.947 601.223Z" fill="#C65104"/>
<path d="M307.326 609.751C310.204 607.395 309.762 607.431 313.691 607.445C317.249 609.149 320.307 612.193 318.986 614.65C314.993 622.074 312.558 621.12 309.167 620.896C302.716 623.408 302.806 619.188 307.326 609.751Z" fill="#C65104"/>
<path d="M305.767 647.199C305.923 647.274 306.318 647.261 306.892 646.976C308.23 646.312 307.516 644.363 307.678 643.212C307.839 642.061 308.001 640.915 307.965 639.67C307.948 639.078 308.244 638.372 308.699 637.723C309.449 636.654 311.135 636.589 312.23 635.631C312.737 635.187 313.204 634.716 313.346 634.12C313.597 633.059 312.106 632.148 311.909 630.825C311.738 629.674 312.743 627.761 313.917 626.523C314.991 625.389 315.765 624.697 316.044 624.219C316.718 623.061 315.739 621.517 315.167 620.373C314.883 619.807 315.226 618.921 315.761 618.106C316.749 616.6 318.834 615.847 319.732 614.995C320.175 614.576 319.125 613.833 318.908 613.271C318.474 612.144 319.249 610.728 320.301 608.426C321.042 606.802 322.665 605.827 323.482 604.831C324.187 603.971 323.273 602.535 323.157 601.252C323.104 600.663 323.278 600.081 323.476 599.564C324.506 598.931 325.457 598.772 326.031 598.589C326.291 598.458 326.487 598.248 327.164 598.259" stroke="#C65104" stroke-width="2" stroke-linecap="round"/>
<path d="M313.141 617.326C312.779 615.029 321.52 618.712 315.535 616.368C319.278 618.161 320.976 617.711 319.42 618.65C314.488 620.287 320.131 624.673 315.957 624.148C313.443 621.891 313.903 622.17 313.141 617.326Z" fill="#FF9425"/>
<path d="M304.808 629.987C305.085 629.409 305.254 628.492 305.712 627.108C306.067 626.032 305.789 624.968 305.888 623.907C305.987 622.99 305.962 622.192 306.004 621.679C306.073 621.391 306.238 621.046 306.408 620.691" stroke="#C65104" stroke-width="2" stroke-linecap="round"/>
<path d="M304.246 646.828C304.229 646.598 303.955 646.112 303.637 645.713C303.302 645.294 303.2 644.769 303.036 644.268C302.863 643.74 302.961 643.054 302.997 642.49C303.033 641.927 303.016 641.431 303.019 640.897C303.021 640.344 302.919 639.781 302.799 639.189C302.679 638.596 302.681 638.064 302.528 637.455C302.373 636.84 302.324 636.156 302.222 635.528C302.081 634.655 302.019 634.139 302.166 633.519C302.363 632.689 302.059 631.579 302.027 630.801C301.999 630.117 302.015 629.193 302.016 628.525C302.017 627.771 301.882 627.258 302.021 626.567C302.124 626.052 302.265 625.571 302.457 624.64C302.611 623.887 302.789 623.24 302.954 622.494C303.15 621.61 303.296 621.12 303.4 620.635C303.509 620.125 303.507 619.618 303.559 619.108C303.609 618.627 303.786 618.148 304.02 617.35C304.646 615.209 305.519 613.91 305.887 612.919C306.077 612.479 306.303 612.093 306.795 611.2C307.183 610.436 307.853 609.037 308.543 607.596" stroke="#FF8600" stroke-width="2" stroke-linecap="round"/>
<path d="M314.831 598.714C314.659 598.898 314.142 599.271 313.64 599.611C313.17 599.93 312.895 600.457 312.55 600.826C312.203 601.195 311.857 601.564 311.545 602.081C311.22 602.621 310.405 603.708 309.813 604.724C309.383 605.578 309.099 606.256 308.91 606.785C308.737 607.19 308.411 607.871 308.075 608.573" stroke="#FF8600" stroke-width="2" stroke-linecap="round"/>
<path d="M389.317 537.636C384.592 535.243 381.772 535.614 379.57 536.975C376.891 538.63 374.322 542.208 371.353 548.033C365.694 559.138 359.207 577.335 347.274 594.905L347.102 595.159L346.886 595.38C335.821 606.741 326.012 616.914 319.953 627.221C314.141 637.111 311.97 646.807 315.507 657.579C325.144 666.84 333.841 671.647 341.556 673.392C349.356 675.156 356.444 673.862 362.931 670.423C376.164 663.408 386.929 647.437 394.66 630.239L394.72 630.106L394.79 629.981C403.339 614.514 405.991 593.975 404.286 575.726C403.436 566.633 401.517 558.261 398.812 551.518C396.119 544.805 392.793 540.074 389.317 537.636Z" fill="#87CFE5" stroke="#0076B8" stroke-width="7"/>
<path d="M344.994 635.413C345.106 635.144 345.328 634.926 345.602 634.803C345.876 634.68 346.179 634.662 346.453 634.757C346.728 634.851 346.956 635.051 347.096 635.317C347.236 635.582 347.277 635.89 347.201 636.171C347.034 636.775 346.87 637.36 346.695 637.96C343.967 648.733 337.242 659.146 328.6 666.523C328.121 666.954 327.666 667.361 327.18 667.784C325.755 665.935 324.332 664.087 322.908 662.239C323.411 661.9 323.886 661.577 324.381 661.232C333.291 655.313 340.162 647.293 344.281 637.089C344.524 636.528 344.757 635.981 344.994 635.413Z" fill="#0074AB"/>
<path d="M365.317 647.925C365.456 647.664 365.702 647.463 365.991 647.361C366.281 647.26 366.589 647.266 366.86 647.383C367.131 647.5 367.347 647.721 367.47 648.002C367.594 648.283 367.615 648.6 367.519 648.88C367.343 649.388 367.176 649.867 366.993 650.373C364.002 659.336 358.68 667.995 352.615 675.282C352.279 675.701 351.958 676.102 351.619 676.518C351.018 677.264 350.161 677.714 349.206 677.741C348.252 677.769 347.278 677.371 346.53 676.665C345.782 675.959 345.329 675.01 345.302 674.056C345.274 673.101 345.674 672.219 346.384 671.576C346.773 671.223 347.143 670.886 347.529 670.532C354.462 664.366 360.253 657.6 364.583 649.295C364.834 648.831 365.071 648.393 365.317 647.925Z" fill="#007BA4"/>
<defs>
<clipPath id="clip0_158_1617">
<rect width="151" height="90" fill="white" transform="translate(94 701.999)"/>
</clipPath>
<clipPath id="clip1_158_1617">
<rect width="151" height="90" fill="white" transform="matrix(-1 0 0 1 396.001 701.999)"/>
</clipPath>
<clipPath id="clip2_158_1617">
<rect width="196" height="148" fill="white" transform="translate(146 408)"/>
</clipPath>
<clipPath id="clip3_158_1617">
<rect width="76" height="149" fill="white" transform="translate(0 501)"/>
</clipPath>
</defs>
</svg>
