<svg width="476" height="786" viewBox="0 0 476 786" fill="none" xmlns="http://www.w3.org/2000/svg">
<g clip-path="url(#clip0_176_935)">
<path d="M86.9297 16.7143C96.5345 11.8058 106.682 11.5524 117.15 15.7188C127.798 19.9572 138.925 28.8568 149.706 42.484C171.246 69.7073 190.39 114.534 201.105 172.941C203.797 197.451 207.515 221.975 210.903 244.675C214.315 267.526 217.378 288.445 218.81 305.946C220.262 323.711 219.917 336.908 217.187 344.843C215.87 348.67 214.243 350.541 212.698 351.426C211.21 352.28 208.76 352.81 204.48 351.727L201.386 350.945L199.008 353.076C195.786 355.965 194.143 356.089 193.632 356.04C193.139 355.992 191.842 355.603 189.746 352.806C187.689 350.061 185.529 345.873 183.134 340.141C180.765 334.471 178.317 327.671 175.575 319.89C164.678 288.966 149.647 243.897 118.755 204.259L118.539 203.982L118.293 203.733L115.425 200.807C55.8798 139.71 39.4621 98.8817 41.6354 71.5833C43.8011 44.3815 64.7521 28.0479 86.9297 16.7143Z" fill="#8BCDE5" stroke="#0E6B96" stroke-width="12"/>
<path d="M307.345 63.0001C329.956 36.7664 354.435 28.2455 371.981 33.7082C390.948 39.6138 410.17 56.4775 412.328 84.658C414.514 113.194 399.378 155.113 344.924 210.922L344.816 211.034L344.714 211.149C311.199 249.217 298.305 291.6 289.629 320.998C287.446 328.398 285.571 334.835 283.702 340.279C281.814 345.774 280.078 349.805 278.313 352.52C276.553 355.23 275.28 355.846 274.561 355.996C273.785 356.157 271.966 356.128 268.378 353.876L266.01 352.389L263.352 353.247C259.04 354.637 256.325 354.41 254.592 353.718C252.907 353.044 251.211 351.556 249.678 348.449C246.419 341.847 245.025 330.25 245.345 314.045C245.977 281.971 253.048 236.878 258.547 190.113C265.454 131.368 284.962 88.9707 307.345 63.0001Z" fill="#87CFE5" stroke="#0E6B96" stroke-width="12"/>
<path d="M237.5 334.426C339.975 334.426 423 416.937 423 518.661C423 620.384 339.975 702.895 237.5 702.895C135.025 702.895 52.0005 620.384 52.0005 518.661C52.0005 416.937 135.025 334.426 237.5 334.426Z" fill="#86D0E3" stroke="#0C74AB" stroke-width="7"/>
<path d="M364.501 646.824C330.001 685.874 266.001 701.394 241.001 698.89C134.001 704.898 53.5005 610.673 56.0005 517.159C57.5664 458.584 43.0005 596.76 182.001 655.836C256.501 693.383 364.501 646.824 364.501 646.824Z" fill="#37B4CA"/>
<path opacity="0.77" d="M173.5 393.501L182.5 381.987L195 370.972L202 366.967L208.5 364.965L212 368.469L215 372.474L217 378.482L208.5 380.985L196 387.994L187.5 393.501L179 401.511L175 397.006L173.5 393.501Z" fill="#004F80"/>
<path opacity="0.7" d="M264.5 357.956H272.5L280 359.458L288 362.462L298 366.968L306.5 371.974L305 379.483L295 376.98L283.5 374.477L274.5 372.975H267.5H259.5V365.966L261 360.96L264.5 357.956Z" fill="#014C83"/>
<g clip-path="url(#clip1_176_935)">
<path d="M199 700.891C217.453 700.891 227.418 706.675 232.985 714.199C238.752 721.994 240.5 732.567 240.5 743.445C240.5 754.689 239.623 763.351 232.348 769.732C224.743 776.403 209.12 781.494 176.5 781.494C154.106 781.494 138.008 780.424 126.449 778.523C114.815 776.61 108.241 773.923 104.485 771.045C100.993 768.369 99.6442 765.306 99.1137 761.46C98.8339 759.432 98.7896 757.202 98.8315 754.653C98.8709 752.258 99.0004 749.257 99.0004 746.449C99.0004 742.955 101.71 738.187 108.265 732.613C114.594 727.232 123.607 721.877 134.018 717.118C154.892 707.577 180.368 700.891 199 700.891Z" fill="#87CFE5" stroke="#0178B2" stroke-width="9"/>
<path d="M235.614 730.881C246.614 773.936 213.16 778.991 174.5 778.991C135.84 778.991 114 775.987 108.5 768.978C95.5 762.97 149.114 767.928 177.114 764.925C262.114 764.925 216 687.875 235.614 730.881Z" fill="#31A7BA"/>
</g>
<g clip-path="url(#clip2_176_935)">
<path d="M291.001 700.891C272.548 700.891 262.583 706.675 257.016 714.199C251.249 721.994 249.501 732.567 249.501 743.445C249.501 754.689 250.378 763.351 257.653 769.732C265.258 776.403 280.881 781.494 313.501 781.494C335.895 781.494 351.993 780.424 363.552 778.523C375.186 776.61 381.76 773.923 385.516 771.045C389.008 768.369 390.357 765.306 390.887 761.46C391.167 759.432 391.211 757.202 391.169 754.653C391.13 752.258 391.001 749.257 391.001 746.449C391.001 742.955 388.291 738.187 381.736 732.613C375.407 727.232 366.394 721.877 355.983 717.118C335.109 707.577 309.633 700.891 291.001 700.891Z" fill="#87CFE5" stroke="#0178B2" stroke-width="9"/>
<path d="M254.387 730.881C243.387 773.936 276.841 778.991 315.501 778.991C354.161 778.991 376.001 775.987 381.501 768.978C394.501 762.97 340.887 767.928 312.887 764.925C227.887 764.925 274.001 687.875 254.387 730.881Z" fill="#31A7BA"/>
</g>
<g clip-path="url(#clip3_176_935)">
<path d="M193.5 431.549C218.481 431.549 239.5 455.778 239.5 485.618C239.5 502.455 236.057 515.942 228.772 525.17C221.589 534.268 210.302 539.687 193.5 539.687C168.615 539.687 149 516.052 149 485.618C149 455.184 168.615 431.549 193.5 431.549Z" fill="#FEFEFE" stroke="#0F79AB" stroke-width="6"/>
<path d="M288.176 404.515C301.85 404.515 314.49 412.127 323.821 424.786C333.149 437.44 339 454.951 339 474.104C339 495.678 335.187 513.118 327.027 525.086C319.002 536.858 306.53 543.692 288.176 543.692C274.506 543.692 262.294 536.238 253.386 523.693C244.469 511.135 239 493.617 239 474.104C239 454.59 244.469 437.073 253.386 424.514C262.294 411.97 274.506 404.515 288.176 404.515Z" fill="#FEFEFE" stroke="#0F79AB" stroke-width="6"/>
<path d="M241 549.7C252.046 549.7 261 540.062 261 528.172C261 516.283 252.046 506.645 241 506.645C229.955 506.645 221 516.283 221 528.172C221 540.062 229.955 549.7 241 549.7Z" fill="#ED6F7A"/>
<path d="M273.5 489.624C273.5 500.683 267.508 509.649 259.5 509.649C251.492 509.649 245 500.683 245 489.624C245 478.564 251.492 469.598 259.5 469.598C268.5 472.101 273.5 478.109 273.5 489.624Z" fill="#2B2A28"/>
<path d="M221.5 509.649C229.509 509.649 236 500.683 236 489.624C236 478.564 229.509 469.598 221.5 469.598C213.492 469.598 207 478.564 207 489.624C207 500.683 213.492 509.649 221.5 509.649Z" fill="#2B2A28"/>
<path d="M271 479.11C272 482.615 268.761 485.619 266 485.619C263.239 485.619 261 483.153 261 480.112C261 477.07 263.239 474.604 266 474.604C268.761 474.604 271 476.069 271 479.11Z" fill="#F9FAFB"/>
<path d="M233 479.11C234 482.615 230.762 485.619 228 485.619C225.239 485.619 223 483.153 223 480.112C223 477.07 225.239 474.604 228 474.604C230.762 474.604 233 476.069 233 479.11Z" fill="#F9FAFB"/>
</g>
<g clip-path="url(#clip4_176_935)">
<path d="M394.914 498.138C389.66 498.815 387.535 500.708 386.478 503.074C385.193 505.952 385.078 510.361 385.894 516.856C387.452 529.238 392.31 547.96 392.31 569.225V569.533L392.256 569.837C389.485 585.473 387.086 599.417 387.865 611.363C388.613 622.825 392.265 632.077 401.243 639.009C414.419 641.259 424.314 640.348 431.677 637.453C439.12 634.527 444.256 629.467 447.69 622.97C454.696 609.715 454.629 590.43 451.361 571.835L451.336 571.692L451.323 571.549C449.706 553.929 440.36 535.424 428.696 521.267C422.885 514.214 416.594 508.358 410.568 504.296C404.567 500.25 399.158 498.202 394.914 498.138Z" fill="#87CFE5" stroke="#0076B8" stroke-width="7"/>
<path d="M413.182 604.062C413.124 603.776 413.186 603.471 413.342 603.215C413.5 602.959 413.74 602.774 414.021 602.698C414.301 602.621 414.602 602.659 414.867 602.8C415.132 602.941 415.34 603.173 415.434 603.449C415.635 604.043 415.828 604.619 416.02 605.215C419.816 615.672 420.104 628.081 417.099 639.053C416.946 639.679 416.797 640.273 416.633 640.897C414.416 640.167 412.2 639.437 409.983 638.707C410.209 638.143 410.421 637.608 410.637 637.045C414.682 627.129 415.86 616.621 413.534 605.852C413.42 605.25 413.306 604.665 413.182 604.062Z" fill="#0074AB"/>
<path d="M437.025 602.993C436.992 602.698 437.083 602.393 437.265 602.146C437.448 601.899 437.706 601.73 437.996 601.675C438.286 601.62 438.588 601.682 438.849 601.845C439.108 602.008 439.305 602.259 439.383 602.544C439.522 603.064 439.653 603.555 439.786 604.077C442.347 613.185 442.81 623.351 441.887 632.798C441.844 633.334 441.803 633.846 441.758 634.382C441.679 635.338 441.223 636.193 440.448 636.753C439.675 637.312 438.646 637.531 437.63 637.366C436.614 637.202 435.706 636.67 435.148 635.897C434.588 635.121 434.424 634.165 434.65 633.234C434.772 632.722 434.89 632.235 435.01 631.725C437.282 622.717 438.27 613.854 437.187 604.54C437.134 604.015 437.084 603.518 437.025 602.993Z" fill="#007BA4"/>
</g>
<path d="M344.279 603C297.279 611.5 285.779 575.5 302.279 552" stroke="#076FA2" stroke-width="6" stroke-linecap="round"/>
<path d="M193.319 565.107C193.081 564.703 192.749 564.461 192.396 564.436C192.043 564.41 191.697 564.602 191.436 564.97C191.174 565.338 191.018 565.851 191.001 566.397C190.985 566.943 191.109 567.476 191.347 567.88C192.513 569.86 193.755 571.734 195.058 573.496C219.343 604.928 257.155 600.351 280.759 569.853C282.086 568.149 283.351 566.397 284.594 564.541C284.848 564.161 284.994 563.64 285 563.094C285.006 562.548 284.87 562.02 284.625 561.628C284.379 561.235 284.042 561.009 283.689 561C283.335 560.991 282.994 561.2 282.739 561.579C281.546 563.364 280.33 565.047 279.055 566.684C256.441 596.062 219.719 600.228 196.814 570.395C195.584 568.733 194.416 566.968 193.319 565.107Z" fill="#076FA2"/>
<path d="M217.334 591.963L217.375 591.979L217.417 591.987L224.306 593.487L224.341 593.495L224.377 593.498L230.368 593.998L230.391 594H235.205V613.916L234.954 617.48L232.614 620.735L230.462 622.531L227.375 623H224.543L221.495 621.612L218.414 618.339L215.308 612.682L213.291 604.506L211.842 596.282V589.879L217.334 591.963Z" fill="#FEFEFE" stroke="#0578A5" stroke-width="3"/>
<path d="M252.506 591.723L252.465 591.738L252.423 591.748L246.19 593.104L246.154 593.111L246.119 593.114L240.699 593.566L240.676 593.568H236.403V611.422L236.627 614.579L238.709 617.474L240.633 619.079L243.406 619.5H245.953L248.688 618.255L251.455 615.318L254.247 610.236L256.064 602.878L257.37 595.467V589.878L252.506 591.723Z" fill="#FEFEFE" stroke="#0875A4" stroke-width="3"/>
<path d="M126 601C173 609.5 184.5 573.5 168 550" stroke="#076FA2" stroke-width="6" stroke-linecap="round"/>
<path fill-rule="evenodd" clip-rule="evenodd" d="M149.836 676.94C152.609 687.023 139.441 690.265 104.763 699.443C86.8405 704.186 68.5626 694.484 63.9711 677.79C59.3794 661.096 70.2023 643.691 88.1245 638.949C122.803 629.771 150.353 657.434 149.836 676.94Z" fill="#FF9425"/>
<path fill-rule="evenodd" clip-rule="evenodd" d="M142.934 637.634C143.013 637.817 146.246 656.7 146.246 656.7C146.246 656.7 65.4016 681.633 63.9715 677.79C57.9312 661.556 70.1758 643.591 88.1254 638.948C155.728 621.459 140.164 631.235 142.934 637.634Z" fill="#FF8600"/>
<path d="M82.0595 643.203C85.0891 649.278 87.7572 655.489 88.4858 662.216" stroke="#EF6A00" stroke-width="5" stroke-miterlimit="10" stroke-linecap="round" stroke-linejoin="round"/>
<path d="M112.984 635.758C116.706 639.206 117.526 643.854 118.001 648.775" stroke="#EF6A00" stroke-width="5" stroke-miterlimit="10" stroke-linecap="round" stroke-linejoin="round"/>
<path fill-rule="evenodd" clip-rule="evenodd" d="M69.7219 675.717C69.7219 675.717 51.2938 691.953 43.607 695.966C35.9538 699.963 24.5203 692.894 23.5871 688.428C22.3068 682.303 27.249 674.72 36.2737 673.776C44.7754 672.886 69.7219 675.717 69.7219 675.717Z" fill="#129447"/>
<path fill-rule="evenodd" clip-rule="evenodd" d="M69.6093 675.609C69.6093 675.609 63.3427 684.192 60.6696 694.504C59.1818 700.241 62.5677 707.187 60.9005 711.156C58.9032 715.913 54.892 720.02 50.5793 717.6C46.2667 715.181 45.2875 709.123 45.3267 701.68C45.3941 688.656 64.9389 677.971 69.6093 675.609Z" fill="#00AA63"/>
<path fill-rule="evenodd" clip-rule="evenodd" d="M70.4836 676.452C70.4836 676.452 69.6926 685.143 70.7976 695.701C71.581 703.183 75.475 711.804 75.7841 712.358C80.0114 719.95 73.7967 725.102 67.2886 721.756C61.6213 718.84 58.6692 712.677 57.9661 707.264C56.1509 693.304 65.8981 676.245 70.4836 676.452Z" fill="#129447"/>
<path fill-rule="evenodd" clip-rule="evenodd" d="M70.4828 676.451C70.4828 676.451 61.657 671.643 54.7098 664.009C50.846 659.762 50.7085 651.91 47.4762 649.306C43.6024 646.183 38.2561 644.68 35.5599 649.05C32.8637 653.42 35.3977 661.155 38.0696 665.733C44.502 676.76 65.9639 678.162 70.4828 676.451Z" fill="#00AA63"/>
<path fill-rule="evenodd" clip-rule="evenodd" d="M70.4832 676.451C70.4832 676.451 63.4163 667.28 59.517 657.526C56.3565 649.621 56.4253 643.146 55.3145 640.611C53.2709 635.947 48.5522 634.26 44.8683 637.754C41.1846 641.248 41.6358 650.526 43.1015 654.617C47.6173 667.22 64.6426 676.259 70.4832 676.451Z" fill="#129447"/>
<path d="M107.393 680.425C111.326 684.995 113.14 690.937 114.073 694.824" stroke="#EF6A00" stroke-width="5" stroke-miterlimit="10" stroke-linecap="round" stroke-linejoin="round"/>
<path d="M144.311 667.19C147.291 670.841 148.844 675.932 149.682 679.288" stroke="#EF6A00" stroke-width="5" stroke-miterlimit="10" stroke-linecap="round" stroke-linejoin="round"/>
<path d="M151.907 673.132C152.409 669.515 143.002 670.901 149.433 670.248C145.393 671.2 143.628 669.535 145.218 671.934C150.33 677.317 144.152 681.547 148.578 682.931C151.347 680.545 150.847 680.758 151.907 673.132Z" fill="#FF9425"/>
<path d="M149.443 631.872C142.656 626.443 131.849 628.99 141.993 631.974C139.754 634.156 138.392 637.248 141.795 637.809C151.066 637.344 142.771 642.387 152.599 636.917C153.121 636.227 154.459 638.132 149.443 631.872Z" fill="#FF9221"/>
<path d="M155.525 662.688C154.222 662.168 157.946 662.945 152.639 662.128C148.523 663.098 145.737 661.211 146.247 663.374C146.757 665.537 138.56 670.821 151.696 668.139C155.974 671.265 154.848 674.838 155.525 662.688Z" fill="#C65104"/>
<path d="M155.419 668.915C154.116 668.396 157.297 663.572 153.85 662.256C149.733 663.227 145.582 667.235 146.092 669.399C146.602 671.562 149.736 669.841 151.778 673.495C144.296 688.488 154.461 681.545 155.419 668.915Z" fill="#C65104"/>
<path d="M155.819 655.59C153.511 652.673 153.935 652.803 150.094 651.978C146.254 652.883 142.616 655.203 143.382 657.885C145.697 665.991 148.092 662.399 151.453 662.905C157.218 666.737 155.058 660.96 155.819 655.59Z" fill="#C65104"/>
<path d="M152.88 636.438C150.572 633.521 151.75 633.513 147.909 632.688C144.069 633.593 140.431 635.913 141.197 638.595C143.512 646.702 145.907 643.109 149.268 643.615C155.034 647.447 155.034 647.507 152.88 636.438Z" fill="#C65104"/>
<path d="M154.596 645.542C152.288 642.625 152.712 642.755 148.871 641.93C145.031 642.835 141.393 645.155 142.159 647.837C144.474 655.943 147.056 655.531 150.417 656.036C156.182 659.869 156.996 655.726 154.596 645.542Z" fill="#C65104"/>
<path d="M148.121 682.459C147.951 682.499 147.569 682.401 147.069 682C145.903 681.066 147.018 679.314 147.105 678.156C147.193 676.997 147.281 675.843 147.581 674.634C147.724 674.059 147.586 673.307 147.28 672.575C146.776 671.371 145.143 670.947 144.278 669.777C143.877 669.235 143.521 668.675 143.51 668.063C143.492 666.972 145.142 666.401 145.617 665.151C146.03 664.062 145.457 661.979 144.575 660.519C143.767 659.182 143.159 658.34 142.989 657.814C142.577 656.539 143.864 655.239 144.667 654.244C145.065 653.751 144.919 652.813 144.571 651.902C143.928 650.22 142.052 649.04 141.355 648.015C141.012 647.511 142.197 647.01 142.529 646.507C143.194 645.498 142.739 643.95 142.203 641.476C141.826 639.731 140.449 638.432 139.864 637.285C139.358 636.294 140.558 635.087 140.946 633.858C141.123 633.294 141.077 632.688 140.994 632.141C140.123 631.302 139.228 630.944 138.707 630.643C138.481 630.459 138.334 630.212 137.67 630.078" stroke="#C65104" stroke-width="2" stroke-linecap="round"/>
<path d="M147.297 651.701C148.141 649.534 138.815 651.265 145.162 650.253C141.123 651.205 139.56 650.403 140.88 651.653C145.348 654.305 138.899 657.385 143.089 657.763C146.027 656.096 145.518 656.27 147.297 651.701Z" fill="#FF9425"/>
<path d="M152.734 665.849C152.587 665.225 152.617 664.294 152.465 662.843C152.349 661.717 152.847 660.736 152.978 659.678C153.076 658.761 153.271 657.988 153.339 657.478C153.334 657.181 153.246 656.809 153.156 656.426" stroke="#C65104" stroke-width="2" stroke-linecap="round"/>
<path d="M149.686 682.422C149.751 682.201 150.122 681.784 150.518 681.463C150.935 681.125 151.147 680.634 151.414 680.179C151.696 679.7 151.747 679.009 151.832 678.451C151.917 677.892 152.04 677.412 152.151 676.89C152.267 676.348 152.487 675.821 152.73 675.268C152.974 674.714 153.086 674.194 153.366 673.632C153.649 673.065 153.843 672.406 154.076 671.814C154.401 670.991 154.571 670.501 154.56 669.864C154.545 669.011 155.078 667.991 155.276 667.238C155.45 666.576 155.631 665.67 155.773 665.017C155.933 664.281 156.175 663.808 156.187 663.104C156.196 662.578 156.161 662.078 156.173 661.127C156.182 660.359 156.147 659.689 156.145 658.925C156.142 658.02 156.105 657.51 156.107 657.014C156.109 656.492 156.219 655.997 156.277 655.487C156.332 655.007 156.26 654.501 156.202 653.672C156.048 651.446 155.473 649.992 155.324 648.944C155.233 648.474 155.094 648.048 154.805 647.071C154.589 646.242 154.233 644.732 153.867 643.177" stroke="#FF8600" stroke-width="2" stroke-linecap="round"/>
<path d="M149.621 633.157C149.75 633.373 150.175 633.848 150.593 634.288C150.985 634.699 151.14 635.273 151.399 635.707C151.659 636.142 151.918 636.575 152.112 637.148C152.315 637.744 152.879 638.981 153.24 640.1C153.478 641.026 153.61 641.749 153.682 642.306C153.764 642.738 153.938 643.474 154.116 644.231" stroke="#FF8600" stroke-width="2" stroke-linecap="round"/>
<path d="M89.899 557.579C95.0268 556.251 97.7026 557.215 99.5627 559.015C101.826 561.204 103.572 565.248 105.228 571.573C108.385 583.63 110.835 602.793 118.74 622.506L118.854 622.791L119.017 623.054C127.401 636.516 134.811 648.549 138.528 659.912C142.094 670.815 142.144 680.751 136.388 690.519C124.995 697.508 115.472 700.346 107.562 700.403C99.5659 700.461 92.9182 697.683 87.3155 692.937C75.8858 683.258 68.7798 665.357 64.9011 646.904L64.8708 646.762L64.8291 646.624C59.7809 629.688 61.5764 609.057 67.1409 591.593C69.9123 582.892 73.5757 575.122 77.6581 569.113C81.7236 563.13 85.9829 559.218 89.899 557.579Z" fill="#87CFE5" stroke="#0076B8" stroke-width="7"/>
<path d="M112.316 662.567C112.264 662.28 112.093 662.02 111.852 661.841C111.611 661.663 111.319 661.581 111.031 661.614C110.742 661.648 110.477 661.795 110.283 662.024C110.089 662.253 109.984 662.546 109.998 662.836C110.032 663.462 110.067 664.068 110.111 664.692C110.474 675.799 114.82 687.408 121.687 696.461C122.062 696.984 122.421 697.478 122.805 697.995C124.591 696.494 126.377 694.992 128.163 693.491C127.744 693.052 127.349 692.636 126.939 692.193C119.498 684.507 114.499 675.205 112.655 664.357C112.537 663.757 112.426 663.172 112.316 662.567Z" fill="#0074AB"/>
<path d="M89.7893 670.45C89.7098 670.165 89.5114 669.916 89.2509 669.754C88.9894 669.593 88.6871 669.533 88.3978 669.59C88.1076 669.647 87.8501 669.817 87.6699 670.065C87.4886 670.313 87.3997 670.618 87.434 670.912C87.4974 671.446 87.5589 671.949 87.6295 672.483C88.6369 681.878 91.9862 691.474 96.3549 699.888C96.5936 700.37 96.8223 700.829 97.0637 701.309C97.4917 702.165 98.2333 702.788 99.1603 703.018C100.086 703.249 101.122 703.069 102.004 702.539C102.886 702.009 103.531 701.178 103.761 700.252C103.993 699.325 103.79 698.378 103.234 697.599C102.93 697.17 102.64 696.762 102.339 696.334C96.8825 688.829 92.6702 680.983 90.2137 671.944C90.0676 671.438 89.93 670.959 89.7893 670.45Z" fill="#007BA4"/>
</g>
<defs>
<clipPath id="clip0_176_935">
<rect width="476" height="786" fill="white"/>
</clipPath>
<clipPath id="clip1_176_935">
<rect width="151" height="90.1148" fill="white" transform="translate(94 695.885)"/>
</clipPath>
<clipPath id="clip2_176_935">
<rect width="151" height="90.1148" fill="white" transform="matrix(-1 0 0 1 396.001 695.885)"/>
</clipPath>
<clipPath id="clip3_176_935">
<rect width="196" height="148.189" fill="white" transform="translate(146 401.511)"/>
</clipPath>
<clipPath id="clip4_176_935">
<rect width="76" height="149.19" fill="white" transform="matrix(-1 0 0 1 457 494.63)"/>
</clipPath>
</defs>
</svg>
