<svg width="476" height="786" viewBox="0 0 476 786" fill="none" xmlns="http://www.w3.org/2000/svg">
<g clip-path="url(#clip0_159_2264)">
<g clip-path="url(#clip1_159_2264)">
<g clip-path="url(#clip2_159_2264)">
<path d="M86.9296 16.7143C96.5345 11.8058 106.682 11.5524 117.15 15.7188C127.798 19.9572 138.925 28.8568 149.706 42.484C171.246 69.7073 190.39 114.534 201.105 172.941C203.797 197.451 207.515 221.975 210.903 244.675C214.315 267.526 217.378 288.445 218.81 305.947C220.262 323.711 219.917 336.908 217.187 344.843C215.87 348.67 214.243 350.541 212.698 351.426C211.21 352.28 208.76 352.81 204.48 351.727L201.386 350.945L199.008 353.076C195.786 355.965 194.143 356.089 193.632 356.04C193.139 355.992 191.842 355.603 189.746 352.806C187.689 350.061 185.529 345.873 183.134 340.141C180.765 334.471 178.317 327.671 175.575 319.89C164.678 288.966 149.647 243.897 118.755 204.259L118.539 203.982L118.293 203.733L115.425 200.807C55.8798 139.71 39.4621 98.8817 41.6354 71.5833C43.8011 44.3815 64.7521 28.0479 86.9296 16.7143Z" fill="#8BCDE5" stroke="#0E6B96" stroke-width="12"/>
<path d="M307.345 63.0001C329.956 36.7664 354.435 28.2455 371.981 33.7082C390.948 39.6138 410.17 56.4775 412.328 84.658C414.514 113.194 399.378 155.113 344.924 210.922L344.816 211.034L344.714 211.149C311.199 249.217 298.305 291.6 289.629 320.998C287.446 328.398 285.571 334.835 283.702 340.279C281.814 345.774 280.078 349.805 278.313 352.52C276.553 355.23 275.28 355.846 274.561 355.996C273.785 356.157 271.966 356.128 268.378 353.876L266.01 352.389L263.352 353.247C259.04 354.637 256.325 354.41 254.592 353.718C252.907 353.044 251.211 351.556 249.678 348.449C246.419 341.847 245.025 330.25 245.345 314.045C245.977 281.971 253.048 236.878 258.547 190.113C265.454 131.368 284.962 88.9707 307.345 63.0001Z" fill="#87CFE5" stroke="#0E6B96" stroke-width="12"/>
<path d="M237.5 334.426C339.975 334.426 423 416.937 423 518.661C423 620.384 339.975 702.895 237.5 702.895C135.025 702.895 52.0005 620.384 52.0005 518.661C52.0005 416.937 135.025 334.426 237.5 334.426Z" fill="#86D0E3" stroke="#0C74AB" stroke-width="7"/>
<path d="M364.501 646.824C330.001 685.874 266.001 701.394 241.001 698.89C134.001 704.898 53.5005 610.673 56.0005 517.159C57.5664 458.584 43.0005 596.76 182.001 655.836C256.501 693.383 364.501 646.824 364.501 646.824Z" fill="#37B4CA"/>
<path opacity="0.77" d="M173.5 393.501L182.5 381.987L195 370.972L202 366.967L208.5 364.965L212 368.469L215 372.474L217 378.482L208.5 380.985L196 387.994L187.5 393.501L179 401.511L175 397.006L173.5 393.501Z" fill="#004F80"/>
<path opacity="0.7" d="M264.5 357.956H272.5L280 359.458L288 362.462L298 366.968L306.5 371.974L305 379.483L295 376.98L283.5 374.477L274.5 372.975H267.5H259.5V365.966L261 360.96L264.5 357.956Z" fill="#014C83"/>
<g clip-path="url(#clip3_159_2264)">
<path d="M199 700.891C217.453 700.891 227.418 706.675 232.985 714.199C238.752 721.994 240.5 732.567 240.5 743.445C240.5 754.689 239.623 763.351 232.348 769.732C224.743 776.403 209.12 781.494 176.5 781.494C154.106 781.494 138.008 780.424 126.449 778.523C114.815 776.61 108.241 773.923 104.485 771.045C100.993 768.369 99.6442 765.306 99.1137 761.46C98.8339 759.432 98.7896 757.202 98.8315 754.653C98.8709 752.258 99.0004 749.257 99.0004 746.449C99.0004 742.955 101.71 738.187 108.265 732.613C114.594 727.232 123.607 721.877 134.018 717.118C154.892 707.577 180.368 700.891 199 700.891Z" fill="#87CFE5" stroke="#0178B2" stroke-width="9"/>
<path d="M235.614 730.881C246.614 773.936 213.16 778.991 174.5 778.991C135.84 778.991 114 775.987 108.5 768.978C95.5 762.97 149.114 767.928 177.114 764.925C262.114 764.925 216 687.875 235.614 730.881Z" fill="#31A7BA"/>
</g>
<g clip-path="url(#clip4_159_2264)">
<path d="M291.001 700.891C272.548 700.891 262.583 706.675 257.016 714.199C251.249 721.994 249.501 732.567 249.501 743.445C249.501 754.689 250.378 763.351 257.653 769.732C265.258 776.403 280.881 781.494 313.501 781.494C335.895 781.494 351.993 780.424 363.552 778.523C375.186 776.61 381.76 773.923 385.516 771.045C389.008 768.369 390.357 765.306 390.887 761.46C391.167 759.432 391.211 757.202 391.169 754.653C391.13 752.258 391.001 749.257 391.001 746.449C391.001 742.955 388.291 738.187 381.736 732.613C375.407 727.232 366.394 721.877 355.983 717.118C335.109 707.577 309.633 700.891 291.001 700.891Z" fill="#87CFE5" stroke="#0178B2" stroke-width="9"/>
<path d="M254.387 730.881C243.387 773.936 276.841 778.991 315.501 778.991C354.161 778.991 376.001 775.987 381.501 768.978C394.501 762.97 340.887 767.928 312.887 764.925C227.887 764.925 274.001 687.875 254.387 730.881Z" fill="#31A7BA"/>
</g>
<g clip-path="url(#clip5_159_2264)">
<path d="M193.5 431.549C218.481 431.549 239.5 455.778 239.5 485.618C239.5 502.455 236.057 515.942 228.772 525.17C221.589 534.268 210.302 539.687 193.5 539.687C168.615 539.687 149 516.052 149 485.618C149 455.184 168.615 431.549 193.5 431.549Z" fill="#FEFEFE" stroke="#0F79AB" stroke-width="6"/>
<path d="M288.176 404.515C301.85 404.515 314.49 412.127 323.821 424.786C333.149 437.44 339 454.951 339 474.104C339 495.678 335.187 513.118 327.027 525.086C319.002 536.858 306.53 543.692 288.176 543.692C274.506 543.692 262.294 536.238 253.386 523.693C244.469 511.135 239 493.617 239 474.104C239 454.59 244.469 437.073 253.386 424.514C262.294 411.97 274.506 404.515 288.176 404.515Z" fill="#FEFEFE" stroke="#0F79AB" stroke-width="6"/>
<path d="M241 549.7C252.046 549.7 261 540.062 261 528.172C261 516.283 252.046 506.645 241 506.645C229.955 506.645 221 516.283 221 528.172C221 540.062 229.955 549.7 241 549.7Z" fill="#ED6F7A"/>
<path d="M273.5 489.624C273.5 500.683 267.508 509.649 259.5 509.649C251.492 509.649 245 500.683 245 489.624C245 478.564 251.492 469.598 259.5 469.598C268.5 472.101 273.5 478.109 273.5 489.624Z" fill="#2B2A28"/>
<path d="M221.5 509.649C229.509 509.649 236 500.683 236 489.624C236 478.564 229.509 469.598 221.5 469.598C213.492 469.598 207 478.564 207 489.624C207 500.683 213.492 509.649 221.5 509.649Z" fill="#2B2A28"/>
<path d="M271 479.11C272 482.615 268.761 485.619 266 485.619C263.239 485.619 261 483.153 261 480.112C261 477.07 263.239 474.604 266 474.604C268.761 474.604 271 476.069 271 479.11Z" fill="#F9FAFB"/>
<path d="M233 479.11C234 482.615 230.762 485.619 228 485.619C225.239 485.619 223 483.153 223 480.112C223 477.07 225.239 474.604 228 474.604C230.762 474.604 233 476.069 233 479.11Z" fill="#F9FAFB"/>
</g>
<g clip-path="url(#clip6_159_2264)">
<path d="M62.086 498.138C67.3401 498.815 69.4648 500.708 70.5216 503.074C71.8074 505.952 71.9225 510.361 71.1056 516.856C69.5483 529.238 64.6905 547.96 64.6905 569.225V569.533L64.7442 569.837C67.5148 585.473 69.9142 599.417 69.1349 611.363C68.3871 622.825 64.7354 632.077 55.7569 639.009C42.5812 641.259 32.6863 640.348 25.3233 637.453C17.8798 634.527 12.7443 629.467 9.30963 622.97C2.30391 609.715 2.37071 590.43 5.63872 571.835L5.66411 571.692L5.67681 571.549C7.29434 553.929 16.6396 535.424 28.3038 521.267C34.1151 514.214 40.4065 508.358 46.4317 504.296C52.4328 500.25 57.8416 498.202 62.086 498.138Z" fill="#87CFE5" stroke="#0076B8" stroke-width="7"/>
<path d="M43.8178 604.062C43.8759 603.776 43.8145 603.471 43.6576 603.215C43.5001 602.959 43.2598 602.774 42.9793 602.698C42.6988 602.621 42.398 602.659 42.1327 602.8C41.868 602.941 41.6605 603.173 41.5662 603.449C41.3647 604.043 41.1721 604.619 40.9797 605.215C37.1836 615.672 36.8963 628.081 39.901 639.053C40.0545 639.679 40.2034 640.273 40.3672 640.897C42.5837 640.167 44.8003 639.437 47.0168 638.707C46.7908 638.143 46.5791 637.608 46.3633 637.045C42.3183 627.129 41.1399 616.621 43.4664 605.852C43.5798 605.25 43.6941 604.665 43.8178 604.062Z" fill="#0074AB"/>
<path d="M19.9754 602.993C20.0078 602.698 19.9166 602.393 19.7347 602.146C19.5521 601.899 19.2939 601.73 19.0038 601.675C18.7137 601.62 18.4117 601.682 18.1514 601.845C17.8918 602.008 17.6951 602.259 17.6175 602.544C17.4783 603.064 17.3473 603.555 17.214 604.077C14.6529 613.185 14.1899 623.351 15.1129 632.798C15.1558 633.334 15.1967 633.846 15.2424 634.382C15.321 635.338 15.7769 636.193 16.5522 636.753C17.325 637.312 18.3538 637.531 19.3699 637.366C20.386 637.202 21.2939 636.67 21.8517 635.897C22.4119 635.121 22.5761 634.165 22.3505 633.234C22.2276 632.722 22.1097 632.235 21.9899 631.725C19.7184 622.717 18.7297 613.854 19.8133 604.54C19.8659 604.015 19.9165 603.518 19.9754 602.993Z" fill="#007BA4"/>
</g>
<path d="M341.427 589.466C297.198 601.331 289.869 570.396 307.279 548" stroke="#076FA2" stroke-width="6" stroke-linecap="round"/>
<path d="M193.319 565.107C193.081 564.703 192.749 564.461 192.396 564.436C192.043 564.41 191.697 564.602 191.436 564.97C191.174 565.338 191.018 565.851 191.001 566.397C190.985 566.943 191.109 567.476 191.347 567.88C192.513 569.86 193.755 571.734 195.058 573.496C219.343 604.928 257.155 600.351 280.759 569.853C282.086 568.149 283.351 566.397 284.594 564.541C284.848 564.161 284.994 563.64 285 563.094C285.006 562.548 284.87 562.02 284.625 561.628C284.379 561.235 284.042 561.009 283.689 561C283.335 560.991 282.994 561.2 282.739 561.579C281.546 563.364 280.33 565.047 279.055 566.684C256.441 596.062 219.719 600.228 196.814 570.395C195.584 568.733 194.416 566.968 193.319 565.107Z" fill="#076FA2"/>
<path d="M217.334 591.963L217.375 591.979L217.417 591.987L224.306 593.487L224.341 593.495L224.377 593.498L230.368 593.998L230.391 594H235.205V613.916L234.954 617.48L232.614 620.735L230.462 622.531L227.375 623H224.543L221.495 621.612L218.414 618.339L215.308 612.682L213.291 604.506L211.842 596.282V589.879L217.334 591.963Z" fill="#FEFEFE" stroke="#0578A5" stroke-width="3"/>
<path d="M252.506 591.723L252.465 591.738L252.423 591.748L246.19 593.104L246.154 593.111L246.119 593.114L240.699 593.566L240.676 593.568H236.403V611.422L236.627 614.579L238.709 617.474L240.633 619.079L243.406 619.5H245.953L248.688 618.255L251.455 615.318L254.247 610.236L256.064 602.878L257.37 595.467V589.878L252.506 591.723Z" fill="#FEFEFE" stroke="#0875A4" stroke-width="3"/>
<path d="M126 601C173 609.5 184.5 573.5 168 550" stroke="#076FA2" stroke-width="6" stroke-linecap="round"/>
</g>
</g>
<g clip-path="url(#clip7_159_2264)">
<path d="M394.612 578.083C390.673 574.542 387.854 574.165 385.374 574.905C382.356 575.805 378.944 578.59 374.56 583.441C366.202 592.687 355.198 608.566 339.1 622.42L338.867 622.62L338.602 622.778C324.959 630.863 312.837 638.129 304.303 646.502C296.114 654.535 291.492 663.331 292.1 674.652C298.992 686.105 306.136 693.011 313.13 696.706C320.201 700.441 327.381 701.039 334.54 699.409C349.143 696.084 363.698 683.47 375.643 668.879L375.735 668.767L375.836 668.664C388.119 655.959 396.031 636.821 399.139 618.757C400.688 609.758 401.017 601.174 400.162 593.96C399.311 586.776 397.333 581.342 394.612 578.083Z" fill="#87CFE5" stroke="#0076B8" stroke-width="7"/>
<path d="M326.344 660.935C326.522 660.705 326.793 660.552 327.09 660.505C327.386 660.457 327.683 660.519 327.924 660.681C328.164 660.844 328.332 661.097 328.398 661.39C328.464 661.682 328.424 661.991 328.276 662.242C327.959 662.781 327.648 663.303 327.322 663.837C321.882 673.527 312.676 681.828 302.411 686.699C301.836 686.991 301.29 687.264 300.711 687.546C299.817 685.39 298.925 683.235 298.031 681.079C298.605 680.883 299.148 680.696 299.716 680.492C309.86 677.099 318.583 671.146 325.218 662.367C325.599 661.889 325.967 661.421 326.344 660.935Z" fill="#0074AB"/>
<path d="M342.705 678.31C342.907 678.094 343.198 677.964 343.503 677.941C343.809 677.918 344.105 678.004 344.336 678.188C344.567 678.372 344.718 678.642 344.763 678.945C344.81 679.248 344.748 679.56 344.582 679.805C344.28 680.25 343.994 680.668 343.685 681.11C338.462 688.984 331.068 695.957 323.314 701.412C322.881 701.73 322.466 702.032 322.031 702.346C321.256 702.91 320.311 703.121 319.382 702.898C318.454 702.676 317.617 702.039 317.079 701.162C316.541 700.285 316.351 699.251 316.573 698.323C316.795 697.393 317.411 696.647 318.264 696.211C318.731 695.971 319.177 695.742 319.641 695.501C327.941 691.354 335.295 686.331 341.64 679.441C342.003 679.059 342.345 678.697 342.705 678.31Z" fill="#007BA4"/>
</g>
</g>
<defs>
<clipPath id="clip0_159_2264">
<rect width="476" height="786" fill="white"/>
</clipPath>
<clipPath id="clip1_159_2264">
<rect width="476" height="786" fill="white"/>
</clipPath>
<clipPath id="clip2_159_2264">
<rect width="476" height="786" fill="white"/>
</clipPath>
<clipPath id="clip3_159_2264">
<rect width="151" height="90.1148" fill="white" transform="translate(94 695.885)"/>
</clipPath>
<clipPath id="clip4_159_2264">
<rect width="151" height="90.1148" fill="white" transform="matrix(-1 0 0 1 396.001 695.885)"/>
</clipPath>
<clipPath id="clip5_159_2264">
<rect width="196" height="148.189" fill="white" transform="translate(146 401.511)"/>
</clipPath>
<clipPath id="clip6_159_2264">
<rect width="76" height="149.19" fill="white" transform="translate(0 494.63)"/>
</clipPath>
<clipPath id="clip7_159_2264">
<rect width="158.308" height="110.56" fill="white" transform="translate(260 629.923) rotate(-28.6585)"/>
</clipPath>
</defs>
</svg>
