<svg width="476" height="786" viewBox="0 0 476 786" fill="none" xmlns="http://www.w3.org/2000/svg">
<g clip-path="url(#clip0_176_1477)">
<g clip-path="url(#clip1_176_1477)">
<g clip-path="url(#clip2_176_1477)">
<path d="M86.9297 16.7143C96.5345 11.8058 106.682 11.5524 117.15 15.7188C127.798 19.9572 138.925 28.8568 149.706 42.484C171.246 69.7073 190.39 114.534 201.105 172.941C203.797 197.451 207.515 221.975 210.903 244.675C214.315 267.526 217.378 288.445 218.81 305.946C220.262 323.711 219.917 336.908 217.187 344.843C215.87 348.67 214.243 350.541 212.698 351.426C211.21 352.28 208.76 352.81 204.48 351.727L201.386 350.945L199.008 353.076C195.786 355.965 194.143 356.089 193.632 356.04C193.139 355.992 191.842 355.603 189.746 352.806C187.689 350.061 185.529 345.873 183.134 340.141C180.765 334.471 178.317 327.671 175.575 319.89C164.678 288.966 149.647 243.897 118.755 204.259L118.539 203.982L118.293 203.733L115.425 200.807C55.8798 139.71 39.4621 98.8817 41.6354 71.5833C43.8011 44.3815 64.7521 28.0479 86.9297 16.7143Z" fill="#8BCDE5" stroke="#0E6B96" stroke-width="12"/>
<path d="M307.345 63.0001C329.956 36.7664 354.435 28.2455 371.981 33.7082C390.948 39.6138 410.17 56.4775 412.328 84.658C414.514 113.194 399.378 155.113 344.924 210.922L344.816 211.034L344.714 211.149C311.199 249.217 298.305 291.6 289.629 320.998C287.446 328.398 285.571 334.835 283.702 340.279C281.814 345.774 280.078 349.805 278.313 352.52C276.553 355.23 275.28 355.846 274.561 355.996C273.785 356.157 271.966 356.128 268.378 353.876L266.01 352.389L263.352 353.247C259.04 354.637 256.325 354.41 254.592 353.718C252.907 353.044 251.211 351.556 249.678 348.449C246.419 341.847 245.025 330.25 245.345 314.045C245.977 281.971 253.048 236.878 258.547 190.113C265.454 131.368 284.962 88.9707 307.345 63.0001Z" fill="#87CFE5" stroke="#0E6B96" stroke-width="12"/>
<path d="M237.5 334.426C339.975 334.426 423 416.937 423 518.661C423 620.384 339.975 702.895 237.5 702.895C135.025 702.895 52.0005 620.384 52.0005 518.661C52.0005 416.937 135.025 334.426 237.5 334.426Z" fill="#86D0E3" stroke="#0C74AB" stroke-width="7"/>
<path d="M364.501 646.824C330.001 685.874 266.001 701.394 241.001 698.89C134.001 704.898 53.5005 610.673 56.0005 517.159C57.5664 458.584 43.0005 596.76 182.001 655.836C256.501 693.383 364.501 646.824 364.501 646.824Z" fill="#37B4CA"/>
<path opacity="0.77" d="M173.5 393.501L182.5 381.987L195 370.972L202 366.967L208.5 364.965L212 368.469L215 372.474L217 378.482L208.5 380.985L196 387.994L187.5 393.501L179 401.511L175 397.006L173.5 393.501Z" fill="#004F80"/>
<path opacity="0.7" d="M264.5 357.956H272.5L280 359.458L288 362.462L298 366.968L306.5 371.974L305 379.483L295 376.98L283.5 374.477L274.5 372.975H267.5H259.5V365.966L261 360.96L264.5 357.956Z" fill="#014C83"/>
<g clip-path="url(#clip3_176_1477)">
<path d="M199 700.892C217.453 700.892 227.418 706.676 232.985 714.2C238.752 721.995 240.5 732.568 240.5 743.446C240.5 754.69 239.623 763.351 232.348 769.732C224.743 776.403 209.12 781.494 176.5 781.494C154.106 781.494 138.008 780.425 126.449 778.524C114.815 776.61 108.241 773.924 104.485 771.045C100.993 768.37 99.6442 765.307 99.1137 761.461C98.8339 759.432 98.7896 757.202 98.8315 754.653C98.8709 752.258 99.0004 749.258 99.0004 746.45C99.0004 742.955 101.71 738.187 108.265 732.614C114.594 727.233 123.607 721.877 134.018 717.118C154.892 707.578 180.368 700.892 199 700.892Z" fill="#87CFE5" stroke="#0178B2" stroke-width="9"/>
<path d="M235.614 730.881C246.614 773.936 213.16 778.99 174.5 778.99C135.84 778.99 114 775.987 108.5 768.978C95.5 762.97 149.114 767.928 177.114 764.924C262.114 764.924 216 687.874 235.614 730.881Z" fill="#31A7BA"/>
</g>
<g clip-path="url(#clip4_176_1477)">
<path d="M291.001 700.892C272.548 700.892 262.583 706.676 257.016 714.2C251.249 721.995 249.501 732.568 249.501 743.446C249.501 754.69 250.378 763.351 257.653 769.732C265.258 776.403 280.881 781.494 313.501 781.494C335.895 781.494 351.993 780.425 363.552 778.524C375.186 776.61 381.76 773.924 385.516 771.045C389.008 768.37 390.357 765.307 390.887 761.461C391.167 759.432 391.211 757.202 391.169 754.653C391.13 752.258 391.001 749.258 391.001 746.45C391.001 742.955 388.291 738.187 381.736 732.614C375.407 727.233 366.394 721.877 355.983 717.118C335.109 707.578 309.633 700.892 291.001 700.892Z" fill="#87CFE5" stroke="#0178B2" stroke-width="9"/>
<path d="M254.387 730.881C243.387 773.936 276.841 778.99 315.501 778.99C354.161 778.99 376.001 775.987 381.501 768.978C394.501 762.97 340.887 767.928 312.887 764.924C227.887 764.924 274.001 687.874 254.387 730.881Z" fill="#31A7BA"/>
</g>
<g clip-path="url(#clip5_176_1477)">
<path d="M193.5 431.55C218.481 431.55 239.5 455.778 239.5 485.619C239.5 502.455 236.057 515.942 228.772 525.17C221.589 534.269 210.302 539.688 193.5 539.688C168.615 539.688 149 516.052 149 485.619C149 455.185 168.615 431.55 193.5 431.55Z" fill="#FEFEFE" stroke="#0F79AB" stroke-width="6"/>
<path d="M288.176 404.516C301.85 404.516 314.49 412.128 323.821 424.787C333.149 437.441 339 454.952 339 474.104C339 495.678 335.187 513.118 327.027 525.086C319.002 536.858 306.53 543.693 288.176 543.693C274.506 543.693 262.294 536.238 253.386 523.693C244.469 511.135 239 493.618 239 474.104C239 454.591 244.469 437.073 253.386 424.515C262.294 411.97 274.506 404.516 288.176 404.516Z" fill="#FEFEFE" stroke="#0F79AB" stroke-width="6"/>
<path d="M241 549.7C252.046 549.7 261 540.062 261 528.173C261 516.284 252.046 506.646 241 506.646C229.955 506.646 221 516.284 221 528.173C221 540.062 229.955 549.7 241 549.7Z" fill="#ED6F7A"/>
<path d="M273.5 489.624C273.5 500.684 267.508 509.65 259.5 509.65C251.492 509.65 245 500.684 245 489.624C245 478.564 251.492 469.599 259.5 469.599C268.5 472.102 273.5 478.109 273.5 489.624Z" fill="#2B2A28"/>
<path d="M221.5 509.65C229.509 509.65 236 500.684 236 489.624C236 478.564 229.509 469.599 221.5 469.599C213.492 469.599 207 478.564 207 489.624C207 500.684 213.492 509.65 221.5 509.65Z" fill="#2B2A28"/>
<path d="M271 479.11C272 482.615 268.761 485.619 266 485.619C263.239 485.619 261 483.153 261 480.112C261 477.07 263.239 474.604 266 474.604C268.761 474.604 271 476.069 271 479.11Z" fill="#F9FAFB"/>
<path d="M233 479.11C234 482.615 230.762 485.619 228 485.619C225.239 485.619 223 483.153 223 480.112C223 477.07 225.239 474.604 228 474.604C230.762 474.604 233 476.069 233 479.11Z" fill="#F9FAFB"/>
</g>
<g clip-path="url(#clip6_176_1477)">
<path d="M413.914 498.138C408.66 498.815 406.535 500.708 405.478 503.074C404.193 505.952 404.078 510.361 404.894 516.856C406.452 529.238 411.31 547.96 411.31 569.225V569.533L411.256 569.837C408.485 585.473 406.086 599.417 406.865 611.363C407.613 622.825 411.265 632.077 420.243 639.009C433.419 641.259 443.314 640.348 450.677 637.453C458.12 634.527 463.256 629.467 466.69 622.97C473.696 609.715 473.629 590.43 470.361 571.835L470.336 571.692L470.323 571.549C468.706 553.929 459.36 535.424 447.696 521.267C441.885 514.214 435.594 508.358 429.568 504.296C423.567 500.25 418.158 498.202 413.914 498.138Z" fill="#87CFE5" stroke="#0076B8" stroke-width="7"/>
<path d="M432.182 604.061C432.124 603.776 432.186 603.47 432.342 603.214C432.5 602.959 432.74 602.773 433.021 602.697C433.301 602.62 433.602 602.658 433.867 602.8C434.132 602.941 434.34 603.173 434.434 603.448C434.635 604.042 434.828 604.619 435.02 605.215C438.816 615.672 439.104 628.081 436.099 639.053C435.946 639.679 435.797 640.272 435.633 640.896C433.416 640.166 431.2 639.436 428.983 638.706C429.209 638.143 429.421 637.608 429.637 637.044C433.682 627.129 434.86 616.62 432.534 605.851C432.42 605.25 432.306 604.665 432.182 604.061Z" fill="#0074AB"/>
<path d="M456.025 602.992C455.992 602.697 456.083 602.392 456.265 602.145C456.448 601.898 456.706 601.729 456.996 601.674C457.286 601.619 457.588 601.681 457.849 601.844C458.108 602.007 458.305 602.258 458.383 602.543C458.522 603.063 458.653 603.554 458.786 604.076C461.347 613.184 461.81 623.35 460.887 632.797C460.844 633.333 460.803 633.845 460.758 634.381C460.679 635.337 460.223 636.192 459.448 636.752C458.675 637.311 457.646 637.53 456.63 637.365C455.614 637.201 454.706 636.67 454.148 635.896C453.588 635.12 453.424 634.164 453.65 633.233C453.772 632.721 453.89 632.234 454.01 631.724C456.282 622.716 457.27 613.853 456.187 604.539C456.134 604.014 456.084 603.517 456.025 602.992Z" fill="#007BA4"/>
</g>
<path d="M341.427 589.466C297.198 601.331 289.869 570.396 307.279 548" stroke="#076FA2" stroke-width="6" stroke-linecap="round"/>
<path d="M193.319 565.107C193.081 564.703 192.749 564.461 192.396 564.436C192.043 564.41 191.697 564.602 191.436 564.97C191.174 565.338 191.018 565.851 191.001 566.397C190.985 566.943 191.109 567.476 191.347 567.88C192.513 569.86 193.755 571.734 195.058 573.496C219.343 604.928 257.155 600.351 280.759 569.853C282.086 568.149 283.351 566.397 284.594 564.541C284.848 564.161 284.994 563.64 285 563.094C285.006 562.548 284.87 562.02 284.625 561.628C284.379 561.235 284.042 561.009 283.689 561C283.335 560.991 282.994 561.2 282.739 561.579C281.546 563.364 280.33 565.047 279.055 566.684C256.441 596.062 219.719 600.228 196.814 570.395C195.584 568.733 194.416 566.968 193.319 565.107Z" fill="#076FA2"/>
<path d="M217.334 591.963L217.375 591.979L217.417 591.987L224.306 593.487L224.341 593.495L224.377 593.498L230.368 593.998L230.391 594H235.205V613.916L234.954 617.48L232.614 620.735L230.462 622.531L227.375 623H224.543L221.495 621.612L218.414 618.339L215.308 612.682L213.291 604.506L211.842 596.282V589.879L217.334 591.963Z" fill="#FEFEFE" stroke="#0578A5" stroke-width="3"/>
<path d="M252.506 591.723L252.465 591.738L252.423 591.748L246.19 593.104L246.154 593.111L246.119 593.114L240.699 593.566L240.676 593.568H236.403V611.422L236.627 614.579L238.709 617.474L240.633 619.079L243.406 619.5H245.953L248.688 618.255L251.455 615.318L254.247 610.236L256.064 602.878L257.37 595.467V589.878L252.506 591.723Z" fill="#FEFEFE" stroke="#0875A4" stroke-width="3"/>
<path d="M126 601C173 609.5 184.5 573.5 168 550" stroke="#076FA2" stroke-width="6" stroke-linecap="round"/>
</g>
</g>
<g clip-path="url(#clip7_176_1477)">
<path d="M77.4703 549.367C82.2013 546.985 85.0205 547.362 87.2191 548.727C89.8943 550.389 92.4551 553.972 95.4112 559.804C101.046 570.921 107.493 589.133 119.387 606.729L119.559 606.983L119.774 607.205C130.814 618.59 140.601 628.785 146.636 639.105C152.427 649.007 154.577 658.708 151.016 669.473C141.358 678.712 132.65 683.5 124.932 685.228C117.128 686.975 110.043 685.665 103.564 682.212C90.3463 675.168 79.6159 659.174 71.9235 641.958L71.8637 641.825L71.7939 641.699C63.279 626.214 60.6719 605.669 62.4181 587.424C63.2873 578.333 65.2251 569.965 67.9448 563.229C70.6532 556.521 73.9892 551.797 77.4703 549.367Z" fill="#87CFE5" stroke="#0076B8" stroke-width="7"/>
<path d="M121.578 647.242C121.466 646.973 121.245 646.755 120.971 646.631C120.697 646.508 120.395 646.489 120.12 646.583C119.845 646.676 119.617 646.876 119.476 647.141C119.335 647.406 119.294 647.715 119.37 647.996C119.535 648.6 119.697 649.185 119.872 649.786C122.575 660.565 129.277 670.992 137.903 678.388C138.381 678.821 138.836 679.228 139.32 679.652C140.749 677.807 142.176 675.962 143.605 674.116C143.102 673.776 142.628 673.453 142.134 673.107C133.237 667.168 126.384 659.133 122.287 648.92C122.046 648.359 121.813 647.811 121.578 647.242Z" fill="#0074AB"/>
<path d="M101.227 659.709C101.089 659.448 100.843 659.246 100.554 659.143C100.264 659.041 99.9562 659.047 99.6854 659.163C99.4138 659.28 99.1981 659.501 99.0743 659.781C98.9496 660.062 98.9273 660.379 99.0229 660.659C99.1977 661.167 99.3643 661.647 99.5462 662.153C102.517 671.123 107.82 679.794 113.869 687.094C114.204 687.514 114.524 687.915 114.862 688.332C115.461 689.079 116.318 689.531 117.272 689.56C118.226 689.59 119.201 689.195 119.951 688.49C120.7 687.786 121.156 686.837 121.185 685.884C121.215 684.929 120.817 684.046 120.108 683.402C119.72 683.047 119.35 682.71 118.966 682.355C112.046 676.174 106.27 669.395 101.958 661.08C101.708 660.616 101.472 660.177 101.227 659.709Z" fill="#007BA4"/>
</g>
</g>
<defs>
<clipPath id="clip0_176_1477">
<rect width="476" height="786" fill="white"/>
</clipPath>
<clipPath id="clip1_176_1477">
<rect width="476" height="786" fill="white"/>
</clipPath>
<clipPath id="clip2_176_1477">
<rect width="476" height="786" fill="white"/>
</clipPath>
<clipPath id="clip3_176_1477">
<rect width="151" height="90.1148" fill="white" transform="translate(94 695.885)"/>
</clipPath>
<clipPath id="clip4_176_1477">
<rect width="151" height="90.1148" fill="white" transform="matrix(-1 0 0 1 396.001 695.885)"/>
</clipPath>
<clipPath id="clip5_176_1477">
<rect width="196" height="148.189" fill="white" transform="translate(146 401.512)"/>
</clipPath>
<clipPath id="clip6_176_1477">
<rect width="76" height="149.19" fill="white" transform="matrix(-1 0 0 1 476 494.63)"/>
</clipPath>
<clipPath id="clip7_176_1477">
<rect width="158.308" height="110.56" fill="white" transform="matrix(-0.720705 -0.693242 -0.693242 0.720705 193.738 634.746)"/>
</clipPath>
</defs>
</svg>
