<svg width="476" height="786" viewBox="0 0 476 786" fill="none" xmlns="http://www.w3.org/2000/svg">
<g clip-path="url(#clip0_186_1930)">
<path d="M237.5 335C339.975 335 423 417.406 423 519C423 620.594 339.975 703 237.5 703C135.025 703 52 620.594 52 519C52 417.406 135.025 335 237.5 335Z" fill="#86D0E3" stroke="#0C74AB" stroke-width="7"/>
<path d="M364.5 647C330 686 266 701.5 241 699C134 705 53.5 610.895 56 517.5C57.566 459 43 597 182 656C256.5 693.5 364.5 647 364.5 647Z" fill="#37B4CA"/>
<path opacity="0.77" d="M173.5 394L182.5 382.5L195 371.5L202 367.5L208.5 365.5L212 369L215 373L217 379L208.5 381.5L196 388.5L187.5 394L179 402L175 397.5L173.5 394Z" fill="#004F80"/>
<path opacity="0.7" d="M264.5 358.5H272.5L280 360L288 363L298 367.5L306.5 372.5L305 380L295 377.5L283.5 375L274.5 373.5H267.5H259.5V366.5L261 361.5L264.5 358.5Z" fill="#014C83"/>
<g clip-path="url(#clip1_186_1930)">
<path d="M193.5 432.038C218.48 432.038 239.5 456.267 239.5 486.107C239.5 502.944 236.056 516.431 228.771 525.659C221.589 534.757 210.302 540.176 193.5 540.176C168.614 540.176 149 516.541 149 486.107C149 455.673 168.614 432.038 193.5 432.038Z" fill="#FEFEFE" stroke="#0F79AB" stroke-width="6"/>
<path d="M288.176 405.004C301.85 405.004 314.49 412.616 323.821 425.275C333.149 437.929 339 455.44 339 474.592C339 496.166 335.187 513.606 327.027 525.574C319.002 537.346 306.53 544.181 288.176 544.181C274.506 544.181 262.294 536.727 253.386 524.182C244.468 511.624 239 494.106 239 474.592C239 455.079 244.468 437.561 253.386 425.003C262.294 412.458 274.506 405.004 288.176 405.004Z" fill="#FEFEFE" stroke="#0F79AB" stroke-width="6"/>
<path d="M241 550.189C252.046 550.189 261 540.551 261 528.661C261 516.772 252.046 507.134 241 507.134C229.954 507.134 221 516.772 221 528.661C221 540.551 229.954 550.189 241 550.189Z" fill="#ED6F7A"/>
<path d="M273.5 490.112C273.5 501.172 267.508 510.138 259.5 510.138C251.492 510.138 245 501.172 245 490.112C245 479.052 251.492 470.087 259.5 470.087C268.5 472.59 273.5 478.598 273.5 490.112Z" fill="#2B2A28"/>
<path d="M221.5 510.138C229.508 510.138 236 501.172 236 490.112C236 479.052 229.508 470.087 221.5 470.087C213.492 470.087 207 479.052 207 490.112C207 501.172 213.492 510.138 221.5 510.138Z" fill="#2B2A28"/>
<path d="M271 479.599C272 483.103 268.761 486.107 266 486.107C263.239 486.107 261 483.642 261 480.6C261 477.559 263.239 475.093 266 475.093C268.761 475.093 271 476.557 271 479.599Z" fill="#F9FAFB"/>
<path d="M233 479.599C234 483.103 230.761 486.107 228 486.107C225.239 486.107 223 483.642 223 480.6C223 477.559 225.239 475.093 228 475.093C230.761 475.093 233 476.557 233 479.599Z" fill="#F9FAFB"/>
</g>
<path d="M237.5 335C339.975 335 423 417.406 423 519C423 620.594 339.975 703 237.5 703C135.025 703 52 620.594 52 519C52 417.406 135.025 335 237.5 335Z" fill="#86D0E3" stroke="#0C74AB" stroke-width="7"/>
<path d="M364.5 647C330 686 266 701.5 241 699C134 705 53.5 610.895 56 517.5C57.566 459 43 597 182 656C256.5 693.5 364.5 647 364.5 647Z" fill="#37B4CA"/>
<path opacity="0.77" d="M175.779 403.359L187.006 401.148L200.356 396.089L206.857 392.391L212.122 388.272L212.893 384.224L213.103 380.354L211.739 376.441L204.907 381.873L193.361 388.533L185.176 392.765L175.863 395.998L175.208 400.825L175.779 403.359Z" fill="#004F80"/>
<path opacity="0.7" d="M252.378 379.24L259.383 383.105L266.674 385.415L275.128 386.652L286.058 387.543L295.915 387.271L298.225 379.979L288.261 377.338L276.985 373.971L268.38 370.937L262.251 367.556L255.246 363.691L251.865 369.82L250.763 374.923L252.378 379.24Z" fill="#014C83"/>
<path d="M190.647 115.5C163.439 95.5003 122.656 407.664 93.5006 421.001C-47.4994 485.5 49.4916 152.904 106.5 137.5C304.5 84 73.975 133.58 121.452 196.24L121.546 196.365L121.634 196.493C150.422 238.804 158.264 283.011 163.438 313.644C164.74 321.354 165.848 328.058 167.067 333.762C168.298 339.519 169.548 343.784 170.982 346.728C172.411 349.664 175.304 344.763 176 345C176.75 345.254 179.18 344.342 183 342.5H185.729L191 339.5C195.113 341.412 192.201 339.991 194 339.5C195.749 339.022 201.618 339.446 203.5 336.5C207.501 330.238 206.578 328.254 208.15 311.898C211.262 279.527 209.508 233.281 209.508 185.539C209.508 125.567 218.525 135.992 190.647 115.5Z" fill="#87CFE5" stroke="#0E6B96" stroke-width="12"/>
<path d="M86.0147 190.605C86.0148 154.999 115.165 141.5 148.664 132.167C188 115.5 174.432 116.951 133 260.5C127.5 271.5 109.266 261.942 83.6788 251.321C58.0917 240.699 76.2765 214.064 86.0147 190.605Z" fill="#87CFE5"/>
<path d="M268.252 115.034C295.461 95.0338 336.244 407.197 365.399 420.534C506.399 485.034 409.408 152.437 352.399 137.034C154.399 83.5335 384.924 133.113 337.447 195.774L337.353 195.899L337.265 196.026C308.477 238.337 300.636 282.545 295.461 313.177C294.159 320.887 293.051 327.592 291.832 333.295C290.602 339.052 289.351 343.317 287.918 346.261C286.488 349.198 283.595 344.297 282.899 344.533C282.15 344.787 279.72 343.875 275.899 342.033H273.17L267.899 339.033C263.787 340.945 266.698 339.525 264.899 339.033C263.151 338.555 257.281 338.98 255.399 336.033C251.399 329.772 252.322 327.788 250.75 311.432C247.637 279.061 249.391 232.815 249.391 185.073C249.391 125.1 240.374 135.526 268.252 115.034Z" fill="#87CFE5" stroke="#0E6B96" stroke-width="12"/>
<path d="M372.885 190.138C372.885 154.533 343.734 141.033 310.235 131.7C270.899 115.033 284.468 116.484 325.9 260.033C331.399 271.033 349.633 261.476 375.221 250.854C400.808 240.232 382.623 213.597 372.885 190.138Z" fill="#87CFE5"/>
<g clip-path="url(#clip2_186_1930)">
<path d="M193.5 432.038C218.48 432.038 239.5 456.267 239.5 486.107C239.5 502.944 236.056 516.431 228.771 525.659C221.589 534.757 210.302 540.176 193.5 540.176C168.614 540.176 149 516.541 149 486.107C149 455.673 168.614 432.038 193.5 432.038Z" fill="#FEFEFE" stroke="#0F79AB" stroke-width="6"/>
<path d="M288.176 405.004C301.85 405.004 314.49 412.616 323.821 425.275C333.149 437.929 339 455.44 339 474.592C339 496.166 335.187 513.606 327.027 525.574C319.002 537.346 306.53 544.181 288.176 544.181C274.506 544.181 262.294 536.727 253.386 524.182C244.468 511.624 239 494.106 239 474.592C239 455.079 244.468 437.561 253.386 425.003C262.294 412.458 274.506 405.004 288.176 405.004Z" fill="#FEFEFE" stroke="#0F79AB" stroke-width="6"/>
<path d="M241 550.189C252.046 550.189 261 540.551 261 528.661C261 516.772 252.046 507.134 241 507.134C229.954 507.134 221 516.772 221 528.661C221 540.551 229.954 550.189 241 550.189Z" fill="#ED6F7A"/>
<path d="M273.5 490.112C273.5 501.172 267.508 510.138 259.5 510.138C251.492 510.138 245 501.172 245 490.112C245 479.052 251.492 470.087 259.5 470.087C268.5 472.59 273.5 478.598 273.5 490.112Z" fill="#2B2A28"/>
<path d="M221.5 510.138C229.508 510.138 236 501.172 236 490.112C236 479.052 229.508 470.087 221.5 470.087C213.492 470.087 207 479.052 207 490.112C207 501.172 213.492 510.138 221.5 510.138Z" fill="#2B2A28"/>
<path d="M271 479.599C272 483.103 268.761 486.107 266 486.107C263.239 486.107 261 483.642 261 480.6C261 477.559 263.239 475.093 266 475.093C268.761 475.093 271 476.557 271 479.599Z" fill="#F9FAFB"/>
<path d="M233 479.599C234 483.103 230.761 486.107 228 486.107C225.239 486.107 223 483.642 223 480.6C223 477.559 225.239 475.093 228 475.093C230.761 475.093 233 476.557 233 479.599Z" fill="#F9FAFB"/>
</g>
<g clip-path="url(#clip3_186_1930)">
<path d="M187 694C205.453 694 215.418 699.777 220.985 707.291C226.752 715.076 228.5 725.636 228.5 736.5C228.5 747.729 227.623 756.38 220.348 762.753C212.743 769.415 197.12 774.5 164.501 774.5C142.107 774.5 126.008 773.432 114.449 771.533C102.816 769.622 96.2415 766.939 92.4853 764.064C88.9938 761.392 87.6447 758.333 87.1142 754.492C86.8344 752.466 86.7901 750.239 86.832 747.693C86.8714 745.301 87.0009 742.305 87.0009 739.5C87.0009 736.01 89.7103 731.248 96.2655 725.682C102.594 720.307 111.607 714.959 122.019 710.206C142.892 700.677 168.368 694 187 694Z" fill="#87CFE5" stroke="#0178B2" stroke-width="9"/>
<path d="M223.614 723.952C234.614 766.952 201.16 772 162.5 772C123.84 772 102 769 96.5005 762C83.5005 756 137.115 760.952 165.114 757.952C250.114 757.952 204 681 223.614 723.952Z" fill="#31A7BA"/>
</g>
<g clip-path="url(#clip4_186_1930)">
<path d="M294 690C275.547 690 265.582 695.777 260.015 703.291C254.248 711.076 252.5 721.636 252.5 732.5C252.5 743.729 253.377 752.38 260.652 758.753C268.257 765.415 283.88 770.5 316.499 770.5C338.893 770.5 354.992 769.432 366.551 767.533C378.184 765.622 384.758 762.939 388.515 760.064C392.006 757.392 393.355 754.333 393.886 750.492C394.166 748.466 394.21 746.239 394.168 743.693C394.129 741.301 393.999 738.305 393.999 735.5C393.999 732.01 391.29 727.248 384.734 721.682C378.406 716.307 369.393 710.959 358.981 706.206C338.108 696.677 312.632 690 294 690Z" fill="#87CFE5" stroke="#0178B2" stroke-width="9"/>
<path d="M257.386 719.952C246.386 762.952 279.84 768 318.5 768C357.16 768 379 765 384.5 758C397.5 752 343.885 756.952 315.886 753.952C230.886 753.952 277 677 257.386 719.952Z" fill="#31A7BA"/>
</g>
<path d="M219.96 574.793L220.019 574.806L220.079 574.811L229.989 575.786L230.041 575.791L230.092 575.79L238.657 575.787L238.689 575.787L245.546 575.359L246.861 596.424L246.738 600.215L243.621 603.867L240.674 605.958L236.309 606.728L232.275 606.98L227.844 605.783L223.239 602.594L218.441 596.887L215.029 588.419L212.423 579.85L212 573.077L219.96 574.793Z" fill="#FEFEFE" stroke="#0578A5" stroke-width="3"/>
<path d="M266.968 574.682L266.917 574.696L266.865 574.705L260.663 574.222L262.234 575.445L259.091 573L255.684 574.682H252.326L247.277 573L247 592.637L247.277 595.515L249.859 598.153L252.245 599.616L255.684 600H258.842L262.234 598.865L265.665 596.189L269.127 591.556L271.38 584.849L273 578.094L271.38 574.682H266.968Z" fill="#FEFEFE" stroke="#0875A4" stroke-width="3"/>
<path d="M151.115 586.445C202.115 570.786 255.906 568.981 339.899 586.742" stroke="#0C74AB" stroke-width="5" stroke-linecap="round"/>
<g clip-path="url(#clip5_186_1930)">
<path d="M62.0857 498.503C67.3398 499.179 69.4645 501.071 70.5213 503.433C71.8072 506.308 71.9222 510.71 71.1053 517.198C69.548 529.564 64.6902 548.262 64.6902 569.5V569.808L64.7439 570.112C67.5145 585.727 69.9139 599.653 69.1346 611.584C68.3868 623.031 64.7351 632.272 55.7566 639.195C42.5809 641.442 32.686 640.532 25.323 637.641C17.8795 634.718 12.744 629.665 9.30938 623.176C2.30366 609.938 2.37047 590.678 5.63848 572.107L5.66387 571.964L5.67657 571.821C7.2941 554.223 16.6393 535.742 28.3035 521.603C34.1148 514.559 40.4062 508.711 46.4314 504.654C52.4325 500.612 57.8413 498.567 62.0857 498.503Z" fill="#87CFE5" stroke="#0076B8" stroke-width="7"/>
<path d="M43.8178 604.292C43.8759 604.007 43.8145 603.702 43.6576 603.446C43.5001 603.191 43.2598 603.006 42.9793 602.93C42.6988 602.853 42.398 602.891 42.1327 603.032C41.868 603.173 41.6605 603.405 41.5662 603.68C41.3647 604.273 41.1721 604.849 40.9797 605.444C37.1836 615.888 36.8963 628.281 39.901 639.239C40.0545 639.864 40.2034 640.457 40.3672 641.08C42.5837 640.351 44.8003 639.622 47.0168 638.893C46.7908 638.33 46.5791 637.796 46.3633 637.233C42.3183 627.33 41.1399 616.835 43.4664 606.08C43.5798 605.479 43.6941 604.895 43.8178 604.292Z" fill="#0074AB"/>
<path d="M19.9749 603.224C20.0073 602.93 19.9161 602.625 19.7342 602.378C19.5516 602.132 19.2934 601.963 19.0033 601.908C18.7132 601.853 18.4112 601.915 18.1509 602.078C17.8913 602.241 17.6946 602.491 17.617 602.776C17.4778 603.295 17.3468 603.786 17.2135 604.307C14.6524 613.403 14.1894 623.556 15.1124 632.991C15.1553 633.527 15.1962 634.038 15.2419 634.573C15.3205 635.528 15.7764 636.382 16.5517 636.941C17.3245 637.5 18.3533 637.718 19.3694 637.554C20.3855 637.39 21.2934 636.859 21.8512 636.086C22.4114 635.311 22.5756 634.357 22.35 633.427C22.2271 632.916 22.1092 632.429 21.9894 631.92C19.7179 622.923 18.7292 614.072 19.8128 604.769C19.8654 604.245 19.916 603.749 19.9749 603.224Z" fill="#007BA4"/>
</g>
<g clip-path="url(#clip6_186_1930)">
<path d="M413.915 498.503C408.661 499.179 406.536 501.07 405.48 503.433C404.194 506.307 404.079 510.71 404.896 517.197C406.453 529.563 411.311 548.261 411.311 569.5V569.808L411.257 570.111C408.486 585.727 406.087 599.653 406.866 611.584C407.614 623.031 411.266 632.272 420.244 639.195C433.42 641.442 443.315 640.532 450.678 637.641C458.121 634.718 463.257 629.665 466.692 623.176C473.697 609.938 473.631 590.677 470.362 572.106L470.337 571.964L470.324 571.82C468.707 554.223 459.362 535.742 447.697 521.603C441.886 514.558 435.595 508.711 429.57 504.653C423.568 500.612 418.16 498.567 413.915 498.503Z" fill="#87CFE5" stroke="#0076B8" stroke-width="7"/>
<path d="M432.183 604.292C432.125 604.007 432.187 603.702 432.343 603.446C432.501 603.191 432.741 603.006 433.022 602.93C433.302 602.853 433.603 602.891 433.868 603.032C434.133 603.173 434.341 603.405 434.435 603.68C434.636 604.273 434.829 604.849 435.021 605.444C438.817 615.888 439.105 628.281 436.1 639.239C435.947 639.864 435.798 640.457 435.634 641.08C433.417 640.351 431.201 639.622 428.984 638.893C429.21 638.33 429.422 637.796 429.638 637.233C433.683 627.33 434.861 616.835 432.535 606.08C432.421 605.479 432.307 604.895 432.183 604.292Z" fill="#0074AB"/>
<path d="M456.026 603.224C455.994 602.93 456.085 602.625 456.267 602.378C456.449 602.132 456.708 601.963 456.998 601.908C457.288 601.853 457.59 601.915 457.85 602.078C458.11 602.241 458.306 602.491 458.384 602.776C458.523 603.295 458.654 603.786 458.787 604.307C461.349 613.403 461.812 623.556 460.889 632.991C460.846 633.527 460.805 634.038 460.759 634.573C460.68 635.528 460.225 636.382 459.449 636.941C458.676 637.5 457.648 637.718 456.632 637.554C455.615 637.39 454.708 636.859 454.15 636.086C453.59 635.311 453.425 634.357 453.651 633.427C453.774 632.916 453.892 632.429 454.012 631.92C456.283 622.923 457.272 614.072 456.188 604.769C456.136 604.245 456.085 603.749 456.026 603.224Z" fill="#007BA4"/>
</g>
</g>
<defs>
<clipPath id="clip0_186_1930">
<rect width="476" height="786" fill="white"/>
</clipPath>
<clipPath id="clip1_186_1930">
<rect width="196" height="148.189" fill="white" transform="translate(146 402)"/>
</clipPath>
<clipPath id="clip2_186_1930">
<rect width="196" height="148.189" fill="white" transform="translate(146 402)"/>
</clipPath>
<clipPath id="clip3_186_1930">
<rect width="151" height="90" fill="white" transform="translate(82 689)"/>
</clipPath>
<clipPath id="clip4_186_1930">
<rect width="151" height="90" fill="white" transform="matrix(-1 0 0 1 399 685)"/>
</clipPath>
<clipPath id="clip5_186_1930">
<rect width="76" height="149" fill="white" transform="translate(0 495)"/>
</clipPath>
<clipPath id="clip6_186_1930">
<rect width="76" height="149" fill="white" transform="matrix(-1 0 0 1 476.001 495)"/>
</clipPath>
</defs>
</svg>
