<svg width="476" height="786" viewBox="0 0 476 786" fill="none" xmlns="http://www.w3.org/2000/svg">
<g clip-path="url(#clip0_158_1744)">
<path d="M86.9296 16.7143C96.5345 11.8058 106.682 11.5524 117.15 15.7188C127.798 19.9572 138.925 28.8568 149.706 42.484C171.246 69.7073 190.39 114.534 201.105 172.941C203.797 197.451 207.515 221.975 210.903 244.675C214.315 267.526 217.378 288.445 218.81 305.947C220.262 323.711 219.917 336.908 217.187 344.843C215.87 348.67 214.243 350.541 212.698 351.426C211.21 352.28 208.76 352.81 204.48 351.727L201.386 350.945L199.008 353.076C195.786 355.965 194.143 356.089 193.632 356.04C193.139 355.992 191.842 355.603 189.746 352.806C187.689 350.061 185.529 345.873 183.134 340.141C180.765 334.471 178.317 327.671 175.575 319.89C164.678 288.966 149.647 243.897 118.755 204.259L118.539 203.982L118.293 203.733L115.425 200.807C55.8798 139.71 39.4621 98.8817 41.6354 71.5833C43.8011 44.3815 64.7521 28.0479 86.9296 16.7143Z" fill="#8BCDE5" stroke="#0E6B96" stroke-width="12"/>
<path d="M307.345 63.0001C329.956 36.7664 354.435 28.2455 371.981 33.7082C390.948 39.6138 410.17 56.4775 412.328 84.658C414.514 113.194 399.378 155.113 344.924 210.922L344.816 211.034L344.714 211.149C311.199 249.217 298.305 291.6 289.629 320.998C287.446 328.398 285.571 334.835 283.702 340.279C281.814 345.774 280.078 349.805 278.313 352.52C276.553 355.23 275.28 355.846 274.561 355.996C273.785 356.157 271.966 356.128 268.378 353.876L266.01 352.389L263.352 353.247C259.04 354.637 256.325 354.41 254.592 353.718C252.907 353.044 251.211 351.556 249.678 348.449C246.419 341.847 245.025 330.25 245.345 314.045C245.977 281.971 253.048 236.878 258.547 190.113C265.454 131.368 284.962 88.9707 307.345 63.0001Z" fill="#87CFE5" stroke="#0E6B96" stroke-width="12"/>
<path d="M237.5 334.426C339.975 334.426 423 416.937 423 518.661C423 620.384 339.975 702.895 237.5 702.895C135.025 702.895 52.0005 620.384 52.0005 518.661C52.0005 416.937 135.025 334.426 237.5 334.426Z" fill="#86D0E3" stroke="#0C74AB" stroke-width="7"/>
<path d="M364.501 646.824C330.001 685.874 266.001 701.394 241.001 698.89C134.001 704.898 53.5005 610.673 56.0005 517.159C57.5664 458.584 43.0005 596.76 182.001 655.836C256.501 693.383 364.501 646.824 364.501 646.824Z" fill="#37B4CA"/>
<path opacity="0.77" d="M173.5 393.501L182.5 381.987L195 370.972L202 366.967L208.5 364.965L212 368.469L215 372.474L217 378.482L208.5 380.985L196 387.994L187.5 393.501L179 401.511L175 397.006L173.5 393.501Z" fill="#004F80"/>
<path opacity="0.7" d="M264.5 357.956H272.5L280 359.458L288 362.462L298 366.968L306.5 371.974L305 379.483L295 376.98L283.5 374.477L274.5 372.975H267.5H259.5V365.966L261 360.96L264.5 357.956Z" fill="#014C83"/>
<g clip-path="url(#clip1_158_1744)">
<path d="M199 700.891C217.453 700.891 227.418 706.675 232.985 714.199C238.752 721.994 240.5 732.567 240.5 743.445C240.5 754.689 239.623 763.351 232.348 769.732C224.743 776.403 209.12 781.494 176.5 781.494C154.106 781.494 138.008 780.424 126.449 778.523C114.815 776.61 108.241 773.923 104.485 771.045C100.993 768.369 99.6442 765.306 99.1137 761.46C98.8339 759.432 98.7896 757.202 98.8315 754.653C98.8709 752.258 99.0004 749.257 99.0004 746.449C99.0004 742.955 101.71 738.187 108.265 732.613C114.594 727.232 123.607 721.877 134.018 717.118C154.892 707.577 180.368 700.891 199 700.891Z" fill="#87CFE5" stroke="#0178B2" stroke-width="9"/>
<path d="M235.614 730.881C246.614 773.936 213.16 778.991 174.5 778.991C135.84 778.991 114 775.987 108.5 768.978C95.5 762.97 149.114 767.928 177.114 764.925C262.114 764.925 216 687.875 235.614 730.881Z" fill="#31A7BA"/>
</g>
<g clip-path="url(#clip2_158_1744)">
<path d="M291.001 700.891C272.548 700.891 262.583 706.675 257.016 714.199C251.249 721.994 249.501 732.567 249.501 743.445C249.501 754.689 250.378 763.351 257.653 769.732C265.258 776.403 280.881 781.494 313.501 781.494C335.895 781.494 351.993 780.424 363.552 778.523C375.186 776.61 381.76 773.923 385.516 771.045C389.008 768.369 390.357 765.306 390.887 761.46C391.167 759.432 391.211 757.202 391.169 754.653C391.13 752.258 391.001 749.257 391.001 746.449C391.001 742.955 388.291 738.187 381.736 732.613C375.407 727.232 366.394 721.877 355.983 717.118C335.109 707.577 309.633 700.891 291.001 700.891Z" fill="#87CFE5" stroke="#0178B2" stroke-width="9"/>
<path d="M254.387 730.881C243.387 773.936 276.841 778.991 315.501 778.991C354.161 778.991 376.001 775.987 381.501 768.978C394.501 762.97 340.887 767.928 312.887 764.925C227.887 764.925 274.001 687.875 254.387 730.881Z" fill="#31A7BA"/>
</g>
<g clip-path="url(#clip3_158_1744)">
<path d="M193.5 431.549C218.481 431.549 239.5 455.778 239.5 485.618C239.5 502.455 236.057 515.942 228.772 525.17C221.589 534.268 210.302 539.687 193.5 539.687C168.615 539.687 149 516.052 149 485.618C149 455.184 168.615 431.549 193.5 431.549Z" fill="#FEFEFE" stroke="#0F79AB" stroke-width="6"/>
<path d="M288.176 404.515C301.85 404.515 314.49 412.127 323.821 424.786C333.149 437.44 339 454.951 339 474.104C339 495.678 335.187 513.118 327.027 525.086C319.002 536.858 306.53 543.692 288.176 543.692C274.506 543.692 262.294 536.238 253.386 523.693C244.469 511.135 239 493.617 239 474.104C239 454.59 244.469 437.073 253.386 424.514C262.294 411.97 274.506 404.515 288.176 404.515Z" fill="#FEFEFE" stroke="#0F79AB" stroke-width="6"/>
<path d="M241 549.7C252.046 549.7 261 540.062 261 528.172C261 516.283 252.046 506.645 241 506.645C229.955 506.645 221 516.283 221 528.172C221 540.062 229.955 549.7 241 549.7Z" fill="#ED6F7A"/>
<path d="M273.5 489.624C273.5 500.683 267.508 509.649 259.5 509.649C251.492 509.649 245 500.683 245 489.624C245 478.564 251.492 469.598 259.5 469.598C268.5 472.101 273.5 478.109 273.5 489.624Z" fill="#2B2A28"/>
<path d="M221.5 509.649C229.509 509.649 236 500.683 236 489.624C236 478.564 229.509 469.598 221.5 469.598C213.492 469.598 207 478.564 207 489.624C207 500.683 213.492 509.649 221.5 509.649Z" fill="#2B2A28"/>
<path d="M271 479.11C272 482.615 268.761 485.619 266 485.619C263.239 485.619 261 483.153 261 480.112C261 477.07 263.239 474.604 266 474.604C268.761 474.604 271 476.069 271 479.11Z" fill="#F9FAFB"/>
<path d="M233 479.11C234 482.615 230.762 485.619 228 485.619C225.239 485.619 223 483.153 223 480.112C223 477.07 225.239 474.604 228 474.604C230.762 474.604 233 476.069 233 479.11Z" fill="#F9FAFB"/>
</g>
<g clip-path="url(#clip4_158_1744)">
<path d="M62.0857 498.138C67.3398 498.815 69.4645 500.708 70.5213 503.074C71.8072 505.952 71.9222 510.361 71.1053 516.856C69.548 529.238 64.6902 547.96 64.6902 569.225V569.533L64.7439 569.837C67.5145 585.473 69.9139 599.417 69.1346 611.363C68.3868 622.825 64.7351 632.077 55.7566 639.009C42.5809 641.259 32.686 640.348 25.323 637.453C17.8795 634.527 12.744 629.467 9.30938 622.97C2.30366 609.715 2.37047 590.43 5.63848 571.835L5.66387 571.692L5.67657 571.549C7.2941 553.929 16.6393 535.424 28.3035 521.267C34.1148 514.214 40.4062 508.358 46.4314 504.296C52.4325 500.25 57.8413 498.202 62.0857 498.138Z" fill="#87CFE5" stroke="#0076B8" stroke-width="7"/>
<path d="M43.8178 604.062C43.8759 603.776 43.8145 603.471 43.6576 603.215C43.5001 602.959 43.2598 602.774 42.9793 602.698C42.6988 602.621 42.398 602.659 42.1327 602.8C41.868 602.941 41.6605 603.173 41.5662 603.449C41.3647 604.043 41.1721 604.619 40.9797 605.215C37.1836 615.672 36.8963 628.081 39.901 639.053C40.0545 639.679 40.2034 640.273 40.3672 640.897C42.5837 640.167 44.8003 639.437 47.0168 638.707C46.7908 638.143 46.5791 637.608 46.3633 637.045C42.3183 627.129 41.1399 616.621 43.4664 605.852C43.5798 605.25 43.6941 604.665 43.8178 604.062Z" fill="#0074AB"/>
<path d="M19.9754 602.993C20.0078 602.698 19.9166 602.393 19.7347 602.146C19.5521 601.899 19.2939 601.73 19.0038 601.675C18.7137 601.62 18.4117 601.682 18.1514 601.845C17.8918 602.008 17.6951 602.259 17.6175 602.544C17.4783 603.064 17.3473 603.555 17.214 604.077C14.6529 613.185 14.1899 623.351 15.1129 632.798C15.1558 633.334 15.1967 633.846 15.2424 634.382C15.321 635.338 15.7769 636.193 16.5522 636.753C17.325 637.312 18.3538 637.531 19.3699 637.366C20.386 637.202 21.2939 636.67 21.8517 635.897C22.4119 635.121 22.5761 634.165 22.3505 633.234C22.2276 632.722 22.1097 632.235 21.9899 631.725C19.7184 622.717 18.7297 613.854 19.8133 604.54C19.8659 604.015 19.9165 603.518 19.9754 602.993Z" fill="#007BA4"/>
</g>
<path d="M347.822 532.667L347.696 533.087L347.696 533.525C347.695 548.262 338.798 577.727 318.297 601.632C298.003 625.295 266.479 643.361 221.017 636.179C182.734 621.23 166.186 597.852 158.257 577.594C154.257 567.373 152.423 557.874 151.151 550.446C150.727 547.964 150.351 545.637 149.975 543.607C154.266 546.353 159.456 549.474 165.346 552.643C189.643 565.713 226.6 580.03 261.549 571.354C294.385 571.235 319.277 555.428 334.786 543.257C338.682 540.199 342.004 537.356 344.696 535.056C345.926 534.005 346.995 533.095 347.917 532.33C347.886 532.44 347.856 532.553 347.822 532.667Z" fill="#D20223" stroke="#076FA2" stroke-width="6"/>
<path d="M148.199 533.981C147.666 533.392 146.921 533.041 146.129 533.004C145.337 532.966 144.563 533.246 143.977 533.782C143.391 534.317 143.04 535.065 143.003 535.859C142.966 536.654 143.245 537.431 143.779 538.02C146.393 540.902 149.175 543.631 152.096 546.197C206.535 591.972 291.298 585.306 344.212 540.893C347.187 538.411 350.021 535.86 352.807 533.156C353.377 532.603 353.703 531.845 353.717 531.05C353.73 530.254 353.427 529.486 352.877 528.914C352.326 528.342 351.57 528.014 350.778 528C349.985 527.987 349.22 528.291 348.65 528.844C345.974 531.442 343.25 533.893 340.392 536.278C289.697 579.061 207.378 585.128 156.033 541.682C153.277 539.261 150.657 536.691 148.199 533.981Z" fill="#076FA2"/>
<path d="M212.41 574.963L212.478 574.979L212.548 574.988L224.005 576.488L224.064 576.496L224.124 576.498L234.087 576.998L234.125 577L242.132 577L242.132 596.916L241.714 600.48L237.823 603.736L234.243 605.532L229.109 606L224.399 606L219.331 604.613L214.206 601.339L209.04 595.682L205.685 587.506L203.276 579.283L203.276 572.879L212.41 574.963Z" fill="#FEFEFE" stroke="#0578A5" stroke-width="3"/>
<path d="M270.905 574.723L270.837 574.739L270.767 574.749L260.401 576.104L260.341 576.112L260.283 576.115L251.268 576.567L251.231 576.569L244.125 576.569L244.125 594.422L244.496 597.58L247.959 600.474L251.159 602.08L255.771 602.501L260.007 602.501L264.556 601.255L269.158 598.319L273.801 593.237L276.822 585.878L278.995 578.467L278.995 572.878L270.905 574.723Z" fill="#FEFEFE" stroke="#0875A4" stroke-width="3"/>
<path d="M311.374 605.073C303.902 614.073 281.983 627.073 263.552 632.573C244.622 634.073 246.117 638.305 246.117 630.573C258.072 614.073 271.024 601.073 314.861 599.073C319.345 599.073 316.356 599.073 311.374 605.073Z" fill="#FF1863"/>
<path fill-rule="evenodd" clip-rule="evenodd" d="M279.47 605.099C270.871 611.049 278.885 621.989 299.581 651.289C310.276 666.432 330.519 670.728 344.757 660.877C358.995 651.025 361.871 630.733 351.175 615.59C330.479 586.29 291.597 589.812 279.47 605.099Z" fill="#FF9425"/>
<path fill-rule="evenodd" clip-rule="evenodd" d="M309.996 579.394C309.819 579.484 295.216 591.885 295.216 591.885C295.216 591.885 341.193 662.905 344.756 660.876C359.81 652.307 361.955 630.673 351.174 615.589C310.572 558.779 316.229 576.266 309.996 579.394Z" fill="#FF8600"/>
<path d="M353.093 622.746C346.87 625.459 340.837 628.508 335.959 633.198" stroke="#EF6A00" stroke-width="5" stroke-miterlimit="10" stroke-linecap="round" stroke-linejoin="round"/>
<path d="M334.164 597.183C329.096 597.438 325.483 600.475 321.961 603.943" stroke="#EF6A00" stroke-width="5" stroke-miterlimit="10" stroke-linecap="round" stroke-linejoin="round"/>
<path fill-rule="evenodd" clip-rule="evenodd" d="M341.678 655.596C341.678 655.596 345.384 679.874 348.7 687.887C352.002 695.864 365.307 697.785 368.889 694.96C373.803 691.086 374.882 682.099 368.569 675.581C362.622 669.441 341.678 655.596 341.678 655.596Z" fill="#129447"/>
<path fill-rule="evenodd" clip-rule="evenodd" d="M341.834 655.585C341.834 655.585 341.128 666.189 336.557 675.81C334.015 681.164 326.959 684.316 325.689 688.43C324.167 693.359 324.606 699.083 329.465 699.996C334.325 700.91 338.965 696.894 343.713 691.163C352.023 681.134 343.898 660.394 341.834 655.585Z" fill="#00AA63"/>
<path fill-rule="evenodd" clip-rule="evenodd" d="M340.623 655.669C340.623 655.669 335.65 662.84 328.024 670.225C322.62 675.459 314.1 679.569 313.507 679.795C305.392 682.902 306.849 690.842 313.987 692.455C320.204 693.858 326.424 691.028 330.439 687.329C340.792 677.792 344.272 658.454 340.623 655.669Z" fill="#129447"/>
<path fill-rule="evenodd" clip-rule="evenodd" d="M340.624 655.669C340.624 655.669 350.477 657.649 360.705 656.256C366.394 655.481 371.54 649.549 375.69 649.628C380.665 649.721 385.729 652.001 384.99 657.082C384.252 662.163 377.344 666.467 372.356 668.261C360.344 672.587 342.989 659.883 340.624 655.669Z" fill="#00AA63"/>
<path fill-rule="evenodd" clip-rule="evenodd" d="M340.624 655.669C340.624 655.669 351.929 653.175 361.181 648.2C368.68 644.168 372.784 639.159 375.263 637.929C379.824 635.665 384.525 637.401 385.106 642.445C385.687 647.489 379.385 654.313 375.634 656.508C364.081 663.272 345.225 659.271 340.624 655.669Z" fill="#129447"/>
<path d="M309.773 635.02C303.825 635.998 298.618 639.39 295.407 641.771" stroke="#EF6A00" stroke-width="5" stroke-miterlimit="10" stroke-linecap="round" stroke-linejoin="round"/>
<path d="M289.965 601.171C285.337 602.057 280.878 604.963 278.08 606.998" stroke="#EF6A00" stroke-width="5" stroke-miterlimit="10" stroke-linecap="round" stroke-linejoin="round"/>
<path d="M280.328 600.85C282.265 597.754 288.586 604.856 284.076 600.226C286.562 603.55 288.984 603.407 286.225 604.226C278.85 605.071 280.871 612.28 276.589 610.499C275.998 606.892 276.244 607.377 280.328 600.85Z" fill="#FF9425"/>
<path d="M308.705 570.798C317.394 570.992 324.045 579.883 314.352 575.659C314.668 578.769 313.726 582.014 310.757 580.26C303.948 573.952 307.07 583.143 303.047 572.639C303.09 571.775 300.84 572.377 308.705 570.798Z" fill="#FF9221"/>
<path d="M284.258 590.52C285.591 590.957 282.237 589.162 286.83 591.943C289.363 595.329 292.711 595.67 290.931 597.002C289.151 598.333 292.044 607.647 283.695 597.157C278.407 596.807 276.977 600.27 284.258 590.52Z" fill="#C65104"/>
<path d="M280.341 595.362C281.674 595.8 282.332 590.06 285.82 591.264C288.353 594.651 288.962 600.39 287.182 601.721C285.402 603.052 284.104 599.72 280.193 601.211C276.303 617.509 272.967 605.66 280.341 595.362Z" fill="#C65104"/>
<path d="M288.589 584.889C292.231 584.134 291.824 583.961 295.298 585.795C297.661 588.954 298.961 593.069 296.652 594.633C289.672 599.362 290.142 595.07 287.24 593.3C280.36 592.537 285.725 589.494 288.589 584.889Z" fill="#C65104"/>
<path d="M303.139 572.092C306.781 571.337 305.883 570.575 309.357 572.408C311.721 575.567 313.02 579.682 310.711 581.247C303.731 585.975 304.202 581.683 301.3 579.913C294.419 579.15 294.381 579.195 303.139 572.092Z" fill="#C65104"/>
<path d="M295.978 577.97C299.62 577.216 299.212 577.043 302.687 578.876C305.05 582.036 306.349 586.15 304.04 587.715C297.061 592.443 295.346 590.469 292.445 588.699C285.564 587.936 287.6 584.238 295.978 577.97Z" fill="#C65104"/>
<path d="M277.242 610.432C277.346 610.571 277.702 610.742 278.342 610.755C279.836 610.787 280.106 608.729 280.783 607.785C281.46 606.839 282.134 605.898 282.68 604.779C282.939 604.246 283.528 603.758 284.232 603.393C285.392 602.794 286.916 603.518 288.33 603.176C288.985 603.018 289.618 602.817 290.019 602.354C290.734 601.53 289.835 600.032 290.273 598.769C290.656 597.669 292.432 596.44 294.046 595.887C295.524 595.38 296.531 595.125 296.999 594.831C298.133 594.118 297.981 592.296 298.004 591.016C298.015 590.383 298.729 589.758 299.581 589.283C301.155 588.406 303.351 588.706 304.542 588.367C305.129 588.201 304.542 587.056 304.61 586.457C304.748 585.257 306.091 584.362 308.09 582.81C309.5 581.714 311.39 581.602 312.575 581.098C313.599 580.663 313.454 578.967 313.945 577.775C314.171 577.23 314.596 576.795 315.01 576.428C316.217 576.344 317.133 576.645 317.726 576.748C318.017 576.752 318.288 576.657 318.883 576.981" stroke="#C65104" stroke-width="2" stroke-linecap="round"/>
<path d="M297.621 587.378C298.365 585.175 304.404 592.489 300.187 587.639C302.672 590.962 304.385 591.35 302.571 591.461C297.443 590.626 300.41 597.128 296.955 594.728C295.773 591.563 296.052 592.023 297.621 587.378Z" fill="#FF9425"/>
<path d="M284.369 594.735C284.882 594.351 285.457 593.618 286.504 592.603C287.317 591.814 287.565 590.742 288.143 589.848C288.656 589.081 289.004 588.362 289.279 587.928C289.473 587.704 289.78 587.475 290.095 587.239" stroke="#C65104" stroke-width="2" stroke-linecap="round"/>
<path d="M276.066 609.398C276.158 609.187 276.141 608.629 276.043 608.128C275.941 607.601 276.094 607.089 276.18 606.569C276.272 606.021 276.677 605.458 276.97 604.975C277.263 604.493 277.477 604.046 277.727 603.574C277.986 603.084 278.156 602.539 278.325 601.958C278.493 601.377 278.741 600.906 278.887 600.296C279.035 599.68 279.309 599.05 279.51 598.446C279.789 597.607 279.974 597.121 280.391 596.641C280.951 595.997 281.196 594.872 281.527 594.168C281.82 593.549 282.263 592.737 282.573 592.146C282.923 591.478 283.041 590.961 283.484 590.413C283.814 590.004 284.162 589.643 284.764 588.907C285.249 588.312 285.707 587.821 286.199 587.236C286.782 586.544 287.138 586.177 287.455 585.795C287.789 585.394 288.022 584.944 288.304 584.516C288.571 584.113 288.95 583.771 289.527 583.172C291.075 581.565 292.449 580.819 293.236 580.111C293.608 579.809 293.987 579.572 294.836 579.008C295.534 578.511 296.776 577.582 298.056 576.625" stroke="#FF8600" stroke-width="2" stroke-linecap="round"/>
<path d="M307.744 571.668C307.507 571.751 306.875 571.842 306.272 571.911C305.708 571.975 305.221 572.315 304.743 572.482C304.265 572.649 303.788 572.815 303.271 573.129C302.733 573.456 301.507 574.042 300.512 574.668C299.735 575.226 299.169 575.695 298.756 576.076C298.416 576.354 297.811 576.807 297.188 577.273" stroke="#FF8600" stroke-width="2" stroke-linecap="round"/>
<path d="M402.054 552.065C398.976 547.755 396.305 546.776 393.723 546.962C390.582 547.187 386.648 549.167 381.318 552.953C371.156 560.17 356.975 573.289 338.258 583.328L337.988 583.473L337.694 583.57C322.624 588.509 309.217 592.978 299.072 599.303C289.338 605.373 282.921 612.959 281.063 624.144C285.311 636.816 290.79 645.106 296.818 650.228C302.912 655.406 309.792 657.544 317.134 657.503C332.111 657.42 349.052 648.257 363.873 636.599L363.988 636.509L364.108 636.43C378.851 626.687 390.72 609.716 397.666 592.754C401.127 584.304 403.307 575.995 404.034 568.767C404.759 561.569 404.005 555.836 402.054 552.065Z" fill="#87CFE5" stroke="#0076B8" stroke-width="7"/>
<path d="M317.464 618.167C317.688 617.981 317.986 617.89 318.285 617.908C318.585 617.926 318.862 618.051 319.061 618.262C319.261 618.472 319.37 618.756 319.371 619.056C319.373 619.356 319.266 619.648 319.068 619.861C318.641 620.319 318.224 620.762 317.79 621.212C310.381 629.495 299.596 635.605 288.519 638.137C287.895 638.297 287.303 638.446 286.677 638.596C286.271 636.297 285.866 634 285.461 631.702C286.064 631.635 286.634 631.57 287.233 631.493C297.871 630.377 307.677 626.455 316.055 619.322C316.53 618.937 316.991 618.56 317.464 618.167Z" fill="#0074AB"/>
<path d="M329.675 638.673C329.918 638.506 330.23 638.442 330.534 638.486C330.838 638.53 331.108 638.678 331.293 638.907C331.479 639.137 331.568 639.433 331.547 639.738C331.526 640.045 331.399 640.336 331.184 640.539C330.792 640.908 330.422 641.255 330.025 641.619C323.221 648.175 314.492 653.382 305.741 657.028C305.249 657.244 304.779 657.449 304.286 657.662C303.408 658.044 302.439 658.046 301.581 657.627C300.722 657.21 300.044 656.406 299.708 655.434C299.372 654.461 299.411 653.41 299.829 652.552C300.246 651.693 301.009 651.097 301.937 650.856C302.445 650.723 302.93 650.597 303.435 650.462C312.436 648.211 320.704 644.899 328.39 639.546C328.827 639.252 329.24 638.973 329.675 638.673Z" fill="#007BA4"/>
</g>
<defs>
<clipPath id="clip0_158_1744">
<rect width="476" height="786" fill="white"/>
</clipPath>
<clipPath id="clip1_158_1744">
<rect width="151" height="90.1148" fill="white" transform="translate(94 695.885)"/>
</clipPath>
<clipPath id="clip2_158_1744">
<rect width="151" height="90.1148" fill="white" transform="matrix(-1 0 0 1 396.001 695.885)"/>
</clipPath>
<clipPath id="clip3_158_1744">
<rect width="196" height="148.189" fill="white" transform="translate(146 401.511)"/>
</clipPath>
<clipPath id="clip4_158_1744">
<rect width="76" height="149.19" fill="white" transform="translate(0 494.63)"/>
</clipPath>
</defs>
</svg>
