<svg width="476" height="786" viewBox="0 0 476 786" fill="none" xmlns="http://www.w3.org/2000/svg">
<g clip-path="url(#clip0_176_451)">
<path d="M132.319 1.54358C142.63 -1.54687 152.637 0.0334364 162.164 6.01334C171.856 12.0965 181.181 22.8452 189.316 38.1755C205.569 68.8016 216.308 116.289 216.332 175.597C214.57 200.161 213.814 224.922 213.061 247.833C212.305 270.896 211.553 291.998 209.813 309.449C208.047 327.162 205.337 340.064 201.231 347.367C199.251 350.889 197.318 352.434 195.641 353.025C194.027 353.595 191.527 353.674 187.52 351.839L184.623 350.513L181.906 352.178C178.223 354.435 176.589 354.261 176.096 354.12C175.621 353.984 174.417 353.368 172.862 350.243C171.336 347.176 169.968 342.672 168.647 336.609C167.34 330.612 166.159 323.491 164.865 315.353C159.724 283.01 153.067 236.026 129.862 191.518L129.701 191.207L129.504 190.918L127.213 187.527C79.7368 116.773 70.9558 73.7053 77.9944 47.28C85.0083 20.9483 108.511 8.67944 132.319 1.54358Z" fill="#8BCDE5" stroke="#0E6B96" stroke-width="12"/>
<path d="M302.992 55.946C326.477 30.5676 351.195 22.9349 368.501 29.0122C387.209 35.582 405.782 53.0983 406.934 81.3019C408.101 109.861 391.516 151.161 335.223 204.925L335.111 205.032L335.005 205.143C300.225 241.946 285.86 283.788 276.162 312.822C273.722 320.13 271.624 326.488 269.566 331.854C267.488 337.272 265.614 341.233 263.757 343.881C261.905 346.522 260.614 347.092 259.891 347.216C259.112 347.348 257.299 347.255 253.799 344.879L251.491 343.311L248.809 344.073C244.459 345.307 241.759 344.983 240.055 344.23C238.398 343.498 236.759 341.952 235.341 338.797C232.324 332.091 231.346 320.467 232.24 304.304C234.009 272.314 242.663 227.558 249.808 181.078C258.783 122.692 279.745 81.0698 302.992 55.946Z" fill="#87CFE5" stroke="#0E6B96" stroke-width="12"/>
<path d="M237.035 335.001C339.31 335.001 422.172 417.407 422.172 519.001C422.172 620.595 339.31 703.002 237.035 703.002C134.761 703.002 51.8984 620.595 51.8984 519.001C51.8984 417.407 134.761 335.001 237.035 335.001Z" fill="#86D0E3" stroke="#0C74AB" stroke-width="7"/>
<path d="M363.787 647.001C329.355 686.002 265.48 701.502 240.529 699.002C133.738 705.002 53.3959 610.896 55.891 517.501C57.4539 459.001 42.9165 597.001 181.644 656.002C255.998 693.502 363.787 647.001 363.787 647.001Z" fill="#37B4CA"/>
<path opacity="0.77" d="M173.161 394.001L182.143 382.501L194.619 371.501L201.605 367.501L208.092 365.501L211.585 369.001L214.579 373.001L216.575 379.001L208.092 381.501L195.617 388.501L187.133 394.001L178.65 402.001L174.658 397.501L173.161 394.001Z" fill="#004F80"/>
<path opacity="0.7" d="M263.982 358.501H271.967L279.452 360.001L287.436 363.001L297.417 367.501L305.9 372.501L304.403 380.001L294.423 377.501L282.945 375.001L273.963 373.501H266.977H258.992V366.501L260.489 361.501L263.982 358.501Z" fill="#014C83"/>
<g clip-path="url(#clip1_176_451)">
<path d="M194 700.999C212.453 700.999 222.418 706.775 227.985 714.29C233.752 722.075 235.5 732.635 235.5 743.499C235.5 754.728 234.623 763.379 227.348 769.751C219.743 776.414 204.12 781.499 171.5 781.499C149.106 781.499 133.008 780.43 121.449 778.532C109.815 776.621 103.241 773.938 99.4849 771.063C95.9933 768.391 94.6442 765.331 94.1137 761.491C93.8339 759.465 93.7896 757.237 93.8315 754.692C93.8709 752.3 94.0004 749.303 94.0004 746.499C94.0004 743.009 96.7098 738.247 103.265 732.68C109.594 727.306 118.607 721.957 129.018 717.205C149.892 707.676 175.368 700.999 194 700.999Z" fill="#87CFE5" stroke="#0178B2" stroke-width="9"/>
<path d="M230.614 730.95C241.614 773.95 208.16 778.998 169.5 778.998C130.84 778.998 109 775.998 103.5 768.998C90.5 762.998 144.114 767.95 172.114 764.95C257.114 764.95 211 687.998 230.614 730.95Z" fill="#31A7BA"/>
</g>
<g clip-path="url(#clip2_176_451)">
<path d="M289.001 700.999C270.548 700.999 260.583 706.775 255.016 714.29C249.249 722.075 247.501 732.635 247.501 743.499C247.501 754.728 248.378 763.379 255.653 769.751C263.258 776.414 278.881 781.499 311.501 781.499C333.895 781.499 349.993 780.43 361.552 778.532C373.186 776.621 379.76 773.938 383.516 771.063C387.008 768.391 388.357 765.331 388.887 761.491C389.167 759.465 389.211 757.237 389.169 754.692C389.13 752.3 389.001 749.303 389.001 746.499C389.001 743.009 386.291 738.247 379.736 732.68C373.407 727.306 364.394 721.957 353.983 717.205C333.109 707.676 307.633 700.999 289.001 700.999Z" fill="#87CFE5" stroke="#0178B2" stroke-width="9"/>
<path d="M252.387 730.95C241.387 773.95 274.841 778.998 313.501 778.998C352.161 778.998 374.001 775.998 379.501 768.998C392.501 762.998 338.887 767.95 310.887 764.95C225.887 764.95 272.001 687.998 252.387 730.95Z" fill="#31A7BA"/>
</g>
<g clip-path="url(#clip3_176_451)">
<path d="M193.5 432C218.481 432 239.5 456.198 239.5 486C239.5 502.815 236.057 516.285 228.772 525.501C221.589 534.588 210.302 540 193.5 540C168.615 540 149 516.395 149 486C149 455.605 168.615 432 193.5 432Z" fill="#FEFEFE" stroke="#0F79AB" stroke-width="6"/>
<path d="M288.176 405C301.85 405 314.49 412.602 323.821 425.245C333.149 437.883 339 455.372 339 474.5C339 496.046 335.187 513.464 327.027 525.417C319.002 537.174 306.53 544 288.176 544C274.506 544 262.294 536.555 253.386 524.026C244.469 511.484 239 493.989 239 474.5C239 455.011 244.469 437.516 253.386 424.974C262.294 412.445 274.506 405 288.176 405Z" fill="#FEFEFE" stroke="#0F79AB" stroke-width="6"/>
<path d="M241 550C252.046 550 261 540.374 261 528.5C261 516.626 252.046 507 241 507C229.955 507 221 516.626 221 528.5C221 540.374 229.955 550 241 550Z" fill="#ED6F7A"/>
<path d="M273.5 490C273.5 501.046 267.508 510 259.5 510C251.492 510 245 501.046 245 490C245 478.954 251.492 470 259.5 470C268.5 472.5 273.5 478.5 273.5 490Z" fill="#2B2A28"/>
<path d="M221.5 510C229.509 510 236 501.046 236 490C236 478.954 229.509 470 221.5 470C213.492 470 207 478.954 207 490C207 501.046 213.492 510 221.5 510Z" fill="#2B2A28"/>
<path d="M271 479.5C272 483 268.761 486 266 486C263.239 486 261 483.538 261 480.5C261 477.462 263.239 475 266 475C268.761 475 271 476.462 271 479.5Z" fill="#F9FAFB"/>
<path d="M233 479.5C234 483 230.762 486 228 486C225.239 486 223 483.538 223 480.5C223 477.462 225.239 475 228 475C230.762 475 233 476.462 233 479.5Z" fill="#F9FAFB"/>
</g>
<g clip-path="url(#clip4_176_451)">
<path d="M414.019 497.895C408.748 498.422 406.571 500.253 405.448 502.584C404.081 505.421 403.842 509.819 404.475 516.327C405.682 528.732 410.01 547.56 409.41 568.79L409.401 569.097L409.339 569.399C406.128 584.931 403.336 598.783 403.778 610.731C404.203 622.195 407.592 631.535 416.371 638.709C429.478 641.328 439.395 640.698 446.836 638.016C454.359 635.304 459.636 630.398 463.252 624.009C470.629 610.974 471.107 591.719 468.364 573.063L468.343 572.92L468.335 572.776C467.215 555.14 458.395 536.402 447.135 521.939C441.525 514.734 435.402 508.711 429.494 504.485C423.609 500.276 418.26 498.078 414.019 497.895Z" fill="#87CFE5" stroke="#0076B8" stroke-width="7"/>
<path d="M429.292 604.157C429.241 603.871 429.311 603.568 429.476 603.316C429.64 603.066 429.886 602.887 430.168 602.819C430.451 602.75 430.75 602.797 431.012 602.945C431.272 603.094 431.473 603.331 431.56 603.609C431.744 604.207 431.92 604.789 432.096 605.389C435.595 615.936 435.533 628.332 432.219 639.201C432.048 639.821 431.883 640.41 431.701 641.028C429.506 640.237 427.311 639.445 425.116 638.654C425.358 638.098 425.585 637.57 425.816 637.013C430.14 627.228 431.614 616.771 429.592 605.954C429.496 605.35 429.398 604.763 429.292 604.157Z" fill="#0074AB"/>
<path d="M453.155 603.763C453.13 603.469 453.23 603.166 453.419 602.925C453.608 602.684 453.871 602.522 454.163 602.475C454.454 602.429 454.755 602.499 455.01 602.669C455.265 602.84 455.455 603.095 455.524 603.382C455.649 603.905 455.766 604.399 455.884 604.924C458.187 614.089 458.363 624.251 457.174 633.656C457.116 634.191 457.061 634.7 457 635.234C456.894 636.186 456.415 637.027 455.624 637.564C454.836 638.101 453.801 638.29 452.79 638.097C451.779 637.904 450.886 637.348 450.351 636.559C449.812 635.769 449.675 634.811 449.927 633.887C450.064 633.38 450.196 632.897 450.33 632.391C452.855 623.462 454.093 614.642 453.273 605.312C453.235 604.787 453.199 604.29 453.155 603.763Z" fill="#007BA4"/>
</g>
<path d="M212.463 566.202L212.526 566.219L212.59 566.228L223.205 567.813L223.26 567.821L223.315 567.824L232.546 568.353L232.581 568.355L240 568.355L240 589.401L239.612 593.166L236.008 596.607L232.691 598.505L227.934 599L223.57 599L218.875 597.534L214.127 594.074L209.34 588.096L206.232 579.457L204 570.767L204 564L212.463 566.202Z" fill="#FEFEFE" stroke="#0578A5" stroke-width="3"/>
<path d="M303.294 585.254C296.446 591.239 276.361 599.884 259.47 603.542C242.124 604.539 243.493 607.354 243.493 602.212C254.449 591.239 266.318 582.594 306.489 581.264C310.597 581.264 307.858 581.264 303.294 585.254Z" fill="#FF1863"/>
<path d="M266.576 566.055L266.514 566.072L266.449 566.083L256.937 567.593L256.882 567.602L256.828 567.605L248.555 568.109L248.522 568.111L242 568.111L242 588.001L242.341 591.518L245.519 594.743L248.456 596.531L252.688 597L256.575 597L260.749 595.613L264.972 592.341L269.234 586.68L272.006 578.482L274 570.226L274 564L266.576 566.055Z" fill="#FEFEFE" stroke="#0875A4" stroke-width="3"/>
<path d="M334.912 537.256L334.797 537.574L334.797 537.907C334.796 549.088 326.615 571.443 307.766 589.579C289.106 607.533 260.121 621.24 218.32 615.791C183.12 604.448 167.905 586.712 160.615 571.342C156.937 563.587 155.25 556.38 154.082 550.745C153.691 548.861 153.346 547.096 153 545.556C156.946 547.639 161.717 550.007 167.133 552.411C189.473 562.328 223.454 573.19 255.588 566.608C285.779 566.517 308.666 554.524 322.926 545.29C326.508 542.97 329.563 540.813 332.038 539.068C333.169 538.27 334.152 537.58 335 537C334.971 537.083 334.943 537.169 334.912 537.256Z" fill="#D20223" stroke="#076FA2" stroke-width="6"/>
<path d="M210.463 566.202L210.526 566.219L210.59 566.228L221.205 567.813L221.26 567.821L221.315 567.824L230.546 568.353L230.581 568.355L238 568.355L238 589.401L237.612 593.166L234.008 596.607L230.691 598.505L225.934 599L221.57 599L216.875 597.534L212.127 594.074L207.34 588.096L204.232 579.457L202 570.767L202 564L210.463 566.202Z" fill="#FEFEFE" stroke="#0578A5" stroke-width="3"/>
<path d="M301.294 585.254C294.446 591.239 274.361 599.884 257.47 603.542C240.124 604.539 241.493 607.354 241.493 602.212C252.449 591.239 264.318 582.594 304.489 581.264C308.597 581.264 305.858 581.264 301.294 585.254Z" fill="#FF1863"/>
<path d="M264.576 566.055L264.514 566.072L264.449 566.083L254.937 567.593L254.882 567.602L254.828 567.605L246.555 568.109L246.522 568.111L240 568.111L240 588.001L240.341 591.518L243.519 594.743L246.456 596.531L250.688 597L254.575 597L258.749 595.613L262.972 592.341L267.234 586.68L270.006 578.482L272 570.226L272 564L264.576 566.055Z" fill="#FEFEFE" stroke="#0875A4" stroke-width="3"/>
<g clip-path="url(#clip5_176_451)">
<path fill-rule="evenodd" clip-rule="evenodd" d="M221.456 617.825C218.45 607.757 127.359 613.096 90.8965 624.015C72.0527 629.657 60.7936 647.773 65.7701 664.443C70.747 681.115 90.0854 690.068 108.93 684.425C145.392 673.507 224.461 627.894 221.456 617.825Z" fill="#FF9425"/>
<path fill-rule="evenodd" clip-rule="evenodd" d="M221.535 618.217C221.505 618.02 221.455 617.802 221.455 617.802C221.455 617.802 64.9633 660.404 65.7713 664.443C69.1822 681.505 90.1161 690.167 108.931 684.425C179.79 662.798 222.527 625.154 221.535 618.217Z" fill="#FF8600"/>
<path d="M101.104 684.083C100.523 677.283 99.5428 670.562 96.5208 664.45" stroke="#EF6A00" stroke-width="5" stroke-miterlimit="10" stroke-linecap="round" stroke-linejoin="round"/>
<path d="M133.214 673.718C134.7 668.777 132.899 664.383 130.635 659.942" stroke="#EF6A00" stroke-width="5" stroke-miterlimit="10" stroke-linecap="round" stroke-linejoin="round"/>
<path d="M171.484 656.179C170.073 649.989 168.231 645.071 166.138 640.894" stroke="#EF6A00" stroke-width="5" stroke-miterlimit="10" stroke-linecap="round" stroke-linejoin="round"/>
<path fill-rule="evenodd" clip-rule="evenodd" d="M72.1185 663.101C72.1185 663.101 46.5246 659.247 37.3589 659.984C28.2332 660.718 21.7387 672.9 23.336 677.2C25.5289 683.099 34.16 686.876 42.8588 682.807C51.053 678.975 72.1185 663.101 72.1185 663.101Z" fill="#129447"/>
<path fill-rule="evenodd" clip-rule="evenodd" d="M72.0752 663.254C72.0752 663.254 61.6967 659.34 53.6279 652.017C49.1389 647.943 48.4052 640.209 44.7215 637.735C40.3065 634.77 34.4216 633.444 31.8367 637.829C29.2522 642.213 31.681 647.892 35.7895 654.199C42.981 665.234 66.549 663.767 72.0752 663.254Z" fill="#00AA63"/>
<path fill-rule="evenodd" clip-rule="evenodd" d="M72.4078 662.066C72.4078 662.066 66.9331 655.105 62.1552 645.533C58.7693 638.749 57.5798 629.319 57.5569 628.68C57.2331 619.943 48.7781 618.919 44.7109 625.277C41.1691 630.815 41.8669 637.648 44.1924 642.629C50.1894 655.477 68.3643 664.718 72.4078 662.066Z" fill="#129447"/>
<path fill-rule="evenodd" clip-rule="evenodd" d="M72.4078 662.066C72.4078 662.066 67.0383 670.918 64.9198 681.159C63.7411 686.855 67.9146 693.604 66.4103 697.563C64.6082 702.309 60.5839 706.473 55.7476 704.213C50.9113 701.954 48.9747 694.01 48.8903 688.676C48.685 675.829 67.3736 663.051 72.4078 662.066Z" fill="#00AA63"/>
<path fill-rule="evenodd" clip-rule="evenodd" d="M72.4066 662.067C72.4066 662.067 71.0207 673.678 72.8255 684.075C74.2883 692.502 77.895 697.969 78.2757 700.725C78.976 705.792 75.6219 709.774 70.3698 708.792C65.117 707.811 60.4474 699.679 59.5359 695.41C56.7303 682.257 67.2183 665.384 72.4066 662.067Z" fill="#129447"/>
<path d="M103.693 638.762C104.757 632.754 103.148 626.723 101.867 622.915" stroke="#EF6A00" stroke-width="5" stroke-miterlimit="10" stroke-linecap="round" stroke-linejoin="round"/>
<path d="M144.406 630.085C145.131 625.535 143.988 620.589 143.08 617.429" stroke="#EF6A00" stroke-width="5" stroke-miterlimit="10" stroke-linecap="round" stroke-linejoin="round"/>
<path d="M184.507 621.832C184.745 619.274 183.85 616.26 183.173 614.314" stroke="#EF6A00" stroke-width="5" stroke-miterlimit="10" stroke-linecap="round" stroke-linejoin="round"/>
<path d="M96.0369 541.397C101.072 539.747 103.802 540.543 105.772 542.224C108.168 544.27 110.163 548.201 112.211 554.418C116.117 566.268 119.761 585.263 128.884 604.466L129.016 604.744L129.195 604.996C138.404 617.922 146.553 629.481 150.974 640.603C155.215 651.273 155.887 661.199 150.753 671.322C139.819 679.022 130.492 682.457 122.602 683.011C114.624 683.571 107.816 681.213 101.927 676.823C89.9142 667.869 81.702 650.426 76.6764 632.23L76.6372 632.09L76.587 631.954C70.489 615.348 70.99 594.618 75.4509 576.817C77.6726 567.947 80.8427 559.953 84.5412 553.692C88.2243 547.457 92.231 543.28 96.0369 541.397Z" fill="#87CFE5" stroke="#0076B8" stroke-width="7"/>
<path d="M108 650.911C107.923 650.625 107.728 650.374 107.468 650.21C107.209 650.048 106.907 649.984 106.617 650.038C106.326 650.093 106.068 650.26 105.884 650.507C105.702 650.753 105.609 651.057 105.641 651.351C105.7 651.885 105.756 652.39 105.821 652.924C106.743 662.329 110.003 671.955 114.293 680.409C114.528 680.893 114.751 681.354 114.989 681.835C115.409 682.697 116.144 683.326 117.07 683.565C117.993 683.805 119.03 683.634 119.917 683.112C120.804 682.59 121.457 681.765 121.696 680.842C121.936 679.916 121.742 678.968 121.194 678.184C120.893 677.752 120.606 677.341 120.31 676.911C114.923 669.355 110.784 661.47 108.411 652.409C108.269 651.902 108.136 651.421 108 650.911Z" fill="#007BA4"/>
<path d="M125.961 643.272C125.907 642.987 125.735 642.727 125.493 642.549C125.251 642.373 124.959 642.292 124.67 642.327C124.381 642.362 124.117 642.511 123.925 642.741C123.733 642.972 123.628 643.265 123.644 643.555C123.682 644.18 123.721 644.786 123.767 645.41C124.192 656.514 128.602 668.1 135.52 677.114C135.898 677.635 136.259 678.128 136.646 678.643C138.424 677.132 140.201 675.62 141.979 674.109C141.557 673.673 141.16 673.258 140.747 672.818C133.265 665.173 128.213 655.899 126.31 645.061C126.188 644.461 126.074 643.877 125.961 643.272Z" fill="#0074AB"/>
</g>
</g>
<defs>
<clipPath id="clip0_176_451">
<rect width="476" height="786" fill="white"/>
</clipPath>
<clipPath id="clip1_176_451">
<rect width="151" height="90" fill="white" transform="translate(89 695.999)"/>
</clipPath>
<clipPath id="clip2_176_451">
<rect width="151" height="90" fill="white" transform="matrix(-1 0 0 1 394.001 695.999)"/>
</clipPath>
<clipPath id="clip3_176_451">
<rect width="196" height="148" fill="white" transform="translate(146 402)"/>
</clipPath>
<clipPath id="clip4_176_451">
<rect width="76" height="149" fill="white" transform="matrix(-0.999601 -0.0282517 -0.0282517 0.999601 476.179 496.147)"/>
</clipPath>
<clipPath id="clip5_176_451">
<rect width="156.179" height="209.026" fill="white" transform="matrix(-0.322075 -0.94664 -0.946476 0.322992 235.14 654.846)"/>
</clipPath>
</defs>
</svg>
