<svg width="476" height="786" viewBox="0 0 476 786" fill="none" xmlns="http://www.w3.org/2000/svg">
<g clip-path="url(#clip0_176_1377)">
<g clip-path="url(#clip1_176_1377)">
<g clip-path="url(#clip2_176_1377)">
<path d="M86.9297 16.7143C96.5345 11.8058 106.682 11.5524 117.15 15.7188C127.798 19.9572 138.925 28.8568 149.706 42.484C171.246 69.7073 190.39 114.534 201.105 172.941C203.797 197.451 207.515 221.975 210.903 244.675C214.315 267.526 217.378 288.445 218.81 305.946C220.262 323.711 219.917 336.908 217.187 344.843C215.87 348.67 214.243 350.541 212.698 351.426C211.21 352.28 208.76 352.81 204.48 351.727L201.386 350.945L199.008 353.076C195.786 355.965 194.143 356.089 193.632 356.04C193.139 355.992 191.842 355.603 189.746 352.806C187.689 350.061 185.529 345.873 183.134 340.141C180.765 334.471 178.317 327.671 175.575 319.89C164.678 288.966 149.647 243.897 118.755 204.259L118.539 203.982L118.293 203.733L115.425 200.807C55.8798 139.71 39.4621 98.8817 41.6354 71.5833C43.8011 44.3815 64.7521 28.0479 86.9297 16.7143Z" fill="#8BCDE5" stroke="#0E6B96" stroke-width="12"/>
<path d="M307.345 63.0001C329.956 36.7664 354.435 28.2455 371.981 33.7082C390.948 39.6138 410.17 56.4775 412.328 84.658C414.514 113.194 399.378 155.113 344.924 210.922L344.816 211.034L344.714 211.149C311.199 249.217 298.305 291.6 289.629 320.998C287.446 328.398 285.571 334.835 283.702 340.279C281.814 345.774 280.078 349.805 278.313 352.52C276.553 355.23 275.28 355.846 274.561 355.996C273.785 356.157 271.966 356.128 268.378 353.876L266.01 352.389L263.352 353.247C259.04 354.637 256.325 354.41 254.592 353.718C252.907 353.044 251.211 351.556 249.678 348.449C246.419 341.847 245.025 330.25 245.345 314.045C245.977 281.971 253.048 236.878 258.547 190.113C265.454 131.368 284.962 88.9707 307.345 63.0001Z" fill="#87CFE5" stroke="#0E6B96" stroke-width="12"/>
<path d="M237.5 334.426C339.975 334.426 423 416.937 423 518.661C423 620.384 339.975 702.895 237.5 702.895C135.025 702.895 52.0005 620.384 52.0005 518.661C52.0005 416.937 135.025 334.426 237.5 334.426Z" fill="#86D0E3" stroke="#0C74AB" stroke-width="7"/>
<path d="M364.501 646.824C330.001 685.874 266.001 701.394 241.001 698.89C134.001 704.898 53.5005 610.673 56.0005 517.159C57.5664 458.584 43.0005 596.76 182.001 655.836C256.501 693.383 364.501 646.824 364.501 646.824Z" fill="#37B4CA"/>
<path opacity="0.77" d="M173.5 393.501L182.5 381.987L195 370.972L202 366.967L208.5 364.965L212 368.469L215 372.474L217 378.482L208.5 380.985L196 387.994L187.5 393.501L179 401.511L175 397.006L173.5 393.501Z" fill="#004F80"/>
<path opacity="0.7" d="M264.5 357.956H272.5L280 359.458L288 362.462L298 366.968L306.5 371.974L305 379.483L295 376.98L283.5 374.477L274.5 372.975H267.5H259.5V365.966L261 360.96L264.5 357.956Z" fill="#014C83"/>
<g clip-path="url(#clip3_176_1377)">
<path d="M199 700.892C217.453 700.892 227.418 706.676 232.985 714.2C238.752 721.995 240.5 732.568 240.5 743.446C240.5 754.69 239.623 763.351 232.348 769.732C224.743 776.403 209.12 781.494 176.5 781.494C154.106 781.494 138.008 780.425 126.449 778.524C114.815 776.61 108.241 773.924 104.485 771.045C100.993 768.37 99.6442 765.307 99.1137 761.461C98.8339 759.432 98.7896 757.202 98.8315 754.653C98.8709 752.258 99.0004 749.258 99.0004 746.45C99.0004 742.955 101.71 738.187 108.265 732.614C114.594 727.233 123.607 721.877 134.018 717.118C154.892 707.578 180.368 700.892 199 700.892Z" fill="#87CFE5" stroke="#0178B2" stroke-width="9"/>
<path d="M235.614 730.881C246.614 773.936 213.16 778.99 174.5 778.99C135.84 778.99 114 775.987 108.5 768.978C95.5 762.97 149.114 767.928 177.114 764.924C262.114 764.924 216 687.874 235.614 730.881Z" fill="#31A7BA"/>
</g>
<g clip-path="url(#clip4_176_1377)">
<path d="M291.001 700.892C272.548 700.892 262.583 706.676 257.016 714.2C251.249 721.995 249.501 732.568 249.501 743.446C249.501 754.69 250.378 763.351 257.653 769.732C265.258 776.403 280.881 781.494 313.501 781.494C335.895 781.494 351.993 780.425 363.552 778.524C375.186 776.61 381.76 773.924 385.516 771.045C389.008 768.37 390.357 765.307 390.887 761.461C391.167 759.432 391.211 757.202 391.169 754.653C391.13 752.258 391.001 749.258 391.001 746.45C391.001 742.955 388.291 738.187 381.736 732.614C375.407 727.233 366.394 721.877 355.983 717.118C335.109 707.578 309.633 700.892 291.001 700.892Z" fill="#87CFE5" stroke="#0178B2" stroke-width="9"/>
<path d="M254.387 730.881C243.387 773.936 276.841 778.99 315.501 778.99C354.161 778.99 376.001 775.987 381.501 768.978C394.501 762.97 340.887 767.928 312.887 764.924C227.887 764.924 274.001 687.874 254.387 730.881Z" fill="#31A7BA"/>
</g>
<g clip-path="url(#clip5_176_1377)">
<path d="M193.5 431.55C218.481 431.55 239.5 455.778 239.5 485.619C239.5 502.455 236.057 515.942 228.772 525.17C221.589 534.269 210.302 539.688 193.5 539.688C168.615 539.688 149 516.052 149 485.619C149 455.185 168.615 431.55 193.5 431.55Z" fill="#FEFEFE" stroke="#0F79AB" stroke-width="6"/>
<path d="M288.176 404.516C301.85 404.516 314.49 412.128 323.821 424.787C333.149 437.441 339 454.952 339 474.104C339 495.678 335.187 513.118 327.027 525.086C319.002 536.858 306.53 543.693 288.176 543.693C274.506 543.693 262.294 536.238 253.386 523.693C244.469 511.135 239 493.618 239 474.104C239 454.591 244.469 437.073 253.386 424.515C262.294 411.97 274.506 404.516 288.176 404.516Z" fill="#FEFEFE" stroke="#0F79AB" stroke-width="6"/>
<path d="M241 549.7C252.046 549.7 261 540.062 261 528.173C261 516.284 252.046 506.646 241 506.646C229.955 506.646 221 516.284 221 528.173C221 540.062 229.955 549.7 241 549.7Z" fill="#ED6F7A"/>
<path d="M273.5 489.624C273.5 500.684 267.508 509.65 259.5 509.65C251.492 509.65 245 500.684 245 489.624C245 478.564 251.492 469.599 259.5 469.599C268.5 472.102 273.5 478.109 273.5 489.624Z" fill="#2B2A28"/>
<path d="M221.5 509.65C229.509 509.65 236 500.684 236 489.624C236 478.564 229.509 469.599 221.5 469.599C213.492 469.599 207 478.564 207 489.624C207 500.684 213.492 509.65 221.5 509.65Z" fill="#2B2A28"/>
<path d="M271 479.11C272 482.615 268.761 485.619 266 485.619C263.239 485.619 261 483.153 261 480.112C261 477.07 263.239 474.604 266 474.604C268.761 474.604 271 476.069 271 479.11Z" fill="#F9FAFB"/>
<path d="M233 479.11C234 482.615 230.762 485.619 228 485.619C225.239 485.619 223 483.153 223 480.112C223 477.07 225.239 474.604 228 474.604C230.762 474.604 233 476.069 233 479.11Z" fill="#F9FAFB"/>
</g>
<g clip-path="url(#clip6_176_1377)">
<path d="M413.914 510.508C408.66 511.185 406.535 513.078 405.478 515.444C404.193 518.322 404.078 522.731 404.894 529.226C406.452 541.608 411.31 560.33 411.31 581.595V581.903L411.256 582.208C408.485 597.843 406.086 611.787 406.865 623.733C407.613 635.195 411.265 644.448 420.243 651.379C433.419 653.629 443.314 652.718 450.677 649.823C458.12 646.897 463.256 641.837 466.69 635.34C473.696 622.085 473.629 602.8 470.361 584.205L470.336 584.063L470.323 583.919C468.706 566.299 459.36 547.794 447.696 533.637C441.885 526.584 435.594 520.729 429.568 516.666C423.567 512.62 418.158 510.572 413.914 510.508Z" fill="#87CFE5" stroke="#0076B8" stroke-width="7"/>
<path d="M432.182 616.431C432.124 616.146 432.186 615.84 432.342 615.584C432.5 615.329 432.74 615.144 433.021 615.068C433.301 614.99 433.602 615.028 433.867 615.17C434.132 615.311 434.34 615.543 434.434 615.818C434.635 616.412 434.828 616.989 435.02 617.585C438.816 628.042 439.104 640.451 436.099 651.423C435.946 652.049 435.797 652.642 435.633 653.266C433.416 652.536 431.2 651.806 428.983 651.076C429.209 650.513 429.421 649.978 429.637 649.414C433.682 639.499 434.86 628.99 432.534 618.222C432.42 617.62 432.306 617.035 432.182 616.431Z" fill="#0074AB"/>
<path d="M456.025 615.362C455.992 615.067 456.083 614.762 456.265 614.515C456.448 614.268 456.706 614.099 456.996 614.044C457.286 613.989 457.588 614.051 457.849 614.214C458.108 614.377 458.305 614.628 458.383 614.913C458.522 615.433 458.653 615.924 458.786 616.446C461.347 625.554 461.81 635.72 460.887 645.167C460.844 645.703 460.803 646.215 460.758 646.751C460.679 647.707 460.223 648.562 459.448 649.122C458.675 649.681 457.646 649.9 456.63 649.736C455.614 649.571 454.706 649.04 454.148 648.266C453.588 647.49 453.424 646.534 453.65 645.603C453.772 645.092 453.89 644.604 454.01 644.094C456.282 635.086 457.27 626.224 456.187 616.909C456.134 616.384 456.084 615.887 456.025 615.362Z" fill="#007BA4"/>
</g>
<path d="M343.342 591.791C298.437 602.835 290.091 570.665 307.279 548" stroke="#076FA2" stroke-width="6" stroke-linecap="round"/>
<path d="M193.319 565.107C193.081 564.703 192.749 564.461 192.396 564.436C192.043 564.41 191.697 564.602 191.436 564.97C191.174 565.338 191.018 565.851 191.001 566.397C190.985 566.943 191.109 567.476 191.347 567.88C192.513 569.86 193.755 571.734 195.058 573.496C219.343 604.928 257.155 600.351 280.759 569.853C282.086 568.149 283.351 566.397 284.594 564.541C284.848 564.161 284.994 563.64 285 563.094C285.006 562.548 284.87 562.02 284.625 561.628C284.379 561.235 284.042 561.009 283.689 561C283.335 560.991 282.994 561.2 282.739 561.579C281.546 563.364 280.33 565.047 279.055 566.684C256.441 596.062 219.719 600.228 196.814 570.395C195.584 568.733 194.416 566.968 193.319 565.107Z" fill="#076FA2"/>
<path d="M217.334 591.963L217.375 591.979L217.416 591.987L224.306 593.487L224.341 593.495L224.377 593.498L230.368 593.998L230.39 594H235.205V613.916L234.953 617.48L232.614 620.735L230.462 622.531L227.375 623H224.543L221.495 621.612L218.414 618.339L215.307 612.682L213.29 604.506L211.842 596.282V589.879L217.334 591.963Z" fill="#FEFEFE" stroke="#0578A5" stroke-width="3"/>
<path d="M252.506 591.723L252.465 591.738L252.423 591.748L246.19 593.104L246.154 593.111L246.119 593.114L240.699 593.566L240.676 593.568H236.403V611.422L236.627 614.579L238.709 617.474L240.633 619.079L243.406 619.5H245.953L248.688 618.255L251.455 615.318L254.247 610.236L256.064 602.878L257.37 595.467V589.878L252.506 591.723Z" fill="#FEFEFE" stroke="#0875A4" stroke-width="3"/>
<path d="M138 595C175.575 601.344 185.177 572.219 172.206 553.464" stroke="#076FA2" stroke-width="6" stroke-linecap="round"/>
</g>
</g>
<g clip-path="url(#clip7_176_1377)">
<path d="M71.3252 596.069C73.0834 591.072 75.3763 589.389 77.9077 588.849C80.9875 588.192 85.3171 588.999 91.4904 591.153C103.258 595.259 120.53 603.915 141.3 608.351L141.6 608.415L141.909 608.426C157.758 608.978 171.879 609.541 183.384 612.794C194.422 615.917 202.696 621.418 207.592 631.644C207.037 644.999 204.08 654.486 199.715 661.082C195.302 667.751 189.288 671.718 182.225 673.721C167.815 677.808 148.994 673.719 131.515 666.644L131.38 666.59L131.243 666.548C114.371 661.29 98.2495 648.291 86.8593 633.931C81.1839 626.777 76.7791 619.402 74.0694 612.662C71.3713 605.95 70.5008 600.233 71.3252 596.069Z" fill="#87CFE5" stroke="#0076B8" stroke-width="7"/>
<path d="M170.965 636.03C170.698 635.914 170.387 635.91 170.104 636.011C169.821 636.111 169.59 636.308 169.457 636.566C169.324 636.824 169.298 637.126 169.38 637.415C169.462 637.703 169.646 637.954 169.896 638.104C170.433 638.425 170.956 638.734 171.499 639.046C180.919 644.941 192.978 647.81 204.322 647.16C204.966 647.141 205.577 647.119 206.22 647.088C205.97 644.768 205.72 642.449 205.47 640.129C204.872 640.232 204.306 640.328 203.71 640.421C193.181 642.309 182.671 641.268 172.639 636.748C172.076 636.511 171.529 636.277 170.965 636.03Z" fill="#0074AB"/>
<path d="M164.941 659.123C164.66 659.03 164.343 659.056 164.064 659.182C163.784 659.309 163.566 659.527 163.451 659.799C163.337 660.071 163.334 660.38 163.439 660.668C163.544 660.956 163.748 661.2 164.011 661.336C164.489 661.581 164.941 661.811 165.424 662.05C173.783 666.455 183.616 669.028 193.036 670.096C193.569 670.166 194.078 670.233 194.61 670.3C195.56 670.423 196.491 670.155 197.199 669.514C197.907 668.874 198.335 667.914 198.387 666.886C198.439 665.859 198.11 664.86 197.47 664.152C196.829 663.443 195.931 663.083 194.973 663.11C194.448 663.123 193.947 663.136 193.424 663.147C184.152 663.489 175.29 662.608 166.418 659.605C165.916 659.444 165.442 659.291 164.941 659.123Z" fill="#007BA4"/>
</g>
</g>
<defs>
<clipPath id="clip0_176_1377">
<rect width="476" height="786" fill="white"/>
</clipPath>
<clipPath id="clip1_176_1377">
<rect width="476" height="786" fill="white"/>
</clipPath>
<clipPath id="clip2_176_1377">
<rect width="476" height="786" fill="white"/>
</clipPath>
<clipPath id="clip3_176_1377">
<rect width="151" height="90.1148" fill="white" transform="translate(94 695.885)"/>
</clipPath>
<clipPath id="clip4_176_1377">
<rect width="151" height="90.1148" fill="white" transform="matrix(-1 0 0 1 396.001 695.885)"/>
</clipPath>
<clipPath id="clip5_176_1377">
<rect width="196" height="148.189" fill="white" transform="translate(146 401.512)"/>
</clipPath>
<clipPath id="clip6_176_1377">
<rect width="76" height="149.19" fill="white" transform="matrix(-1 0 0 1 476 507)"/>
</clipPath>
<clipPath id="clip7_176_1377">
<rect width="158.308" height="110.56" fill="white" transform="matrix(-1 0 0 1 214.308 577)"/>
</clipPath>
</defs>
</svg>
