<svg width="476" height="786" viewBox="0 0 476 786" fill="none" xmlns="http://www.w3.org/2000/svg">
<g clip-path="url(#clip0_176_875)">
<path d="M86.9297 16.7143C96.5345 11.8058 106.682 11.5524 117.15 15.7188C127.798 19.9572 138.925 28.8568 149.706 42.484C171.246 69.7073 190.39 114.534 201.105 172.941C203.797 197.451 207.515 221.975 210.903 244.675C214.315 267.526 217.378 288.445 218.81 305.946C220.262 323.711 219.917 336.908 217.187 344.843C215.87 348.67 214.243 350.541 212.698 351.426C211.21 352.28 208.76 352.81 204.48 351.727L201.386 350.945L199.008 353.076C195.786 355.965 194.143 356.089 193.632 356.04C193.139 355.992 191.842 355.603 189.746 352.806C187.689 350.061 185.529 345.873 183.134 340.141C180.765 334.471 178.317 327.671 175.575 319.89C164.678 288.966 149.647 243.897 118.755 204.259L118.539 203.982L118.293 203.733L115.425 200.807C55.8798 139.71 39.4621 98.8817 41.6354 71.5833C43.8011 44.3815 64.7521 28.0479 86.9297 16.7143Z" fill="#8BCDE5" stroke="#0E6B96" stroke-width="12"/>
<path d="M307.345 63.0001C329.956 36.7664 354.435 28.2455 371.981 33.7082C390.948 39.6138 410.17 56.4775 412.328 84.658C414.514 113.194 399.378 155.113 344.924 210.922L344.816 211.034L344.714 211.149C311.199 249.217 298.305 291.6 289.629 320.998C287.446 328.398 285.571 334.835 283.702 340.279C281.814 345.774 280.078 349.805 278.313 352.52C276.553 355.23 275.28 355.846 274.561 355.996C273.785 356.157 271.966 356.128 268.378 353.876L266.01 352.389L263.352 353.247C259.04 354.637 256.325 354.41 254.592 353.718C252.907 353.044 251.211 351.556 249.678 348.449C246.419 341.847 245.025 330.25 245.345 314.045C245.977 281.971 253.048 236.878 258.547 190.113C265.454 131.368 284.962 88.9707 307.345 63.0001Z" fill="#87CFE5" stroke="#0E6B96" stroke-width="12"/>
<path d="M237.5 334.426C339.975 334.426 423 416.937 423 518.661C423 620.384 339.975 702.895 237.5 702.895C135.025 702.895 52.0005 620.384 52.0005 518.661C52.0005 416.937 135.025 334.426 237.5 334.426Z" fill="#86D0E3" stroke="#0C74AB" stroke-width="7"/>
<path d="M364.501 646.824C330.001 685.874 266.001 701.394 241.001 698.89C134.001 704.898 53.5005 610.673 56.0005 517.159C57.5664 458.584 43.0005 596.76 182.001 655.836C256.501 693.383 364.501 646.824 364.501 646.824Z" fill="#37B4CA"/>
<path opacity="0.77" d="M173.5 393.501L182.5 381.987L195 370.972L202 366.967L208.5 364.965L212 368.469L215 372.474L217 378.482L208.5 380.985L196 387.994L187.5 393.501L179 401.511L175 397.006L173.5 393.501Z" fill="#004F80"/>
<path opacity="0.7" d="M264.5 357.956H272.5L280 359.458L288 362.462L298 366.968L306.5 371.974L305 379.483L295 376.98L283.5 374.477L274.5 372.975H267.5H259.5V365.966L261 360.96L264.5 357.956Z" fill="#014C83"/>
<g clip-path="url(#clip1_176_875)">
<path d="M199 700.891C217.453 700.891 227.418 706.675 232.985 714.199C238.752 721.994 240.5 732.567 240.5 743.445C240.5 754.689 239.623 763.351 232.348 769.732C224.743 776.403 209.12 781.494 176.5 781.494C154.106 781.494 138.008 780.424 126.449 778.523C114.815 776.61 108.241 773.923 104.485 771.045C100.993 768.369 99.6442 765.306 99.1137 761.46C98.8339 759.432 98.7896 757.202 98.8315 754.653C98.8709 752.258 99.0004 749.257 99.0004 746.449C99.0004 742.955 101.71 738.187 108.265 732.613C114.594 727.232 123.607 721.877 134.018 717.118C154.892 707.577 180.368 700.891 199 700.891Z" fill="#87CFE5" stroke="#0178B2" stroke-width="9"/>
<path d="M235.614 730.881C246.614 773.936 213.16 778.991 174.5 778.991C135.84 778.991 114 775.987 108.5 768.978C95.5 762.97 149.114 767.928 177.114 764.925C262.114 764.925 216 687.875 235.614 730.881Z" fill="#31A7BA"/>
</g>
<g clip-path="url(#clip2_176_875)">
<path d="M291.001 700.891C272.548 700.891 262.583 706.675 257.016 714.199C251.249 721.994 249.501 732.567 249.501 743.445C249.501 754.689 250.378 763.351 257.653 769.732C265.258 776.403 280.881 781.494 313.501 781.494C335.895 781.494 351.993 780.424 363.552 778.523C375.186 776.61 381.76 773.923 385.516 771.045C389.008 768.369 390.357 765.306 390.887 761.46C391.167 759.432 391.211 757.202 391.169 754.653C391.13 752.258 391.001 749.257 391.001 746.449C391.001 742.955 388.291 738.187 381.736 732.613C375.407 727.232 366.394 721.877 355.983 717.118C335.109 707.577 309.633 700.891 291.001 700.891Z" fill="#87CFE5" stroke="#0178B2" stroke-width="9"/>
<path d="M254.387 730.881C243.387 773.936 276.841 778.991 315.501 778.991C354.161 778.991 376.001 775.987 381.501 768.978C394.501 762.97 340.887 767.928 312.887 764.925C227.887 764.925 274.001 687.875 254.387 730.881Z" fill="#31A7BA"/>
</g>
<g clip-path="url(#clip3_176_875)">
<path d="M419.691 492.119C414.404 491.773 411.955 493.222 410.463 495.34C408.647 497.917 407.686 502.221 407.237 508.752C406.383 521.202 407.547 540.509 403.454 561.377L403.395 561.679L403.284 561.967C397.556 576.777 392.518 589.999 390.983 601.872C389.511 613.263 391.314 623.045 398.791 631.576C411.287 636.319 421.172 637.329 428.955 635.906C436.822 634.466 442.836 630.489 447.456 624.775C456.882 613.116 460.528 594.178 460.9 575.302L460.902 575.157L460.917 575.014C462.721 557.412 457.112 537.454 448.39 521.317C444.045 513.278 438.998 506.321 433.867 501.175C428.757 496.049 423.843 492.999 419.691 492.119Z" fill="#87CFE5" stroke="#0076B8" stroke-width="7"/>
<path d="M417.232 599.579C417.23 599.288 417.349 599 417.553 598.779C417.756 598.558 418.028 598.423 418.318 598.402C418.608 598.381 418.896 598.476 419.129 598.665C419.361 598.855 419.52 599.123 419.56 599.411C419.643 600.033 419.721 600.636 419.795 601.257C421.508 612.25 419.402 624.482 414.342 634.67C414.071 635.255 413.81 635.809 413.53 636.39C411.495 635.247 409.46 634.104 407.426 632.961C407.756 632.451 408.067 631.967 408.387 631.456C414.264 622.504 417.443 612.419 417.233 601.404C417.237 600.791 417.237 600.195 417.232 599.579Z" fill="#0074AB"/>
<path d="M440.835 603.118C440.86 602.823 441.008 602.541 441.234 602.333C441.461 602.127 441.747 602.01 442.042 602.012C442.337 602.014 442.622 602.133 442.846 602.343C443.069 602.553 443.214 602.837 443.235 603.132C443.272 603.668 443.305 604.176 443.336 604.714C444.096 614.144 442.594 624.209 439.87 633.302C439.725 633.82 439.586 634.314 439.439 634.831C439.177 635.754 438.565 636.506 437.697 636.906C436.831 637.306 435.779 637.322 434.814 636.966C433.848 636.609 433.06 635.913 432.661 635.046C432.261 634.176 432.284 633.207 432.684 632.337C432.903 631.859 433.113 631.403 433.328 630.926C437.291 622.523 439.967 614.017 440.696 604.667C440.746 604.142 440.791 603.645 440.835 603.118Z" fill="#007BA4"/>
</g>
<path d="M344.279 603C297.279 611.5 285.779 575.5 302.279 552" stroke="#076FA2" stroke-width="6" stroke-linecap="round"/>
<path d="M193.319 565.107C193.081 564.703 192.749 564.461 192.396 564.436C192.043 564.41 191.697 564.602 191.436 564.97C191.174 565.338 191.018 565.851 191.001 566.397C190.985 566.943 191.109 567.476 191.347 567.88C192.513 569.86 193.755 571.734 195.058 573.496C219.343 604.928 257.155 600.351 280.759 569.853C282.086 568.149 283.351 566.397 284.594 564.541C284.848 564.161 284.994 563.64 285 563.094C285.006 562.548 284.87 562.02 284.625 561.628C284.379 561.235 284.042 561.009 283.689 561C283.335 560.991 282.994 561.2 282.739 561.579C281.546 563.364 280.33 565.047 279.055 566.684C256.441 596.062 219.719 600.228 196.814 570.395C195.584 568.733 194.416 566.968 193.319 565.107Z" fill="#076FA2"/>
<path d="M217.334 591.963L217.375 591.979L217.417 591.987L224.306 593.487L224.341 593.495L224.377 593.498L230.368 593.998L230.391 594H235.205V613.916L234.954 617.48L232.614 620.735L230.462 622.531L227.375 623H224.543L221.495 621.612L218.414 618.339L215.308 612.682L213.291 604.506L211.842 596.282V589.879L217.334 591.963Z" fill="#FEFEFE" stroke="#0578A5" stroke-width="3"/>
<path d="M252.506 591.723L252.465 591.738L252.423 591.748L246.19 593.104L246.154 593.111L246.119 593.114L240.699 593.566L240.676 593.568H236.403V611.422L236.627 614.579L238.709 617.474L240.633 619.079L243.406 619.5H245.953L248.688 618.255L251.455 615.318L254.247 610.236L256.064 602.878L257.37 595.467V589.878L252.506 591.723Z" fill="#FEFEFE" stroke="#0875A4" stroke-width="3"/>
<path d="M126 601C173 609.5 184.5 573.5 168 550" stroke="#076FA2" stroke-width="6" stroke-linecap="round"/>
<path fill-rule="evenodd" clip-rule="evenodd" d="M201.469 622.744C198.638 612.637 107.47 616.37 70.8238 626.633C51.8853 631.937 40.3137 649.829 45.0002 666.563C49.6873 683.298 68.8673 692.578 87.8068 687.274C124.452 677.011 204.299 632.851 201.469 622.744Z" fill="#FF9425"/>
<path fill-rule="evenodd" clip-rule="evenodd" d="M201.541 623.137C201.515 622.939 201.468 622.721 201.468 622.721C201.468 622.721 44.2635 662.515 45.0012 666.563C48.1157 683.66 68.896 692.677 87.8077 687.274C159.03 666.922 202.413 630.081 201.541 623.137Z" fill="#FF8600"/>
<path d="M79.9881 686.795C79.5252 679.994 78.6614 673.266 75.7458 667.109" stroke="#EF6A00" stroke-width="5" stroke-miterlimit="10" stroke-linecap="round" stroke-linejoin="round"/>
<path d="M112.272 677.008C113.843 672.101 112.12 667.68 109.931 663.207" stroke="#EF6A00" stroke-width="5" stroke-miterlimit="10" stroke-linecap="round" stroke-linejoin="round"/>
<path d="M150.841 660.167C149.537 653.961 147.781 649.018 145.76 644.81" stroke="#EF6A00" stroke-width="5" stroke-miterlimit="10" stroke-linecap="round" stroke-linejoin="round"/>
<path fill-rule="evenodd" clip-rule="evenodd" d="M51.3707 665.333C51.3707 665.333 25.8477 661.035 16.6707 661.611C7.5338 662.184 0.829131 674.234 2.35163 678.556C4.44192 684.485 13.006 688.409 21.7741 684.498C30.0334 680.816 51.3707 665.333 51.3707 665.333Z" fill="#129447"/>
<path fill-rule="evenodd" clip-rule="evenodd" d="M51.3252 665.486C51.3252 665.486 41.0164 661.396 33.0757 653.941C28.658 649.794 28.0588 642.059 24.4184 639.523C20.0548 636.486 14.1947 635.057 11.5341 639.391C8.87314 643.724 11.2041 649.438 15.2025 655.807C22.2014 666.953 45.7911 665.902 51.3252 665.486Z" fill="#00AA63"/>
<path fill-rule="evenodd" clip-rule="evenodd" d="M51.678 664.306C51.678 664.306 46.3242 657.259 41.7138 647.616C38.4462 640.782 37.4204 631.344 37.4077 630.707C37.2364 621.976 28.8005 620.805 24.6237 627.082C20.9863 632.55 21.5655 639.386 23.8044 644.402C29.5775 657.335 47.5892 666.882 51.678 664.306Z" fill="#129447"/>
<path fill-rule="evenodd" clip-rule="evenodd" d="M51.6769 664.306C51.6769 664.306 46.1558 673.051 43.86 683.24C42.5828 688.907 46.6386 695.72 45.0659 699.648C43.1818 704.355 39.0858 708.442 34.2895 706.101C29.4932 703.76 27.6946 695.793 27.7028 690.465C27.7203 677.632 46.6275 665.201 51.6769 664.306Z" fill="#00AA63"/>
<path fill-rule="evenodd" clip-rule="evenodd" d="M51.6772 664.307C51.6772 664.307 50.09 675.877 51.7142 686.292C53.0297 694.732 56.542 700.255 56.8748 703.013C57.4871 708.086 54.0636 712.004 48.8303 710.93C43.5953 709.858 39.0666 701.656 38.2302 697.377C35.6532 684.194 46.431 667.528 51.6772 664.307Z" fill="#129447"/>
<path d="M83.3623 641.584C84.5303 635.603 83.0259 629.552 81.8114 625.727" stroke="#EF6A00" stroke-width="5" stroke-miterlimit="10" stroke-linecap="round" stroke-linejoin="round"/>
<path d="M124.219 633.634C125.024 629.103 123.966 624.145 123.113 620.973" stroke="#EF6A00" stroke-width="5" stroke-miterlimit="10" stroke-linecap="round" stroke-linejoin="round"/>
<path d="M164.457 626.097C164.739 623.546 163.897 620.522 163.254 618.566" stroke="#EF6A00" stroke-width="5" stroke-miterlimit="10" stroke-linecap="round" stroke-linejoin="round"/>
<path d="M119.015 622.533C119.58 622.469 118.611 624.894 119.825 625.379C121.22 625.935 123.128 626.336 123.074 627.525C123.048 628.117 122.1 631.066 122.575 632.394C123.086 633.825 122.595 634.176 123.123 634.318C124.158 634.594 123.113 639.705 125.865 640.295C127.043 640.548 129.694 639.117 130.092 639.491C130.919 640.27 133.241 639.282 134.576 638.27C135.638 637.466 135.633 635.969 136.244 634.865C136.566 634.283 136.717 633.607 136.993 633.041C137.127 632.769 137.411 632.627 137.663 632.651C139.272 632.799 139.639 635.988 140.627 636.881C141.079 637.289 141.434 637.824 141.967 638.16C142.965 638.788 144.37 638.549 145.598 638.739C146.867 638.935 148.034 639.07 149.441 638.866C150.233 638.751 151.553 638.754 152.959 638.208C154.375 637.659 154.928 636.067 155.539 634.963C156.151 633.856 155.985 633.103 156.525 632.947C157.868 632.562 158.968 634.585 160.178 635.414C161.442 636.279 162.69 637.041 164.008 637.547C165.228 638.016 167.045 637.951 171.298 638.154C173.729 638.271 176.515 638.283 178.204 638.193C179.685 638.113 181.435 637.373 182.49 636.439C183.647 635.414 184.807 634.462 185.635 633.249C186.393 632.138 187.891 631.24 188.349 630.084C188.809 628.921 189.845 628.146 190.504 627.029C191.187 625.87 191.358 624.2 191.728 622.922C191.916 621.694 192.138 620.753 192.106 620.129C192.062 619.799 191.96 619.441 191.855 619.073" stroke="#C65104" stroke-width="2" stroke-linecap="round"/>
<path d="M192.386 618.307C191.606 624.613 187.911 632.864 181.943 637.32C174.502 639.44 163.535 637.805 160.108 635.243C154.215 630.838 162.61 629.553 157.829 618.194C163.694 617.077 182.603 618.328 192.386 618.307Z" fill="#934511"/>
<path d="M165.991 620.548C166.81 627.074 155.58 635.324 151.696 638.606C146.741 640.018 140.104 637.202 138.645 634.056C134.6 625.33 134.026 621.926 137.559 619.289C142.434 619.98 169.087 614.989 165.991 620.548Z" fill="#934511"/>
<path d="M145.336 621.753C146.154 628.277 134.925 636.528 131.04 639.809C126.086 641.221 119.448 638.405 117.99 635.259C113.944 626.533 113.37 623.13 116.903 620.492C121.779 621.183 148.431 616.192 145.336 621.753Z" fill="#934511"/>
<path d="M108.55 657.305C108.485 657.021 108.303 656.768 108.054 656.601C107.805 656.433 107.51 656.365 107.223 656.411C106.937 656.458 106.678 656.616 106.495 656.854C106.312 657.092 106.219 657.389 106.247 657.679C106.309 658.302 106.372 658.906 106.443 659.528C107.308 670.607 112.175 682.007 119.444 690.74C119.843 691.246 120.224 691.724 120.631 692.223C122.347 690.642 124.063 689.061 125.78 687.48C125.341 687.061 124.927 686.663 124.498 686.239C116.717 678.898 111.303 669.831 108.97 659.077C108.825 658.483 108.687 657.904 108.55 657.305Z" fill="#0074AB"/>
<path d="M86.4031 666.198C86.3107 665.917 86.1013 665.678 85.8338 665.528C85.5653 665.379 85.2605 665.333 84.9741 665.403C84.6868 665.473 84.4373 665.654 84.2684 665.91C84.0986 666.165 84.0235 666.475 84.0711 666.766C84.1586 667.297 84.2428 667.797 84.3374 668.327C85.7687 677.667 89.5486 687.102 94.2934 695.31C94.5536 695.78 94.8029 696.228 95.0657 696.697C95.532 697.533 96.301 698.122 97.2374 698.31C98.1731 698.499 99.1999 698.272 100.057 697.702C100.914 697.133 101.521 696.274 101.709 695.338C101.898 694.402 101.653 693.465 101.062 692.712C100.739 692.297 100.43 691.903 100.11 691.489C94.3203 684.239 89.7574 676.59 86.8946 667.672C86.7258 667.173 86.5667 666.701 86.4031 666.198Z" fill="#007BA4"/>
<path d="M80.1499 552.792C85.2128 551.233 87.9294 552.076 89.8691 553.789C92.2292 555.874 94.1557 559.835 96.0962 566.078C99.7954 577.98 103.11 597.013 111.898 616.348L112.025 616.628L112.2 616.883C121.184 629.952 129.131 641.638 133.358 652.821C137.414 663.551 137.913 673.475 132.604 683.493C121.538 690.99 112.154 694.256 104.255 694.671C96.269 695.09 89.5025 692.616 83.691 688.129C71.8352 678.977 63.9268 661.415 59.2176 643.156L59.1808 643.015L59.133 642.88C53.3239 626.189 54.1845 605.498 58.9534 587.8C61.3285 578.983 64.6367 571.055 68.4432 564.868C72.2339 558.707 76.312 554.606 80.1499 552.792Z" fill="#87CFE5" stroke="#0076B8" stroke-width="7"/>
<path d="M107.292 656.659C107.227 656.375 107.045 656.122 106.796 655.955C106.547 655.787 106.252 655.719 105.965 655.765C105.679 655.812 105.42 655.97 105.237 656.208C105.054 656.446 104.961 656.743 104.989 657.033C105.051 657.656 105.114 658.26 105.185 658.882C106.05 669.961 110.917 681.361 118.186 690.094C118.585 690.6 118.966 691.078 119.373 691.577C121.09 689.996 122.805 688.415 124.522 686.834C124.083 686.415 123.67 686.017 123.24 685.593C115.46 678.252 110.045 669.185 107.712 658.431C107.567 657.838 107.429 657.259 107.292 656.659Z" fill="#0074AB"/>
<path d="M85.145 665.552C85.0527 665.271 84.8432 665.032 84.5757 664.882C84.3072 664.733 84.0025 664.687 83.7161 664.757C83.4287 664.827 83.1792 665.008 83.0103 665.264C82.8405 665.519 82.7655 665.829 82.813 666.12C82.9005 666.651 82.9847 667.151 83.0794 667.681C84.5107 677.021 88.2905 686.456 93.0353 694.664C93.2956 695.134 93.5448 695.582 93.8076 696.051C94.2739 696.887 95.0429 697.476 95.9794 697.664C96.915 697.853 97.9418 697.626 98.7987 697.056C99.6555 696.487 100.263 695.628 100.451 694.692C100.64 693.756 100.395 692.819 99.8039 692.066C99.4806 691.651 99.1721 691.257 98.8522 690.843C93.0623 683.593 88.4994 675.944 85.6366 667.026C85.4677 666.527 85.3086 666.055 85.145 665.552Z" fill="#007BA4"/>
<g clip-path="url(#clip4_176_875)">
<path d="M187.5 432.038C212.48 432.038 233.5 456.267 233.5 486.107C233.5 502.943 230.056 516.431 222.771 525.658C215.589 534.757 204.302 540.176 187.5 540.176C162.614 540.176 143 516.541 143 486.107C143 455.673 162.614 432.038 187.5 432.038Z" fill="#FEFEFE" stroke="#0F79AB" stroke-width="6"/>
<path d="M282.176 405.004C295.85 405.004 308.49 412.616 317.821 425.275C327.149 437.929 333 455.44 333 474.593C333 496.167 329.187 513.606 321.027 525.575C313.002 537.347 300.53 544.181 282.176 544.181C268.506 544.181 256.294 536.727 247.386 524.182C238.468 511.624 233 494.106 233 474.593C233 455.079 238.468 437.561 247.386 425.003C256.294 412.458 268.506 405.004 282.176 405.004Z" fill="#FEFEFE" stroke="#0F79AB" stroke-width="6"/>
<path d="M235 550.189C246.046 550.189 255 540.55 255 528.661C255 516.772 246.046 507.134 235 507.134C223.954 507.134 215 516.772 215 528.661C215 540.55 223.954 550.189 235 550.189Z" fill="#ED6F7A"/>
<path d="M267.5 490.112C267.5 501.172 261.508 510.138 253.5 510.138C245.492 510.138 239 501.172 239 490.112C239 479.053 245.492 470.087 253.5 470.087C262.5 472.59 267.5 478.598 267.5 490.112Z" fill="#2B2A28"/>
<path d="M215.5 510.138C223.508 510.138 230 501.172 230 490.112C230 479.053 223.508 470.087 215.5 470.087C207.492 470.087 201 479.053 201 490.112C201 501.172 207.492 510.138 215.5 510.138Z" fill="#2B2A28"/>
<path d="M265 479.599C266 483.103 262.761 486.107 260 486.107C257.239 486.107 255 483.642 255 480.6C255 477.559 257.239 475.093 260 475.093C262.761 475.093 265 476.558 265 479.599Z" fill="#F9FAFB"/>
<path d="M227 479.599C228 483.103 224.761 486.107 222 486.107C219.239 486.107 217 483.642 217 480.6C217 477.559 219.239 475.093 222 475.093C224.761 475.093 227 476.558 227 479.599Z" fill="#F9FAFB"/>
</g>
</g>
<defs>
<clipPath id="clip0_176_875">
<rect width="476" height="786" fill="white"/>
</clipPath>
<clipPath id="clip1_176_875">
<rect width="151" height="90.1148" fill="white" transform="translate(94 695.885)"/>
</clipPath>
<clipPath id="clip2_176_875">
<rect width="151" height="90.1148" fill="white" transform="matrix(-1 0 0 1 396.001 695.885)"/>
</clipPath>
<clipPath id="clip3_176_875">
<rect width="76" height="149.19" fill="white" transform="matrix(-0.981307 -0.19245 -0.19245 0.981307 481.291 500.626)"/>
</clipPath>
<clipPath id="clip4_176_875">
<rect width="196" height="148.189" fill="white" transform="translate(140 402)"/>
</clipPath>
</defs>
</svg>
