<svg width="476" height="786" viewBox="0 0 476 786" fill="none" xmlns="http://www.w3.org/2000/svg">
<g clip-path="url(#clip0_175_191)">
<g clip-path="url(#clip1_175_191)">
<path d="M86.9297 16.714C96.5345 11.8056 106.682 11.5521 117.15 15.7185C127.798 19.957 138.925 28.8566 149.706 42.4838C171.246 69.7071 190.39 114.534 201.105 172.94C203.797 197.451 207.515 221.974 210.903 244.675C214.315 267.526 217.378 288.445 218.81 305.946C220.262 323.711 219.917 336.908 217.187 344.843C215.87 348.67 214.243 350.541 212.698 351.426C211.21 352.279 208.76 352.809 204.48 351.727L201.386 350.945L199.008 353.076C195.786 355.965 194.143 356.089 193.632 356.039C193.139 355.991 191.842 355.602 189.746 352.806C187.689 350.061 185.529 345.873 183.134 340.14C180.765 334.471 178.317 327.671 175.575 319.89C164.678 288.966 149.647 243.897 118.755 204.258L118.539 203.981L118.293 203.732L115.425 200.807C55.8798 139.709 39.4621 98.8815 41.6354 71.5831C43.8011 44.3812 64.7521 28.0476 86.9297 16.714Z" fill="#8BCDE5" stroke="#0E6B96" stroke-width="12"/>
<path d="M307.345 63.0001C329.956 36.7664 354.435 28.2455 371.981 33.7082C390.948 39.6138 410.17 56.4775 412.328 84.658C414.514 113.194 399.378 155.113 344.924 210.922L344.816 211.034L344.714 211.149C311.199 249.217 298.305 291.6 289.629 320.998C287.446 328.398 285.571 334.835 283.702 340.279C281.814 345.774 280.078 349.805 278.313 352.52C276.553 355.23 275.28 355.846 274.561 355.996C273.785 356.157 271.966 356.128 268.378 353.876L266.01 352.389L263.352 353.247C259.04 354.637 256.325 354.41 254.592 353.718C252.907 353.044 251.211 351.556 249.678 348.449C246.419 341.847 245.025 330.25 245.345 314.045C245.977 281.971 253.048 236.878 258.547 190.113C265.454 131.368 284.962 88.9707 307.345 63.0001Z" fill="#87CFE5" stroke="#0E6B96" stroke-width="12"/>
<path d="M237.5 334.426C339.975 334.426 423 416.937 423 518.661C423 620.384 339.975 702.895 237.5 702.895C135.025 702.895 52.0005 620.384 52.0005 518.661C52.0005 416.937 135.025 334.426 237.5 334.426Z" fill="#86D0E3" stroke="#0C74AB" stroke-width="7"/>
<path d="M364.501 646.824C330.001 685.874 266.001 701.394 241.001 698.89C134.001 704.898 53.5005 610.673 56.0005 517.159C57.5664 458.584 43.0005 596.76 182.001 655.836C256.501 693.383 364.501 646.824 364.501 646.824Z" fill="#37B4CA"/>
<path opacity="0.77" d="M173.5 393.501L182.5 381.987L195 370.972L202 366.967L208.5 364.965L212 368.469L215 372.474L217 378.482L208.5 380.985L196 387.994L187.5 393.501L179 401.511L175 397.006L173.5 393.501Z" fill="#004F80"/>
<path opacity="0.7" d="M264.5 357.956H272.5L280 359.458L288 362.462L298 366.968L306.5 371.974L305 379.483L295 376.98L283.5 374.477L274.5 372.975H267.5H259.5V365.966L261 360.96L264.5 357.956Z" fill="#014C83"/>
<g clip-path="url(#clip2_175_191)">
<path d="M199 700.891C217.453 700.891 227.418 706.675 232.985 714.199C238.752 721.994 240.5 732.567 240.5 743.445C240.5 754.689 239.623 763.351 232.348 769.732C224.743 776.403 209.12 781.494 176.5 781.494C154.106 781.494 138.008 780.424 126.449 778.523C114.815 776.61 108.241 773.923 104.485 771.045C100.993 768.369 99.6442 765.306 99.1137 761.46C98.8339 759.432 98.7896 757.202 98.8315 754.653C98.8709 752.258 99.0004 749.257 99.0004 746.449C99.0004 742.955 101.71 738.187 108.265 732.613C114.594 727.232 123.607 721.877 134.018 717.118C154.892 707.577 180.368 700.891 199 700.891Z" fill="#87CFE5" stroke="#0178B2" stroke-width="9"/>
<path d="M235.614 730.881C246.614 773.936 213.16 778.991 174.5 778.991C135.84 778.991 114 775.987 108.5 768.978C95.5 762.97 149.114 767.928 177.114 764.925C262.114 764.925 216 687.875 235.614 730.881Z" fill="#31A7BA"/>
</g>
<g clip-path="url(#clip3_175_191)">
<path d="M291.001 700.891C272.548 700.891 262.583 706.675 257.016 714.199C251.249 721.994 249.501 732.567 249.501 743.445C249.501 754.689 250.378 763.351 257.653 769.732C265.258 776.403 280.881 781.494 313.501 781.494C335.895 781.494 351.993 780.424 363.552 778.523C375.186 776.61 381.76 773.923 385.516 771.045C389.008 768.369 390.357 765.306 390.887 761.46C391.167 759.432 391.211 757.202 391.169 754.653C391.13 752.258 391.001 749.257 391.001 746.449C391.001 742.955 388.291 738.187 381.736 732.613C375.407 727.232 366.394 721.877 355.983 717.118C335.109 707.577 309.633 700.891 291.001 700.891Z" fill="#87CFE5" stroke="#0178B2" stroke-width="9"/>
<path d="M254.387 730.881C243.387 773.936 276.841 778.991 315.501 778.991C354.161 778.991 376.001 775.987 381.501 768.978C394.501 762.97 340.887 767.928 312.887 764.925C227.887 764.925 274.001 687.875 254.387 730.881Z" fill="#31A7BA"/>
</g>
<g clip-path="url(#clip4_175_191)">
<path d="M193.5 431.549C218.481 431.549 239.5 455.778 239.5 485.618C239.5 502.455 236.057 515.942 228.772 525.17C221.589 534.268 210.302 539.687 193.5 539.687C168.615 539.687 149 516.052 149 485.618C149 455.184 168.615 431.549 193.5 431.549Z" fill="#FEFEFE" stroke="#0F79AB" stroke-width="6"/>
<path d="M288.176 404.515C301.85 404.515 314.49 412.127 323.821 424.786C333.149 437.44 339 454.951 339 474.104C339 495.678 335.187 513.118 327.027 525.086C319.002 536.858 306.53 543.692 288.176 543.692C274.506 543.692 262.294 536.238 253.386 523.693C244.469 511.135 239 493.617 239 474.104C239 454.59 244.469 437.073 253.386 424.514C262.294 411.97 274.506 404.515 288.176 404.515Z" fill="#FEFEFE" stroke="#0F79AB" stroke-width="6"/>
<path d="M241 549.7C252.046 549.7 261 540.062 261 528.172C261 516.283 252.046 506.645 241 506.645C229.955 506.645 221 516.283 221 528.172C221 540.062 229.955 549.7 241 549.7Z" fill="#ED6F7A"/>
<path d="M273.5 489.624C273.5 500.683 267.508 509.649 259.5 509.649C251.492 509.649 245 500.683 245 489.624C245 478.564 251.492 469.598 259.5 469.598C268.5 472.101 273.5 478.109 273.5 489.624Z" fill="#2B2A28"/>
<path d="M221.5 509.649C229.509 509.649 236 500.683 236 489.624C236 478.564 229.509 469.598 221.5 469.598C213.492 469.598 207 478.564 207 489.624C207 500.683 213.492 509.649 221.5 509.649Z" fill="#2B2A28"/>
<path d="M271 479.11C272 482.615 268.761 485.619 266 485.619C263.239 485.619 261 483.153 261 480.112C261 477.07 263.239 474.604 266 474.604C268.761 474.604 271 476.069 271 479.11Z" fill="#F9FAFB"/>
<path d="M233 479.11C234 482.615 230.762 485.619 228 485.619C225.239 485.619 223 483.153 223 480.112C223 477.07 225.239 474.604 228 474.604C230.762 474.604 233 476.069 233 479.11Z" fill="#F9FAFB"/>
</g>
<g clip-path="url(#clip5_175_191)">
<path d="M62.0857 498.138C67.3398 498.815 69.4645 500.708 70.5213 503.074C71.8072 505.952 71.9222 510.361 71.1053 516.856C69.548 529.238 64.6902 547.96 64.6902 569.225V569.533L64.7439 569.837C67.5145 585.473 69.9139 599.417 69.1346 611.363C68.3868 622.825 64.7351 632.077 55.7566 639.009C42.5809 641.259 32.686 640.348 25.323 637.453C17.8795 634.527 12.744 629.467 9.30938 622.97C2.30366 609.715 2.37047 590.43 5.63848 571.835L5.66387 571.692L5.67657 571.549C7.2941 553.929 16.6393 535.424 28.3035 521.267C34.1148 514.214 40.4062 508.358 46.4314 504.296C52.4325 500.25 57.8413 498.202 62.0857 498.138Z" fill="#87CFE5" stroke="#0076B8" stroke-width="7"/>
<path d="M43.8178 604.062C43.8759 603.776 43.8145 603.471 43.6576 603.215C43.5001 602.959 43.2598 602.774 42.9793 602.698C42.6988 602.621 42.398 602.659 42.1327 602.8C41.868 602.941 41.6605 603.173 41.5662 603.449C41.3647 604.043 41.1721 604.619 40.9797 605.215C37.1836 615.672 36.8963 628.081 39.901 639.053C40.0545 639.679 40.2034 640.273 40.3672 640.897C42.5837 640.167 44.8003 639.437 47.0168 638.707C46.7908 638.143 46.5791 637.608 46.3633 637.045C42.3183 627.129 41.1399 616.621 43.4664 605.852C43.5798 605.25 43.6941 604.665 43.8178 604.062Z" fill="#0074AB"/>
<path d="M19.9754 602.993C20.0078 602.698 19.9166 602.393 19.7347 602.146C19.5521 601.899 19.2939 601.73 19.0038 601.675C18.7137 601.62 18.4117 601.682 18.1514 601.845C17.8918 602.008 17.6951 602.259 17.6175 602.544C17.4783 603.064 17.3473 603.555 17.214 604.077C14.6529 613.185 14.1899 623.351 15.1129 632.798C15.1558 633.334 15.1967 633.846 15.2424 634.382C15.321 635.338 15.7769 636.193 16.5522 636.753C17.325 637.312 18.3538 637.531 19.3699 637.366C20.386 637.202 21.2939 636.67 21.8517 635.897C22.4119 635.121 22.5761 634.165 22.3505 633.234C22.2276 632.722 22.1097 632.235 21.9899 631.725C19.7184 622.717 18.7297 613.854 19.8133 604.54C19.8659 604.015 19.9165 603.518 19.9754 602.993Z" fill="#007BA4"/>
</g>
<path d="M337.912 544.256L337.797 544.574L337.797 544.907C337.796 556.088 329.615 578.443 310.766 596.579C292.106 614.533 263.121 628.24 221.32 622.791C186.12 611.448 170.905 593.712 163.615 578.342C159.937 570.587 158.25 563.38 157.082 557.745C156.691 555.861 156.346 554.096 156 552.556C159.946 554.639 164.717 557.007 170.133 559.411C192.473 569.328 226.454 580.19 258.588 573.608C288.779 573.517 311.666 561.524 325.926 552.29C329.508 549.97 332.563 547.813 335.038 546.068C336.169 545.27 337.152 544.58 338 544C337.971 544.083 337.943 544.169 337.912 544.256Z" fill="#D20223" stroke="#076FA2" stroke-width="6"/>
<path d="M213.463 573.202L213.526 573.219L213.59 573.228L224.205 574.813L224.26 574.821L224.315 574.824L233.546 575.353L233.581 575.355L241 575.355L241 596.401L240.612 600.166L237.008 603.607L233.691 605.505L228.934 606L224.57 606L219.875 604.534L215.127 601.074L210.34 595.096L207.232 586.457L205 577.767L205 571L213.463 573.202Z" fill="#FEFEFE" stroke="#0578A5" stroke-width="3"/>
<path d="M304.294 592.254C297.446 598.239 277.361 606.884 260.47 610.542C243.124 611.539 244.493 614.354 244.493 609.212C255.449 598.239 267.318 589.594 307.489 588.264C311.597 588.264 308.858 588.264 304.294 592.254Z" fill="#FF1863"/>
<path d="M267.576 573.055L267.514 573.072L267.449 573.083L257.937 574.593L257.882 574.602L257.828 574.605L249.555 575.109L249.522 575.111L243 575.111L243 595.001L243.341 598.518L246.519 601.743L249.456 603.531L253.688 604L257.575 604L261.749 602.613L265.972 599.341L270.234 593.68L273.006 585.482L275 577.226L275 571L267.576 573.055Z" fill="#FEFEFE" stroke="#0875A4" stroke-width="3"/>
<path fill-rule="evenodd" clip-rule="evenodd" d="M265.718 608.286C270.059 598.73 359.588 616.345 394.236 632.085C412.142 640.22 420.845 659.669 413.657 675.491C406.469 691.314 386.097 697.555 368.189 689.421C333.542 673.681 261.377 617.843 265.718 608.286Z" fill="#FF9425"/>
<path fill-rule="evenodd" clip-rule="evenodd" d="M265.587 608.663C265.642 608.472 265.722 608.264 265.722 608.264C265.722 608.264 415.004 671.603 413.656 675.49C407.967 691.912 386.053 697.649 368.189 689.42C300.911 658.428 263.664 615.393 265.587 608.663Z" fill="#FF8600"/>
<path d="M375.989 690.141C377.486 683.491 379.367 676.974 383.189 671.335" stroke="#EF6A00" stroke-width="5" stroke-miterlimit="10" stroke-linecap="round" stroke-linejoin="round"/>
<path d="M345.579 675.539C344.776 670.448 347.154 666.343 350 662.257" stroke="#EF6A00" stroke-width="5" stroke-miterlimit="10" stroke-linecap="round" stroke-linejoin="round"/>
<path d="M310.036 653.004C312.272 647.069 314.762 642.452 317.403 638.603" stroke="#EF6A00" stroke-width="5" stroke-miterlimit="10" stroke-linecap="round" stroke-linejoin="round"/>
<path fill-rule="evenodd" clip-rule="evenodd" d="M407.55 673.303C407.55 673.303 433.43 672.954 442.411 674.924C451.353 676.886 456.139 689.819 453.974 693.858C451.002 699.398 441.939 701.968 433.872 696.764C426.272 691.863 407.55 673.303 407.55 673.303Z" fill="#129447"/>
<path fill-rule="evenodd" clip-rule="evenodd" d="M407.571 673.46C407.571 673.46 418.383 670.993 427.37 664.838C432.369 661.415 434.143 653.862 438.128 651.912C442.904 649.577 448.913 649.06 450.881 653.75C452.849 658.438 449.672 663.729 444.748 669.412C436.129 679.359 412.976 674.717 407.571 673.46Z" fill="#00AA63"/>
<path fill-rule="evenodd" clip-rule="evenodd" d="M407.403 672.24C407.403 672.24 413.77 666.094 419.799 657.268C424.072 651.014 426.528 641.843 426.638 641.215C428.14 632.613 436.656 632.744 439.825 639.586C442.585 645.545 440.968 652.212 437.99 656.827C430.309 668.727 411.05 675.411 407.403 672.24Z" fill="#129447"/>
<path fill-rule="evenodd" clip-rule="evenodd" d="M407.404 672.241C407.404 672.241 411.524 681.727 412.237 692.146C412.633 697.943 407.585 704.055 408.539 708.177C409.682 713.117 413.105 717.782 418.203 716.201C423.301 714.62 426.295 707.022 427.101 701.755C429.044 689.07 412.257 673.896 407.404 672.241Z" fill="#00AA63"/>
<path fill-rule="evenodd" clip-rule="evenodd" d="M407.403 672.242C407.403 672.242 407.204 683.919 404.008 693.963C401.419 702.103 397.104 707.025 396.354 709.7C394.974 714.619 397.759 719.014 403.095 718.752C408.432 718.493 414.161 711.079 415.641 706.977C420.201 694.343 412.096 676.226 407.403 672.242Z" fill="#129447"/>
<path d="M379.561 644.945C379.32 638.855 381.731 633.105 383.515 629.511" stroke="#EF6A00" stroke-width="5" stroke-miterlimit="10" stroke-linecap="round" stroke-linejoin="round"/>
<path d="M340.397 630.848C340.295 626.247 342.097 621.509 343.425 618.504" stroke="#EF6A00" stroke-width="5" stroke-miterlimit="10" stroke-linecap="round" stroke-linejoin="round"/>
<path d="M301.784 617.253C301.895 614.689 303.189 611.829 304.123 609.994" stroke="#EF6A00" stroke-width="5" stroke-miterlimit="10" stroke-linecap="round" stroke-linejoin="round"/>
<path d="M347.237 620.673C346.688 620.523 347.275 623.067 346.001 623.361C344.538 623.697 342.591 623.803 342.463 624.985C342.398 625.575 342.885 628.634 342.212 629.874C341.488 631.21 341.92 631.632 341.377 631.691C340.312 631.806 340.564 637.017 337.754 637.18C336.551 637.249 334.15 635.431 333.699 635.739C332.763 636.382 330.619 635.051 329.454 633.847C328.528 632.89 328.762 631.413 328.326 630.228C328.096 629.603 328.051 628.913 327.864 628.31C327.774 628.021 327.514 627.838 327.262 627.823C325.649 627.723 324.799 630.82 323.686 631.551C323.177 631.885 322.745 632.36 322.167 632.61C321.084 633.078 319.732 632.628 318.49 632.627C317.207 632.627 316.032 632.583 314.673 632.166C313.908 631.931 312.603 631.732 311.296 630.978C309.981 630.219 309.677 628.562 309.242 627.377C308.806 626.19 309.086 625.471 308.576 625.235C307.308 624.649 305.911 626.48 304.589 627.114C303.208 627.777 301.858 628.338 300.478 628.638C299.201 628.915 297.415 628.573 293.181 628.124C290.761 627.868 288.006 627.455 286.35 627.108C284.899 626.803 283.282 625.804 282.382 624.719C281.396 623.53 280.395 622.412 279.761 621.087C279.182 619.873 277.839 618.757 277.563 617.544C277.286 616.324 276.38 615.401 275.899 614.195C275.402 612.946 275.488 611.27 275.317 609.95C275.319 608.708 275.244 607.743 275.371 607.133C275.465 606.813 275.62 606.475 275.78 606.126" stroke="#C65104" stroke-width="2" stroke-linecap="round"/>
<path d="M275.372 605.289C275.18 611.64 277.571 620.358 282.788 625.674C289.818 628.905 300.906 628.965 304.684 626.957C311.181 623.503 303.081 620.951 309.541 610.455C303.915 608.456 285.037 606.804 275.372 605.289Z" fill="#934511"/>
<path d="M301.115 611.535C299.309 617.859 309.147 627.728 312.484 631.565C317.166 633.716 324.155 631.947 326.077 629.061C331.407 621.056 332.494 617.78 329.406 614.634C324.482 614.571 298.905 605.568 301.115 611.535Z" fill="#934511"/>
<path d="M321.343 615.881C319.538 622.204 329.376 632.073 332.713 635.91C337.394 638.061 344.384 636.292 346.306 633.406C351.636 625.401 352.724 622.125 349.635 618.979C344.711 618.916 319.134 609.913 321.343 615.881Z" fill="#934511"/>
<path d="M352.267 656.634C352.374 656.364 352.593 656.142 352.865 656.014C353.137 655.887 353.439 655.864 353.715 655.954C353.991 656.043 354.222 656.24 354.367 656.503C354.512 656.766 354.558 657.074 354.486 657.356C354.33 657.962 354.175 658.549 354.01 659.153C351.462 669.97 344.912 680.493 336.393 688.013C335.922 688.452 335.473 688.866 334.994 689.297C333.539 687.472 332.085 685.648 330.63 683.824C331.128 683.477 331.597 683.146 332.087 682.793C340.897 676.726 347.633 668.593 351.582 658.322C351.815 657.757 352.04 657.206 352.267 656.634Z" fill="#0074AB"/>
<path d="M372.796 668.806C372.93 668.543 373.173 668.338 373.461 668.231C373.749 668.125 374.057 668.125 374.329 668.238C374.603 668.351 374.822 668.569 374.949 668.847C375.078 669.126 375.105 669.443 375.014 669.724C374.846 670.235 374.686 670.717 374.512 671.226C371.671 680.238 366.494 688.984 360.551 696.371C360.222 696.796 359.907 697.201 359.576 697.623C358.988 698.379 358.138 698.843 357.184 698.886C356.23 698.93 355.25 698.549 354.49 697.855C353.73 697.161 353.261 696.22 353.219 695.267C353.174 694.312 353.56 693.424 354.259 692.769C354.642 692.409 355.007 692.066 355.386 691.706C362.216 685.425 367.893 678.564 372.085 670.188C372.328 669.72 372.557 669.278 372.796 668.806Z" fill="#007BA4"/>
<path d="M396.298 557.686C391.532 555.372 388.719 555.79 386.54 557.187C383.889 558.887 381.38 562.507 378.509 568.381C373.035 579.578 366.852 597.881 355.214 615.647L355.045 615.904L354.834 616.129C343.96 627.673 334.321 638.007 328.435 648.414C322.788 658.399 320.779 668.13 324.495 678.841C334.286 687.941 343.061 692.602 350.804 694.218C358.632 695.852 365.697 694.441 372.126 690.894C385.241 683.66 395.739 667.512 403.182 650.187L403.239 650.054L403.307 649.927C411.598 634.32 413.908 613.74 411.898 595.521C410.898 586.444 408.839 578.105 406.022 571.408C403.217 564.74 399.813 560.065 396.298 557.686Z" fill="#87CFE5" stroke="#0076B8" stroke-width="7"/>
<path d="M353.609 656.188C353.716 655.917 353.935 655.696 354.207 655.568C354.478 655.441 354.781 655.418 355.057 655.507C355.333 655.597 355.564 655.794 355.709 656.057C355.854 656.32 355.9 656.627 355.828 656.909C355.672 657.516 355.517 658.103 355.351 658.706C352.804 669.523 346.253 680.047 337.735 687.567C337.264 688.006 336.815 688.42 336.336 688.851C334.881 687.026 333.427 685.202 331.972 683.377C332.47 683.03 332.939 682.7 333.428 682.347C342.239 676.28 348.975 668.147 352.923 657.876C353.157 657.311 353.382 656.76 353.609 656.188Z" fill="#0074AB"/>
<path d="M374.138 668.36C374.272 668.096 374.515 667.891 374.803 667.785C375.091 667.678 375.399 667.679 375.671 667.792C375.945 667.905 376.163 668.122 376.291 668.401C376.42 668.68 376.447 668.997 376.355 669.278C376.188 669.788 376.028 670.27 375.854 670.78C373.013 679.791 367.836 688.538 361.893 695.925C361.564 696.349 361.249 696.755 360.918 697.177C360.329 697.933 359.48 698.397 358.525 698.44C357.572 698.484 356.592 698.102 355.832 697.409C355.072 696.715 354.603 695.773 354.56 694.82C354.516 693.866 354.902 692.978 355.601 692.323C355.984 691.963 356.349 691.62 356.728 691.26C363.558 684.979 369.235 678.117 373.427 669.741C373.67 669.274 373.899 668.832 374.138 668.36Z" fill="#007BA4"/>
</g>
</g>
<defs>
<clipPath id="clip0_175_191">
<rect width="476" height="786" fill="white"/>
</clipPath>
<clipPath id="clip1_175_191">
<rect width="476" height="786" fill="white"/>
</clipPath>
<clipPath id="clip2_175_191">
<rect width="151" height="90.1148" fill="white" transform="translate(94 695.885)"/>
</clipPath>
<clipPath id="clip3_175_191">
<rect width="151" height="90.1148" fill="white" transform="matrix(-1 0 0 1 396.001 695.885)"/>
</clipPath>
<clipPath id="clip4_175_191">
<rect width="196" height="148.189" fill="white" transform="translate(146 401.511)"/>
</clipPath>
<clipPath id="clip5_175_191">
<rect width="76" height="149.19" fill="white" transform="translate(0 494.63)"/>
</clipPath>
</defs>
</svg>
