<svg width="476" height="786" viewBox="0 0 476 786" fill="none" xmlns="http://www.w3.org/2000/svg">
<g clip-path="url(#clip0_176_1063)">
<path d="M86.9297 16.7143C96.5345 11.8058 106.682 11.5524 117.15 15.7188C127.798 19.9572 138.925 28.8568 149.706 42.484C171.246 69.7073 190.39 114.534 201.105 172.941C203.797 197.451 207.515 221.975 210.903 244.675C214.315 267.526 217.378 288.445 218.81 305.946C220.262 323.711 219.917 336.908 217.187 344.843C215.87 348.67 214.243 350.541 212.698 351.426C211.21 352.28 208.76 352.81 204.48 351.727L201.386 350.945L199.008 353.076C195.786 355.965 194.143 356.089 193.632 356.04C193.139 355.992 191.842 355.603 189.746 352.806C187.689 350.061 185.529 345.873 183.134 340.141C180.765 334.471 178.317 327.671 175.575 319.89C164.678 288.966 149.647 243.897 118.755 204.259L118.539 203.982L118.293 203.733L115.425 200.807C55.8798 139.71 39.4621 98.8817 41.6354 71.5833C43.8011 44.3815 64.7521 28.0479 86.9297 16.7143Z" fill="#8BCDE5" stroke="#0E6B96" stroke-width="12"/>
<path d="M307.345 63.0001C329.956 36.7664 354.435 28.2455 371.981 33.7082C390.948 39.6138 410.17 56.4775 412.328 84.658C414.514 113.194 399.378 155.113 344.924 210.922L344.816 211.034L344.714 211.149C311.199 249.217 298.305 291.6 289.629 320.998C287.446 328.398 285.571 334.835 283.702 340.279C281.814 345.774 280.078 349.805 278.313 352.52C276.553 355.23 275.28 355.846 274.561 355.996C273.785 356.157 271.966 356.128 268.378 353.876L266.01 352.389L263.352 353.247C259.04 354.637 256.325 354.41 254.592 353.718C252.907 353.044 251.211 351.556 249.678 348.449C246.419 341.847 245.025 330.25 245.345 314.045C245.977 281.971 253.048 236.878 258.547 190.113C265.454 131.368 284.962 88.9707 307.345 63.0001Z" fill="#87CFE5" stroke="#0E6B96" stroke-width="12"/>
<path d="M237.5 334.426C339.975 334.426 423 416.937 423 518.661C423 620.384 339.975 702.895 237.5 702.895C135.025 702.895 52.0005 620.384 52.0005 518.661C52.0005 416.937 135.025 334.426 237.5 334.426Z" fill="#86D0E3" stroke="#0C74AB" stroke-width="7"/>
<path d="M364.501 646.824C330.001 685.874 266.001 701.394 241.001 698.89C134.001 704.898 53.5005 610.673 56.0005 517.159C57.5664 458.584 43.0005 596.76 182.001 655.836C256.501 693.383 364.501 646.824 364.501 646.824Z" fill="#37B4CA"/>
<path opacity="0.77" d="M173.5 393.501L182.5 381.987L195 370.972L202 366.967L208.5 364.965L212 368.469L215 372.474L217 378.482L208.5 380.985L196 387.994L187.5 393.501L179 401.511L175 397.006L173.5 393.501Z" fill="#004F80"/>
<path opacity="0.7" d="M264.5 357.956H272.5L280 359.458L288 362.462L298 366.968L306.5 371.974L305 379.483L295 376.98L283.5 374.477L274.5 372.975H267.5H259.5V365.966L261 360.96L264.5 357.956Z" fill="#014C83"/>
<g clip-path="url(#clip1_176_1063)">
<path d="M199 700.891C217.453 700.891 227.418 706.675 232.985 714.199C238.752 721.994 240.5 732.567 240.5 743.445C240.5 754.689 239.623 763.351 232.348 769.732C224.743 776.403 209.12 781.494 176.5 781.494C154.106 781.494 138.008 780.424 126.449 778.523C114.815 776.61 108.241 773.923 104.485 771.045C100.993 768.369 99.6442 765.306 99.1137 761.46C98.8339 759.432 98.7896 757.202 98.8315 754.653C98.8709 752.258 99.0004 749.257 99.0004 746.449C99.0004 742.955 101.71 738.187 108.265 732.613C114.594 727.232 123.607 721.877 134.018 717.118C154.892 707.577 180.368 700.891 199 700.891Z" fill="#87CFE5" stroke="#0178B2" stroke-width="9"/>
<path d="M235.614 730.881C246.614 773.936 213.16 778.991 174.5 778.991C135.84 778.991 114 775.987 108.5 768.978C95.5 762.97 149.114 767.928 177.114 764.925C262.114 764.925 216 687.875 235.614 730.881Z" fill="#31A7BA"/>
</g>
<g clip-path="url(#clip2_176_1063)">
<path d="M291.001 700.891C272.548 700.891 262.583 706.675 257.016 714.199C251.249 721.994 249.501 732.567 249.501 743.445C249.501 754.689 250.378 763.351 257.653 769.732C265.258 776.403 280.881 781.494 313.501 781.494C335.895 781.494 351.993 780.424 363.552 778.523C375.186 776.61 381.76 773.923 385.516 771.045C389.008 768.369 390.357 765.306 390.887 761.46C391.167 759.432 391.211 757.202 391.169 754.653C391.13 752.258 391.001 749.257 391.001 746.449C391.001 742.955 388.291 738.187 381.736 732.613C375.407 727.232 366.394 721.877 355.983 717.118C335.109 707.577 309.633 700.891 291.001 700.891Z" fill="#87CFE5" stroke="#0178B2" stroke-width="9"/>
<path d="M254.387 730.881C243.387 773.936 276.841 778.991 315.501 778.991C354.161 778.991 376.001 775.987 381.501 768.978C394.501 762.97 340.887 767.928 312.887 764.925C227.887 764.925 274.001 687.875 254.387 730.881Z" fill="#31A7BA"/>
</g>
<g clip-path="url(#clip3_176_1063)">
<path d="M193.5 431.549C218.481 431.549 239.5 455.778 239.5 485.618C239.5 502.455 236.057 515.942 228.772 525.17C221.589 534.268 210.302 539.687 193.5 539.687C168.615 539.687 149 516.052 149 485.618C149 455.184 168.615 431.549 193.5 431.549Z" fill="#FEFEFE" stroke="#0F79AB" stroke-width="6"/>
<path d="M288.176 404.515C301.85 404.515 314.49 412.127 323.821 424.786C333.149 437.44 339 454.951 339 474.104C339 495.678 335.187 513.118 327.027 525.086C319.002 536.858 306.53 543.692 288.176 543.692C274.506 543.692 262.294 536.238 253.386 523.693C244.469 511.135 239 493.617 239 474.104C239 454.59 244.469 437.073 253.386 424.514C262.294 411.97 274.506 404.515 288.176 404.515Z" fill="#FEFEFE" stroke="#0F79AB" stroke-width="6"/>
<path d="M241 549.7C252.046 549.7 261 540.062 261 528.172C261 516.283 252.046 506.645 241 506.645C229.955 506.645 221 516.283 221 528.172C221 540.062 229.955 549.7 241 549.7Z" fill="#ED6F7A"/>
<path d="M273.5 489.624C273.5 500.683 267.508 509.649 259.5 509.649C251.492 509.649 245 500.683 245 489.624C245 478.564 251.492 469.598 259.5 469.598C268.5 472.101 273.5 478.109 273.5 489.624Z" fill="#2B2A28"/>
<path d="M221.5 509.649C229.509 509.649 236 500.683 236 489.624C236 478.564 229.509 469.598 221.5 469.598C213.492 469.598 207 478.564 207 489.624C207 500.683 213.492 509.649 221.5 509.649Z" fill="#2B2A28"/>
<path d="M271 479.11C272 482.615 268.761 485.619 266 485.619C263.239 485.619 261 483.153 261 480.112C261 477.07 263.239 474.604 266 474.604C268.761 474.604 271 476.069 271 479.11Z" fill="#F9FAFB"/>
<path d="M233 479.11C234 482.615 230.762 485.619 228 485.619C225.239 485.619 223 483.153 223 480.112C223 477.07 225.239 474.604 228 474.604C230.762 474.604 233 476.069 233 479.11Z" fill="#F9FAFB"/>
</g>
<g clip-path="url(#clip4_176_1063)">
<path d="M413.914 498.138C408.66 498.815 406.535 500.708 405.479 503.074C404.193 505.952 404.078 510.361 404.895 516.856C406.452 529.238 411.31 547.96 411.31 569.225V569.533L411.256 569.837C408.485 585.473 406.086 599.417 406.865 611.363C407.613 622.825 411.265 632.077 420.243 639.009C433.419 641.259 443.314 640.348 450.677 637.453C458.12 634.527 463.256 629.467 466.691 622.97C473.696 609.715 473.63 590.43 470.362 571.835L470.336 571.692L470.323 571.549C468.706 553.929 459.361 535.424 447.696 521.267C441.885 514.214 435.594 508.358 429.569 504.296C423.567 500.25 418.159 498.202 413.914 498.138Z" fill="#87CFE5" stroke="#0076B8" stroke-width="7"/>
<path d="M432.182 604.062C432.124 603.776 432.186 603.471 432.342 603.215C432.5 602.959 432.74 602.774 433.021 602.698C433.301 602.621 433.602 602.659 433.867 602.8C434.132 602.941 434.34 603.173 434.434 603.449C434.635 604.043 434.828 604.619 435.02 605.215C438.816 615.672 439.104 628.081 436.099 639.053C435.946 639.679 435.797 640.273 435.633 640.897C433.416 640.167 431.2 639.437 428.983 638.707C429.209 638.143 429.421 637.608 429.637 637.045C433.682 627.129 434.86 616.621 432.534 605.852C432.42 605.25 432.306 604.665 432.182 604.062Z" fill="#0074AB"/>
<path d="M456.025 602.993C455.992 602.698 456.083 602.393 456.265 602.146C456.448 601.899 456.706 601.73 456.996 601.675C457.286 601.62 457.588 601.682 457.849 601.845C458.108 602.008 458.305 602.259 458.383 602.544C458.522 603.064 458.653 603.555 458.786 604.077C461.347 613.185 461.81 623.351 460.887 632.798C460.844 633.334 460.803 633.846 460.758 634.382C460.679 635.338 460.223 636.193 459.448 636.753C458.675 637.312 457.646 637.531 456.63 637.366C455.614 637.202 454.706 636.67 454.148 635.897C453.588 635.121 453.424 634.165 453.65 633.234C453.772 632.722 453.89 632.235 454.01 631.725C456.282 622.717 457.27 613.854 456.187 604.54C456.134 604.015 456.084 603.518 456.025 602.993Z" fill="#007BA4"/>
</g>
<path d="M347.822 532.667L347.696 533.087L347.696 533.525C347.695 548.262 338.798 577.727 318.297 601.632C298.003 625.295 266.479 643.361 221.017 636.179C182.734 621.23 166.186 597.852 158.257 577.594C154.257 567.373 152.423 557.874 151.151 550.446C150.727 547.964 150.351 545.637 149.975 543.607C154.266 546.353 159.456 549.474 165.346 552.643C189.643 565.713 226.6 580.03 261.549 571.354C294.385 571.235 319.277 555.428 334.786 543.257C338.682 540.199 342.004 537.356 344.696 535.056C345.926 534.005 346.995 533.095 347.917 532.33C347.886 532.44 347.856 532.553 347.822 532.667Z" fill="#D20223" stroke="#076FA2" stroke-width="6"/>
<path d="M148.199 533.981C147.666 533.392 146.921 533.041 146.129 533.004C145.337 532.966 144.563 533.246 143.977 533.782C143.391 534.317 143.04 535.065 143.003 535.859C142.966 536.654 143.245 537.431 143.779 538.02C146.393 540.902 149.175 543.631 152.096 546.197C206.535 591.972 291.298 585.306 344.212 540.893C347.187 538.411 350.021 535.86 352.807 533.156C353.377 532.603 353.703 531.845 353.717 531.05C353.73 530.254 353.427 529.486 352.877 528.914C352.326 528.342 351.57 528.014 350.778 528C349.985 527.987 349.22 528.291 348.65 528.844C345.974 531.442 343.25 533.893 340.392 536.278C289.697 579.061 207.378 585.128 156.033 541.682C153.277 539.261 150.657 536.691 148.199 533.981Z" fill="#076FA2"/>
<path d="M212.41 574.963L212.478 574.979L212.548 574.988L224.005 576.488L224.064 576.496L224.124 576.498L234.087 576.998L234.125 577L242.132 577L242.132 596.916L241.714 600.48L237.823 603.736L234.243 605.532L229.109 606L224.399 606L219.331 604.613L214.206 601.339L209.04 595.682L205.685 587.506L203.276 579.283L203.276 572.879L212.41 574.963Z" fill="#FEFEFE" stroke="#0578A5" stroke-width="3"/>
<path d="M270.905 574.723L270.837 574.739L270.767 574.749L260.401 576.104L260.341 576.112L260.283 576.115L251.268 576.567L251.231 576.569L244.125 576.569L244.125 594.422L244.496 597.58L247.959 600.474L251.159 602.08L255.771 602.501L260.007 602.501L264.556 601.255L269.158 598.319L273.801 593.237L276.822 585.878L278.995 578.467L278.995 572.878L270.905 574.723Z" fill="#FEFEFE" stroke="#0875A4" stroke-width="3"/>
<path d="M311.374 605.073C303.902 614.073 281.983 627.073 263.552 632.573C244.622 634.073 246.117 638.305 246.117 630.573C258.072 614.073 271.024 601.073 314.861 599.073C319.345 599.073 316.356 599.073 311.374 605.073Z" fill="#FF1863"/>
<path fill-rule="evenodd" clip-rule="evenodd" d="M216.213 608.286C211.872 598.73 122.343 616.345 87.6948 632.085C69.7887 640.22 61.0859 659.669 68.2734 675.491C75.4617 691.314 95.8341 697.555 113.741 689.421C148.389 673.681 220.554 617.843 216.213 608.286Z" fill="#FF9425"/>
<path fill-rule="evenodd" clip-rule="evenodd" d="M216.344 608.663C216.289 608.472 216.209 608.264 216.209 608.264C216.209 608.264 66.9274 671.603 68.2747 675.49C73.9643 691.912 95.878 697.649 113.743 689.42C181.02 658.428 218.267 615.393 216.344 608.663Z" fill="#FF8600"/>
<path d="M105.941 690.141C104.445 683.491 102.564 676.974 98.742 671.335" stroke="#EF6A00" stroke-width="5" stroke-miterlimit="10" stroke-linecap="round" stroke-linejoin="round"/>
<path d="M136.352 675.538C137.154 670.448 134.777 666.343 131.93 662.256" stroke="#EF6A00" stroke-width="5" stroke-miterlimit="10" stroke-linecap="round" stroke-linejoin="round"/>
<path d="M171.895 653.004C169.659 647.069 167.168 642.452 164.528 638.603" stroke="#EF6A00" stroke-width="5" stroke-miterlimit="10" stroke-linecap="round" stroke-linejoin="round"/>
<path fill-rule="evenodd" clip-rule="evenodd" d="M74.3816 673.303C74.3816 673.303 48.5015 672.954 39.5201 674.924C30.5779 676.886 25.7926 689.819 27.9574 693.858C30.9288 699.398 39.9917 701.968 48.0596 696.764C55.6595 691.863 74.3816 673.303 74.3816 673.303Z" fill="#129447"/>
<path fill-rule="evenodd" clip-rule="evenodd" d="M74.3599 673.46C74.3599 673.46 63.5473 670.993 54.5611 664.838C49.5617 661.415 47.7881 653.862 43.8031 651.912C39.0267 649.577 33.0172 649.06 31.0498 653.75C29.0819 658.438 32.2583 663.729 37.1826 669.412C45.8019 679.359 68.9543 674.717 74.3599 673.46Z" fill="#00AA63"/>
<path fill-rule="evenodd" clip-rule="evenodd" d="M74.528 672.24C74.528 672.24 68.1606 666.094 62.1314 657.268C57.8583 651.014 55.403 641.843 55.293 641.215C53.7902 632.613 45.2745 632.744 42.1054 639.586C39.3459 645.545 40.9624 652.212 43.9412 656.827C51.6221 668.727 70.8807 675.411 74.528 672.24Z" fill="#129447"/>
<path fill-rule="evenodd" clip-rule="evenodd" d="M74.5274 672.241C74.5274 672.241 70.4069 681.727 69.6944 692.146C69.2978 697.943 74.3466 704.055 73.3923 708.177C72.2493 713.117 68.8257 717.782 63.728 716.201C58.6304 714.62 55.6361 707.022 54.8304 701.755C52.8875 689.07 69.674 673.896 74.5274 672.241Z" fill="#00AA63"/>
<path fill-rule="evenodd" clip-rule="evenodd" d="M74.5277 672.242C74.5277 672.242 74.7264 683.919 77.9223 693.963C80.5116 702.103 84.8263 707.025 85.5765 709.7C86.9564 714.619 84.1715 719.014 78.8356 718.752C73.4984 718.493 67.77 711.079 66.2897 706.977C61.7293 694.343 69.835 676.226 74.5277 672.242Z" fill="#129447"/>
<path d="M102.37 644.945C102.611 638.855 100.2 633.105 98.4157 629.511" stroke="#EF6A00" stroke-width="5" stroke-miterlimit="10" stroke-linecap="round" stroke-linejoin="round"/>
<path d="M141.534 630.848C141.637 626.247 139.834 621.509 138.506 618.504" stroke="#EF6A00" stroke-width="5" stroke-miterlimit="10" stroke-linecap="round" stroke-linejoin="round"/>
<path d="M180.147 617.253C180.037 614.689 178.743 611.829 177.808 609.994" stroke="#EF6A00" stroke-width="5" stroke-miterlimit="10" stroke-linecap="round" stroke-linejoin="round"/>
<path d="M134.694 620.673C135.243 620.523 134.656 623.067 135.93 623.361C137.393 623.697 139.34 623.803 139.469 624.985C139.534 625.575 139.047 628.634 139.719 629.874C140.443 631.21 140.011 631.632 140.554 631.691C141.62 631.806 141.368 637.017 144.177 637.18C145.38 637.249 147.781 635.431 148.232 635.739C149.168 636.382 151.312 635.051 152.477 633.847C153.403 632.89 153.17 631.413 153.605 630.228C153.835 629.603 153.881 628.913 154.067 628.31C154.158 628.021 154.417 627.838 154.67 627.823C156.282 627.723 157.132 630.82 158.245 631.551C158.754 631.885 159.186 632.36 159.764 632.61C160.847 633.078 162.199 632.628 163.441 632.627C164.725 632.627 165.899 632.583 167.259 632.166C168.023 631.931 169.329 631.732 170.635 630.978C171.95 630.219 172.254 628.562 172.689 627.377C173.125 626.19 172.845 625.471 173.355 625.235C174.623 624.649 176.02 626.48 177.342 627.114C178.723 627.777 180.073 628.338 181.453 628.638C182.73 628.915 184.516 628.573 188.75 628.124C191.171 627.868 193.926 627.455 195.581 627.108C197.032 626.803 198.649 625.804 199.549 624.719C200.535 623.53 201.536 622.412 202.17 621.087C202.75 619.873 204.092 618.757 204.368 617.544C204.645 616.324 205.551 615.401 206.032 614.195C206.529 612.946 206.443 611.27 206.614 609.95C206.612 608.708 206.687 607.743 206.56 607.133C206.466 606.813 206.311 606.475 206.151 606.126" stroke="#C65104" stroke-width="2" stroke-linecap="round"/>
<path d="M206.559 605.289C206.751 611.64 204.361 620.358 199.143 625.674C192.113 628.905 181.025 628.965 177.247 626.957C170.75 623.503 178.85 620.951 172.39 610.455C178.016 608.456 196.894 606.804 206.559 605.289Z" fill="#934511"/>
<path d="M180.816 611.535C182.622 617.859 172.784 627.728 169.447 631.565C164.766 633.716 157.776 631.947 155.854 629.061C150.524 621.056 149.437 617.78 152.525 614.634C157.449 614.571 183.026 605.568 180.816 611.535Z" fill="#934511"/>
<path d="M160.587 615.881C162.393 622.204 152.555 632.073 149.217 635.91C144.537 638.061 137.547 636.292 135.625 633.406C130.294 625.401 129.207 622.125 132.296 618.979C137.219 618.916 162.797 609.913 160.587 615.881Z" fill="#934511"/>
<path d="M129.664 656.634C129.557 656.364 129.338 656.142 129.066 656.014C128.795 655.887 128.492 655.864 128.216 655.954C127.94 656.043 127.709 656.24 127.564 656.503C127.42 656.766 127.373 657.074 127.445 657.356C127.602 657.962 127.756 658.549 127.922 659.153C130.469 669.97 137.02 680.493 145.538 688.013C146.009 688.452 146.458 688.866 146.937 689.297C148.392 687.472 149.846 685.648 151.301 683.824C150.803 683.477 150.334 683.146 149.844 682.793C141.034 676.726 134.298 668.593 130.35 658.322C130.116 657.757 129.891 657.206 129.664 656.634Z" fill="#0074AB"/>
<path d="M109.135 668.806C109.001 668.543 108.758 668.338 108.47 668.231C108.182 668.125 107.874 668.125 107.602 668.238C107.328 668.351 107.11 668.569 106.982 668.847C106.853 669.126 106.826 669.443 106.918 669.724C107.085 670.235 107.245 670.717 107.419 671.226C110.26 680.238 115.437 688.984 121.38 696.371C121.709 696.796 122.024 697.201 122.355 697.623C122.943 698.379 123.793 698.843 124.748 698.886C125.701 698.93 126.681 698.549 127.441 697.855C128.201 697.161 128.67 696.22 128.712 695.267C128.757 694.312 128.371 693.424 127.672 692.769C127.289 692.409 126.924 692.066 126.545 691.706C119.715 685.425 114.038 678.564 109.846 670.188C109.603 669.72 109.374 669.278 109.135 668.806Z" fill="#007BA4"/>
<path d="M85.633 557.686C90.3984 555.372 93.2118 555.79 95.3905 557.187C98.0414 558.887 100.55 562.507 103.422 568.381C108.895 579.578 115.078 597.881 126.717 615.647L126.885 615.904L127.097 616.129C137.971 627.673 147.61 638.007 153.496 648.414C159.143 658.399 161.152 668.13 157.436 678.841C147.645 687.941 138.869 692.602 131.126 694.218C123.298 695.852 116.233 694.441 109.805 690.894C96.6901 683.66 86.1919 667.512 78.749 650.187L78.6912 650.054L78.6232 649.927C70.333 634.32 68.0229 613.74 70.0326 595.521C71.033 586.444 73.0915 578.105 75.9082 571.408C78.7134 564.74 82.1172 560.065 85.633 557.686Z" fill="#87CFE5" stroke="#0076B8" stroke-width="7"/>
<path d="M128.322 656.188C128.214 655.917 127.996 655.696 127.724 655.568C127.452 655.441 127.15 655.418 126.874 655.507C126.598 655.597 126.366 655.794 126.222 656.057C126.077 656.32 126.031 656.627 126.103 656.909C126.259 657.516 126.413 658.103 126.579 658.706C129.126 669.523 135.677 680.047 144.195 687.567C144.667 688.006 145.116 688.42 145.594 688.851C147.049 687.026 148.503 685.202 149.959 683.377C149.461 683.03 148.991 682.7 148.502 682.347C139.692 676.28 132.955 668.147 129.007 657.876C128.774 657.311 128.549 656.76 128.322 656.188Z" fill="#0074AB"/>
<path d="M107.793 668.36C107.659 668.096 107.415 667.891 107.128 667.785C106.84 667.678 106.532 667.679 106.259 667.792C105.986 667.905 105.767 668.122 105.639 668.401C105.511 668.68 105.484 668.997 105.575 669.278C105.743 669.788 105.902 670.27 106.077 670.78C108.918 679.791 114.095 688.538 120.038 695.925C120.367 696.349 120.681 696.755 121.013 697.177C121.601 697.933 122.451 698.397 123.405 698.44C124.359 698.484 125.339 698.102 126.099 697.409C126.858 696.715 127.327 695.773 127.37 694.82C127.414 693.866 127.029 692.978 126.33 692.323C125.947 691.963 125.582 691.62 125.203 691.26C118.373 684.979 112.695 678.117 108.504 669.741C108.261 669.274 108.032 668.832 107.793 668.36Z" fill="#007BA4"/>
</g>
<defs>
<clipPath id="clip0_176_1063">
<rect width="476" height="786" fill="white"/>
</clipPath>
<clipPath id="clip1_176_1063">
<rect width="151" height="90.1148" fill="white" transform="translate(94 695.885)"/>
</clipPath>
<clipPath id="clip2_176_1063">
<rect width="151" height="90.1148" fill="white" transform="matrix(-1 0 0 1 396.001 695.885)"/>
</clipPath>
<clipPath id="clip3_176_1063">
<rect width="196" height="148.189" fill="white" transform="translate(146 401.511)"/>
</clipPath>
<clipPath id="clip4_176_1063">
<rect width="76" height="149.19" fill="white" transform="matrix(-1 0 0 1 476 494.63)"/>
</clipPath>
</defs>
</svg>
