<svg width="476" height="786" viewBox="0 0 476 786" fill="none" xmlns="http://www.w3.org/2000/svg">
<g clip-path="url(#clip0_176_572)">
<g clip-path="url(#clip1_176_572)">
<path d="M86.9297 16.7143C96.5345 11.8058 106.682 11.5524 117.15 15.7188C127.798 19.9572 138.925 28.8568 149.706 42.484C171.246 69.7073 190.39 114.534 201.105 172.941C203.797 197.451 207.515 221.975 210.903 244.675C214.315 267.526 217.378 288.445 218.81 305.946C220.262 323.711 219.917 336.908 217.187 344.843C215.87 348.67 214.243 350.541 212.698 351.426C211.21 352.28 208.76 352.81 204.48 351.727L201.386 350.945L199.008 353.076C195.786 355.965 194.143 356.089 193.632 356.04C193.139 355.992 191.842 355.603 189.746 352.806C187.689 350.061 185.529 345.873 183.134 340.141C180.765 334.471 178.317 327.671 175.575 319.89C164.678 288.966 149.647 243.897 118.755 204.259L118.539 203.982L118.293 203.733L115.425 200.807C55.8798 139.71 39.4621 98.8817 41.6354 71.5833C43.8011 44.3815 64.7521 28.0479 86.9297 16.7143Z" fill="#8BCDE5" stroke="#0E6B96" stroke-width="12"/>
<path d="M307.345 63.0001C329.956 36.7664 354.435 28.2455 371.981 33.7082C390.948 39.6138 410.17 56.4775 412.328 84.658C414.514 113.194 399.378 155.113 344.924 210.922L344.816 211.034L344.714 211.149C311.199 249.217 298.305 291.6 289.629 320.998C287.446 328.398 285.571 334.835 283.702 340.279C281.814 345.774 280.078 349.805 278.313 352.52C276.553 355.23 275.28 355.846 274.561 355.996C273.785 356.157 271.966 356.128 268.378 353.876L266.01 352.389L263.352 353.247C259.04 354.637 256.325 354.41 254.592 353.718C252.907 353.044 251.211 351.556 249.678 348.449C246.419 341.847 245.025 330.25 245.345 314.045C245.977 281.971 253.048 236.878 258.547 190.113C265.454 131.368 284.962 88.9707 307.345 63.0001Z" fill="#87CFE5" stroke="#0E6B96" stroke-width="12"/>
<path d="M237.5 334.426C339.975 334.426 423 416.937 423 518.661C423 620.384 339.975 702.895 237.5 702.895C135.025 702.895 52.0005 620.384 52.0005 518.661C52.0005 416.937 135.025 334.426 237.5 334.426Z" fill="#86D0E3" stroke="#0C74AB" stroke-width="7"/>
<path d="M364.501 646.824C330.001 685.874 266.001 701.394 241.001 698.89C134.001 704.898 53.5005 610.673 56.0005 517.159C57.5664 458.584 43.0005 596.76 182.001 655.836C256.501 693.383 364.501 646.824 364.501 646.824Z" fill="#37B4CA"/>
<path opacity="0.77" d="M173.5 393.501L182.5 381.987L195 370.972L202 366.967L208.5 364.965L212 368.469L215 372.474L217 378.482L208.5 380.985L196 387.994L187.5 393.501L179 401.511L175 397.006L173.5 393.501Z" fill="#004F80"/>
<path opacity="0.7" d="M264.5 357.956H272.5L280 359.458L288 362.462L298 366.968L306.5 371.974L305 379.483L295 376.98L283.5 374.477L274.5 372.975H267.5H259.5V365.966L261 360.96L264.5 357.956Z" fill="#014C83"/>
<g clip-path="url(#clip2_176_572)">
<path d="M199 700.891C217.453 700.891 227.418 706.675 232.985 714.199C238.752 721.994 240.5 732.567 240.5 743.445C240.5 754.689 239.623 763.351 232.348 769.732C224.743 776.403 209.12 781.494 176.5 781.494C154.106 781.494 138.008 780.424 126.449 778.523C114.815 776.61 108.241 773.923 104.485 771.045C100.993 768.369 99.6442 765.306 99.1137 761.46C98.8339 759.432 98.7896 757.202 98.8315 754.653C98.8709 752.258 99.0004 749.257 99.0004 746.449C99.0004 742.955 101.71 738.187 108.265 732.613C114.594 727.232 123.607 721.877 134.018 717.118C154.892 707.577 180.368 700.891 199 700.891Z" fill="#87CFE5" stroke="#0178B2" stroke-width="9"/>
<path d="M235.614 730.881C246.614 773.936 213.16 778.991 174.5 778.991C135.84 778.991 114 775.987 108.5 768.978C95.5 762.97 149.114 767.928 177.114 764.925C262.114 764.925 216 687.875 235.614 730.881Z" fill="#31A7BA"/>
</g>
<g clip-path="url(#clip3_176_572)">
<path d="M291.001 700.891C272.548 700.891 262.583 706.675 257.016 714.199C251.249 721.994 249.501 732.567 249.501 743.445C249.501 754.689 250.378 763.351 257.653 769.732C265.258 776.403 280.881 781.494 313.501 781.494C335.895 781.494 351.993 780.424 363.552 778.523C375.186 776.61 381.76 773.923 385.516 771.045C389.008 768.369 390.357 765.306 390.887 761.46C391.167 759.432 391.211 757.202 391.169 754.653C391.13 752.258 391.001 749.257 391.001 746.449C391.001 742.955 388.291 738.187 381.736 732.613C375.407 727.232 366.394 721.877 355.983 717.118C335.109 707.577 309.633 700.891 291.001 700.891Z" fill="#87CFE5" stroke="#0178B2" stroke-width="9"/>
<path d="M254.387 730.881C243.387 773.936 276.841 778.991 315.501 778.991C354.161 778.991 376.001 775.987 381.501 768.978C394.501 762.97 340.887 767.928 312.887 764.925C227.887 764.925 274.001 687.875 254.387 730.881Z" fill="#31A7BA"/>
</g>
<g clip-path="url(#clip4_176_572)">
<path d="M193.5 431.549C218.481 431.549 239.5 455.778 239.5 485.618C239.5 502.455 236.057 515.942 228.772 525.17C221.589 534.268 210.302 539.687 193.5 539.687C168.615 539.687 149 516.052 149 485.618C149 455.184 168.615 431.549 193.5 431.549Z" fill="#FEFEFE" stroke="#0F79AB" stroke-width="6"/>
<path d="M288.176 404.515C301.85 404.515 314.49 412.127 323.821 424.786C333.149 437.44 339 454.951 339 474.104C339 495.678 335.187 513.118 327.027 525.086C319.002 536.858 306.53 543.692 288.176 543.692C274.506 543.692 262.294 536.238 253.386 523.693C244.469 511.135 239 493.617 239 474.104C239 454.59 244.469 437.073 253.386 424.514C262.294 411.97 274.506 404.515 288.176 404.515Z" fill="#FEFEFE" stroke="#0F79AB" stroke-width="6"/>
<path d="M241 549.7C252.046 549.7 261 540.062 261 528.172C261 516.283 252.046 506.645 241 506.645C229.955 506.645 221 516.283 221 528.172C221 540.062 229.955 549.7 241 549.7Z" fill="#ED6F7A"/>
<path d="M273.5 489.624C273.5 500.683 267.508 509.649 259.5 509.649C251.492 509.649 245 500.683 245 489.624C245 478.564 251.492 469.598 259.5 469.598C268.5 472.101 273.5 478.109 273.5 489.624Z" fill="#2B2A28"/>
<path d="M221.5 509.649C229.509 509.649 236 500.683 236 489.624C236 478.564 229.509 469.598 221.5 469.598C213.492 469.598 207 478.564 207 489.624C207 500.683 213.492 509.649 221.5 509.649Z" fill="#2B2A28"/>
<path d="M271 479.11C272 482.615 268.761 485.619 266 485.619C263.239 485.619 261 483.153 261 480.112C261 477.07 263.239 474.604 266 474.604C268.761 474.604 271 476.069 271 479.11Z" fill="#F9FAFB"/>
<path d="M233 479.11C234 482.615 230.762 485.619 228 485.619C225.239 485.619 223 483.153 223 480.112C223 477.07 225.239 474.604 228 474.604C230.762 474.604 233 476.069 233 479.11Z" fill="#F9FAFB"/>
</g>
<g clip-path="url(#clip5_176_572)">
<path d="M416.914 498.138C411.66 498.815 409.535 500.708 408.479 503.074C407.193 505.952 407.078 510.361 407.895 516.856C409.452 529.238 414.31 547.96 414.31 569.225V569.533L414.256 569.837C411.485 585.473 409.086 599.417 409.865 611.363C410.613 622.825 414.265 632.077 423.243 639.009C436.419 641.259 446.314 640.348 453.677 637.453C461.12 634.527 466.256 629.467 469.691 622.97C476.696 609.715 476.63 590.43 473.362 571.835L473.336 571.692L473.323 571.549C471.706 553.929 462.361 535.424 450.696 521.267C444.885 514.214 438.594 508.358 432.569 504.296C426.567 500.25 421.159 498.202 416.914 498.138Z" fill="#87CFE5" stroke="#0076B8" stroke-width="7"/>
<path d="M435.182 604.062C435.124 603.776 435.186 603.471 435.342 603.215C435.5 602.959 435.74 602.774 436.021 602.698C436.301 602.621 436.602 602.659 436.867 602.8C437.132 602.941 437.34 603.173 437.434 603.449C437.635 604.043 437.828 604.619 438.02 605.215C441.816 615.672 442.104 628.081 439.099 639.053C438.946 639.679 438.797 640.273 438.633 640.897C436.416 640.167 434.2 639.437 431.983 638.707C432.209 638.143 432.421 637.608 432.637 637.045C436.682 627.129 437.86 616.621 435.534 605.852C435.42 605.25 435.306 604.665 435.182 604.062Z" fill="#0074AB"/>
<path d="M459.025 602.993C458.992 602.698 459.083 602.393 459.265 602.146C459.448 601.899 459.706 601.73 459.996 601.675C460.286 601.62 460.588 601.682 460.849 601.845C461.108 602.008 461.305 602.259 461.383 602.544C461.522 603.064 461.653 603.555 461.786 604.077C464.347 613.185 464.81 623.351 463.887 632.798C463.844 633.334 463.803 633.846 463.758 634.382C463.679 635.338 463.223 636.193 462.448 636.753C461.675 637.312 460.646 637.531 459.63 637.366C458.614 637.202 457.706 636.67 457.148 635.897C456.588 635.121 456.424 634.165 456.65 633.234C456.772 632.722 456.89 632.235 457.01 631.725C459.282 622.717 460.27 613.854 459.187 604.54C459.134 604.015 459.084 603.518 459.025 602.993Z" fill="#007BA4"/>
</g>
<path fill-rule="evenodd" clip-rule="evenodd" d="M206.932 644.771C206.023 634.314 115.741 621.089 77.8282 624.384C58.2349 626.087 43.5483 641.525 45.053 658.837C46.5579 676.152 63.6863 688.825 83.2806 687.122C121.193 683.827 207.84 655.227 206.932 644.771Z" fill="#FF9425"/>
<path fill-rule="evenodd" clip-rule="evenodd" d="M206.929 645.17C206.941 644.971 206.935 644.748 206.935 644.748C206.935 644.748 45.0789 654.723 45.0539 658.837C44.9463 676.216 63.696 688.927 83.2814 687.122C157.041 680.319 206.5 652.156 206.929 645.17Z" fill="#FF8600"/>
<path d="M75.6861 685.202C76.4913 678.433 76.8891 671.662 75.1649 665.072" stroke="#EF6A00" stroke-width="5" stroke-miterlimit="10" stroke-linecap="round" stroke-linejoin="round"/>
<path d="M109.225 681.567C111.678 677.036 110.804 672.373 109.482 667.571" stroke="#EF6A00" stroke-width="5" stroke-miterlimit="10" stroke-linecap="round" stroke-linejoin="round"/>
<path d="M150.246 672.164C150.115 665.824 149.305 660.641 148.099 656.131" stroke="#EF6A00" stroke-width="5" stroke-miterlimit="10" stroke-linecap="round" stroke-linejoin="round"/>
<path fill-rule="evenodd" clip-rule="evenodd" d="M51.5409 658.81C51.5409 658.81 27.2563 649.857 18.1316 648.722C9.04677 647.592 0.225348 658.191 0.92055 662.721C1.87601 668.935 9.5648 674.377 18.9056 672.159C27.7043 670.07 51.5409 658.81 51.5409 658.81Z" fill="#129447"/>
<path fill-rule="evenodd" clip-rule="evenodd" d="M51.4678 658.951C51.4678 658.951 42.0954 653.022 35.6736 644.224C32.1008 639.33 32.9452 631.619 29.8377 628.452C26.1125 624.659 20.6186 622.169 17.201 625.935C13.7833 629.7 15.0151 635.747 17.7642 642.746C22.5765 654.996 45.9524 658.335 51.4678 658.951Z" fill="#00AA63"/>
<path fill-rule="evenodd" clip-rule="evenodd" d="M52.0334 657.857C52.0334 657.857 48.078 649.94 45.3343 639.61C43.3895 632.289 44.1303 622.824 44.236 622.195C45.6854 613.584 37.6126 610.87 32.345 616.265C27.7573 620.964 27.0599 627.789 28.3307 633.132C31.6072 646.912 47.538 659.631 52.0334 657.857Z" fill="#129447"/>
<path fill-rule="evenodd" clip-rule="evenodd" d="M52.0324 657.857C52.0324 657.857 44.9865 665.427 40.8425 675.014C38.5372 680.347 41.2605 687.793 38.9872 691.361C36.2635 695.638 31.4812 698.895 27.2017 695.706C22.9223 692.516 22.631 684.355 23.6263 679.121C26.0214 666.513 46.9047 657.8 52.0324 657.857Z" fill="#00AA63"/>
<path fill-rule="evenodd" clip-rule="evenodd" d="M52.0325 657.858C52.0325 657.858 48.3289 668.934 47.9953 679.468C47.724 688.007 50.1521 694.085 49.9681 696.857C49.6298 701.955 45.5397 705.17 40.5959 703.146C35.6502 701.123 32.7197 692.223 32.6907 687.863C32.6011 674.431 46.2804 660.051 52.0325 657.858Z" fill="#129447"/>
<path d="M87.3797 641.399C89.6358 635.738 89.2785 629.513 88.7938 625.529" stroke="#EF6A00" stroke-width="5" stroke-miterlimit="10" stroke-linecap="round" stroke-linejoin="round"/>
<path d="M129.002 641.158C130.632 636.854 130.511 631.786 130.261 628.511" stroke="#EF6A00" stroke-width="5" stroke-miterlimit="10" stroke-linecap="round" stroke-linejoin="round"/>
<path d="M169.939 641.207C170.689 638.753 170.422 635.625 170.152 633.584" stroke="#EF6A00" stroke-width="5" stroke-miterlimit="10" stroke-linecap="round" stroke-linejoin="round"/>
<path d="M125.944 629.285C126.512 629.327 125.11 631.53 126.214 632.231C127.481 633.036 129.282 633.784 129.009 634.942C128.874 635.519 127.395 638.241 127.616 639.634C127.853 641.135 127.305 641.39 127.798 641.626C128.764 642.09 126.79 646.918 129.385 648.008C130.496 648.475 133.366 647.56 133.688 648.002C134.356 648.92 136.821 648.379 138.321 647.632C139.513 647.039 139.785 645.567 140.59 644.596C141.015 644.083 141.288 643.447 141.665 642.941C141.847 642.699 142.152 642.612 142.395 642.683C143.949 643.126 143.718 646.328 144.524 647.389C144.893 647.874 145.142 648.465 145.604 648.894C146.468 649.696 147.893 649.722 149.065 650.135C150.275 650.563 151.397 650.913 152.818 650.972C153.617 651.006 154.914 651.253 156.397 650.978C157.89 650.7 158.728 649.238 159.533 648.267C160.34 647.293 160.316 646.522 160.875 646.469C162.266 646.339 162.973 648.531 164.008 649.57C165.09 650.654 166.175 651.634 167.377 652.376C168.489 653.062 170.286 653.335 174.428 654.323C176.795 654.888 179.531 655.416 181.207 655.641C182.677 655.837 184.534 655.434 185.744 654.711C187.071 653.918 188.387 653.198 189.425 652.16C190.377 651.208 192.015 650.603 192.679 649.552C193.346 648.494 194.508 647.925 195.363 646.949C196.249 645.937 196.726 644.328 197.327 643.14C197.739 641.969 198.131 641.084 198.215 640.466C198.233 640.133 198.199 639.762 198.164 639.381" stroke="#C65104" stroke-width="2" stroke-linecap="round"/>
<path d="M198.829 638.727C196.893 644.779 191.734 652.202 185.043 655.476C177.338 656.18 166.864 652.542 163.971 649.389C158.996 643.968 167.484 644.261 164.89 632.213C170.861 632.202 189.211 636.935 198.829 638.727Z" fill="#934511"/>
<path d="M172.475 636.039C172.071 642.603 159.507 648.63 155.081 651.135C149.951 651.604 143.95 647.607 143.1 644.245C140.742 634.921 140.808 631.47 144.768 629.533C149.432 631.115 176.547 631.149 172.475 636.039Z" fill="#934511"/>
<path d="M151.954 633.395C151.549 639.958 138.986 645.985 134.56 648.49C129.431 648.959 123.429 644.962 122.579 641.6C120.221 632.276 120.287 628.825 124.247 626.888C128.911 628.47 156.026 628.504 151.954 633.395Z" fill="#934511"/>
<path d="M109.218 661.515C109.207 661.224 109.075 660.942 108.861 660.731C108.647 660.521 108.37 660.398 108.08 660.391C107.79 660.384 107.506 660.492 107.282 660.691C107.058 660.891 106.912 661.166 106.886 661.456C106.831 662.08 106.781 662.685 106.736 663.309C105.533 674.356 108.203 686.461 113.728 696.39C114.027 696.961 114.312 697.501 114.62 698.067C116.599 696.831 118.578 695.596 120.558 694.36C120.205 693.867 119.872 693.399 119.528 692.903C113.243 684.248 109.602 674.334 109.302 663.335C109.27 662.724 109.242 662.13 109.218 661.515Z" fill="#0074AB"/>
<path d="M85.8069 666.151C85.7682 665.858 85.6069 665.583 85.3716 665.387C85.1354 665.191 84.8445 665.089 84.5502 665.104C84.2548 665.12 83.976 665.252 83.7627 665.471C83.5484 665.691 83.4174 665.981 83.41 666.277C83.3977 666.814 83.3877 667.322 83.3826 667.86C83.0584 677.304 85.0246 687.275 88.1664 696.22C88.335 696.73 88.4968 697.217 88.6683 697.726C88.9716 698.634 89.6181 699.355 90.5035 699.714C91.388 700.073 92.4391 700.04 93.3866 699.639C94.3341 699.238 95.0901 698.507 95.448 697.622C95.8078 696.737 95.7403 695.771 95.2992 694.921C95.0583 694.454 94.8282 694.009 94.5905 693.543C90.2443 685.346 87.1776 676.984 86.0169 667.69C85.9434 667.168 85.8746 666.675 85.8069 666.151Z" fill="#007BA4"/>
<path d="M100.675 553.55C105.939 552.956 108.453 554.288 110.041 556.331C111.974 558.817 113.134 563.066 113.884 569.561C115.313 581.942 115.044 601.26 120.097 621.889L120.17 622.187L120.295 622.469C126.701 636.977 132.345 649.933 134.427 661.706C136.424 673.002 135.076 682.846 128.003 691.708C115.74 697.024 105.912 698.495 98.0732 697.439C90.1481 696.371 83.9572 692.686 79.0778 687.199C69.1232 676.009 64.6059 657.286 63.3615 638.47L63.3514 638.326L63.3295 638.183C60.7137 620.706 65.3934 600.532 73.359 584.024C77.3269 575.8 82.0467 568.623 86.9337 563.248C91.8004 557.896 96.5676 554.622 100.675 553.55Z" fill="#87CFE5" stroke="#0076B8" stroke-width="7"/>
<path d="M108.102 660.647C108.091 660.356 107.959 660.074 107.745 659.863C107.531 659.653 107.254 659.53 106.963 659.523C106.673 659.515 106.389 659.624 106.166 659.823C105.942 660.023 105.796 660.298 105.769 660.588C105.715 661.212 105.664 661.817 105.62 662.441C104.417 673.488 107.087 685.593 112.612 695.522C112.91 696.093 113.196 696.633 113.503 697.199C115.483 695.963 117.462 694.728 119.442 693.492C119.088 692.999 118.756 692.531 118.412 692.035C112.127 683.38 108.486 673.466 108.186 662.467C108.154 661.856 108.125 661.262 108.102 660.647Z" fill="#0074AB"/>
<path d="M84.6902 665.282C84.6515 664.989 84.4902 664.715 84.2549 664.519C84.0187 664.322 83.7278 664.22 83.4335 664.236C83.1381 664.251 82.8593 664.383 82.646 664.603C82.4317 664.823 82.3007 665.113 82.2933 665.409C82.281 665.946 82.271 666.454 82.2659 666.992C81.9417 676.435 83.9079 686.407 87.0497 695.352C87.2183 695.862 87.3801 696.349 87.5516 696.858C87.8549 697.766 88.5014 698.487 89.3868 698.846C90.2713 699.205 91.3224 699.172 92.2699 698.771C93.2174 698.37 93.9734 697.638 94.3313 696.754C94.6911 695.869 94.6236 694.903 94.1825 694.053C93.9416 693.586 93.7115 693.141 93.4738 692.675C89.1276 684.477 86.0609 676.116 84.9002 666.822C84.8267 666.3 84.7579 665.807 84.6902 665.282Z" fill="#007BA4"/>
<g clip-path="url(#clip6_176_572)">
<path d="M146.218 540.981C145.683 540.392 144.936 540.041 144.141 540.004C143.346 539.966 142.569 540.246 141.981 540.782C141.392 541.317 141.041 542.065 141.003 542.859C140.966 543.654 141.246 544.431 141.782 545.02C144.405 547.902 147.198 550.632 150.13 553.197C204.771 598.972 289.849 592.306 342.959 547.893C345.945 545.411 348.79 542.86 351.586 540.156C352.158 539.603 352.486 538.845 352.5 538.05C352.513 537.254 352.209 536.486 351.656 535.914C351.103 535.342 350.345 535.014 349.55 535C348.754 534.987 347.986 535.291 347.414 535.844C344.728 538.442 341.994 540.893 339.125 543.278C288.242 586.061 205.618 592.128 154.081 548.682C151.315 546.261 148.685 543.691 146.218 540.981Z" fill="#076FA2"/>
<path d="M211.668 582.963L211.736 582.979L211.806 582.987L223.306 584.487L223.365 584.495L223.425 584.498L233.425 584.998L233.463 585H241.5V604.916L241.08 608.48L237.175 611.735L233.582 613.531L228.429 614H223.701L218.614 612.612L213.471 609.339L208.285 603.682L204.918 595.506L202.5 587.282V580.879L211.668 582.963Z" fill="#FEFEFE" stroke="#0578A5" stroke-width="3"/>
<path d="M270.38 582.723L270.312 582.738L270.241 582.748L259.837 584.104L259.777 584.111L259.718 584.114L250.67 584.566L250.633 584.568H243.5V602.422L243.873 605.579L247.349 608.474L250.561 610.079L255.19 610.5H259.441L264.007 609.255L268.626 606.318L273.287 601.236L276.319 593.878L278.5 586.467V580.878L270.38 582.723Z" fill="#FEFEFE" stroke="#0875A4" stroke-width="3"/>
</g>
</g>
</g>
<defs>
<clipPath id="clip0_176_572">
<rect width="476" height="786" fill="white"/>
</clipPath>
<clipPath id="clip1_176_572">
<rect width="476" height="786" fill="white"/>
</clipPath>
<clipPath id="clip2_176_572">
<rect width="151" height="90.1148" fill="white" transform="translate(94 695.885)"/>
</clipPath>
<clipPath id="clip3_176_572">
<rect width="151" height="90.1148" fill="white" transform="matrix(-1 0 0 1 396.001 695.885)"/>
</clipPath>
<clipPath id="clip4_176_572">
<rect width="196" height="148.189" fill="white" transform="translate(146 401.511)"/>
</clipPath>
<clipPath id="clip5_176_572">
<rect width="76" height="149.19" fill="white" transform="matrix(-1 0 0 1 479 494.63)"/>
</clipPath>
<clipPath id="clip6_176_572">
<rect width="212" height="81" fill="white" transform="translate(141 535)"/>
</clipPath>
</defs>
</svg>
