<svg width="476" height="792" viewBox="0 0 476 792" fill="none" xmlns="http://www.w3.org/2000/svg">
<path d="M132.578 7.54358C142.909 4.45314 152.937 6.03344 162.483 12.0133C172.193 18.0965 181.536 28.8451 189.687 44.1754C205.972 74.8014 216.732 122.289 216.756 181.597C214.991 206.161 214.233 230.922 213.479 253.833C212.721 276.896 211.968 297.998 210.225 315.449C208.455 333.162 205.74 346.064 201.626 353.367C199.642 356.889 197.705 358.434 196.025 359.025C194.408 359.595 191.903 359.674 187.888 357.839L184.985 356.513L182.263 358.178C178.573 360.435 176.935 360.261 176.441 360.12C175.965 359.984 174.759 359.368 173.201 356.243C171.672 353.176 170.301 348.672 168.978 342.609C167.668 336.612 166.485 329.491 165.189 321.353C160.038 289.01 153.367 242.026 130.117 197.518L129.955 197.207L129.758 196.918L127.463 193.527C79.8933 122.773 71.0951 79.7051 78.1476 53.2799C85.1752 26.9482 108.724 14.6794 132.578 7.54358Z" fill="#8BCDE5" stroke="#0E6B96" stroke-width="12"/>
<path d="M271.114 57.1865C290.507 28.5221 313.823 17.2083 331.886 20.5752C351.413 24.215 372.472 38.6943 377.906 66.3935C383.409 94.4422 373.272 137.79 325.709 199.513L325.615 199.636L325.527 199.762C296.687 241.44 288.831 284.986 283.647 315.16C282.343 322.755 281.233 329.359 280.012 334.977C278.779 340.648 277.526 344.849 276.09 347.749C274.658 350.642 273.466 351.402 272.769 351.635C272.018 351.885 270.208 352.069 266.381 350.255L263.856 349.057L261.316 350.219C257.196 352.102 254.473 352.194 252.671 351.71C250.919 351.239 249.061 349.961 247.176 347.059C243.168 340.891 240.43 329.552 238.855 313.441C235.737 281.554 237.494 236 237.494 188.972C237.494 129.897 251.917 85.5632 271.114 57.1865Z" fill="#87CFE5" stroke="#0E6B96" stroke-width="12"/>
<path d="M237.5 341C339.975 341 423 423.406 423 525C423 626.594 339.975 709 237.5 709C135.025 709 52.0005 626.594 52.0005 525C52.0005 423.406 135.025 341 237.5 341Z" fill="#86D0E3" stroke="#0C74AB" stroke-width="7"/>
<path d="M364.501 653C330.001 692 266.001 707.5 241.001 705C134.001 711 53.5005 616.895 56.0005 523.5C57.5664 465 43.0005 603 182.001 662C256.501 699.5 364.501 653 364.501 653Z" fill="#37B4CA"/>
<path opacity="0.77" d="M173.5 400L182.5 388.5L195 377.5L202 373.5L208.5 371.5L212 375L215 379L217 385L208.5 387.5L196 394.5L187.5 400L179 408L175 403.5L173.5 400Z" fill="#004F80"/>
<path opacity="0.7" d="M264.5 364.5H272.5L280 366L288 369L298 373.5L306.5 378.5L305 386L295 383.5L283.5 381L274.5 379.5H267.5H259.5V372.5L261 367.5L264.5 364.5Z" fill="#014C83"/>
<g clip-path="url(#clip0_152_6)">
<path d="M199 706.999C217.453 706.999 227.418 712.775 232.985 720.29C238.752 728.075 240.5 738.635 240.5 749.499C240.5 760.728 239.623 769.379 232.348 775.751C224.743 782.414 209.12 787.499 176.5 787.499C154.106 787.499 138.008 786.43 126.449 784.532C114.815 782.621 108.241 779.938 104.485 777.063C100.993 774.391 99.6442 771.331 99.1137 767.491C98.8339 765.465 98.7896 763.237 98.8315 760.692C98.8709 758.3 99.0004 755.303 99.0004 752.499C99.0004 749.009 101.71 744.247 108.265 738.68C114.594 733.306 123.607 727.957 134.018 723.205C154.892 713.676 180.368 706.999 199 706.999Z" fill="#87CFE5" stroke="#0178B2" stroke-width="9"/>
<path d="M235.614 736.95C246.614 779.95 213.16 784.999 174.5 784.999C135.84 784.999 114 781.999 108.5 774.999C95.5 768.999 149.114 773.95 177.114 770.95C262.114 770.95 216 693.999 235.614 736.95Z" fill="#31A7BA"/>
</g>
<g clip-path="url(#clip1_152_6)">
<path d="M291.001 706.999C272.548 706.999 262.583 712.775 257.016 720.29C251.249 728.075 249.501 738.635 249.501 749.499C249.501 760.728 250.378 769.379 257.653 775.751C265.258 782.414 280.881 787.499 313.5 787.499C335.894 787.499 351.993 786.43 363.552 784.532C375.185 782.621 381.759 779.938 385.516 777.063C389.007 774.391 390.356 771.331 390.887 767.491C391.167 765.465 391.211 763.237 391.169 760.692C391.13 758.3 391 755.303 391 752.499C391 749.009 388.291 744.247 381.735 738.68C375.407 733.306 366.394 727.957 355.982 723.205C335.109 713.676 309.633 706.999 291.001 706.999Z" fill="#87CFE5" stroke="#0178B2" stroke-width="9"/>
<path d="M254.387 736.95C243.387 779.95 276.841 784.999 315.501 784.999C354.161 784.999 376.001 781.999 381.501 774.999C394.5 768.999 340.886 773.95 312.887 770.95C227.887 770.95 274.001 693.999 254.387 736.95Z" fill="#31A7BA"/>
</g>
<g clip-path="url(#clip2_152_6)">
<path d="M144.219 540.979C143.683 540.391 142.936 540.039 142.141 540.002C141.346 539.965 140.569 540.245 139.981 540.78C139.393 541.316 139.041 542.063 139.004 542.858C138.966 543.653 139.246 544.43 139.782 545.018C142.406 547.901 145.198 550.63 148.13 553.196C202.772 598.971 287.849 592.305 340.959 547.892C343.945 545.41 346.79 542.859 349.586 540.155C350.158 539.601 350.486 538.844 350.5 538.048C350.513 537.253 350.209 536.484 349.656 535.913C349.104 535.341 348.345 535.012 347.55 534.999C346.754 534.986 345.986 535.289 345.414 535.842C342.728 538.441 339.994 540.892 337.125 543.277C286.242 586.059 203.618 592.126 152.082 548.681C149.315 546.26 146.686 543.689 144.219 540.979Z" fill="#076FA2"/>
<path d="M209.668 582.961L209.737 582.977L209.806 582.986L221.306 584.486L221.366 584.494L221.425 584.497L231.425 584.997L231.463 584.999H239.5V604.915L239.08 608.478L235.175 611.734L231.582 613.53L226.429 613.999H221.702L216.615 612.611L211.471 609.337L206.286 603.68L202.918 595.504L200.5 587.281V580.877L209.668 582.961Z" fill="#FEFEFE" stroke="#0578A5" stroke-width="3"/>
<path d="M268.38 582.721L268.312 582.737L268.241 582.747L257.837 584.102L257.777 584.11L257.718 584.113L248.67 584.565L248.633 584.567H241.5V602.42L241.873 605.578L245.349 608.472L248.561 610.078L253.19 610.499H257.441L262.007 609.253L266.626 606.317L271.287 601.235L274.319 593.876L276.5 586.465V580.876L268.38 582.721Z" fill="#FEFEFE" stroke="#0875A4" stroke-width="3"/>
</g>
<g clip-path="url(#clip3_152_6)">
<path d="M193.5 438C218.481 438 239.5 462.198 239.5 492C239.5 508.815 236.057 522.285 228.772 531.501C221.589 540.588 210.302 546 193.5 546C168.615 546 149 522.395 149 492C149 461.605 168.615 438 193.5 438Z" fill="#FEFEFE" stroke="#0F79AB" stroke-width="6"/>
<path d="M288.176 411C301.85 411 314.49 418.602 323.821 431.245C333.149 443.883 339 461.372 339 480.5C339 502.047 335.187 519.464 327.027 531.417C319.002 543.174 306.53 550 288.176 550C274.506 550 262.294 542.555 253.386 530.026C244.469 517.484 239 499.989 239 480.5C239 461.011 244.469 443.516 253.386 430.974C262.294 418.445 274.506 411 288.176 411Z" fill="#FEFEFE" stroke="#0F79AB" stroke-width="6"/>
<path d="M241 556C252.046 556 261 546.374 261 534.5C261 522.626 252.046 513 241 513C229.955 513 221 522.626 221 534.5C221 546.374 229.955 556 241 556Z" fill="#ED6F7A"/>
<path d="M273.5 496C273.5 507.046 267.508 516 259.5 516C251.492 516 245 507.046 245 496C245 484.954 251.492 476 259.5 476C268.5 478.5 273.5 484.5 273.5 496Z" fill="#2B2A28"/>
<path d="M221.5 516C229.509 516 236 507.046 236 496C236 484.954 229.509 476 221.5 476C213.492 476 207 484.954 207 496C207 507.046 213.492 516 221.5 516Z" fill="#2B2A28"/>
<path d="M271 485.5C272 489 268.761 492 266 492C263.239 492 261 489.538 261 486.5C261 483.462 263.239 481 266 481C268.761 481 271 482.462 271 485.5Z" fill="#F9FAFB"/>
<path d="M233 485.5C234 489 230.762 492 228 492C225.239 492 223 489.538 223 486.5C223 483.462 225.239 481 228 481C230.762 481 233 482.462 233 485.5Z" fill="#F9FAFB"/>
</g>
<g clip-path="url(#clip4_152_6)">
<path d="M62.0857 504.503C67.3398 505.179 69.4645 507.071 70.5213 509.433C71.8072 512.308 71.9222 516.71 71.1053 523.198C69.548 535.564 64.6902 554.262 64.6902 575.5V575.808L64.7439 576.112C67.5145 591.727 69.9139 605.653 69.1346 617.584C68.3868 629.031 64.7351 638.272 55.7566 645.195C42.5809 647.442 32.686 646.532 25.323 643.641C17.8795 640.718 12.744 635.665 9.30938 629.176C2.30366 615.938 2.37047 596.678 5.63848 578.107L5.66387 577.964L5.67657 577.821C7.2941 560.223 16.6393 541.742 28.3035 527.603C34.1148 520.559 40.4062 514.711 46.4314 510.654C52.4325 506.612 57.8413 504.567 62.0857 504.503Z" fill="#87CFE5" stroke="#0076B8" stroke-width="7"/>
<path d="M43.8178 610.292C43.8759 610.007 43.8145 609.702 43.6576 609.446C43.5001 609.191 43.2598 609.006 42.9793 608.93C42.6988 608.853 42.398 608.891 42.1327 609.032C41.868 609.173 41.6605 609.405 41.5662 609.68C41.3647 610.273 41.1721 610.849 40.9797 611.444C37.1836 621.888 36.8963 634.281 39.901 645.239C40.0545 645.864 40.2034 646.457 40.3672 647.08C42.5837 646.351 44.8003 645.622 47.0168 644.893C46.7908 644.33 46.5791 643.796 46.3633 643.233C42.3183 633.33 41.1399 622.835 43.4664 612.08C43.5798 611.479 43.6941 610.895 43.8178 610.292Z" fill="#0074AB"/>
<path d="M19.9754 609.224C20.0078 608.93 19.9166 608.625 19.7347 608.378C19.5521 608.132 19.2939 607.963 19.0038 607.908C18.7137 607.853 18.4117 607.915 18.1514 608.078C17.8918 608.241 17.6951 608.491 17.6175 608.776C17.4783 609.295 17.3473 609.786 17.214 610.307C14.6529 619.403 14.1899 629.556 15.1129 638.991C15.1558 639.527 15.1967 640.038 15.2424 640.573C15.321 641.528 15.7769 642.382 16.5522 642.941C17.325 643.5 18.3538 643.718 19.3699 643.554C20.386 643.39 21.2939 642.859 21.8517 642.086C22.4119 641.311 22.5761 640.357 22.3505 639.427C22.2276 638.916 22.1097 638.429 21.9899 637.92C19.7184 628.923 18.7297 620.072 19.8133 610.769C19.8659 610.245 19.9165 609.749 19.9754 609.224Z" fill="#007BA4"/>
</g>
<g clip-path="url(#clip5_152_6)">
<path d="M413.915 504.503C408.661 505.179 406.536 507.07 405.48 509.433C404.194 512.307 404.079 516.71 404.896 523.197C406.453 535.563 411.311 554.261 411.311 575.5V575.808L411.257 576.111C408.486 591.727 406.087 605.653 406.866 617.584C407.614 629.031 411.266 638.272 420.244 645.195C433.42 647.442 443.315 646.532 450.678 643.641C458.121 640.718 463.257 635.665 466.692 629.176C473.697 615.938 473.631 596.677 470.362 578.106L470.337 577.964L470.324 577.82C468.707 560.223 459.362 541.742 447.697 527.603C441.886 520.558 435.595 514.711 429.57 510.653C423.568 506.612 418.16 504.567 413.915 504.503Z" fill="#87CFE5" stroke="#0076B8" stroke-width="7"/>
<path d="M432.183 610.292C432.125 610.007 432.187 609.702 432.343 609.446C432.501 609.191 432.741 609.006 433.022 608.93C433.302 608.853 433.603 608.891 433.868 609.032C434.133 609.173 434.341 609.405 434.435 609.68C434.636 610.273 434.829 610.849 435.021 611.444C438.817 621.888 439.105 634.281 436.1 645.239C435.947 645.864 435.798 646.457 435.634 647.08C433.417 646.351 431.201 645.622 428.984 644.893C429.21 644.33 429.422 643.796 429.638 643.233C433.683 633.33 434.861 622.835 432.535 612.08C432.421 611.479 432.307 610.895 432.183 610.292Z" fill="#0074AB"/>
<path d="M456.026 609.224C455.993 608.93 456.084 608.625 456.266 608.378C456.449 608.132 456.707 607.963 456.997 607.908C457.287 607.853 457.589 607.915 457.85 608.078C458.109 608.241 458.306 608.491 458.383 608.776C458.523 609.295 458.654 609.786 458.787 610.307C461.348 619.403 461.811 629.556 460.888 638.991C460.845 639.527 460.804 640.038 460.759 640.573C460.68 641.528 460.224 642.382 459.449 642.941C458.676 643.5 457.647 643.718 456.631 643.554C455.615 643.39 454.707 642.859 454.149 642.086C453.589 641.311 453.425 640.357 453.65 639.427C453.773 638.916 453.891 638.429 454.011 637.92C456.283 628.923 457.271 620.072 456.188 610.769C456.135 610.245 456.084 609.749 456.026 609.224Z" fill="#007BA4"/>
</g>
<defs>
<clipPath id="clip0_152_6">
<rect width="151" height="90" fill="white" transform="translate(94 701.999)"/>
</clipPath>
<clipPath id="clip1_152_6">
<rect width="151" height="90" fill="white" transform="matrix(-1 0 0 1 396 701.999)"/>
</clipPath>
<clipPath id="clip2_152_6">
<rect width="212" height="81" fill="white" transform="translate(139 534.999)"/>
</clipPath>
<clipPath id="clip3_152_6">
<rect width="196" height="148" fill="white" transform="translate(146 408)"/>
</clipPath>
<clipPath id="clip4_152_6">
<rect width="76" height="149" fill="white" transform="translate(0 501)"/>
</clipPath>
<clipPath id="clip5_152_6">
<rect width="76" height="149" fill="white" transform="matrix(-1 0 0 1 476.001 501)"/>
</clipPath>
</defs>
</svg>
