<svg width="499" height="787" viewBox="0 0 499 787" fill="none" xmlns="http://www.w3.org/2000/svg">
<path d="M256.249 382C358.724 382 441.749 464.406 441.749 566C441.749 667.594 358.724 750 256.249 750C153.774 750 70.749 667.594 70.749 566C70.749 464.406 153.774 382 256.249 382Z" fill="#86D0E3" stroke="#0C74AB" stroke-width="7"/>
<path d="M383.249 694C348.749 733 284.749 748.5 259.749 746C152.749 752 72.2491 657.895 74.7491 564.5C76.315 506 61.7491 644 200.749 703C275.249 740.5 383.249 694 383.249 694Z" fill="#37B4CA"/>
<g clip-path="url(#clip0_197_99)">
<path d="M205.249 479.038C230.23 479.038 251.249 503.267 251.249 533.107C251.249 549.944 247.805 563.431 240.521 572.659C233.338 581.757 222.051 587.176 205.249 587.176C180.363 587.176 160.749 563.541 160.749 533.107C160.749 502.673 180.363 479.038 205.249 479.038Z" fill="#FEFEFE" stroke="#0F79AB" stroke-width="6"/>
<path d="M299.925 452.004C313.599 452.004 326.239 459.616 335.57 472.275C344.898 484.929 350.749 502.44 350.749 521.593C350.749 543.166 346.936 560.606 338.776 572.574C330.751 584.346 318.279 591.181 299.925 591.181C286.255 591.181 274.043 583.727 265.135 571.182C256.217 558.624 250.749 541.106 250.749 521.593C250.749 502.079 256.217 484.561 265.135 472.003C274.043 459.458 286.255 452.004 299.925 452.004Z" fill="#FEFEFE" stroke="#0F79AB" stroke-width="6"/>
<path d="M252.749 597.189C263.795 597.189 272.749 587.551 272.749 575.661C272.749 563.772 263.795 554.134 252.749 554.134C241.703 554.134 232.749 563.772 232.749 575.661C232.749 587.551 241.703 597.189 252.749 597.189Z" fill="#ED6F7A"/>
<path d="M285.249 537.112C285.249 548.172 279.257 557.138 271.249 557.138C263.241 557.138 256.749 548.172 256.749 537.112C256.749 526.052 263.241 517.087 271.249 517.087C280.249 519.59 285.249 525.598 285.249 537.112Z" fill="#2B2A28"/>
<path d="M233.249 557.138C241.257 557.138 247.749 548.172 247.749 537.112C247.749 526.052 241.257 517.087 233.249 517.087C225.241 517.087 218.749 526.052 218.749 537.112C218.749 548.172 225.241 557.138 233.249 557.138Z" fill="#2B2A28"/>
<path d="M282.749 526.599C283.749 530.103 280.51 533.107 277.749 533.107C274.988 533.107 272.749 530.642 272.749 527.6C272.749 524.559 274.988 522.093 277.749 522.093C280.51 522.093 282.749 523.557 282.749 526.599Z" fill="#F9FAFB"/>
<path d="M244.749 526.599C245.749 530.103 242.51 533.107 239.749 533.107C236.988 533.107 234.749 530.642 234.749 527.6C234.749 524.559 236.988 522.093 239.749 522.093C242.51 522.093 244.749 523.557 244.749 526.599Z" fill="#F9FAFB"/>
</g>
<path opacity="0.77" d="M190.421 453.986L200.969 449.554L213.022 441.902L218.644 436.968L222.968 431.871L222.905 427.75L222.329 423.917L220.204 420.36L214.609 427.06L204.646 435.914L197.484 441.713L189.017 446.759L189.349 451.619L190.421 453.986Z" fill="#004F80"/>
<path opacity="0.7" d="M252.738 424.166L259.119 428.99L266.007 432.317L274.198 434.748L284.888 437.188L294.684 438.325L298.01 431.438L288.526 427.402L277.844 422.461L269.76 418.231L264.176 414.009L257.795 409.185L253.573 414.769L251.755 419.662L252.738 424.166Z" fill="#014C83"/>
<g clip-path="url(#clip1_197_99)">
<path d="M205.249 479.038C230.23 479.038 251.249 503.267 251.249 533.107C251.249 549.944 247.805 563.431 240.521 572.659C233.338 581.757 222.051 587.176 205.249 587.176C180.363 587.176 160.749 563.541 160.749 533.107C160.749 502.673 180.363 479.038 205.249 479.038Z" fill="#FEFEFE" stroke="#0F79AB" stroke-width="6"/>
<path d="M299.925 452.004C313.599 452.004 326.239 459.616 335.57 472.275C344.898 484.929 350.749 502.44 350.749 521.593C350.749 543.166 346.936 560.606 338.776 572.574C330.751 584.346 318.279 591.181 299.925 591.181C286.255 591.181 274.043 583.727 265.135 571.182C256.217 558.624 250.749 541.106 250.749 521.593C250.749 502.079 256.217 484.561 265.135 472.003C274.043 459.458 286.255 452.004 299.925 452.004Z" fill="#FEFEFE" stroke="#0F79AB" stroke-width="6"/>
<path d="M252.749 597.189C263.795 597.189 272.749 587.551 272.749 575.661C272.749 563.772 263.795 554.134 252.749 554.134C241.703 554.134 232.749 563.772 232.749 575.661C232.749 587.551 241.703 597.189 252.749 597.189Z" fill="#ED6F7A"/>
<path d="M285.249 537.112C285.249 548.172 279.257 557.138 271.249 557.138C263.241 557.138 256.749 548.172 256.749 537.112C256.749 526.052 263.241 517.087 271.249 517.087C280.249 519.59 285.249 525.598 285.249 537.112Z" fill="#2B2A28"/>
<path d="M233.249 557.138C241.257 557.138 247.749 548.172 247.749 537.112C247.749 526.052 241.257 517.087 233.249 517.087C225.241 517.087 218.749 526.052 218.749 537.112C218.749 548.172 225.241 557.138 233.249 557.138Z" fill="#2B2A28"/>
<path d="M282.749 526.599C283.749 530.103 280.51 533.107 277.749 533.107C274.988 533.107 272.749 530.642 272.749 527.6C272.749 524.559 274.988 522.093 277.749 522.093C280.51 522.093 282.749 523.557 282.749 526.599Z" fill="#F9FAFB"/>
<path d="M244.749 526.599C245.749 530.103 242.51 533.107 239.749 533.107C236.988 533.107 234.749 530.642 234.749 527.6C234.749 524.559 236.988 522.093 239.749 522.093C242.51 522.093 244.749 523.557 244.749 526.599Z" fill="#F9FAFB"/>
</g>
<path d="M304.001 690.68C311.868 681.639 325.184 675.12 347.847 676.566L347.913 676.57L347.981 676.572C364.83 677.143 387.278 685.239 405.497 696.435C414.565 702.007 422.344 708.204 427.749 714.368C433.246 720.638 435.777 726.283 435.622 730.855C435.509 734.195 435.791 737.432 436.1 740.373C436.418 743.414 436.746 746.011 436.84 748.533C437.023 753.404 436.275 756.862 433.311 759.784C430.058 762.992 423.486 766.217 410.145 768.484C396.943 770.728 377.785 771.93 350.114 771.701C334.139 771.16 322.098 770.749 312.986 769.684C303.747 768.604 298.402 766.926 295.229 764.48C292.396 762.296 290.705 759.014 290.252 752.748C289.787 746.299 290.695 737.481 292.471 725.072L292.505 724.831L292.514 724.587C292.921 712.585 295.958 699.924 304.001 690.68Z" fill="#87CFE5" stroke="#0E6B96" stroke-width="9"/>
<path d="M425.771 739.981C425.214 756.42 424.826 767.857 368.65 767.846C287.527 770.773 304.05 761.4 304.914 735.887C305.471 719.448 331.509 693.271 362.499 694.32C398.284 690.33 423.35 715.775 425.771 739.981Z" fill="#37B4CA"/>
<path d="M191.99 697.91C184.6 688.905 172.197 682.458 151.109 683.889L151.037 683.894L150.965 683.896C135.289 684.46 114.342 692.503 97.317 703.679C88.8541 709.235 81.5976 715.414 76.563 721.564C71.4555 727.803 69.0589 733.481 69.2271 738.155C69.3465 741.475 69.0964 744.697 68.8197 747.636C68.5343 750.668 68.2359 753.279 68.1573 755.812C68.0043 760.745 68.7428 764.26 71.5412 767.187C74.562 770.348 80.657 773.544 93.1286 775.802C105.48 778.038 123.425 779.243 149.378 779.017C164.369 778.477 175.634 778.068 184.149 777.008C192.783 775.933 197.683 774.274 200.568 771.895C203.171 769.75 204.776 766.458 205.18 760.111C205.592 753.629 204.698 744.783 202.98 732.379L202.948 732.153L202.94 731.924C202.506 719.872 199.587 707.166 191.99 697.91Z" fill="#87CFE5" stroke="#0E6B96" stroke-width="9"/>
<path d="M78.2328 747.291C78.8243 763.729 79.2358 775.165 131.952 775.16C208.091 778.097 192.547 768.722 191.629 743.211C191.037 726.773 166.493 700.595 137.417 701.642C103.818 697.647 80.4032 723.088 78.2328 747.291Z" fill="#37B4CA"/>
<path d="M73.8347 545.503C79.0888 546.179 81.2135 548.071 82.2703 550.433C83.5562 553.308 83.6712 557.71 82.8543 564.198C81.297 576.564 76.4392 595.262 76.4392 616.5V616.808L76.4929 617.112C79.2635 632.727 81.6629 646.653 80.8836 658.584C80.1358 670.031 76.4841 679.272 67.5056 686.195C54.3299 688.442 44.435 687.532 37.072 684.641C29.6285 681.718 24.493 676.665 21.0584 670.176C14.0527 656.938 14.1195 637.678 17.3875 619.107L17.4129 618.964L17.4256 618.821C19.0431 601.223 28.3883 582.742 40.0525 568.603C45.8638 561.559 52.1552 555.711 58.1804 551.654C64.1815 547.612 69.5903 545.567 73.8347 545.503Z" fill="#87CFE5" stroke="#0076B8" stroke-width="7"/>
<path d="M55.5668 651.292C55.6249 651.007 55.5635 650.702 55.4066 650.446C55.2491 650.191 55.0088 650.006 54.7283 649.93C54.4478 649.853 54.147 649.891 53.8817 650.032C53.617 650.173 53.4095 650.405 53.3152 650.68C53.1137 651.273 52.9211 651.849 52.7287 652.444C48.9326 662.888 48.6453 675.281 51.65 686.239C51.8035 686.864 51.9524 687.457 52.1162 688.08C54.3327 687.351 56.5493 686.622 58.7658 685.893C58.5398 685.33 58.3281 684.796 58.1123 684.233C54.0673 674.33 52.8889 663.835 55.2154 653.08C55.3288 652.479 55.4431 651.895 55.5668 651.292Z" fill="#0074AB"/>
<path d="M31.7239 650.224C31.7563 649.93 31.6651 649.625 31.4832 649.378C31.3006 649.132 31.0424 648.963 30.7523 648.908C30.4622 648.853 30.1602 648.915 29.8999 649.078C29.6403 649.241 29.4436 649.491 29.366 649.776C29.2268 650.295 29.0958 650.786 28.9625 651.307C26.4014 660.403 25.9384 670.556 26.8614 679.991C26.9043 680.527 26.9452 681.038 26.9909 681.573C27.0695 682.528 27.5254 683.382 28.3007 683.941C29.0735 684.5 30.1023 684.718 31.1184 684.554C32.1345 684.39 33.0424 683.859 33.6002 683.086C34.1604 682.311 34.3246 681.357 34.099 680.427C33.9761 679.916 33.8582 679.429 33.7384 678.92C31.4669 669.923 30.4782 661.072 31.5618 651.769C31.6144 651.245 31.665 650.749 31.7239 650.224Z" fill="#007BA4"/>
<path d="M207.186 252.175C179.978 240.25 155.248 667.5 71.748 626.5C-59.4413 562.084 66.0306 274.478 123.039 265.293C321.039 233.393 90.5141 262.956 137.991 300.318L138.085 300.392L138.173 300.469C166.961 325.697 174.803 352.057 179.978 370.322C181.279 374.919 182.387 378.917 183.606 382.317C184.837 385.75 186.088 388.293 187.521 390.049C188.95 391.8 191.843 388.878 192.539 389.019C193.289 389.17 195.719 388.626 199.539 387.528H202.268L207.539 385.739C211.652 386.879 208.74 386.032 210.539 385.739C212.288 385.454 218.157 385.707 220.039 383.95C224.04 380.217 223.117 379.034 224.689 369.281C227.801 349.979 226.047 322.404 226.047 293.937C226.047 258.178 235.064 264.394 207.186 252.175Z" fill="#87CFE5" stroke="#0E6B96" stroke-width="12"/>
<path d="M102.502 307.957C102.502 286.727 137.75 266.065 171.249 260.5C210.585 250.562 187.747 269.5 171.248 359C165.748 365.559 125.753 350.494 100.166 344.16C74.5793 337.827 92.764 321.945 102.502 307.957Z" fill="#87CFE5"/>
<path d="M230.195 617L232.249 617L234.992 616L240.749 616L242.249 616L244.028 616L248.062 616L250.409 615L257.3 615L257.3 622.359L258.614 643.424L258.491 647.215L255.374 650.867L252.428 652.958L248.062 653.728L244.028 653.98L239.597 652.783L234.992 649.594L230.195 643.887L226.782 635.419L224.176 626.85L223.753 620.077L230.195 617Z" fill="#FEFEFE" stroke="#0578A5" stroke-width="3"/>
<path d="M279.749 618.5H277.418L275.749 617.5H273.987L270.595 616H267.437L259.03 615L258.753 639.637L259.03 642.515L261.612 645.153L263.998 646.616L267.437 647H270.595L273.987 645.865L277.418 643.189L280.88 638.556L283.133 631.849L284.753 625.094V620L279.749 618.5Z" fill="#FEFEFE" stroke="#0875A4" stroke-width="3"/>
<path d="M168.075 647.75C218.798 604.194 272.566 600.048 356.899 652.047" stroke="#0C74AB" stroke-width="5" stroke-linecap="round"/>
<path d="M425.664 545.503C420.41 546.179 418.285 548.07 417.229 550.433C415.943 553.307 415.828 557.71 416.645 564.197C418.202 576.564 423.06 595.261 423.06 616.5V616.808L423.006 617.111C420.235 632.727 417.836 646.653 418.615 658.584C419.363 670.031 423.015 679.272 431.993 686.195C445.169 688.442 455.064 687.532 462.427 684.641C469.87 681.718 475.006 676.665 478.441 670.176C485.446 656.938 485.38 637.677 482.112 619.106L482.086 618.964L482.073 618.82C480.456 601.223 471.111 582.742 459.446 568.603C453.635 561.558 447.344 555.711 441.319 551.653C435.317 547.612 429.909 545.567 425.664 545.503Z" fill="#87CFE5" stroke="#0076B8" stroke-width="7"/>
<path d="M443.932 651.292C443.874 651.007 443.936 650.702 444.092 650.446C444.25 650.191 444.49 650.006 444.771 649.93C445.051 649.853 445.352 649.891 445.617 650.032C445.882 650.173 446.09 650.405 446.184 650.68C446.385 651.273 446.578 651.849 446.77 652.444C450.566 662.888 450.854 675.281 447.849 686.239C447.696 686.864 447.547 687.457 447.383 688.08C445.166 687.351 442.95 686.622 440.733 685.893C440.959 685.33 441.171 684.796 441.387 684.233C445.432 674.33 446.61 663.835 444.284 653.08C444.17 652.479 444.056 651.895 443.932 651.292Z" fill="#0074AB"/>
<path d="M467.775 650.224C467.743 649.93 467.834 649.625 468.016 649.378C468.198 649.132 468.457 648.963 468.747 648.908C469.037 648.853 469.339 648.915 469.599 649.078C469.859 649.241 470.055 649.491 470.133 649.776C470.272 650.295 470.403 650.786 470.536 651.307C473.098 660.403 473.561 670.556 472.638 679.991C472.595 680.527 472.554 681.038 472.508 681.573C472.429 682.528 471.974 683.382 471.198 683.941C470.425 684.5 469.397 684.718 468.381 684.554C467.364 684.39 466.457 683.859 465.899 683.086C465.339 682.311 465.174 681.357 465.4 680.427C465.523 679.916 465.641 679.429 465.761 678.92C468.032 669.923 469.021 661.072 467.937 651.769C467.885 651.245 467.834 650.749 467.775 650.224Z" fill="#007BA4"/>
<path d="M291.046 251.625C318.254 239.7 342.984 666.95 426.484 625.95C557.674 561.533 432.202 273.928 375.193 264.743C177.193 232.843 407.718 262.405 360.241 299.768L360.147 299.842L360.059 299.918C331.271 325.147 323.43 351.506 318.255 369.771C316.953 374.369 315.845 378.366 314.626 381.767C313.396 385.2 312.145 387.743 310.712 389.498C309.282 391.25 306.389 388.327 305.693 388.468C304.944 388.62 302.513 388.076 298.693 386.978H295.964L290.693 385.189C286.581 386.329 289.492 385.482 287.693 385.189C285.945 384.904 280.075 385.157 278.193 383.4C274.193 379.666 275.116 378.483 273.544 368.731C270.431 349.429 272.185 321.854 272.185 293.387C272.185 257.627 263.168 263.844 291.046 251.625Z" fill="#87CFE5" stroke="#0E6B96" stroke-width="12"/>
<path d="M395.73 307.407C395.73 286.177 360.482 265.514 326.983 259.949C287.647 250.012 310.485 268.95 326.985 358.45C332.485 365.008 372.479 349.943 398.066 343.61C423.653 337.277 405.468 321.395 395.73 307.407Z" fill="#87CFE5"/>
<defs>
<clipPath id="clip0_197_99">
<rect width="196" height="148.189" fill="white" transform="translate(157.749 449)"/>
</clipPath>
<clipPath id="clip1_197_99">
<rect width="196" height="148.189" fill="white" transform="translate(157.749 449)"/>
</clipPath>
</defs>
</svg>
