<svg width="476" height="786" viewBox="0 0 476 786" fill="none" xmlns="http://www.w3.org/2000/svg">
<g clip-path="url(#clip0_176_512)">
<g clip-path="url(#clip1_176_512)">
<path d="M86.9297 16.7143C96.5345 11.8058 106.682 11.5524 117.15 15.7188C127.798 19.9572 138.925 28.8568 149.706 42.484C171.246 69.7073 190.39 114.534 201.105 172.941C203.797 197.451 207.515 221.975 210.903 244.675C214.315 267.526 217.378 288.445 218.81 305.946C220.262 323.711 219.917 336.908 217.187 344.843C215.87 348.67 214.243 350.541 212.698 351.426C211.21 352.28 208.76 352.81 204.48 351.727L201.386 350.945L199.008 353.076C195.786 355.965 194.143 356.089 193.632 356.04C193.139 355.992 191.842 355.603 189.746 352.806C187.689 350.061 185.529 345.873 183.134 340.141C180.765 334.471 178.317 327.671 175.575 319.89C164.678 288.966 149.647 243.897 118.755 204.259L118.539 203.982L118.293 203.733L115.425 200.807C55.8798 139.71 39.4621 98.8817 41.6354 71.5833C43.8011 44.3815 64.7521 28.0479 86.9297 16.7143Z" fill="#8BCDE5" stroke="#0E6B96" stroke-width="12"/>
<path d="M307.345 63.0001C329.956 36.7664 354.435 28.2455 371.981 33.7082C390.948 39.6138 410.17 56.4775 412.328 84.658C414.514 113.194 399.378 155.113 344.924 210.922L344.816 211.034L344.714 211.149C311.199 249.217 298.305 291.6 289.629 320.998C287.446 328.398 285.571 334.835 283.702 340.279C281.814 345.774 280.078 349.805 278.313 352.52C276.553 355.23 275.28 355.846 274.561 355.996C273.785 356.157 271.966 356.128 268.378 353.876L266.01 352.389L263.352 353.247C259.04 354.637 256.325 354.41 254.592 353.718C252.907 353.044 251.211 351.556 249.678 348.449C246.419 341.847 245.025 330.25 245.345 314.045C245.977 281.971 253.048 236.878 258.547 190.113C265.454 131.368 284.962 88.9707 307.345 63.0001Z" fill="#87CFE5" stroke="#0E6B96" stroke-width="12"/>
<path d="M237.5 334.426C339.975 334.426 423 416.937 423 518.661C423 620.384 339.975 702.895 237.5 702.895C135.025 702.895 52.0005 620.384 52.0005 518.661C52.0005 416.937 135.025 334.426 237.5 334.426Z" fill="#86D0E3" stroke="#0C74AB" stroke-width="7"/>
<path d="M364.501 646.824C330.001 685.874 266.001 701.394 241.001 698.89C134.001 704.898 53.5005 610.673 56.0005 517.159C57.5664 458.584 43.0005 596.76 182.001 655.836C256.501 693.383 364.501 646.824 364.501 646.824Z" fill="#37B4CA"/>
<path opacity="0.77" d="M173.5 393.501L182.5 381.987L195 370.972L202 366.967L208.5 364.965L212 368.469L215 372.474L217 378.482L208.5 380.985L196 387.994L187.5 393.501L179 401.511L175 397.006L173.5 393.501Z" fill="#004F80"/>
<path opacity="0.7" d="M264.5 357.956H272.5L280 359.458L288 362.462L298 366.968L306.5 371.974L305 379.483L295 376.98L283.5 374.477L274.5 372.975H267.5H259.5V365.966L261 360.96L264.5 357.956Z" fill="#014C83"/>
<g clip-path="url(#clip2_176_512)">
<path d="M199 700.891C217.453 700.891 227.418 706.675 232.985 714.199C238.752 721.994 240.5 732.567 240.5 743.445C240.5 754.689 239.623 763.351 232.348 769.732C224.743 776.403 209.12 781.494 176.5 781.494C154.106 781.494 138.008 780.424 126.449 778.523C114.815 776.61 108.241 773.923 104.485 771.045C100.993 768.369 99.6442 765.306 99.1137 761.46C98.8339 759.432 98.7896 757.202 98.8315 754.653C98.8709 752.258 99.0004 749.257 99.0004 746.449C99.0004 742.955 101.71 738.187 108.265 732.613C114.594 727.232 123.607 721.877 134.018 717.118C154.892 707.577 180.368 700.891 199 700.891Z" fill="#87CFE5" stroke="#0178B2" stroke-width="9"/>
<path d="M235.614 730.881C246.614 773.936 213.16 778.991 174.5 778.991C135.84 778.991 114 775.987 108.5 768.978C95.5 762.97 149.114 767.928 177.114 764.925C262.114 764.925 216 687.875 235.614 730.881Z" fill="#31A7BA"/>
</g>
<g clip-path="url(#clip3_176_512)">
<path d="M291.001 700.891C272.548 700.891 262.583 706.675 257.016 714.199C251.249 721.994 249.501 732.567 249.501 743.445C249.501 754.689 250.378 763.351 257.653 769.732C265.258 776.403 280.881 781.494 313.501 781.494C335.895 781.494 351.993 780.424 363.552 778.523C375.186 776.61 381.76 773.923 385.516 771.045C389.008 768.369 390.357 765.306 390.887 761.46C391.167 759.432 391.211 757.202 391.169 754.653C391.13 752.258 391.001 749.257 391.001 746.449C391.001 742.955 388.291 738.187 381.736 732.613C375.407 727.232 366.394 721.877 355.983 717.118C335.109 707.577 309.633 700.891 291.001 700.891Z" fill="#87CFE5" stroke="#0178B2" stroke-width="9"/>
<path d="M254.387 730.881C243.387 773.936 276.841 778.991 315.501 778.991C354.161 778.991 376.001 775.987 381.501 768.978C394.501 762.97 340.887 767.928 312.887 764.925C227.887 764.925 274.001 687.875 254.387 730.881Z" fill="#31A7BA"/>
</g>
<g clip-path="url(#clip4_176_512)">
<path d="M193.5 431.549C218.481 431.549 239.5 455.778 239.5 485.618C239.5 502.455 236.057 515.942 228.772 525.17C221.589 534.268 210.302 539.687 193.5 539.687C168.615 539.687 149 516.052 149 485.618C149 455.184 168.615 431.549 193.5 431.549Z" fill="#FEFEFE" stroke="#0F79AB" stroke-width="6"/>
<path d="M288.176 404.515C301.85 404.515 314.49 412.127 323.821 424.786C333.149 437.44 339 454.951 339 474.104C339 495.678 335.187 513.118 327.027 525.086C319.002 536.858 306.53 543.692 288.176 543.692C274.506 543.692 262.294 536.238 253.386 523.693C244.469 511.135 239 493.617 239 474.104C239 454.59 244.469 437.073 253.386 424.514C262.294 411.97 274.506 404.515 288.176 404.515Z" fill="#FEFEFE" stroke="#0F79AB" stroke-width="6"/>
<path d="M241 549.7C252.046 549.7 261 540.062 261 528.172C261 516.283 252.046 506.645 241 506.645C229.955 506.645 221 516.283 221 528.172C221 540.062 229.955 549.7 241 549.7Z" fill="#ED6F7A"/>
<path d="M273.5 489.624C273.5 500.683 267.508 509.649 259.5 509.649C251.492 509.649 245 500.683 245 489.624C245 478.564 251.492 469.598 259.5 469.598C268.5 472.101 273.5 478.109 273.5 489.624Z" fill="#2B2A28"/>
<path d="M221.5 509.649C229.509 509.649 236 500.683 236 489.624C236 478.564 229.509 469.598 221.5 469.598C213.492 469.598 207 478.564 207 489.624C207 500.683 213.492 509.649 221.5 509.649Z" fill="#2B2A28"/>
<path d="M271 479.11C272 482.615 268.761 485.619 266 485.619C263.239 485.619 261 483.153 261 480.112C261 477.07 263.239 474.604 266 474.604C268.761 474.604 271 476.069 271 479.11Z" fill="#F9FAFB"/>
<path d="M233 479.11C234 482.615 230.762 485.619 228 485.619C225.239 485.619 223 483.153 223 480.112C223 477.07 225.239 474.604 228 474.604C230.762 474.604 233 476.069 233 479.11Z" fill="#F9FAFB"/>
</g>
<g clip-path="url(#clip5_176_512)">
<path d="M416.914 498.138C411.66 498.815 409.535 500.708 408.479 503.074C407.193 505.952 407.078 510.361 407.895 516.856C409.452 529.238 414.31 547.96 414.31 569.225V569.533L414.256 569.837C411.485 585.473 409.086 599.417 409.865 611.363C410.613 622.825 414.265 632.077 423.243 639.009C436.419 641.259 446.314 640.348 453.677 637.453C461.12 634.527 466.256 629.467 469.691 622.97C476.696 609.715 476.63 590.43 473.362 571.835L473.336 571.692L473.323 571.549C471.706 553.929 462.361 535.424 450.696 521.267C444.885 514.214 438.594 508.358 432.569 504.296C426.567 500.25 421.159 498.202 416.914 498.138Z" fill="#87CFE5" stroke="#0076B8" stroke-width="7"/>
<path d="M435.182 604.062C435.124 603.776 435.186 603.471 435.342 603.215C435.5 602.959 435.74 602.774 436.021 602.698C436.301 602.621 436.602 602.659 436.867 602.8C437.132 602.941 437.34 603.173 437.434 603.449C437.635 604.043 437.828 604.619 438.02 605.215C441.816 615.672 442.104 628.081 439.099 639.053C438.946 639.679 438.797 640.273 438.633 640.897C436.416 640.167 434.2 639.437 431.983 638.707C432.209 638.143 432.421 637.608 432.637 637.045C436.682 627.129 437.86 616.621 435.534 605.852C435.42 605.25 435.306 604.665 435.182 604.062Z" fill="#0074AB"/>
<path d="M459.025 602.993C458.992 602.698 459.083 602.393 459.265 602.146C459.448 601.899 459.706 601.73 459.996 601.675C460.286 601.62 460.588 601.682 460.849 601.845C461.108 602.008 461.305 602.259 461.383 602.544C461.522 603.064 461.653 603.555 461.786 604.077C464.347 613.185 464.81 623.351 463.887 632.798C463.844 633.334 463.803 633.846 463.758 634.382C463.679 635.338 463.223 636.193 462.448 636.753C461.675 637.312 460.646 637.531 459.63 637.366C458.614 637.202 457.706 636.67 457.148 635.897C456.588 635.121 456.424 634.165 456.65 633.234C456.772 632.722 456.89 632.235 457.01 631.725C459.282 622.717 460.27 613.854 459.187 604.54C459.134 604.015 459.084 603.518 459.025 602.993Z" fill="#007BA4"/>
</g>
<path d="M337.912 544.256L337.797 544.574L337.797 544.907C337.796 556.088 329.615 578.443 310.766 596.579C292.106 614.533 263.121 628.24 221.32 622.791C186.12 611.448 170.905 593.712 163.615 578.342C159.937 570.587 158.25 563.38 157.082 557.745C156.691 555.861 156.346 554.096 156 552.556C159.946 554.639 164.717 557.007 170.133 559.411C192.473 569.328 226.454 580.19 258.588 573.608C288.779 573.517 311.666 561.524 325.926 552.29C329.508 549.97 332.563 547.813 335.038 546.068C336.169 545.27 337.152 544.58 338 544C337.971 544.083 337.943 544.169 337.912 544.256Z" fill="#D20223" stroke="#076FA2" stroke-width="6"/>
<path d="M213.463 573.202L213.526 573.219L213.59 573.228L224.205 574.813L224.26 574.821L224.315 574.824L233.546 575.353L233.581 575.355L241 575.355L241 596.401L240.612 600.166L237.008 603.607L233.691 605.505L228.934 606L224.57 606L219.875 604.534L215.127 601.074L210.34 595.096L207.232 586.457L205 577.767L205 571L213.463 573.202Z" fill="#FEFEFE" stroke="#0578A5" stroke-width="3"/>
<path d="M304.294 592.254C297.446 598.239 277.361 606.884 260.47 610.542C243.124 611.539 244.493 614.354 244.493 609.212C255.449 598.239 267.318 589.594 307.489 588.264C311.597 588.264 308.858 588.264 304.294 592.254Z" fill="#FF1863"/>
<path d="M267.576 573.055L267.514 573.072L267.449 573.083L257.937 574.593L257.882 574.602L257.828 574.605L249.555 575.109L249.522 575.111L243 575.111L243 595.001L243.341 598.518L246.519 601.743L249.456 603.531L253.688 604L257.575 604L261.749 602.613L265.972 599.341L270.234 593.68L273.006 585.482L275 577.226L275 571L267.576 573.055Z" fill="#FEFEFE" stroke="#0875A4" stroke-width="3"/>
<path fill-rule="evenodd" clip-rule="evenodd" d="M224.214 608.286C219.872 598.73 130.343 616.345 95.6953 632.085C77.7892 640.22 69.0864 659.669 76.2738 675.491C83.4622 691.314 103.835 697.555 121.742 689.421C156.389 673.681 228.554 617.843 224.214 608.286Z" fill="#FF9425"/>
<path fill-rule="evenodd" clip-rule="evenodd" d="M224.344 608.663C224.289 608.472 224.209 608.264 224.209 608.264C224.209 608.264 74.9274 671.603 76.2747 675.49C81.9643 691.912 103.878 697.649 121.743 689.42C189.02 658.428 226.267 615.393 224.344 608.663Z" fill="#FF8600"/>
<path d="M113.942 690.141C112.446 683.491 110.564 676.974 106.742 671.335" stroke="#EF6A00" stroke-width="5" stroke-miterlimit="10" stroke-linecap="round" stroke-linejoin="round"/>
<path d="M144.352 675.539C145.155 670.448 142.777 666.343 139.931 662.257" stroke="#EF6A00" stroke-width="5" stroke-miterlimit="10" stroke-linecap="round" stroke-linejoin="round"/>
<path d="M179.896 653.004C177.659 647.069 175.169 642.452 172.529 638.603" stroke="#EF6A00" stroke-width="5" stroke-miterlimit="10" stroke-linecap="round" stroke-linejoin="round"/>
<path fill-rule="evenodd" clip-rule="evenodd" d="M82.3816 673.303C82.3816 673.303 56.5015 672.954 47.5201 674.924C38.5779 676.886 33.7926 689.819 35.9574 693.858C38.9288 699.398 47.9917 701.968 56.0596 696.764C63.6595 691.863 82.3816 673.303 82.3816 673.303Z" fill="#129447"/>
<path fill-rule="evenodd" clip-rule="evenodd" d="M82.3604 673.46C82.3604 673.46 71.5478 670.993 62.5616 664.838C57.5622 661.415 55.7886 653.862 51.8036 651.912C47.0272 649.577 41.0177 649.06 39.0502 653.75C37.0824 658.438 40.2588 663.729 45.1831 669.412C53.8024 679.359 76.9548 674.717 82.3604 673.46Z" fill="#00AA63"/>
<path fill-rule="evenodd" clip-rule="evenodd" d="M82.5284 672.24C82.5284 672.24 76.1611 666.094 70.1319 657.268C65.8588 651.014 63.4035 641.843 63.2935 641.215C61.7907 632.613 53.275 632.744 50.1059 639.586C47.3464 645.545 48.9629 652.212 51.9416 656.827C59.6226 668.727 78.8812 675.411 82.5284 672.24Z" fill="#129447"/>
<path fill-rule="evenodd" clip-rule="evenodd" d="M82.5274 672.241C82.5274 672.241 78.4069 681.727 77.6944 692.146C77.2978 697.943 82.3466 704.055 81.3923 708.177C80.2493 713.117 76.8257 717.782 71.728 716.201C66.6304 714.62 63.6361 707.022 62.8304 701.755C60.8875 689.07 77.674 673.896 82.5274 672.241Z" fill="#00AA63"/>
<path fill-rule="evenodd" clip-rule="evenodd" d="M82.5282 672.242C82.5282 672.242 82.7269 683.919 85.9228 693.963C88.5121 702.103 92.8268 707.025 93.577 709.7C94.9569 714.619 92.172 719.014 86.8361 718.752C81.4989 718.493 75.7705 711.079 74.2902 706.977C69.7297 694.343 77.8355 676.226 82.5282 672.242Z" fill="#129447"/>
<path d="M110.37 644.945C110.611 638.855 108.2 633.105 106.416 629.511" stroke="#EF6A00" stroke-width="5" stroke-miterlimit="10" stroke-linecap="round" stroke-linejoin="round"/>
<path d="M149.534 630.848C149.637 626.247 147.834 621.509 146.506 618.504" stroke="#EF6A00" stroke-width="5" stroke-miterlimit="10" stroke-linecap="round" stroke-linejoin="round"/>
<path d="M188.147 617.253C188.037 614.689 186.743 611.829 185.808 609.994" stroke="#EF6A00" stroke-width="5" stroke-miterlimit="10" stroke-linecap="round" stroke-linejoin="round"/>
<path d="M142.694 620.673C143.243 620.523 142.656 623.067 143.93 623.361C145.393 623.697 147.34 623.803 147.469 624.985C147.534 625.575 147.047 628.634 147.719 629.874C148.443 631.21 148.011 631.632 148.554 631.691C149.62 631.806 149.368 637.017 152.177 637.18C153.38 637.249 155.781 635.431 156.232 635.739C157.168 636.382 159.312 635.051 160.477 633.847C161.403 632.89 161.17 631.413 161.605 630.228C161.835 629.603 161.881 628.913 162.067 628.31C162.158 628.021 162.417 627.838 162.67 627.823C164.282 627.723 165.132 630.82 166.245 631.551C166.754 631.885 167.186 632.36 167.764 632.61C168.847 633.078 170.199 632.628 171.441 632.627C172.725 632.627 173.899 632.583 175.259 632.166C176.023 631.931 177.329 631.732 178.635 630.978C179.95 630.219 180.254 628.562 180.689 627.377C181.125 626.19 180.845 625.471 181.355 625.235C182.623 624.649 184.02 626.48 185.342 627.114C186.723 627.777 188.073 628.338 189.453 628.638C190.73 628.915 192.516 628.573 196.75 628.124C199.171 627.868 201.926 627.455 203.581 627.108C205.032 626.803 206.649 625.804 207.549 624.719C208.535 623.53 209.536 622.412 210.17 621.087C210.75 619.873 212.092 618.757 212.368 617.544C212.645 616.324 213.551 615.401 214.032 614.195C214.529 612.946 214.443 611.27 214.614 609.95C214.612 608.708 214.687 607.743 214.56 607.133C214.466 606.813 214.311 606.475 214.151 606.126" stroke="#C65104" stroke-width="2" stroke-linecap="round"/>
<path d="M214.559 605.289C214.751 611.64 212.361 620.358 207.143 625.674C200.113 628.905 189.025 628.965 185.247 626.957C178.75 623.503 186.85 620.951 180.39 610.455C186.016 608.456 204.894 606.804 214.559 605.289Z" fill="#934511"/>
<path d="M188.816 611.535C190.622 617.859 180.784 627.728 177.447 631.565C172.766 633.716 165.776 631.947 163.854 629.061C158.524 621.056 157.437 617.78 160.525 614.634C165.449 614.571 191.026 605.568 188.816 611.535Z" fill="#934511"/>
<path d="M168.588 615.881C170.393 622.204 160.555 632.073 157.218 635.91C152.538 638.061 145.547 636.292 143.625 633.406C138.295 625.401 137.208 622.125 140.296 618.979C145.22 618.916 170.797 609.913 168.588 615.881Z" fill="#934511"/>
<path d="M137.664 656.634C137.557 656.364 137.338 656.142 137.066 656.014C136.795 655.887 136.492 655.864 136.216 655.954C135.94 656.043 135.709 656.24 135.564 656.503C135.42 656.766 135.373 657.074 135.445 657.356C135.602 657.962 135.756 658.549 135.922 659.153C138.469 669.97 145.02 680.493 153.538 688.013C154.009 688.452 154.458 688.866 154.937 689.297C156.392 687.472 157.846 685.648 159.301 683.824C158.803 683.477 158.334 683.146 157.844 682.793C149.034 676.726 142.298 668.593 138.35 658.322C138.116 657.757 137.891 657.206 137.664 656.634Z" fill="#0074AB"/>
<path d="M117.135 668.806C117.001 668.543 116.758 668.338 116.47 668.231C116.182 668.125 115.874 668.125 115.602 668.238C115.328 668.351 115.11 668.569 114.982 668.847C114.853 669.126 114.826 669.443 114.918 669.724C115.085 670.235 115.245 670.717 115.419 671.226C118.26 680.238 123.437 688.984 129.38 696.371C129.709 696.796 130.024 697.201 130.355 697.623C130.943 698.379 131.793 698.843 132.748 698.886C133.701 698.93 134.681 698.549 135.441 697.855C136.201 697.161 136.67 696.22 136.712 695.267C136.757 694.312 136.371 693.424 135.672 692.769C135.289 692.409 134.924 692.066 134.545 691.706C127.715 685.425 122.038 678.564 117.846 670.188C117.603 669.72 117.374 669.278 117.135 668.806Z" fill="#007BA4"/>
<path d="M93.6335 557.686C98.3989 555.372 101.212 555.79 103.391 557.187C106.042 558.887 108.551 562.507 111.422 568.381C116.896 579.578 123.079 597.881 134.717 615.647L134.886 615.904L135.097 616.129C145.972 627.673 155.61 638.007 161.496 648.414C167.143 658.399 169.153 668.13 165.436 678.841C155.646 687.941 146.87 692.602 139.127 694.218C131.299 695.852 124.234 694.441 117.805 690.894C104.691 683.66 94.1924 667.512 86.7495 650.187L86.6917 650.054L86.6237 649.927C78.3335 634.32 76.0234 613.74 78.0331 595.521C79.0335 586.444 81.092 578.105 83.9087 571.408C86.7138 564.74 90.1177 560.065 93.6335 557.686Z" fill="#87CFE5" stroke="#0076B8" stroke-width="7"/>
<path d="M136.322 656.188C136.215 655.917 135.996 655.696 135.725 655.568C135.453 655.441 135.15 655.418 134.874 655.507C134.598 655.597 134.367 655.794 134.222 656.057C134.078 656.32 134.032 656.627 134.103 656.909C134.26 657.516 134.414 658.103 134.58 658.706C137.127 669.523 143.678 680.047 152.196 687.567C152.667 688.006 153.116 688.42 153.595 688.851C155.05 687.026 156.504 685.202 157.959 683.377C157.461 683.03 156.992 682.7 156.503 682.347C147.692 676.28 140.956 668.147 137.008 657.876C136.774 657.311 136.549 656.76 136.322 656.188Z" fill="#0074AB"/>
<path d="M115.794 668.36C115.659 668.096 115.416 667.891 115.129 667.785C114.841 667.678 114.532 667.679 114.26 667.792C113.987 667.905 113.768 668.122 113.64 668.401C113.511 668.68 113.484 668.997 113.576 669.278C113.743 669.788 113.903 670.27 114.077 670.78C116.919 679.791 122.095 688.538 128.038 695.925C128.367 696.349 128.682 696.755 129.013 697.177C129.602 697.933 130.452 698.397 131.406 698.44C132.359 698.484 133.339 698.102 134.099 697.409C134.859 696.715 135.328 695.773 135.371 694.82C135.415 693.866 135.03 692.978 134.33 692.323C133.947 691.963 133.582 691.62 133.203 691.26C126.374 684.979 120.696 678.117 116.505 669.741C116.261 669.274 116.032 668.832 115.794 668.36Z" fill="#007BA4"/>
</g>
</g>
<defs>
<clipPath id="clip0_176_512">
<rect width="476" height="786" fill="white"/>
</clipPath>
<clipPath id="clip1_176_512">
<rect width="476" height="786" fill="white"/>
</clipPath>
<clipPath id="clip2_176_512">
<rect width="151" height="90.1148" fill="white" transform="translate(94 695.885)"/>
</clipPath>
<clipPath id="clip3_176_512">
<rect width="151" height="90.1148" fill="white" transform="matrix(-1 0 0 1 396.001 695.885)"/>
</clipPath>
<clipPath id="clip4_176_512">
<rect width="196" height="148.189" fill="white" transform="translate(146 401.511)"/>
</clipPath>
<clipPath id="clip5_176_512">
<rect width="76" height="149.19" fill="white" transform="matrix(-1 0 0 1 479 494.63)"/>
</clipPath>
</defs>
</svg>
