<svg width="476" height="786" viewBox="0 0 476 786" fill="none" xmlns="http://www.w3.org/2000/svg">
<g clip-path="url(#clip0_176_704)">
<path d="M86.9297 16.7143C96.5345 11.8058 106.682 11.5524 117.15 15.7188C127.798 19.9572 138.925 28.8568 149.706 42.484C171.246 69.7073 190.39 114.534 201.105 172.941C203.797 197.451 207.515 221.975 210.903 244.675C214.315 267.526 217.378 288.445 218.81 305.946C220.262 323.711 219.917 336.908 217.187 344.843C215.87 348.67 214.243 350.541 212.698 351.426C211.21 352.28 208.76 352.81 204.48 351.727L201.386 350.945L199.008 353.076C195.786 355.965 194.143 356.089 193.632 356.04C193.139 355.992 191.842 355.603 189.746 352.806C187.689 350.061 185.529 345.873 183.134 340.141C180.765 334.471 178.317 327.671 175.575 319.89C164.678 288.966 149.647 243.897 118.755 204.259L118.539 203.982L118.293 203.733L115.425 200.807C55.8798 139.71 39.4621 98.8817 41.6354 71.5833C43.8011 44.3815 64.7521 28.0479 86.9297 16.7143Z" fill="#8BCDE5" stroke="#0E6B96" stroke-width="12"/>
<path d="M307.345 63.0001C329.956 36.7664 354.435 28.2455 371.981 33.7082C390.948 39.6138 410.17 56.4775 412.328 84.658C414.514 113.194 399.378 155.113 344.924 210.922L344.816 211.034L344.714 211.149C311.199 249.217 298.305 291.6 289.629 320.998C287.446 328.398 285.571 334.835 283.702 340.279C281.814 345.774 280.078 349.805 278.313 352.52C276.553 355.23 275.28 355.846 274.561 355.996C273.785 356.157 271.966 356.128 268.378 353.876L266.01 352.389L263.352 353.247C259.04 354.637 256.325 354.41 254.592 353.718C252.907 353.044 251.211 351.556 249.678 348.449C246.419 341.847 245.025 330.25 245.345 314.045C245.977 281.971 253.048 236.878 258.547 190.113C265.454 131.368 284.962 88.9707 307.345 63.0001Z" fill="#87CFE5" stroke="#0E6B96" stroke-width="12"/>
<path d="M237.5 334.426C339.975 334.426 423 416.937 423 518.661C423 620.384 339.975 702.895 237.5 702.895C135.025 702.895 52.0005 620.384 52.0005 518.661C52.0005 416.937 135.025 334.426 237.5 334.426Z" fill="#86D0E3" stroke="#0C74AB" stroke-width="7"/>
<path d="M364.501 646.824C330.001 685.874 266.001 701.394 241.001 698.89C134.001 704.898 53.5005 610.673 56.0005 517.159C57.5664 458.584 43.0005 596.76 182.001 655.836C256.501 693.383 364.501 646.824 364.501 646.824Z" fill="#37B4CA"/>
<path opacity="0.77" d="M173.5 393.501L182.5 381.987L195 370.972L202 366.967L208.5 364.965L212 368.469L215 372.474L217 378.482L208.5 380.985L196 387.994L187.5 393.501L179 401.511L175 397.006L173.5 393.501Z" fill="#004F80"/>
<path opacity="0.7" d="M264.5 357.956H272.5L280 359.458L288 362.462L298 366.968L306.5 371.974L305 379.483L295 376.98L283.5 374.477L274.5 372.975H267.5H259.5V365.966L261 360.96L264.5 357.956Z" fill="#014C83"/>
<g clip-path="url(#clip1_176_704)">
<path d="M199 700.891C217.453 700.891 227.418 706.675 232.985 714.199C238.752 721.994 240.5 732.567 240.5 743.445C240.5 754.689 239.623 763.351 232.348 769.732C224.743 776.403 209.12 781.494 176.5 781.494C154.106 781.494 138.008 780.424 126.449 778.523C114.815 776.61 108.241 773.923 104.485 771.045C100.993 768.369 99.6442 765.306 99.1137 761.46C98.8339 759.432 98.7896 757.202 98.8315 754.653C98.8709 752.258 99.0004 749.257 99.0004 746.449C99.0004 742.955 101.71 738.187 108.265 732.613C114.594 727.232 123.607 721.877 134.018 717.118C154.892 707.577 180.368 700.891 199 700.891Z" fill="#87CFE5" stroke="#0178B2" stroke-width="9"/>
<path d="M235.614 730.881C246.614 773.936 213.16 778.991 174.5 778.991C135.84 778.991 114 775.987 108.5 768.978C95.5 762.97 149.114 767.928 177.114 764.925C262.114 764.925 216 687.875 235.614 730.881Z" fill="#31A7BA"/>
</g>
<g clip-path="url(#clip2_176_704)">
<path d="M296.001 700.891C277.548 700.891 267.583 706.675 262.016 714.199C256.249 721.994 254.501 732.567 254.501 743.445C254.501 754.689 255.378 763.351 262.653 769.732C270.258 776.403 285.881 781.494 318.501 781.494C340.895 781.494 356.993 780.424 368.552 778.523C380.186 776.61 386.76 773.923 390.516 771.045C394.008 768.369 395.357 765.306 395.887 761.46C396.167 759.432 396.211 757.202 396.169 754.653C396.13 752.258 396.001 749.257 396.001 746.449C396.001 742.955 393.291 738.187 386.736 732.613C380.407 727.232 371.394 721.877 360.983 717.118C340.109 707.577 314.633 700.891 296.001 700.891Z" fill="#87CFE5" stroke="#0178B2" stroke-width="9"/>
<path d="M259.387 730.881C248.387 773.936 281.841 778.991 320.501 778.991C359.161 778.991 381.001 775.987 386.501 768.978C399.501 762.97 345.887 767.928 317.887 764.925C232.887 764.925 279.001 687.875 259.387 730.881Z" fill="#31A7BA"/>
</g>
<g clip-path="url(#clip3_176_704)">
<path d="M423 495.499C417.704 495.403 415.326 496.966 413.935 499.152C412.244 501.812 411.487 506.157 411.349 512.702C411.085 525.179 413.162 544.409 410.062 565.447L410.017 565.752L409.92 566.045C404.899 581.11 400.493 594.555 399.523 606.487C398.592 617.935 400.856 627.622 408.728 635.788C421.435 639.934 431.357 640.475 439.064 638.685C446.854 636.874 452.672 632.617 457.017 626.69C465.88 614.598 468.625 595.509 468.103 576.637L468.098 576.492L468.107 576.348C469.075 558.68 462.527 539.011 453.051 523.305C448.329 515.48 442.959 508.77 437.59 503.873C432.243 498.995 427.19 496.18 423 495.499Z" fill="#87CFE5" stroke="#0076B8" stroke-width="7"/>
<path d="M425.634 602.954C425.618 602.663 425.723 602.37 425.916 602.139C426.109 601.909 426.374 601.761 426.662 601.727C426.951 601.691 427.243 601.773 427.485 601.951C427.726 602.129 427.898 602.39 427.951 602.676C428.064 603.292 428.17 603.891 428.274 604.509C430.505 615.408 428.981 627.726 424.409 638.143C424.166 638.739 423.932 639.305 423.679 639.898C421.592 638.853 419.506 637.808 417.419 636.763C417.725 636.238 418.012 635.74 418.308 635.213C423.755 625.993 426.453 615.769 425.721 604.776C425.696 604.164 425.668 603.569 425.634 602.954Z" fill="#0074AB"/>
<path d="M449.377 605.371C449.388 605.075 449.523 604.786 449.739 604.568C449.956 604.351 450.236 604.221 450.531 604.209C450.826 604.197 451.116 604.303 451.349 604.502C451.582 604.701 451.74 604.978 451.776 605.271C451.838 605.806 451.896 606.311 451.951 606.847C453.158 616.23 452.134 626.355 449.844 635.567C449.723 636.091 449.608 636.592 449.485 637.115C449.267 638.049 448.692 638.829 447.843 639.27C446.997 639.711 445.947 639.777 444.966 639.466C443.985 639.156 443.164 638.497 442.725 637.65C442.284 636.801 442.261 635.832 442.62 634.944C442.816 634.455 443.004 633.99 443.196 633.503C446.757 624.922 449.027 616.299 449.312 606.925C449.337 606.399 449.359 605.9 449.377 605.371Z" fill="#007BA4"/>
</g>
<path d="M347.822 532.667L347.696 533.087L347.696 533.525C347.695 548.262 338.798 577.727 318.297 601.632C298.003 625.295 266.479 643.361 221.017 636.179C182.734 621.23 166.186 597.852 158.257 577.594C154.257 567.373 152.423 557.874 151.151 550.446C150.727 547.964 150.351 545.637 149.975 543.607C154.266 546.353 159.456 549.474 165.346 552.643C189.643 565.713 226.6 580.03 261.549 571.354C294.385 571.235 319.277 555.428 334.786 543.257C338.682 540.199 342.004 537.356 344.696 535.056C345.926 534.005 346.995 533.095 347.917 532.33C347.886 532.44 347.856 532.553 347.822 532.667Z" fill="#D20223" stroke="#076FA2" stroke-width="6"/>
<path d="M148.199 533.981C147.666 533.392 146.921 533.041 146.129 533.004C145.337 532.966 144.563 533.246 143.977 533.782C143.391 534.317 143.04 535.065 143.003 535.859C142.966 536.654 143.245 537.431 143.779 538.02C146.393 540.902 149.175 543.631 152.096 546.197C206.535 591.972 291.298 585.306 344.212 540.893C347.187 538.411 350.021 535.86 352.807 533.156C353.377 532.603 353.703 531.845 353.717 531.05C353.73 530.254 353.427 529.486 352.877 528.914C352.326 528.342 351.57 528.014 350.778 528C349.985 527.987 349.22 528.291 348.65 528.844C345.974 531.442 343.25 533.893 340.392 536.278C289.697 579.061 207.378 585.128 156.033 541.682C153.277 539.261 150.657 536.691 148.199 533.981Z" fill="#076FA2"/>
<path d="M212.41 574.963L212.478 574.979L212.548 574.988L224.005 576.488L224.064 576.496L224.124 576.498L234.087 576.998L234.125 577L242.132 577L242.132 596.916L241.714 600.48L237.823 603.736L234.243 605.532L229.109 606L224.399 606L219.331 604.613L214.206 601.339L209.04 595.682L205.685 587.506L203.276 579.283L203.276 572.879L212.41 574.963Z" fill="#FEFEFE" stroke="#0578A5" stroke-width="3"/>
<path d="M270.905 574.723L270.837 574.739L270.767 574.749L260.401 576.104L260.341 576.112L260.283 576.115L251.268 576.567L251.231 576.569L244.125 576.569L244.125 594.422L244.496 597.58L247.959 600.474L251.159 602.08L255.771 602.501L260.007 602.501L264.556 601.255L269.158 598.319L273.801 593.237L276.822 585.878L278.995 578.467L278.995 572.878L270.905 574.723Z" fill="#FEFEFE" stroke="#0875A4" stroke-width="3"/>
<path d="M311.374 605.073C303.902 614.073 281.983 627.073 263.552 632.573C244.622 634.073 246.117 638.305 246.117 630.573C258.072 614.073 271.024 601.073 314.861 599.073C319.345 599.073 316.356 599.073 311.374 605.073Z" fill="#FF1863"/>
<g clip-path="url(#clip4_176_704)">
<path fill-rule="evenodd" clip-rule="evenodd" d="M230.045 616.765C226.292 606.95 135.858 619.11 100.318 632.735C81.9511 639.775 72.0832 658.685 78.2966 674.935C84.5107 691.186 104.466 698.662 122.834 691.621C158.374 677.997 233.797 626.579 230.045 616.765Z" fill="#FF9425"/>
<path fill-rule="evenodd" clip-rule="evenodd" d="M230.153 617.149C230.109 616.954 230.042 616.742 230.042 616.742C230.042 616.742 77.1888 670.967 78.2976 674.934C82.9793 691.692 104.504 698.758 122.835 691.621C191.871 664.737 231.663 623.992 230.153 617.149Z" fill="#FF8600"/>
<path d="M115.005 691.867C113.915 685.129 112.433 678.502 108.961 672.633" stroke="#EF6A00" stroke-width="5" stroke-miterlimit="10" stroke-linecap="round" stroke-linejoin="round"/>
<path d="M146.246 679.122C147.357 674.083 145.232 669.836 142.64 665.579" stroke="#EF6A00" stroke-width="5" stroke-miterlimit="10" stroke-linecap="round" stroke-linejoin="round"/>
<path d="M183.092 658.761C181.221 652.694 179.015 647.928 176.614 643.92" stroke="#EF6A00" stroke-width="5" stroke-miterlimit="10" stroke-linecap="round" stroke-linejoin="round"/>
<path fill-rule="evenodd" clip-rule="evenodd" d="M84.5263 673.12C84.5263 673.12 58.7153 671.197 49.6308 672.62C40.586 674.037 35.024 686.672 36.9395 690.84C39.5689 696.558 48.459 699.677 56.828 694.966C64.7116 690.53 84.5263 673.12 84.5263 673.12Z" fill="#129447"/>
<path fill-rule="evenodd" clip-rule="evenodd" d="M84.4946 673.275C84.4946 673.275 73.8517 670.151 65.256 663.454C60.474 659.729 59.1621 652.072 55.303 649.882C50.678 647.256 44.7101 646.375 42.4616 650.942C40.2134 655.508 43.0616 660.989 47.6317 666.969C55.6311 677.434 79.0225 674.202 84.4946 673.275Z" fill="#00AA63"/>
<path fill-rule="evenodd" clip-rule="evenodd" d="M84.7369 672.066C84.7369 672.066 78.7552 665.535 73.2725 656.349C69.3869 649.838 67.4932 640.524 67.4224 639.888C66.4439 631.201 57.9359 630.814 54.3573 637.459C51.241 643.247 52.4497 650.009 55.1424 654.802C62.0866 667.162 80.9038 675.014 84.7369 672.066Z" fill="#129447"/>
<path fill-rule="evenodd" clip-rule="evenodd" d="M84.7371 672.066C84.7371 672.066 80.047 681.296 78.703 691.667C77.9551 697.435 82.6233 703.852 81.4204 707.913C79.9795 712.781 76.279 717.235 71.2867 715.344C66.2945 713.454 63.7673 705.679 63.2829 700.366C62.114 687.57 79.791 673.426 84.7371 672.066Z" fill="#00AA63"/>
<path fill-rule="evenodd" clip-rule="evenodd" d="M84.7359 672.067C84.7359 672.067 84.2253 683.749 86.8053 693.982C88.8963 702.275 92.9032 707.456 93.4896 710.175C94.5681 715.176 91.5224 719.398 86.2113 718.813C80.8997 718.229 75.6331 710.47 74.4037 706.282C70.619 693.377 79.8111 675.764 84.7359 672.067Z" fill="#129447"/>
<path d="M114.185 646.479C114.795 640.409 112.738 634.515 111.175 630.814" stroke="#EF6A00" stroke-width="5" stroke-miterlimit="10" stroke-linecap="round" stroke-linejoin="round"/>
<path d="M154.132 634.772C154.514 630.18 153.003 625.335 151.86 622.251" stroke="#EF6A00" stroke-width="5" stroke-miterlimit="10" stroke-linecap="round" stroke-linejoin="round"/>
<path d="M193.501 623.533C193.546 620.964 192.428 618.026 191.607 616.136" stroke="#EF6A00" stroke-width="5" stroke-miterlimit="10" stroke-linecap="round" stroke-linejoin="round"/>
<path d="M99.244 549.964C104.141 547.941 106.924 548.53 109.013 550.059C111.556 551.919 113.84 555.689 116.35 561.734C121.134 573.258 126.193 591.926 136.732 610.39L136.884 610.657L137.082 610.895C147.235 623.093 156.228 634.009 161.471 644.767C166.501 655.09 167.916 664.937 163.556 675.417C153.231 683.915 144.188 688.04 136.361 689.185C128.448 690.342 121.482 688.501 115.281 684.566C102.63 676.538 93.1316 659.761 86.7547 641.994L86.7051 641.857L86.6449 641.726C79.3178 625.624 78.2617 604.915 81.3742 586.829C82.924 577.818 85.4852 569.608 88.7034 563.087C91.9083 556.594 95.5902 552.128 99.244 549.964Z" fill="#87CFE5" stroke="#0076B8" stroke-width="7"/>
<path d="M117.513 661.522C117.369 661.264 117.118 661.068 116.826 660.972C116.535 660.878 116.227 660.89 115.958 661.013C115.69 661.137 115.48 661.363 115.363 661.646C115.246 661.93 115.23 662.247 115.333 662.525C115.52 663.028 115.698 663.504 115.892 664.006C119.081 672.901 124.592 681.441 130.816 688.592C131.162 689.003 131.491 689.396 131.839 689.805C132.457 690.538 133.323 690.969 134.279 690.975C135.233 690.982 136.197 690.563 136.93 689.84C137.663 689.117 138.094 688.158 138.1 687.205C138.107 686.248 137.688 685.376 136.965 684.749C136.568 684.404 136.19 684.076 135.797 683.731C128.729 677.719 122.79 671.082 118.277 662.875C118.016 662.417 117.77 661.984 117.513 661.522Z" fill="#007BA4"/>
<path d="M139.818 647.707C139.739 647.427 139.545 647.184 139.289 647.028C139.032 646.873 138.734 646.818 138.45 646.879C138.165 646.939 137.915 647.11 137.743 647.356C137.572 647.603 137.494 647.904 137.535 648.192C137.627 648.811 137.719 649.412 137.819 650.029C139.214 661.053 144.619 672.209 152.298 680.584C152.72 681.07 153.123 681.53 153.554 682.009C155.192 680.348 156.831 678.687 158.47 677.026C158.011 676.628 157.579 676.25 157.13 675.848C149.008 668.886 143.166 660.089 140.322 649.459C140.148 648.872 139.983 648.3 139.818 647.707Z" fill="#0074AB"/>
</g>
<g clip-path="url(#clip5_176_704)">
<path d="M190.5 423.038C215.48 423.038 236.5 447.267 236.5 477.107C236.5 493.943 233.056 507.431 225.771 516.658C218.589 525.757 207.302 531.176 190.5 531.176C165.614 531.176 146 507.541 146 477.107C146 446.673 165.614 423.038 190.5 423.038Z" fill="#FEFEFE" stroke="#0F79AB" stroke-width="6"/>
<path d="M285.176 396.004C298.85 396.004 311.49 403.616 320.821 416.275C330.149 428.929 336 446.44 336 465.593C336 487.167 332.187 504.606 324.027 516.575C316.002 528.347 303.53 535.181 285.176 535.181C271.506 535.181 259.294 527.727 250.386 515.182C241.468 502.624 236 485.106 236 465.593C236 446.079 241.468 428.561 250.386 416.003C259.294 403.458 271.506 396.004 285.176 396.004Z" fill="#FEFEFE" stroke="#0F79AB" stroke-width="6"/>
<path d="M238 541.189C249.046 541.189 258 531.55 258 519.661C258 507.772 249.046 498.134 238 498.134C226.954 498.134 218 507.772 218 519.661C218 531.55 226.954 541.189 238 541.189Z" fill="#ED6F7A"/>
<path d="M270.5 481.112C270.5 492.172 264.508 501.138 256.5 501.138C248.492 501.138 242 492.172 242 481.112C242 470.053 248.492 461.087 256.5 461.087C265.5 463.59 270.5 469.598 270.5 481.112Z" fill="#2B2A28"/>
<path d="M218.5 501.138C226.508 501.138 233 492.172 233 481.112C233 470.053 226.508 461.087 218.5 461.087C210.492 461.087 204 470.053 204 481.112C204 492.172 210.492 501.138 218.5 501.138Z" fill="#2B2A28"/>
<path d="M268 470.599C269 474.103 265.761 477.107 263 477.107C260.239 477.107 258 474.642 258 471.6C258 468.559 260.239 466.093 263 466.093C265.761 466.093 268 467.558 268 470.599Z" fill="#F9FAFB"/>
<path d="M230 470.599C231 474.103 227.761 477.107 225 477.107C222.239 477.107 220 474.642 220 471.6C220 468.559 222.239 466.093 225 466.093C227.761 466.093 230 467.558 230 470.599Z" fill="#F9FAFB"/>
</g>
</g>
<defs>
<clipPath id="clip0_176_704">
<rect width="476" height="786" fill="white"/>
</clipPath>
<clipPath id="clip1_176_704">
<rect width="151" height="90.1148" fill="white" transform="translate(94 695.885)"/>
</clipPath>
<clipPath id="clip2_176_704">
<rect width="151" height="90.1148" fill="white" transform="matrix(-1 0 0 1 401.001 695.885)"/>
</clipPath>
<clipPath id="clip3_176_704">
<rect width="76" height="149.19" fill="white" transform="matrix(-0.98932 -0.145762 -0.145762 0.98932 484.935 501.078)"/>
</clipPath>
<clipPath id="clip4_176_704">
<rect width="156.179" height="209.026" fill="white" transform="matrix(-0.392207 -0.919801 -0.919568 0.393109 246.469 652.654)"/>
</clipPath>
<clipPath id="clip5_176_704">
<rect width="196" height="148.189" fill="white" transform="translate(143 393)"/>
</clipPath>
</defs>
</svg>
