<svg width="476" height="786" viewBox="0 0 476 786" fill="none" xmlns="http://www.w3.org/2000/svg">
<g clip-path="url(#clip0_158_1684)">
<path d="M86.9296 16.7143C96.5345 11.8058 106.682 11.5524 117.15 15.7188C127.798 19.9572 138.925 28.8568 149.706 42.484C171.246 69.7073 190.39 114.534 201.105 172.941C203.797 197.451 207.515 221.975 210.903 244.675C214.315 267.526 217.378 288.445 218.81 305.947C220.262 323.711 219.917 336.908 217.187 344.843C215.87 348.67 214.243 350.541 212.698 351.426C211.21 352.28 208.76 352.81 204.48 351.727L201.386 350.945L199.008 353.076C195.786 355.965 194.143 356.089 193.632 356.04C193.139 355.992 191.842 355.603 189.746 352.806C187.689 350.061 185.529 345.873 183.134 340.141C180.765 334.471 178.317 327.671 175.575 319.89C164.678 288.966 149.647 243.897 118.755 204.259L118.539 203.982L118.293 203.733L115.425 200.807C55.8798 139.71 39.4621 98.8817 41.6354 71.5833C43.8011 44.3815 64.7521 28.0479 86.9296 16.7143Z" fill="#8BCDE5" stroke="#0E6B96" stroke-width="12"/>
<path d="M307.345 63.0001C329.956 36.7664 354.435 28.2455 371.981 33.7082C390.948 39.6138 410.17 56.4775 412.328 84.658C414.514 113.194 399.378 155.113 344.924 210.922L344.816 211.034L344.714 211.149C311.199 249.217 298.305 291.6 289.629 320.998C287.446 328.398 285.571 334.835 283.702 340.279C281.814 345.774 280.078 349.805 278.313 352.52C276.553 355.23 275.28 355.846 274.561 355.996C273.785 356.157 271.966 356.128 268.378 353.876L266.01 352.389L263.352 353.247C259.04 354.637 256.325 354.41 254.592 353.718C252.907 353.044 251.211 351.556 249.678 348.449C246.419 341.847 245.025 330.25 245.345 314.045C245.977 281.971 253.048 236.878 258.547 190.113C265.454 131.368 284.962 88.9707 307.345 63.0001Z" fill="#87CFE5" stroke="#0E6B96" stroke-width="12"/>
<path d="M237.5 334.426C339.975 334.426 423 416.937 423 518.661C423 620.384 339.975 702.895 237.5 702.895C135.025 702.895 52.0005 620.384 52.0005 518.661C52.0005 416.937 135.025 334.426 237.5 334.426Z" fill="#86D0E3" stroke="#0C74AB" stroke-width="7"/>
<path d="M364.501 646.824C330.001 685.874 266.001 701.394 241.001 698.89C134.001 704.898 53.5005 610.673 56.0005 517.159C57.5664 458.584 43.0005 596.76 182.001 655.836C256.501 693.383 364.501 646.824 364.501 646.824Z" fill="#37B4CA"/>
<path opacity="0.77" d="M173.5 393.501L182.5 381.987L195 370.972L202 366.967L208.5 364.965L212 368.469L215 372.474L217 378.482L208.5 380.985L196 387.994L187.5 393.501L179 401.511L175 397.006L173.5 393.501Z" fill="#004F80"/>
<path opacity="0.7" d="M264.5 357.956H272.5L280 359.458L288 362.462L298 366.968L306.5 371.974L305 379.483L295 376.98L283.5 374.477L274.5 372.975H267.5H259.5V365.966L261 360.96L264.5 357.956Z" fill="#014C83"/>
<g clip-path="url(#clip1_158_1684)">
<path d="M199 700.891C217.453 700.891 227.418 706.675 232.985 714.199C238.752 721.994 240.5 732.567 240.5 743.445C240.5 754.689 239.623 763.351 232.348 769.732C224.743 776.403 209.12 781.494 176.5 781.494C154.106 781.494 138.008 780.424 126.449 778.523C114.815 776.61 108.241 773.923 104.485 771.045C100.993 768.369 99.6442 765.306 99.1137 761.46C98.8339 759.432 98.7896 757.202 98.8315 754.653C98.8709 752.258 99.0004 749.257 99.0004 746.449C99.0004 742.955 101.71 738.187 108.265 732.613C114.594 727.232 123.607 721.877 134.018 717.118C154.892 707.577 180.368 700.891 199 700.891Z" fill="#87CFE5" stroke="#0178B2" stroke-width="9"/>
<path d="M235.614 730.881C246.614 773.936 213.16 778.991 174.5 778.991C135.84 778.991 114 775.987 108.5 768.978C95.5 762.97 149.114 767.928 177.114 764.925C262.114 764.925 216 687.875 235.614 730.881Z" fill="#31A7BA"/>
</g>
<g clip-path="url(#clip2_158_1684)">
<path d="M291.001 700.891C272.548 700.891 262.583 706.675 257.016 714.199C251.249 721.994 249.501 732.567 249.501 743.445C249.501 754.689 250.378 763.351 257.653 769.732C265.258 776.403 280.881 781.494 313.501 781.494C335.895 781.494 351.993 780.424 363.552 778.523C375.186 776.61 381.76 773.923 385.516 771.045C389.008 768.369 390.357 765.306 390.887 761.46C391.167 759.432 391.211 757.202 391.169 754.653C391.13 752.258 391.001 749.257 391.001 746.449C391.001 742.955 388.291 738.187 381.736 732.613C375.407 727.232 366.394 721.877 355.983 717.118C335.109 707.577 309.633 700.891 291.001 700.891Z" fill="#87CFE5" stroke="#0178B2" stroke-width="9"/>
<path d="M254.387 730.881C243.387 773.936 276.841 778.991 315.501 778.991C354.161 778.991 376.001 775.987 381.501 768.978C394.501 762.97 340.887 767.928 312.887 764.925C227.887 764.925 274.001 687.875 254.387 730.881Z" fill="#31A7BA"/>
</g>
<g clip-path="url(#clip3_158_1684)">
<path d="M62.0857 498.138C67.3398 498.815 69.4645 500.708 70.5213 503.074C71.8072 505.952 71.9222 510.361 71.1053 516.856C69.548 529.238 64.6902 547.96 64.6902 569.225V569.533L64.7439 569.837C67.5145 585.473 69.9139 599.417 69.1346 611.363C68.3868 622.825 64.7351 632.077 55.7566 639.009C42.5809 641.259 32.686 640.348 25.323 637.453C17.8795 634.527 12.744 629.467 9.30938 622.97C2.30366 609.715 2.37047 590.43 5.63848 571.835L5.66387 571.692L5.67657 571.549C7.2941 553.929 16.6393 535.424 28.3035 521.267C34.1148 514.214 40.4062 508.358 46.4314 504.296C52.4325 500.25 57.8413 498.202 62.0857 498.138Z" fill="#87CFE5" stroke="#0076B8" stroke-width="7"/>
<path d="M43.8178 604.062C43.8759 603.776 43.8145 603.471 43.6576 603.215C43.5001 602.959 43.2598 602.774 42.9793 602.698C42.6988 602.621 42.398 602.659 42.1327 602.8C41.868 602.941 41.6605 603.173 41.5662 603.449C41.3647 604.043 41.1721 604.619 40.9797 605.215C37.1836 615.672 36.8963 628.081 39.901 639.053C40.0545 639.679 40.2034 640.273 40.3672 640.897C42.5837 640.167 44.8003 639.437 47.0168 638.707C46.7908 638.143 46.5791 637.608 46.3633 637.045C42.3183 627.129 41.1399 616.621 43.4664 605.852C43.5798 605.25 43.6941 604.665 43.8178 604.062Z" fill="#0074AB"/>
<path d="M19.9754 602.993C20.0078 602.698 19.9166 602.393 19.7347 602.146C19.5521 601.899 19.2939 601.73 19.0038 601.675C18.7137 601.62 18.4117 601.682 18.1514 601.845C17.8918 602.008 17.6951 602.259 17.6175 602.544C17.4783 603.064 17.3473 603.555 17.214 604.077C14.6529 613.185 14.1899 623.351 15.1129 632.798C15.1558 633.334 15.1967 633.846 15.2424 634.382C15.321 635.338 15.7769 636.193 16.5522 636.753C17.325 637.312 18.3538 637.531 19.3699 637.366C20.386 637.202 21.2939 636.67 21.8517 635.897C22.4119 635.121 22.5761 634.165 22.3505 633.234C22.2276 632.722 22.1097 632.235 21.9899 631.725C19.7184 622.717 18.7297 613.854 19.8133 604.54C19.8659 604.015 19.9165 603.518 19.9754 602.993Z" fill="#007BA4"/>
</g>
<path d="M347.822 532.667L347.696 533.087L347.696 533.525C347.695 548.262 338.798 577.727 318.297 601.632C298.003 625.295 266.479 643.361 221.017 636.179C182.734 621.23 166.186 597.852 158.257 577.594C154.257 567.373 152.423 557.874 151.151 550.446C150.727 547.964 150.351 545.637 149.975 543.607C154.266 546.353 159.456 549.474 165.346 552.643C189.643 565.713 226.6 580.03 261.549 571.354C294.385 571.235 319.277 555.428 334.786 543.257C338.682 540.199 342.004 537.356 344.696 535.056C345.926 534.005 346.995 533.095 347.917 532.33C347.886 532.44 347.856 532.553 347.822 532.667Z" fill="#D20223" stroke="#076FA2" stroke-width="6"/>
<path d="M148.199 533.981C147.666 533.392 146.921 533.041 146.129 533.004C145.337 532.966 144.563 533.246 143.977 533.782C143.391 534.317 143.04 535.065 143.003 535.859C142.966 536.654 143.245 537.431 143.779 538.02C146.393 540.902 149.175 543.631 152.096 546.197C206.535 591.972 291.298 585.306 344.212 540.893C347.187 538.411 350.021 535.86 352.807 533.156C353.377 532.603 353.703 531.845 353.717 531.05C353.73 530.254 353.427 529.486 352.877 528.914C352.326 528.342 351.57 528.014 350.778 528C349.985 527.987 349.22 528.291 348.65 528.844C345.974 531.442 343.25 533.893 340.392 536.278C289.697 579.061 207.378 585.128 156.033 541.682C153.277 539.261 150.657 536.691 148.199 533.981Z" fill="#076FA2"/>
<path d="M212.41 574.963L212.478 574.979L212.548 574.988L224.005 576.488L224.064 576.496L224.124 576.498L234.087 576.998L234.125 577L242.132 577L242.132 596.916L241.714 600.48L237.823 603.736L234.243 605.532L229.109 606L224.399 606L219.331 604.613L214.206 601.339L209.04 595.682L205.685 587.506L203.276 579.283L203.276 572.879L212.41 574.963Z" fill="#FEFEFE" stroke="#0578A5" stroke-width="3"/>
<path d="M270.905 574.723L270.837 574.739L270.767 574.749L260.401 576.104L260.341 576.112L260.283 576.115L251.268 576.567L251.231 576.569L244.125 576.569L244.125 594.422L244.496 597.58L247.959 600.474L251.159 602.08L255.771 602.501L260.007 602.501L264.556 601.255L269.158 598.319L273.801 593.237L276.822 585.878L278.995 578.467L278.995 572.878L270.905 574.723Z" fill="#FEFEFE" stroke="#0875A4" stroke-width="3"/>
<path d="M311.374 605.073C303.902 614.073 281.983 627.073 263.552 632.573C244.622 634.073 246.117 638.305 246.117 630.573C258.072 614.073 271.024 601.073 314.861 599.073C319.345 599.073 316.356 599.073 311.374 605.073Z" fill="#FF1863"/>
<path fill-rule="evenodd" clip-rule="evenodd" d="M290.933 624.957C284.168 632.931 294.743 641.421 322.323 664.36C336.577 676.215 357.242 675.119 368.441 661.915C379.641 648.711 377.161 628.367 362.907 616.513C335.327 593.574 298.685 607.049 290.933 624.957Z" fill="#FF9425"/>
<path fill-rule="evenodd" clip-rule="evenodd" d="M313.757 592.221C313.609 592.354 302.718 608.115 302.718 608.115C302.718 608.115 365.524 664.798 368.441 661.915C380.76 649.739 377.227 628.288 362.907 616.512C308.972 572.161 318.967 587.585 313.757 592.221Z" fill="#FF8600"/>
<path d="M366.614 622.926C361.306 627.159 356.269 631.667 352.773 637.461" stroke="#EF6A00" stroke-width="5" stroke-miterlimit="10" stroke-linecap="round" stroke-linejoin="round"/>
<path d="M341.708 603.141C336.88 604.7 334.177 608.57 331.673 612.832" stroke="#EF6A00" stroke-width="5" stroke-miterlimit="10" stroke-linecap="round" stroke-linejoin="round"/>
<path fill-rule="evenodd" clip-rule="evenodd" d="M364.099 657.612C364.099 657.612 373.968 680.102 379.248 686.981C384.504 693.831 397.851 692.239 400.58 688.583C404.322 683.568 403.036 674.608 395.25 669.948C387.915 665.558 364.099 657.612 364.099 657.612Z" fill="#129447"/>
<path fill-rule="evenodd" clip-rule="evenodd" d="M364.247 657.561C364.247 657.561 366.312 667.986 364.391 678.464C363.322 684.293 357.324 689.166 357.163 693.468C356.97 698.623 358.876 704.038 363.807 703.661C368.738 703.285 372.179 698.204 375.28 691.438C380.708 679.599 367.487 661.672 364.247 657.561Z" fill="#00AA63"/>
<path fill-rule="evenodd" clip-rule="evenodd" d="M363.099 657.957C363.099 657.957 360.154 666.172 354.702 675.28C350.838 681.736 343.674 687.912 343.16 688.285C336.127 693.388 339.591 700.679 346.903 700.387C353.271 700.132 358.546 695.787 361.465 691.174C368.994 679.28 367.345 659.702 363.099 657.957Z" fill="#129447"/>
<path fill-rule="evenodd" clip-rule="evenodd" d="M363.101 657.956C363.101 657.956 373.13 657.316 382.648 653.321C387.942 651.098 391.375 644.036 395.404 643.036C400.233 641.837 405.715 642.728 406.318 647.827C406.922 652.926 401.364 658.872 397.011 661.898C386.531 669.187 366.477 661.413 363.101 657.956Z" fill="#00AA63"/>
<path fill-rule="evenodd" clip-rule="evenodd" d="M363.1 657.957C363.1 657.957 373.374 652.618 381.021 645.416C387.219 639.579 389.885 633.678 391.961 631.848C395.779 628.48 400.77 628.939 402.638 633.659C404.506 638.381 400.186 646.604 397.133 649.697C387.726 659.222 368.478 660.243 363.1 657.957Z" fill="#129447"/>
<path d="M327.953 646.005C322.461 648.491 318.311 653.115 315.826 656.247" stroke="#EF6A00" stroke-width="5" stroke-miterlimit="10" stroke-linecap="round" stroke-linejoin="round"/>
<path d="M300.052 618.443C295.811 620.498 292.257 624.46 290.083 627.151" stroke="#EF6A00" stroke-width="5" stroke-miterlimit="10" stroke-linecap="round" stroke-linejoin="round"/>
<path d="M290.66 620.63C291.729 617.138 299.675 622.36 294.118 619.057C297.381 621.623 299.683 620.857 297.23 622.363C290.326 625.09 294.146 631.529 289.549 630.919C288.043 627.588 288.406 627.993 290.66 620.63Z" fill="#FF9425"/>
<path d="M310.283 584.252C318.725 582.189 327.453 589.054 316.996 587.485C318.107 590.407 318.038 593.785 314.716 592.86C306.505 588.531 311.902 596.599 305.295 587.497C305.112 586.651 303.096 587.816 310.283 584.252Z" fill="#FF9221"/>
<path d="M291.78 609.634C293.181 609.712 289.477 608.847 294.633 610.342C297.957 612.957 301.279 612.419 299.905 614.166C298.53 615.913 303.738 624.16 292.956 616.191C287.758 617.223 287.274 620.938 291.78 609.634Z" fill="#C65104"/>
<path d="M289.252 615.326C290.652 615.404 289.8 609.689 293.481 609.949C296.806 612.564 298.881 617.949 297.506 619.696C296.132 621.443 294.015 618.561 290.624 621.014C291.089 637.764 284.798 627.183 289.252 615.326Z" fill="#C65104"/>
<path d="M294.505 603.074C297.827 601.401 297.388 601.34 301.219 602.211C304.32 604.65 306.641 608.287 304.816 610.397C299.3 616.772 298.642 612.505 295.381 611.547C288.538 612.592 292.931 608.264 294.505 603.074Z" fill="#C65104"/>
<path d="M305.242 586.944C308.565 585.272 307.5 584.768 311.33 585.639C314.431 588.078 316.752 591.715 314.928 593.825C309.411 600.2 308.754 595.933 305.493 594.975C298.649 596.02 298.623 596.074 305.242 586.944Z" fill="#C65104"/>
<path d="M299.849 594.477C303.171 592.805 302.732 592.744 306.563 593.614C309.664 596.053 311.985 599.691 310.16 601.8C304.644 608.175 302.476 606.713 299.216 605.755C292.372 606.801 293.38 602.701 299.849 594.477Z" fill="#C65104"/>
<path d="M290.162 630.684C290.299 630.792 290.687 630.865 291.309 630.712C292.76 630.356 292.488 628.298 292.897 627.21C293.305 626.122 293.713 625.039 293.95 623.816C294.062 623.234 294.504 622.61 295.09 622.075C296.055 621.196 297.714 621.5 298.992 620.804C299.584 620.481 300.143 620.123 300.411 619.572C300.887 618.591 299.631 617.378 299.727 616.044C299.811 614.883 301.209 613.235 302.624 612.282C303.92 611.41 304.827 610.903 305.203 610.498C306.113 609.515 305.495 607.795 305.185 606.553C305.032 605.939 305.559 605.149 306.259 604.47C307.552 603.216 309.751 602.936 310.814 602.3C311.337 601.988 310.474 601.034 310.384 600.438C310.207 599.243 311.272 598.031 312.801 596.013C313.879 594.59 315.675 593.992 316.689 593.198C317.565 592.513 316.985 590.912 317.152 589.634C317.229 589.049 317.526 588.518 317.831 588.057C318.975 587.663 319.938 587.716 320.537 587.662C320.82 587.591 321.057 587.429 321.716 587.588" stroke="#C65104" stroke-width="2" stroke-linecap="round"/>
<path d="M303.872 603.138C304.02 600.817 311.748 606.317 306.418 602.725C309.68 605.291 311.435 605.222 309.712 605.799C304.542 606.321 309.092 611.833 305.133 610.41C303.172 607.659 303.56 608.031 303.872 603.138Z" fill="#FF9425"/>
<path d="M292.979 613.677C293.375 613.174 293.741 612.316 294.489 611.065C295.07 610.092 295.032 608.993 295.359 607.979C295.656 607.106 295.805 606.322 295.958 605.831C296.088 605.564 296.324 605.264 296.568 604.954" stroke="#C65104" stroke-width="2" stroke-linecap="round"/>
<path d="M288.759 629.991C288.793 629.763 288.632 629.228 288.408 628.77C288.172 628.288 288.187 627.753 288.136 627.229C288.083 626.676 288.328 626.027 288.486 625.485C288.644 624.943 288.735 624.455 288.854 623.935C288.978 623.395 289 622.824 289.013 622.22C289.025 621.615 289.143 621.096 289.126 620.469C289.108 619.835 289.21 619.156 289.248 618.521C289.3 617.638 289.352 617.121 289.631 616.548C290.004 615.781 289.95 614.632 290.088 613.866C290.209 613.192 290.427 612.293 290.573 611.642C290.738 610.907 290.718 610.376 291.005 609.732C291.218 609.252 291.461 608.813 291.85 607.946C292.165 607.246 292.48 606.652 292.804 605.961C293.188 605.141 293.437 604.694 293.644 604.243C293.862 603.769 293.97 603.274 294.133 602.787C294.286 602.329 294.563 601.9 294.966 601.172C296.044 599.219 297.178 598.143 297.754 597.255C298.035 596.867 298.34 596.54 299.014 595.776C299.56 595.114 300.519 593.895 301.507 592.639" stroke="#FF8600" stroke-width="2" stroke-linecap="round"/>
<path d="M309.58 585.342C309.372 585.484 308.786 585.736 308.221 585.958C307.693 586.166 307.31 586.621 306.892 586.906C306.473 587.19 306.056 587.475 305.638 587.912C305.203 588.367 304.171 589.251 303.372 590.113C302.765 590.853 302.341 591.453 302.041 591.928C301.784 592.285 301.317 592.879 300.836 593.491" stroke="#FF8600" stroke-width="2" stroke-linecap="round"/>
<path d="M395.591 541.974C391.501 538.609 388.668 538.355 386.223 539.203C383.247 540.235 379.96 543.166 375.793 548.204C367.848 557.808 357.55 574.153 342.073 588.698L341.849 588.908L341.591 589.078C328.315 597.753 316.523 605.542 308.363 614.28C300.535 622.664 296.302 631.654 297.405 642.938C304.791 654.077 312.231 660.665 319.38 664.05C326.607 667.472 333.806 667.755 340.887 665.813C355.331 661.852 369.32 648.613 380.615 633.514L380.702 633.398L380.798 633.29C392.514 620.059 399.58 600.593 401.895 582.411C403.048 573.352 403.001 564.762 401.831 557.593C400.666 550.453 398.452 545.111 395.591 541.974Z" fill="#87CFE5" stroke="#0076B8" stroke-width="7"/>
<path d="M331.015 627.735C331.183 627.497 331.447 627.333 331.741 627.273C332.036 627.212 332.335 627.261 332.582 627.413C332.83 627.565 333.009 627.81 333.088 628.099C333.166 628.389 333.139 628.699 333.003 628.956C332.709 629.509 332.422 630.044 332.119 630.592C327.109 640.511 318.275 649.207 308.233 654.522C307.671 654.839 307.138 655.136 306.572 655.443C305.584 653.328 304.598 651.214 303.611 649.1C304.176 648.879 304.71 648.668 305.268 648.439C315.255 644.605 323.709 638.276 329.953 629.216C330.313 628.721 330.66 628.238 331.015 627.735Z" fill="#0074AB"/>
<path d="M348.121 644.377C348.313 644.152 348.598 644.01 348.903 643.974C349.207 643.938 349.507 644.011 349.745 644.184C349.985 644.358 350.146 644.621 350.206 644.921C350.265 645.222 350.217 645.537 350.062 645.789C349.78 646.246 349.512 646.677 349.223 647.131C344.35 655.227 337.268 662.517 329.76 668.307C329.341 668.642 328.94 668.963 328.519 669.296C327.77 669.892 326.835 670.144 325.897 669.963C324.96 669.782 324.096 669.182 323.52 668.329C322.944 667.477 322.709 666.452 322.89 665.515C323.071 664.577 323.654 663.804 324.487 663.331C324.943 663.07 325.379 662.823 325.832 662.562C333.942 658.055 341.07 652.715 347.106 645.554C347.452 645.156 347.779 644.78 348.121 644.377Z" fill="#007BA4"/>
<g clip-path="url(#clip4_158_1684)">
<path d="M197.5 432.038C222.48 432.038 243.5 456.267 243.5 486.107C243.5 502.943 240.056 516.431 232.771 525.658C225.589 534.757 214.302 540.176 197.5 540.176C172.614 540.176 153 516.541 153 486.107C153 455.673 172.614 432.038 197.5 432.038Z" fill="#FEFEFE" stroke="#0F79AB" stroke-width="6"/>
<path d="M292.176 405.004C305.85 405.004 318.49 412.616 327.821 425.275C337.149 437.929 343 455.44 343 474.593C343 496.167 339.187 513.606 331.027 525.575C323.002 537.347 310.53 544.181 292.176 544.181C278.506 544.181 266.294 536.727 257.386 524.182C248.468 511.624 243 494.106 243 474.593C243 455.079 248.468 437.561 257.386 425.003C266.294 412.458 278.506 405.004 292.176 405.004Z" fill="#FEFEFE" stroke="#0F79AB" stroke-width="6"/>
<path d="M245 550.189C256.046 550.189 265 540.55 265 528.661C265 516.772 256.046 507.134 245 507.134C233.954 507.134 225 516.772 225 528.661C225 540.55 233.954 550.189 245 550.189Z" fill="#ED6F7A"/>
<path d="M277.5 490.112C277.5 501.172 271.508 510.138 263.5 510.138C255.492 510.138 249 501.172 249 490.112C249 479.053 255.492 470.087 263.5 470.087C272.5 472.59 277.5 478.598 277.5 490.112Z" fill="#2B2A28"/>
<path d="M225.5 510.138C233.508 510.138 240 501.172 240 490.112C240 479.053 233.508 470.087 225.5 470.087C217.492 470.087 211 479.053 211 490.112C211 501.172 217.492 510.138 225.5 510.138Z" fill="#2B2A28"/>
<path d="M275 479.599C276 483.103 272.761 486.107 270 486.107C267.239 486.107 265 483.642 265 480.6C265 477.559 267.239 475.093 270 475.093C272.761 475.093 275 476.558 275 479.599Z" fill="#F9FAFB"/>
<path d="M237 479.599C238 483.103 234.761 486.107 232 486.107C229.239 486.107 227 483.642 227 480.6C227 477.559 229.239 475.093 232 475.093C234.761 475.093 237 476.558 237 479.599Z" fill="#F9FAFB"/>
</g>
</g>
<defs>
<clipPath id="clip0_158_1684">
<rect width="476" height="786" fill="white"/>
</clipPath>
<clipPath id="clip1_158_1684">
<rect width="151" height="90.1148" fill="white" transform="translate(94 695.885)"/>
</clipPath>
<clipPath id="clip2_158_1684">
<rect width="151" height="90.1148" fill="white" transform="matrix(-1 0 0 1 396.001 695.885)"/>
</clipPath>
<clipPath id="clip3_158_1684">
<rect width="76" height="149.19" fill="white" transform="translate(0 494.63)"/>
</clipPath>
<clipPath id="clip4_158_1684">
<rect width="196" height="148.189" fill="white" transform="translate(150 402)"/>
</clipPath>
</defs>
</svg>
