<svg width="476" height="792" viewBox="0 0 476 792" fill="none" xmlns="http://www.w3.org/2000/svg">
<path d="M212.463 572.202L212.526 572.219L212.59 572.228L223.205 573.813L223.26 573.821L223.315 573.824L232.546 574.353L232.581 574.355L240 574.355L240 595.401L239.612 599.166L236.008 602.607L232.691 604.505L227.934 605L223.57 605L218.875 603.534L214.127 600.074L209.34 594.096L206.232 585.457L204 576.767L204 570L212.463 572.202Z" fill="#FEFEFE" stroke="#0578A5" stroke-width="3"/>
<path d="M303.294 591.255C296.446 597.24 276.361 605.885 259.47 609.542C242.124 610.54 243.493 613.354 243.493 608.212C254.449 597.24 266.318 588.595 306.489 587.265C310.597 587.265 307.858 587.265 303.294 591.255Z" fill="#FF1863"/>
<path d="M266.576 572.055L266.514 572.072L266.449 572.083L256.937 573.593L256.882 573.602L256.828 573.605L248.555 574.109L248.522 574.111L242 574.111L242 594.001L242.341 597.518L245.519 600.743L248.456 602.531L252.688 603L256.575 603L260.749 601.613L264.972 598.341L269.234 592.68L272.006 584.482L274 576.226L274 570L266.576 572.055Z" fill="#FEFEFE" stroke="#0875A4" stroke-width="3"/>
<path d="M132.319 7.54358C142.63 4.45313 152.637 6.03344 162.164 12.0133C171.856 18.0965 181.181 28.8452 189.316 44.1755C205.569 74.8016 216.308 122.289 216.332 181.597C214.57 206.161 213.814 230.922 213.061 253.833C212.305 276.896 211.553 297.998 209.813 315.449C208.047 333.162 205.337 346.064 201.231 353.367C199.251 356.889 197.318 358.434 195.641 359.025C194.027 359.595 191.527 359.674 187.52 357.839L184.623 356.513L181.906 358.178C178.223 360.435 176.589 360.261 176.096 360.12C175.621 359.984 174.417 359.368 172.862 356.243C171.336 353.176 169.968 348.672 168.647 342.609C167.34 336.612 166.159 329.491 164.865 321.353C159.724 289.01 153.067 242.026 129.862 197.518L129.701 197.207L129.504 196.918L127.213 193.527C79.7368 122.773 70.9558 79.7053 77.9944 53.28C85.0083 26.9483 108.511 14.6794 132.319 7.54358Z" fill="#8BCDE5" stroke="#0E6B96" stroke-width="12"/>
<path d="M302.992 61.946C326.477 36.5676 351.195 28.9349 368.501 35.0122C387.209 41.582 405.782 59.0983 406.934 87.3019C408.101 115.861 391.516 157.161 335.223 210.925L335.111 211.032L335.005 211.143C300.225 247.946 285.86 289.788 276.162 318.822C273.722 326.13 271.624 332.488 269.566 337.854C267.488 343.272 265.614 347.233 263.757 349.881C261.905 352.522 260.614 353.092 259.891 353.216C259.112 353.348 257.299 353.255 253.799 350.879L251.491 349.311L248.809 350.073C244.459 351.307 241.759 350.983 240.055 350.23C238.398 349.498 236.759 347.952 235.341 344.797C232.324 338.091 231.346 326.467 232.24 310.304C234.009 278.314 242.663 233.558 249.808 187.078C258.783 128.692 279.745 87.0698 302.992 61.946Z" fill="#87CFE5" stroke="#0E6B96" stroke-width="12"/>
<path d="M237.035 341.001C339.31 341.001 422.172 423.407 422.172 525.001C422.172 626.595 339.31 709.002 237.035 709.002C134.761 709.002 51.8984 626.595 51.8984 525.001C51.8984 423.407 134.761 341.001 237.035 341.001Z" fill="#86D0E3" stroke="#0C74AB" stroke-width="7"/>
<path d="M363.786 653.001C329.354 692.002 265.479 707.502 240.528 705.002C133.738 711.002 53.3954 616.896 55.8905 523.501C57.4534 465.001 42.916 603.001 181.644 662.002C255.998 699.502 363.786 653.001 363.786 653.001Z" fill="#37B4CA"/>
<path opacity="0.77" d="M173.161 400.001L182.143 388.501L194.619 377.501L201.605 373.501L208.092 371.501L211.585 375.001L214.579 379.001L216.575 385.001L208.092 387.501L195.617 394.501L187.133 400.001L178.65 408.001L174.658 403.501L173.161 400.001Z" fill="#004F80"/>
<path opacity="0.7" d="M263.982 364.501H271.967L279.452 366.001L287.436 369.001L297.417 373.501L305.9 378.501L304.403 386.001L294.423 383.501L282.945 381.001L273.963 379.501H266.977H258.992V372.501L260.489 367.501L263.982 364.501Z" fill="#014C83"/>
<g clip-path="url(#clip0_176_632)">
<path d="M199 706.999C217.453 706.999 227.418 712.776 232.985 720.29C238.752 728.075 240.5 738.635 240.5 749.499C240.5 760.728 239.623 769.379 232.348 775.752C224.743 782.414 209.12 787.499 176.5 787.499C154.106 787.499 138.008 786.431 126.449 784.532C114.815 782.621 108.241 779.938 104.485 777.064C100.993 774.391 99.6442 771.332 99.1137 767.491C98.8339 765.465 98.7896 763.238 98.8315 760.692C98.8709 758.3 99.0004 755.304 99.0004 752.499C99.0004 749.009 101.71 744.247 108.265 738.681C114.594 733.307 123.607 727.958 134.018 723.205C154.892 713.676 180.368 706.999 199 706.999Z" fill="#87CFE5" stroke="#0178B2" stroke-width="9"/>
<path d="M235.614 736.951C246.614 779.951 213.16 784.999 174.5 784.999C135.84 784.999 114 781.999 108.5 774.999C95.5 768.999 149.114 773.951 177.114 770.951C262.114 770.951 216 693.999 235.614 736.951Z" fill="#31A7BA"/>
</g>
<g clip-path="url(#clip1_176_632)">
<path d="M291.001 706.998C272.548 706.998 262.583 712.775 257.016 720.289C251.249 728.074 249.501 738.634 249.501 749.498C249.501 760.727 250.378 769.378 257.653 775.751C265.258 782.413 280.881 787.498 313.501 787.498C335.895 787.498 351.993 786.43 363.552 784.531C375.186 782.62 381.76 779.937 385.516 777.063C389.008 774.39 390.357 771.331 390.887 767.49C391.167 765.464 391.211 763.237 391.169 760.691C391.13 758.299 391.001 755.303 391.001 752.498C391.001 749.008 388.291 744.246 381.736 738.68C375.407 733.306 366.394 727.957 355.983 723.204C335.109 713.675 309.633 706.998 291.001 706.998Z" fill="#87CFE5" stroke="#0178B2" stroke-width="9"/>
<path d="M254.387 736.95C243.387 779.95 276.841 784.998 315.501 784.998C354.161 784.998 376.001 781.998 381.501 774.998C394.501 768.998 340.887 773.95 312.887 770.95C227.887 770.95 274.001 693.998 254.387 736.95Z" fill="#31A7BA"/>
</g>
<g clip-path="url(#clip2_176_632)">
<path d="M193.5 438C218.481 438 239.5 462.198 239.5 492C239.5 508.815 236.057 522.285 228.772 531.501C221.589 540.588 210.302 546 193.5 546C168.615 546 149 522.395 149 492C149 461.605 168.615 438 193.5 438Z" fill="#FEFEFE" stroke="#0F79AB" stroke-width="6"/>
<path d="M288.176 411C301.85 411 314.49 418.602 323.821 431.245C333.149 443.883 339 461.372 339 480.5C339 502.046 335.187 519.464 327.027 531.417C319.002 543.174 306.53 550 288.176 550C274.506 550 262.294 542.555 253.386 530.026C244.469 517.484 239 499.989 239 480.5C239 461.011 244.469 443.516 253.386 430.974C262.294 418.445 274.506 411 288.176 411Z" fill="#FEFEFE" stroke="#0F79AB" stroke-width="6"/>
<path d="M241 556C252.046 556 261 546.374 261 534.5C261 522.626 252.046 513 241 513C229.955 513 221 522.626 221 534.5C221 546.374 229.955 556 241 556Z" fill="#ED6F7A"/>
<path d="M273.5 496C273.5 507.046 267.508 516 259.5 516C251.492 516 245 507.046 245 496C245 484.954 251.492 476 259.5 476C268.5 478.5 273.5 484.5 273.5 496Z" fill="#2B2A28"/>
<path d="M221.5 516C229.509 516 236 507.046 236 496C236 484.954 229.509 476 221.5 476C213.492 476 207 484.954 207 496C207 507.046 213.492 516 221.5 516Z" fill="#2B2A28"/>
<path d="M271 485.5C272 489 268.761 492 266 492C263.239 492 261 489.538 261 486.5C261 483.462 263.239 481 266 481C268.761 481 271 482.462 271 485.5Z" fill="#F9FAFB"/>
<path d="M233 485.5C234 489 230.762 492 228 492C225.239 492 223 489.538 223 486.5C223 483.462 225.239 481 228 481C230.762 481 233 482.462 233 485.5Z" fill="#F9FAFB"/>
</g>
<g clip-path="url(#clip3_176_632)">
<path d="M406.914 504.503C401.66 505.179 399.535 507.07 398.479 509.433C397.193 512.307 397.078 516.71 397.895 523.197C399.452 535.564 404.31 554.261 404.31 575.5V575.808L404.256 576.111C401.485 591.727 399.086 605.653 399.865 617.584C400.613 629.031 404.265 638.272 413.243 645.195C426.419 647.442 436.314 646.532 443.677 643.641C451.12 640.718 456.256 635.665 459.691 629.176C466.696 615.938 466.63 596.677 463.362 578.106L463.336 577.964L463.323 577.82C461.706 560.223 452.361 541.742 440.696 527.603C434.885 520.558 428.594 514.711 422.569 510.653C416.567 506.612 411.159 504.567 406.914 504.503Z" fill="#87CFE5" stroke="#0076B8" stroke-width="7"/>
<path d="M425.182 610.292C425.124 610.007 425.186 609.702 425.342 609.446C425.5 609.191 425.74 609.006 426.021 608.93C426.301 608.853 426.602 608.891 426.867 609.032C427.132 609.173 427.34 609.405 427.434 609.68C427.635 610.273 427.828 610.849 428.02 611.444C431.816 621.888 432.104 634.281 429.099 645.239C428.946 645.864 428.797 646.457 428.633 647.08C426.416 646.351 424.2 645.622 421.983 644.893C422.209 644.33 422.421 643.796 422.637 643.233C426.682 633.33 427.86 622.835 425.534 612.08C425.42 611.479 425.306 610.895 425.182 610.292Z" fill="#0074AB"/>
<path d="M449.025 609.224C448.992 608.93 449.083 608.625 449.265 608.378C449.448 608.132 449.706 607.963 449.996 607.908C450.286 607.853 450.588 607.915 450.849 608.078C451.108 608.241 451.305 608.491 451.383 608.776C451.522 609.295 451.653 609.786 451.786 610.307C454.347 619.403 454.81 629.556 453.887 638.991C453.844 639.527 453.803 640.038 453.758 640.573C453.679 641.528 453.223 642.382 452.448 642.941C451.675 643.5 450.646 643.718 449.63 643.554C448.614 643.39 447.706 642.859 447.148 642.086C446.588 641.311 446.424 640.357 446.65 639.427C446.772 638.916 446.89 638.429 447.01 637.92C449.282 628.923 450.27 620.072 449.187 610.769C449.134 610.245 449.084 609.749 449.025 609.224Z" fill="#007BA4"/>
</g>
<path d="M334.912 543.256L334.797 543.574L334.797 543.907C334.796 555.088 326.615 577.443 307.766 595.579C289.106 613.533 260.121 627.24 218.32 621.791C183.12 610.448 167.905 592.712 160.615 577.342C156.937 569.587 155.25 562.38 154.082 556.745C153.691 554.861 153.346 553.096 153 551.556C156.946 553.639 161.717 556.007 167.133 558.411C189.473 568.328 223.454 579.19 255.588 572.608C285.779 572.517 308.666 560.524 322.926 551.29C326.508 548.97 329.563 546.813 332.038 545.068C333.169 544.27 334.152 543.58 335 543C334.971 543.083 334.943 543.169 334.912 543.256Z" fill="#D20223" stroke="#076FA2" stroke-width="6"/>
<path d="M210.463 572.202L210.526 572.219L210.59 572.228L221.205 573.813L221.26 573.821L221.315 573.824L230.546 574.353L230.581 574.355L238 574.355L238 595.401L237.612 599.166L234.008 602.607L230.691 604.505L225.934 605L221.57 605L216.875 603.534L212.127 600.074L207.34 594.096L204.232 585.457L202 576.767L202 570L210.463 572.202Z" fill="#FEFEFE" stroke="#0578A5" stroke-width="3"/>
<path d="M301.294 591.254C294.446 597.239 274.361 605.884 257.47 609.541C240.124 610.539 241.493 613.353 241.493 608.211C252.449 597.239 264.318 588.594 304.489 587.264C308.597 587.264 305.858 587.264 301.294 591.254Z" fill="#FF1863"/>
<path d="M264.576 572.055L264.514 572.072L264.449 572.083L254.937 573.593L254.882 573.602L254.828 573.605L246.555 574.109L246.522 574.111L240 574.111L240 594.001L240.341 597.518L243.519 600.743L246.456 602.531L250.688 603L254.575 603L258.749 601.613L262.972 598.341L267.234 592.68L270.006 584.482L272 576.226L272 570L264.576 572.055Z" fill="#FEFEFE" stroke="#0875A4" stroke-width="3"/>
<path fill-rule="evenodd" clip-rule="evenodd" d="M155.241 641.441C160.103 650.699 147.932 656.678 116.014 673.052C99.5183 681.513 79.5898 675.939 71.5387 660.611C63.4874 645.282 70.3432 625.968 86.8388 617.507C118.757 601.134 151.579 622.274 155.241 641.441Z" fill="#FF9425"/>
<path fill-rule="evenodd" clip-rule="evenodd" d="M140.103 604.516C140.219 604.678 147.411 622.434 147.411 622.434C147.411 622.434 73.7571 664.06 71.5391 660.61C62.1708 646.041 70.296 625.876 86.8396 617.506C149.147 585.982 136.029 598.856 140.103 604.516Z" fill="#FF8600"/>
<path d="M81.8223 622.958C86.0798 628.247 90.0128 633.744 92.1614 640.161" stroke="#EF6A00" stroke-width="5" stroke-miterlimit="10" stroke-linecap="round" stroke-linejoin="round"/>
<path d="M110.443 609.079C114.816 611.653 116.609 616.019 118.124 620.725" stroke="#EF6A00" stroke-width="5" stroke-miterlimit="10" stroke-linecap="round" stroke-linejoin="round"/>
<path fill-rule="evenodd" clip-rule="evenodd" d="M76.7138 657.358C76.7138 657.358 62.1786 677.154 55.5265 682.717C48.9035 688.256 36.2239 683.792 34.3585 679.629C31.7995 673.919 35.008 665.455 43.6228 662.605C51.7383 659.92 76.7138 657.358 76.7138 657.358Z" fill="#129447"/>
<path fill-rule="evenodd" clip-rule="evenodd" d="M76.581 657.276C76.581 657.276 72.2923 667 71.8831 677.644C71.655 683.566 76.4465 689.63 75.6655 693.863C74.7302 698.936 71.6888 703.805 66.9588 702.363C62.229 700.92 59.9785 695.211 58.4272 687.932C55.7112 675.194 72.5228 660.581 76.581 657.276Z" fill="#00AA63"/>
<path fill-rule="evenodd" clip-rule="evenodd" d="M77.6149 657.913C77.6149 657.913 78.6986 666.572 82.033 676.65C84.3966 683.793 90.0419 691.383 90.4623 691.859C96.2136 698.372 91.2426 704.733 84.17 702.854C78.0108 701.216 73.8104 695.825 71.9673 690.687C67.2125 677.438 73.091 658.69 77.6149 657.913Z" fill="#129447"/>
<path fill-rule="evenodd" clip-rule="evenodd" d="M77.6139 657.911C77.6139 657.911 67.9649 655.099 59.5474 649.125C54.8658 645.802 53.0545 638.161 49.3404 636.307C44.8891 634.084 39.3452 633.757 37.6446 638.602C35.9439 643.447 40.0714 650.462 43.6596 654.364C52.2988 663.763 73.565 660.549 77.6139 657.911Z" fill="#00AA63"/>
<path fill-rule="evenodd" clip-rule="evenodd" d="M77.6143 657.912C77.6143 657.912 68.7517 650.462 62.8591 641.766C58.083 634.718 56.7672 628.378 55.1406 626.139C52.1481 622.019 47.178 621.379 44.3253 625.579C41.4729 629.779 43.8954 638.747 46.201 642.431C53.3045 653.778 71.8674 658.971 77.6143 657.912Z" fill="#129447"/>
<path d="M114.522 653.911C119.339 657.535 122.381 662.953 124.123 666.551" stroke="#EF6A00" stroke-width="5" stroke-miterlimit="10" stroke-linecap="round" stroke-linejoin="round"/>
<path d="M147.761 633.096C151.452 636.027 154.056 640.668 155.592 643.768" stroke="#EF6A00" stroke-width="5" stroke-miterlimit="10" stroke-linecap="round" stroke-linejoin="round"/>
<path d="M156.45 637.279C156.168 633.638 147.275 637.002 153.417 634.989C149.674 636.782 147.594 635.533 149.66 637.537C155.803 641.704 150.672 647.156 155.291 647.562C157.486 644.64 157.044 644.955 156.45 637.279Z" fill="#FF9425"/>
<path d="M145.231 597.497C137.441 593.642 127.427 598.439 137.975 599.188C136.253 601.797 135.583 605.109 139.027 604.93C147.985 602.496 140.959 609.194 149.391 601.751C149.754 600.965 151.468 602.541 145.231 597.497Z" fill="#FF9221"/>
<path d="M157.754 626.303C156.371 626.073 160.174 626.037 154.816 626.372C151.001 628.199 147.877 626.95 148.837 628.955C149.797 630.959 142.917 637.872 155.177 632.446C160.025 634.586 159.688 638.317 157.754 626.303Z" fill="#C65104"/>
<path d="M158.981 632.409C157.597 632.179 159.675 626.788 156.025 626.239C152.211 628.066 149.012 632.869 149.972 634.873C150.932 636.878 153.627 634.527 156.401 637.66C152.295 653.906 160.743 644.951 158.981 632.409Z" fill="#C65104"/>
<path d="M156.526 619.306C153.648 616.95 154.09 616.985 150.161 617C146.603 618.704 143.544 621.748 144.866 624.205C148.859 631.629 150.431 627.608 153.823 627.384C160.274 629.897 156.93 624.715 156.526 619.306Z" fill="#C65104"/>
<path d="M149.563 601.223C146.686 598.867 147.835 598.607 143.906 598.622C140.348 600.326 137.29 603.37 138.611 605.826C142.604 613.251 144.177 609.23 147.568 609.006C154.019 611.519 154.032 611.577 149.563 601.223Z" fill="#C65104"/>
<path d="M153.185 609.751C150.307 607.395 150.749 607.431 146.82 607.445C143.262 609.149 140.204 612.193 141.525 614.65C145.518 622.074 147.953 621.12 151.344 620.896C157.794 623.408 157.705 619.188 153.185 609.751Z" fill="#C65104"/>
<path d="M154.744 647.199C154.587 647.274 154.192 647.261 153.619 646.976C152.28 646.312 152.995 644.363 152.832 643.212C152.671 642.061 152.51 640.915 152.545 639.67C152.562 639.078 152.267 638.372 151.811 637.723C151.062 636.654 149.376 636.589 148.281 635.631C147.774 635.187 147.306 634.716 147.165 634.12C146.914 633.059 148.404 632.148 148.601 630.825C148.772 629.674 147.767 627.761 146.594 626.523C145.519 625.389 144.745 624.697 144.466 624.219C143.792 623.061 144.771 621.517 145.344 620.373C145.627 619.807 145.284 618.921 144.749 618.106C143.761 616.6 141.677 615.847 140.778 614.995C140.335 614.576 141.385 613.833 141.603 613.271C142.036 612.144 141.261 610.728 140.209 608.426C139.468 606.802 137.845 605.827 137.028 604.831C136.323 603.971 137.237 602.535 137.354 601.252C137.406 600.663 137.232 600.081 137.035 599.564C136.004 598.931 135.053 598.772 134.48 598.589C134.22 598.458 134.023 598.248 133.346 598.259" stroke="#C65104" stroke-width="2" stroke-linecap="round"/>
<path d="M147.37 617.326C147.731 615.029 138.99 618.712 144.975 616.368C141.232 618.161 139.534 617.711 141.09 618.65C146.022 620.287 140.38 624.673 144.553 624.148C147.067 621.891 146.607 622.17 147.37 617.326Z" fill="#FF9425"/>
<path d="M155.703 629.987C155.426 629.409 155.256 628.493 154.798 627.109C154.444 626.033 154.721 624.968 154.623 623.907C154.523 622.99 154.549 622.193 154.506 621.68C154.437 621.391 154.272 621.047 154.102 620.691" stroke="#C65104" stroke-width="2" stroke-linecap="round"/>
<path d="M156.264 646.828C156.281 646.598 156.555 646.112 156.873 645.713C157.208 645.294 157.31 644.769 157.474 644.268C157.647 643.74 157.549 643.054 157.513 642.49C157.477 641.927 157.494 641.431 157.492 640.897C157.489 640.344 157.591 639.781 157.711 639.189C157.831 638.596 157.829 638.064 157.983 637.455C158.137 636.84 158.186 636.156 158.288 635.528C158.429 634.655 158.491 634.139 158.344 633.519C158.147 632.689 158.451 631.579 158.483 630.801C158.511 630.117 158.495 629.193 158.494 628.525C158.493 627.771 158.629 627.258 158.49 626.567C158.386 626.052 158.245 625.571 158.054 624.64C157.899 623.887 157.721 623.24 157.556 622.494C157.36 621.61 157.215 621.12 157.11 620.635C157.001 620.125 157.004 619.618 156.951 619.108C156.902 618.627 156.724 618.148 156.49 617.35C155.864 615.209 154.992 613.91 154.623 612.919C154.433 612.479 154.207 612.093 153.716 611.2C153.327 610.436 152.657 609.037 151.967 607.596" stroke="#FF8600" stroke-width="2" stroke-linecap="round"/>
<path d="M145.679 598.714C145.851 598.897 146.368 599.271 146.871 599.611C147.341 599.929 147.615 600.456 147.961 600.825C148.308 601.195 148.653 601.563 148.966 602.081C149.291 602.62 150.106 603.708 150.698 604.724C151.128 605.578 151.411 606.256 151.601 606.785C151.773 607.189 152.1 607.871 152.436 608.573" stroke="#FF8600" stroke-width="2" stroke-linecap="round"/>
<path d="M71.1929 537.636C75.9187 535.243 78.7387 535.614 80.9403 536.975C83.6192 538.63 86.1879 542.208 89.1568 548.033C94.8163 559.138 101.303 577.335 113.236 594.905L113.409 595.159L113.624 595.38C124.689 606.741 134.499 616.914 140.557 627.221C146.369 637.111 148.541 646.807 145.003 657.579C135.366 666.84 126.669 671.647 118.954 673.392C111.154 675.156 104.067 673.862 97.5797 670.423C84.3465 663.408 73.5808 647.437 65.8504 630.239L65.7904 630.106L65.7202 629.981C57.1713 614.514 54.5188 593.975 56.2247 575.726C57.0738 566.633 58.9932 558.261 61.698 551.518C64.3917 544.805 67.7172 540.074 71.1929 537.636Z" fill="#87CFE5" stroke="#0076B8" stroke-width="7"/>
<path d="M115.516 635.413C115.404 635.144 115.182 634.926 114.908 634.803C114.634 634.68 114.332 634.662 114.057 634.757C113.783 634.851 113.554 635.051 113.414 635.317C113.274 635.582 113.233 635.89 113.31 636.171C113.476 636.775 113.64 637.36 113.816 637.96C116.543 648.733 123.268 659.146 131.91 666.523C132.389 666.954 132.845 667.361 133.33 667.784C134.755 665.935 136.178 664.087 137.602 662.239C137.099 661.9 136.624 661.577 136.129 661.232C127.219 655.313 120.348 647.293 116.23 637.089C115.986 636.528 115.753 635.981 115.516 635.413Z" fill="#0074AB"/>
<path d="M95.1933 647.926C95.0547 647.665 94.8078 647.464 94.5188 647.362C94.229 647.26 93.9208 647.266 93.6503 647.383C93.3789 647.501 93.1637 647.722 93.0405 648.002C92.9164 648.283 92.8948 648.601 92.991 648.88C93.167 649.388 93.3347 649.867 93.5177 650.374C96.5085 659.337 101.83 667.996 107.895 675.283C108.231 675.702 108.553 676.102 108.891 676.519C109.492 677.264 110.349 677.715 111.304 677.741C112.258 677.769 113.232 677.372 113.98 676.666C114.728 675.959 115.181 675.01 115.208 674.056C115.237 673.101 114.836 672.22 114.126 671.577C113.738 671.223 113.367 670.886 112.982 670.533C106.049 664.367 100.257 657.6 95.9271 649.295C95.6762 648.832 95.4396 648.393 95.1933 647.926Z" fill="#007BA4"/>
<defs>
<clipPath id="clip0_176_632">
<rect width="151" height="90" fill="white" transform="translate(94 701.999)"/>
</clipPath>
<clipPath id="clip1_176_632">
<rect width="151" height="90" fill="white" transform="matrix(-1 0 0 1 396.001 701.998)"/>
</clipPath>
<clipPath id="clip2_176_632">
<rect width="196" height="148" fill="white" transform="translate(146 408)"/>
</clipPath>
<clipPath id="clip3_176_632">
<rect width="76" height="149" fill="white" transform="matrix(-1 0 0 1 469 501)"/>
</clipPath>
</defs>
</svg>
