<svg width="476" height="786" viewBox="0 0 476 786" fill="none" xmlns="http://www.w3.org/2000/svg">
<g clip-path="url(#clip0_176_1312)">
<g clip-path="url(#clip1_176_1312)">
<path d="M86.9297 16.7143C96.5345 11.8058 106.682 11.5524 117.15 15.7188C127.798 19.9572 138.925 28.8568 149.706 42.484C171.246 69.7073 190.39 114.534 201.105 172.941C203.797 197.451 207.515 221.975 210.903 244.675C214.315 267.526 217.378 288.445 218.81 305.946C220.262 323.711 219.917 336.908 217.187 344.843C215.87 348.67 214.243 350.541 212.698 351.426C211.21 352.28 208.76 352.81 204.48 351.727L201.386 350.945L199.008 353.076C195.786 355.965 194.143 356.089 193.632 356.04C193.139 355.992 191.842 355.603 189.746 352.806C187.689 350.061 185.529 345.873 183.134 340.141C180.765 334.471 178.317 327.671 175.575 319.89C164.678 288.966 149.647 243.897 118.755 204.259L118.539 203.982L118.293 203.733L115.425 200.807C55.8798 139.71 39.4621 98.8817 41.6354 71.5833C43.8011 44.3815 64.7521 28.0479 86.9297 16.7143Z" fill="#8BCDE5" stroke="#0E6B96" stroke-width="12"/>
<path d="M307.345 63.0001C329.956 36.7664 354.435 28.2455 371.981 33.7082C390.948 39.6138 410.17 56.4775 412.328 84.658C414.514 113.194 399.378 155.113 344.924 210.922L344.816 211.034L344.714 211.149C311.199 249.217 298.305 291.6 289.629 320.998C287.446 328.398 285.571 334.835 283.702 340.279C281.814 345.774 280.078 349.805 278.313 352.52C276.553 355.23 275.28 355.846 274.561 355.996C273.785 356.157 271.966 356.128 268.378 353.876L266.01 352.389L263.352 353.247C259.04 354.637 256.325 354.41 254.592 353.718C252.907 353.044 251.211 351.556 249.678 348.449C246.419 341.847 245.025 330.25 245.345 314.045C245.977 281.971 253.048 236.878 258.547 190.113C265.454 131.368 284.962 88.9707 307.345 63.0001Z" fill="#87CFE5" stroke="#0E6B96" stroke-width="12"/>
<path d="M237.5 334.426C339.975 334.426 423 416.937 423 518.661C423 620.384 339.975 702.895 237.5 702.895C135.025 702.895 52.0005 620.384 52.0005 518.661C52.0005 416.937 135.025 334.426 237.5 334.426Z" fill="#86D0E3" stroke="#0C74AB" stroke-width="7"/>
<path d="M364.501 646.824C330.001 685.874 266.001 701.394 241.001 698.89C134.001 704.898 53.5005 610.673 56.0005 517.159C57.5664 458.584 43.0005 596.76 182.001 655.836C256.501 693.383 364.501 646.824 364.501 646.824Z" fill="#37B4CA"/>
<path opacity="0.77" d="M173.5 393.501L182.5 381.987L195 370.972L202 366.967L208.5 364.965L212 368.469L215 372.474L217 378.482L208.5 380.985L196 387.994L187.5 393.501L179 401.511L175 397.006L173.5 393.501Z" fill="#004F80"/>
<path opacity="0.7" d="M264.5 357.956H272.5L280 359.458L288 362.462L298 366.968L306.5 371.974L305 379.483L295 376.98L283.5 374.477L274.5 372.975H267.5H259.5V365.966L261 360.96L264.5 357.956Z" fill="#014C83"/>
<g clip-path="url(#clip2_176_1312)">
<path d="M199 700.891C217.453 700.891 227.418 706.675 232.985 714.199C238.752 721.994 240.5 732.567 240.5 743.445C240.5 754.689 239.623 763.351 232.348 769.732C224.743 776.403 209.12 781.494 176.5 781.494C154.106 781.494 138.008 780.424 126.449 778.523C114.815 776.61 108.241 773.923 104.485 771.045C100.993 768.369 99.6442 765.306 99.1137 761.46C98.8339 759.432 98.7896 757.202 98.8315 754.653C98.8709 752.258 99.0004 749.257 99.0004 746.449C99.0004 742.955 101.71 738.187 108.265 732.613C114.594 727.232 123.607 721.877 134.018 717.118C154.892 707.577 180.368 700.891 199 700.891Z" fill="#87CFE5" stroke="#0178B2" stroke-width="9"/>
<path d="M235.614 730.881C246.614 773.936 213.16 778.991 174.5 778.991C135.84 778.991 114 775.987 108.5 768.978C95.5 762.97 149.114 767.928 177.114 764.925C262.114 764.925 216 687.875 235.614 730.881Z" fill="#31A7BA"/>
</g>
<g clip-path="url(#clip3_176_1312)">
<path d="M291.001 700.891C272.548 700.891 262.583 706.675 257.016 714.199C251.249 721.994 249.501 732.567 249.501 743.445C249.501 754.689 250.378 763.351 257.653 769.732C265.258 776.403 280.881 781.494 313.501 781.494C335.895 781.494 351.993 780.424 363.552 778.523C375.186 776.61 381.76 773.923 385.516 771.045C389.008 768.369 390.357 765.306 390.887 761.46C391.167 759.432 391.211 757.202 391.169 754.653C391.13 752.258 391.001 749.257 391.001 746.449C391.001 742.955 388.291 738.187 381.736 732.613C375.407 727.232 366.394 721.877 355.983 717.118C335.109 707.577 309.633 700.891 291.001 700.891Z" fill="#87CFE5" stroke="#0178B2" stroke-width="9"/>
<path d="M254.387 730.881C243.387 773.936 276.841 778.991 315.501 778.991C354.161 778.991 376.001 775.987 381.501 768.978C394.501 762.97 340.887 767.928 312.887 764.925C227.887 764.925 274.001 687.875 254.387 730.881Z" fill="#31A7BA"/>
</g>
<g clip-path="url(#clip4_176_1312)">
<path d="M409.914 498.138C404.66 498.815 402.535 500.708 401.478 503.074C400.193 505.952 400.078 510.361 400.894 516.856C402.452 529.238 407.31 547.96 407.31 569.225V569.533L407.256 569.837C404.485 585.473 402.086 599.417 402.865 611.363C403.613 622.825 407.265 632.077 416.243 639.009C429.419 641.259 439.314 640.348 446.677 637.453C454.12 634.527 459.256 629.467 462.69 622.97C469.696 609.715 469.629 590.43 466.361 571.835L466.336 571.692L466.323 571.549C464.706 553.929 455.36 535.424 443.696 521.267C437.885 514.214 431.594 508.358 425.568 504.296C419.567 500.25 414.158 498.202 409.914 498.138Z" fill="#87CFE5" stroke="#0076B8" stroke-width="7"/>
<path d="M428.182 604.062C428.124 603.776 428.186 603.471 428.342 603.215C428.5 602.959 428.74 602.774 429.021 602.698C429.301 602.621 429.602 602.659 429.867 602.8C430.132 602.941 430.34 603.173 430.434 603.449C430.635 604.043 430.828 604.619 431.02 605.215C434.816 615.672 435.104 628.081 432.099 639.053C431.946 639.679 431.797 640.273 431.633 640.897C429.416 640.167 427.2 639.437 424.983 638.707C425.209 638.143 425.421 637.608 425.637 637.045C429.682 627.129 430.86 616.621 428.534 605.852C428.42 605.25 428.306 604.665 428.182 604.062Z" fill="#0074AB"/>
<path d="M452.025 602.993C451.992 602.698 452.083 602.393 452.265 602.146C452.448 601.899 452.706 601.73 452.996 601.675C453.286 601.62 453.588 601.682 453.849 601.845C454.108 602.008 454.305 602.259 454.383 602.544C454.522 603.064 454.653 603.555 454.786 604.077C457.347 613.185 457.81 623.351 456.887 632.798C456.844 633.334 456.803 633.846 456.758 634.382C456.679 635.338 456.223 636.193 455.448 636.753C454.675 637.312 453.646 637.531 452.63 637.366C451.614 637.202 450.706 636.67 450.148 635.897C449.588 635.121 449.424 634.165 449.65 633.234C449.772 632.722 449.89 632.235 450.01 631.725C452.282 622.717 453.27 613.854 452.187 604.54C452.134 604.015 452.084 603.518 452.025 602.993Z" fill="#007BA4"/>
</g>
<path d="M344.279 603C297.279 611.5 285.779 575.5 302.279 552" stroke="#076FA2" stroke-width="6" stroke-linecap="round"/>
<path d="M193.319 565.107C193.081 564.703 192.749 564.461 192.396 564.436C192.043 564.41 191.697 564.602 191.436 564.97C191.174 565.338 191.018 565.851 191.001 566.397C190.985 566.943 191.109 567.476 191.347 567.88C192.513 569.86 193.755 571.734 195.058 573.496C219.343 604.928 257.155 600.351 280.759 569.853C282.086 568.149 283.351 566.397 284.594 564.541C284.848 564.161 284.994 563.64 285 563.094C285.006 562.548 284.87 562.02 284.625 561.628C284.379 561.235 284.042 561.009 283.689 561C283.335 560.991 282.994 561.2 282.739 561.579C281.546 563.364 280.33 565.047 279.055 566.684C256.441 596.062 219.719 600.228 196.814 570.395C195.584 568.733 194.416 566.968 193.319 565.107Z" fill="#076FA2"/>
<path d="M217.334 591.963L217.375 591.979L217.416 591.987L224.306 593.487L224.341 593.495L224.377 593.498L230.368 593.998L230.39 594H235.205V613.916L234.953 617.48L232.614 620.735L230.462 622.531L227.375 623H224.543L221.495 621.612L218.414 618.339L215.307 612.682L213.29 604.506L211.842 596.282V589.879L217.334 591.963Z" fill="#FEFEFE" stroke="#0578A5" stroke-width="3"/>
<path d="M252.506 591.723L252.465 591.738L252.423 591.748L246.19 593.104L246.154 593.111L246.119 593.114L240.699 593.566L240.676 593.568H236.403V611.422L236.627 614.579L238.709 617.474L240.633 619.079L243.406 619.5H245.953L248.688 618.255L251.455 615.318L254.247 610.236L256.064 602.878L257.37 595.467V589.878L252.506 591.723Z" fill="#FEFEFE" stroke="#0875A4" stroke-width="3"/>
<path d="M126 601C173 609.5 184.5 573.5 168 550" stroke="#076FA2" stroke-width="6" stroke-linecap="round"/>
<g clip-path="url(#clip5_176_1312)">
<path d="M189.5 426.038C214.48 426.038 235.5 450.267 235.5 480.107C235.5 496.943 232.056 510.431 224.771 519.658C217.589 528.757 206.302 534.176 189.5 534.176C164.614 534.176 145 510.541 145 480.107C145 449.673 164.614 426.038 189.5 426.038Z" fill="#FEFEFE" stroke="#0F79AB" stroke-width="6"/>
<path d="M284.176 399.004C297.85 399.004 310.49 406.616 319.821 419.275C329.149 431.929 335 449.44 335 468.593C335 490.167 331.187 507.606 323.027 519.575C315.002 531.347 302.53 538.181 284.176 538.181C270.506 538.181 258.294 530.727 249.386 518.182C240.468 505.624 235 488.106 235 468.593C235 449.079 240.468 431.561 249.386 419.003C258.294 406.458 270.506 399.004 284.176 399.004Z" fill="#FEFEFE" stroke="#0F79AB" stroke-width="6"/>
<path d="M237 544.189C248.046 544.189 257 534.55 257 522.661C257 510.772 248.046 501.134 237 501.134C225.954 501.134 217 510.772 217 522.661C217 534.55 225.954 544.189 237 544.189Z" fill="#ED6F7A"/>
<path d="M269.5 484.112C269.5 495.172 263.508 504.138 255.5 504.138C247.492 504.138 241 495.172 241 484.112C241 473.053 247.492 464.087 255.5 464.087C264.5 466.59 269.5 472.598 269.5 484.112Z" fill="#2B2A28"/>
<path d="M217.5 504.138C225.508 504.138 232 495.172 232 484.112C232 473.053 225.508 464.087 217.5 464.087C209.492 464.087 203 473.053 203 484.112C203 495.172 209.492 504.138 217.5 504.138Z" fill="#2B2A28"/>
<path d="M267 473.599C268 477.103 264.761 480.107 262 480.107C259.239 480.107 257 477.642 257 474.6C257 471.559 259.239 469.093 262 469.093C264.761 469.093 267 470.558 267 473.599Z" fill="#F9FAFB"/>
<path d="M229 473.599C230 477.103 226.761 480.107 224 480.107C221.239 480.107 219 477.642 219 474.6C219 471.559 221.239 469.093 224 469.093C226.761 469.093 229 470.558 229 473.599Z" fill="#F9FAFB"/>
</g>
</g>
<path fill-rule="evenodd" clip-rule="evenodd" d="M168.748 656.379C174.629 665.026 163.214 672.347 133.358 692.234C117.929 702.511 97.4966 699.232 87.7594 684.916C78.022 670.599 82.6437 650.632 98.0736 640.355C127.93 620.469 162.937 637.751 168.748 656.379Z" fill="#FF9425"/>
<path fill-rule="evenodd" clip-rule="evenodd" d="M149.521 621.409C149.655 621.556 158.814 638.383 158.814 638.383C158.814 638.383 90.3543 688.091 87.7595 684.915C76.7998 671.502 82.5861 650.546 98.0741 640.354C156.405 601.969 144.832 616.247 149.521 621.409Z" fill="#FF8600"/>
<path d="M93.7075 646.34C98.5371 651.112 103.068 656.128 105.93 662.259" stroke="#EF6A00" stroke-width="5" stroke-miterlimit="10" stroke-linecap="round" stroke-linejoin="round"/>
<path d="M120.57 629.306C125.206 631.367 127.484 635.502 129.522 640.005" stroke="#EF6A00" stroke-width="5" stroke-miterlimit="10" stroke-linecap="round" stroke-linejoin="round"/>
<path fill-rule="evenodd" clip-rule="evenodd" d="M92.5323 681.097C92.5323 681.097 80.3354 702.414 74.3569 708.695C68.4047 714.949 55.3007 711.952 52.9753 708.027C49.7854 702.644 52.0135 693.871 60.2496 690.062C68.0084 686.475 92.5323 681.097 92.5323 681.097Z" fill="#129447"/>
<path fill-rule="evenodd" clip-rule="evenodd" d="M92.3909 681.031C92.3909 681.031 89.2323 691.178 90.0327 701.8C90.4775 707.71 95.9256 713.191 95.6297 717.486C95.2756 722.632 92.8058 727.815 87.9428 726.917C83.0799 726.021 80.1966 720.603 77.83 713.547C73.6872 701.199 88.7336 684.774 92.3909 681.031Z" fill="#00AA63"/>
<path fill-rule="evenodd" clip-rule="evenodd" d="M93.4902 681.546C93.4902 681.546 95.5487 690.026 100.004 699.661C103.163 706.49 109.632 713.391 110.104 713.816C116.556 719.636 112.339 726.518 105.099 725.453C98.7934 724.525 94.0088 719.645 91.5951 714.749C85.3687 702.124 89.0836 682.831 93.4902 681.546Z" fill="#129447"/>
<path fill-rule="evenodd" clip-rule="evenodd" d="M93.4892 681.545C93.4892 681.545 83.5836 679.845 74.5431 674.864C69.5148 672.093 66.8488 664.706 62.9485 663.285C58.2738 661.581 52.7287 661.886 51.5883 666.892C50.4479 671.898 55.3442 678.4 59.3516 681.87C69.0009 690.229 89.7654 684.624 93.4892 681.545Z" fill="#00AA63"/>
<path fill-rule="evenodd" clip-rule="evenodd" d="M93.4897 681.545C93.4897 681.545 83.8397 675.148 76.9991 667.176C71.4546 660.715 69.4284 654.565 67.5585 652.524C64.1182 648.771 59.1075 648.698 56.7494 653.194C54.3917 657.691 57.8153 666.327 60.5238 669.725C68.868 680.194 87.9 683.249 93.4897 681.545Z" fill="#129447"/>
<path d="M129.706 673.385C134.903 676.44 138.539 681.478 140.678 684.855" stroke="#EF6A00" stroke-width="5" stroke-miterlimit="10" stroke-linecap="round" stroke-linejoin="round"/>
<path d="M160.37 648.936C164.369 651.429 167.483 655.746 169.36 658.651" stroke="#EF6A00" stroke-width="5" stroke-miterlimit="10" stroke-linecap="round" stroke-linejoin="round"/>
<path d="M169.477 652.106C168.784 648.52 160.33 652.871 166.205 650.175C162.689 652.381 160.481 651.376 162.76 653.133C169.337 656.576 164.856 662.574 169.492 662.455C171.342 659.302 170.938 659.666 169.477 652.106Z" fill="#FF9425"/>
<path d="M153.82 613.853C145.644 610.907 136.238 616.808 146.802 616.356C145.387 619.144 145.098 622.51 148.499 621.942C157.123 618.508 150.902 625.959 158.436 617.608C158.707 616.787 160.589 618.158 153.82 613.853Z" fill="#FF9221"/>
<path d="M169.529 641.053C168.128 640.982 171.903 640.514 166.617 641.455C163.034 643.703 159.789 642.816 160.97 644.699C162.151 646.582 156.099 654.23 167.665 647.449C172.724 649.025 172.812 652.771 169.529 641.053Z" fill="#C65104"/>
<path d="M171.44 646.981C170.039 646.91 171.492 641.318 167.804 641.186C164.221 643.434 161.588 648.568 162.769 650.451C163.95 652.334 166.361 649.693 169.473 652.491C167.235 669.097 174.613 659.243 171.44 646.981Z" fill="#C65104"/>
<path d="M167.515 634.241C164.388 632.226 164.831 632.211 160.93 632.671C157.588 634.768 154.894 638.139 156.485 640.43C161.295 647.354 162.401 643.181 165.745 642.573C172.439 644.338 168.53 639.569 167.515 634.241Z" fill="#C65104"/>
<path d="M158.547 617.064C155.421 615.049 156.533 614.661 152.632 615.121C149.29 617.218 146.596 620.589 148.187 622.88C152.997 629.804 154.103 625.63 157.447 625.023C164.142 626.788 164.161 626.844 158.547 617.064Z" fill="#C65104"/>
<path d="M163.112 625.127C159.986 623.112 160.429 623.098 156.527 623.557C153.185 625.654 150.491 629.025 152.083 631.316C156.892 638.24 159.203 637.015 162.546 636.408C169.241 638.173 168.673 633.99 163.112 625.127Z" fill="#C65104"/>
<path d="M168.907 662.156C168.759 662.248 168.366 662.28 167.764 662.062C166.358 661.554 166.847 659.536 166.556 658.412C166.265 657.286 165.975 656.166 165.869 654.924C165.818 654.335 165.445 653.667 164.919 653.073C164.053 652.096 162.37 652.223 161.174 651.395C160.62 651.012 160.102 650.597 159.894 650.02C159.524 648.994 160.901 647.921 160.947 646.584C160.986 645.421 159.771 643.634 158.465 642.537C157.269 641.532 156.421 640.932 156.09 640.489C155.289 639.416 156.086 637.77 156.526 636.568C156.743 635.974 156.302 635.133 155.678 634.383C154.526 632.999 152.369 632.488 151.38 631.743C150.892 631.377 151.851 630.52 152.004 629.937C152.307 628.767 151.376 627.449 150.07 625.281C149.149 623.751 147.426 622.966 146.502 622.07C145.703 621.295 146.449 619.765 146.419 618.477C146.405 617.886 146.166 617.328 145.911 616.836C144.815 616.324 143.852 616.274 143.262 616.157C142.989 616.056 142.77 615.87 142.098 615.958" stroke="#C65104" stroke-width="2" stroke-linecap="round"/>
<path d="M158.193 633.312C158.292 630.989 150.025 635.639 155.705 632.632C152.19 634.837 150.452 634.583 152.105 635.339C157.19 636.406 152.081 641.404 156.168 640.409C158.411 637.882 157.985 638.211 158.193 633.312Z" fill="#FF9425"/>
<path d="M167.908 644.947C167.568 644.404 167.295 643.512 166.683 642.189C166.209 641.16 166.364 640.071 166.146 639.028C165.943 638.128 165.878 637.333 165.777 636.828C165.677 636.55 165.474 636.226 165.264 635.892" stroke="#C65104" stroke-width="2" stroke-linecap="round"/>
<path d="M170.376 661.615C170.366 661.385 170.583 660.87 170.854 660.438C171.14 659.984 171.181 659.451 171.288 658.934C171.399 658.39 171.224 657.719 171.125 657.163C171.025 656.608 170.986 656.113 170.923 655.583C170.857 655.033 170.895 654.463 170.947 653.861C170.999 653.258 170.937 652.73 171.02 652.108C171.104 651.479 171.075 650.793 171.105 650.158C171.147 649.274 171.15 648.755 170.933 648.156C170.643 647.354 170.819 646.216 170.763 645.44C170.714 644.757 170.592 643.84 170.516 643.177C170.43 642.428 170.506 641.903 170.29 641.233C170.129 640.732 169.934 640.27 169.638 639.367C169.399 638.637 169.149 638.014 168.9 637.291C168.605 636.435 168.405 635.965 168.247 635.495C168.08 635 168.025 634.496 167.915 633.995C167.812 633.523 167.581 633.068 167.258 632.301C166.393 630.245 165.379 629.054 164.9 628.111C164.662 627.695 164.393 627.337 163.804 626.506C163.331 625.79 162.507 624.476 161.658 623.123" stroke="#FF8600" stroke-width="2" stroke-linecap="round"/>
<path d="M154.404 615.011C154.595 615.174 155.151 615.487 155.689 615.768C156.192 616.031 156.525 616.523 156.91 616.851C157.297 617.179 157.681 617.505 158.051 617.984C158.435 618.483 159.368 619.472 160.071 620.414C160.596 621.214 160.954 621.855 161.202 622.359C161.419 622.741 161.821 623.382 162.235 624.041" stroke="#FF8600" stroke-width="2" stroke-linecap="round"/>
<path d="M73.4726 562.773C77.8966 559.86 80.7404 559.908 83.0821 561.011C85.9314 562.352 88.8892 565.615 92.4995 571.066C99.3816 581.458 107.89 598.802 121.738 614.906L121.938 615.138L122.177 615.334C134.459 625.367 145.359 634.362 152.547 643.916C159.443 653.082 162.7 662.47 160.406 673.574C151.881 683.868 143.785 689.629 136.318 692.238C128.769 694.875 121.58 694.393 114.745 691.712C100.802 686.243 88.2947 671.596 78.6641 655.384L78.5895 655.26L78.5055 655.143C68.258 640.745 63.2938 620.639 62.9197 602.314C62.7324 593.184 63.69 584.648 65.6129 577.643C67.528 570.667 70.2957 565.589 73.4726 562.773Z" fill="#87CFE5" stroke="#0076B8" stroke-width="7"/>
<path d="M128.596 654.894C128.455 654.64 128.209 654.448 127.923 654.357C127.637 654.266 127.334 654.283 127.072 654.407C126.81 654.532 126.606 654.757 126.497 655.037C126.388 655.316 126.382 655.627 126.49 655.898C126.724 656.479 126.953 657.041 127.196 657.618C131.127 668.012 138.989 677.595 148.412 683.945C148.936 684.319 149.435 684.671 149.966 685.036C151.172 683.038 152.376 681.04 153.582 679.042C153.043 678.763 152.535 678.496 152.004 678.21C142.48 673.339 134.744 666.15 129.495 656.479C129.19 655.949 128.896 655.431 128.596 654.894Z" fill="#0074AB"/>
<path d="M109.823 669.63C109.656 669.386 109.388 669.215 109.089 669.146C108.789 669.078 108.484 669.119 108.228 669.266C107.972 669.414 107.783 669.658 107.693 669.95C107.601 670.243 107.616 670.561 107.743 670.828C107.976 671.313 108.196 671.77 108.436 672.252C112.423 680.818 118.692 688.818 125.545 695.371C125.926 695.749 126.291 696.11 126.674 696.486C127.356 697.158 128.259 697.508 129.211 697.427C130.162 697.346 131.084 696.841 131.747 696.054C132.41 695.268 132.753 694.273 132.672 693.323C132.592 692.371 132.094 691.54 131.316 690.982C130.889 690.674 130.483 690.382 130.06 690.074C122.472 684.734 115.951 678.668 110.707 670.907C110.405 670.475 110.121 670.067 109.823 669.63Z" fill="#007BA4"/>
</g>
<defs>
<clipPath id="clip0_176_1312">
<rect width="476" height="786" fill="white"/>
</clipPath>
<clipPath id="clip1_176_1312">
<rect width="476" height="786" fill="white"/>
</clipPath>
<clipPath id="clip2_176_1312">
<rect width="151" height="90.1148" fill="white" transform="translate(94 695.885)"/>
</clipPath>
<clipPath id="clip3_176_1312">
<rect width="151" height="90.1148" fill="white" transform="matrix(-1 0 0 1 396.001 695.885)"/>
</clipPath>
<clipPath id="clip4_176_1312">
<rect width="76" height="149.19" fill="white" transform="matrix(-1 0 0 1 472 494.63)"/>
</clipPath>
<clipPath id="clip5_176_1312">
<rect width="196" height="148.189" fill="white" transform="translate(142 396)"/>
</clipPath>
</defs>
</svg>
