<svg width="476" height="786" viewBox="0 0 476 786" fill="none" xmlns="http://www.w3.org/2000/svg">
<g clip-path="url(#clip0_158_1558)">
<path d="M86.9296 16.7143C96.5345 11.8058 106.682 11.5524 117.15 15.7188C127.798 19.9572 138.925 28.8568 149.706 42.484C171.246 69.7073 190.39 114.534 201.105 172.941C203.797 197.451 207.515 221.975 210.903 244.675C214.315 267.526 217.378 288.445 218.81 305.947C220.262 323.711 219.917 336.908 217.187 344.843C215.87 348.67 214.243 350.541 212.698 351.426C211.21 352.28 208.76 352.81 204.48 351.727L201.386 350.945L199.008 353.076C195.786 355.965 194.143 356.089 193.632 356.04C193.139 355.992 191.842 355.603 189.746 352.806C187.689 350.061 185.529 345.873 183.134 340.141C180.765 334.471 178.317 327.671 175.575 319.89C164.678 288.966 149.647 243.897 118.755 204.259L118.539 203.982L118.293 203.733L115.425 200.807C55.8798 139.71 39.4621 98.8817 41.6354 71.5833C43.8011 44.3815 64.7521 28.0479 86.9296 16.7143Z" fill="#8BCDE5" stroke="#0E6B96" stroke-width="12"/>
<path d="M307.345 63.0001C329.956 36.7664 354.435 28.2455 371.981 33.7082C390.948 39.6138 410.17 56.4775 412.328 84.658C414.514 113.194 399.378 155.113 344.924 210.922L344.816 211.034L344.714 211.149C311.199 249.217 298.305 291.6 289.629 320.998C287.446 328.398 285.571 334.835 283.702 340.279C281.814 345.774 280.078 349.805 278.313 352.52C276.553 355.23 275.28 355.846 274.561 355.996C273.785 356.157 271.966 356.128 268.378 353.876L266.01 352.389L263.352 353.247C259.04 354.637 256.325 354.41 254.592 353.718C252.907 353.044 251.211 351.556 249.678 348.449C246.419 341.847 245.025 330.25 245.345 314.045C245.977 281.971 253.048 236.878 258.547 190.113C265.454 131.368 284.962 88.9707 307.345 63.0001Z" fill="#87CFE5" stroke="#0E6B96" stroke-width="12"/>
<path d="M237.5 334.426C339.975 334.426 423 416.937 423 518.661C423 620.384 339.975 702.895 237.5 702.895C135.025 702.895 52.0005 620.384 52.0005 518.661C52.0005 416.937 135.025 334.426 237.5 334.426Z" fill="#86D0E3" stroke="#0C74AB" stroke-width="7"/>
<path d="M364.501 646.824C330.001 685.874 266.001 701.394 241.001 698.89C134.001 704.898 53.5005 610.673 56.0005 517.159C57.5664 458.584 43.0005 596.76 182.001 655.836C256.501 693.383 364.501 646.824 364.501 646.824Z" fill="#37B4CA"/>
<path opacity="0.77" d="M173.5 393.501L182.5 381.987L195 370.972L202 366.967L208.5 364.965L212 368.469L215 372.474L217 378.482L208.5 380.985L196 387.994L187.5 393.501L179 401.511L175 397.006L173.5 393.501Z" fill="#004F80"/>
<path opacity="0.7" d="M264.5 357.956H272.5L280 359.458L288 362.462L298 366.968L306.5 371.974L305 379.483L295 376.98L283.5 374.477L274.5 372.975H267.5H259.5V365.966L261 360.96L264.5 357.956Z" fill="#014C83"/>
<g clip-path="url(#clip1_158_1558)">
<path d="M199 700.891C217.453 700.891 227.418 706.675 232.985 714.199C238.752 721.994 240.5 732.567 240.5 743.445C240.5 754.689 239.623 763.351 232.348 769.732C224.743 776.403 209.12 781.494 176.5 781.494C154.106 781.494 138.008 780.424 126.449 778.523C114.815 776.61 108.241 773.923 104.485 771.045C100.993 768.369 99.6442 765.306 99.1137 761.46C98.8339 759.432 98.7896 757.202 98.8315 754.653C98.8709 752.258 99.0004 749.257 99.0004 746.449C99.0004 742.955 101.71 738.187 108.265 732.613C114.594 727.232 123.607 721.877 134.018 717.118C154.892 707.577 180.368 700.891 199 700.891Z" fill="#87CFE5" stroke="#0178B2" stroke-width="9"/>
<path d="M235.614 730.881C246.614 773.936 213.16 778.991 174.5 778.991C135.84 778.991 114 775.987 108.5 768.978C95.5 762.97 149.114 767.928 177.114 764.925C262.114 764.925 216 687.875 235.614 730.881Z" fill="#31A7BA"/>
</g>
<g clip-path="url(#clip2_158_1558)">
<path d="M291.001 700.891C272.548 700.891 262.583 706.675 257.016 714.199C251.249 721.994 249.501 732.567 249.501 743.445C249.501 754.689 250.378 763.351 257.653 769.732C265.258 776.403 280.881 781.494 313.501 781.494C335.895 781.494 351.993 780.424 363.552 778.523C375.186 776.61 381.76 773.923 385.516 771.045C389.008 768.369 390.357 765.306 390.887 761.46C391.167 759.432 391.211 757.202 391.169 754.653C391.13 752.258 391.001 749.257 391.001 746.449C391.001 742.955 388.291 738.187 381.736 732.613C375.407 727.232 366.394 721.877 355.983 717.118C335.109 707.577 309.633 700.891 291.001 700.891Z" fill="#87CFE5" stroke="#0178B2" stroke-width="9"/>
<path d="M254.387 730.881C243.387 773.936 276.841 778.991 315.501 778.991C354.161 778.991 376.001 775.987 381.501 768.978C394.501 762.97 340.887 767.928 312.887 764.925C227.887 764.925 274.001 687.875 254.387 730.881Z" fill="#31A7BA"/>
</g>
<g clip-path="url(#clip3_158_1558)">
<path d="M193.5 431.549C218.481 431.549 239.5 455.778 239.5 485.618C239.5 502.455 236.057 515.942 228.772 525.17C221.589 534.268 210.302 539.687 193.5 539.687C168.615 539.687 149 516.052 149 485.618C149 455.184 168.615 431.549 193.5 431.549Z" fill="#FEFEFE" stroke="#0F79AB" stroke-width="6"/>
<path d="M288.176 404.515C301.85 404.515 314.49 412.127 323.821 424.786C333.149 437.44 339 454.951 339 474.104C339 495.678 335.187 513.118 327.027 525.086C319.002 536.858 306.53 543.692 288.176 543.692C274.506 543.692 262.294 536.238 253.386 523.693C244.469 511.135 239 493.617 239 474.104C239 454.59 244.469 437.073 253.386 424.514C262.294 411.97 274.506 404.515 288.176 404.515Z" fill="#FEFEFE" stroke="#0F79AB" stroke-width="6"/>
<path d="M241 549.7C252.046 549.7 261 540.062 261 528.172C261 516.283 252.046 506.645 241 506.645C229.955 506.645 221 516.283 221 528.172C221 540.062 229.955 549.7 241 549.7Z" fill="#ED6F7A"/>
<path d="M273.5 489.624C273.5 500.683 267.508 509.649 259.5 509.649C251.492 509.649 245 500.683 245 489.624C245 478.564 251.492 469.598 259.5 469.598C268.5 472.101 273.5 478.109 273.5 489.624Z" fill="#2B2A28"/>
<path d="M221.5 509.649C229.509 509.649 236 500.683 236 489.624C236 478.564 229.509 469.598 221.5 469.598C213.492 469.598 207 478.564 207 489.624C207 500.683 213.492 509.649 221.5 509.649Z" fill="#2B2A28"/>
<path d="M271 479.11C272 482.615 268.761 485.619 266 485.619C263.239 485.619 261 483.153 261 480.112C261 477.07 263.239 474.604 266 474.604C268.761 474.604 271 476.069 271 479.11Z" fill="#F9FAFB"/>
<path d="M233 479.11C234 482.615 230.762 485.619 228 485.619C225.239 485.619 223 483.153 223 480.112C223 477.07 225.239 474.604 228 474.604C230.762 474.604 233 476.069 233 479.11Z" fill="#F9FAFB"/>
</g>
<g clip-path="url(#clip4_158_1558)">
<path d="M62.0857 498.138C67.3398 498.815 69.4645 500.708 70.5213 503.074C71.8072 505.952 71.9222 510.361 71.1053 516.856C69.548 529.238 64.6902 547.96 64.6902 569.225V569.533L64.7439 569.837C67.5145 585.473 69.9139 599.417 69.1346 611.363C68.3868 622.825 64.7351 632.077 55.7566 639.009C42.5809 641.259 32.686 640.348 25.323 637.453C17.8795 634.527 12.744 629.467 9.30938 622.97C2.30366 609.715 2.37047 590.43 5.63848 571.835L5.66387 571.692L5.67657 571.549C7.2941 553.929 16.6393 535.424 28.3035 521.267C34.1148 514.214 40.4062 508.358 46.4314 504.296C52.4325 500.25 57.8413 498.202 62.0857 498.138Z" fill="#87CFE5" stroke="#0076B8" stroke-width="7"/>
<path d="M43.8178 604.062C43.8759 603.776 43.8145 603.471 43.6576 603.215C43.5001 602.959 43.2598 602.774 42.9793 602.698C42.6988 602.621 42.398 602.659 42.1327 602.8C41.868 602.941 41.6605 603.173 41.5662 603.449C41.3647 604.043 41.1721 604.619 40.9797 605.215C37.1836 615.672 36.8963 628.081 39.901 639.053C40.0545 639.679 40.2034 640.273 40.3672 640.897C42.5837 640.167 44.8003 639.437 47.0168 638.707C46.7908 638.143 46.5791 637.608 46.3633 637.045C42.3183 627.129 41.1399 616.621 43.4664 605.852C43.5798 605.25 43.6941 604.665 43.8178 604.062Z" fill="#0074AB"/>
<path d="M19.9754 602.993C20.0078 602.698 19.9166 602.393 19.7347 602.146C19.5521 601.899 19.2939 601.73 19.0038 601.675C18.7137 601.62 18.4117 601.682 18.1514 601.845C17.8918 602.008 17.6951 602.259 17.6175 602.544C17.4783 603.064 17.3473 603.555 17.214 604.077C14.6529 613.185 14.1899 623.351 15.1129 632.798C15.1558 633.334 15.1967 633.846 15.2424 634.382C15.321 635.338 15.7769 636.193 16.5522 636.753C17.325 637.312 18.3538 637.531 19.3699 637.366C20.386 637.202 21.2939 636.67 21.8517 635.897C22.4119 635.121 22.5761 634.165 22.3505 633.234C22.2276 632.722 22.1097 632.235 21.9899 631.725C19.7184 622.717 18.7297 613.854 19.8133 604.54C19.8659 604.015 19.9165 603.518 19.9754 602.993Z" fill="#007BA4"/>
</g>
<path fill-rule="evenodd" clip-rule="evenodd" d="M331.146 675.635C330.055 686.035 343.576 687.085 379.287 690.48C397.743 692.235 414.193 679.68 415.998 662.461C417.804 645.241 404.286 629.836 385.83 628.082C350.118 624.686 327.453 656.474 331.146 675.635Z" fill="#FF9425"/>
<path fill-rule="evenodd" clip-rule="evenodd" d="M331.541 635.73C331.493 635.923 331.384 655.08 331.384 655.08C331.384 655.08 415.214 666.486 415.998 662.46C419.308 645.458 404.296 629.733 385.829 628.081C316.279 621.86 333.23 628.964 331.541 635.73Z" fill="#FF8600"/>
<path d="M392.508 631.289C390.51 637.778 388.892 644.34 389.271 651.096" stroke="#EF6A00" stroke-width="5" stroke-miterlimit="10" stroke-linecap="round" stroke-linejoin="round"/>
<path d="M360.783 628.99C357.674 633 357.623 637.719 357.958 642.652" stroke="#EF6A00" stroke-width="5" stroke-miterlimit="10" stroke-linecap="round" stroke-linejoin="round"/>
<path fill-rule="evenodd" clip-rule="evenodd" d="M409.986 661.354C409.986 661.354 430.817 674.364 439.056 677.07C447.259 679.764 457.385 670.923 457.577 666.366C457.841 660.114 451.727 653.439 442.669 653.98C434.136 654.49 409.986 661.354 409.986 661.354Z" fill="#129447"/>
<path fill-rule="evenodd" clip-rule="evenodd" d="M410.08 661.229C410.08 661.229 417.663 668.675 421.983 678.412C424.387 683.829 422.18 691.235 424.473 694.879C427.22 699.245 431.847 702.643 435.708 699.552C439.567 696.461 439.545 690.324 438.292 682.988C436.1 670.15 415.073 662.797 410.08 661.229Z" fill="#00AA63"/>
<path fill-rule="evenodd" clip-rule="evenodd" d="M409.355 662.203C409.355 662.203 411.554 670.648 412.187 681.245C412.635 688.755 410.2 697.895 409.985 698.493C407.054 706.673 414.026 710.741 419.9 706.378C425.016 702.577 426.923 696.014 426.733 690.559C426.246 676.49 413.845 661.25 409.355 662.203Z" fill="#129447"/>
<path fill-rule="evenodd" clip-rule="evenodd" d="M409.356 662.202C409.356 662.202 417.279 656.018 422.887 647.353C426.006 642.532 424.86 634.764 427.624 631.666C430.936 627.954 435.966 625.598 439.339 629.47C442.712 633.341 441.474 641.385 439.585 646.338C435.039 658.268 414.093 663.153 409.356 662.202Z" fill="#00AA63"/>
<path fill-rule="evenodd" clip-rule="evenodd" d="M409.355 662.202C409.355 662.202 414.831 652.001 417.086 641.741C418.914 633.426 417.79 627.049 418.472 624.367C419.727 619.432 424.107 616.998 428.312 619.843C432.516 622.69 433.585 631.917 432.807 636.193C430.408 649.364 415.086 661.059 409.355 662.202Z" fill="#129447"/>
<path d="M373.588 672.147C370.454 677.296 369.634 683.455 369.348 687.443" stroke="#EF6A00" stroke-width="5" stroke-miterlimit="10" stroke-linecap="round" stroke-linejoin="round"/>
<path d="M335.006 665.114C332.662 669.202 331.96 674.478 331.681 677.926" stroke="#EF6A00" stroke-width="5" stroke-miterlimit="10" stroke-linecap="round" stroke-linejoin="round"/>
<path d="M328.482 672.215C327.396 668.728 336.903 668.561 330.451 668.966C334.592 669.246 336.062 667.316 334.885 669.942C330.72 676.087 337.505 679.252 333.365 681.339C330.244 679.437 330.772 679.567 328.482 672.215Z" fill="#FF9425"/>
<path d="M324.179 631.107C329.988 624.643 341.067 625.392 331.545 629.992C334.111 631.778 335.959 634.607 332.693 635.716C323.471 636.771 332.477 640.392 321.889 636.599C321.261 636.003 320.252 638.102 324.179 631.107Z" fill="#FF9221"/>
<path d="M323.208 662.503C324.408 661.777 320.861 663.151 325.963 661.479C330.183 661.764 332.623 659.448 332.473 661.665C332.323 663.883 341.273 667.757 327.875 667.255C324.164 671.038 325.859 674.379 323.208 662.503Z" fill="#C65104"/>
<path d="M324.329 668.629C325.529 667.903 321.603 663.664 324.79 661.803C329.01 662.088 333.759 665.366 333.609 667.583C333.459 669.801 330.086 668.614 328.668 672.552C338.496 686.124 327.334 680.932 324.329 668.629Z" fill="#C65104"/>
<path d="M321.759 655.547C323.56 652.293 323.163 652.49 326.818 651.049C330.754 651.315 334.722 653.011 334.404 655.782C333.443 664.157 330.494 661.004 327.26 662.051C322.198 666.773 323.386 660.721 321.759 655.547Z" fill="#C65104"/>
<path d="M321.533 636.172C323.334 632.918 322.17 633.102 325.825 631.662C329.761 631.928 333.729 633.623 333.411 636.394C332.45 644.77 329.501 641.616 326.267 642.664C321.205 647.386 321.214 647.444 321.533 636.172Z" fill="#C65104"/>
<path d="M321.326 645.435C323.127 642.181 322.73 642.378 326.385 640.937C330.321 641.203 334.289 642.898 333.971 645.669C333.009 654.045 330.394 654.059 327.161 655.106C322.099 659.828 320.62 655.874 321.326 645.435Z" fill="#C65104"/>
<path d="M333.739 680.8C333.912 680.811 334.274 680.653 334.701 680.176C335.699 679.064 334.314 677.517 334.039 676.388C333.763 675.259 333.488 674.135 332.994 672.991C332.759 672.448 332.773 671.683 332.955 670.911C333.256 669.641 334.798 668.956 335.461 667.661C335.768 667.061 336.028 666.45 335.938 665.844C335.778 664.765 334.057 664.471 333.384 663.315C332.799 662.309 333.024 660.16 333.656 658.575C334.235 657.124 334.698 656.194 334.78 655.647C334.978 654.323 333.497 653.25 332.541 652.399C332.069 651.978 332.059 651.029 332.254 650.073C332.614 648.308 334.273 646.838 334.792 645.714C335.049 645.16 333.798 644.859 333.388 644.418C332.568 643.53 332.764 641.929 332.889 639.401C332.977 637.618 334.123 636.111 334.513 634.884C334.85 633.824 333.469 632.828 332.886 631.679C332.619 631.152 332.566 630.547 332.558 629.993C333.28 629.023 334.106 628.524 334.57 628.142C334.763 627.923 334.868 627.656 335.501 627.416" stroke="#C65104" stroke-width="2" stroke-linecap="round"/>
<path d="M329.532 650.32C328.345 648.32 337.829 648.505 331.402 648.543C335.542 648.823 336.953 647.777 335.855 649.225C331.879 652.571 338.745 654.557 334.673 655.614C331.502 654.448 332.033 654.537 329.532 650.32Z" fill="#FF9425"/>
<path d="M326.477 665.165C326.52 664.526 326.339 663.612 326.251 662.156C326.183 661.026 325.531 660.139 325.23 659.117C324.983 658.229 324.664 657.497 324.514 657.005C324.471 656.712 324.496 656.33 324.523 655.937" stroke="#C65104" stroke-width="2" stroke-linecap="round"/>
<path d="M332.189 681.018C332.089 680.811 331.654 680.46 331.211 680.208C330.744 679.942 330.455 679.492 330.117 679.088C329.762 678.661 329.599 677.987 329.423 677.45C329.248 676.914 329.049 676.459 328.854 675.962C328.651 675.447 328.348 674.963 328.017 674.457C327.686 673.95 327.491 673.455 327.123 672.947C326.752 672.433 326.453 671.815 326.126 671.269C325.672 670.51 325.423 670.054 325.331 669.424C325.207 668.58 324.513 667.661 324.195 666.951C323.916 666.325 323.589 665.461 323.343 664.84C323.065 664.14 322.749 663.713 322.622 663.02C322.527 662.503 322.481 662.004 322.314 661.068C322.179 660.312 322.104 659.644 321.982 658.89C321.837 657.997 321.79 657.488 321.708 656.998C321.62 656.484 321.43 656.014 321.29 655.521C321.158 655.055 321.146 654.545 321.068 653.717C320.857 651.496 321.187 649.967 321.162 648.91C321.176 648.43 321.243 647.988 321.369 646.977C321.447 646.123 321.551 644.576 321.659 642.982" stroke="#FF8600" stroke-width="2" stroke-linecap="round"/>
<path d="M324.213 632.403C324.121 632.637 323.779 633.176 323.438 633.678C323.119 634.147 323.059 634.739 322.875 635.209C322.689 635.681 322.505 636.151 322.406 636.748C322.304 637.369 321.949 638.681 321.776 639.844C321.692 640.797 321.68 641.531 321.7 642.093C321.689 642.532 321.638 643.286 321.585 644.063" stroke="#FF8600" stroke-width="2" stroke-linecap="round"/>
<path d="M370.8 548.092C365.525 547.619 363.042 549.007 361.501 551.086C359.625 553.615 358.563 557.89 357.961 564.4C356.814 576.811 357.524 596.117 352.942 616.856L352.875 617.155L352.757 617.441C346.684 632.091 341.336 645.172 339.523 656.99C337.784 668.328 339.356 678.139 346.63 686.837C359.011 691.873 368.869 693.119 376.682 691.884C384.581 690.636 390.686 686.81 395.439 681.214C405.136 669.8 409.225 650.978 410.04 632.14L410.047 631.995L410.066 631.852C412.283 614.319 407.144 594.258 398.804 577.936C394.65 569.804 389.768 562.736 384.759 557.474C379.772 552.234 374.931 549.07 370.8 548.092Z" fill="#87CFE5" stroke="#0076B8" stroke-width="7"/>
<path d="M365.817 655.331C365.822 655.04 365.947 654.755 366.156 654.54C366.365 654.324 366.64 654.195 366.93 654.181C367.22 654.167 367.506 654.269 367.734 654.464C367.963 654.658 368.115 654.93 368.148 655.219C368.217 655.841 368.281 656.445 368.34 657.068C369.794 668.085 367.401 680.248 362.103 690.3C361.818 690.877 361.545 691.424 361.25 691.996C359.243 690.806 357.237 689.617 355.229 688.427C355.572 687.926 355.893 687.45 356.225 686.947C362.312 678.15 365.726 668.156 365.775 657.152C365.793 656.541 365.808 655.946 365.817 655.331Z" fill="#0074AB"/>
<path d="M389.329 659.432C389.361 659.138 389.516 658.86 389.746 658.658C389.978 658.457 390.266 658.348 390.561 658.357C390.857 658.366 391.138 658.491 391.357 658.706C391.576 658.921 391.714 659.208 391.728 659.504C391.752 660.041 391.774 660.548 391.791 661.086C392.331 670.519 390.592 680.533 387.655 689.548C387.498 690.061 387.348 690.552 387.188 691.064C386.905 691.979 386.275 692.715 385.398 693.093C384.522 693.473 383.471 693.464 382.514 693.085C381.558 692.705 380.785 691.991 380.407 691.115C380.028 690.238 380.073 689.271 380.495 688.411C380.725 687.939 380.945 687.489 381.172 687.018C385.33 678.723 388.205 670.294 389.154 660.976C389.215 660.452 389.273 659.958 389.329 659.432Z" fill="#007BA4"/>
<g clip-path="url(#clip5_158_1558)">
<path d="M145.218 543.981C144.683 543.392 143.936 543.041 143.141 543.004C142.346 542.966 141.569 543.246 140.981 543.782C140.392 544.317 140.041 545.065 140.003 545.859C139.966 546.654 140.246 547.431 140.782 548.02C143.405 550.902 146.198 553.632 149.13 556.197C203.771 601.972 288.849 595.306 341.959 550.893C344.945 548.411 347.79 545.86 350.586 543.156C351.158 542.603 351.486 541.845 351.5 541.05C351.513 540.254 351.209 539.486 350.656 538.914C350.103 538.342 349.345 538.014 348.55 538C347.754 537.987 346.986 538.291 346.414 538.844C343.728 541.442 340.994 543.893 338.125 546.278C287.242 589.061 204.618 595.128 153.081 551.682C150.315 549.261 147.685 546.691 145.218 543.981Z" fill="#076FA2"/>
<path d="M210.668 585.963L210.736 585.979L210.806 585.987L222.306 587.487L222.365 587.495L222.425 587.498L232.425 587.998L232.463 588H240.5V607.916L240.08 611.48L236.175 614.735L232.582 616.531L227.429 617H222.701L217.614 615.612L212.471 612.339L207.285 606.682L203.918 598.506L201.5 590.282V583.879L210.668 585.963Z" fill="#FEFEFE" stroke="#0578A5" stroke-width="3"/>
<path d="M269.38 585.723L269.312 585.738L269.241 585.748L258.837 587.104L258.777 587.111L258.718 587.114L249.67 587.566L249.633 587.568H242.5V605.422L242.873 608.579L246.349 611.474L249.561 613.079L254.19 613.5H258.441L263.007 612.255L267.626 609.318L272.287 604.236L275.319 596.878L277.5 589.467V583.878L269.38 585.723Z" fill="#FEFEFE" stroke="#0875A4" stroke-width="3"/>
</g>
</g>
<defs>
<clipPath id="clip0_158_1558">
<rect width="476" height="786" fill="white"/>
</clipPath>
<clipPath id="clip1_158_1558">
<rect width="151" height="90.1148" fill="white" transform="translate(94 695.885)"/>
</clipPath>
<clipPath id="clip2_158_1558">
<rect width="151" height="90.1148" fill="white" transform="matrix(-1 0 0 1 396.001 695.885)"/>
</clipPath>
<clipPath id="clip3_158_1558">
<rect width="196" height="148.189" fill="white" transform="translate(146 401.511)"/>
</clipPath>
<clipPath id="clip4_158_1558">
<rect width="76" height="149.19" fill="white" transform="translate(0 494.63)"/>
</clipPath>
<clipPath id="clip5_158_1558">
<rect width="212" height="81" fill="white" transform="translate(140 538)"/>
</clipPath>
</defs>
</svg>
