<svg width="476" height="786" viewBox="0 0 476 786" fill="none" xmlns="http://www.w3.org/2000/svg">
<g clip-path="url(#clip0_176_1124)">
<path d="M86.9297 16.7143C96.5345 11.8058 106.682 11.5524 117.15 15.7188C127.798 19.9572 138.925 28.8568 149.706 42.484C171.246 69.7073 190.39 114.534 201.105 172.941C203.797 197.451 207.515 221.975 210.903 244.675C214.315 267.526 217.378 288.445 218.81 305.946C220.262 323.711 219.917 336.908 217.187 344.843C215.87 348.67 214.243 350.541 212.698 351.426C211.21 352.28 208.76 352.81 204.48 351.727L201.386 350.945L199.008 353.076C195.786 355.965 194.143 356.089 193.632 356.04C193.139 355.992 191.842 355.603 189.746 352.806C187.689 350.061 185.529 345.873 183.134 340.141C180.765 334.471 178.317 327.671 175.575 319.89C164.678 288.966 149.647 243.897 118.755 204.259L118.539 203.982L118.293 203.733L115.425 200.807C55.8798 139.71 39.4621 98.8817 41.6354 71.5833C43.8011 44.3815 64.7521 28.0479 86.9297 16.7143Z" fill="#8BCDE5" stroke="#0E6B96" stroke-width="12"/>
<path d="M307.345 63.0001C329.956 36.7664 354.435 28.2455 371.981 33.7082C390.948 39.6138 410.17 56.4775 412.328 84.658C414.514 113.194 399.378 155.113 344.924 210.922L344.816 211.034L344.714 211.149C311.199 249.217 298.305 291.6 289.629 320.998C287.446 328.398 285.571 334.835 283.702 340.279C281.814 345.774 280.078 349.805 278.313 352.52C276.553 355.23 275.28 355.846 274.561 355.996C273.785 356.157 271.966 356.128 268.378 353.876L266.01 352.389L263.352 353.247C259.04 354.637 256.325 354.41 254.592 353.718C252.907 353.044 251.211 351.556 249.678 348.449C246.419 341.847 245.025 330.25 245.345 314.045C245.977 281.971 253.048 236.878 258.547 190.113C265.454 131.368 284.962 88.9707 307.345 63.0001Z" fill="#87CFE5" stroke="#0E6B96" stroke-width="12"/>
<path d="M237.5 334.426C339.975 334.426 423 416.937 423 518.661C423 620.384 339.975 702.895 237.5 702.895C135.025 702.895 52.0005 620.384 52.0005 518.661C52.0005 416.937 135.025 334.426 237.5 334.426Z" fill="#86D0E3" stroke="#0C74AB" stroke-width="7"/>
<path d="M364.501 646.824C330.001 685.874 266.001 701.394 241.001 698.89C134.001 704.898 53.5005 610.673 56.0005 517.159C57.5664 458.584 43.0005 596.76 182.001 655.836C256.501 693.383 364.501 646.824 364.501 646.824Z" fill="#37B4CA"/>
<path opacity="0.77" d="M173.5 393.501L182.5 381.987L195 370.972L202 366.967L208.5 364.965L212 368.469L215 372.474L217 378.482L208.5 380.985L196 387.994L187.5 393.501L179 401.511L175 397.006L173.5 393.501Z" fill="#004F80"/>
<path opacity="0.7" d="M264.5 357.956H272.5L280 359.458L288 362.462L298 366.968L306.5 371.974L305 379.483L295 376.98L283.5 374.477L274.5 372.975H267.5H259.5V365.966L261 360.96L264.5 357.956Z" fill="#014C83"/>
<g clip-path="url(#clip1_176_1124)">
<path d="M199 700.892C217.453 700.892 227.418 706.676 232.985 714.2C238.752 721.995 240.5 732.568 240.5 743.446C240.5 754.69 239.623 763.351 232.348 769.732C224.743 776.403 209.12 781.494 176.5 781.494C154.106 781.494 138.008 780.425 126.449 778.524C114.815 776.61 108.241 773.924 104.485 771.045C100.993 768.37 99.6442 765.307 99.1137 761.461C98.8339 759.432 98.7896 757.202 98.8315 754.653C98.8709 752.258 99.0004 749.258 99.0004 746.45C99.0004 742.955 101.71 738.187 108.265 732.614C114.594 727.233 123.607 721.877 134.018 717.118C154.892 707.578 180.368 700.892 199 700.892Z" fill="#87CFE5" stroke="#0178B2" stroke-width="9"/>
<path d="M235.614 730.881C246.614 773.936 213.16 778.99 174.5 778.99C135.84 778.99 114 775.987 108.5 768.978C95.5 762.97 149.114 767.928 177.114 764.924C262.114 764.924 216 687.874 235.614 730.881Z" fill="#31A7BA"/>
</g>
<g clip-path="url(#clip2_176_1124)">
<path d="M291.001 700.892C272.548 700.892 262.583 706.676 257.016 714.2C251.249 721.995 249.501 732.568 249.501 743.446C249.501 754.69 250.378 763.351 257.653 769.732C265.258 776.403 280.881 781.494 313.501 781.494C335.895 781.494 351.993 780.425 363.552 778.524C375.186 776.61 381.76 773.924 385.516 771.045C389.008 768.37 390.357 765.307 390.887 761.461C391.167 759.432 391.211 757.202 391.169 754.653C391.13 752.258 391.001 749.258 391.001 746.45C391.001 742.955 388.291 738.187 381.736 732.614C375.407 727.233 366.394 721.877 355.983 717.118C335.109 707.578 309.633 700.892 291.001 700.892Z" fill="#87CFE5" stroke="#0178B2" stroke-width="9"/>
<path d="M254.387 730.881C243.387 773.936 276.841 778.99 315.501 778.99C354.161 778.99 376.001 775.987 381.501 768.978C394.501 762.97 340.887 767.928 312.887 764.924C227.887 764.924 274.001 687.874 254.387 730.881Z" fill="#31A7BA"/>
</g>
<g clip-path="url(#clip3_176_1124)">
<path d="M413.914 498.138C408.66 498.815 406.535 500.708 405.479 503.074C404.193 505.952 404.078 510.361 404.895 516.856C406.452 529.238 411.31 547.96 411.31 569.225V569.533L411.256 569.837C408.485 585.473 406.086 599.417 406.865 611.363C407.613 622.825 411.265 632.077 420.243 639.009C433.419 641.259 443.314 640.348 450.677 637.453C458.12 634.527 463.256 629.467 466.691 622.97C473.696 609.715 473.63 590.43 470.362 571.835L470.336 571.692L470.323 571.549C468.706 553.929 459.361 535.424 447.696 521.267C441.885 514.214 435.594 508.358 429.569 504.296C423.567 500.25 418.159 498.202 413.914 498.138Z" fill="#87CFE5" stroke="#0076B8" stroke-width="7"/>
<path d="M432.182 604.061C432.124 603.776 432.186 603.47 432.342 603.214C432.5 602.959 432.74 602.773 433.021 602.697C433.301 602.62 433.602 602.658 433.867 602.8C434.132 602.941 434.34 603.173 434.434 603.448C434.635 604.042 434.828 604.619 435.02 605.215C438.816 615.672 439.104 628.081 436.099 639.053C435.946 639.679 435.797 640.272 435.633 640.896C433.416 640.166 431.2 639.436 428.983 638.706C429.209 638.143 429.421 637.608 429.637 637.044C433.682 627.129 434.86 616.62 432.534 605.851C432.42 605.25 432.306 604.665 432.182 604.061Z" fill="#0074AB"/>
<path d="M456.025 602.992C455.992 602.697 456.083 602.392 456.265 602.145C456.448 601.898 456.706 601.729 456.996 601.674C457.286 601.619 457.588 601.681 457.849 601.844C458.108 602.007 458.305 602.258 458.383 602.543C458.522 603.063 458.653 603.554 458.786 604.076C461.347 613.184 461.81 623.35 460.887 632.797C460.844 633.333 460.803 633.845 460.758 634.381C460.679 635.337 460.223 636.192 459.448 636.752C458.675 637.311 457.646 637.53 456.63 637.365C455.614 637.201 454.706 636.67 454.148 635.896C453.588 635.12 453.424 634.164 453.65 633.233C453.772 632.721 453.89 632.234 454.01 631.724C456.282 622.716 457.27 613.853 456.187 604.539C456.134 604.014 456.084 603.517 456.025 602.992Z" fill="#007BA4"/>
</g>
<path d="M347.822 532.667L347.696 533.087L347.696 533.525C347.695 548.262 338.798 577.727 318.297 601.632C298.003 625.295 266.479 643.361 221.017 636.179C182.734 621.23 166.186 597.852 158.257 577.594C154.257 567.373 152.423 557.874 151.151 550.446C150.727 547.964 150.351 545.637 149.975 543.607C154.266 546.353 159.456 549.474 165.346 552.643C189.643 565.713 226.6 580.03 261.549 571.354C294.385 571.235 319.277 555.428 334.786 543.257C338.682 540.199 342.004 537.356 344.696 535.056C345.926 534.005 346.995 533.095 347.917 532.33C347.886 532.44 347.856 532.553 347.822 532.667Z" fill="#D20223" stroke="#076FA2" stroke-width="6"/>
<path d="M148.199 533.981C147.666 533.392 146.921 533.041 146.129 533.004C145.337 532.966 144.563 533.246 143.977 533.782C143.391 534.317 143.04 535.065 143.003 535.859C142.966 536.654 143.245 537.431 143.779 538.02C146.393 540.902 149.175 543.631 152.096 546.197C206.535 591.972 291.298 585.306 344.212 540.893C347.187 538.411 350.021 535.86 352.807 533.156C353.377 532.603 353.703 531.845 353.717 531.05C353.73 530.254 353.427 529.486 352.877 528.914C352.326 528.342 351.57 528.014 350.778 528C349.985 527.987 349.22 528.291 348.65 528.844C345.974 531.442 343.25 533.893 340.392 536.278C289.697 579.061 207.378 585.128 156.033 541.682C153.277 539.261 150.657 536.691 148.199 533.981Z" fill="#076FA2"/>
<path d="M212.41 574.963L212.478 574.979L212.548 574.987L224.005 576.487L224.064 576.495L224.124 576.498L234.087 576.998L234.125 577L242.132 577L242.132 596.916L241.714 600.48L237.823 603.735L234.243 605.531L229.109 606L224.399 606L219.331 604.612L214.206 601.339L209.04 595.682L205.685 587.506L203.276 579.282L203.276 572.879L212.41 574.963Z" fill="#FEFEFE" stroke="#0578A5" stroke-width="3"/>
<path d="M270.905 574.723L270.837 574.738L270.767 574.748L260.401 576.104L260.341 576.111L260.283 576.114L251.268 576.566L251.231 576.568L244.125 576.568L244.125 594.422L244.496 597.579L247.959 600.474L251.159 602.079L255.771 602.5L260.007 602.5L264.556 601.255L269.158 598.318L273.801 593.236L276.822 585.878L278.995 578.467L278.995 572.878L270.905 574.723Z" fill="#FEFEFE" stroke="#0875A4" stroke-width="3"/>
<path d="M311.374 605.073C303.902 614.073 281.983 627.073 263.552 632.573C244.622 634.073 246.117 638.305 246.117 630.573C258.072 614.073 271.024 601.073 314.861 599.073C319.345 599.073 316.356 599.073 311.374 605.073Z" fill="#FF1863"/>
<path fill-rule="evenodd" clip-rule="evenodd" d="M198.834 624.957C205.598 632.932 195.024 641.422 167.443 664.36C153.19 676.215 132.525 675.12 121.326 661.916C110.126 648.712 112.605 628.367 126.859 616.513C154.44 593.575 191.082 607.05 198.834 624.957Z" fill="#FF9425"/>
<path fill-rule="evenodd" clip-rule="evenodd" d="M176.009 592.221C176.157 592.353 187.048 608.114 187.048 608.114C187.048 608.114 124.242 664.797 121.325 661.914C109.006 649.739 112.539 628.287 126.859 616.511C180.794 572.161 170.799 587.585 176.009 592.221Z" fill="#FF8600"/>
<path d="M123.152 622.926C128.46 627.159 133.497 631.667 136.993 637.46" stroke="#EF6A00" stroke-width="5" stroke-miterlimit="10" stroke-linecap="round" stroke-linejoin="round"/>
<path d="M148.058 603.141C152.887 604.7 155.589 608.57 158.093 612.832" stroke="#EF6A00" stroke-width="5" stroke-miterlimit="10" stroke-linecap="round" stroke-linejoin="round"/>
<path fill-rule="evenodd" clip-rule="evenodd" d="M125.667 657.612C125.667 657.612 115.798 680.102 110.518 686.981C105.263 693.831 91.9147 692.239 89.1865 688.583C85.444 683.568 86.7299 674.608 94.516 669.948C101.851 665.558 125.667 657.612 125.667 657.612Z" fill="#129447"/>
<path fill-rule="evenodd" clip-rule="evenodd" d="M125.519 657.562C125.519 657.562 123.454 667.987 125.375 678.464C126.444 684.294 132.442 689.166 132.603 693.468C132.796 698.623 130.89 704.038 125.959 703.662C121.029 703.285 117.587 698.204 114.486 691.439C109.058 679.599 122.279 661.672 125.519 657.562Z" fill="#00AA63"/>
<path fill-rule="evenodd" clip-rule="evenodd" d="M126.667 657.957C126.667 657.957 129.613 666.172 135.064 675.28C138.929 681.736 146.093 687.912 146.607 688.285C153.64 693.388 150.175 700.679 142.863 700.387C136.495 700.132 131.22 695.787 128.301 691.174C120.772 679.28 122.422 659.702 126.667 657.957Z" fill="#129447"/>
<path fill-rule="evenodd" clip-rule="evenodd" d="M126.666 657.956C126.666 657.956 116.636 657.316 107.119 653.32C101.825 651.098 98.3912 644.035 94.3622 643.036C89.5333 641.837 84.0517 642.727 83.4483 647.826C82.8449 652.925 88.4026 658.871 92.7552 661.897C103.236 669.187 123.29 661.413 126.666 657.956Z" fill="#00AA63"/>
<path fill-rule="evenodd" clip-rule="evenodd" d="M126.667 657.956C126.667 657.956 116.393 652.618 108.746 645.416C102.548 639.579 99.8814 633.678 97.8058 631.847C93.9871 628.479 88.997 628.938 87.1286 633.659C85.2607 638.38 89.5802 646.604 92.6335 649.696C102.04 659.222 121.289 660.243 126.667 657.956Z" fill="#129447"/>
<path d="M161.813 646.004C167.305 648.49 171.455 653.115 173.94 656.247" stroke="#EF6A00" stroke-width="5" stroke-miterlimit="10" stroke-linecap="round" stroke-linejoin="round"/>
<path d="M189.714 618.444C193.955 620.499 197.509 624.461 199.684 627.151" stroke="#EF6A00" stroke-width="5" stroke-miterlimit="10" stroke-linecap="round" stroke-linejoin="round"/>
<path d="M199.106 620.63C198.037 617.138 190.091 622.36 195.648 619.057C192.385 621.623 190.083 620.857 192.536 622.363C199.44 625.09 195.621 631.529 200.217 630.919C201.723 627.588 201.36 627.993 199.106 620.63Z" fill="#FF9425"/>
<path d="M179.484 584.252C171.041 582.188 162.313 589.053 172.77 587.484C171.659 590.406 171.728 593.785 175.05 592.859C183.261 588.531 177.864 596.599 184.471 587.497C184.654 586.651 186.67 587.815 179.484 584.252Z" fill="#FF9221"/>
<path d="M197.986 609.634C196.586 609.712 200.289 608.847 195.133 610.342C191.809 612.957 188.488 612.419 189.862 614.166C191.236 615.913 186.028 624.16 196.811 616.191C202.008 617.223 202.493 620.938 197.986 609.634Z" fill="#C65104"/>
<path d="M200.515 615.326C199.114 615.404 199.966 609.689 196.285 609.949C192.961 612.564 190.886 617.949 192.26 619.696C193.634 621.443 195.752 618.561 199.142 621.014C198.677 637.764 204.969 627.183 200.515 615.326Z" fill="#C65104"/>
<path d="M195.261 603.074C191.939 601.401 192.378 601.34 188.547 602.211C185.446 604.65 183.125 608.287 184.95 610.397C190.466 616.772 191.124 612.505 194.385 611.547C201.229 612.592 196.835 608.264 195.261 603.074Z" fill="#C65104"/>
<path d="M184.524 586.944C181.202 585.271 182.267 584.767 178.436 585.638C175.335 588.077 173.014 591.715 174.839 593.824C180.355 600.2 181.013 595.932 184.274 594.974C191.118 596.02 191.143 596.074 184.524 586.944Z" fill="#C65104"/>
<path d="M189.918 594.477C186.596 592.805 187.035 592.744 183.204 593.614C180.103 596.053 177.781 599.691 179.606 601.8C185.122 608.175 187.29 606.713 190.551 605.755C197.394 606.801 196.386 602.701 189.918 594.477Z" fill="#C65104"/>
<path d="M199.604 630.684C199.467 630.792 199.079 630.865 198.457 630.712C197.006 630.356 197.278 628.298 196.869 627.21C196.461 626.122 196.054 625.039 195.817 623.816C195.704 623.234 195.262 622.61 194.676 622.075C193.711 621.196 192.052 621.5 190.774 620.804C190.182 620.481 189.623 620.123 189.356 619.572C188.879 618.591 190.135 617.378 190.039 616.044C189.955 614.883 188.557 613.235 187.142 612.282C185.846 611.41 184.94 610.903 184.563 610.498C183.653 609.515 184.272 607.795 184.581 606.553C184.734 605.939 184.207 605.149 183.507 604.47C182.214 603.216 180.015 602.936 178.953 602.3C178.429 601.988 179.292 601.034 179.382 600.438C179.559 599.243 178.494 598.031 176.965 596.013C175.888 594.59 174.091 593.992 173.077 593.198C172.201 592.513 172.781 590.912 172.614 589.634C172.537 589.049 172.24 588.518 171.935 588.057C170.791 587.663 169.828 587.716 169.229 587.662C168.946 587.591 168.709 587.429 168.051 587.588" stroke="#C65104" stroke-width="2" stroke-linecap="round"/>
<path d="M185.894 603.139C185.746 600.818 178.018 606.318 183.348 602.726C180.086 605.291 178.331 605.223 180.054 605.8C185.224 606.322 180.674 611.833 184.633 610.41C186.594 607.66 186.206 608.032 185.894 603.139Z" fill="#FF9425"/>
<path d="M196.788 613.677C196.391 613.174 196.026 612.316 195.277 611.065C194.697 610.092 194.735 608.993 194.408 607.979C194.111 607.106 193.962 606.322 193.808 605.831C193.679 605.564 193.442 605.264 193.199 604.954" stroke="#C65104" stroke-width="2" stroke-linecap="round"/>
<path d="M201.007 629.99C200.973 629.762 201.135 629.228 201.359 628.77C201.594 628.287 201.579 627.753 201.63 627.228C201.683 626.675 201.438 626.027 201.281 625.484C201.122 624.943 201.031 624.455 200.912 623.935C200.788 623.395 200.766 622.824 200.753 622.219C200.741 621.615 200.624 621.095 200.641 620.468C200.658 619.835 200.556 619.155 200.518 618.52C200.466 617.637 200.414 617.12 200.135 616.548C199.762 615.781 199.816 614.631 199.678 613.865C199.557 613.191 199.339 612.293 199.193 611.641C199.028 610.906 199.048 610.375 198.762 609.732C198.548 609.251 198.306 608.813 197.916 607.945C197.601 607.245 197.286 606.652 196.962 605.96C196.578 605.14 196.329 604.694 196.122 604.243C195.904 603.769 195.796 603.273 195.634 602.787C195.48 602.328 195.203 601.9 194.801 601.172C193.722 599.219 192.588 598.142 192.012 597.255C191.731 596.867 191.426 596.539 190.752 595.775C190.206 595.114 189.247 593.895 188.26 592.639" stroke="#FF8600" stroke-width="2" stroke-linecap="round"/>
<path d="M180.186 585.342C180.394 585.483 180.98 585.735 181.545 585.958C182.073 586.166 182.456 586.62 182.874 586.905C183.293 587.19 183.71 587.474 184.128 587.911C184.563 588.367 185.595 589.251 186.394 590.113C187.001 590.853 187.425 591.453 187.725 591.927C187.982 592.285 188.449 592.879 188.93 593.49" stroke="#FF8600" stroke-width="2" stroke-linecap="round"/>
<path d="M94.1747 541.975C98.2651 538.609 101.098 538.356 103.543 539.204C106.519 540.236 109.806 543.167 113.973 548.205C121.918 557.808 132.216 574.153 147.693 588.699L147.917 588.909L148.175 589.078C161.451 597.753 173.243 605.542 181.403 614.281C189.232 622.665 193.465 631.654 192.361 642.938C184.975 654.078 177.535 660.665 170.386 664.05C163.159 667.473 155.96 667.755 148.879 665.813C134.435 661.853 120.446 648.614 109.151 633.514L109.064 633.398L108.968 633.291C97.2525 620.06 90.1857 600.594 87.8716 582.411C86.7178 573.353 86.7654 564.763 87.9351 557.593C89.1001 550.454 91.3141 545.111 94.1747 541.975Z" fill="#87CFE5" stroke="#0076B8" stroke-width="7"/>
<path d="M158.751 627.735C158.583 627.497 158.319 627.333 158.025 627.273C157.73 627.212 157.431 627.261 157.184 627.413C156.937 627.565 156.758 627.81 156.679 628.099C156.6 628.389 156.627 628.699 156.763 628.956C157.057 629.509 157.344 630.044 157.647 630.592C162.657 640.511 171.491 649.207 181.534 654.522C182.095 654.839 182.628 655.136 183.195 655.443C184.182 653.328 185.168 651.214 186.155 649.1C185.59 648.879 185.056 648.668 184.498 648.439C174.511 644.605 166.057 638.276 159.813 629.216C159.453 628.721 159.106 628.238 158.751 627.735Z" fill="#0074AB"/>
<path d="M141.645 644.377C141.453 644.152 141.168 644.01 140.864 643.974C140.559 643.938 140.259 644.011 140.021 644.184C139.782 644.358 139.62 644.621 139.561 644.921C139.501 645.222 139.549 645.537 139.704 645.789C139.986 646.246 140.254 646.677 140.543 647.131C145.416 655.227 152.498 662.517 160.006 668.307C160.425 668.642 160.826 668.963 161.247 669.296C161.996 669.892 162.931 670.144 163.869 669.963C164.806 669.782 165.67 669.182 166.246 668.329C166.822 667.477 167.057 666.452 166.876 665.515C166.695 664.577 166.112 663.804 165.279 663.331C164.823 663.07 164.387 662.823 163.934 662.562C155.824 658.055 148.697 652.715 142.66 645.554C142.314 645.156 141.987 644.78 141.645 644.377Z" fill="#007BA4"/>
<g clip-path="url(#clip4_176_1124)">
<path d="M197.5 432.038C222.48 432.038 243.5 456.267 243.5 486.107C243.5 502.943 240.056 516.431 232.771 525.658C225.589 534.757 214.302 540.176 197.5 540.176C172.614 540.176 153 516.541 153 486.107C153 455.673 172.614 432.038 197.5 432.038Z" fill="#FEFEFE" stroke="#0F79AB" stroke-width="6"/>
<path d="M292.176 405.004C305.85 405.004 318.49 412.616 327.821 425.275C337.149 437.929 343 455.44 343 474.593C343 496.167 339.187 513.606 331.027 525.575C323.002 537.347 310.53 544.181 292.176 544.181C278.506 544.181 266.294 536.727 257.386 524.182C248.468 511.624 243 494.106 243 474.593C243 455.079 248.468 437.561 257.386 425.003C266.294 412.458 278.506 405.004 292.176 405.004Z" fill="#FEFEFE" stroke="#0F79AB" stroke-width="6"/>
<path d="M245 550.189C256.046 550.189 265 540.55 265 528.661C265 516.772 256.046 507.134 245 507.134C233.954 507.134 225 516.772 225 528.661C225 540.55 233.954 550.189 245 550.189Z" fill="#ED6F7A"/>
<path d="M277.5 490.112C277.5 501.172 271.508 510.138 263.5 510.138C255.492 510.138 249 501.172 249 490.112C249 479.053 255.492 470.087 263.5 470.087C272.5 472.59 277.5 478.598 277.5 490.112Z" fill="#2B2A28"/>
<path d="M225.5 510.138C233.508 510.138 240 501.172 240 490.112C240 479.053 233.508 470.087 225.5 470.087C217.492 470.087 211 479.053 211 490.112C211 501.172 217.492 510.138 225.5 510.138Z" fill="#2B2A28"/>
<path d="M275 479.599C276 483.103 272.761 486.107 270 486.107C267.239 486.107 265 483.641 265 480.6C265 477.558 267.239 475.093 270 475.093C272.761 475.093 275 476.557 275 479.599Z" fill="#F9FAFB"/>
<path d="M237 479.599C238 483.103 234.761 486.107 232 486.107C229.239 486.107 227 483.641 227 480.6C227 477.558 229.239 475.093 232 475.093C234.761 475.093 237 476.557 237 479.599Z" fill="#F9FAFB"/>
</g>
</g>
<defs>
<clipPath id="clip0_176_1124">
<rect width="476" height="786" fill="white"/>
</clipPath>
<clipPath id="clip1_176_1124">
<rect width="151" height="90.1148" fill="white" transform="translate(94 695.885)"/>
</clipPath>
<clipPath id="clip2_176_1124">
<rect width="151" height="90.1148" fill="white" transform="matrix(-1 0 0 1 396.001 695.885)"/>
</clipPath>
<clipPath id="clip3_176_1124">
<rect width="76" height="149.19" fill="white" transform="matrix(-1 0 0 1 476 494.63)"/>
</clipPath>
<clipPath id="clip4_176_1124">
<rect width="196" height="148.189" fill="white" transform="translate(150 402)"/>
</clipPath>
</defs>
</svg>
