<svg width="476" height="786" viewBox="0 0 476 786" fill="none" xmlns="http://www.w3.org/2000/svg">
<g clip-path="url(#clip0_183_1782)">
<path d="M175.948 51.7512C156.59 22.6515 121.452 267.857 89.5 270.5C23 276 -1.69827 79.8539 69.3488 61.0981C297 0.999996 73.9744 133.579 121.452 196.24L121.545 196.365L121.633 196.492C150.421 238.803 158.263 283.011 163.438 313.643C164.739 321.354 165.847 328.058 167.066 333.761C168.297 339.518 169.548 343.783 170.981 346.727C172.411 349.664 173.6 350.436 174.296 350.672C175.046 350.926 176.853 351.113 180.673 349.271L183.193 348.055L185.729 349.235C189.841 351.146 192.559 351.24 194.358 350.748C196.107 350.27 197.961 348.973 199.843 346.027C203.844 339.765 206.577 328.254 208.149 311.898C211.261 279.527 209.508 233.281 209.508 185.539C209.508 125.566 195.111 80.5589 175.948 51.7512Z" fill="#87CFE5" stroke="#0E6B96" stroke-width="12"/>
<path d="M237.5 335C339.975 335 423 417.406 423 519C423 620.594 339.975 703 237.5 703C135.025 703 52 620.594 52 519C52 417.406 135.025 335 237.5 335Z" fill="#86D0E3" stroke="#0C74AB" stroke-width="7"/>
<path d="M364.5 647C330 686 266 701.5 241 699C134 705 53.5 610.895 56 517.5C57.566 459 43 597 182 656C256.5 693.5 364.5 647 364.5 647Z" fill="#37B4CA"/>
<path opacity="0.77" d="M173.5 394L182.5 382.5L195 371.5L202 367.5L208.5 365.5L212 369L215 373L217 379L208.5 381.5L196 388.5L187.5 394L179 402L175 397.5L173.5 394Z" fill="#004F80"/>
<path opacity="0.7" d="M264.5 358.5H272.5L280 360L288 363L298 367.5L306.5 372.5L305 380L295 377.5L283.5 375L274.5 373.5H267.5H259.5V366.5L261 361.5L264.5 358.5Z" fill="#014C83"/>
<g clip-path="url(#clip1_183_1782)">
<path d="M193.5 432.038C218.48 432.038 239.5 456.267 239.5 486.107C239.5 502.944 236.056 516.431 228.771 525.659C221.589 534.757 210.302 540.176 193.5 540.176C168.614 540.176 149 516.541 149 486.107C149 455.673 168.614 432.038 193.5 432.038Z" fill="#FEFEFE" stroke="#0F79AB" stroke-width="6"/>
<path d="M288.176 405.004C301.85 405.004 314.49 412.616 323.821 425.275C333.149 437.929 339 455.44 339 474.592C339 496.166 335.187 513.606 327.027 525.574C319.002 537.346 306.53 544.181 288.176 544.181C274.506 544.181 262.294 536.727 253.386 524.182C244.468 511.624 239 494.106 239 474.592C239 455.079 244.468 437.561 253.386 425.003C262.294 412.458 274.506 405.004 288.176 405.004Z" fill="#FEFEFE" stroke="#0F79AB" stroke-width="6"/>
<path d="M241 550.189C252.046 550.189 261 540.551 261 528.661C261 516.772 252.046 507.134 241 507.134C229.954 507.134 221 516.772 221 528.661C221 540.551 229.954 550.189 241 550.189Z" fill="#ED6F7A"/>
<path d="M273.5 490.112C273.5 501.172 267.508 510.138 259.5 510.138C251.492 510.138 245 501.172 245 490.112C245 479.052 251.492 470.087 259.5 470.087C268.5 472.59 273.5 478.598 273.5 490.112Z" fill="#2B2A28"/>
<path d="M221.5 510.138C229.508 510.138 236 501.172 236 490.112C236 479.052 229.508 470.087 221.5 470.087C213.492 470.087 207 479.052 207 490.112C207 501.172 213.492 510.138 221.5 510.138Z" fill="#2B2A28"/>
<path d="M271 479.599C272 483.103 268.761 486.107 266 486.107C263.239 486.107 261 483.642 261 480.6C261 477.559 263.239 475.093 266 475.093C268.761 475.093 271 476.557 271 479.599Z" fill="#F9FAFB"/>
<path d="M233 479.599C234 483.103 230.761 486.107 228 486.107C225.239 486.107 223 483.642 223 480.6C223 477.559 225.239 475.093 228 475.093C230.761 475.093 233 476.557 233 479.599Z" fill="#F9FAFB"/>
</g>
<path d="M78.3504 114.938C87.7285 95.7919 147.5 49 141 56.5C165.5 49 129.142 173.923 119.404 197.382C82.7411 238.645 101.602 186.276 76.0146 175.654C50.4274 165.032 68.6122 138.397 78.3504 114.938Z" fill="#87CFE5"/>
<path d="M287.609 59.1667C306.967 30.0669 340.658 274.524 372.609 277.167C439.109 282.667 463.808 86.5206 392.761 67.7648C165.109 7.66668 388.135 140.246 340.658 202.906L340.564 203.031L340.476 203.159C311.688 245.47 303.846 289.678 298.672 320.31C297.37 328.02 296.262 334.725 295.043 340.428C293.812 346.185 292.562 350.45 291.128 353.394C289.699 356.331 288.509 357.102 287.813 357.339C287.064 357.593 285.257 357.779 281.437 355.938L278.916 354.722L276.381 355.901C272.268 357.813 269.55 357.906 267.751 357.415C266.003 356.937 264.148 355.639 262.266 352.693C258.266 346.432 255.532 334.921 253.96 318.565C250.848 286.193 252.602 239.948 252.602 192.205C252.602 132.233 268.447 87.9744 287.609 59.1667Z" fill="#87CFE5" stroke="#0E6B96" stroke-width="12"/>
<path d="M383.759 121.605C374.381 102.459 314.609 55.6667 321.109 63.1667C296.609 55.6667 332.967 180.59 342.705 204.049C379.368 245.312 360.508 192.942 386.095 182.321C411.682 171.699 393.497 145.064 383.759 121.605Z" fill="#87CFE5"/>
<path d="M296.109 72.1667C291.698 63.2021 283.523 68.669 286.609 72.1667C274.875 68.7577 278.248 157.171 282.811 168.164C300.223 187.403 291.419 162.849 303.765 157.724C316.111 152.599 300.673 83.1592 296.109 72.1667Z" fill="#87CFE5"/>
<path d="M174.5 52.5C155.142 23.4002 121.452 267.857 89.5 270.5C23 276 -1.69827 79.8539 69.3488 61.0981C297 0.999996 73.9744 133.579 121.452 196.24L121.545 196.365L121.633 196.492C150.421 238.803 158.263 283.011 163.438 313.643C164.739 321.354 165.847 328.058 167.066 333.761C168.297 339.518 169.548 343.783 170.981 346.727C172.411 349.664 173.6 350.436 174.296 350.672C175.046 350.926 176.853 351.113 180.673 349.271L183.193 348.055L185.729 349.235C189.841 351.146 192.559 351.24 194.358 350.748C196.107 350.27 197.961 348.973 199.843 346.027C203.844 339.765 206.577 328.254 208.149 311.898C211.261 279.527 209.508 233.281 209.508 185.539C209.508 125.566 193.662 81.3077 174.5 52.5Z" fill="#87CFE5" stroke="#0E6B96" stroke-width="12"/>
<path d="M78.3504 114.938C87.7285 95.7919 147.5 49 141 56.5C165.5 49 129.142 173.923 119.404 197.382C82.7411 238.645 101.602 186.276 76.0146 175.654C50.4274 165.032 68.6122 138.397 78.3504 114.938Z" fill="#87CFE5"/>
<path d="M166 65.5C170.411 56.5354 178.586 62.0023 175.5 65.5C187.234 62.091 183.862 150.504 179.298 161.497C161.887 180.736 170.69 156.182 158.344 151.057C145.998 145.932 161.437 76.4925 166 65.5Z" fill="#87CFE5"/>
<path d="M237.5 335C339.975 335 423 417.406 423 519C423 620.594 339.975 703 237.5 703C135.025 703 52 620.594 52 519C52 417.406 135.025 335 237.5 335Z" fill="#86D0E3" stroke="#0C74AB" stroke-width="7"/>
<path d="M364.5 647C330 686 266 701.5 241 699C134 705 53.5 610.895 56 517.5C57.566 459 43 597 182 656C256.5 693.5 364.5 647 364.5 647Z" fill="#37B4CA"/>
<path opacity="0.77" d="M173.5 394L182.5 382.5L195 371.5L202 367.5L208.5 365.5L212 369L215 373L217 379L208.5 381.5L196 388.5L187.5 394L179 402L175 397.5L173.5 394Z" fill="#004F80"/>
<path opacity="0.7" d="M264.5 358.5H272.5L280 360L288 363L298 367.5L306.5 372.5L305 380L295 377.5L283.5 375L274.5 373.5H267.5H259.5V366.5L261 361.5L264.5 358.5Z" fill="#014C83"/>
<g clip-path="url(#clip2_183_1782)">
<path d="M193.5 432.038C218.48 432.038 239.5 456.267 239.5 486.107C239.5 502.944 236.056 516.431 228.771 525.659C221.589 534.757 210.302 540.176 193.5 540.176C168.614 540.176 149 516.541 149 486.107C149 455.673 168.614 432.038 193.5 432.038Z" fill="#FEFEFE" stroke="#0F79AB" stroke-width="6"/>
<path d="M288.176 405.004C301.85 405.004 314.49 412.616 323.821 425.275C333.149 437.929 339 455.44 339 474.592C339 496.166 335.187 513.606 327.027 525.574C319.002 537.346 306.53 544.181 288.176 544.181C274.506 544.181 262.294 536.727 253.386 524.182C244.468 511.624 239 494.106 239 474.592C239 455.079 244.468 437.561 253.386 425.003C262.294 412.458 274.506 405.004 288.176 405.004Z" fill="#FEFEFE" stroke="#0F79AB" stroke-width="6"/>
<path d="M241 550.189C252.046 550.189 261 540.551 261 528.661C261 516.772 252.046 507.134 241 507.134C229.954 507.134 221 516.772 221 528.661C221 540.551 229.954 550.189 241 550.189Z" fill="#ED6F7A"/>
<path d="M273.5 490.112C273.5 501.172 267.508 510.138 259.5 510.138C251.492 510.138 245 501.172 245 490.112C245 479.052 251.492 470.087 259.5 470.087C268.5 472.59 273.5 478.598 273.5 490.112Z" fill="#2B2A28"/>
<path d="M221.5 510.138C229.508 510.138 236 501.172 236 490.112C236 479.052 229.508 470.087 221.5 470.087C213.492 470.087 207 479.052 207 490.112C207 501.172 213.492 510.138 221.5 510.138Z" fill="#2B2A28"/>
<path d="M271 479.599C272 483.103 268.761 486.107 266 486.107C263.239 486.107 261 483.642 261 480.6C261 477.559 263.239 475.093 266 475.093C268.761 475.093 271 476.557 271 479.599Z" fill="#F9FAFB"/>
<path d="M233 479.599C234 483.103 230.761 486.107 228 486.107C225.239 486.107 223 483.642 223 480.6C223 477.559 225.239 475.093 228 475.093C230.761 475.093 233 476.557 233 479.599Z" fill="#F9FAFB"/>
</g>
<g clip-path="url(#clip3_183_1782)">
<path d="M199 700.999C217.453 700.999 227.418 706.775 232.985 714.29C238.752 722.075 240.5 732.635 240.5 743.499C240.5 754.728 239.623 763.379 232.348 769.751C224.743 776.414 209.12 781.499 176.501 781.499C154.107 781.499 138.008 780.43 126.449 778.532C114.816 776.621 108.242 773.938 104.485 771.063C100.994 768.391 99.6447 765.331 99.1142 761.491C98.8344 759.465 98.7901 757.237 98.832 754.692C98.8714 752.3 99.0009 749.303 99.0009 746.499C99.0009 743.009 101.71 738.247 108.266 732.68C114.594 727.306 123.607 721.957 134.019 717.205C154.892 707.676 180.368 700.999 199 700.999Z" fill="#87CFE5" stroke="#0178B2" stroke-width="9"/>
<path d="M235.614 730.95C246.614 773.95 213.16 778.999 174.5 778.999C135.84 778.999 114 775.999 108.5 768.999C95.5005 762.999 149.115 767.95 177.114 764.95C262.114 764.95 216 687.999 235.614 730.95Z" fill="#31A7BA"/>
</g>
<g clip-path="url(#clip4_183_1782)">
<path d="M291 700.999C272.547 700.999 262.582 706.775 257.015 714.29C251.248 722.075 249.5 732.635 249.5 743.499C249.5 754.728 250.377 763.379 257.652 769.751C265.257 776.414 280.88 781.499 313.499 781.499C335.893 781.499 351.992 780.43 363.551 778.532C375.184 776.621 381.758 773.938 385.515 771.063C389.006 768.391 390.355 765.331 390.886 761.491C391.166 759.465 391.21 757.237 391.168 754.692C391.129 752.3 390.999 749.303 390.999 746.499C390.999 743.009 388.29 738.247 381.734 732.68C375.406 727.306 366.393 721.957 355.981 717.205C335.108 707.676 309.632 700.999 291 700.999Z" fill="#87CFE5" stroke="#0178B2" stroke-width="9"/>
<path d="M254.386 730.95C243.386 773.95 276.84 778.999 315.5 778.999C354.16 778.999 376 775.999 381.5 768.999C394.5 762.999 340.885 767.95 312.886 764.95C227.886 764.95 274 687.999 254.386 730.95Z" fill="#31A7BA"/>
</g>
<path d="M211.168 578.888L211.236 578.902L211.306 578.91L222.806 580.268L222.865 580.275L222.925 580.278L232.925 580.731L232.963 580.733H241V598.772L240.58 602L236.675 604.949L233.082 606.575L227.929 607H223.201L218.114 605.743L212.971 602.778L207.785 597.654L204.418 590.249L202 582.8V577L211.168 578.888Z" fill="#FEFEFE" stroke="#0578A5" stroke-width="3"/>
<path d="M268.38 576.721L268.312 576.737L268.241 576.747L257.837 578.102L257.777 578.11L257.718 578.113L248.67 578.565L248.633 578.567H241.5V596.42L241.873 599.578L245.349 602.472L248.561 604.078L253.19 604.499H257.441L262.007 603.253L266.626 600.317L271.287 595.235L274.319 587.876L276.5 580.465V574.876L268.38 576.721Z" fill="#FEFEFE" stroke="#0875A4" stroke-width="3"/>
<path d="M148.022 565C200.5 582.5 255.528 583.466 341 560.5" stroke="#0C74AB" stroke-width="5" stroke-linecap="round"/>
<g clip-path="url(#clip5_183_1782)">
<path d="M62.0857 498.503C67.3398 499.179 69.4645 501.071 70.5213 503.433C71.8072 506.308 71.9222 510.71 71.1053 517.198C69.548 529.564 64.6902 548.262 64.6902 569.5V569.808L64.7439 570.112C67.5145 585.727 69.9139 599.653 69.1346 611.584C68.3868 623.031 64.7351 632.272 55.7566 639.195C42.5809 641.442 32.686 640.532 25.323 637.641C17.8795 634.718 12.744 629.665 9.30938 623.176C2.30366 609.938 2.37047 590.678 5.63848 572.107L5.66387 571.964L5.67657 571.821C7.2941 554.223 16.6393 535.742 28.3035 521.603C34.1148 514.559 40.4062 508.711 46.4314 504.654C52.4325 500.612 57.8413 498.567 62.0857 498.503Z" fill="#87CFE5" stroke="#0076B8" stroke-width="7"/>
<path d="M43.8178 604.292C43.8759 604.007 43.8145 603.702 43.6576 603.446C43.5001 603.191 43.2598 603.006 42.9793 602.93C42.6988 602.853 42.398 602.891 42.1327 603.032C41.868 603.173 41.6605 603.405 41.5662 603.68C41.3647 604.273 41.1721 604.849 40.9797 605.444C37.1836 615.888 36.8963 628.281 39.901 639.239C40.0545 639.864 40.2034 640.457 40.3672 641.08C42.5837 640.351 44.8003 639.622 47.0168 638.893C46.7908 638.33 46.5791 637.796 46.3633 637.233C42.3183 627.33 41.1399 616.835 43.4664 606.08C43.5798 605.479 43.6941 604.895 43.8178 604.292Z" fill="#0074AB"/>
<path d="M19.9749 603.224C20.0073 602.93 19.9161 602.625 19.7342 602.378C19.5516 602.132 19.2934 601.963 19.0033 601.908C18.7132 601.853 18.4112 601.915 18.1509 602.078C17.8913 602.241 17.6946 602.491 17.617 602.776C17.4778 603.295 17.3468 603.786 17.2135 604.307C14.6524 613.403 14.1894 623.556 15.1124 632.991C15.1553 633.527 15.1962 634.038 15.2419 634.573C15.3205 635.528 15.7764 636.382 16.5517 636.941C17.3245 637.5 18.3533 637.718 19.3694 637.554C20.3855 637.39 21.2934 636.859 21.8512 636.086C22.4114 635.311 22.5756 634.357 22.35 633.427C22.2271 632.916 22.1092 632.429 21.9894 631.92C19.7179 622.923 18.7292 614.072 19.8128 604.769C19.8654 604.245 19.916 603.749 19.9749 603.224Z" fill="#007BA4"/>
</g>
<g clip-path="url(#clip6_183_1782)">
<path d="M413.915 498.503C408.661 499.179 406.536 501.07 405.48 503.433C404.194 506.307 404.079 510.71 404.896 517.197C406.453 529.563 411.311 548.261 411.311 569.5V569.808L411.257 570.111C408.486 585.727 406.087 599.653 406.866 611.584C407.614 623.031 411.266 632.272 420.244 639.195C433.42 641.442 443.315 640.532 450.678 637.641C458.121 634.718 463.257 629.665 466.692 623.176C473.697 609.938 473.631 590.677 470.362 572.106L470.337 571.964L470.324 571.82C468.707 554.223 459.362 535.742 447.697 521.603C441.886 514.558 435.595 508.711 429.57 504.653C423.568 500.612 418.16 498.567 413.915 498.503Z" fill="#87CFE5" stroke="#0076B8" stroke-width="7"/>
<path d="M432.183 604.292C432.125 604.007 432.187 603.702 432.343 603.446C432.501 603.191 432.741 603.006 433.022 602.93C433.302 602.853 433.603 602.891 433.868 603.032C434.133 603.173 434.341 603.405 434.435 603.68C434.636 604.273 434.829 604.849 435.021 605.444C438.817 615.888 439.105 628.281 436.1 639.239C435.947 639.864 435.798 640.457 435.634 641.08C433.417 640.351 431.201 639.622 428.984 638.893C429.21 638.33 429.422 637.796 429.638 637.233C433.683 627.33 434.861 616.835 432.535 606.08C432.421 605.479 432.307 604.895 432.183 604.292Z" fill="#0074AB"/>
<path d="M456.026 603.224C455.994 602.93 456.085 602.625 456.267 602.378C456.449 602.132 456.708 601.963 456.998 601.908C457.288 601.853 457.59 601.915 457.85 602.078C458.11 602.241 458.306 602.491 458.384 602.776C458.523 603.295 458.654 603.786 458.787 604.307C461.349 613.403 461.812 623.556 460.889 632.991C460.846 633.527 460.805 634.038 460.759 634.573C460.68 635.528 460.225 636.382 459.449 636.941C458.676 637.5 457.648 637.718 456.632 637.554C455.615 637.39 454.708 636.859 454.15 636.086C453.59 635.311 453.425 634.357 453.651 633.427C453.774 632.916 453.892 632.429 454.012 631.92C456.283 622.923 457.272 614.072 456.188 604.769C456.136 604.245 456.085 603.749 456.026 603.224Z" fill="#007BA4"/>
</g>
</g>
<defs>
<clipPath id="clip0_183_1782">
<rect width="476" height="786" fill="white"/>
</clipPath>
<clipPath id="clip1_183_1782">
<rect width="196" height="148.189" fill="white" transform="translate(146 402)"/>
</clipPath>
<clipPath id="clip2_183_1782">
<rect width="196" height="148.189" fill="white" transform="translate(146 402)"/>
</clipPath>
<clipPath id="clip3_183_1782">
<rect width="151" height="90" fill="white" transform="translate(94 695.999)"/>
</clipPath>
<clipPath id="clip4_183_1782">
<rect width="151" height="90" fill="white" transform="matrix(-1 0 0 1 396 695.999)"/>
</clipPath>
<clipPath id="clip5_183_1782">
<rect width="76" height="149" fill="white" transform="translate(0 495)"/>
</clipPath>
<clipPath id="clip6_183_1782">
<rect width="76" height="149" fill="white" transform="matrix(-1 0 0 1 476.001 495)"/>
</clipPath>
</defs>
</svg>
