<svg width="476" height="786" viewBox="0 0 476 786" fill="none" xmlns="http://www.w3.org/2000/svg">
<g clip-path="url(#clip0_157_699)">
<path d="M86.9297 16.714C96.5345 11.8056 106.682 11.5521 117.15 15.7185C127.798 19.957 138.925 28.8566 149.706 42.4838C171.246 69.7071 190.39 114.534 201.105 172.94C203.797 197.451 207.515 221.974 210.903 244.675C214.315 267.526 217.378 288.445 218.81 305.946C220.262 323.711 219.917 336.908 217.187 344.843C215.87 348.67 214.243 350.541 212.698 351.426C211.21 352.279 208.76 352.809 204.48 351.727L201.386 350.945L199.008 353.076C195.786 355.965 194.143 356.089 193.632 356.039C193.139 355.991 191.842 355.602 189.746 352.806C187.689 350.061 185.529 345.873 183.134 340.14C180.765 334.471 178.317 327.671 175.575 319.89C164.678 288.966 149.647 243.897 118.755 204.258L118.539 203.981L118.293 203.732L115.425 200.807C55.8798 139.709 39.4621 98.8815 41.6354 71.5831C43.8011 44.3812 64.7521 28.0476 86.9297 16.714Z" fill="#8BCDE5" stroke="#0E6B96" stroke-width="12"/>
<path d="M307.345 63.0001C329.956 36.7664 354.435 28.2455 371.981 33.7082C390.948 39.6138 410.17 56.4775 412.328 84.658C414.514 113.194 399.378 155.113 344.924 210.922L344.816 211.034L344.714 211.149C311.199 249.217 298.305 291.6 289.629 320.998C287.446 328.398 285.571 334.835 283.702 340.279C281.814 345.774 280.078 349.805 278.313 352.52C276.553 355.23 275.28 355.846 274.561 355.996C273.785 356.157 271.966 356.128 268.378 353.876L266.01 352.389L263.352 353.247C259.04 354.637 256.325 354.41 254.592 353.718C252.907 353.044 251.211 351.556 249.678 348.449C246.419 341.847 245.025 330.25 245.345 314.045C245.977 281.971 253.048 236.878 258.547 190.113C265.454 131.368 284.962 88.9707 307.345 63.0001Z" fill="#87CFE5" stroke="#0E6B96" stroke-width="12"/>
<path d="M237.5 334.426C339.975 334.426 423 416.937 423 518.661C423 620.384 339.975 702.896 237.5 702.896C135.025 702.896 52.0005 620.384 52.0005 518.661C52.0005 416.937 135.025 334.426 237.5 334.426Z" fill="#86D0E3" stroke="#0C74AB" stroke-width="7"/>
<path d="M364.501 646.824C330.001 685.874 266.001 701.394 241.001 698.89C134.001 704.898 53.5005 610.673 56.0005 517.159C57.5664 458.584 43.0005 596.76 182.001 655.836C256.501 693.383 364.501 646.824 364.501 646.824Z" fill="#37B4CA"/>
<path opacity="0.77" d="M173.5 393.501L182.5 381.987L195 370.973L202 366.968L208.5 364.965L212 368.47L215 372.475L217 378.482L208.5 380.986L196 387.994L187.5 393.501L179 401.512L175 397.006L173.5 393.501Z" fill="#004F80"/>
<path opacity="0.7" d="M264.5 357.956H272.5L280 359.458L288 362.462L298 366.968L306.5 371.974L305 379.483L295 376.98L283.5 374.477L274.5 372.975H267.5H259.5V365.966L261 360.96L264.5 357.956Z" fill="#014C83"/>
<g clip-path="url(#clip1_157_699)">
<path d="M199 700.891C217.453 700.891 227.418 706.676 232.985 714.199C238.752 721.994 240.5 732.568 240.5 743.446C240.5 754.689 239.623 763.351 232.348 769.732C224.743 776.403 209.12 781.494 176.5 781.494C154.106 781.494 138.008 780.424 126.449 778.523C114.815 776.61 108.241 773.924 104.485 771.045C100.993 768.37 99.6442 765.306 99.1137 761.461C98.8339 759.432 98.7896 757.202 98.8315 754.653C98.8709 752.258 99.0004 749.258 99.0004 746.449C99.0004 742.955 101.71 738.187 108.265 732.613C114.594 727.232 123.607 721.877 134.018 717.118C154.892 707.577 180.368 700.891 199 700.891Z" fill="#87CFE5" stroke="#0178B2" stroke-width="9"/>
<path d="M235.614 730.881C246.614 773.936 213.16 778.991 174.5 778.991C135.84 778.991 114 775.987 108.5 768.978C95.5 762.97 149.114 767.928 177.114 764.925C262.114 764.925 216 687.875 235.614 730.881Z" fill="#31A7BA"/>
</g>
<g clip-path="url(#clip2_157_699)">
<path d="M291.001 700.891C272.548 700.891 262.583 706.676 257.016 714.199C251.249 721.994 249.501 732.568 249.501 743.446C249.501 754.689 250.378 763.351 257.653 769.732C265.258 776.403 280.881 781.494 313.501 781.494C335.895 781.494 351.993 780.424 363.552 778.523C375.186 776.61 381.76 773.924 385.516 771.045C389.008 768.37 390.357 765.306 390.887 761.461C391.167 759.432 391.211 757.202 391.169 754.653C391.13 752.258 391.001 749.258 391.001 746.449C391.001 742.955 388.291 738.187 381.736 732.613C375.407 727.232 366.394 721.877 355.983 717.118C335.109 707.577 309.633 700.891 291.001 700.891Z" fill="#87CFE5" stroke="#0178B2" stroke-width="9"/>
<path d="M254.387 730.881C243.387 773.936 276.841 778.991 315.501 778.991C354.161 778.991 376.001 775.987 381.501 768.978C394.501 762.97 340.887 767.928 312.887 764.925C227.887 764.925 274.001 687.875 254.387 730.881Z" fill="#31A7BA"/>
</g>
<g clip-path="url(#clip3_157_699)">
<path d="M193.5 431.55C218.481 431.55 239.5 455.778 239.5 485.618C239.5 502.455 236.057 515.942 228.772 525.17C221.589 534.268 210.302 539.687 193.5 539.687C168.615 539.687 149 516.052 149 485.618C149 455.184 168.615 431.55 193.5 431.55Z" fill="#FEFEFE" stroke="#0F79AB" stroke-width="6"/>
<path d="M288.176 404.515C301.85 404.515 314.49 412.127 323.821 424.786C333.149 437.44 339 454.951 339 474.104C339 495.678 335.187 513.118 327.027 525.086C319.002 536.858 306.53 543.692 288.176 543.692C274.506 543.692 262.294 536.238 253.386 523.693C244.469 511.135 239 493.617 239 474.104C239 454.59 244.469 437.073 253.386 424.514C262.294 411.97 274.506 404.515 288.176 404.515Z" fill="#FEFEFE" stroke="#0F79AB" stroke-width="6"/>
<path d="M241 549.7C252.046 549.7 261 540.062 261 528.173C261 516.283 252.046 506.645 241 506.645C229.955 506.645 221 516.283 221 528.173C221 540.062 229.955 549.7 241 549.7Z" fill="#ED6F7A"/>
<path d="M273.5 489.623C273.5 500.683 267.508 509.649 259.5 509.649C251.492 509.649 245 500.683 245 489.623C245 478.564 251.492 469.598 259.5 469.598C268.5 472.101 273.5 478.109 273.5 489.623Z" fill="#2B2A28"/>
<path d="M221.5 509.649C229.509 509.649 236 500.683 236 489.623C236 478.564 229.509 469.598 221.5 469.598C213.492 469.598 207 478.564 207 489.623C207 500.683 213.492 509.649 221.5 509.649Z" fill="#2B2A28"/>
<path d="M271 479.11C272 482.614 268.761 485.618 266 485.618C263.239 485.618 261 483.153 261 480.111C261 477.07 263.239 474.604 266 474.604C268.761 474.604 271 476.069 271 479.11Z" fill="#F9FAFB"/>
<path d="M233 479.11C234 482.614 230.762 485.618 228 485.618C225.239 485.618 223 483.153 223 480.111C223 477.07 225.239 474.604 228 474.604C230.762 474.604 233 476.069 233 479.11Z" fill="#F9FAFB"/>
</g>
<g clip-path="url(#clip4_157_699)">
<path d="M62.086 498.137C67.3401 498.815 69.4648 500.708 70.5216 503.073C71.8075 505.952 71.9225 510.36 71.1056 516.856C69.5483 529.238 64.6905 547.959 64.6905 569.225V569.533L64.7442 569.837C67.5148 585.473 69.9142 599.417 69.1349 611.363C68.3871 622.824 64.7354 632.077 55.7569 639.009C42.5812 641.259 32.6863 640.348 25.3233 637.453C17.8798 634.526 12.7443 629.467 9.30963 622.97C2.30391 609.715 2.37071 590.43 5.63872 571.835L5.66411 571.692L5.67681 571.548C7.29434 553.928 16.6396 535.424 28.3038 521.266C34.1151 514.213 40.4065 508.358 46.4317 504.296C52.4328 500.249 57.8416 498.201 62.086 498.137Z" fill="#87CFE5" stroke="#0076B8" stroke-width="7"/>
<path d="M43.8178 604.062C43.8759 603.776 43.8145 603.471 43.6576 603.215C43.5001 602.959 43.2598 602.774 42.9793 602.698C42.6988 602.621 42.398 602.659 42.1327 602.8C41.868 602.941 41.6605 603.173 41.5662 603.449C41.3647 604.043 41.1721 604.619 40.9797 605.215C37.1836 615.672 36.8963 628.081 39.901 639.053C40.0545 639.679 40.2034 640.273 40.3672 640.897C42.5837 640.167 44.8003 639.437 47.0168 638.707C46.7908 638.143 46.5791 637.608 46.3633 637.045C42.3183 627.129 41.1399 616.621 43.4664 605.852C43.5798 605.25 43.6941 604.665 43.8178 604.062Z" fill="#0074AB"/>
<path d="M19.9754 602.992C20.0078 602.698 19.9166 602.392 19.7347 602.145C19.5521 601.899 19.2939 601.729 19.0038 601.674C18.7137 601.619 18.4117 601.681 18.1514 601.845C17.8918 602.008 17.6951 602.258 17.6175 602.544C17.4783 603.063 17.3473 603.555 17.214 604.076C14.6529 613.184 14.1899 623.35 15.1129 632.797C15.1558 633.334 15.1967 633.845 15.2424 634.381C15.321 635.337 15.7769 636.192 16.5522 636.752C17.325 637.312 18.3538 637.53 19.3699 637.366C20.386 637.202 21.2939 636.67 21.8517 635.896C22.4119 635.12 22.5761 634.165 22.3505 633.234C22.2276 632.722 22.1097 632.234 21.9899 631.725C19.7184 622.716 18.7297 613.854 19.8133 604.539C19.8659 604.014 19.9165 603.518 19.9754 602.992Z" fill="#007BA4"/>
</g>
<path d="M344.279 603C297.279 611.5 285.779 575.5 302.279 552" stroke="#076FA2" stroke-width="6" stroke-linecap="round"/>
<path d="M193.319 565.107C193.081 564.703 192.749 564.461 192.396 564.436C192.043 564.41 191.697 564.602 191.436 564.97C191.174 565.338 191.018 565.851 191.001 566.397C190.985 566.943 191.109 567.476 191.347 567.88C192.513 569.86 193.755 571.734 195.058 573.496C219.343 604.928 257.155 600.351 280.759 569.853C282.086 568.149 283.351 566.397 284.594 564.541C284.848 564.161 284.994 563.64 285 563.094C285.006 562.548 284.87 562.02 284.625 561.628C284.379 561.235 284.042 561.009 283.689 561C283.335 560.991 282.994 561.2 282.739 561.579C281.546 563.364 280.33 565.047 279.055 566.684C256.441 596.062 219.719 600.228 196.814 570.395C195.584 568.733 194.416 566.968 193.319 565.107Z" fill="#076FA2"/>
<path d="M217.334 591.963L217.375 591.979L217.417 591.987L224.306 593.487L224.341 593.495L224.377 593.498L230.368 593.998L230.391 594H235.205V613.916L234.954 617.48L232.614 620.735L230.462 622.531L227.375 623H224.543L221.495 621.612L218.414 618.339L215.308 612.682L213.291 604.506L211.842 596.282V589.879L217.334 591.963Z" fill="#FEFEFE" stroke="#0578A5" stroke-width="3"/>
<path d="M252.506 591.723L252.465 591.738L252.423 591.748L246.19 593.104L246.154 593.111L246.119 593.114L240.699 593.566L240.676 593.568H236.403V611.422L236.627 614.579L238.709 617.474L240.633 619.079L243.406 619.5H245.953L248.688 618.255L251.455 615.318L254.247 610.236L256.064 602.878L257.37 595.467V589.878L252.506 591.723Z" fill="#FEFEFE" stroke="#0875A4" stroke-width="3"/>
<path d="M126 601C173 609.5 184.5 573.5 168 550" stroke="#076FA2" stroke-width="6" stroke-linecap="round"/>
<path fill-rule="evenodd" clip-rule="evenodd" d="M265.036 642.948C265.915 632.489 356.159 619.009 394.081 622.197C413.679 623.844 428.409 639.241 426.954 656.557C425.498 673.875 408.405 686.597 388.806 684.95C350.885 681.762 264.157 653.408 265.036 642.948Z" fill="#FF9425"/>
<path fill-rule="evenodd" clip-rule="evenodd" d="M265.039 643.348C265.027 643.149 265.032 642.926 265.032 642.926C265.032 642.926 426.916 652.443 426.953 656.557C427.109 673.936 408.396 686.7 388.805 684.95C315.027 678.356 265.488 650.333 265.039 643.348Z" fill="#FF8600"/>
<path d="M396.395 683.009C395.571 676.242 395.154 669.472 396.859 662.877" stroke="#EF6A00" stroke-width="5" stroke-miterlimit="10" stroke-linecap="round" stroke-linejoin="round"/>
<path d="M362.847 679.469C360.381 674.944 361.242 670.279 362.55 665.474" stroke="#EF6A00" stroke-width="5" stroke-miterlimit="10" stroke-linecap="round" stroke-linejoin="round"/>
<path d="M321.799 670.182C321.912 663.841 322.707 658.656 323.901 654.143" stroke="#EF6A00" stroke-width="5" stroke-miterlimit="10" stroke-linecap="round" stroke-linejoin="round"/>
<path fill-rule="evenodd" clip-rule="evenodd" d="M420.466 656.548C420.466 656.548 444.725 647.526 453.846 646.365C462.928 645.21 471.779 655.784 471.097 660.316C470.159 666.532 462.486 671.996 453.139 669.804C444.334 667.741 420.466 656.548 420.466 656.548Z" fill="#129447"/>
<path fill-rule="evenodd" clip-rule="evenodd" d="M420.539 656.689C420.539 656.689 429.895 650.733 436.291 641.918C439.85 637.014 438.984 629.305 442.083 626.129C445.797 622.325 451.284 619.82 454.712 623.576C458.141 627.331 456.926 633.381 454.197 640.389C449.419 652.653 426.053 656.057 420.539 656.689Z" fill="#00AA63"/>
<path fill-rule="evenodd" clip-rule="evenodd" d="M419.97 655.596C419.97 655.596 423.903 647.668 426.618 637.33C428.542 630.004 427.774 620.542 427.667 619.913C426.193 611.306 434.258 608.569 439.541 613.949C444.142 618.635 444.859 625.458 443.603 630.805C440.365 644.594 424.471 657.358 419.97 655.596Z" fill="#129447"/>
<path fill-rule="evenodd" clip-rule="evenodd" d="M419.971 655.596C419.971 655.596 427.039 663.147 431.21 672.722C433.53 678.048 430.828 685.502 433.111 689.064C435.847 693.333 440.639 696.576 444.909 693.375C449.18 690.173 449.448 682.011 448.438 676.78C446.007 664.179 425.099 655.525 419.971 655.596Z" fill="#00AA63"/>
<path fill-rule="evenodd" clip-rule="evenodd" d="M419.971 655.598C419.971 655.598 423.706 666.663 424.07 677.197C424.365 685.734 421.954 691.819 422.146 694.591C422.499 699.688 426.598 702.892 431.536 700.853C436.476 698.816 439.381 689.908 439.398 685.548C439.45 672.116 425.73 657.774 419.971 655.598Z" fill="#129447"/>
<path d="M384.578 639.239C382.306 633.584 382.646 627.358 383.119 623.373" stroke="#EF6A00" stroke-width="5" stroke-miterlimit="10" stroke-linecap="round" stroke-linejoin="round"/>
<path d="M342.955 639.116C341.313 634.817 341.419 629.748 341.661 626.472" stroke="#EF6A00" stroke-width="5" stroke-miterlimit="10" stroke-linecap="round" stroke-linejoin="round"/>
<path d="M302.018 639.281C301.261 636.828 301.519 633.7 301.783 631.658" stroke="#EF6A00" stroke-width="5" stroke-miterlimit="10" stroke-linecap="round" stroke-linejoin="round"/>
<path d="M345.979 627.234C345.412 627.277 346.819 629.477 345.718 630.181C344.453 630.989 342.655 631.743 342.931 632.9C343.067 633.477 344.554 636.194 344.337 637.588C344.104 639.09 344.652 639.342 344.161 639.58C343.196 640.047 345.183 644.87 342.591 645.967C341.482 646.437 338.609 645.53 338.288 645.973C337.623 646.893 335.156 646.359 333.655 645.616C332.461 645.026 332.185 643.556 331.377 642.586C330.95 642.075 330.675 641.44 330.297 640.935C330.115 640.693 329.809 640.607 329.566 640.678C328.013 641.126 328.253 644.328 327.45 645.39C327.083 645.876 326.836 646.469 326.375 646.899C325.513 647.703 324.088 647.733 322.918 648.15C321.709 648.581 320.587 648.934 319.167 648.997C318.368 649.033 317.072 649.284 315.588 649.013C314.094 648.74 313.252 647.28 312.444 646.311C311.634 645.339 311.656 644.568 311.097 644.517C309.705 644.391 309.005 646.585 307.972 647.626C306.894 648.714 305.812 649.697 304.612 650.442C303.502 651.132 301.706 651.409 297.566 652.409C295.201 652.981 292.467 653.517 290.791 653.746C289.322 653.946 287.464 653.549 286.251 652.829C284.923 652.04 283.605 651.324 282.563 650.288C281.609 649.339 279.969 648.739 279.302 647.69C278.632 646.634 277.468 646.068 276.611 645.094C275.722 644.085 275.24 642.477 274.636 641.291C274.221 640.121 273.826 639.238 273.74 638.62C273.721 638.287 273.754 637.916 273.788 637.534" stroke="#C65104" stroke-width="2" stroke-linecap="round"/>
<path d="M273.122 636.882C275.074 642.929 280.254 650.338 286.955 653.592C294.662 654.274 305.126 650.606 308.009 647.446C312.969 642.01 304.482 642.327 307.042 630.272C301.071 630.278 282.735 635.063 273.122 636.882Z" fill="#934511"/>
<path d="M299.468 634.119C299.891 640.682 312.472 646.674 316.904 649.166C322.036 649.621 328.025 645.606 328.866 642.243C331.198 632.912 331.121 629.461 327.156 627.535C322.497 629.13 295.382 629.241 299.468 634.119Z" fill="#934511"/>
<path d="M319.981 631.418C320.404 637.98 332.985 643.971 337.417 646.464C342.548 646.918 348.539 642.904 349.379 639.54C351.711 630.209 351.635 626.758 347.669 624.833C343.01 626.428 315.895 626.539 319.981 631.418Z" fill="#934511"/>
<path d="M362.796 659.417C362.807 659.126 362.938 658.844 363.151 658.632C363.364 658.421 363.641 658.298 363.932 658.29C364.222 658.281 364.506 658.389 364.73 658.588C364.955 658.787 365.101 659.061 365.128 659.351C365.185 659.975 365.237 660.58 365.284 661.204C366.518 672.248 363.882 684.36 358.385 694.304C358.088 694.876 357.804 695.417 357.498 695.984C355.515 694.754 353.533 693.524 351.549 692.294C351.901 691.8 352.233 691.331 352.575 690.834C358.836 682.161 362.449 672.237 362.718 661.237C362.748 660.626 362.774 660.032 362.796 659.417Z" fill="#0074AB"/>
<path d="M386.221 663.986C386.259 663.693 386.419 663.418 386.654 663.221C386.89 663.024 387.18 662.921 387.475 662.936C387.77 662.951 388.049 663.082 388.263 663.301C388.478 663.521 388.61 663.81 388.618 664.106C388.632 664.643 388.643 665.151 388.65 665.689C389.001 675.131 387.063 685.108 383.947 694.062C383.779 694.573 383.619 695.06 383.449 695.57C383.148 696.479 382.504 697.202 381.619 697.562C380.736 697.924 379.685 697.894 378.736 697.496C377.787 697.098 377.029 696.368 376.669 695.485C376.307 694.601 376.371 693.635 376.81 692.783C377.05 692.316 377.278 691.87 377.515 691.404C381.838 683.194 384.881 674.824 386.015 665.526C386.087 665.004 386.155 664.511 386.221 663.986Z" fill="#007BA4"/>
<path d="M371.033 551.428C365.768 550.849 363.258 552.187 361.675 554.235C359.749 556.727 358.602 560.979 357.87 567.476C356.476 579.862 356.8 599.178 351.805 619.821L351.733 620.12L351.609 620.403C345.244 634.928 339.636 647.9 337.588 659.679C335.623 670.98 336.999 680.821 344.097 689.662C356.375 694.944 366.207 696.387 374.043 695.308C381.965 694.218 388.145 690.515 393.009 685.015C402.932 673.797 407.396 655.061 408.587 636.242L408.597 636.097L408.619 635.955C411.185 618.47 406.448 598.31 398.436 581.825C394.445 573.611 389.705 566.448 384.802 561.087C379.921 555.748 375.144 552.488 371.033 551.428Z" fill="#87CFE5" stroke="#0076B8" stroke-width="7"/>
<path d="M363.91 658.546C363.921 658.255 364.052 657.973 364.265 657.761C364.478 657.55 364.756 657.427 365.046 657.418C365.336 657.41 365.62 657.518 365.844 657.717C366.069 657.916 366.216 658.19 366.243 658.48C366.299 659.104 366.351 659.709 366.398 660.333C367.632 671.377 364.996 683.489 359.499 693.433C359.202 694.005 358.919 694.546 358.612 695.113C356.629 693.883 354.647 692.653 352.663 691.423C353.016 690.929 353.347 690.46 353.689 689.963C359.95 681.29 363.563 671.366 363.832 660.366C363.862 659.755 363.889 659.161 363.91 658.546Z" fill="#0074AB"/>
<path d="M387.335 663.115C387.373 662.822 387.533 662.547 387.768 662.35C388.004 662.153 388.294 662.05 388.589 662.065C388.884 662.08 389.163 662.211 389.377 662.43C389.592 662.65 389.724 662.939 389.732 663.235C389.746 663.772 389.757 664.279 389.764 664.818C390.115 674.26 388.177 684.237 385.061 693.191C384.893 693.702 384.733 694.189 384.563 694.699C384.262 695.608 383.618 696.331 382.733 696.691C381.85 697.053 380.799 697.023 379.85 696.625C378.901 696.227 378.143 695.497 377.783 694.614C377.421 693.73 377.485 692.764 377.924 691.912C378.164 691.444 378.392 690.999 378.629 690.533C382.952 682.323 385.995 673.952 387.129 664.655C387.201 664.133 387.269 663.64 387.335 663.115Z" fill="#007BA4"/>
</g>
<defs>
<clipPath id="clip0_157_699">
<rect width="476" height="786" fill="white"/>
</clipPath>
<clipPath id="clip1_157_699">
<rect width="151" height="90.1148" fill="white" transform="translate(94 695.885)"/>
</clipPath>
<clipPath id="clip2_157_699">
<rect width="151" height="90.1148" fill="white" transform="matrix(-1 0 0 1 396.001 695.885)"/>
</clipPath>
<clipPath id="clip3_157_699">
<rect width="196" height="148.189" fill="white" transform="translate(146 401.511)"/>
</clipPath>
<clipPath id="clip4_157_699">
<rect width="76" height="149.19" fill="white" transform="translate(0 494.63)"/>
</clipPath>
</defs>
</svg>
