<svg width="476" height="786" viewBox="0 0 476 786" fill="none" xmlns="http://www.w3.org/2000/svg">
<g clip-path="url(#clip0_176_1528)">
<g clip-path="url(#clip1_176_1528)">
<g clip-path="url(#clip2_176_1528)">
<path d="M86.9297 16.7143C96.5345 11.8058 106.682 11.5524 117.15 15.7188C127.798 19.9572 138.925 28.8568 149.706 42.484C171.246 69.7073 190.39 114.534 201.105 172.941C203.797 197.451 207.515 221.975 210.903 244.675C214.315 267.526 217.378 288.445 218.81 305.946C220.262 323.711 219.917 336.908 217.187 344.843C215.87 348.67 214.243 350.541 212.698 351.426C211.21 352.28 208.76 352.81 204.48 351.727L201.386 350.945L199.008 353.076C195.786 355.965 194.143 356.089 193.632 356.04C193.139 355.992 191.842 355.603 189.746 352.806C187.689 350.061 185.529 345.873 183.134 340.141C180.765 334.471 178.317 327.671 175.575 319.89C164.678 288.966 149.647 243.897 118.755 204.259L118.539 203.982L118.293 203.733L115.425 200.807C55.8798 139.71 39.4621 98.8817 41.6354 71.5833C43.8011 44.3815 64.7521 28.0479 86.9297 16.7143Z" fill="#8BCDE5" stroke="#0E6B96" stroke-width="12"/>
<path d="M307.345 63.0001C329.956 36.7664 354.435 28.2455 371.981 33.7082C390.948 39.6138 410.17 56.4775 412.328 84.658C414.514 113.194 399.378 155.113 344.924 210.922L344.816 211.034L344.714 211.149C311.199 249.217 298.305 291.6 289.629 320.998C287.446 328.398 285.571 334.835 283.702 340.279C281.814 345.774 280.078 349.805 278.313 352.52C276.553 355.23 275.28 355.846 274.561 355.996C273.785 356.157 271.966 356.128 268.378 353.876L266.01 352.389L263.352 353.247C259.04 354.637 256.325 354.41 254.592 353.718C252.907 353.044 251.211 351.556 249.678 348.449C246.419 341.847 245.025 330.25 245.345 314.045C245.977 281.971 253.048 236.878 258.547 190.113C265.454 131.368 284.962 88.9707 307.345 63.0001Z" fill="#87CFE5" stroke="#0E6B96" stroke-width="12"/>
<path d="M237.5 334.426C339.975 334.426 423 416.937 423 518.661C423 620.384 339.975 702.895 237.5 702.895C135.025 702.895 52.0005 620.384 52.0005 518.661C52.0005 416.937 135.025 334.426 237.5 334.426Z" fill="#86D0E3" stroke="#0C74AB" stroke-width="7"/>
<path d="M364.501 646.824C330.001 685.874 266.001 701.394 241.001 698.89C134.001 704.898 53.5005 610.673 56.0005 517.159C57.5664 458.584 43.0005 596.76 182.001 655.836C256.501 693.383 364.501 646.824 364.501 646.824Z" fill="#37B4CA"/>
<path opacity="0.77" d="M173.5 393.501L182.5 381.987L195 370.972L202 366.967L208.5 364.965L212 368.469L215 372.474L217 378.482L208.5 380.985L196 387.994L187.5 393.501L179 401.511L175 397.006L173.5 393.501Z" fill="#004F80"/>
<path opacity="0.7" d="M264.5 357.956H272.5L280 359.458L288 362.462L298 366.968L306.5 371.974L305 379.483L295 376.98L283.5 374.477L274.5 372.975H267.5H259.5V365.966L261 360.96L264.5 357.956Z" fill="#014C83"/>
<g clip-path="url(#clip3_176_1528)">
<path d="M199 700.892C217.453 700.892 227.418 706.676 232.985 714.2C238.752 721.995 240.5 732.568 240.5 743.446C240.5 754.69 239.623 763.351 232.348 769.732C224.743 776.403 209.12 781.494 176.5 781.494C154.106 781.494 138.008 780.425 126.449 778.524C114.815 776.61 108.241 773.924 104.485 771.045C100.993 768.37 99.6442 765.307 99.1137 761.461C98.8339 759.432 98.7896 757.202 98.8315 754.653C98.8709 752.258 99.0004 749.258 99.0004 746.45C99.0004 742.955 101.71 738.187 108.265 732.614C114.594 727.233 123.607 721.877 134.018 717.118C154.892 707.578 180.368 700.892 199 700.892Z" fill="#87CFE5" stroke="#0178B2" stroke-width="9"/>
<path d="M235.614 730.881C246.614 773.936 213.16 778.99 174.5 778.99C135.84 778.99 114 775.987 108.5 768.978C95.5 762.97 149.114 767.928 177.114 764.924C262.114 764.924 216 687.874 235.614 730.881Z" fill="#31A7BA"/>
</g>
<g clip-path="url(#clip4_176_1528)">
<path d="M291.001 700.892C272.548 700.892 262.583 706.676 257.016 714.2C251.249 721.995 249.501 732.568 249.501 743.446C249.501 754.69 250.378 763.351 257.653 769.732C265.258 776.403 280.881 781.494 313.501 781.494C335.895 781.494 351.993 780.425 363.552 778.524C375.186 776.61 381.76 773.924 385.516 771.045C389.008 768.37 390.357 765.307 390.887 761.461C391.167 759.432 391.211 757.202 391.169 754.653C391.13 752.258 391.001 749.258 391.001 746.45C391.001 742.955 388.291 738.187 381.736 732.614C375.407 727.233 366.394 721.877 355.983 717.118C335.109 707.578 309.633 700.892 291.001 700.892Z" fill="#87CFE5" stroke="#0178B2" stroke-width="9"/>
<path d="M254.387 730.881C243.387 773.936 276.841 778.99 315.501 778.99C354.161 778.99 376.001 775.987 381.501 768.978C394.501 762.97 340.887 767.928 312.887 764.924C227.887 764.924 274.001 687.874 254.387 730.881Z" fill="#31A7BA"/>
</g>
<g clip-path="url(#clip5_176_1528)">
<path d="M193.5 431.55C218.481 431.55 239.5 455.778 239.5 485.619C239.5 502.455 236.057 515.942 228.772 525.17C221.589 534.269 210.302 539.688 193.5 539.688C168.615 539.688 149 516.052 149 485.619C149 455.185 168.615 431.55 193.5 431.55Z" fill="#FEFEFE" stroke="#0F79AB" stroke-width="6"/>
<path d="M288.176 404.516C301.85 404.516 314.49 412.128 323.821 424.787C333.149 437.441 339 454.952 339 474.104C339 495.678 335.187 513.118 327.027 525.086C319.002 536.858 306.53 543.693 288.176 543.693C274.506 543.693 262.294 536.238 253.386 523.693C244.469 511.135 239 493.618 239 474.104C239 454.591 244.469 437.073 253.386 424.515C262.294 411.97 274.506 404.516 288.176 404.516Z" fill="#FEFEFE" stroke="#0F79AB" stroke-width="6"/>
<path d="M241 549.7C252.046 549.7 261 540.062 261 528.173C261 516.284 252.046 506.646 241 506.646C229.955 506.646 221 516.284 221 528.173C221 540.062 229.955 549.7 241 549.7Z" fill="#ED6F7A"/>
<path d="M273.5 489.624C273.5 500.684 267.508 509.65 259.5 509.65C251.492 509.65 245 500.684 245 489.624C245 478.564 251.492 469.599 259.5 469.599C268.5 472.102 273.5 478.109 273.5 489.624Z" fill="#2B2A28"/>
<path d="M221.5 509.65C229.509 509.65 236 500.684 236 489.624C236 478.564 229.509 469.599 221.5 469.599C213.492 469.599 207 478.564 207 489.624C207 500.684 213.492 509.65 221.5 509.65Z" fill="#2B2A28"/>
<path d="M271 479.11C272 482.615 268.761 485.619 266 485.619C263.239 485.619 261 483.153 261 480.112C261 477.07 263.239 474.604 266 474.604C268.761 474.604 271 476.069 271 479.11Z" fill="#F9FAFB"/>
<path d="M233 479.11C234 482.615 230.762 485.619 228 485.619C225.239 485.619 223 483.153 223 480.112C223 477.07 225.239 474.604 228 474.604C230.762 474.604 233 476.069 233 479.11Z" fill="#F9FAFB"/>
</g>
<g clip-path="url(#clip6_176_1528)">
<path d="M404.914 498.138C399.66 498.815 397.535 500.708 396.478 503.074C395.193 505.952 395.078 510.361 395.894 516.856C397.452 529.238 402.31 547.96 402.31 569.225V569.533L402.256 569.837C399.485 585.473 397.086 599.417 397.865 611.363C398.613 622.825 402.265 632.077 411.243 639.009C424.419 641.259 434.314 640.348 441.677 637.453C449.12 634.527 454.256 629.467 457.69 622.97C464.696 609.715 464.629 590.43 461.361 571.835L461.336 571.692L461.323 571.549C459.706 553.929 450.36 535.424 438.696 521.267C432.885 514.214 426.594 508.358 420.568 504.296C414.567 500.25 409.158 498.202 404.914 498.138Z" fill="#87CFE5" stroke="#0076B8" stroke-width="7"/>
<path d="M423.182 604.061C423.124 603.776 423.186 603.47 423.342 603.214C423.5 602.959 423.74 602.773 424.021 602.697C424.301 602.62 424.602 602.658 424.867 602.8C425.132 602.941 425.34 603.173 425.434 603.448C425.635 604.042 425.828 604.619 426.02 605.215C429.816 615.672 430.104 628.081 427.099 639.053C426.946 639.679 426.797 640.272 426.633 640.896C424.416 640.166 422.2 639.436 419.983 638.706C420.209 638.143 420.421 637.608 420.637 637.044C424.682 627.129 425.86 616.62 423.534 605.851C423.42 605.25 423.306 604.665 423.182 604.061Z" fill="#0074AB"/>
<path d="M447.025 602.992C446.992 602.697 447.083 602.392 447.265 602.145C447.448 601.898 447.706 601.729 447.996 601.674C448.286 601.619 448.588 601.681 448.849 601.844C449.108 602.007 449.305 602.258 449.383 602.543C449.522 603.063 449.653 603.554 449.786 604.076C452.347 613.184 452.81 623.35 451.887 632.797C451.844 633.333 451.803 633.845 451.758 634.381C451.679 635.337 451.223 636.192 450.448 636.752C449.675 637.311 448.646 637.53 447.63 637.365C446.614 637.201 445.706 636.67 445.148 635.896C444.588 635.12 444.424 634.164 444.65 633.233C444.772 632.721 444.89 632.234 445.01 631.724C447.282 622.716 448.27 613.853 447.187 604.539C447.134 604.014 447.084 603.517 447.025 602.992Z" fill="#007BA4"/>
</g>
<path d="M341.427 589.466C297.198 601.331 289.869 570.396 307.279 548" stroke="#076FA2" stroke-width="6" stroke-linecap="round"/>
<path d="M193.319 565.107C193.081 564.703 192.749 564.461 192.396 564.436C192.043 564.41 191.697 564.602 191.436 564.97C191.174 565.338 191.018 565.851 191.001 566.397C190.985 566.943 191.109 567.476 191.347 567.88C192.513 569.86 193.755 571.734 195.058 573.496C219.343 604.928 257.155 600.351 280.759 569.853C282.086 568.149 283.351 566.397 284.594 564.541C284.848 564.161 284.994 563.64 285 563.094C285.006 562.548 284.87 562.02 284.625 561.628C284.379 561.235 284.042 561.009 283.689 561C283.335 560.991 282.994 561.2 282.739 561.579C281.546 563.364 280.33 565.047 279.055 566.684C256.441 596.062 219.719 600.228 196.814 570.395C195.584 568.733 194.416 566.968 193.319 565.107Z" fill="#076FA2"/>
<path d="M217.334 591.963L217.375 591.979L217.417 591.987L224.306 593.487L224.341 593.495L224.377 593.498L230.368 593.998L230.391 594H235.205V613.916L234.954 617.48L232.614 620.735L230.462 622.531L227.375 623H224.543L221.495 621.612L218.414 618.339L215.308 612.682L213.291 604.506L211.842 596.282V589.879L217.334 591.963Z" fill="#FEFEFE" stroke="#0578A5" stroke-width="3"/>
<path d="M252.506 591.723L252.465 591.738L252.423 591.748L246.19 593.104L246.154 593.111L246.119 593.114L240.699 593.566L240.676 593.568H236.403V611.422L236.627 614.579L238.709 617.474L240.633 619.079L243.406 619.5H245.953L248.688 618.255L251.455 615.318L254.247 610.236L256.064 602.878L257.37 595.467V589.878L252.506 591.723Z" fill="#FEFEFE" stroke="#0875A4" stroke-width="3"/>
<path d="M126 601C173 609.5 184.5 573.5 168 550" stroke="#076FA2" stroke-width="6" stroke-linecap="round"/>
</g>
</g>
<g clip-path="url(#clip7_176_1528)">
<path d="M82.3255 578.083C86.2647 574.542 89.0838 574.165 91.564 574.905C94.5816 575.805 97.9937 578.59 102.378 583.441C110.735 592.687 121.739 608.566 137.838 622.42L138.07 622.62L138.336 622.778C151.979 630.863 164.1 638.129 172.635 646.502C180.823 654.535 185.446 663.331 184.837 674.652C177.945 686.105 170.801 693.011 163.807 696.706C156.737 700.441 149.557 701.039 142.398 699.409C127.794 696.084 113.239 683.47 101.295 668.879L101.202 668.767L101.102 668.664C88.8183 655.959 80.9062 636.821 77.7984 618.757C76.2492 609.758 75.9208 601.174 76.7756 593.96C77.627 586.776 79.6049 581.342 82.3255 578.083Z" fill="#87CFE5" stroke="#0076B8" stroke-width="7"/>
<path d="M150.594 660.935C150.416 660.705 150.144 660.552 149.848 660.505C149.551 660.457 149.254 660.519 149.014 660.681C148.774 660.844 148.605 661.097 148.539 661.39C148.473 661.682 148.514 661.991 148.661 662.242C148.979 662.781 149.29 663.303 149.616 663.837C155.055 673.527 164.261 681.828 174.527 686.699C175.101 686.991 175.647 687.264 176.227 687.546C177.12 685.39 178.013 683.235 178.906 681.079C178.332 680.883 177.79 680.696 177.222 680.492C167.077 677.099 158.354 671.146 151.719 662.367C151.338 661.889 150.97 661.421 150.594 660.935Z" fill="#0074AB"/>
<path d="M134.232 678.31C134.031 678.094 133.74 677.964 133.434 677.941C133.128 677.919 132.832 678.005 132.602 678.188C132.37 678.373 132.22 678.642 132.174 678.945C132.127 679.249 132.189 679.561 132.355 679.805C132.657 680.25 132.944 680.669 133.253 681.11C138.475 688.984 145.869 695.958 153.623 701.413C154.057 701.73 154.472 702.033 154.907 702.347C155.681 702.91 156.627 703.121 157.555 702.898C158.484 702.677 159.32 702.039 159.859 701.163C160.397 700.286 160.587 699.251 160.364 698.323C160.143 697.394 159.527 696.647 158.674 696.211C158.206 695.971 157.761 695.743 157.297 695.502C148.996 691.355 141.642 686.331 135.298 679.441C134.935 679.059 134.592 678.697 134.232 678.31Z" fill="#007BA4"/>
</g>
</g>
<defs>
<clipPath id="clip0_176_1528">
<rect width="476" height="786" fill="white"/>
</clipPath>
<clipPath id="clip1_176_1528">
<rect width="476" height="786" fill="white"/>
</clipPath>
<clipPath id="clip2_176_1528">
<rect width="476" height="786" fill="white"/>
</clipPath>
<clipPath id="clip3_176_1528">
<rect width="151" height="90.1148" fill="white" transform="translate(94 695.885)"/>
</clipPath>
<clipPath id="clip4_176_1528">
<rect width="151" height="90.1148" fill="white" transform="matrix(-1 0 0 1 396.001 695.885)"/>
</clipPath>
<clipPath id="clip5_176_1528">
<rect width="196" height="148.189" fill="white" transform="translate(146 401.512)"/>
</clipPath>
<clipPath id="clip6_176_1528">
<rect width="76" height="149.19" fill="white" transform="matrix(-1 0 0 1 467 494.63)"/>
</clipPath>
<clipPath id="clip7_176_1528">
<rect width="158.308" height="110.56" fill="white" transform="matrix(-0.877494 -0.479588 -0.479588 0.877494 216.938 629.923)"/>
</clipPath>
</defs>
</svg>
