<svg width="476" height="786" viewBox="0 0 476 786" fill="none" xmlns="http://www.w3.org/2000/svg">
<g clip-path="url(#clip0_176_1248)">
<path d="M86.9297 16.7143C96.5345 11.8058 106.682 11.5524 117.15 15.7188C127.798 19.9572 138.925 28.8568 149.706 42.484C171.246 69.7073 190.39 114.534 201.105 172.941C203.797 197.451 207.515 221.975 210.903 244.675C214.315 267.526 217.378 288.445 218.81 305.946C220.262 323.711 219.917 336.908 217.187 344.843C215.87 348.67 214.243 350.541 212.698 351.426C211.21 352.28 208.76 352.81 204.48 351.727L201.386 350.945L199.008 353.076C195.786 355.965 194.143 356.089 193.632 356.04C193.139 355.992 191.842 355.603 189.746 352.806C187.689 350.061 185.529 345.873 183.134 340.141C180.765 334.471 178.317 327.671 175.575 319.89C164.678 288.966 149.647 243.897 118.755 204.259L118.539 203.982L118.293 203.733L115.425 200.807C55.8798 139.71 39.4621 98.8817 41.6354 71.5833C43.8011 44.3815 64.7521 28.0479 86.9297 16.7143Z" fill="#8BCDE5" stroke="#0E6B96" stroke-width="12"/>
<path d="M307.345 63.0001C329.956 36.7664 354.435 28.2455 371.981 33.7082C390.948 39.6138 410.17 56.4775 412.328 84.658C414.514 113.194 399.378 155.113 344.924 210.922L344.816 211.034L344.714 211.149C311.199 249.217 298.305 291.6 289.629 320.998C287.446 328.398 285.571 334.835 283.702 340.279C281.814 345.774 280.078 349.805 278.313 352.52C276.553 355.23 275.28 355.846 274.561 355.996C273.785 356.157 271.966 356.128 268.378 353.876L266.01 352.389L263.352 353.247C259.04 354.637 256.325 354.41 254.592 353.718C252.907 353.044 251.211 351.556 249.678 348.449C246.419 341.847 245.025 330.25 245.345 314.045C245.977 281.971 253.048 236.878 258.547 190.113C265.454 131.368 284.962 88.9707 307.345 63.0001Z" fill="#87CFE5" stroke="#0E6B96" stroke-width="12"/>
<path d="M237.5 334.426C339.975 334.426 423 416.937 423 518.661C423 620.384 339.975 702.895 237.5 702.895C135.025 702.895 52.0005 620.384 52.0005 518.661C52.0005 416.937 135.025 334.426 237.5 334.426Z" fill="#86D0E3" stroke="#0C74AB" stroke-width="7"/>
<path d="M364.501 646.824C330.001 685.874 266.001 701.394 241.001 698.89C134.001 704.898 53.5005 610.673 56.0005 517.159C57.5664 458.584 43.0005 596.76 182.001 655.836C256.501 693.383 364.501 646.824 364.501 646.824Z" fill="#37B4CA"/>
<path opacity="0.77" d="M173.5 393.501L182.5 381.987L195 370.972L202 366.967L208.5 364.965L212 368.469L215 372.474L217 378.482L208.5 380.985L196 387.994L187.5 393.501L179 401.511L175 397.006L173.5 393.501Z" fill="#004F80"/>
<path opacity="0.7" d="M264.5 357.956H272.5L280 359.458L288 362.462L298 366.968L306.5 371.974L305 379.483L295 376.98L283.5 374.477L274.5 372.975H267.5H259.5V365.966L261 360.96L264.5 357.956Z" fill="#014C83"/>
<g clip-path="url(#clip1_176_1248)">
<path d="M199 700.892C217.453 700.892 227.418 706.676 232.985 714.2C238.752 721.995 240.5 732.568 240.5 743.446C240.5 754.69 239.623 763.351 232.348 769.732C224.743 776.403 209.12 781.494 176.5 781.494C154.106 781.494 138.008 780.425 126.449 778.524C114.815 776.61 108.241 773.924 104.485 771.045C100.993 768.37 99.6442 765.307 99.1137 761.461C98.8339 759.432 98.7896 757.202 98.8315 754.653C98.8709 752.258 99.0004 749.258 99.0004 746.45C99.0004 742.955 101.71 738.187 108.265 732.614C114.594 727.233 123.607 721.877 134.018 717.118C154.892 707.578 180.368 700.892 199 700.892Z" fill="#87CFE5" stroke="#0178B2" stroke-width="9"/>
<path d="M235.614 730.881C246.614 773.936 213.16 778.99 174.5 778.99C135.84 778.99 114 775.987 108.5 768.978C95.5 762.97 149.114 767.928 177.114 764.924C262.114 764.924 216 687.874 235.614 730.881Z" fill="#31A7BA"/>
</g>
<g clip-path="url(#clip2_176_1248)">
<path d="M291.001 700.892C272.548 700.892 262.583 706.676 257.016 714.2C251.249 721.995 249.501 732.568 249.501 743.446C249.501 754.69 250.378 763.351 257.653 769.732C265.258 776.403 280.881 781.494 313.501 781.494C335.895 781.494 351.993 780.425 363.552 778.524C375.186 776.61 381.76 773.924 385.516 771.045C389.008 768.37 390.357 765.307 390.887 761.461C391.167 759.432 391.211 757.202 391.169 754.653C391.13 752.258 391.001 749.258 391.001 746.45C391.001 742.955 388.291 738.187 381.736 732.614C375.407 727.233 366.394 721.877 355.983 717.118C335.109 707.578 309.633 700.892 291.001 700.892Z" fill="#87CFE5" stroke="#0178B2" stroke-width="9"/>
<path d="M254.387 730.881C243.387 773.936 276.841 778.99 315.501 778.99C354.161 778.99 376.001 775.987 381.501 768.978C394.501 762.97 340.887 767.928 312.887 764.924C227.887 764.924 274.001 687.874 254.387 730.881Z" fill="#31A7BA"/>
</g>
<g clip-path="url(#clip3_176_1248)">
<path d="M193.5 431.55C218.481 431.55 239.5 455.778 239.5 485.619C239.5 502.455 236.057 515.942 228.772 525.17C221.589 534.269 210.302 539.688 193.5 539.688C168.615 539.688 149 516.052 149 485.619C149 455.185 168.615 431.55 193.5 431.55Z" fill="#FEFEFE" stroke="#0F79AB" stroke-width="6"/>
<path d="M288.176 404.516C301.85 404.516 314.49 412.128 323.821 424.787C333.149 437.441 339 454.952 339 474.104C339 495.678 335.187 513.118 327.027 525.086C319.002 536.858 306.53 543.693 288.176 543.693C274.506 543.693 262.294 536.238 253.386 523.693C244.469 511.135 239 493.618 239 474.104C239 454.591 244.469 437.073 253.386 424.515C262.294 411.97 274.506 404.516 288.176 404.516Z" fill="#FEFEFE" stroke="#0F79AB" stroke-width="6"/>
<path d="M241 549.7C252.046 549.7 261 540.062 261 528.173C261 516.284 252.046 506.646 241 506.646C229.955 506.646 221 516.284 221 528.173C221 540.062 229.955 549.7 241 549.7Z" fill="#ED6F7A"/>
<path d="M273.5 489.624C273.5 500.684 267.508 509.65 259.5 509.65C251.492 509.65 245 500.684 245 489.624C245 478.564 251.492 469.599 259.5 469.599C268.5 472.102 273.5 478.109 273.5 489.624Z" fill="#2B2A28"/>
<path d="M221.5 509.65C229.509 509.65 236 500.684 236 489.624C236 478.564 229.509 469.599 221.5 469.599C213.492 469.599 207 478.564 207 489.624C207 500.684 213.492 509.65 221.5 509.65Z" fill="#2B2A28"/>
<path d="M271 479.11C272 482.615 268.761 485.619 266 485.619C263.239 485.619 261 483.153 261 480.112C261 477.07 263.239 474.604 266 474.604C268.761 474.604 271 476.069 271 479.11Z" fill="#F9FAFB"/>
<path d="M233 479.11C234 482.615 230.762 485.619 228 485.619C225.239 485.619 223 483.153 223 480.112C223 477.07 225.239 474.604 228 474.604C230.762 474.604 233 476.069 233 479.11Z" fill="#F9FAFB"/>
</g>
<g clip-path="url(#clip4_176_1248)">
<path d="M404.914 502.508C399.66 503.185 397.535 505.078 396.479 507.444C395.193 510.322 395.078 514.731 395.895 521.226C397.452 533.608 402.31 552.33 402.31 573.595V573.903L402.256 574.208C399.485 589.843 397.086 603.787 397.865 615.733C398.613 627.195 402.265 636.448 411.243 643.379C424.419 645.629 434.314 644.718 441.677 641.823C449.12 638.897 454.256 633.837 457.691 627.34C464.696 614.085 464.63 594.8 461.362 576.205L461.336 576.063L461.323 575.919C459.706 558.299 450.361 539.794 438.696 525.637C432.885 518.584 426.594 512.729 420.569 508.666C414.567 504.62 409.159 502.572 404.914 502.508Z" fill="#87CFE5" stroke="#0076B8" stroke-width="7"/>
<path d="M423.182 608.431C423.124 608.146 423.186 607.84 423.342 607.584C423.5 607.329 423.74 607.144 424.021 607.068C424.301 606.99 424.602 607.028 424.867 607.17C425.132 607.311 425.34 607.543 425.434 607.818C425.635 608.412 425.828 608.989 426.02 609.585C429.816 620.042 430.104 632.451 427.099 643.423C426.946 644.049 426.797 644.642 426.633 645.266C424.416 644.536 422.2 643.806 419.983 643.076C420.209 642.513 420.421 641.978 420.637 641.414C424.682 631.499 425.86 620.99 423.534 610.222C423.42 609.62 423.306 609.035 423.182 608.431Z" fill="#0074AB"/>
<path d="M447.025 607.362C446.992 607.067 447.083 606.762 447.265 606.515C447.448 606.268 447.706 606.099 447.996 606.044C448.286 605.989 448.588 606.051 448.849 606.214C449.108 606.377 449.305 606.628 449.383 606.913C449.522 607.433 449.653 607.924 449.786 608.446C452.347 617.554 452.81 627.72 451.887 637.167C451.844 637.703 451.803 638.215 451.758 638.751C451.679 639.707 451.223 640.562 450.448 641.122C449.675 641.681 448.646 641.9 447.63 641.736C446.614 641.571 445.706 641.04 445.148 640.266C444.588 639.49 444.424 638.534 444.65 637.603C444.772 637.092 444.89 636.604 445.01 636.094C447.282 627.086 448.27 618.224 447.187 608.909C447.134 608.384 447.084 607.887 447.025 607.362Z" fill="#007BA4"/>
</g>
<path d="M347.822 532.667L347.696 533.087L347.696 533.525C347.695 548.262 338.798 577.727 318.297 601.632C298.003 625.295 266.479 643.361 221.017 636.179C182.734 621.23 166.186 597.852 158.257 577.594C154.257 567.373 152.423 557.874 151.151 550.446C150.727 547.964 150.351 545.637 149.975 543.607C154.266 546.353 159.456 549.474 165.346 552.643C189.643 565.713 226.6 580.03 261.549 571.354C294.385 571.235 319.277 555.428 334.786 543.257C338.682 540.199 342.004 537.356 344.696 535.056C345.926 534.005 346.995 533.095 347.917 532.33C347.886 532.44 347.856 532.553 347.822 532.667Z" fill="#D20223" stroke="#076FA2" stroke-width="6"/>
<path d="M148.199 533.981C147.666 533.392 146.921 533.041 146.129 533.004C145.337 532.966 144.563 533.246 143.977 533.782C143.391 534.317 143.04 535.065 143.003 535.859C142.966 536.654 143.245 537.431 143.779 538.02C146.393 540.902 149.175 543.631 152.096 546.197C206.535 591.972 291.298 585.306 344.212 540.893C347.187 538.411 350.021 535.86 352.807 533.156C353.377 532.603 353.703 531.845 353.717 531.05C353.73 530.254 353.427 529.486 352.877 528.914C352.326 528.342 351.57 528.014 350.778 528C349.985 527.987 349.22 528.291 348.65 528.844C345.974 531.442 343.25 533.893 340.392 536.278C289.697 579.061 207.378 585.128 156.033 541.682C153.277 539.261 150.657 536.691 148.199 533.981Z" fill="#076FA2"/>
<path d="M212.41 574.963L212.478 574.979L212.548 574.987L224.005 576.487L224.064 576.495L224.124 576.498L234.087 576.998L234.125 577L242.132 577L242.132 596.916L241.714 600.48L237.823 603.735L234.243 605.531L229.109 606L224.399 606L219.331 604.612L214.206 601.339L209.04 595.682L205.685 587.506L203.276 579.282L203.276 572.879L212.41 574.963Z" fill="#FEFEFE" stroke="#0578A5" stroke-width="3"/>
<path d="M270.905 574.723L270.837 574.738L270.767 574.748L260.401 576.104L260.341 576.111L260.283 576.114L251.268 576.566L251.231 576.568L244.125 576.568L244.125 594.422L244.496 597.579L247.959 600.474L251.159 602.079L255.771 602.5L260.007 602.5L264.556 601.255L269.158 598.318L273.801 593.236L276.822 585.878L278.995 578.467L278.995 572.878L270.905 574.723Z" fill="#FEFEFE" stroke="#0875A4" stroke-width="3"/>
<path d="M311.374 605.073C303.902 614.073 281.983 627.073 263.552 632.573C244.622 634.073 246.117 638.305 246.117 630.573C258.072 614.073 271.024 601.073 314.861 599.073C319.345 599.073 316.356 599.073 311.374 605.073Z" fill="#FF1863"/>
<path fill-rule="evenodd" clip-rule="evenodd" d="M205.763 605.099C214.363 611.049 206.349 621.989 185.653 651.289C174.957 666.432 154.715 670.728 140.477 660.877C126.238 651.025 123.363 630.733 134.059 615.59C154.755 586.29 193.636 589.812 205.763 605.099Z" fill="#FF9425"/>
<path fill-rule="evenodd" clip-rule="evenodd" d="M175.238 579.395C175.415 579.484 190.017 591.886 190.017 591.886C190.017 591.886 144.041 662.905 140.477 660.876C125.424 652.308 123.278 630.674 134.059 615.59C174.662 558.78 169.005 576.267 175.238 579.395Z" fill="#FF8600"/>
<path d="M132.14 622.745C138.364 625.458 144.396 628.507 149.274 633.197" stroke="#EF6A00" stroke-width="5" stroke-miterlimit="10" stroke-linecap="round" stroke-linejoin="round"/>
<path d="M151.069 597.183C156.137 597.438 159.75 600.475 163.273 603.943" stroke="#EF6A00" stroke-width="5" stroke-miterlimit="10" stroke-linecap="round" stroke-linejoin="round"/>
<path fill-rule="evenodd" clip-rule="evenodd" d="M143.555 655.596C143.555 655.596 139.85 679.874 136.533 687.887C133.231 695.864 119.927 697.785 116.344 694.96C111.43 691.086 110.351 682.099 116.664 675.581C122.611 669.441 143.555 655.596 143.555 655.596Z" fill="#129447"/>
<path fill-rule="evenodd" clip-rule="evenodd" d="M143.4 655.585C143.4 655.585 144.106 666.189 148.676 675.81C151.218 681.164 158.274 684.316 159.544 688.43C161.066 693.359 160.628 699.083 155.768 699.996C150.908 700.91 146.268 696.894 141.52 691.163C133.21 681.134 141.335 660.394 143.4 655.585Z" fill="#00AA63"/>
<path fill-rule="evenodd" clip-rule="evenodd" d="M144.61 655.669C144.61 655.669 149.584 662.84 157.209 670.225C162.614 675.459 171.133 679.569 171.727 679.795C179.842 682.902 178.384 690.842 171.246 692.455C165.03 693.858 158.809 691.028 154.795 687.329C144.441 677.792 140.962 658.454 144.61 655.669Z" fill="#129447"/>
<path fill-rule="evenodd" clip-rule="evenodd" d="M144.61 655.669C144.61 655.669 134.756 657.649 124.528 656.256C118.84 655.481 113.694 649.549 109.543 649.628C104.568 649.721 99.5047 652.001 100.243 657.082C100.981 662.163 107.89 666.467 112.878 668.261C124.889 672.587 142.244 659.883 144.61 655.669Z" fill="#00AA63"/>
<path fill-rule="evenodd" clip-rule="evenodd" d="M144.61 655.669C144.61 655.669 133.304 653.175 124.052 648.2C116.554 644.168 112.449 639.159 109.97 637.929C105.409 635.665 100.709 637.401 100.127 642.445C99.5461 647.489 105.849 654.313 109.599 656.508C121.152 663.272 140.008 659.271 144.61 655.669Z" fill="#129447"/>
<path d="M175.46 635.02C181.409 635.998 186.615 639.39 189.826 641.771" stroke="#EF6A00" stroke-width="5" stroke-miterlimit="10" stroke-linecap="round" stroke-linejoin="round"/>
<path d="M195.268 601.171C199.897 602.057 204.356 604.963 207.153 606.998" stroke="#EF6A00" stroke-width="5" stroke-miterlimit="10" stroke-linecap="round" stroke-linejoin="round"/>
<path d="M204.906 600.85C202.969 597.754 196.647 604.857 201.158 600.227C198.672 603.55 196.25 603.407 199.009 604.226C206.384 605.071 204.363 612.28 208.645 610.5C209.236 606.893 208.99 607.378 204.906 600.85Z" fill="#FF9425"/>
<path d="M176.528 570.798C167.839 570.992 161.188 579.883 170.882 575.659C170.566 578.769 171.507 582.014 174.476 580.26C181.286 573.952 178.163 583.143 182.187 572.639C182.144 571.775 184.393 572.377 176.528 570.798Z" fill="#FF9221"/>
<path d="M200.975 590.52C199.643 590.958 202.996 589.163 198.403 591.943C195.87 595.33 192.523 595.671 194.302 597.002C196.082 598.334 193.189 607.647 201.539 597.158C206.826 596.807 208.256 600.27 200.975 590.52Z" fill="#C65104"/>
<path d="M204.892 595.362C203.559 595.8 202.902 590.059 199.414 591.264C196.88 594.651 196.272 600.389 198.051 601.72C199.831 603.052 201.13 599.72 205.04 601.21C208.93 617.509 212.266 605.659 204.892 595.362Z" fill="#C65104"/>
<path d="M196.644 584.889C193.002 584.134 193.41 583.961 189.936 585.795C187.572 588.954 186.273 593.069 188.582 594.633C195.561 599.362 195.091 595.07 197.993 593.3C204.874 592.537 199.509 589.494 196.644 584.889Z" fill="#C65104"/>
<path d="M182.094 572.091C178.452 571.337 179.35 570.574 175.876 572.408C173.513 575.567 172.213 579.681 174.522 581.246C181.502 585.975 181.032 581.683 183.933 579.912C190.814 579.15 190.853 579.195 182.094 572.091Z" fill="#C65104"/>
<path d="M189.255 577.97C185.613 577.216 186.022 577.043 182.547 578.876C180.184 582.035 178.884 586.15 181.193 587.714C188.173 592.443 189.888 590.469 192.789 588.699C199.669 587.936 197.634 584.237 189.255 577.97Z" fill="#C65104"/>
<path d="M207.991 610.432C207.887 610.571 207.531 610.742 206.891 610.755C205.397 610.787 205.127 608.729 204.45 607.785C203.774 606.839 203.099 605.898 202.554 604.779C202.295 604.246 201.706 603.758 201.001 603.393C199.842 602.794 198.318 603.518 196.903 603.176C196.248 603.018 195.616 602.817 195.214 602.354C194.5 601.53 195.398 600.032 194.96 598.769C194.578 597.669 192.801 596.44 191.187 595.887C189.71 595.38 188.703 595.125 188.234 594.831C187.1 594.118 187.252 592.296 187.229 591.016C187.218 590.383 186.504 589.758 185.652 589.283C184.079 588.406 181.883 588.706 180.691 588.367C180.104 588.201 180.691 587.056 180.623 586.457C180.485 585.257 179.142 584.362 177.143 582.81C175.734 581.714 173.844 581.602 172.658 581.098C171.635 580.663 171.78 578.967 171.288 577.775C171.062 577.23 170.638 576.795 170.223 576.428C169.017 576.344 168.1 576.645 167.507 576.748C167.216 576.752 166.945 576.657 166.35 576.981" stroke="#C65104" stroke-width="2" stroke-linecap="round"/>
<path d="M187.613 587.378C186.869 585.174 180.83 592.488 185.047 587.639C182.561 590.961 180.848 591.35 182.662 591.461C187.791 590.626 184.824 597.128 188.278 594.728C189.461 591.563 189.182 592.023 187.613 587.378Z" fill="#FF9425"/>
<path d="M200.865 594.735C200.351 594.351 199.776 593.618 198.729 592.603C197.916 591.815 197.669 590.743 197.09 589.848C196.577 589.082 196.23 588.363 195.954 587.928C195.76 587.705 195.454 587.476 195.138 587.24" stroke="#C65104" stroke-width="2" stroke-linecap="round"/>
<path d="M209.167 609.398C209.075 609.187 209.093 608.629 209.19 608.128C209.293 607.601 209.14 607.089 209.053 606.569C208.961 606.021 208.556 605.458 208.264 604.975C207.97 604.493 207.756 604.046 207.506 603.574C207.247 603.084 207.077 602.539 206.909 601.958C206.74 601.377 206.492 600.906 206.346 600.296C206.198 599.68 205.924 599.05 205.723 598.446C205.444 597.607 205.26 597.121 204.842 596.641C204.283 595.997 204.038 594.872 203.706 594.168C203.414 593.549 202.971 592.737 202.661 592.146C202.311 591.478 202.193 590.961 201.75 590.413C201.419 590.004 201.071 589.643 200.47 588.907C199.984 588.312 199.527 587.821 199.034 587.236C198.451 586.544 198.095 586.177 197.778 585.795C197.445 585.394 197.212 584.944 196.929 584.516C196.662 584.113 196.283 583.771 195.706 583.172C194.159 581.565 192.784 580.819 191.998 580.111C191.626 579.809 191.246 579.572 190.397 579.008C189.699 578.511 188.457 577.582 187.178 576.625" stroke="#FF8600" stroke-width="2" stroke-linecap="round"/>
<path d="M177.489 571.669C177.727 571.751 178.358 571.843 178.961 571.912C179.525 571.976 180.013 572.316 180.49 572.482C180.968 572.649 181.445 572.815 181.962 573.129C182.5 573.456 183.726 574.043 184.722 574.669C185.499 575.226 186.064 575.696 186.477 576.076C186.817 576.355 187.423 576.808 188.046 577.274" stroke="#FF8600" stroke-width="2" stroke-linecap="round"/>
<path d="M83.1791 552.065C86.2579 547.754 88.9284 546.776 91.51 546.961C94.6511 547.187 98.5853 549.166 103.916 552.953C114.077 560.17 128.259 573.289 146.975 583.328L147.246 583.473L147.539 583.569C162.609 588.509 176.016 592.977 186.162 599.303C195.895 605.372 202.313 612.958 204.171 624.143C199.922 636.816 194.443 645.106 188.416 650.227C182.322 655.405 175.442 657.543 168.099 657.502C153.122 657.419 136.181 648.256 121.36 636.598L121.246 636.509L121.125 636.43C106.382 626.686 94.5132 609.716 87.5674 592.754C84.1062 584.303 81.9267 575.994 81.199 568.766C80.4745 561.569 81.2287 555.835 83.1791 552.065Z" fill="#87CFE5" stroke="#0076B8" stroke-width="7"/>
<path d="M167.769 618.167C167.546 617.981 167.248 617.891 166.948 617.909C166.648 617.927 166.372 618.051 166.172 618.262C165.973 618.473 165.863 618.756 165.862 619.056C165.861 619.356 165.968 619.649 166.166 619.862C166.593 620.32 167.009 620.762 167.443 621.213C174.852 629.495 185.637 635.605 196.714 638.137C197.338 638.298 197.93 638.446 198.557 638.596C198.962 636.298 199.367 634.001 199.773 631.703C199.17 631.636 198.599 631.57 198.001 631.494C187.362 630.378 177.557 626.455 169.178 619.322C168.703 618.938 168.242 618.561 167.769 618.167Z" fill="#0074AB"/>
<path d="M155.559 638.673C155.315 638.506 155.003 638.442 154.7 638.486C154.396 638.53 154.126 638.678 153.94 638.907C153.754 639.137 153.666 639.433 153.687 639.738C153.707 640.045 153.835 640.336 154.05 640.539C154.441 640.908 154.812 641.255 155.208 641.619C162.013 648.175 170.741 653.382 179.493 657.028C179.985 657.244 180.455 657.449 180.948 657.662C181.826 658.044 182.794 658.046 183.653 657.627C184.511 657.21 185.19 656.406 185.526 655.434C185.861 654.461 185.823 653.41 185.405 652.552C184.987 651.693 184.224 651.097 183.297 650.856C182.788 650.723 182.304 650.597 181.799 650.462C172.797 648.211 164.53 644.899 156.844 639.546C156.407 639.252 155.994 638.973 155.559 638.673Z" fill="#007BA4"/>
</g>
<defs>
<clipPath id="clip0_176_1248">
<rect width="476" height="786" fill="white"/>
</clipPath>
<clipPath id="clip1_176_1248">
<rect width="151" height="90.1148" fill="white" transform="translate(94 695.885)"/>
</clipPath>
<clipPath id="clip2_176_1248">
<rect width="151" height="90.1148" fill="white" transform="matrix(-1 0 0 1 396.001 695.885)"/>
</clipPath>
<clipPath id="clip3_176_1248">
<rect width="196" height="148.189" fill="white" transform="translate(146 401.512)"/>
</clipPath>
<clipPath id="clip4_176_1248">
<rect width="76" height="149.19" fill="white" transform="matrix(-1 0 0 1 467 499)"/>
</clipPath>
</defs>
</svg>
