<svg width="476" height="786" viewBox="0 0 476 786" fill="none" xmlns="http://www.w3.org/2000/svg">
<g clip-path="url(#clip0_157_968)">
<g clip-path="url(#clip1_157_968)">
<path d="M86.9296 16.7143C96.5345 11.8058 106.682 11.5524 117.15 15.7188C127.798 19.9572 138.925 28.8568 149.706 42.484C171.246 69.7073 190.39 114.534 201.105 172.941C203.797 197.451 207.515 221.975 210.903 244.675C214.315 267.526 217.378 288.445 218.81 305.947C220.262 323.711 219.917 336.908 217.187 344.843C215.87 348.67 214.243 350.541 212.698 351.426C211.21 352.28 208.76 352.81 204.48 351.727L201.386 350.945L199.008 353.076C195.786 355.965 194.143 356.089 193.632 356.04C193.139 355.992 191.842 355.603 189.746 352.806C187.689 350.061 185.529 345.873 183.134 340.141C180.765 334.471 178.317 327.671 175.575 319.89C164.678 288.966 149.647 243.897 118.755 204.259L118.539 203.982L118.293 203.733L115.425 200.807C55.8798 139.71 39.4621 98.8817 41.6354 71.5833C43.8011 44.3815 64.7521 28.0479 86.9296 16.7143Z" fill="#8BCDE5" stroke="#0E6B96" stroke-width="12"/>
<path d="M307.345 63.0001C329.956 36.7664 354.435 28.2455 371.981 33.7082C390.948 39.6138 410.17 56.4775 412.328 84.658C414.514 113.194 399.378 155.113 344.924 210.922L344.816 211.034L344.714 211.149C311.199 249.217 298.305 291.6 289.629 320.998C287.446 328.398 285.571 334.835 283.702 340.279C281.814 345.774 280.078 349.805 278.313 352.52C276.553 355.23 275.28 355.846 274.561 355.996C273.785 356.157 271.966 356.128 268.378 353.876L266.01 352.389L263.352 353.247C259.04 354.637 256.325 354.41 254.592 353.718C252.907 353.044 251.211 351.556 249.678 348.449C246.419 341.847 245.025 330.25 245.345 314.045C245.977 281.971 253.048 236.878 258.547 190.113C265.454 131.368 284.962 88.9707 307.345 63.0001Z" fill="#87CFE5" stroke="#0E6B96" stroke-width="12"/>
<path d="M237.5 334.426C339.975 334.426 423 416.937 423 518.661C423 620.384 339.975 702.895 237.5 702.895C135.025 702.895 52.0005 620.384 52.0005 518.661C52.0005 416.937 135.025 334.426 237.5 334.426Z" fill="#86D0E3" stroke="#0C74AB" stroke-width="7"/>
<path d="M364.501 646.824C330.001 685.874 266.001 701.394 241.001 698.89C134.001 704.898 53.5005 610.673 56.0005 517.159C57.5664 458.584 43.0005 596.76 182.001 655.836C256.501 693.383 364.501 646.824 364.501 646.824Z" fill="#37B4CA"/>
<path opacity="0.77" d="M173.5 393.501L182.5 381.987L195 370.972L202 366.967L208.5 364.965L212 368.469L215 372.474L217 378.482L208.5 380.985L196 387.994L187.5 393.501L179 401.511L175 397.006L173.5 393.501Z" fill="#004F80"/>
<path opacity="0.7" d="M264.5 357.956H272.5L280 359.458L288 362.462L298 366.968L306.5 371.974L305 379.483L295 376.98L283.5 374.477L274.5 372.975H267.5H259.5V365.966L261 360.96L264.5 357.956Z" fill="#014C83"/>
<g clip-path="url(#clip2_157_968)">
<path d="M199 700.891C217.453 700.891 227.418 706.675 232.985 714.199C238.752 721.994 240.5 732.567 240.5 743.445C240.5 754.689 239.623 763.351 232.348 769.732C224.743 776.403 209.12 781.494 176.5 781.494C154.106 781.494 138.008 780.424 126.449 778.523C114.815 776.61 108.241 773.923 104.485 771.045C100.993 768.369 99.6442 765.306 99.1137 761.46C98.8339 759.432 98.7896 757.202 98.8315 754.653C98.8709 752.258 99.0004 749.257 99.0004 746.449C99.0004 742.955 101.71 738.187 108.265 732.613C114.594 727.232 123.607 721.877 134.018 717.118C154.892 707.577 180.368 700.891 199 700.891Z" fill="#87CFE5" stroke="#0178B2" stroke-width="9"/>
<path d="M235.614 730.881C246.614 773.936 213.16 778.991 174.5 778.991C135.84 778.991 114 775.987 108.5 768.978C95.5 762.97 149.114 767.928 177.114 764.925C262.114 764.925 216 687.875 235.614 730.881Z" fill="#31A7BA"/>
</g>
<g clip-path="url(#clip3_157_968)">
<path d="M291.001 700.891C272.548 700.891 262.583 706.675 257.016 714.199C251.249 721.994 249.501 732.567 249.501 743.445C249.501 754.689 250.378 763.351 257.653 769.732C265.258 776.403 280.881 781.494 313.501 781.494C335.895 781.494 351.993 780.424 363.552 778.523C375.186 776.61 381.76 773.923 385.516 771.045C389.008 768.369 390.357 765.306 390.887 761.46C391.167 759.432 391.211 757.202 391.169 754.653C391.13 752.258 391.001 749.257 391.001 746.449C391.001 742.955 388.291 738.187 381.736 732.613C375.407 727.232 366.394 721.877 355.983 717.118C335.109 707.577 309.633 700.891 291.001 700.891Z" fill="#87CFE5" stroke="#0178B2" stroke-width="9"/>
<path d="M254.387 730.881C243.387 773.936 276.841 778.991 315.501 778.991C354.161 778.991 376.001 775.987 381.501 768.978C394.501 762.97 340.887 767.928 312.887 764.925C227.887 764.925 274.001 687.875 254.387 730.881Z" fill="#31A7BA"/>
</g>
<g clip-path="url(#clip4_157_968)">
<path d="M193.5 431.549C218.481 431.549 239.5 455.778 239.5 485.618C239.5 502.455 236.057 515.942 228.772 525.17C221.589 534.268 210.302 539.687 193.5 539.687C168.615 539.687 149 516.052 149 485.618C149 455.184 168.615 431.549 193.5 431.549Z" fill="#FEFEFE" stroke="#0F79AB" stroke-width="6"/>
<path d="M288.176 404.515C301.85 404.515 314.49 412.127 323.821 424.786C333.149 437.44 339 454.951 339 474.104C339 495.678 335.187 513.118 327.027 525.086C319.002 536.858 306.53 543.692 288.176 543.692C274.506 543.692 262.294 536.238 253.386 523.693C244.469 511.135 239 493.617 239 474.104C239 454.59 244.469 437.073 253.386 424.514C262.294 411.97 274.506 404.515 288.176 404.515Z" fill="#FEFEFE" stroke="#0F79AB" stroke-width="6"/>
<path d="M241 549.7C252.046 549.7 261 540.062 261 528.172C261 516.283 252.046 506.645 241 506.645C229.955 506.645 221 516.283 221 528.172C221 540.062 229.955 549.7 241 549.7Z" fill="#ED6F7A"/>
<path d="M273.5 489.624C273.5 500.683 267.508 509.649 259.5 509.649C251.492 509.649 245 500.683 245 489.624C245 478.564 251.492 469.598 259.5 469.598C268.5 472.101 273.5 478.109 273.5 489.624Z" fill="#2B2A28"/>
<path d="M221.5 509.649C229.509 509.649 236 500.683 236 489.624C236 478.564 229.509 469.598 221.5 469.598C213.492 469.598 207 478.564 207 489.624C207 500.683 213.492 509.649 221.5 509.649Z" fill="#2B2A28"/>
<path d="M271 479.11C272 482.615 268.761 485.619 266 485.619C263.239 485.619 261 483.153 261 480.112C261 477.07 263.239 474.604 266 474.604C268.761 474.604 271 476.069 271 479.11Z" fill="#F9FAFB"/>
<path d="M233 479.11C234 482.615 230.762 485.619 228 485.619C225.239 485.619 223 483.153 223 480.112C223 477.07 225.239 474.604 228 474.604C230.762 474.604 233 476.069 233 479.11Z" fill="#F9FAFB"/>
</g>
<g clip-path="url(#clip5_157_968)">
<path d="M62.0857 498.138C67.3398 498.815 69.4645 500.708 70.5213 503.074C71.8072 505.952 71.9222 510.361 71.1053 516.856C69.548 529.238 64.6902 547.96 64.6902 569.225V569.533L64.7439 569.837C67.5145 585.473 69.9139 599.417 69.1346 611.363C68.3868 622.825 64.7351 632.077 55.7566 639.009C42.5809 641.259 32.686 640.348 25.323 637.453C17.8795 634.527 12.744 629.467 9.30938 622.97C2.30366 609.715 2.37047 590.43 5.63848 571.835L5.66387 571.692L5.67657 571.549C7.2941 553.929 16.6393 535.424 28.3035 521.267C34.1148 514.214 40.4062 508.358 46.4314 504.296C52.4325 500.25 57.8413 498.202 62.0857 498.138Z" fill="#87CFE5" stroke="#0076B8" stroke-width="7"/>
<path d="M43.8178 604.062C43.8759 603.776 43.8145 603.471 43.6576 603.215C43.5001 602.959 43.2598 602.774 42.9793 602.698C42.6988 602.621 42.398 602.659 42.1327 602.8C41.868 602.941 41.6605 603.173 41.5662 603.449C41.3647 604.043 41.1721 604.619 40.9797 605.215C37.1836 615.672 36.8963 628.081 39.901 639.053C40.0545 639.679 40.2034 640.273 40.3672 640.897C42.5837 640.167 44.8003 639.437 47.0168 638.707C46.7908 638.143 46.5791 637.608 46.3633 637.045C42.3183 627.129 41.1399 616.621 43.4664 605.852C43.5798 605.25 43.6941 604.665 43.8178 604.062Z" fill="#0074AB"/>
<path d="M19.9754 602.993C20.0078 602.698 19.9166 602.393 19.7347 602.146C19.5521 601.899 19.2939 601.73 19.0038 601.675C18.7137 601.62 18.4117 601.682 18.1514 601.845C17.8918 602.008 17.6951 602.259 17.6175 602.544C17.4783 603.064 17.3473 603.555 17.214 604.077C14.6529 613.185 14.1899 623.351 15.1129 632.798C15.1558 633.334 15.1967 633.846 15.2424 634.382C15.321 635.338 15.7769 636.193 16.5522 636.753C17.325 637.312 18.3538 637.531 19.3699 637.366C20.386 637.202 21.2939 636.67 21.8517 635.897C22.4119 635.121 22.5761 634.165 22.3505 633.234C22.2276 632.722 22.1097 632.235 21.9899 631.725C19.7184 622.717 18.7297 613.854 19.8133 604.54C19.8659 604.015 19.9165 603.518 19.9754 602.993Z" fill="#007BA4"/>
</g>
<path d="M347.822 532.667L347.696 533.087L347.696 533.525C347.695 548.262 338.798 577.727 318.297 601.632C298.003 625.295 266.479 643.361 221.017 636.179C182.734 621.23 166.186 597.852 158.257 577.594C154.257 567.373 152.423 557.874 151.151 550.446C150.727 547.964 150.351 545.637 149.975 543.607C154.266 546.353 159.456 549.474 165.346 552.643C189.643 565.713 226.6 580.03 261.549 571.354C294.385 571.235 319.277 555.428 334.786 543.257C338.682 540.199 342.004 537.356 344.696 535.056C345.926 534.005 346.995 533.095 347.917 532.33C347.886 532.44 347.856 532.553 347.822 532.667Z" fill="#D20223" stroke="#076FA2" stroke-width="6"/>
<path d="M148.199 533.981C147.666 533.392 146.921 533.041 146.129 533.004C145.337 532.966 144.563 533.246 143.977 533.782C143.391 534.317 143.04 535.065 143.003 535.859C142.966 536.654 143.245 537.431 143.779 538.02C146.393 540.902 149.175 543.631 152.096 546.197C206.535 591.972 291.298 585.306 344.212 540.893C347.187 538.411 350.021 535.86 352.807 533.156C353.377 532.603 353.703 531.845 353.717 531.05C353.73 530.254 353.427 529.486 352.877 528.914C352.326 528.342 351.57 528.014 350.778 528C349.985 527.987 349.22 528.291 348.65 528.844C345.974 531.442 343.25 533.893 340.392 536.278C289.697 579.061 207.378 585.128 156.033 541.682C153.277 539.261 150.657 536.691 148.199 533.981Z" fill="#076FA2"/>
<path d="M212.41 574.963L212.478 574.979L212.548 574.988L224.005 576.488L224.064 576.496L224.124 576.498L234.087 576.998L234.125 577L242.132 577L242.132 596.916L241.714 600.48L237.823 603.736L234.243 605.532L229.109 606L224.399 606L219.331 604.613L214.206 601.339L209.04 595.682L205.685 587.506L203.276 579.283L203.276 572.879L212.41 574.963Z" fill="#FEFEFE" stroke="#0578A5" stroke-width="3"/>
<path d="M270.905 574.723L270.837 574.739L270.767 574.749L260.401 576.104L260.341 576.112L260.283 576.115L251.268 576.567L251.231 576.569L244.125 576.569L244.125 594.422L244.496 597.58L247.959 600.474L251.159 602.08L255.771 602.501L260.007 602.501L264.556 601.255L269.158 598.319L273.801 593.237L276.822 585.878L278.995 578.467L278.995 572.878L270.905 574.723Z" fill="#FEFEFE" stroke="#0875A4" stroke-width="3"/>
<path d="M311.374 605.073C303.902 614.073 281.983 627.073 263.552 632.573C244.622 634.073 246.117 638.305 246.117 630.573C258.072 614.073 271.024 601.073 314.861 599.073C319.345 599.073 316.356 599.073 311.374 605.073Z" fill="#FF1863"/>
<path fill-rule="evenodd" clip-rule="evenodd" d="M264.668 598.399C269.816 589.252 357.496 614.506 390.661 633.17C407.801 642.815 414.798 662.942 406.275 678.086C397.752 693.232 376.918 697.697 359.777 688.051C326.613 669.388 259.521 607.546 264.668 598.399Z" fill="#FF9425"/>
<path fill-rule="evenodd" clip-rule="evenodd" d="M264.505 598.764C264.577 598.578 264.674 598.377 264.674 598.377C264.674 598.377 407.951 674.329 406.274 678.086C399.192 693.957 376.866 697.787 359.776 688.051C295.416 651.384 262.01 605.303 264.505 598.764Z" fill="#FF8600"/>
<path d="M367.486 689.441C369.549 682.944 371.984 676.613 376.277 671.324" stroke="#EF6A00" stroke-width="5" stroke-miterlimit="10" stroke-linecap="round" stroke-linejoin="round"/>
<path d="M338.445 672.275C338.084 667.134 340.806 663.249 343.993 659.423" stroke="#EF6A00" stroke-width="5" stroke-miterlimit="10" stroke-linecap="round" stroke-linejoin="round"/>
<path d="M304.973 646.764C307.712 641.045 310.59 636.659 313.552 633.051" stroke="#EF6A00" stroke-width="5" stroke-miterlimit="10" stroke-linecap="round" stroke-linejoin="round"/>
<path fill-rule="evenodd" clip-rule="evenodd" d="M400.378 675.381C400.378 675.381 426.192 677.261 434.971 679.997C443.711 682.721 447.365 696.018 444.861 699.855C441.424 705.119 432.173 706.899 424.583 701.02C417.433 695.483 400.378 675.381 400.378 675.381Z" fill="#129447"/>
<path fill-rule="evenodd" clip-rule="evenodd" d="M400.386 675.54C400.386 675.54 411.371 674.012 420.854 668.654C426.129 665.673 428.546 658.301 432.684 656.702C437.644 654.786 443.675 654.788 445.232 659.63C446.789 664.47 443.169 669.468 437.774 674.707C428.331 683.874 405.664 677.257 400.386 675.54Z" fill="#00AA63"/>
<path fill-rule="evenodd" clip-rule="evenodd" d="M400.323 674.309C400.323 674.309 407.196 668.734 413.963 660.46C418.758 654.596 421.993 645.671 422.157 645.055C424.395 636.614 432.868 637.478 435.436 644.567C437.672 650.741 435.488 657.245 432.123 661.586C423.447 672.781 403.684 677.782 400.323 674.309Z" fill="#129447"/>
<path fill-rule="evenodd" clip-rule="evenodd" d="M400.324 674.31C400.324 674.31 403.613 684.115 403.426 694.558C403.323 700.366 397.767 706.022 398.363 710.211C399.076 715.231 402.086 720.173 407.3 719.036C412.515 717.9 416.152 710.588 417.408 705.41C420.436 692.939 405.017 676.377 400.324 674.31Z" fill="#00AA63"/>
<path fill-rule="evenodd" clip-rule="evenodd" d="M400.324 674.311C400.324 674.311 399.121 685.927 395.072 695.659C391.792 703.547 387.07 708.079 386.092 710.679C384.294 715.461 386.69 720.08 392.029 720.278C397.369 720.479 403.714 713.585 405.542 709.627C411.173 697.431 404.656 678.684 400.324 674.311Z" fill="#129447"/>
<path d="M374.934 644.719C375.218 638.632 378.115 633.111 380.202 629.683" stroke="#EF6A00" stroke-width="5" stroke-miterlimit="10" stroke-linecap="round" stroke-linejoin="round"/>
<path d="M337.129 627.305C337.423 622.712 339.626 618.146 341.208 615.267" stroke="#EF6A00" stroke-width="5" stroke-miterlimit="10" stroke-linecap="round" stroke-linejoin="round"/>
<path d="M299.828 610.437C300.159 607.892 301.695 605.154 302.784 603.406" stroke="#EF6A00" stroke-width="5" stroke-miterlimit="10" stroke-linecap="round" stroke-linejoin="round"/>
<path d="M344.818 617.755C344.285 617.559 344.651 620.144 343.356 620.327C341.869 620.536 339.921 620.474 339.691 621.641C339.575 622.222 339.797 625.312 339.021 626.49C338.184 627.759 338.578 628.216 338.032 628.228C336.961 628.251 336.763 633.464 333.95 633.385C332.745 633.351 330.51 631.332 330.034 631.601C329.046 632.161 327.025 630.65 325.968 629.351C325.128 628.318 325.487 626.865 325.156 625.648C324.98 625.005 324.994 624.313 324.86 623.697C324.795 623.401 324.553 623.196 324.302 623.16C322.704 622.922 321.591 625.933 320.419 626.566C319.883 626.855 319.412 627.291 318.814 627.491C317.695 627.864 316.387 627.299 315.149 627.191C313.871 627.081 312.704 626.936 311.386 626.403C310.644 626.104 309.361 625.793 308.124 624.929C306.879 624.06 306.719 622.382 306.388 621.165C306.056 619.945 306.396 619.252 305.909 618.973C304.695 618.28 303.147 619.985 301.774 620.502C300.342 621.043 298.948 621.487 297.548 621.666C296.251 621.832 294.502 621.338 290.322 620.527C287.933 620.063 285.223 619.414 283.604 618.926C282.184 618.497 280.659 617.363 279.856 616.205C278.976 614.935 278.075 613.735 277.558 612.361C277.085 611.101 275.843 609.874 275.672 608.642C275.501 607.403 274.678 606.405 274.303 605.162C273.915 603.875 274.145 602.212 274.089 600.882C274.197 599.646 274.205 598.678 274.384 598.08C274.505 597.77 274.689 597.446 274.879 597.113" stroke="#C65104" stroke-width="2" stroke-linecap="round"/>
<path d="M274.544 596.243C273.806 602.554 275.438 611.446 280.179 617.191C286.905 621.015 297.947 622.029 301.883 620.353C308.653 617.472 300.803 614.232 308.142 604.331C302.709 601.855 284.043 598.585 274.544 596.243Z" fill="#934511"/>
<path d="M299.654 604.683C297.311 610.828 306.263 621.507 309.258 625.616C313.736 628.163 320.852 627.002 323.015 624.292C329.015 616.775 330.38 613.605 327.574 610.204C322.674 609.718 297.966 598.547 299.654 604.683Z" fill="#934511"/>
<path d="M319.434 610.753C317.091 616.897 326.043 627.576 329.038 631.686C333.516 634.232 340.632 633.071 342.795 630.361C348.795 622.844 350.16 619.674 347.354 616.274C342.454 615.788 317.746 604.617 319.434 610.753Z" fill="#934511"/>
<path d="M346.735 654.016C346.866 653.756 347.102 653.554 347.384 653.451C347.666 653.347 347.969 653.35 348.236 653.463C348.504 653.576 348.718 653.792 348.839 654.066C348.96 654.341 348.98 654.651 348.884 654.926C348.676 655.517 348.472 656.089 348.255 656.676C344.786 667.233 337.354 677.154 328.22 683.913C327.713 684.31 327.23 684.683 326.716 685.072C325.423 683.129 324.132 681.186 322.839 679.243C323.365 678.94 323.861 678.651 324.379 678.342C333.679 673.056 341.09 665.532 345.907 655.639C346.189 655.096 346.46 654.567 346.735 654.016Z" fill="#0074AB"/>
<path d="M366.14 667.91C366.297 667.659 366.557 667.476 366.852 667.394C367.149 667.313 367.456 667.34 367.717 667.476C367.98 667.612 368.179 667.847 368.283 668.136C368.387 668.425 368.386 668.743 368.271 669.015C368.06 669.51 367.86 669.976 367.642 670.468C364.036 679.202 358.126 687.471 351.569 694.319C351.205 694.713 350.856 695.09 350.49 695.483C349.838 696.185 348.952 696.574 347.997 696.535C347.044 696.496 346.1 696.032 345.403 695.275C344.705 694.519 344.319 693.54 344.359 692.587C344.397 691.632 344.857 690.781 345.61 690.189C346.023 689.863 346.416 689.553 346.825 689.227C354.169 683.557 360.417 677.209 365.313 669.225C365.596 668.78 365.862 668.359 366.14 667.91Z" fill="#007BA4"/>
<path d="M399.119 559.225C394.57 556.509 391.731 556.683 389.44 557.888C386.653 559.353 383.842 562.744 380.475 568.349C374.058 579.033 366.323 596.736 353.199 613.435L353.009 613.676L352.779 613.882C340.951 624.447 330.459 633.914 323.699 643.775C317.214 653.237 314.375 662.759 317.155 673.751C326.126 683.659 334.468 689.058 342.044 691.335C349.702 693.637 356.862 692.838 363.572 689.858C377.261 683.779 389.11 668.595 398.016 651.975L398.085 651.847L398.164 651.726C407.766 636.891 411.839 616.586 411.405 598.262C411.189 589.133 409.856 580.647 407.626 573.733C405.405 566.848 402.417 561.898 399.119 559.225Z" fill="#87CFE5" stroke="#0076B8" stroke-width="7"/>
<path d="M348.111 653.687C348.241 653.427 348.478 653.225 348.76 653.121C349.042 653.018 349.345 653.021 349.612 653.134C349.879 653.247 350.093 653.463 350.215 653.737C350.336 654.012 350.355 654.322 350.259 654.597C350.052 655.188 349.847 655.76 349.63 656.347C346.162 666.904 338.729 676.825 329.596 683.584C329.088 683.981 328.605 684.354 328.091 684.743C326.799 682.8 325.507 680.857 324.214 678.914C324.74 678.611 325.236 678.322 325.754 678.013C335.054 672.727 342.465 665.203 347.283 655.31C347.564 654.767 347.835 654.238 348.111 653.687Z" fill="#0074AB"/>
<path d="M367.516 667.581C367.672 667.33 367.933 667.147 368.228 667.065C368.524 666.984 368.831 667.011 369.093 667.147C369.355 667.283 369.555 667.518 369.658 667.807C369.762 668.096 369.762 668.414 369.647 668.686C369.436 669.181 369.235 669.647 369.017 670.139C365.411 678.873 359.501 687.142 352.945 693.99C352.58 694.384 352.232 694.761 351.865 695.153C351.214 695.855 350.327 696.245 349.373 696.205C348.419 696.167 347.476 695.703 346.778 694.946C346.081 694.19 345.695 693.211 345.734 692.258C345.772 691.303 346.233 690.452 346.986 689.86C347.398 689.534 347.791 689.224 348.2 688.898C355.545 683.228 361.792 676.88 366.689 668.896C366.971 668.451 367.238 668.03 367.516 667.581Z" fill="#007BA4"/>
</g>
</g>
<defs>
<clipPath id="clip0_157_968">
<rect width="476" height="786" fill="white"/>
</clipPath>
<clipPath id="clip1_157_968">
<rect width="476" height="786" fill="white"/>
</clipPath>
<clipPath id="clip2_157_968">
<rect width="151" height="90.1148" fill="white" transform="translate(94 695.885)"/>
</clipPath>
<clipPath id="clip3_157_968">
<rect width="151" height="90.1148" fill="white" transform="matrix(-1 0 0 1 396.001 695.885)"/>
</clipPath>
<clipPath id="clip4_157_968">
<rect width="196" height="148.189" fill="white" transform="translate(146 401.511)"/>
</clipPath>
<clipPath id="clip5_157_968">
<rect width="76" height="149.19" fill="white" transform="translate(0 494.63)"/>
</clipPath>
</defs>
</svg>
