<svg width="476" height="786" viewBox="0 0 476 786" fill="none" xmlns="http://www.w3.org/2000/svg">
<g clip-path="url(#clip0_176_813)">
<g clip-path="url(#clip1_176_813)">
<path d="M42.3376 69.5787C50.5254 62.557 60.3315 59.9335 71.4838 61.5321C82.8285 63.1584 95.7311 69.2038 109.404 79.9265C136.721 101.347 165.833 140.442 189.931 194.714C198.289 217.912 207.648 240.882 216.26 262.158C224.929 283.574 232.807 303.193 238.299 319.872C243.871 336.802 246.628 349.713 245.832 358.067C245.449 362.095 244.305 364.296 243.01 365.518C241.763 366.696 239.506 367.786 235.091 367.736L231.9 367.7L230.088 370.329C227.632 373.892 226.064 374.398 225.555 374.469C225.065 374.538 223.713 374.464 221.02 372.236C218.378 370.05 215.296 366.484 211.625 361.472C207.994 356.515 204.021 350.477 199.533 343.555C181.696 316.044 156.526 275.75 117.208 244.451L116.934 244.232L116.636 244.047L113.162 241.875C40.9622 196.425 15.4376 160.579 11.1561 133.531C6.88978 106.579 23.4318 85.7919 42.3376 69.5787Z" fill="#8BCDE5" stroke="#0E6B96" stroke-width="12"/>
<path d="M307.345 63.0001C329.956 36.7664 354.435 28.2455 371.981 33.7082C390.948 39.6138 410.17 56.4775 412.328 84.658C414.514 113.194 399.378 155.113 344.924 210.922L344.816 211.034L344.714 211.149C311.199 249.217 298.305 291.6 289.629 320.998C287.446 328.398 285.571 334.835 283.702 340.279C281.814 345.774 280.078 349.805 278.313 352.52C276.553 355.23 275.28 355.846 274.561 355.996C273.785 356.157 271.966 356.128 268.378 353.876L266.01 352.389L263.352 353.247C259.04 354.637 256.325 354.41 254.592 353.718C252.907 353.044 251.211 351.556 249.678 348.449C246.419 341.847 245.025 330.25 245.345 314.045C245.977 281.971 253.048 236.878 258.547 190.113C265.454 131.368 284.962 88.9707 307.345 63.0001Z" fill="#87CFE5" stroke="#0E6B96" stroke-width="12"/>
<path d="M237.5 334.426C339.975 334.426 423 416.937 423 518.661C423 620.384 339.975 702.895 237.5 702.895C135.025 702.895 52.0005 620.384 52.0005 518.661C52.0005 416.937 135.025 334.426 237.5 334.426Z" fill="#86D0E3" stroke="#0C74AB" stroke-width="7"/>
<path d="M364.501 646.824C330.001 685.874 266.001 701.394 241.001 698.89C134.001 704.898 53.5005 610.673 56.0005 517.159C57.5664 458.584 43.0005 596.76 182.001 655.836C256.501 693.383 364.501 646.824 364.501 646.824Z" fill="#37B4CA"/>
<path opacity="0.77" d="M173.5 393.501L182.5 381.987L195 370.972L202 366.967L208.5 364.965L212 368.469L215 372.474L217 378.482L208.5 380.985L196 387.994L187.5 393.501L179 401.511L175 397.006L173.5 393.501Z" fill="#004F80"/>
<path opacity="0.7" d="M264.5 357.956H272.5L280 359.458L288 362.462L298 366.968L306.5 371.974L305 379.483L295 376.98L283.5 374.477L274.5 372.975H267.5H259.5V365.966L261 360.96L264.5 357.956Z" fill="#014C83"/>
<g clip-path="url(#clip2_176_813)">
<path d="M199 700.891C217.453 700.891 227.418 706.675 232.985 714.199C238.752 721.994 240.5 732.567 240.5 743.445C240.5 754.689 239.623 763.351 232.348 769.732C224.743 776.403 209.12 781.494 176.5 781.494C154.106 781.494 138.008 780.424 126.449 778.523C114.815 776.61 108.241 773.923 104.485 771.045C100.993 768.369 99.6442 765.306 99.1137 761.46C98.8339 759.432 98.7896 757.202 98.8315 754.653C98.8709 752.258 99.0004 749.257 99.0004 746.449C99.0004 742.955 101.71 738.187 108.265 732.613C114.594 727.232 123.607 721.877 134.018 717.118C154.892 707.577 180.368 700.891 199 700.891Z" fill="#87CFE5" stroke="#0178B2" stroke-width="9"/>
<path d="M235.614 730.881C246.614 773.936 213.16 778.991 174.5 778.991C135.84 778.991 114 775.987 108.5 768.978C95.5 762.97 149.114 767.928 177.114 764.925C262.114 764.925 216 687.875 235.614 730.881Z" fill="#31A7BA"/>
</g>
<g clip-path="url(#clip3_176_813)">
<path d="M291.001 700.891C272.548 700.891 262.583 706.675 257.016 714.199C251.249 721.994 249.501 732.567 249.501 743.445C249.501 754.689 250.378 763.351 257.653 769.732C265.258 776.403 280.881 781.494 313.501 781.494C335.895 781.494 351.993 780.424 363.552 778.523C375.186 776.61 381.76 773.923 385.516 771.045C389.008 768.369 390.357 765.306 390.887 761.46C391.167 759.432 391.211 757.202 391.169 754.653C391.13 752.258 391.001 749.257 391.001 746.449C391.001 742.955 388.291 738.187 381.736 732.613C375.407 727.232 366.394 721.877 355.983 717.118C335.109 707.577 309.633 700.891 291.001 700.891Z" fill="#87CFE5" stroke="#0178B2" stroke-width="9"/>
<path d="M254.387 730.881C243.387 773.936 276.841 778.991 315.501 778.991C354.161 778.991 376.001 775.987 381.501 768.978C394.501 762.97 340.887 767.928 312.887 764.925C227.887 764.925 274.001 687.875 254.387 730.881Z" fill="#31A7BA"/>
</g>
<g clip-path="url(#clip4_176_813)">
<path d="M193.5 431.549C218.481 431.549 239.5 455.778 239.5 485.618C239.5 502.455 236.057 515.942 228.772 525.17C221.589 534.268 210.302 539.687 193.5 539.687C168.615 539.687 149 516.052 149 485.618C149 455.184 168.615 431.549 193.5 431.549Z" fill="#FEFEFE" stroke="#0F79AB" stroke-width="6"/>
<path d="M288.176 404.515C301.85 404.515 314.49 412.127 323.821 424.786C333.149 437.44 339 454.951 339 474.104C339 495.678 335.187 513.118 327.027 525.086C319.002 536.858 306.53 543.692 288.176 543.692C274.506 543.692 262.294 536.238 253.386 523.693C244.469 511.135 239 493.617 239 474.104C239 454.59 244.469 437.073 253.386 424.514C262.294 411.97 274.506 404.515 288.176 404.515Z" fill="#FEFEFE" stroke="#0F79AB" stroke-width="6"/>
<path d="M241 549.7C252.046 549.7 261 540.062 261 528.172C261 516.283 252.046 506.645 241 506.645C229.955 506.645 221 516.283 221 528.172C221 540.062 229.955 549.7 241 549.7Z" fill="#ED6F7A"/>
<path d="M273.5 489.624C273.5 500.683 267.508 509.649 259.5 509.649C251.492 509.649 245 500.683 245 489.624C245 478.564 251.492 469.598 259.5 469.598C268.5 472.101 273.5 478.109 273.5 489.624Z" fill="#2B2A28"/>
<path d="M221.5 509.649C229.509 509.649 236 500.683 236 489.624C236 478.564 229.509 469.598 221.5 469.598C213.492 469.598 207 478.564 207 489.624C207 500.683 213.492 509.649 221.5 509.649Z" fill="#2B2A28"/>
<path d="M271 479.11C272 482.615 268.761 485.619 266 485.619C263.239 485.619 261 483.153 261 480.112C261 477.07 263.239 474.604 266 474.604C268.761 474.604 271 476.069 271 479.11Z" fill="#F9FAFB"/>
<path d="M233 479.11C234 482.615 230.762 485.619 228 485.619C225.239 485.619 223 483.153 223 480.112C223 477.07 225.239 474.604 228 474.604C230.762 474.604 233 476.069 233 479.11Z" fill="#F9FAFB"/>
</g>
<g clip-path="url(#clip5_176_813)">
<path d="M413.914 498.507C408.66 499.184 406.535 501.078 405.478 503.443C404.193 506.322 404.078 510.73 404.894 517.226C406.452 529.608 411.31 548.329 411.31 569.595V569.903L411.256 570.207C408.485 585.843 406.086 599.786 406.865 611.733C407.613 623.194 411.265 632.447 420.243 639.379C433.419 641.629 443.314 640.718 450.677 637.823C458.12 634.896 463.256 629.837 466.69 623.339C473.696 610.085 473.629 590.799 470.361 572.205L470.336 572.062L470.323 571.918C468.706 554.298 459.36 535.793 447.696 521.636C441.885 514.583 435.594 508.728 429.568 504.666C423.567 500.619 418.158 498.571 413.914 498.507Z" fill="#87CFE5" stroke="#0076B8" stroke-width="7"/>
<path d="M432.182 604.431C432.124 604.146 432.186 603.84 432.342 603.584C432.5 603.329 432.74 603.144 433.021 603.068C433.301 602.99 433.602 603.028 433.867 603.17C434.132 603.311 434.34 603.543 434.434 603.818C434.635 604.412 434.828 604.989 435.02 605.585C438.816 616.042 439.104 628.451 436.099 639.423C435.946 640.049 435.797 640.642 435.633 641.266C433.416 640.536 431.2 639.806 428.983 639.076C429.209 638.513 429.421 637.978 429.637 637.414C433.682 627.499 434.86 616.99 432.534 606.222C432.42 605.62 432.306 605.035 432.182 604.431Z" fill="#0074AB"/>
<path d="M456.025 603.362C455.992 603.068 456.083 602.762 456.265 602.515C456.448 602.269 456.706 602.1 456.996 602.045C457.286 601.989 457.588 602.052 457.849 602.215C458.108 602.378 458.305 602.628 458.383 602.914C458.522 603.433 458.653 603.925 458.786 604.447C461.347 613.554 461.81 623.72 460.887 633.167C460.844 633.704 460.803 634.216 460.758 634.751C460.679 635.707 460.223 636.563 459.448 637.122C458.675 637.682 457.646 637.9 456.63 637.736C455.614 637.572 454.706 637.04 454.148 636.266C453.588 635.49 453.424 634.535 453.65 633.604C453.772 633.092 453.89 632.604 454.01 632.095C456.282 623.086 457.27 614.224 456.187 604.909C456.134 604.385 456.084 603.888 456.025 603.362Z" fill="#007BA4"/>
</g>
<path d="M344.279 603C297.279 611.5 285.779 575.5 302.279 552" stroke="#076FA2" stroke-width="6" stroke-linecap="round"/>
<path d="M193.319 565.107C193.081 564.703 192.749 564.461 192.396 564.436C192.043 564.41 191.697 564.602 191.436 564.97C191.174 565.338 191.018 565.851 191.001 566.397C190.985 566.943 191.109 567.476 191.347 567.88C192.513 569.86 193.755 571.734 195.058 573.496C219.343 604.928 257.155 600.351 280.759 569.853C282.086 568.149 283.351 566.397 284.594 564.541C284.848 564.161 284.994 563.64 285 563.094C285.006 562.548 284.87 562.02 284.625 561.628C284.379 561.235 284.042 561.009 283.689 561C283.335 560.991 282.994 561.2 282.739 561.579C281.546 563.364 280.33 565.047 279.055 566.684C256.441 596.062 219.719 600.228 196.814 570.395C195.584 568.733 194.416 566.968 193.319 565.107Z" fill="#076FA2"/>
<path d="M217.334 591.963L217.375 591.979L217.417 591.987L224.306 593.487L224.341 593.495L224.377 593.498L230.368 593.998L230.391 594H235.205V613.916L234.954 617.48L232.614 620.735L230.462 622.531L227.375 623H224.543L221.495 621.612L218.414 618.339L215.308 612.682L213.291 604.506L211.842 596.282V589.879L217.334 591.963Z" fill="#FEFEFE" stroke="#0578A5" stroke-width="3"/>
<path d="M252.506 591.723L252.465 591.738L252.423 591.748L246.19 593.104L246.154 593.111L246.119 593.114L240.699 593.566L240.676 593.568H236.403V611.422L236.627 614.579L238.709 617.474L240.633 619.079L243.406 619.5H245.953L248.688 618.255L251.455 615.318L254.247 610.236L256.064 602.878L257.37 595.467V589.878L252.506 591.723Z" fill="#FEFEFE" stroke="#0875A4" stroke-width="3"/>
<path d="M126 601C173 609.5 184.5 573.5 168 550" stroke="#076FA2" stroke-width="6" stroke-linecap="round"/>
<path fill-rule="evenodd" clip-rule="evenodd" d="M212.208 597.962C206.987 588.856 119.511 614.811 86.4968 633.739C69.4349 643.521 62.5994 663.703 71.2427 678.779C79.887 693.856 100.756 698.154 117.819 688.372C150.833 669.444 217.428 607.068 212.208 597.962Z" fill="#FF9425"/>
<path fill-rule="evenodd" clip-rule="evenodd" d="M212.374 598.325C212.3 598.14 212.202 597.94 212.202 597.94C212.202 597.94 69.5368 675.035 71.2436 678.778C78.452 694.592 100.808 698.243 117.82 688.371C181.885 651.19 214.921 604.844 212.374 598.325Z" fill="#FF8600"/>
<path d="M110.121 689.822C108.006 683.342 105.521 677.031 101.185 671.776" stroke="#EF6A00" stroke-width="5" stroke-miterlimit="10" stroke-linecap="round" stroke-linejoin="round"/>
<path d="M139.024 672.425C139.344 667.282 136.591 663.419 133.373 659.618" stroke="#EF6A00" stroke-width="5" stroke-miterlimit="10" stroke-linecap="round" stroke-linejoin="round"/>
<path d="M172.291 646.648C169.507 640.951 166.593 636.588 163.603 633.004" stroke="#EF6A00" stroke-width="5" stroke-miterlimit="10" stroke-linecap="round" stroke-linejoin="round"/>
<path fill-rule="evenodd" clip-rule="evenodd" d="M77.1179 676.026C77.1179 676.026 51.3197 678.112 42.5633 680.918C33.8452 683.712 30.2971 697.038 32.8321 700.855C36.3113 706.092 45.5756 707.798 53.1184 701.858C60.2238 696.264 77.1179 676.026 77.1179 676.026Z" fill="#129447"/>
<path fill-rule="evenodd" clip-rule="evenodd" d="M77.1111 676.186C77.1111 676.186 66.1145 674.746 56.5893 669.463C51.2902 666.525 48.8143 659.173 44.6636 657.606C39.6888 655.73 33.6573 655.781 32.1395 660.634C30.6212 665.487 34.281 670.456 39.7179 675.651C49.2342 684.743 71.8476 677.945 77.1111 676.186Z" fill="#00AA63"/>
<path fill-rule="evenodd" clip-rule="evenodd" d="M77.1641 674.955C77.1641 674.955 70.247 669.434 63.4147 661.215C58.5724 655.39 55.2658 646.491 55.0972 645.876C52.7923 637.453 44.3266 638.385 41.8149 645.494C39.6279 651.686 41.8641 658.172 45.2636 662.486C54.0294 673.611 73.8312 678.454 77.1641 674.955Z" fill="#129447"/>
<path fill-rule="evenodd" clip-rule="evenodd" d="M77.1631 674.955C77.1631 674.955 73.9528 684.787 74.2231 695.227C74.3733 701.035 79.9744 706.646 79.4119 710.839C78.7385 715.865 75.7686 720.831 70.5449 719.736C65.3212 718.641 61.6258 711.358 60.3284 706.191C57.2014 693.745 72.4868 677.06 77.1631 674.955Z" fill="#00AA63"/>
<path fill-rule="evenodd" clip-rule="evenodd" d="M77.1638 674.956C77.1638 674.956 78.4596 686.562 82.5857 696.261C85.929 704.122 90.6873 708.617 91.6857 711.209C93.522 715.977 91.1626 720.614 85.8258 720.856C80.4879 721.099 74.0877 714.256 72.2284 710.312C66.5001 698.162 72.8665 679.364 77.1638 674.956Z" fill="#129447"/>
<path d="M102.316 645.162C101.983 639.077 99.0423 633.579 96.9278 630.169" stroke="#EF6A00" stroke-width="5" stroke-miterlimit="10" stroke-linecap="round" stroke-linejoin="round"/>
<path d="M139.981 627.446C139.65 622.856 137.41 618.308 135.806 615.441" stroke="#EF6A00" stroke-width="5" stroke-miterlimit="10" stroke-linecap="round" stroke-linejoin="round"/>
<path d="M177.145 610.281C176.794 607.739 175.236 605.013 174.134 603.274" stroke="#EF6A00" stroke-width="5" stroke-miterlimit="10" stroke-linecap="round" stroke-linejoin="round"/>
<path d="M132.215 617.958C132.747 617.758 132.402 620.346 133.698 620.518C135.186 620.716 137.134 620.637 137.373 621.803C137.494 622.383 137.296 625.474 138.082 626.646C138.929 627.908 138.538 628.369 139.085 628.377C140.156 628.391 140.395 633.602 143.208 633.5C144.412 633.457 146.631 631.42 147.11 631.685C148.102 632.237 150.111 630.711 151.158 629.402C151.989 628.363 151.618 626.913 151.94 625.693C152.11 625.049 152.091 624.357 152.22 623.74C152.283 623.444 152.523 623.237 152.774 623.198C154.37 622.948 155.507 625.95 156.684 626.573C157.222 626.858 157.697 627.291 158.296 627.486C159.418 627.85 160.722 627.274 161.958 627.157C163.236 627.036 164.401 626.881 165.715 626.339C166.455 626.033 167.735 625.712 168.965 624.839C170.203 623.959 170.349 622.28 170.671 621.06C170.994 619.837 170.648 619.148 171.133 618.865C172.341 618.162 173.903 619.854 175.28 620.361C176.716 620.891 178.113 621.323 179.515 621.491C180.813 621.647 182.558 621.138 186.732 620.294C189.117 619.811 191.821 619.141 193.437 618.639C194.853 618.199 196.369 617.053 197.163 615.889C198.033 614.612 198.924 613.405 199.43 612.026C199.893 610.763 201.125 609.525 201.286 608.293C201.447 607.052 202.262 606.047 202.627 604.802C203.005 603.511 202.762 601.85 202.807 600.52C202.689 599.284 202.673 598.317 202.489 597.721C202.366 597.411 202.179 597.089 201.987 596.757" stroke="#C65104" stroke-width="2" stroke-linecap="round"/>
<path d="M202.315 595.885C203.103 602.19 201.543 611.094 196.848 616.878C190.153 620.755 179.12 621.858 175.17 620.213C168.377 617.386 176.201 614.083 168.783 604.242C174.196 601.722 192.835 598.303 202.315 595.885Z" fill="#934511"/>
<path d="M177.273 604.525C179.666 610.651 170.8 621.401 167.838 625.535C163.379 628.117 156.255 627.013 154.07 624.32C148.011 616.851 146.62 613.692 149.399 610.27C154.295 609.745 178.912 598.376 177.273 604.525Z" fill="#934511"/>
<path d="M157.543 610.753C159.935 616.878 151.069 627.628 148.106 631.762C143.649 634.344 136.523 633.24 134.339 630.547C128.279 623.079 126.889 619.919 129.668 616.497C134.564 615.972 159.181 604.603 157.543 610.753Z" fill="#934511"/>
<path d="M130.588 654.234C130.455 653.975 130.217 653.774 129.935 653.673C129.652 653.572 129.349 653.577 129.082 653.693C128.816 653.808 128.604 654.025 128.485 654.301C128.366 654.576 128.349 654.887 128.447 655.161C128.659 655.75 128.868 656.32 129.09 656.905C132.643 667.435 140.154 677.295 149.342 683.981C149.852 684.374 150.338 684.744 150.855 685.128C152.132 683.175 153.408 681.222 154.685 679.269C154.157 678.97 153.659 678.685 153.138 678.38C143.796 673.168 136.325 665.704 131.429 655.85C131.143 655.309 130.868 654.782 130.588 654.234Z" fill="#0074AB"/>
<path d="M111.295 668.282C111.136 668.032 110.875 667.851 110.579 667.772C110.282 667.693 109.975 667.723 109.715 667.861C109.453 667.999 109.256 668.236 109.154 668.525C109.053 668.815 109.056 669.133 109.173 669.404C109.388 669.897 109.592 670.362 109.814 670.852C113.49 679.557 119.466 687.778 126.077 694.574C126.444 694.965 126.796 695.339 127.165 695.729C127.822 696.425 128.712 696.808 129.666 696.761C130.62 696.715 131.559 696.243 132.251 695.481C132.942 694.719 133.32 693.737 133.273 692.784C133.227 691.83 132.76 690.982 132.003 690.396C131.588 690.073 131.192 689.766 130.78 689.444C123.391 683.833 117.093 677.535 112.132 669.591C111.846 669.148 111.577 668.729 111.295 668.282Z" fill="#007BA4"/>
<path d="M77.4486 559.864C81.9752 557.112 84.8154 557.263 87.1158 558.45C89.9148 559.893 92.7529 563.261 96.1639 568.839C102.666 579.472 110.543 597.112 123.8 613.705L123.992 613.945L124.224 614.149C136.135 624.619 146.703 634.002 153.541 643.809C160.102 653.219 163.018 662.717 160.325 673.731C151.433 683.711 143.135 689.176 135.578 691.514C127.938 693.876 120.772 693.135 114.038 690.209C100.301 684.24 88.3315 669.151 79.2925 652.602L79.2225 652.475L79.1428 652.355C69.4219 637.597 65.1869 617.325 65.4747 598.998C65.6172 589.867 66.8825 581.371 69.0571 574.44C71.2228 567.538 74.172 562.563 77.4486 559.864Z" fill="#87CFE5" stroke="#0076B8" stroke-width="7"/>
<path d="M129.21 653.916C129.078 653.656 128.839 653.456 128.557 653.355C128.274 653.254 127.971 653.259 127.705 653.374C127.438 653.49 127.226 653.707 127.107 653.982C126.988 654.258 126.971 654.569 127.069 654.842C127.281 655.432 127.49 656.002 127.712 656.587C131.265 667.116 138.776 676.977 147.964 683.663C148.474 684.056 148.96 684.426 149.477 684.81C150.754 682.856 152.03 680.904 153.308 678.95C152.78 678.651 152.281 678.367 151.761 678.061C142.419 672.85 134.948 665.386 130.051 655.532C129.765 654.991 129.49 654.464 129.21 653.916Z" fill="#0074AB"/>
<path d="M109.917 667.964C109.759 667.714 109.497 667.533 109.201 667.453C108.904 667.375 108.597 667.405 108.337 667.542C108.075 667.681 107.878 667.918 107.777 668.207C107.675 668.497 107.678 668.815 107.795 669.086C108.01 669.579 108.214 670.043 108.436 670.534C112.112 679.239 118.088 687.46 124.699 694.255C125.066 694.647 125.418 695.021 125.787 695.41C126.444 696.107 127.334 696.489 128.288 696.442C129.242 696.396 130.181 695.925 130.873 695.163C131.564 694.401 131.942 693.419 131.895 692.466C131.849 691.512 131.382 690.664 130.625 690.078C130.21 689.755 129.814 689.448 129.402 689.126C122.013 683.515 115.715 677.217 110.755 669.272C110.469 668.83 110.199 668.411 109.917 667.964Z" fill="#007BA4"/>
</g>
</g>
<defs>
<clipPath id="clip0_176_813">
<rect width="476" height="786" fill="white"/>
</clipPath>
<clipPath id="clip1_176_813">
<rect width="476" height="786" fill="white"/>
</clipPath>
<clipPath id="clip2_176_813">
<rect width="151" height="90.1148" fill="white" transform="translate(94 695.885)"/>
</clipPath>
<clipPath id="clip3_176_813">
<rect width="151" height="90.1148" fill="white" transform="matrix(-1 0 0 1 396.001 695.885)"/>
</clipPath>
<clipPath id="clip4_176_813">
<rect width="196" height="148.189" fill="white" transform="translate(146 401.511)"/>
</clipPath>
<clipPath id="clip5_176_813">
<rect width="76" height="149.19" fill="white" transform="matrix(-1 0 0 1 476 495)"/>
</clipPath>
</defs>
</svg>
