<svg width="611" height="786" viewBox="0 0 611 786" fill="none" xmlns="http://www.w3.org/2000/svg">
<g clip-path="url(#clip0_181_1778)">
<g clip-path="url(#clip1_181_1778)">
<path d="M295.013 397.426C192.538 397.426 109.513 479.832 109.513 581.426C109.513 683.02 192.538 765.426 295.013 765.426C397.488 765.426 480.513 683.02 480.513 581.426C480.513 479.832 397.488 397.426 295.013 397.426Z" fill="#86D0E3" stroke="#0C74AB" stroke-width="7"/>
<path d="M422.013 709.426C387.513 748.426 323.513 763.926 298.513 761.426C191.513 767.426 111.013 673.321 113.513 579.926C115.079 521.426 100.513 659.426 239.513 718.426C314.013 755.926 422.013 709.426 422.013 709.426Z" fill="#37B4CA"/>
<path d="M298 644C295.5 635 295.5 623.5 298 604" stroke="#0C74AB" stroke-width="5" stroke-linecap="round"/>
<g clip-path="url(#clip2_181_1778)">
<path d="M251.012 494.465C275.992 494.465 297.012 518.693 297.012 548.534C297.012 565.37 293.568 578.857 286.283 588.085C279.101 597.184 267.814 602.603 251.012 602.603C226.126 602.603 206.512 578.967 206.512 548.534C206.512 518.099 226.126 494.465 251.012 494.465Z" fill="#FEFEFE" stroke="#0F79AB" stroke-width="6"/>
<path d="M345.688 467.43C359.362 467.43 372.002 475.043 381.333 487.701C390.661 500.355 396.512 517.866 396.512 537.019C396.512 558.593 392.699 576.033 384.539 588.001C376.514 599.773 364.042 606.608 345.688 606.608C332.018 606.608 319.806 599.153 310.898 586.608C301.98 574.05 296.512 556.532 296.512 537.019C296.512 517.506 301.98 499.988 310.898 487.429C319.806 474.885 332.018 467.43 345.688 467.43Z" fill="#FEFEFE" stroke="#0F79AB" stroke-width="6"/>
<path d="M298.512 612.615C309.557 612.615 318.512 602.977 318.512 591.088C318.512 579.199 309.557 569.56 298.512 569.56C287.466 569.56 278.512 579.199 278.512 591.088C278.512 602.977 287.466 612.615 298.512 612.615Z" fill="#ED6F7A"/>
<path d="M331.012 552.539C331.012 563.599 325.02 572.564 317.012 572.564C309.004 572.564 302.512 563.599 302.512 552.539C302.512 541.479 309.004 532.513 317.012 532.513C326.012 535.016 331.012 541.024 331.012 552.539Z" fill="#2B2A28"/>
<path d="M279.012 572.564C287.02 572.564 293.512 563.599 293.512 552.539C293.512 541.479 287.02 532.513 279.012 532.513C271.004 532.513 264.512 541.479 264.512 552.539C264.512 563.599 271.004 572.564 279.012 572.564Z" fill="#2B2A28"/>
</g>
<path opacity="0.77" d="M248.588 478.345L257.987 471.82L268.191 461.835L272.666 455.842L275.839 449.959L274.923 445.941L273.564 442.311L270.747 439.272L266.664 446.987L258.754 457.715L252.951 464.873L245.715 471.566L247.048 476.251L248.588 478.345Z" fill="#004F80"/>
<path d="M405.846 644.26C410.053 640.553 415.225 638.548 421.879 638.986L422.026 638.996H422.175C426.789 638.996 432.732 641.241 439.334 645.788C445.843 650.271 452.564 656.7 458.637 664.323C470.874 679.684 479.87 699.096 479.87 716.012C479.87 720.565 480.112 725.022 480.38 729.269C480.65 733.56 480.942 737.573 481.067 741.449C481.32 749.24 480.856 755.728 478.537 761.127C474.202 771.222 462.134 779.901 425.625 781.975C414.973 781.975 407.359 781.956 401.665 780.917C396.204 779.92 393.265 778.119 391.303 775.009C389.103 771.521 387.696 765.733 387.211 755.659C386.731 745.709 387.164 732.319 388.059 714.162L388.064 714.051V713.94C388.065 695.791 389.853 676.049 395.296 661.26C398.011 653.884 401.515 648.077 405.846 644.26Z" fill="#87CFE5" stroke="#0E6B96" stroke-width="9"/>
<path d="M475.076 729.829C475.076 753.866 475.076 770.588 437.899 773.351C384.279 781.641 395.003 767.134 395.003 729.829C395.003 705.793 411.648 666.274 432.18 666.274C455.772 658.674 472.931 694.597 475.076 729.829Z" fill="#37B4CA"/>
<path d="M193.297 642.26C189.09 638.553 183.917 636.548 177.264 636.986L177.116 636.996H176.968C172.354 636.996 166.41 639.241 159.809 643.788C153.299 648.271 146.579 654.7 140.506 662.323C128.269 677.684 119.273 697.096 119.272 714.012C119.272 718.565 119.03 723.022 118.763 727.269C118.492 731.56 118.201 735.573 118.075 739.449C117.823 747.24 118.287 753.728 120.605 759.127C124.941 769.222 137.008 777.901 173.518 779.975C184.17 779.975 191.784 779.956 197.478 778.917C202.938 777.92 205.878 776.119 207.84 773.009C210.039 769.521 211.446 763.733 211.932 753.659C212.411 743.709 211.978 730.319 211.084 712.162L211.078 712.051V711.94C211.078 693.791 209.29 674.049 203.847 659.26C201.132 651.884 197.627 646.077 193.297 642.26Z" fill="#87CFE5" stroke="#0E6B96" stroke-width="9"/>
<path d="M124.067 727.829C124.067 751.866 124.067 768.588 161.243 771.351C214.864 779.641 204.139 765.134 204.139 727.829C204.139 703.793 187.495 664.274 166.963 664.274C143.37 656.674 126.212 692.597 124.067 727.829Z" fill="#37B4CA"/>
<g clip-path="url(#clip3_181_1778)">
<path d="M472.428 560.929C467.174 561.606 465.049 563.497 463.992 565.859C462.706 568.734 462.591 573.137 463.408 579.624C464.966 591.99 469.823 610.688 469.823 631.926V632.234L469.77 632.538C466.999 648.153 464.6 662.079 465.379 674.01C466.127 685.457 469.779 694.698 478.757 701.621C491.933 703.868 501.828 702.959 509.191 700.067C516.634 697.144 521.77 692.091 525.204 685.602C532.21 672.364 532.143 653.104 528.875 634.533L528.85 634.39L528.837 634.247C527.22 616.649 517.874 598.168 506.21 584.029C500.399 576.985 494.107 571.137 488.082 567.08C482.081 563.039 476.672 560.993 472.428 560.929Z" fill="#87CFE5" stroke="#0076B8" stroke-width="7"/>
<path d="M490.696 666.718C490.638 666.433 490.699 666.128 490.856 665.872C491.014 665.617 491.254 665.432 491.534 665.356C491.815 665.279 492.116 665.317 492.381 665.458C492.646 665.599 492.853 665.831 492.948 666.106C493.149 666.699 493.342 667.275 493.534 667.87C497.33 678.314 497.617 690.707 494.613 701.665C494.459 702.29 494.31 702.883 494.147 703.506C491.93 702.777 489.713 702.048 487.497 701.319C487.723 700.756 487.935 700.222 488.15 699.659C492.195 689.756 493.374 679.261 491.047 668.506C490.934 667.905 490.82 667.321 490.696 666.718Z" fill="#0074AB"/>
<path d="M514.539 665.65C514.506 665.356 514.598 665.051 514.779 664.804C514.962 664.558 515.22 664.389 515.51 664.334C515.8 664.279 516.102 664.341 516.363 664.504C516.622 664.667 516.819 664.917 516.897 665.202C517.036 665.721 517.167 666.212 517.3 666.733C519.861 675.829 520.324 685.982 519.401 695.417C519.358 695.953 519.317 696.464 519.272 696.999C519.193 697.954 518.737 698.808 517.962 699.367C517.189 699.926 516.16 700.144 515.144 699.98C514.128 699.816 513.22 699.285 512.662 698.512C512.102 697.737 511.938 696.783 512.164 695.853C512.287 695.342 512.404 694.855 512.524 694.346C514.796 685.349 515.784 676.498 514.701 667.195C514.648 666.671 514.598 666.175 514.539 665.65Z" fill="#007BA4"/>
</g>
<g clip-path="url(#clip4_181_1778)">
<path d="M120.598 560.93C125.853 561.606 127.977 563.497 129.034 565.859C130.32 568.734 130.435 573.137 129.618 579.624C128.061 591.99 123.203 610.688 123.203 631.927V632.234L123.257 632.538C126.027 648.154 128.427 662.08 127.647 674.011C126.9 685.458 123.248 694.699 114.269 701.622C101.094 703.869 91.1987 702.959 83.8357 700.068C76.3922 697.145 71.2567 692.092 67.8221 685.603C60.8164 672.365 60.8832 653.104 64.1512 634.533L64.1766 634.391L64.1893 634.247C65.8068 616.65 75.152 598.168 86.8162 584.029C92.6275 576.985 98.9189 571.137 104.944 567.08C110.945 563.039 116.354 560.994 120.598 560.93Z" fill="#87CFE5" stroke="#0076B8" stroke-width="7"/>
<path d="M102.33 666.719C102.389 666.434 102.327 666.129 102.17 665.873C102.013 665.618 101.772 665.433 101.492 665.357C101.211 665.28 100.911 665.318 100.645 665.459C100.381 665.6 100.173 665.832 100.079 666.107C99.8774 666.7 99.6848 667.276 99.4924 667.871C95.6963 678.315 95.409 690.708 98.4137 701.666C98.5672 702.291 98.7161 702.884 98.8799 703.507C101.096 702.778 103.313 702.049 105.529 701.32C105.303 700.757 105.092 700.223 104.876 699.66C100.831 689.757 99.6526 679.262 101.979 668.507C102.092 667.906 102.207 667.322 102.33 666.719Z" fill="#0074AB"/>
<path d="M78.4876 665.651C78.52 665.357 78.4288 665.052 78.2469 664.805C78.0643 664.559 77.8061 664.39 77.516 664.335C77.2259 664.28 76.9239 664.342 76.6636 664.505C76.404 664.668 76.2073 664.918 76.1297 665.203C75.9905 665.722 75.8595 666.213 75.7262 666.734C73.1651 675.83 72.7021 685.983 73.6251 695.418C73.668 695.954 73.7089 696.465 73.7546 697C73.8332 697.955 74.2891 698.809 75.0644 699.368C75.8372 699.927 76.866 700.145 77.8821 699.981C78.8982 699.817 79.8061 699.286 80.3639 698.513C80.9241 697.738 81.0883 696.784 80.8627 695.854C80.7398 695.343 80.6219 694.856 80.5021 694.347C78.2306 685.35 77.2419 676.499 78.3255 667.196C78.3781 666.672 78.4287 666.176 78.4876 665.651Z" fill="#007BA4"/>
</g>
<path opacity="0.7" d="M304.892 435.098L310.217 441.067L316.329 445.666L323.894 449.638L333.908 454.105L343.298 457.12L347.896 451.008L339.374 445.21L329.853 438.292L322.742 432.575L318.082 427.351L312.757 421.381L307.533 426.041L304.801 430.489L304.892 435.098Z" fill="#014C83"/>
<path d="M272.195 644.944L274.249 644.944L276.992 643.944L282.749 643.944L284.249 643.944L286.028 643.944L290.062 643.944L292.409 642.944L299.3 642.944L299.3 650.303L300.614 671.368L300.491 675.159L297.374 678.811L294.428 680.902L290.062 681.672L286.028 681.924L281.597 680.727L276.992 677.539L272.195 671.831L268.782 663.363L266.176 654.794L265.753 648.021L272.195 644.944Z" fill="#FEFEFE" stroke="#0578A5" stroke-width="3"/>
<path d="M320.996 648.5H318.665L316.996 647.5H315.234L311.842 646H308.684L300.277 645L300 669.637L300.277 672.515L302.859 675.153L305.245 676.616L308.684 677H311.842L315.234 675.865L318.665 673.189L322.127 668.556L324.38 661.849L326 655.094V650L320.996 648.5Z" fill="#FEFEFE" stroke="#0875A4" stroke-width="3"/>
<path d="M234.35 677.641C270.089 631.04 308.127 626.782 368 682.944" stroke="#0C74AB" stroke-width="5" stroke-linecap="round"/>
</g>
<path d="M544.38 614.288C548.973 645.266 527.725 696.115 510.706 707.579C492.307 719.971 491.965 704.485 467.942 692.498C443.615 680.359 407.756 591.139 402.567 520.124L402.557 519.983L402.539 519.845C396.381 474.325 371.899 443.305 354.725 422.002C350.402 416.641 346.623 411.997 343.633 407.841C340.615 403.645 327.764 403.503 326.874 400.759C326.474 401.411 325.985 398.023 326.874 400.759C327.305 400.057 339.468 390.676 343.854 388.884L322.04 398.477L320.634 397.042C322.638 392.894 325.701 386.84 353.93 377.863C317.91 401.154 350.479 375.333 354.062 375.612C361.678 376.204 379.543 381.591 392.232 389.741C417.345 405.87 448.19 433.523 481.503 460.725C523.349 494.895 539.832 583.621 544.38 614.288Z" fill="#87CFE5"/>
<path d="M326.874 400.759C327.764 403.503 340.615 403.645 343.633 407.841C346.623 411.997 350.402 416.641 354.725 422.002C371.899 443.305 396.381 474.325 402.539 519.845L402.557 519.983L402.567 520.124C407.756 591.139 443.615 680.359 467.942 692.498C491.965 704.485 492.307 719.971 510.706 707.579C527.725 696.115 548.973 645.266 544.38 614.288C539.832 583.621 523.349 494.895 481.503 460.725C448.19 433.523 417.345 405.87 392.232 389.741C379.543 381.591 361.678 376.204 354.062 375.612C350.479 375.333 317.91 401.154 353.93 377.863C325.701 386.84 322.638 392.894 320.634 397.042L322.04 398.477L343.854 388.884C339.468 390.676 327.305 400.057 326.874 400.759ZM326.874 400.759C325.985 398.023 326.474 401.411 326.874 400.759Z" stroke="#0E6B96" stroke-width="12"/>
<path d="M33.2809 604.726C26.6976 635.654 44.9611 720.045 61.1995 730.585C78.7539 741.98 89.2148 743.628 113.956 730.585C139.009 717.378 152.335 675.367 162.098 604.726L188.888 521.106L188.915 520.968C197.999 475.551 224.426 443.621 242.936 421.676C247.595 416.153 251.665 411.367 254.917 407.103C258.199 402.798 271.028 402.036 272.094 399.273C272.451 399.901 273.158 396.518 272.094 399.273C271.709 398.598 260.18 389.887 255.921 388.323L277.063 396.778L278.559 395.288C276.828 391.273 274.163 385.42 246.58 377.887C281.011 399.231 250.186 375.212 246.594 375.662C238.957 376.617 220.787 382.82 207.602 391.511C181.506 408.712 148.947 437.613 113.956 466.186C70.001 502.078 39.7993 574.11 33.2809 604.726Z" fill="#87CFE5"/>
<path d="M272.094 399.273C271.028 402.036 258.199 402.798 254.917 407.103C251.665 411.367 247.595 416.153 242.936 421.676C224.426 443.621 197.999 475.551 188.915 520.968L188.888 521.106L162.098 604.726C152.335 675.367 139.009 717.378 113.956 730.585C89.2148 743.628 78.7539 741.98 61.1995 730.585C44.9611 720.045 26.6976 635.654 33.2809 604.726C39.7993 574.11 70.001 502.078 113.956 466.186C148.947 437.613 181.506 408.712 207.602 391.511C220.787 382.82 238.957 376.617 246.594 375.662C250.186 375.212 281.011 399.231 246.58 377.887C274.163 385.42 276.828 391.273 278.559 395.288L277.063 396.778L255.921 388.323C260.18 389.887 271.709 398.598 272.094 399.273ZM272.094 399.273C273.158 396.518 272.451 399.901 272.094 399.273Z" stroke="#0E6B96" stroke-width="12"/>
</g>
<defs>
<clipPath id="clip0_181_1778">
<rect width="611" height="786" fill="white"/>
</clipPath>
<clipPath id="clip1_181_1778">
<rect width="636.928" height="426.477" fill="white" transform="translate(-15 360)"/>
</clipPath>
<clipPath id="clip2_181_1778">
<rect width="196" height="148.189" fill="white" transform="translate(203.512 464.426)"/>
</clipPath>
<clipPath id="clip3_181_1778">
<rect width="76" height="149" fill="white" transform="matrix(-1 0 0 1 534.514 557.426)"/>
</clipPath>
<clipPath id="clip4_181_1778">
<rect width="76" height="149" fill="white" transform="translate(58.5127 557.427)"/>
</clipPath>
</defs>
</svg>
