<svg width="476" height="786" viewBox="0 0 476 786" fill="none" xmlns="http://www.w3.org/2000/svg">
<g clip-path="url(#clip0_159_2368)">
<g clip-path="url(#clip1_159_2368)">
<g clip-path="url(#clip2_159_2368)">
<path d="M86.9296 16.7143C96.5345 11.8058 106.682 11.5524 117.15 15.7188C127.798 19.9572 138.925 28.8568 149.706 42.484C171.246 69.7073 190.39 114.534 201.105 172.941C203.797 197.451 207.515 221.975 210.903 244.675C214.315 267.526 217.378 288.445 218.81 305.947C220.262 323.711 219.917 336.908 217.187 344.843C215.87 348.67 214.243 350.541 212.698 351.426C211.21 352.28 208.76 352.81 204.48 351.727L201.386 350.945L199.008 353.076C195.786 355.965 194.143 356.089 193.632 356.04C193.139 355.992 191.842 355.603 189.746 352.806C187.689 350.061 185.529 345.873 183.134 340.141C180.765 334.471 178.317 327.671 175.575 319.89C164.678 288.966 149.647 243.897 118.755 204.259L118.539 203.982L118.293 203.733L115.425 200.807C55.8798 139.71 39.4621 98.8817 41.6354 71.5833C43.8011 44.3815 64.7521 28.0479 86.9296 16.7143Z" fill="#8BCDE5" stroke="#0E6B96" stroke-width="12"/>
<path d="M307.345 63.0001C329.956 36.7664 354.435 28.2455 371.981 33.7082C390.948 39.6138 410.17 56.4775 412.328 84.658C414.514 113.194 399.378 155.113 344.924 210.922L344.816 211.034L344.714 211.149C311.199 249.217 298.305 291.6 289.629 320.998C287.446 328.398 285.571 334.835 283.702 340.279C281.814 345.774 280.078 349.805 278.313 352.52C276.553 355.23 275.28 355.846 274.561 355.996C273.785 356.157 271.966 356.128 268.378 353.876L266.01 352.389L263.352 353.247C259.04 354.637 256.325 354.41 254.592 353.718C252.907 353.044 251.211 351.556 249.678 348.449C246.419 341.847 245.025 330.25 245.345 314.045C245.977 281.971 253.048 236.878 258.547 190.113C265.454 131.368 284.962 88.9707 307.345 63.0001Z" fill="#87CFE5" stroke="#0E6B96" stroke-width="12"/>
<path d="M237.5 334.426C339.975 334.426 423 416.937 423 518.661C423 620.384 339.975 702.895 237.5 702.895C135.025 702.895 52.0005 620.384 52.0005 518.661C52.0005 416.937 135.025 334.426 237.5 334.426Z" fill="#86D0E3" stroke="#0C74AB" stroke-width="7"/>
<path d="M364.501 646.824C330.001 685.874 266.001 701.394 241.001 698.89C134.001 704.898 53.5005 610.673 56.0005 517.159C57.5664 458.584 43.0005 596.76 182.001 655.836C256.501 693.383 364.501 646.824 364.501 646.824Z" fill="#37B4CA"/>
<path opacity="0.77" d="M173.5 393.501L182.5 381.987L195 370.972L202 366.967L208.5 364.965L212 368.469L215 372.474L217 378.482L208.5 380.985L196 387.994L187.5 393.501L179 401.511L175 397.006L173.5 393.501Z" fill="#004F80"/>
<path opacity="0.7" d="M264.5 357.956H272.5L280 359.458L288 362.462L298 366.968L306.5 371.974L305 379.483L295 376.98L283.5 374.477L274.5 372.975H267.5H259.5V365.966L261 360.96L264.5 357.956Z" fill="#014C83"/>
<g clip-path="url(#clip3_159_2368)">
<path d="M199 700.891C217.453 700.891 227.418 706.675 232.985 714.199C238.752 721.994 240.5 732.567 240.5 743.445C240.5 754.689 239.623 763.351 232.348 769.732C224.743 776.403 209.12 781.494 176.5 781.494C154.106 781.494 138.008 780.424 126.449 778.523C114.815 776.61 108.241 773.923 104.485 771.045C100.993 768.369 99.6442 765.306 99.1137 761.46C98.8339 759.432 98.7896 757.202 98.8315 754.653C98.8709 752.258 99.0004 749.257 99.0004 746.449C99.0004 742.955 101.71 738.187 108.265 732.613C114.594 727.232 123.607 721.877 134.018 717.118C154.892 707.577 180.368 700.891 199 700.891Z" fill="#87CFE5" stroke="#0178B2" stroke-width="9"/>
<path d="M235.614 730.881C246.614 773.936 213.16 778.991 174.5 778.991C135.84 778.991 114 775.987 108.5 768.978C95.5 762.97 149.114 767.928 177.114 764.925C262.114 764.925 216 687.875 235.614 730.881Z" fill="#31A7BA"/>
</g>
<g clip-path="url(#clip4_159_2368)">
<path d="M291.001 700.891C272.548 700.891 262.583 706.675 257.016 714.199C251.249 721.994 249.501 732.567 249.501 743.445C249.501 754.689 250.378 763.351 257.653 769.732C265.258 776.403 280.881 781.494 313.501 781.494C335.895 781.494 351.993 780.424 363.552 778.523C375.186 776.61 381.76 773.923 385.516 771.045C389.008 768.369 390.357 765.306 390.887 761.46C391.167 759.432 391.211 757.202 391.169 754.653C391.13 752.258 391.001 749.257 391.001 746.449C391.001 742.955 388.291 738.187 381.736 732.613C375.407 727.232 366.394 721.877 355.983 717.118C335.109 707.577 309.633 700.891 291.001 700.891Z" fill="#87CFE5" stroke="#0178B2" stroke-width="9"/>
<path d="M254.387 730.881C243.387 773.936 276.841 778.991 315.501 778.991C354.161 778.991 376.001 775.987 381.501 768.978C394.501 762.97 340.887 767.928 312.887 764.925C227.887 764.925 274.001 687.875 254.387 730.881Z" fill="#31A7BA"/>
</g>
<g clip-path="url(#clip5_159_2368)">
<path d="M193.5 431.549C218.481 431.549 239.5 455.778 239.5 485.618C239.5 502.455 236.057 515.942 228.772 525.17C221.589 534.268 210.302 539.687 193.5 539.687C168.615 539.687 149 516.052 149 485.618C149 455.184 168.615 431.549 193.5 431.549Z" fill="#FEFEFE" stroke="#0F79AB" stroke-width="6"/>
<path d="M288.176 404.515C301.85 404.515 314.49 412.127 323.821 424.786C333.149 437.44 339 454.951 339 474.104C339 495.678 335.187 513.118 327.027 525.086C319.002 536.858 306.53 543.692 288.176 543.692C274.506 543.692 262.294 536.238 253.386 523.693C244.469 511.135 239 493.617 239 474.104C239 454.59 244.469 437.073 253.386 424.514C262.294 411.97 274.506 404.515 288.176 404.515Z" fill="#FEFEFE" stroke="#0F79AB" stroke-width="6"/>
<path d="M241 549.7C252.046 549.7 261 540.062 261 528.172C261 516.283 252.046 506.645 241 506.645C229.955 506.645 221 516.283 221 528.172C221 540.062 229.955 549.7 241 549.7Z" fill="#ED6F7A"/>
<path d="M273.5 489.624C273.5 500.683 267.508 509.649 259.5 509.649C251.492 509.649 245 500.683 245 489.624C245 478.564 251.492 469.598 259.5 469.598C268.5 472.101 273.5 478.109 273.5 489.624Z" fill="#2B2A28"/>
<path d="M221.5 509.649C229.509 509.649 236 500.683 236 489.624C236 478.564 229.509 469.598 221.5 469.598C213.492 469.598 207 478.564 207 489.624C207 500.683 213.492 509.649 221.5 509.649Z" fill="#2B2A28"/>
<path d="M271 479.11C272 482.615 268.761 485.619 266 485.619C263.239 485.619 261 483.153 261 480.112C261 477.07 263.239 474.604 266 474.604C268.761 474.604 271 476.069 271 479.11Z" fill="#F9FAFB"/>
<path d="M233 479.11C234 482.615 230.762 485.619 228 485.619C225.239 485.619 223 483.153 223 480.112C223 477.07 225.239 474.604 228 474.604C230.762 474.604 233 476.069 233 479.11Z" fill="#F9FAFB"/>
</g>
<g clip-path="url(#clip6_159_2368)">
<path d="M62.086 498.138C67.3401 498.815 69.4648 500.708 70.5216 503.074C71.8074 505.952 71.9225 510.361 71.1056 516.856C69.5483 529.238 64.6905 547.96 64.6905 569.225V569.533L64.7442 569.837C67.5148 585.473 69.9142 599.417 69.1349 611.363C68.3871 622.825 64.7354 632.077 55.7569 639.009C42.5812 641.259 32.6863 640.348 25.3233 637.453C17.8798 634.527 12.7443 629.467 9.30963 622.97C2.30391 609.715 2.37071 590.43 5.63872 571.835L5.66411 571.692L5.67681 571.549C7.29434 553.929 16.6396 535.424 28.3038 521.267C34.1151 514.214 40.4065 508.358 46.4317 504.296C52.4328 500.25 57.8416 498.202 62.086 498.138Z" fill="#87CFE5" stroke="#0076B8" stroke-width="7"/>
<path d="M43.8178 604.062C43.8759 603.776 43.8145 603.471 43.6576 603.215C43.5001 602.959 43.2598 602.774 42.9793 602.698C42.6988 602.621 42.398 602.659 42.1327 602.8C41.868 602.941 41.6605 603.173 41.5662 603.449C41.3647 604.043 41.1721 604.619 40.9797 605.215C37.1836 615.672 36.8963 628.081 39.901 639.053C40.0545 639.679 40.2034 640.273 40.3672 640.897C42.5837 640.167 44.8003 639.437 47.0168 638.707C46.7908 638.143 46.5791 637.608 46.3633 637.045C42.3183 627.129 41.1399 616.621 43.4664 605.852C43.5798 605.25 43.6941 604.665 43.8178 604.062Z" fill="#0074AB"/>
<path d="M19.9754 602.993C20.0078 602.698 19.9166 602.393 19.7347 602.146C19.5521 601.899 19.2939 601.73 19.0038 601.675C18.7137 601.62 18.4117 601.682 18.1514 601.845C17.8918 602.008 17.6951 602.259 17.6175 602.544C17.4783 603.064 17.3473 603.555 17.214 604.077C14.6529 613.185 14.1899 623.351 15.1129 632.798C15.1558 633.334 15.1967 633.846 15.2424 634.382C15.321 635.338 15.7769 636.193 16.5522 636.753C17.325 637.312 18.3538 637.531 19.3699 637.366C20.386 637.202 21.2939 636.67 21.8517 635.897C22.4119 635.121 22.5761 634.165 22.3505 633.234C22.2276 632.722 22.1097 632.235 21.9899 631.725C19.7184 622.717 18.7297 613.854 19.8133 604.54C19.8659 604.015 19.9165 603.518 19.9754 602.993Z" fill="#007BA4"/>
</g>
</g>
</g>
<g clip-path="url(#clip7_159_2368)">
<path d="M419.36 498.623C414.082 499.07 411.877 500.867 410.719 503.182C409.309 505.998 409.003 510.391 409.538 516.908C410.557 529.329 414.6 548.221 413.678 569.44L413.665 569.746L413.598 570.048C410.153 585.528 407.152 599.338 407.413 611.291C407.663 622.759 410.911 632.15 419.58 639.457C432.646 642.272 442.571 641.792 450.052 639.223C457.616 636.626 462.966 631.801 466.678 625.467C474.252 612.546 475.021 593.3 472.561 574.605L472.543 574.461L472.536 574.317C471.683 556.666 463.149 537.797 452.108 523.166C446.609 515.876 440.576 509.761 434.732 505.445C428.913 501.148 423.598 498.87 419.36 498.623Z" fill="#87CFE5" stroke="#0076B8" stroke-width="7"/>
<path d="M433.022 605.104C432.976 604.816 433.051 604.514 433.219 604.266C433.388 604.017 433.636 603.843 433.919 603.779C434.202 603.715 434.501 603.765 434.76 603.917C435.019 604.07 435.216 604.311 435.298 604.59C435.474 605.191 435.642 605.775 435.808 606.378C439.148 616.977 438.897 629.37 435.42 640.187C435.239 640.806 435.065 641.391 434.874 642.006C432.69 641.182 430.508 640.357 428.325 639.533C428.576 638.98 428.81 638.456 429.05 637.903C433.521 628.185 435.153 617.751 433.296 606.905C433.208 606.3 433.119 605.711 433.022 605.104Z" fill="#0074AB"/>
<path d="M456.888 605.072C456.869 604.777 456.974 604.476 457.166 604.237C457.359 603.999 457.624 603.842 457.916 603.799C458.209 603.757 458.508 603.832 458.76 604.006C459.013 604.18 459.199 604.438 459.264 604.727C459.381 605.251 459.49 605.747 459.6 606.274C461.765 615.472 461.787 625.635 460.455 635.022C460.39 635.555 460.326 636.064 460.258 636.597C460.138 637.547 459.645 638.38 458.847 638.905C458.049 639.43 457.012 639.604 456.005 639.396C454.997 639.188 454.112 638.618 453.589 637.821C453.063 637.023 452.94 636.063 453.206 635.143C453.351 634.638 453.49 634.156 453.632 633.653C456.291 624.764 457.663 615.964 456.984 606.622C456.953 606.096 456.925 605.599 456.888 605.072Z" fill="#007BA4"/>
</g>
<g clip-path="url(#clip8_159_2368)">
<path d="M151.218 544.981C150.683 544.392 149.936 544.041 149.141 544.004C148.346 543.966 147.569 544.246 146.981 544.782C146.392 545.317 146.041 546.065 146.003 546.859C145.966 547.654 146.246 548.431 146.782 549.02C149.405 551.902 152.198 554.632 155.13 557.197C209.771 602.972 294.849 596.306 347.959 551.893C350.945 549.411 353.79 546.86 356.586 544.156C357.158 543.603 357.486 542.845 357.5 542.05C357.513 541.254 357.209 540.486 356.656 539.914C356.103 539.342 355.345 539.014 354.55 539C353.754 538.987 352.986 539.291 352.414 539.844C349.728 542.442 346.994 544.893 344.125 547.278C293.242 590.061 210.618 596.128 159.081 552.682C156.315 550.261 153.685 547.691 151.218 544.981Z" fill="#076FA2"/>
<path d="M216.668 586.963L216.736 586.979L216.806 586.987L228.306 588.487L228.365 588.495L228.425 588.498L238.425 588.998L238.463 589H246.5V608.916L246.08 612.48L242.175 615.735L238.582 617.531L233.429 618H228.701L223.614 616.612L218.471 613.339L213.285 607.682L209.918 599.506L207.5 591.282V584.879L216.668 586.963Z" fill="#FEFEFE" stroke="#0578A5" stroke-width="3"/>
<path d="M275.38 586.723L275.312 586.738L275.241 586.748L264.837 588.104L264.777 588.111L264.718 588.114L255.67 588.566L255.633 588.568H248.5V606.422L248.873 609.579L252.349 612.474L255.561 614.079L260.19 614.5H264.441L269.007 613.255L273.626 610.318L278.287 605.236L281.319 597.878L283.5 590.467V584.878L275.38 586.723Z" fill="#FEFEFE" stroke="#0875A4" stroke-width="3"/>
</g>
</g>
<defs>
<clipPath id="clip0_159_2368">
<rect width="476" height="786" fill="white"/>
</clipPath>
<clipPath id="clip1_159_2368">
<rect width="476" height="786" fill="white"/>
</clipPath>
<clipPath id="clip2_159_2368">
<rect width="476" height="786" fill="white"/>
</clipPath>
<clipPath id="clip3_159_2368">
<rect width="151" height="90.1148" fill="white" transform="translate(94 695.885)"/>
</clipPath>
<clipPath id="clip4_159_2368">
<rect width="151" height="90.1148" fill="white" transform="matrix(-1 0 0 1 396.001 695.885)"/>
</clipPath>
<clipPath id="clip5_159_2368">
<rect width="196" height="148.189" fill="white" transform="translate(146 401.511)"/>
</clipPath>
<clipPath id="clip6_159_2368">
<rect width="76" height="149.19" fill="white" transform="translate(0 494.63)"/>
</clipPath>
<clipPath id="clip7_159_2368">
<rect width="158.308" height="110.56" fill="white" transform="translate(365 632.237) rotate(-75.458)"/>
</clipPath>
<clipPath id="clip8_159_2368">
<rect width="212" height="81" fill="white" transform="translate(146 539)"/>
</clipPath>
</defs>
</svg>
