<svg width="476" height="786" viewBox="0 0 476 786" fill="none" xmlns="http://www.w3.org/2000/svg">
<g clip-path="url(#clip0_176_758)">
<g clip-path="url(#clip1_176_758)">
<path d="M86.9297 16.7143C96.5345 11.8058 106.682 11.5524 117.15 15.7188C127.798 19.9572 138.925 28.8568 149.706 42.484C171.246 69.7073 190.39 114.534 201.105 172.941C203.797 197.451 207.515 221.975 210.903 244.675C214.315 267.526 217.378 288.445 218.81 305.946C220.262 323.711 219.917 336.908 217.187 344.843C215.87 348.67 214.243 350.541 212.698 351.426C211.21 352.28 208.76 352.81 204.48 351.727L201.386 350.945L199.008 353.076C195.786 355.965 194.143 356.089 193.632 356.04C193.139 355.992 191.842 355.603 189.746 352.806C187.689 350.061 185.529 345.873 183.134 340.141C180.765 334.471 178.317 327.671 175.575 319.89C164.678 288.966 149.647 243.897 118.755 204.259L118.539 203.982L118.293 203.733L115.425 200.807C55.8798 139.71 39.4621 98.8817 41.6354 71.5833C43.8011 44.3815 64.7521 28.0479 86.9297 16.7143Z" fill="#8BCDE5" stroke="#0E6B96" stroke-width="12"/>
<path d="M307.345 63.0001C329.956 36.7664 354.435 28.2455 371.981 33.7082C390.948 39.6138 410.17 56.4775 412.328 84.658C414.514 113.194 399.378 155.113 344.924 210.922L344.816 211.034L344.714 211.149C311.199 249.217 298.305 291.6 289.629 320.998C287.446 328.398 285.571 334.835 283.702 340.279C281.814 345.774 280.078 349.805 278.313 352.52C276.553 355.23 275.28 355.846 274.561 355.996C273.785 356.157 271.966 356.128 268.378 353.876L266.01 352.389L263.352 353.247C259.04 354.637 256.325 354.41 254.592 353.718C252.907 353.044 251.211 351.556 249.678 348.449C246.419 341.847 245.025 330.25 245.345 314.045C245.977 281.971 253.048 236.878 258.547 190.113C265.454 131.368 284.962 88.9707 307.345 63.0001Z" fill="#87CFE5" stroke="#0E6B96" stroke-width="12"/>
<path d="M237.5 334.426C339.975 334.426 423 416.937 423 518.661C423 620.384 339.975 702.895 237.5 702.895C135.025 702.895 52.0005 620.384 52.0005 518.661C52.0005 416.937 135.025 334.426 237.5 334.426Z" fill="#86D0E3" stroke="#0C74AB" stroke-width="7"/>
<path d="M364.501 646.824C330.001 685.874 266.001 701.394 241.001 698.89C134.001 704.898 53.5005 610.673 56.0005 517.159C57.5664 458.584 43.0005 596.76 182.001 655.836C256.501 693.383 364.501 646.824 364.501 646.824Z" fill="#37B4CA"/>
<path opacity="0.77" d="M173.5 393.501L182.5 381.987L195 370.972L202 366.967L208.5 364.965L212 368.469L215 372.474L217 378.482L208.5 380.985L196 387.994L187.5 393.501L179 401.511L175 397.006L173.5 393.501Z" fill="#004F80"/>
<path opacity="0.7" d="M264.5 357.956H272.5L280 359.458L288 362.462L298 366.968L306.5 371.974L305 379.483L295 376.98L283.5 374.477L274.5 372.975H267.5H259.5V365.966L261 360.96L264.5 357.956Z" fill="#014C83"/>
<g clip-path="url(#clip2_176_758)">
<path d="M197 702.891C215.453 702.891 225.418 708.675 230.985 716.199C236.752 723.994 238.5 734.567 238.5 745.445C238.5 756.689 237.623 765.351 230.348 771.732C222.743 778.403 207.12 783.494 174.5 783.494C152.106 783.494 136.008 782.424 124.449 780.523C112.815 778.61 106.241 775.923 102.485 773.045C98.9933 770.369 97.6442 767.306 97.1137 763.46C96.8339 761.432 96.7896 759.202 96.8315 756.653C96.8709 754.258 97.0004 751.257 97.0004 748.449C97.0004 744.955 99.7098 740.187 106.265 734.613C112.594 729.232 121.607 723.877 132.018 719.118C152.892 709.577 178.368 702.891 197 702.891Z" fill="#87CFE5" stroke="#0178B2" stroke-width="9"/>
<path d="M233.614 732.881C244.614 775.936 211.16 780.991 172.5 780.991C133.84 780.991 112 777.987 106.5 770.978C93.5 764.97 147.114 769.928 175.114 766.925C260.114 766.925 214 689.875 233.614 732.881Z" fill="#31A7BA"/>
</g>
<g clip-path="url(#clip3_176_758)">
<path d="M291.001 700.891C272.548 700.891 262.583 706.675 257.016 714.199C251.249 721.994 249.501 732.567 249.501 743.445C249.501 754.689 250.378 763.351 257.653 769.732C265.258 776.403 280.881 781.494 313.501 781.494C335.895 781.494 351.993 780.424 363.552 778.523C375.186 776.61 381.76 773.923 385.516 771.045C389.008 768.369 390.357 765.306 390.887 761.46C391.167 759.432 391.211 757.202 391.169 754.653C391.13 752.258 391.001 749.257 391.001 746.449C391.001 742.955 388.291 738.187 381.736 732.613C375.407 727.232 366.394 721.877 355.983 717.118C335.109 707.577 309.633 700.891 291.001 700.891Z" fill="#87CFE5" stroke="#0178B2" stroke-width="9"/>
<path d="M254.387 730.881C243.387 773.936 276.841 778.991 315.501 778.991C354.161 778.991 376.001 775.987 381.501 768.978C394.501 762.97 340.887 767.928 312.887 764.925C227.887 764.925 274.001 687.875 254.387 730.881Z" fill="#31A7BA"/>
</g>
<g clip-path="url(#clip4_176_758)">
<path d="M193.5 431.549C218.481 431.549 239.5 455.778 239.5 485.618C239.5 502.455 236.057 515.942 228.772 525.17C221.589 534.268 210.302 539.687 193.5 539.687C168.615 539.687 149 516.052 149 485.618C149 455.184 168.615 431.549 193.5 431.549Z" fill="#FEFEFE" stroke="#0F79AB" stroke-width="6"/>
<path d="M288.176 404.515C301.85 404.515 314.49 412.127 323.821 424.786C333.149 437.44 339 454.951 339 474.104C339 495.678 335.187 513.118 327.027 525.086C319.002 536.858 306.53 543.692 288.176 543.692C274.506 543.692 262.294 536.238 253.386 523.693C244.469 511.135 239 493.617 239 474.104C239 454.59 244.469 437.073 253.386 424.514C262.294 411.97 274.506 404.515 288.176 404.515Z" fill="#FEFEFE" stroke="#0F79AB" stroke-width="6"/>
<path d="M241 549.7C252.046 549.7 261 540.062 261 528.172C261 516.283 252.046 506.645 241 506.645C229.955 506.645 221 516.283 221 528.172C221 540.062 229.955 549.7 241 549.7Z" fill="#ED6F7A"/>
<path d="M273.5 489.624C273.5 500.683 267.508 509.649 259.5 509.649C251.492 509.649 245 500.683 245 489.624C245 478.564 251.492 469.598 259.5 469.598C268.5 472.101 273.5 478.109 273.5 489.624Z" fill="#2B2A28"/>
<path d="M221.5 509.649C229.509 509.649 236 500.683 236 489.624C236 478.564 229.509 469.598 221.5 469.598C213.492 469.598 207 478.564 207 489.624C207 500.683 213.492 509.649 221.5 509.649Z" fill="#2B2A28"/>
<path d="M271 479.11C272 482.615 268.761 485.619 266 485.619C263.239 485.619 261 483.153 261 480.112C261 477.07 263.239 474.604 266 474.604C268.761 474.604 271 476.069 271 479.11Z" fill="#F9FAFB"/>
<path d="M233 479.11C234 482.615 230.762 485.619 228 485.619C225.239 485.619 223 483.153 223 480.112C223 477.07 225.239 474.604 228 474.604C230.762 474.604 233 476.069 233 479.11Z" fill="#F9FAFB"/>
</g>
<g clip-path="url(#clip5_176_758)">
<path d="M420.914 497.507C415.66 498.184 413.535 500.078 412.478 502.443C411.193 505.322 411.078 509.73 411.894 516.226C413.452 528.608 418.31 547.329 418.31 568.595V568.903L418.256 569.207C415.485 584.843 413.086 598.786 413.865 610.733C414.613 622.194 418.265 631.447 427.243 638.379C440.419 640.629 450.314 639.718 457.677 636.823C465.12 633.896 470.256 628.837 473.69 622.339C480.696 609.085 480.629 589.799 477.361 571.205L477.336 571.062L477.323 570.918C475.706 553.298 466.36 534.793 454.696 520.636C448.885 513.583 442.594 507.728 436.568 503.666C430.567 499.619 425.158 497.571 420.914 497.507Z" fill="#87CFE5" stroke="#0076B8" stroke-width="7"/>
<path d="M439.182 603.431C439.124 603.146 439.186 602.84 439.342 602.584C439.5 602.329 439.74 602.144 440.021 602.068C440.301 601.99 440.602 602.028 440.867 602.17C441.132 602.311 441.34 602.543 441.434 602.818C441.635 603.412 441.828 603.989 442.02 604.585C445.816 615.042 446.104 627.451 443.099 638.423C442.946 639.049 442.797 639.642 442.633 640.266C440.416 639.536 438.2 638.806 435.983 638.076C436.209 637.513 436.421 636.978 436.637 636.414C440.682 626.499 441.86 615.99 439.534 605.222C439.42 604.62 439.306 604.035 439.182 603.431Z" fill="#0074AB"/>
<path d="M463.025 602.362C462.992 602.068 463.083 601.762 463.265 601.515C463.448 601.269 463.706 601.1 463.996 601.045C464.286 600.989 464.588 601.052 464.849 601.215C465.108 601.378 465.305 601.628 465.383 601.914C465.522 602.433 465.653 602.925 465.786 603.447C468.347 612.554 468.81 622.72 467.887 632.167C467.844 632.704 467.803 633.216 467.758 633.751C467.679 634.707 467.223 635.563 466.448 636.122C465.675 636.682 464.646 636.9 463.63 636.736C462.614 636.572 461.706 636.04 461.148 635.266C460.588 634.49 460.424 633.535 460.65 632.604C460.772 632.092 460.89 631.604 461.01 631.095C463.282 622.086 464.27 613.224 463.187 603.909C463.134 603.385 463.084 602.888 463.025 602.362Z" fill="#007BA4"/>
</g>
<path d="M347.822 532.667L347.696 533.087L347.696 533.525C347.695 548.262 338.798 577.727 318.297 601.632C298.003 625.295 266.479 643.361 221.017 636.179C182.734 621.23 166.186 597.852 158.257 577.594C154.257 567.373 152.423 557.874 151.151 550.446C150.727 547.964 150.351 545.637 149.975 543.607C154.266 546.353 159.456 549.474 165.346 552.643C189.643 565.713 226.6 580.03 261.549 571.354C294.385 571.235 319.277 555.428 334.786 543.257C338.682 540.199 342.004 537.356 344.696 535.056C345.926 534.005 346.995 533.095 347.917 532.33C347.886 532.44 347.856 532.553 347.822 532.667Z" fill="#D20223" stroke="#076FA2" stroke-width="6"/>
<path d="M148.199 533.981C147.666 533.392 146.921 533.041 146.129 533.004C145.337 532.966 144.563 533.246 143.977 533.782C143.391 534.317 143.04 535.065 143.003 535.859C142.966 536.654 143.245 537.431 143.779 538.02C146.393 540.902 149.175 543.631 152.096 546.197C206.535 591.972 291.298 585.306 344.212 540.893C347.187 538.411 350.021 535.86 352.807 533.156C353.377 532.603 353.703 531.845 353.717 531.05C353.73 530.254 353.427 529.486 352.877 528.914C352.326 528.342 351.57 528.014 350.778 528C349.985 527.987 349.22 528.291 348.65 528.844C345.974 531.442 343.25 533.893 340.392 536.278C289.697 579.061 207.378 585.128 156.033 541.682C153.277 539.261 150.657 536.691 148.199 533.981Z" fill="#076FA2"/>
<path d="M212.41 574.963L212.478 574.979L212.548 574.988L224.005 576.488L224.064 576.496L224.124 576.498L234.087 576.998L234.125 577L242.132 577L242.132 596.916L241.714 600.48L237.823 603.736L234.243 605.532L229.109 606L224.399 606L219.331 604.613L214.206 601.339L209.04 595.682L205.685 587.506L203.276 579.283L203.276 572.879L212.41 574.963Z" fill="#FEFEFE" stroke="#0578A5" stroke-width="3"/>
<path d="M270.905 574.723L270.837 574.739L270.767 574.749L260.401 576.104L260.341 576.112L260.283 576.115L251.268 576.567L251.231 576.569L244.125 576.569L244.125 594.422L244.496 597.58L247.959 600.474L251.159 602.08L255.771 602.501L260.007 602.501L264.556 601.255L269.158 598.319L273.801 593.237L276.822 585.878L278.995 578.467L278.995 572.878L270.905 574.723Z" fill="#FEFEFE" stroke="#0875A4" stroke-width="3"/>
<path d="M311.374 605.073C303.902 614.073 281.983 627.073 263.552 632.573C244.622 634.073 246.117 638.305 246.117 630.573C258.072 614.073 271.024 601.073 314.861 599.073C319.345 599.073 316.356 599.073 311.374 605.073Z" fill="#FF1863"/>
<g clip-path="url(#clip6_176_758)">
<path fill-rule="evenodd" clip-rule="evenodd" d="M229.08 598.174C223.8 589.088 136.491 615.604 103.598 634.756C86.5986 644.653 79.8934 664.901 88.6341 679.943C97.3756 694.986 118.273 699.163 135.273 689.266C168.165 670.114 234.359 607.259 229.08 598.174Z" fill="#FF9425"/>
<path fill-rule="evenodd" clip-rule="evenodd" d="M229.248 598.536C229.173 598.35 229.073 598.151 229.073 598.151C229.073 598.151 86.9038 676.204 88.6349 679.942C95.9453 695.731 118.325 699.251 135.273 689.265C199.1 651.65 231.837 605.047 229.248 598.536Z" fill="#FF8600"/>
<path d="M127.584 690.764C125.427 684.289 122.901 677.985 118.532 672.75" stroke="#EF6A00" stroke-width="5" stroke-miterlimit="10" stroke-linecap="round" stroke-linejoin="round"/>
<path d="M156.375 673.171C156.663 668.019 153.884 664.169 150.643 660.382" stroke="#EF6A00" stroke-width="5" stroke-miterlimit="10" stroke-linecap="round" stroke-linejoin="round"/>
<path d="M189.476 647.16C186.655 641.473 183.713 637.123 180.7 633.552" stroke="#EF6A00" stroke-width="5" stroke-miterlimit="10" stroke-linecap="round" stroke-linejoin="round"/>
<path fill-rule="evenodd" clip-rule="evenodd" d="M94.4918 677.152C94.4918 677.152 68.7068 679.396 59.9685 682.259C51.2682 685.109 47.806 698.472 50.3657 702.279C53.8786 707.501 63.154 709.153 70.6586 703.16C77.728 697.516 94.4918 677.152 94.4918 677.152Z" fill="#129447"/>
<path fill-rule="evenodd" clip-rule="evenodd" d="M94.4858 677.311C94.4858 677.311 83.4795 675.935 73.9204 670.704C68.6025 667.794 66.0788 660.448 61.9182 658.905C56.9319 657.056 50.8999 657.144 49.4134 662.012C47.9272 666.88 51.618 671.832 57.0886 677.001C66.6637 686.047 89.2334 679.103 94.4858 677.311Z" fill="#00AA63"/>
<path fill-rule="evenodd" clip-rule="evenodd" d="M94.5307 676.078C94.5307 676.078 87.5784 670.591 80.6925 662.404C75.8123 656.601 72.4484 647.711 72.2765 647.096C69.9164 638.678 61.4567 639.661 58.9908 646.794C56.8439 653.008 59.1221 659.488 62.5491 663.786C71.387 674.873 91.2202 679.602 94.5307 676.078Z" fill="#129447"/>
<path fill-rule="evenodd" clip-rule="evenodd" d="M94.5308 676.078C94.5308 676.078 91.3827 685.941 91.7204 696.393C91.908 702.207 97.5454 707.791 97.01 711.993C96.3689 717.028 93.4311 722.019 88.2002 720.954C82.9694 719.889 79.227 712.62 77.8962 707.454C74.689 695.011 89.8669 678.214 94.5308 676.078Z" fill="#00AA63"/>
<path fill-rule="evenodd" clip-rule="evenodd" d="M94.5298 676.078C94.5298 676.078 95.9006 687.691 100.089 697.377C103.484 705.227 108.271 709.699 109.286 712.288C111.153 717.051 108.824 721.707 103.488 721.982C98.1517 722.258 91.7082 715.445 89.8226 711.508C84.0158 699.378 90.2621 680.518 94.5298 676.078Z" fill="#129447"/>
<path d="M119.491 646.097C119.119 640.007 116.143 634.52 114.006 631.118" stroke="#EF6A00" stroke-width="5" stroke-miterlimit="10" stroke-linecap="round" stroke-linejoin="round"/>
<path d="M157.042 628.13C156.682 623.536 154.412 618.996 152.789 616.136" stroke="#EF6A00" stroke-width="5" stroke-miterlimit="10" stroke-linecap="round" stroke-linejoin="round"/>
<path d="M194.095 610.718C193.728 608.176 192.153 605.456 191.039 603.721" stroke="#EF6A00" stroke-width="5" stroke-miterlimit="10" stroke-linecap="round" stroke-linejoin="round"/>
<path d="M89.2539 553.23C93.7626 550.448 96.6038 550.582 98.9119 551.755C101.72 553.183 104.58 556.538 108.027 562.102C114.598 572.709 122.588 590.323 135.953 606.857L136.147 607.096L136.38 607.299C148.359 617.71 158.987 627.04 165.889 636.818C172.511 646.199 175.487 655.692 172.866 666.736C164.039 676.781 155.775 682.304 148.233 684.689C140.609 687.101 133.437 686.403 126.684 683.513C112.909 677.62 100.842 662.585 91.6959 646.071L91.625 645.944L91.5446 645.824C81.7283 631.107 77.3624 610.836 77.532 592.485C77.6156 583.342 78.8261 574.828 80.956 567.875C83.0773 560.951 85.9948 555.952 89.2539 553.23Z" fill="#87CFE5" stroke="#0076B8" stroke-width="7"/>
<path d="M146.521 643.243C146.451 642.961 146.265 642.711 146.014 642.547C145.763 642.384 145.466 642.319 145.18 642.371C144.894 642.421 144.638 642.584 144.459 642.825C144.28 643.066 144.191 643.364 144.224 643.653C144.295 644.275 144.368 644.878 144.448 645.498C145.484 656.562 150.525 667.887 157.928 676.507C158.334 677.007 158.722 677.479 159.137 677.972C160.828 676.365 162.52 674.758 164.212 673.151C163.767 672.739 163.347 672.347 162.911 671.93C155.019 664.709 149.465 655.726 146.968 645.01C146.813 644.418 146.667 643.841 146.521 643.243Z" fill="#0074AB"/>
</g>
</g>
<path d="M364.525 659.548C364.674 659.293 364.93 659.103 365.223 659.014C365.516 658.925 365.824 658.944 366.09 659.073C366.355 659.203 366.561 659.433 366.672 659.719C366.783 660.005 366.791 660.323 366.683 660.598C366.485 661.097 366.296 661.569 366.092 662.066C362.712 670.891 357.017 679.309 350.64 686.324C350.286 686.728 349.947 687.113 349.591 687.515C348.958 688.234 348.082 688.647 347.126 688.632C346.172 688.618 345.217 688.178 344.5 687.44C343.783 686.701 343.373 685.733 343.387 684.78C343.401 683.824 343.839 682.961 344.576 682.35C344.98 682.013 345.365 681.693 345.765 681.357C352.962 675.499 359.043 668.992 363.732 660.884C364.002 660.432 364.258 660.004 364.525 659.548Z" fill="#007BA4"/>
</g>
<defs>
<clipPath id="clip0_176_758">
<rect width="476" height="786" fill="white"/>
</clipPath>
<clipPath id="clip1_176_758">
<rect width="476" height="786" fill="white"/>
</clipPath>
<clipPath id="clip2_176_758">
<rect width="151" height="90.1148" fill="white" transform="translate(92 697.885)"/>
</clipPath>
<clipPath id="clip3_176_758">
<rect width="151" height="90.1148" fill="white" transform="matrix(-1 0 0 1 396.001 695.885)"/>
</clipPath>
<clipPath id="clip4_176_758">
<rect width="196" height="148.189" fill="white" transform="translate(146 401.511)"/>
</clipPath>
<clipPath id="clip5_176_758">
<rect width="76" height="149.19" fill="white" transform="matrix(-1 0 0 1 483 494)"/>
</clipPath>
<clipPath id="clip6_176_758">
<rect width="156.179" height="209.026" fill="white" transform="matrix(-0.534738 -0.844935 -0.844561 0.535591 251.051 630.961)"/>
</clipPath>
</defs>
</svg>
