<svg width="476" height="786" viewBox="0 0 476 786" fill="none" xmlns="http://www.w3.org/2000/svg">
<g clip-path="url(#clip0_157_1083)">
<path d="M86.9296 16.7143C96.5345 11.8058 106.682 11.5524 117.15 15.7188C127.798 19.9572 138.925 28.8568 149.706 42.484C171.246 69.7073 190.39 114.534 201.105 172.941C203.797 197.451 207.515 221.975 210.903 244.675C214.315 267.526 217.378 288.445 218.81 305.947C220.262 323.711 219.917 336.908 217.187 344.843C215.87 348.67 214.243 350.541 212.698 351.426C211.21 352.28 208.76 352.81 204.48 351.727L201.386 350.945L199.008 353.076C195.786 355.965 194.143 356.089 193.632 356.04C193.139 355.992 191.842 355.603 189.746 352.806C187.689 350.061 185.529 345.873 183.134 340.141C180.765 334.471 178.317 327.671 175.575 319.89C164.678 288.966 149.647 243.897 118.755 204.259L118.539 203.982L118.293 203.733L115.425 200.807C55.8798 139.71 39.4621 98.8817 41.6354 71.5833C43.8011 44.3815 64.7521 28.0479 86.9296 16.7143Z" fill="#8BCDE5" stroke="#0E6B96" stroke-width="12"/>
<path d="M307.345 63.0001C329.956 36.7664 354.435 28.2455 371.981 33.7082C390.948 39.6138 410.17 56.4775 412.328 84.658C414.514 113.194 399.378 155.113 344.924 210.922L344.816 211.034L344.714 211.149C311.199 249.217 298.305 291.6 289.629 320.998C287.446 328.398 285.571 334.835 283.702 340.279C281.814 345.774 280.078 349.805 278.313 352.52C276.553 355.23 275.28 355.846 274.561 355.996C273.785 356.157 271.966 356.128 268.378 353.876L266.01 352.389L263.352 353.247C259.04 354.637 256.325 354.41 254.592 353.718C252.907 353.044 251.211 351.556 249.678 348.449C246.419 341.847 245.025 330.25 245.345 314.045C245.977 281.971 253.048 236.878 258.547 190.113C265.454 131.368 284.962 88.9707 307.345 63.0001Z" fill="#87CFE5" stroke="#0E6B96" stroke-width="12"/>
<path d="M237.5 334.426C339.975 334.426 423 416.937 423 518.661C423 620.384 339.975 702.895 237.5 702.895C135.025 702.895 52.0005 620.384 52.0005 518.661C52.0005 416.937 135.025 334.426 237.5 334.426Z" fill="#86D0E3" stroke="#0C74AB" stroke-width="7"/>
<path d="M364.501 646.824C330.001 685.874 266.001 701.394 241.001 698.89C134.001 704.898 53.5005 610.673 56.0005 517.159C57.5664 458.584 43.0005 596.76 182.001 655.836C256.501 693.383 364.501 646.824 364.501 646.824Z" fill="#37B4CA"/>
<path opacity="0.77" d="M173.5 393.501L182.5 381.987L195 370.972L202 366.967L208.5 364.965L212 368.469L215 372.474L217 378.482L208.5 380.985L196 387.994L187.5 393.501L179 401.511L175 397.006L173.5 393.501Z" fill="#004F80"/>
<path opacity="0.7" d="M264.5 357.956H272.5L280 359.458L288 362.462L298 366.968L306.5 371.974L305 379.483L295 376.98L283.5 374.477L274.5 372.975H267.5H259.5V365.966L261 360.96L264.5 357.956Z" fill="#014C83"/>
<g clip-path="url(#clip1_157_1083)">
<path d="M199 700.891C217.453 700.891 227.418 706.675 232.985 714.199C238.752 721.994 240.5 732.567 240.5 743.445C240.5 754.689 239.623 763.351 232.348 769.732C224.743 776.403 209.12 781.494 176.5 781.494C154.106 781.494 138.008 780.424 126.449 778.523C114.815 776.61 108.241 773.923 104.485 771.045C100.993 768.369 99.6442 765.306 99.1137 761.46C98.8339 759.432 98.7896 757.202 98.8315 754.653C98.8709 752.258 99.0004 749.257 99.0004 746.449C99.0004 742.955 101.71 738.187 108.265 732.613C114.594 727.232 123.607 721.877 134.018 717.118C154.892 707.577 180.368 700.891 199 700.891Z" fill="#87CFE5" stroke="#0178B2" stroke-width="9"/>
<path d="M235.614 730.881C246.614 773.936 213.16 778.991 174.5 778.991C135.84 778.991 114 775.987 108.5 768.978C95.5 762.97 149.114 767.928 177.114 764.925C262.114 764.925 216 687.875 235.614 730.881Z" fill="#31A7BA"/>
</g>
<g clip-path="url(#clip2_157_1083)">
<path d="M291.001 700.891C272.548 700.891 262.583 706.675 257.016 714.199C251.249 721.994 249.501 732.567 249.501 743.445C249.501 754.689 250.378 763.351 257.653 769.732C265.258 776.403 280.881 781.494 313.501 781.494C335.895 781.494 351.993 780.424 363.552 778.523C375.186 776.61 381.76 773.923 385.516 771.045C389.008 768.369 390.357 765.306 390.887 761.46C391.167 759.432 391.211 757.202 391.169 754.653C391.13 752.258 391.001 749.257 391.001 746.449C391.001 742.955 388.291 738.187 381.736 732.613C375.407 727.232 366.394 721.877 355.983 717.118C335.109 707.577 309.633 700.891 291.001 700.891Z" fill="#87CFE5" stroke="#0178B2" stroke-width="9"/>
<path d="M254.387 730.881C243.387 773.936 276.841 778.991 315.501 778.991C354.161 778.991 376.001 775.987 381.501 768.978C394.501 762.97 340.887 767.928 312.887 764.925C227.887 764.925 274.001 687.875 254.387 730.881Z" fill="#31A7BA"/>
</g>
<g clip-path="url(#clip3_157_1083)">
<path d="M62.086 498.138C67.3401 498.815 69.4648 500.708 70.5216 503.074C71.8074 505.952 71.9225 510.361 71.1056 516.856C69.5483 529.238 64.6905 547.96 64.6905 569.225V569.533L64.7442 569.837C67.5148 585.473 69.9142 599.417 69.1349 611.363C68.3871 622.825 64.7354 632.077 55.7569 639.009C42.5812 641.259 32.6863 640.348 25.3233 637.453C17.8798 634.527 12.7443 629.467 9.30963 622.97C2.30391 609.715 2.37071 590.43 5.63872 571.835L5.66411 571.692L5.67681 571.549C7.29434 553.929 16.6396 535.424 28.3038 521.267C34.1151 514.214 40.4065 508.358 46.4317 504.296C52.4328 500.25 57.8416 498.202 62.086 498.138Z" fill="#87CFE5" stroke="#0076B8" stroke-width="7"/>
<path d="M43.8178 604.062C43.8759 603.776 43.8145 603.471 43.6576 603.215C43.5001 602.959 43.2598 602.774 42.9793 602.698C42.6988 602.621 42.398 602.659 42.1327 602.8C41.868 602.941 41.6605 603.173 41.5662 603.449C41.3647 604.043 41.1721 604.619 40.9797 605.215C37.1836 615.672 36.8963 628.081 39.901 639.053C40.0545 639.679 40.2034 640.273 40.3672 640.897C42.5837 640.167 44.8003 639.437 47.0168 638.707C46.7908 638.143 46.5791 637.608 46.3633 637.045C42.3183 627.129 41.1399 616.621 43.4664 605.852C43.5798 605.25 43.6941 604.665 43.8178 604.062Z" fill="#0074AB"/>
<path d="M19.9754 602.993C20.0078 602.698 19.9166 602.393 19.7347 602.146C19.5521 601.899 19.2939 601.73 19.0038 601.675C18.7137 601.62 18.4117 601.682 18.1514 601.845C17.8918 602.008 17.6951 602.259 17.6175 602.544C17.4783 603.064 17.3473 603.555 17.214 604.077C14.6529 613.185 14.1899 623.351 15.1129 632.798C15.1558 633.334 15.1967 633.846 15.2424 634.382C15.321 635.338 15.7769 636.193 16.5522 636.753C17.325 637.312 18.3538 637.531 19.3699 637.366C20.386 637.202 21.2939 636.67 21.8517 635.897C22.4119 635.121 22.5761 634.165 22.3505 633.234C22.2276 632.722 22.1097 632.235 21.9899 631.725C19.7184 622.717 18.7297 613.854 19.8133 604.54C19.8659 604.015 19.9165 603.518 19.9754 602.993Z" fill="#007BA4"/>
</g>
<path d="M344.279 603C297.279 611.5 285.779 575.5 302.279 552" stroke="#076FA2" stroke-width="6" stroke-linecap="round"/>
<path d="M193.319 565.107C193.081 564.703 192.749 564.461 192.396 564.436C192.043 564.41 191.697 564.602 191.436 564.97C191.174 565.338 191.018 565.851 191.001 566.397C190.985 566.943 191.109 567.476 191.347 567.88C192.513 569.86 193.755 571.734 195.058 573.496C219.343 604.928 257.155 600.351 280.759 569.853C282.086 568.149 283.351 566.397 284.594 564.541C284.848 564.161 284.994 563.64 285 563.094C285.006 562.548 284.87 562.02 284.625 561.628C284.379 561.235 284.042 561.009 283.689 561C283.335 560.991 282.994 561.2 282.739 561.579C281.546 563.364 280.33 565.047 279.055 566.684C256.441 596.062 219.719 600.228 196.814 570.395C195.584 568.733 194.416 566.968 193.319 565.107Z" fill="#076FA2"/>
<path d="M217.334 591.963L217.375 591.979L217.417 591.987L224.306 593.487L224.341 593.495L224.377 593.498L230.368 593.998L230.391 594H235.205V613.916L234.954 617.48L232.614 620.735L230.462 622.531L227.375 623H224.543L221.495 621.612L218.414 618.339L215.308 612.682L213.291 604.506L211.842 596.282V589.879L217.334 591.963Z" fill="#FEFEFE" stroke="#0578A5" stroke-width="3"/>
<path d="M252.506 591.723L252.465 591.738L252.423 591.748L246.19 593.104L246.154 593.111L246.119 593.114L240.699 593.566L240.676 593.568H236.403V611.422L236.627 614.579L238.709 617.474L240.633 619.079L243.406 619.5H245.953L248.688 618.255L251.455 615.318L254.247 610.236L256.064 602.878L257.37 595.467V589.878L252.506 591.723Z" fill="#FEFEFE" stroke="#0875A4" stroke-width="3"/>
<path d="M126 601C173 609.5 184.5 573.5 168 550" stroke="#076FA2" stroke-width="6" stroke-linecap="round"/>
<path fill-rule="evenodd" clip-rule="evenodd" d="M320.576 675.939C317.803 686.022 330.97 689.264 365.649 698.442C383.571 703.185 401.849 693.483 406.441 676.789C411.032 660.095 400.21 642.69 382.287 637.948C347.609 628.77 320.059 656.433 320.576 675.939Z" fill="#FF9425"/>
<path fill-rule="evenodd" clip-rule="evenodd" d="M327.478 636.633C327.399 636.816 324.166 655.699 324.166 655.699C324.166 655.699 405.01 680.632 406.44 676.789C412.481 660.555 400.236 642.59 382.286 637.947C314.684 620.458 330.248 630.234 327.478 636.633Z" fill="#FF8600"/>
<path d="M388.352 642.202C385.323 648.277 382.655 654.488 381.926 661.215" stroke="#EF6A00" stroke-width="5" stroke-miterlimit="10" stroke-linecap="round" stroke-linejoin="round"/>
<path d="M357.428 634.757C353.706 638.205 352.886 642.853 352.411 647.774" stroke="#EF6A00" stroke-width="5" stroke-miterlimit="10" stroke-linecap="round" stroke-linejoin="round"/>
<path fill-rule="evenodd" clip-rule="evenodd" d="M400.69 674.716C400.69 674.716 419.118 690.952 426.805 694.966C434.458 698.962 445.892 691.893 446.825 687.427C448.105 681.302 443.163 673.719 434.138 672.775C425.636 671.885 400.69 674.716 400.69 674.716Z" fill="#129447"/>
<path fill-rule="evenodd" clip-rule="evenodd" d="M400.803 674.608C400.803 674.608 407.069 683.191 409.742 693.503C411.23 699.24 407.844 706.186 409.511 710.156C411.509 714.912 415.52 719.019 419.833 716.599C424.145 714.18 425.124 708.122 425.085 700.679C425.018 687.655 405.473 676.97 400.803 674.608Z" fill="#00AA63"/>
<path fill-rule="evenodd" clip-rule="evenodd" d="M399.928 675.451C399.928 675.451 400.719 684.142 399.614 694.7C398.831 702.182 394.937 710.803 394.628 711.357C390.4 718.949 396.615 724.101 403.123 720.755C408.791 717.839 411.743 711.676 412.446 706.263C414.261 692.303 404.514 675.244 399.928 675.451Z" fill="#129447"/>
<path fill-rule="evenodd" clip-rule="evenodd" d="M399.929 675.45C399.929 675.45 408.755 670.642 415.702 663.008C419.566 658.761 419.703 650.909 422.936 648.305C426.81 645.182 432.156 643.679 434.852 648.049C437.548 652.419 435.014 660.154 432.342 664.732C425.91 675.759 404.448 677.161 399.929 675.45Z" fill="#00AA63"/>
<path fill-rule="evenodd" clip-rule="evenodd" d="M399.929 675.45C399.929 675.45 406.996 666.279 410.895 656.525C414.055 648.62 413.987 642.145 415.097 639.61C417.141 634.946 421.86 633.259 425.544 636.753C429.227 640.247 428.776 649.525 427.31 653.616C422.795 666.219 405.769 675.258 399.929 675.45Z" fill="#129447"/>
<path d="M363.019 679.424C359.086 683.994 357.272 689.936 356.339 693.823" stroke="#EF6A00" stroke-width="5" stroke-miterlimit="10" stroke-linecap="round" stroke-linejoin="round"/>
<path d="M326.101 666.189C323.121 669.84 321.568 674.931 320.73 678.287" stroke="#EF6A00" stroke-width="5" stroke-miterlimit="10" stroke-linecap="round" stroke-linejoin="round"/>
<path d="M318.505 672.131C318.003 668.514 327.41 669.9 320.979 669.247C325.019 670.199 326.784 668.534 325.194 670.933C320.082 676.316 326.26 680.546 321.834 681.93C319.065 679.544 319.565 679.757 318.505 672.131Z" fill="#FF9425"/>
<path d="M320.969 630.871C327.755 625.442 338.563 627.989 328.419 630.973C330.658 633.155 332.02 636.247 328.617 636.808C319.346 636.343 327.641 641.386 317.813 635.916C317.291 635.226 315.953 637.131 320.969 630.871Z" fill="#FF9221"/>
<path d="M314.887 661.687C316.19 661.167 312.466 661.944 317.773 661.127C321.889 662.097 324.674 660.21 324.165 662.373C323.655 664.536 331.852 669.82 318.716 667.138C314.438 670.264 315.564 673.837 314.887 661.687Z" fill="#C65104"/>
<path d="M314.993 667.914C316.296 667.395 313.115 662.571 316.562 661.256C320.679 662.226 324.83 666.234 324.32 668.398C323.81 670.561 320.675 668.84 318.634 672.494C326.115 687.487 315.951 680.544 314.993 667.914Z" fill="#C65104"/>
<path d="M314.593 654.589C316.901 651.672 316.477 651.802 320.318 650.977C324.158 651.882 327.796 654.202 327.03 656.884C324.715 664.99 322.32 661.398 318.959 661.904C313.193 665.736 315.353 659.959 314.593 654.589Z" fill="#C65104"/>
<path d="M317.532 635.437C319.84 632.52 318.662 632.512 322.503 631.687C326.343 632.592 329.981 634.912 329.215 637.594C326.899 645.701 324.505 642.108 321.143 642.614C315.378 646.446 315.377 646.506 317.532 635.437Z" fill="#C65104"/>
<path d="M315.816 644.541C318.124 641.625 317.7 641.754 321.541 640.929C325.381 641.834 329.019 644.154 328.253 646.836C325.938 654.942 323.355 654.53 319.995 655.035C314.23 658.868 313.416 654.725 315.816 644.541Z" fill="#C65104"/>
<path d="M322.291 681.458C322.46 681.498 322.843 681.4 323.343 680.999C324.508 680.065 323.394 678.313 323.307 677.155C323.219 675.996 323.131 674.842 322.831 673.633C322.688 673.058 322.826 672.306 323.132 671.574C323.636 670.37 325.269 669.946 326.134 668.776C326.535 668.234 326.891 667.674 326.902 667.062C326.92 665.971 325.27 665.4 324.795 664.15C324.382 663.061 324.955 660.978 325.837 659.518C326.645 658.181 327.253 657.339 327.423 656.813C327.835 655.538 326.548 654.238 325.745 653.243C325.347 652.751 325.492 651.812 325.841 650.901C326.484 649.219 328.36 648.039 329.056 647.014C329.4 646.51 328.215 646.009 327.882 645.506C327.218 644.497 327.673 642.949 328.209 640.475C328.586 638.73 329.963 637.431 330.548 636.284C331.054 635.293 329.854 634.086 329.466 632.857C329.289 632.293 329.335 631.687 329.417 631.14C330.289 630.301 331.184 629.943 331.705 629.642C331.931 629.458 332.078 629.211 332.742 629.077" stroke="#C65104" stroke-width="2" stroke-linecap="round"/>
<path d="M323.115 650.7C322.271 648.533 331.597 650.264 325.25 649.252C329.289 650.204 330.852 649.402 329.532 650.652C325.064 653.304 331.513 656.384 327.323 656.762C324.385 655.095 324.894 655.269 323.115 650.7Z" fill="#FF9425"/>
<path d="M317.678 664.848C317.825 664.224 317.795 663.293 317.946 661.842C318.063 660.716 317.565 659.735 317.434 658.677C317.336 657.761 317.14 656.987 317.073 656.477C317.078 656.18 317.166 655.808 317.256 655.425" stroke="#C65104" stroke-width="2" stroke-linecap="round"/>
<path d="M320.726 681.421C320.661 681.2 320.29 680.783 319.893 680.462C319.476 680.124 319.265 679.633 318.998 679.178C318.716 678.699 318.665 678.008 318.58 677.45C318.495 676.892 318.372 676.411 318.261 675.889C318.145 675.347 317.925 674.82 317.682 674.267C317.437 673.713 317.326 673.193 317.046 672.631C316.763 672.064 316.569 671.405 316.336 670.813C316.011 669.99 315.84 669.5 315.852 668.863C315.867 668.01 315.333 666.99 315.136 666.237C314.962 665.575 314.781 664.669 314.639 664.016C314.479 663.28 314.237 662.807 314.225 662.103C314.216 661.577 314.251 661.077 314.239 660.126C314.23 659.358 314.265 658.688 314.267 657.924C314.27 657.019 314.307 656.509 314.305 656.013C314.303 655.491 314.192 654.996 314.135 654.486C314.08 654.006 314.152 653.5 314.209 652.671C314.364 650.445 314.939 648.991 315.087 647.943C315.179 647.473 315.317 647.047 315.607 646.07C315.823 645.241 316.178 643.731 316.545 642.176" stroke="#FF8600" stroke-width="2" stroke-linecap="round"/>
<path d="M320.791 632.156C320.662 632.372 320.237 632.847 319.818 633.287C319.427 633.698 319.272 634.272 319.013 634.706C318.753 635.141 318.494 635.574 318.299 636.147C318.097 636.743 317.533 637.98 317.172 639.099C316.934 640.025 316.802 640.748 316.73 641.305C316.648 641.737 316.474 642.473 316.296 643.23" stroke="#FF8600" stroke-width="2" stroke-linecap="round"/>
<path d="M380.513 556.578C375.385 555.25 372.709 556.214 370.849 558.014C368.586 560.203 366.84 564.247 365.184 570.572C362.027 582.629 359.577 601.792 351.672 621.505L351.557 621.79L351.394 622.053C343.011 635.515 335.601 647.548 331.884 658.911C328.317 669.814 328.267 679.75 334.024 689.518C345.417 696.507 354.94 699.345 362.85 699.402C370.846 699.46 377.494 696.682 383.096 691.936C394.526 682.257 401.632 664.356 405.511 645.903L405.541 645.761L405.583 645.623C410.631 628.687 408.835 608.056 403.271 590.592C400.5 581.891 396.836 574.121 392.754 568.112C388.688 562.129 384.429 558.217 380.513 556.578Z" fill="#87CFE5" stroke="#0076B8" stroke-width="7"/>
<path d="M358.096 661.566C358.148 661.279 358.318 661.019 358.56 660.84C358.801 660.662 359.093 660.58 359.381 660.613C359.67 660.647 359.935 660.794 360.129 661.023C360.323 661.252 360.428 661.545 360.413 661.835C360.38 662.461 360.345 663.067 360.301 663.691C359.938 674.798 355.592 686.407 348.725 695.46C348.35 695.983 347.991 696.477 347.607 696.994C345.82 695.493 344.035 693.991 342.249 692.49C342.668 692.051 343.063 691.635 343.473 691.192C350.914 683.506 355.913 674.204 357.757 663.356C357.875 662.756 357.986 662.171 358.096 661.566Z" fill="#0074AB"/>
<path d="M380.623 669.449C380.702 669.164 380.9 668.915 381.161 668.753C381.422 668.592 381.725 668.532 382.014 668.589C382.304 668.646 382.562 668.816 382.742 669.064C382.923 669.312 383.012 669.617 382.978 669.911C382.914 670.445 382.853 670.948 382.782 671.482C381.775 680.877 378.426 690.473 374.057 698.887C373.818 699.369 373.59 699.828 373.348 700.308C372.92 701.164 372.179 701.787 371.252 702.017C370.325 702.248 369.289 702.068 368.408 701.538C367.526 701.008 366.88 700.177 366.651 699.251C366.419 698.324 366.621 697.378 367.178 696.598C367.482 696.169 367.772 695.761 368.073 695.333C373.529 687.829 377.742 679.982 380.198 670.943C380.344 670.437 380.482 669.958 380.623 669.449Z" fill="#007BA4"/>
<g clip-path="url(#clip4_157_1083)">
<path d="M185.5 433.038C210.48 433.038 231.5 457.267 231.5 487.107C231.5 503.943 228.056 517.431 220.771 526.658C213.589 535.757 202.302 541.176 185.5 541.176C160.614 541.176 141 517.541 141 487.107C141 456.673 160.614 433.038 185.5 433.038Z" fill="#FEFEFE" stroke="#0F79AB" stroke-width="6"/>
<path d="M280.176 406.004C293.85 406.004 306.49 413.616 315.821 426.275C325.149 438.929 331 456.44 331 475.593C331 497.167 327.187 514.606 319.027 526.575C311.002 538.347 298.53 545.181 280.176 545.181C266.506 545.181 254.294 537.727 245.386 525.182C236.468 512.624 231 495.106 231 475.593C231 456.079 236.468 438.561 245.386 426.003C254.294 413.458 266.506 406.004 280.176 406.004Z" fill="#FEFEFE" stroke="#0F79AB" stroke-width="6"/>
<path d="M233 551.189C244.046 551.189 253 541.55 253 529.661C253 517.772 244.046 508.134 233 508.134C221.954 508.134 213 517.772 213 529.661C213 541.55 221.954 551.189 233 551.189Z" fill="#ED6F7A"/>
<path d="M265.5 491.112C265.5 502.172 259.508 511.138 251.5 511.138C243.492 511.138 237 502.172 237 491.112C237 480.053 243.492 471.087 251.5 471.087C260.5 473.59 265.5 479.598 265.5 491.112Z" fill="#2B2A28"/>
<path d="M213.5 511.138C221.508 511.138 228 502.172 228 491.112C228 480.053 221.508 471.087 213.5 471.087C205.492 471.087 199 480.053 199 491.112C199 502.172 205.492 511.138 213.5 511.138Z" fill="#2B2A28"/>
<path d="M263 480.599C264 484.103 260.761 487.107 258 487.107C255.239 487.107 253 484.642 253 481.6C253 478.559 255.239 476.093 258 476.093C260.761 476.093 263 477.558 263 480.599Z" fill="#F9FAFB"/>
<path d="M225 480.599C226 484.103 222.761 487.107 220 487.107C217.239 487.107 215 484.642 215 481.6C215 478.559 217.239 476.093 220 476.093C222.761 476.093 225 477.558 225 480.599Z" fill="#F9FAFB"/>
</g>
</g>
<defs>
<clipPath id="clip0_157_1083">
<rect width="476" height="786" fill="white"/>
</clipPath>
<clipPath id="clip1_157_1083">
<rect width="151" height="90.1148" fill="white" transform="translate(94 695.885)"/>
</clipPath>
<clipPath id="clip2_157_1083">
<rect width="151" height="90.1148" fill="white" transform="matrix(-1 0 0 1 396.001 695.885)"/>
</clipPath>
<clipPath id="clip3_157_1083">
<rect width="76" height="149.19" fill="white" transform="translate(0 494.63)"/>
</clipPath>
<clipPath id="clip4_157_1083">
<rect width="196" height="148.189" fill="white" transform="translate(138 403)"/>
</clipPath>
</defs>
</svg>
