<svg width="476" height="786" viewBox="0 0 476 786" fill="none" xmlns="http://www.w3.org/2000/svg">
<g clip-path="url(#clip0_176_1187)">
<g clip-path="url(#clip1_176_1187)">
<path d="M86.9297 16.7143C96.5345 11.8058 106.682 11.5524 117.15 15.7188C127.798 19.9572 138.925 28.8568 149.706 42.484C171.246 69.7073 190.39 114.534 201.105 172.941C203.797 197.451 207.515 221.975 210.903 244.675C214.315 267.526 217.378 288.445 218.81 305.946C220.262 323.711 219.917 336.908 217.187 344.843C215.87 348.67 214.243 350.541 212.698 351.426C211.21 352.28 208.76 352.81 204.48 351.727L201.386 350.945L199.008 353.076C195.786 355.965 194.143 356.089 193.632 356.04C193.139 355.992 191.842 355.603 189.746 352.806C187.689 350.061 185.529 345.873 183.134 340.141C180.765 334.471 178.317 327.671 175.575 319.89C164.678 288.966 149.647 243.897 118.755 204.259L118.539 203.982L118.293 203.733L115.425 200.807C55.8798 139.71 39.4621 98.8817 41.6354 71.5833C43.8011 44.3815 64.7521 28.0479 86.9297 16.7143Z" fill="#8BCDE5" stroke="#0E6B96" stroke-width="12"/>
<path d="M307.345 63.0001C329.956 36.7664 354.435 28.2455 371.981 33.7082C390.948 39.6138 410.17 56.4775 412.328 84.658C414.514 113.194 399.378 155.113 344.924 210.922L344.816 211.034L344.714 211.149C311.199 249.217 298.305 291.6 289.629 320.998C287.446 328.398 285.571 334.835 283.702 340.279C281.814 345.774 280.078 349.805 278.313 352.52C276.553 355.23 275.28 355.846 274.561 355.996C273.785 356.157 271.966 356.128 268.378 353.876L266.01 352.389L263.352 353.247C259.04 354.637 256.325 354.41 254.592 353.718C252.907 353.044 251.211 351.556 249.678 348.449C246.419 341.847 245.025 330.25 245.345 314.045C245.977 281.971 253.048 236.878 258.547 190.113C265.454 131.368 284.962 88.9707 307.345 63.0001Z" fill="#87CFE5" stroke="#0E6B96" stroke-width="12"/>
<path d="M237.5 334.426C339.975 334.426 423 416.937 423 518.661C423 620.384 339.975 702.895 237.5 702.895C135.025 702.895 52.0005 620.384 52.0005 518.661C52.0005 416.937 135.025 334.426 237.5 334.426Z" fill="#86D0E3" stroke="#0C74AB" stroke-width="7"/>
<path d="M364.501 646.824C330.001 685.874 266.001 701.394 241.001 698.89C134.001 704.898 53.5005 610.673 56.0005 517.159C57.5664 458.584 43.0005 596.76 182.001 655.836C256.501 693.383 364.501 646.824 364.501 646.824Z" fill="#37B4CA"/>
<path opacity="0.77" d="M173.5 393.501L182.5 381.987L195 370.972L202 366.967L208.5 364.965L212 368.469L215 372.474L217 378.482L208.5 380.985L196 387.994L187.5 393.501L179 401.511L175 397.006L173.5 393.501Z" fill="#004F80"/>
<path opacity="0.7" d="M264.5 357.956H272.5L280 359.458L288 362.462L298 366.968L306.5 371.974L305 379.483L295 376.98L283.5 374.477L274.5 372.975H267.5H259.5V365.966L261 360.96L264.5 357.956Z" fill="#014C83"/>
<g clip-path="url(#clip2_176_1187)">
<path d="M199 700.891C217.453 700.891 227.418 706.675 232.985 714.199C238.752 721.994 240.5 732.567 240.5 743.445C240.5 754.689 239.623 763.351 232.348 769.732C224.743 776.403 209.12 781.494 176.5 781.494C154.106 781.494 138.008 780.424 126.449 778.523C114.815 776.61 108.241 773.923 104.485 771.045C100.993 768.369 99.6442 765.306 99.1137 761.46C98.8339 759.432 98.7896 757.202 98.8315 754.653C98.8709 752.258 99.0004 749.257 99.0004 746.449C99.0004 742.955 101.71 738.187 108.265 732.613C114.594 727.232 123.607 721.877 134.018 717.118C154.892 707.577 180.368 700.891 199 700.891Z" fill="#87CFE5" stroke="#0178B2" stroke-width="9"/>
<path d="M235.614 730.881C246.614 773.936 213.16 778.991 174.5 778.991C135.84 778.991 114 775.987 108.5 768.978C95.5 762.97 149.114 767.928 177.114 764.925C262.114 764.925 216 687.875 235.614 730.881Z" fill="#31A7BA"/>
</g>
<g clip-path="url(#clip3_176_1187)">
<path d="M291.001 700.891C272.548 700.891 262.583 706.675 257.016 714.199C251.249 721.994 249.501 732.567 249.501 743.445C249.501 754.689 250.378 763.351 257.653 769.732C265.258 776.403 280.881 781.494 313.501 781.494C335.895 781.494 351.993 780.424 363.552 778.523C375.186 776.61 381.76 773.923 385.516 771.045C389.008 768.369 390.357 765.306 390.887 761.46C391.167 759.432 391.211 757.202 391.169 754.653C391.13 752.258 391.001 749.257 391.001 746.449C391.001 742.955 388.291 738.187 381.736 732.613C375.407 727.232 366.394 721.877 355.983 717.118C335.109 707.577 309.633 700.891 291.001 700.891Z" fill="#87CFE5" stroke="#0178B2" stroke-width="9"/>
<path d="M254.387 730.881C243.387 773.936 276.841 778.991 315.501 778.991C354.161 778.991 376.001 775.987 381.501 768.978C394.501 762.97 340.887 767.928 312.887 764.925C227.887 764.925 274.001 687.875 254.387 730.881Z" fill="#31A7BA"/>
</g>
<g clip-path="url(#clip4_176_1187)">
<path d="M193.5 431.549C218.481 431.549 239.5 455.778 239.5 485.618C239.5 502.455 236.057 515.942 228.772 525.17C221.589 534.268 210.302 539.687 193.5 539.687C168.615 539.687 149 516.052 149 485.618C149 455.184 168.615 431.549 193.5 431.549Z" fill="#FEFEFE" stroke="#0F79AB" stroke-width="6"/>
<path d="M288.176 404.515C301.85 404.515 314.49 412.127 323.821 424.786C333.149 437.44 339 454.951 339 474.104C339 495.678 335.187 513.118 327.027 525.086C319.002 536.858 306.53 543.692 288.176 543.692C274.506 543.692 262.294 536.238 253.386 523.693C244.469 511.135 239 493.617 239 474.104C239 454.59 244.469 437.073 253.386 424.514C262.294 411.97 274.506 404.515 288.176 404.515Z" fill="#FEFEFE" stroke="#0F79AB" stroke-width="6"/>
<path d="M241 549.7C252.046 549.7 261 540.062 261 528.172C261 516.283 252.046 506.645 241 506.645C229.955 506.645 221 516.283 221 528.172C221 540.062 229.955 549.7 241 549.7Z" fill="#ED6F7A"/>
<path d="M273.5 489.624C273.5 500.683 267.508 509.649 259.5 509.649C251.492 509.649 245 500.683 245 489.624C245 478.564 251.492 469.598 259.5 469.598C268.5 472.101 273.5 478.109 273.5 489.624Z" fill="#2B2A28"/>
<path d="M221.5 509.649C229.509 509.649 236 500.683 236 489.624C236 478.564 229.509 469.598 221.5 469.598C213.492 469.598 207 478.564 207 489.624C207 500.683 213.492 509.649 221.5 509.649Z" fill="#2B2A28"/>
<path d="M271 479.11C272 482.615 268.761 485.619 266 485.619C263.239 485.619 261 483.153 261 480.112C261 477.07 263.239 474.604 266 474.604C268.761 474.604 271 476.069 271 479.11Z" fill="#F9FAFB"/>
<path d="M233 479.11C234 482.615 230.762 485.619 228 485.619C225.239 485.619 223 483.153 223 480.112C223 477.07 225.239 474.604 228 474.604C230.762 474.604 233 476.069 233 479.11Z" fill="#F9FAFB"/>
</g>
<g clip-path="url(#clip5_176_1187)">
<path d="M404.914 498.138C399.66 498.815 397.535 500.708 396.479 503.074C395.193 505.952 395.078 510.361 395.895 516.856C397.452 529.238 402.31 547.96 402.31 569.225V569.533L402.256 569.837C399.485 585.473 397.086 599.417 397.865 611.363C398.613 622.825 402.265 632.077 411.243 639.009C424.419 641.259 434.314 640.348 441.677 637.453C449.12 634.527 454.256 629.467 457.691 622.97C464.696 609.715 464.63 590.43 461.362 571.835L461.336 571.692L461.323 571.549C459.706 553.929 450.361 535.424 438.696 521.267C432.885 514.214 426.594 508.358 420.569 504.296C414.567 500.25 409.159 498.202 404.914 498.138Z" fill="#87CFE5" stroke="#0076B8" stroke-width="7"/>
<path d="M423.182 604.062C423.124 603.776 423.186 603.471 423.342 603.215C423.5 602.959 423.74 602.774 424.021 602.698C424.301 602.621 424.602 602.659 424.867 602.8C425.132 602.941 425.34 603.173 425.434 603.449C425.635 604.043 425.828 604.619 426.02 605.215C429.816 615.672 430.104 628.081 427.099 639.053C426.946 639.679 426.797 640.273 426.633 640.897C424.416 640.167 422.2 639.437 419.983 638.707C420.209 638.143 420.421 637.608 420.637 637.045C424.682 627.129 425.86 616.621 423.534 605.852C423.42 605.25 423.306 604.665 423.182 604.062Z" fill="#0074AB"/>
<path d="M447.025 602.993C446.992 602.698 447.083 602.393 447.265 602.146C447.448 601.899 447.706 601.73 447.996 601.675C448.286 601.62 448.588 601.682 448.849 601.845C449.108 602.008 449.305 602.259 449.383 602.544C449.522 603.064 449.653 603.555 449.786 604.077C452.347 613.185 452.81 623.351 451.887 632.798C451.844 633.334 451.803 633.846 451.758 634.382C451.679 635.338 451.223 636.193 450.448 636.753C449.675 637.312 448.646 637.531 447.63 637.366C446.614 637.202 445.706 636.67 445.148 635.897C444.588 635.121 444.424 634.165 444.65 633.234C444.772 632.722 444.89 632.235 445.01 631.725C447.282 622.717 448.27 613.854 447.187 604.54C447.134 604.015 447.084 603.518 447.025 602.993Z" fill="#007BA4"/>
</g>
<path d="M347.822 532.667L347.696 533.087L347.696 533.525C347.695 548.262 338.798 577.727 318.297 601.632C298.003 625.295 266.479 643.361 221.017 636.179C182.734 621.23 166.186 597.852 158.257 577.594C154.257 567.373 152.423 557.874 151.151 550.446C150.727 547.964 150.351 545.637 149.975 543.607C154.266 546.353 159.456 549.474 165.346 552.643C189.643 565.713 226.6 580.03 261.549 571.354C294.385 571.235 319.277 555.428 334.786 543.257C338.682 540.199 342.004 537.356 344.696 535.056C345.926 534.005 346.995 533.095 347.917 532.33C347.886 532.44 347.856 532.553 347.822 532.667Z" fill="#D20223" stroke="#076FA2" stroke-width="6"/>
<path d="M148.199 533.981C147.666 533.392 146.921 533.041 146.129 533.004C145.337 532.966 144.563 533.246 143.977 533.782C143.391 534.317 143.04 535.065 143.003 535.859C142.966 536.654 143.245 537.431 143.779 538.02C146.393 540.902 149.175 543.631 152.096 546.197C206.535 591.972 291.298 585.306 344.212 540.893C347.187 538.411 350.021 535.86 352.807 533.156C353.377 532.603 353.703 531.845 353.717 531.05C353.73 530.254 353.427 529.486 352.877 528.914C352.326 528.342 351.57 528.014 350.778 528C349.985 527.987 349.22 528.291 348.65 528.844C345.974 531.442 343.25 533.893 340.392 536.278C289.697 579.061 207.378 585.128 156.033 541.682C153.277 539.261 150.657 536.691 148.199 533.981Z" fill="#076FA2"/>
<path d="M212.41 574.963L212.478 574.979L212.548 574.988L224.005 576.488L224.064 576.496L224.124 576.498L234.087 576.998L234.125 577L242.132 577L242.132 596.916L241.714 600.48L237.823 603.736L234.243 605.532L229.109 606L224.399 606L219.331 604.613L214.206 601.339L209.04 595.682L205.685 587.506L203.276 579.283L203.276 572.879L212.41 574.963Z" fill="#FEFEFE" stroke="#0578A5" stroke-width="3"/>
<path d="M270.905 574.723L270.837 574.739L270.767 574.749L260.401 576.104L260.341 576.112L260.283 576.115L251.268 576.567L251.231 576.569L244.125 576.569L244.125 594.422L244.496 597.58L247.959 600.474L251.159 602.08L255.771 602.501L260.007 602.501L264.556 601.255L269.158 598.319L273.801 593.237L276.822 585.878L278.995 578.467L278.995 572.878L270.905 574.723Z" fill="#FEFEFE" stroke="#0875A4" stroke-width="3"/>
<path d="M311.374 605.073C303.902 614.073 281.983 627.073 263.552 632.573C244.622 634.073 246.117 638.305 246.117 630.573C258.072 614.073 271.024 601.073 314.861 599.073C319.345 599.073 316.356 599.073 311.374 605.073Z" fill="#FF1863"/>
<path fill-rule="evenodd" clip-rule="evenodd" d="M219.373 598.399C214.225 589.252 126.545 614.506 93.3797 633.17C76.2401 642.815 69.2435 662.942 77.766 678.086C86.2895 693.232 107.123 697.697 124.264 688.051C157.428 669.388 224.52 607.546 219.373 598.399Z" fill="#FF9425"/>
<path fill-rule="evenodd" clip-rule="evenodd" d="M219.536 598.764C219.464 598.578 219.367 598.377 219.367 598.377C219.367 598.377 76.0903 674.329 77.7671 678.086C84.8488 693.957 107.175 697.787 124.265 688.051C188.626 651.384 222.031 605.303 219.536 598.764Z" fill="#FF8600"/>
<path d="M116.555 689.441C114.492 682.944 112.057 676.613 107.764 671.324" stroke="#EF6A00" stroke-width="5" stroke-miterlimit="10" stroke-linecap="round" stroke-linejoin="round"/>
<path d="M145.596 672.275C145.957 667.134 143.235 663.249 140.048 659.423" stroke="#EF6A00" stroke-width="5" stroke-miterlimit="10" stroke-linecap="round" stroke-linejoin="round"/>
<path d="M179.068 646.764C176.329 641.045 173.451 636.659 170.489 633.051" stroke="#EF6A00" stroke-width="5" stroke-miterlimit="10" stroke-linecap="round" stroke-linejoin="round"/>
<path fill-rule="evenodd" clip-rule="evenodd" d="M83.663 675.381C83.663 675.381 57.849 677.261 49.0704 679.997C40.3303 682.721 36.6758 696.018 39.1802 699.855C42.6174 705.119 51.8678 706.899 59.4578 701.02C66.6077 695.483 83.663 675.381 83.663 675.381Z" fill="#129447"/>
<path fill-rule="evenodd" clip-rule="evenodd" d="M83.6548 675.54C83.6548 675.54 72.67 674.012 63.1874 668.654C57.912 665.673 55.495 658.301 51.3569 656.702C46.3972 654.786 40.3655 654.788 38.809 659.63C37.2519 664.47 40.8719 669.468 46.2671 674.707C55.7104 683.874 78.3774 677.257 83.6548 675.54Z" fill="#00AA63"/>
<path fill-rule="evenodd" clip-rule="evenodd" d="M83.7176 674.309C83.7176 674.309 76.8448 668.734 70.0785 660.46C65.2829 654.596 62.0475 645.671 61.8839 645.055C59.6464 636.614 51.1735 637.478 48.605 644.567C46.3686 650.741 48.5529 657.245 51.9177 661.586C60.5943 672.781 80.3568 677.782 83.7176 674.309Z" fill="#129447"/>
<path fill-rule="evenodd" clip-rule="evenodd" d="M83.7166 674.31C83.7166 674.31 80.4278 684.115 80.6146 694.558C80.7183 700.366 86.2745 706.022 85.6784 710.211C84.9648 715.231 81.9554 720.173 76.7406 719.036C71.5258 717.9 67.8888 710.588 66.6327 705.41C63.6053 692.939 79.0236 676.377 83.7166 674.31Z" fill="#00AA63"/>
<path fill-rule="evenodd" clip-rule="evenodd" d="M83.7173 674.311C83.7173 674.311 84.9202 685.927 88.9687 695.659C92.249 703.547 96.9712 708.079 97.9488 710.679C99.747 715.461 97.3506 720.08 92.0121 720.278C86.6723 720.479 80.327 713.585 78.4993 709.627C72.8684 697.431 79.3849 678.684 83.7173 674.311Z" fill="#129447"/>
<path d="M109.107 644.719C108.823 638.632 105.926 633.111 103.839 629.683" stroke="#EF6A00" stroke-width="5" stroke-miterlimit="10" stroke-linecap="round" stroke-linejoin="round"/>
<path d="M146.912 627.305C146.618 622.712 144.415 618.146 142.833 615.267" stroke="#EF6A00" stroke-width="5" stroke-miterlimit="10" stroke-linecap="round" stroke-linejoin="round"/>
<path d="M184.213 610.437C183.882 607.892 182.346 605.154 181.257 603.406" stroke="#EF6A00" stroke-width="5" stroke-miterlimit="10" stroke-linecap="round" stroke-linejoin="round"/>
<path d="M139.223 617.755C139.756 617.559 139.39 620.144 140.685 620.327C142.172 620.536 144.12 620.474 144.35 621.641C144.466 622.222 144.244 625.312 145.02 626.49C145.857 627.759 145.463 628.216 146.009 628.228C147.08 628.251 147.278 633.464 150.091 633.385C151.296 633.351 153.531 631.332 154.007 631.601C154.995 632.161 157.017 630.65 158.073 629.351C158.913 628.318 158.554 626.865 158.885 625.648C159.061 625.005 159.047 624.313 159.181 623.697C159.246 623.401 159.488 623.196 159.739 623.16C161.337 622.922 162.45 625.933 163.622 626.566C164.158 626.855 164.629 627.291 165.227 627.491C166.346 627.864 167.654 627.299 168.892 627.191C170.17 627.081 171.337 626.936 172.655 626.403C173.397 626.104 174.68 625.793 175.917 624.929C177.162 624.06 177.322 622.382 177.653 621.165C177.985 619.945 177.645 619.252 178.132 618.973C179.346 618.28 180.894 619.985 182.267 620.502C183.699 621.043 185.093 621.487 186.493 621.666C187.79 621.832 189.539 621.338 193.719 620.527C196.108 620.063 198.818 619.414 200.437 618.926C201.857 618.497 203.382 617.363 204.185 616.205C205.065 614.935 205.966 613.735 206.483 612.361C206.956 611.101 208.198 609.874 208.369 608.642C208.54 607.403 209.363 606.405 209.738 605.162C210.126 603.875 209.896 602.212 209.952 600.882C209.844 599.646 209.836 598.678 209.657 598.08C209.536 597.77 209.352 597.446 209.162 597.113" stroke="#C65104" stroke-width="2" stroke-linecap="round"/>
<path d="M209.497 596.243C210.235 602.554 208.603 611.446 203.862 617.191C197.136 621.015 186.094 622.029 182.158 620.353C175.388 617.472 183.238 614.232 175.899 604.331C181.332 601.855 199.998 598.585 209.497 596.243Z" fill="#934511"/>
<path d="M184.387 604.683C186.73 610.828 177.778 621.507 174.783 625.616C170.305 628.163 163.189 627.002 161.026 624.292C155.026 616.775 153.661 613.605 156.467 610.204C161.367 609.718 186.075 598.547 184.387 604.683Z" fill="#934511"/>
<path d="M164.607 610.753C166.95 616.897 157.998 627.576 155.003 631.686C150.525 634.232 143.409 633.071 141.246 630.361C135.246 622.844 133.881 619.674 136.687 616.274C141.587 615.788 166.295 604.617 164.607 610.753Z" fill="#934511"/>
<path d="M137.306 654.016C137.175 653.756 136.939 653.554 136.657 653.451C136.375 653.347 136.072 653.35 135.805 653.463C135.537 653.576 135.324 653.792 135.202 654.066C135.081 654.341 135.061 654.651 135.157 654.926C135.365 655.517 135.569 656.089 135.786 656.676C139.255 667.233 146.687 677.154 155.821 683.913C156.328 684.31 156.811 684.683 157.325 685.072C158.618 683.129 159.909 681.186 161.202 679.243C160.676 678.94 160.18 678.651 159.662 678.342C150.362 673.056 142.951 665.532 138.134 655.639C137.852 655.096 137.581 654.567 137.306 654.016Z" fill="#0074AB"/>
<path d="M117.901 667.91C117.744 667.659 117.484 667.476 117.189 667.394C116.892 667.313 116.585 667.34 116.324 667.476C116.061 667.612 115.862 667.847 115.758 668.136C115.654 668.425 115.655 668.743 115.77 669.015C115.981 669.51 116.181 669.976 116.399 670.468C120.005 679.202 125.915 687.471 132.472 694.319C132.836 694.713 133.185 695.09 133.551 695.483C134.203 696.185 135.089 696.574 136.044 696.535C136.997 696.496 137.941 696.032 138.638 695.275C139.336 694.519 139.722 693.54 139.682 692.587C139.644 691.632 139.184 690.781 138.431 690.189C138.018 689.863 137.625 689.553 137.216 689.227C129.872 683.557 123.624 677.209 118.728 669.225C118.445 668.78 118.179 668.359 117.901 667.91Z" fill="#007BA4"/>
<path d="M84.9225 559.225C89.471 556.509 92.3099 556.683 94.6008 557.888C97.3882 559.353 100.199 562.744 103.566 568.349C109.983 579.033 117.718 596.736 130.842 613.435L131.032 613.676L131.262 613.882C143.09 624.447 153.582 633.914 160.342 643.775C166.827 653.237 169.666 662.759 166.886 673.751C157.915 683.659 149.573 689.058 141.997 691.335C134.339 693.637 127.179 692.838 120.469 689.858C106.78 683.779 94.9313 668.595 86.0249 651.975L85.9559 651.847L85.8772 651.726C76.2745 636.891 72.2018 616.586 72.6361 598.262C72.8516 589.133 74.1848 580.647 76.4148 573.733C78.6356 566.848 81.6245 561.898 84.9225 559.225Z" fill="#87CFE5" stroke="#0076B8" stroke-width="7"/>
<path d="M135.93 653.687C135.8 653.427 135.563 653.225 135.281 653.121C134.999 653.018 134.696 653.021 134.429 653.134C134.162 653.247 133.948 653.463 133.826 653.737C133.705 654.012 133.686 654.322 133.782 654.597C133.989 655.188 134.194 655.76 134.411 656.347C137.879 666.904 145.312 676.825 154.445 683.584C154.953 683.981 155.436 684.354 155.95 684.743C157.242 682.8 158.534 680.857 159.827 678.914C159.301 678.611 158.805 678.322 158.287 678.013C148.987 672.727 141.576 665.203 136.758 655.31C136.477 654.767 136.206 654.238 135.93 653.687Z" fill="#0074AB"/>
<path d="M116.525 667.581C116.369 667.33 116.108 667.147 115.813 667.065C115.517 666.984 115.21 667.011 114.948 667.147C114.686 667.283 114.486 667.518 114.383 667.807C114.279 668.096 114.279 668.414 114.394 668.686C114.605 669.181 114.806 669.647 115.024 670.139C118.63 678.873 124.54 687.142 131.096 693.99C131.461 694.384 131.809 694.761 132.176 695.153C132.827 695.855 133.714 696.245 134.668 696.205C135.622 696.167 136.566 695.703 137.263 694.946C137.96 694.19 138.346 693.211 138.307 692.258C138.269 691.303 137.808 690.452 137.055 689.86C136.643 689.534 136.25 689.224 135.841 688.898C128.496 683.228 122.249 676.88 117.352 668.896C117.07 668.451 116.803 668.03 116.525 667.581Z" fill="#007BA4"/>
</g>
</g>
<defs>
<clipPath id="clip0_176_1187">
<rect width="476" height="786" fill="white"/>
</clipPath>
<clipPath id="clip1_176_1187">
<rect width="476" height="786" fill="white"/>
</clipPath>
<clipPath id="clip2_176_1187">
<rect width="151" height="90.1148" fill="white" transform="translate(94 695.885)"/>
</clipPath>
<clipPath id="clip3_176_1187">
<rect width="151" height="90.1148" fill="white" transform="matrix(-1 0 0 1 396.001 695.885)"/>
</clipPath>
<clipPath id="clip4_176_1187">
<rect width="196" height="148.189" fill="white" transform="translate(146 401.511)"/>
</clipPath>
<clipPath id="clip5_176_1187">
<rect width="76" height="149.19" fill="white" transform="matrix(-1 0 0 1 467 494.63)"/>
</clipPath>
</defs>
</svg>
