<svg width="476" height="786" viewBox="0 0 476 786" fill="none" xmlns="http://www.w3.org/2000/svg">
<g clip-path="url(#clip0_176_398)">
<path d="M132.06 1.54358C142.35 -1.54687 152.338 0.0334364 161.847 6.01334C171.519 12.0965 180.826 22.8452 188.945 38.1755C205.166 68.8016 215.884 116.289 215.908 175.597C214.15 200.161 213.395 224.922 212.644 247.833C211.889 270.896 211.139 291.998 209.403 309.449C207.64 327.162 204.935 340.064 200.837 347.367C198.861 350.889 196.932 352.434 195.258 353.025C193.648 353.595 191.152 353.674 187.153 351.839L184.261 350.513L181.55 352.178C177.875 354.435 176.243 354.261 175.751 354.12C175.277 353.984 174.075 353.368 172.524 350.243C171.001 347.176 169.635 342.672 168.317 336.609C167.012 330.612 165.833 323.491 164.542 315.353C159.412 283.01 152.767 236.026 129.608 191.518L129.447 191.207L129.25 190.918L126.964 187.527C79.5807 116.773 70.8169 73.7053 77.8418 47.28C84.8419 20.9483 108.298 8.67944 132.06 1.54358Z" fill="#8BCDE5" stroke="#0E6B96" stroke-width="12"/>
<path d="M302.397 55.946C325.836 30.5676 350.505 22.9349 367.778 29.0122C386.45 35.582 404.986 53.0983 406.136 81.3019C407.301 109.861 390.748 151.161 334.565 204.925L334.453 205.032L334.348 205.143C299.636 241.946 285.299 283.788 275.62 312.822C273.185 320.13 271.091 326.488 269.037 331.854C266.963 337.272 265.092 341.233 263.239 343.881C261.391 346.522 260.102 347.092 259.38 347.216C258.603 347.348 256.793 347.255 253.301 344.879L250.997 343.311L248.32 344.073C243.978 345.307 241.284 344.983 239.583 344.23C237.93 343.498 236.294 341.952 234.878 338.797C231.868 332.091 230.892 320.467 231.784 304.304C233.549 272.314 242.186 227.558 249.317 181.078C258.274 122.692 279.196 81.0698 302.397 55.946Z" fill="#87CFE5" stroke="#0E6B96" stroke-width="12"/>
<path d="M236.571 335.001C338.645 335.001 421.345 417.407 421.345 519.001C421.345 620.595 338.645 703.002 236.571 703.002C134.497 703.002 51.7969 620.595 51.7969 519.001C51.7969 417.407 134.497 335.001 236.571 335.001Z" fill="#86D0E3" stroke="#0C74AB" stroke-width="7"/>
<path d="M363.075 647.001C328.71 686.002 264.96 701.502 240.058 699.002C133.476 705.002 53.2913 610.896 55.7815 517.501C57.3413 459.001 42.8324 597.001 181.289 656.002C255.497 693.502 363.075 647.001 363.075 647.001Z" fill="#37B4CA"/>
<path opacity="0.77" d="M172.334 392.899L181.866 381.864L194.854 371.504L202.019 367.859L208.586 366.187L211.892 369.858L214.675 374.003L216.363 380.096L207.781 382.167L194.994 388.532L186.262 393.6L177.404 401.164L173.651 396.47L172.334 392.899Z" fill="#004F80"/>
<path opacity="0.7" d="M261.124 364.373L268.743 362.038L276.325 361.283L284.823 361.816L295.665 363.199L305.226 365.498L305.995 373.106L295.739 373.635L284.054 374.602L275.044 375.796L268.377 377.839L260.758 380.174L258.707 373.482L258.67 368.263L261.124 364.373Z" fill="#014C83"/>
<g clip-path="url(#clip1_176_398)">
<path d="M190.61 700.999C209.027 700.999 218.973 706.775 224.529 714.29C230.285 722.075 232.029 732.635 232.029 743.499C232.029 754.728 231.154 763.379 223.893 769.751C216.303 776.414 200.711 781.499 168.155 781.499C145.805 781.499 129.737 780.43 118.201 778.532C106.591 776.621 100.029 773.938 96.2804 771.063C92.7957 768.391 91.4492 765.331 90.9198 761.491C90.6405 759.465 90.5963 757.237 90.6381 754.692C90.6774 752.3 90.8067 749.303 90.8067 746.499C90.8067 743.009 93.5108 738.247 100.053 732.68C106.37 727.306 115.365 721.957 125.756 717.205C146.589 707.676 172.015 700.999 190.61 700.999Z" fill="#87CFE5" stroke="#0178B2" stroke-width="9"/>
<path d="M227.153 730.95C238.131 773.95 204.743 778.998 166.158 778.998C127.574 778.998 105.777 775.998 100.288 768.998C87.313 762.998 140.822 767.95 168.767 764.95C253.601 764.95 207.577 687.998 227.153 730.95Z" fill="#31A7BA"/>
</g>
<g clip-path="url(#clip2_176_398)">
<path d="M285.431 700.999C267.014 700.999 257.068 706.775 251.512 714.29C245.756 722.075 244.012 732.635 244.012 743.499C244.012 754.728 244.887 763.379 252.148 769.751C259.738 776.414 275.33 781.499 307.886 781.499C330.236 781.499 346.304 780.43 357.84 778.532C369.45 776.621 376.012 773.938 379.761 771.063C383.245 768.391 384.592 765.331 385.121 761.491C385.401 759.465 385.445 757.237 385.403 754.692C385.364 752.3 385.234 749.303 385.234 746.499C385.234 743.009 382.53 738.247 375.988 732.68C369.671 727.306 360.676 721.957 350.285 717.205C329.452 707.676 304.026 700.999 285.431 700.999Z" fill="#87CFE5" stroke="#0178B2" stroke-width="9"/>
<path d="M248.888 730.95C237.91 773.95 271.298 778.998 309.883 778.998C348.467 778.998 370.264 775.998 375.753 768.998C388.728 762.998 335.219 767.95 307.274 764.95C222.44 764.95 268.464 687.998 248.888 730.95Z" fill="#31A7BA"/>
</g>
<g clip-path="url(#clip3_176_398)">
<path d="M143.934 534.979C143.4 534.391 142.654 534.039 141.861 534.002C141.067 533.965 140.292 534.245 139.705 534.78C139.117 535.316 138.767 536.063 138.729 536.858C138.692 537.653 138.972 538.43 139.506 539.018C142.125 541.901 144.912 544.63 147.838 547.196C202.373 592.971 287.284 586.305 340.29 541.892C343.27 539.41 346.109 536.859 348.9 534.155C349.471 533.601 349.798 532.844 349.812 532.048C349.825 531.253 349.521 530.484 348.97 529.913C348.418 529.341 347.661 529.012 346.868 528.999C346.073 528.986 345.307 529.289 344.736 529.842C342.055 532.441 339.326 534.892 336.463 537.277C285.68 580.059 203.217 586.126 151.782 542.681C149.021 540.26 146.396 537.689 143.934 534.979Z" fill="#076FA2"/>
<path d="M209.256 576.961L209.324 576.977L209.393 576.986L220.87 578.486L220.93 578.494L220.989 578.497L230.97 578.997L231.008 578.999H239.029V598.915L238.61 602.478L234.712 605.734L231.127 607.53L225.983 607.999H221.265L216.188 606.611L211.055 603.337L205.879 597.68L202.519 589.504L200.105 581.281V574.877L209.256 576.961Z" fill="#FEFEFE" stroke="#0578A5" stroke-width="3"/>
<path d="M267.853 576.721L267.785 576.737L267.714 576.747L257.33 578.102L257.271 578.11L257.212 578.113L248.181 578.565L248.144 578.567H241.025V596.42L241.398 599.578L244.867 602.472L248.073 604.078L252.693 604.499H256.935L261.492 603.253L266.102 600.317L270.754 595.235L273.78 587.876L275.957 580.465V574.876L267.853 576.721Z" fill="#FEFEFE" stroke="#0875A4" stroke-width="3"/>
</g>
<g clip-path="url(#clip4_176_398)">
<path d="M410.596 500.125C405.328 500.579 403.13 502.379 401.976 504.694C400.572 507.512 400.272 511.906 400.812 518.422C401.843 530.843 405.897 549.729 405.001 570.949L404.988 571.256L404.921 571.557C401.499 587.042 398.518 600.854 398.792 612.808C399.054 624.276 402.305 633.663 410.966 640.958C424.009 643.758 433.914 643.266 441.378 640.688C448.924 638.081 454.258 633.249 457.957 626.911C465.502 613.98 466.248 594.734 463.774 576.041L463.755 575.898L463.748 575.754C462.878 558.104 454.34 539.245 443.306 524.627C437.809 517.344 431.782 511.237 425.946 506.929C420.132 502.639 414.825 500.367 410.596 500.125Z" fill="#87CFE5" stroke="#0076B8" stroke-width="7"/>
<path d="M424.345 606.589C424.299 606.302 424.373 606 424.54 605.751C424.708 605.503 424.955 605.328 425.238 605.264C425.521 605.199 425.82 605.249 426.078 605.402C426.336 605.554 426.533 605.794 426.616 606.073C426.792 606.674 426.959 607.257 427.126 607.86C430.47 618.455 430.233 630.849 426.774 641.67C426.595 642.288 426.421 642.874 426.232 643.49C424.052 642.668 421.873 641.846 419.694 641.025C419.943 640.472 420.176 639.947 420.415 639.394C424.867 629.67 426.485 619.234 424.62 608.391C424.532 607.785 424.443 607.197 424.345 606.589Z" fill="#0074AB"/>
<path d="M448.164 606.527C448.144 606.232 448.248 605.931 448.44 605.692C448.632 605.454 448.897 605.296 449.188 605.253C449.48 605.21 449.778 605.285 450.031 605.459C450.283 605.633 450.469 605.891 450.534 606.179C450.651 606.703 450.761 607.199 450.872 607.725C453.041 616.921 453.074 627.085 451.756 636.472C451.69 637.006 451.628 637.515 451.56 638.048C451.441 638.998 450.95 639.832 450.154 640.358C449.359 640.884 448.324 641.059 447.318 640.852C446.312 640.645 445.429 640.076 444.905 639.281C444.379 638.483 444.256 637.523 444.52 636.603C444.664 636.098 444.802 635.616 444.943 635.113C447.588 626.219 448.948 617.418 448.26 608.077C448.23 607.552 448.201 607.054 448.164 606.527Z" fill="#007BA4"/>
</g>
<g clip-path="url(#clip5_176_398)">
<path fill-rule="evenodd" clip-rule="evenodd" d="M213.72 627.153C213.115 616.674 123.431 600.838 85.5126 603.033C65.9166 604.166 50.8183 619.173 51.8186 636.522C52.819 653.872 69.54 667.036 89.137 665.902C127.055 663.707 214.323 637.631 213.72 627.153Z" fill="#FF9425"/>
<path fill-rule="evenodd" clip-rule="evenodd" d="M213.706 627.552C213.723 627.353 213.724 627.13 213.724 627.13C213.724 627.13 51.9635 632.41 51.8195 636.521C51.2094 653.89 69.5468 667.139 89.1379 665.902C162.919 661.24 213.075 634.522 213.706 627.552Z" fill="#FF8600"/>
<path d="M81.6159 663.763C82.615 657.02 83.2078 650.263 81.6783 643.626" stroke="#EF6A00" stroke-width="5" stroke-miterlimit="10" stroke-linecap="round" stroke-linejoin="round"/>
<path d="M115.18 661.102C117.758 656.643 117.02 651.957 115.842 647.119" stroke="#EF6A00" stroke-width="5" stroke-miterlimit="10" stroke-linecap="round" stroke-linejoin="round"/>
<path d="M156.376 652.891C156.428 646.55 155.77 641.346 154.697 636.803" stroke="#EF6A00" stroke-width="5" stroke-miterlimit="10" stroke-linecap="round" stroke-linejoin="round"/>
<path fill-rule="evenodd" clip-rule="evenodd" d="M58.2917 636.682C58.2917 636.682 34.3238 627.029 25.2536 625.63C16.2231 624.237 7.11603 634.576 7.67853 639.124C8.45194 645.363 15.965 651.026 25.3477 649.08C34.1859 647.247 58.2917 636.682 58.2917 636.682Z" fill="#129447"/>
<path fill-rule="evenodd" clip-rule="evenodd" d="M58.2148 636.821C58.2148 636.821 49.0363 630.622 42.8843 621.643C39.4616 616.648 40.527 608.963 37.5185 605.708C33.9129 601.808 28.5031 599.16 24.9847 602.826C21.4672 606.49 22.5201 612.569 25.0601 619.646C29.5067 632.03 52.7304 636.045 58.2148 636.821Z" fill="#00AA63"/>
<path fill-rule="evenodd" clip-rule="evenodd" d="M58.8108 635.743C58.8108 635.743 55.0948 627.714 52.6555 617.31C50.9271 609.935 51.94 600.496 52.0646 599.87C53.7586 591.305 45.7835 588.358 40.3724 593.598C35.6598 598.162 34.7666 604.964 35.8797 610.342C38.7498 624.211 54.2747 637.386 58.8108 635.743Z" fill="#129447"/>
<path fill-rule="evenodd" clip-rule="evenodd" d="M58.8106 635.744C58.8106 635.744 51.5614 643.107 47.1499 652.569C44.6958 657.833 47.1972 665.355 44.8261 668.856C41.9851 673.052 37.1199 676.169 32.9429 672.857C28.7659 669.545 28.7114 661.378 29.8558 656.175C32.61 643.642 53.6957 635.538 58.8106 635.744Z" fill="#00AA63"/>
<path fill-rule="evenodd" clip-rule="evenodd" d="M58.8095 635.744C58.8095 635.744 54.7943 646.708 54.1567 657.229C53.6401 665.755 55.8855 671.902 55.6218 674.667C55.1369 679.753 50.9644 682.849 46.0899 680.682C41.2145 678.516 38.5495 669.535 38.6457 665.176C38.9449 651.747 53.0087 637.77 58.8095 635.744Z" fill="#129447"/>
<path d="M94.5488 620.317C96.9634 614.724 96.7871 608.492 96.4188 604.496" stroke="#EF6A00" stroke-width="5" stroke-miterlimit="10" stroke-linecap="round" stroke-linejoin="round"/>
<path d="M136.08 621.282C137.83 617.028 137.856 611.958 137.701 608.677" stroke="#EF6A00" stroke-width="5" stroke-miterlimit="10" stroke-linecap="round" stroke-linejoin="round"/>
<path d="M176.918 622.518C177.737 620.087 177.561 616.952 177.351 614.904" stroke="#EF6A00" stroke-width="5" stroke-miterlimit="10" stroke-linecap="round" stroke-linejoin="round"/>
<path d="M109.497 523.93C114.766 523.489 117.235 524.892 118.76 526.981C120.617 529.522 121.65 533.803 122.211 540.317C123.279 552.735 122.451 572.036 126.896 592.803L126.96 593.103L127.076 593.389C133.047 608.076 138.303 621.191 140.04 633.019C141.705 644.368 140.075 654.169 132.763 662.822C120.375 667.781 110.528 668.966 102.738 667.683C94.863 666.386 88.7935 662.523 84.0843 656.897C74.4772 645.423 70.5122 626.577 69.8151 607.733L69.8092 607.588L69.7915 607.445C67.6876 589.899 72.9397 569.869 81.364 553.599C85.5603 545.493 90.4766 538.456 95.5075 533.225C100.517 528.016 105.368 524.882 109.497 523.93Z" fill="#87CFE5" stroke="#0076B8" stroke-width="7"/>
<path d="M115.801 627.401C115.859 627.116 115.798 626.811 115.641 626.555C115.483 626.3 115.243 626.115 114.963 626.039C114.682 625.962 114.381 626 114.116 626.141C113.851 626.282 113.644 626.514 113.55 626.789C113.348 627.382 113.155 627.958 112.963 628.553C109.167 638.997 108.88 651.39 111.884 662.348C112.038 662.973 112.187 663.566 112.351 664.189C114.567 663.46 116.784 662.731 119 662.002C118.774 661.439 118.562 660.905 118.347 660.342C114.302 650.439 113.123 639.944 115.45 629.189C115.563 628.588 115.677 628.004 115.801 627.401Z" fill="#0074AB"/>
<path d="M92.5272 628.336C92.5596 628.042 92.4684 627.737 92.2865 627.49C92.1039 627.244 91.8457 627.075 91.5556 627.02C91.2655 626.965 90.9635 627.027 90.7032 627.19C90.4436 627.353 90.2469 627.603 90.1693 627.888C90.0301 628.407 89.8991 628.898 89.7658 629.419C87.2047 638.515 86.7417 648.668 87.6647 658.103C87.7076 658.639 87.7485 659.15 87.7942 659.685C87.8728 660.64 88.3287 661.494 89.104 662.053C89.8768 662.612 90.9056 662.83 91.9217 662.666C92.9378 662.502 93.8457 661.971 94.4035 661.198C94.9637 660.423 95.1279 659.469 94.9023 658.539C94.7794 658.028 94.6615 657.541 94.5417 657.032C92.2702 648.035 91.2815 639.184 92.3651 629.881C92.4177 629.357 92.4683 628.861 92.5272 628.336Z" fill="#007BA4"/>
</g>
<g clip-path="url(#clip6_176_398)">
<path d="M190.5 433.038C215.48 433.038 236.5 457.267 236.5 487.107C236.5 503.943 233.056 517.431 225.771 526.658C218.589 535.757 207.302 541.176 190.5 541.176C165.614 541.176 146 517.541 146 487.107C146 456.673 165.614 433.038 190.5 433.038Z" fill="#FEFEFE" stroke="#0F79AB" stroke-width="6"/>
<path d="M285.176 406.004C298.85 406.004 311.49 413.616 320.821 426.275C330.149 438.929 336 456.44 336 475.593C336 497.167 332.187 514.606 324.027 526.575C316.002 538.347 303.53 545.181 285.176 545.181C271.506 545.181 259.294 537.727 250.386 525.182C241.468 512.624 236 495.106 236 475.593C236 456.079 241.468 438.561 250.386 426.003C259.294 413.458 271.506 406.004 285.176 406.004Z" fill="#FEFEFE" stroke="#0F79AB" stroke-width="6"/>
<path d="M238 551.189C249.046 551.189 258 541.55 258 529.661C258 517.772 249.046 508.134 238 508.134C226.954 508.134 218 517.772 218 529.661C218 541.55 226.954 551.189 238 551.189Z" fill="#ED6F7A"/>
<path d="M270.5 491.112C270.5 502.172 264.508 511.138 256.5 511.138C248.492 511.138 242 502.172 242 491.112C242 480.053 248.492 471.087 256.5 471.087C265.5 473.59 270.5 479.598 270.5 491.112Z" fill="#2B2A28"/>
<path d="M218.5 511.138C226.508 511.138 233 502.172 233 491.112C233 480.053 226.508 471.087 218.5 471.087C210.492 471.087 204 480.053 204 491.112C204 502.172 210.492 511.138 218.5 511.138Z" fill="#2B2A28"/>
<path d="M268 480.599C269 484.103 265.761 487.107 263 487.107C260.239 487.107 258 484.642 258 481.6C258 478.559 260.239 476.093 263 476.093C265.761 476.093 268 477.558 268 480.599Z" fill="#F9FAFB"/>
<path d="M230 480.599C231 484.103 227.761 487.107 225 487.107C222.239 487.107 220 484.642 220 481.6C220 478.559 222.239 476.093 225 476.093C227.761 476.093 230 477.558 230 480.599Z" fill="#F9FAFB"/>
</g>
</g>
<defs>
<clipPath id="clip0_176_398">
<rect width="476" height="786" fill="white"/>
</clipPath>
<clipPath id="clip1_176_398">
<rect width="150.704" height="90" fill="white" transform="translate(85.8159 695.999)"/>
</clipPath>
<clipPath id="clip2_176_398">
<rect width="150.704" height="90" fill="white" transform="matrix(-1 0 0 1 390.225 695.999)"/>
</clipPath>
<clipPath id="clip3_176_398">
<rect width="211.585" height="81" fill="white" transform="translate(138.726 528.999)"/>
</clipPath>
<clipPath id="clip4_176_398">
<rect width="75.8512" height="149" fill="white" transform="matrix(-0.999108 -0.0422295 -0.0422295 0.999108 472.653 499.242)"/>
</clipPath>
<clipPath id="clip5_176_398">
<rect width="155.997" height="208.594" fill="white" transform="matrix(-0.0952496 -0.995453 -0.995418 0.0956203 218.498 666.288)"/>
</clipPath>
<clipPath id="clip6_176_398">
<rect width="196" height="148.189" fill="white" transform="translate(143 403)"/>
</clipPath>
</defs>
</svg>
