<svg width="476" height="786" viewBox="0 0 476 786" fill="none" xmlns="http://www.w3.org/2000/svg">
<g clip-path="url(#clip0_176_1579)">
<path d="M86.9297 16.7143C96.5345 11.8058 106.682 11.5524 117.15 15.7188C127.798 19.9572 138.925 28.8568 149.706 42.484C171.246 69.7073 190.39 114.534 201.105 172.941C203.797 197.451 207.515 221.975 210.903 244.675C214.315 267.526 217.378 288.445 218.81 305.946C220.262 323.711 219.917 336.908 217.187 344.843C215.87 348.67 214.243 350.541 212.698 351.426C211.21 352.28 208.76 352.81 204.48 351.727L201.386 350.945L199.008 353.076C195.786 355.965 194.143 356.089 193.632 356.04C193.139 355.992 191.842 355.603 189.746 352.806C187.689 350.061 185.529 345.873 183.134 340.141C180.765 334.471 178.317 327.671 175.575 319.89C164.678 288.966 149.647 243.897 118.755 204.259L118.539 203.982L118.293 203.733L115.425 200.807C55.8798 139.71 39.4621 98.8817 41.6354 71.5833C43.8011 44.3815 64.7521 28.0479 86.9297 16.7143Z" fill="#8BCDE5" stroke="#0E6B96" stroke-width="12"/>
<path d="M307.345 63.0001C329.956 36.7664 354.435 28.2455 371.981 33.7082C390.948 39.6138 410.17 56.4775 412.328 84.658C414.514 113.194 399.378 155.113 344.924 210.922L344.816 211.034L344.714 211.149C311.199 249.217 298.305 291.6 289.629 320.998C287.446 328.398 285.571 334.835 283.702 340.279C281.814 345.774 280.078 349.805 278.313 352.52C276.553 355.23 275.28 355.846 274.561 355.996C273.785 356.157 271.966 356.128 268.378 353.876L266.01 352.389L263.352 353.247C259.04 354.637 256.325 354.41 254.592 353.718C252.907 353.044 251.211 351.556 249.678 348.449C246.419 341.847 245.025 330.25 245.345 314.045C245.977 281.971 253.048 236.878 258.547 190.113C265.454 131.368 284.962 88.9707 307.345 63.0001Z" fill="#87CFE5" stroke="#0E6B96" stroke-width="12"/>
<path d="M237.5 334.426C339.975 334.426 423 416.937 423 518.661C423 620.384 339.975 702.895 237.5 702.895C135.025 702.895 52.0005 620.384 52.0005 518.661C52.0005 416.937 135.025 334.426 237.5 334.426Z" fill="#86D0E3" stroke="#0C74AB" stroke-width="7"/>
<path d="M364.501 646.824C330.001 685.874 266.001 701.394 241.001 698.89C134.001 704.898 53.5005 610.673 56.0005 517.159C57.5664 458.584 43.0005 596.76 182.001 655.836C256.501 693.383 364.501 646.824 364.501 646.824Z" fill="#37B4CA"/>
<path opacity="0.77" d="M173.5 393.501L182.5 381.987L195 370.972L202 366.967L208.5 364.965L212 368.469L215 372.474L217 378.482L208.5 380.985L196 387.994L187.5 393.501L179 401.511L175 397.006L173.5 393.501Z" fill="#004F80"/>
<path opacity="0.7" d="M264.5 357.956H272.5L280 359.458L288 362.462L298 366.968L306.5 371.974L305 379.483L295 376.98L283.5 374.477L274.5 372.975H267.5H259.5V365.966L261 360.96L264.5 357.956Z" fill="#014C83"/>
<g clip-path="url(#clip1_176_1579)">
<path d="M199 700.891C217.453 700.891 227.418 706.675 232.985 714.199C238.752 721.994 240.5 732.567 240.5 743.445C240.5 754.689 239.623 763.351 232.348 769.732C224.743 776.403 209.12 781.494 176.5 781.494C154.106 781.494 138.008 780.424 126.449 778.523C114.815 776.61 108.241 773.923 104.485 771.045C100.993 768.369 99.6442 765.306 99.1137 761.46C98.8339 759.432 98.7896 757.202 98.8315 754.653C98.8709 752.258 99.0004 749.257 99.0004 746.449C99.0004 742.955 101.71 738.187 108.265 732.613C114.594 727.232 123.607 721.877 134.018 717.118C154.892 707.577 180.368 700.891 199 700.891Z" fill="#87CFE5" stroke="#0178B2" stroke-width="9"/>
<path d="M235.614 730.881C246.614 773.936 213.16 778.991 174.5 778.991C135.84 778.991 114 775.987 108.5 768.978C95.5 762.97 149.114 767.928 177.114 764.925C262.114 764.925 216 687.875 235.614 730.881Z" fill="#31A7BA"/>
</g>
<g clip-path="url(#clip2_176_1579)">
<path d="M291.001 700.891C272.548 700.891 262.583 706.675 257.016 714.199C251.249 721.994 249.501 732.567 249.501 743.445C249.501 754.689 250.378 763.351 257.653 769.732C265.258 776.403 280.881 781.494 313.501 781.494C335.895 781.494 351.993 780.424 363.552 778.523C375.186 776.61 381.76 773.923 385.516 771.045C389.008 768.369 390.357 765.306 390.887 761.46C391.167 759.432 391.211 757.202 391.169 754.653C391.13 752.258 391.001 749.257 391.001 746.449C391.001 742.955 388.291 738.187 381.736 732.613C375.407 727.232 366.394 721.877 355.983 717.118C335.109 707.577 309.633 700.891 291.001 700.891Z" fill="#87CFE5" stroke="#0178B2" stroke-width="9"/>
<path d="M254.387 730.881C243.387 773.936 276.841 778.991 315.501 778.991C354.161 778.991 376.001 775.987 381.501 768.978C394.501 762.97 340.887 767.928 312.887 764.925C227.887 764.925 274.001 687.875 254.387 730.881Z" fill="#31A7BA"/>
</g>
<g clip-path="url(#clip3_176_1579)">
<path d="M407.914 498.138C402.66 498.815 400.535 500.708 399.478 503.074C398.193 505.952 398.078 510.361 398.894 516.856C400.452 529.238 405.31 547.96 405.31 569.225V569.533L405.256 569.837C402.485 585.473 400.086 599.417 400.865 611.363C401.613 622.825 405.265 632.077 414.243 639.009C427.419 641.259 437.314 640.348 444.677 637.453C452.12 634.527 457.256 629.467 460.69 622.97C467.696 609.715 467.629 590.43 464.361 571.835L464.336 571.692L464.323 571.549C462.706 553.929 453.36 535.424 441.696 521.267C435.885 514.214 429.594 508.358 423.568 504.296C417.567 500.25 412.158 498.202 407.914 498.138Z" fill="#87CFE5" stroke="#0076B8" stroke-width="7"/>
<path d="M426.182 604.062C426.124 603.776 426.186 603.471 426.342 603.215C426.5 602.959 426.74 602.774 427.021 602.698C427.301 602.621 427.602 602.659 427.867 602.8C428.132 602.941 428.34 603.173 428.434 603.449C428.635 604.043 428.828 604.619 429.02 605.215C432.816 615.672 433.104 628.081 430.099 639.053C429.946 639.679 429.797 640.273 429.633 640.897C427.416 640.167 425.2 639.437 422.983 638.707C423.209 638.143 423.421 637.608 423.637 637.045C427.682 627.129 428.86 616.621 426.534 605.852C426.42 605.25 426.306 604.665 426.182 604.062Z" fill="#0074AB"/>
<path d="M450.025 602.993C449.992 602.698 450.083 602.393 450.265 602.146C450.448 601.899 450.706 601.73 450.996 601.675C451.286 601.62 451.588 601.682 451.849 601.845C452.108 602.008 452.305 602.259 452.383 602.544C452.522 603.064 452.653 603.555 452.786 604.077C455.347 613.185 455.81 623.351 454.887 632.798C454.844 633.334 454.803 633.846 454.758 634.382C454.679 635.338 454.223 636.193 453.448 636.753C452.675 637.312 451.646 637.531 450.63 637.366C449.614 637.202 448.706 636.67 448.148 635.897C447.588 635.121 447.424 634.165 447.65 633.234C447.772 632.722 447.89 632.235 448.01 631.725C450.282 622.717 451.27 613.854 450.187 604.54C450.134 604.015 450.084 603.518 450.025 602.993Z" fill="#007BA4"/>
</g>
<path d="M344.279 603C297.279 611.5 285.779 575.5 302.279 552" stroke="#076FA2" stroke-width="6" stroke-linecap="round"/>
<path d="M193.319 565.107C193.081 564.703 192.749 564.461 192.396 564.436C192.043 564.41 191.697 564.602 191.436 564.97C191.174 565.338 191.018 565.851 191.001 566.397C190.985 566.943 191.109 567.476 191.347 567.88C192.513 569.86 193.755 571.734 195.058 573.496C219.343 604.928 257.155 600.351 280.759 569.853C282.086 568.149 283.351 566.397 284.594 564.541C284.848 564.161 284.994 563.64 285 563.094C285.006 562.548 284.87 562.02 284.625 561.628C284.379 561.235 284.042 561.009 283.689 561C283.335 560.991 282.994 561.2 282.739 561.579C281.546 563.364 280.33 565.047 279.055 566.684C256.441 596.062 219.719 600.228 196.814 570.395C195.584 568.733 194.416 566.968 193.319 565.107Z" fill="#076FA2"/>
<path d="M217.334 591.963L217.375 591.979L217.417 591.987L224.306 593.487L224.341 593.495L224.377 593.498L230.368 593.998L230.391 594H235.205V613.916L234.954 617.48L232.614 620.735L230.462 622.531L227.375 623H224.543L221.495 621.612L218.414 618.339L215.308 612.682L213.291 604.506L211.842 596.282V589.879L217.334 591.963Z" fill="#FEFEFE" stroke="#0578A5" stroke-width="3"/>
<path d="M252.506 591.723L252.465 591.738L252.423 591.748L246.19 593.104L246.154 593.111L246.119 593.114L240.699 593.566L240.676 593.568H236.403V611.422L236.627 614.579L238.709 617.474L240.633 619.079L243.406 619.5H245.953L248.688 618.255L251.455 615.318L254.247 610.236L256.064 602.878L257.37 595.467V589.878L252.506 591.723Z" fill="#FEFEFE" stroke="#0875A4" stroke-width="3"/>
<path d="M126 601C173 609.5 184.5 573.5 168 550" stroke="#076FA2" stroke-width="6" stroke-linecap="round"/>
<path fill-rule="evenodd" clip-rule="evenodd" d="M150.836 675.94C153.609 686.023 140.441 689.265 105.763 698.443C87.8405 703.186 69.5626 693.484 64.9711 676.79C60.3794 660.096 71.2023 642.691 89.1245 637.949C123.803 628.771 151.353 656.434 150.836 675.94Z" fill="#FF9425"/>
<path fill-rule="evenodd" clip-rule="evenodd" d="M143.934 636.634C144.013 636.817 147.246 655.7 147.246 655.7C147.246 655.7 66.4016 680.633 64.9715 676.79C58.9312 660.556 71.1758 642.591 89.1254 637.948C156.728 620.459 141.164 630.235 143.934 636.634Z" fill="#FF8600"/>
<path d="M83.0595 642.203C86.0891 648.278 88.7572 654.489 89.4858 661.216" stroke="#EF6A00" stroke-width="5" stroke-miterlimit="10" stroke-linecap="round" stroke-linejoin="round"/>
<path d="M113.984 634.758C117.706 638.206 118.526 642.854 119.001 647.775" stroke="#EF6A00" stroke-width="5" stroke-miterlimit="10" stroke-linecap="round" stroke-linejoin="round"/>
<path fill-rule="evenodd" clip-rule="evenodd" d="M70.7219 674.717C70.7219 674.717 52.2938 690.953 44.607 694.966C36.9538 698.963 25.5203 691.894 24.5871 687.428C23.3068 681.303 28.249 673.72 37.2737 672.776C45.7754 671.886 70.7219 674.717 70.7219 674.717Z" fill="#129447"/>
<path fill-rule="evenodd" clip-rule="evenodd" d="M70.6093 674.609C70.6093 674.609 64.3427 683.192 61.6696 693.504C60.1818 699.241 63.5677 706.187 61.9005 710.156C59.9032 714.913 55.892 719.02 51.5793 716.6C47.2667 714.181 46.2875 708.123 46.3267 700.68C46.3941 687.656 65.9389 676.971 70.6093 674.609Z" fill="#00AA63"/>
<path fill-rule="evenodd" clip-rule="evenodd" d="M71.4836 675.452C71.4836 675.452 70.6926 684.143 71.7976 694.701C72.581 702.183 76.475 710.804 76.7841 711.358C81.0114 718.95 74.7967 724.102 68.2886 720.756C62.6213 717.84 59.6692 711.677 58.9661 706.264C57.1509 692.304 66.8981 675.245 71.4836 675.452Z" fill="#129447"/>
<path fill-rule="evenodd" clip-rule="evenodd" d="M71.4828 675.451C71.4828 675.451 62.657 670.643 55.7098 663.009C51.846 658.762 51.7085 650.91 48.4762 648.306C44.6024 645.183 39.2561 643.68 36.5599 648.05C33.8637 652.42 36.3977 660.155 39.0696 664.733C45.502 675.76 66.9639 677.162 71.4828 675.451Z" fill="#00AA63"/>
<path fill-rule="evenodd" clip-rule="evenodd" d="M71.4832 675.451C71.4832 675.451 64.4163 666.28 60.517 656.526C57.3565 648.621 57.4253 642.146 56.3145 639.611C54.2709 634.947 49.5522 633.26 45.8683 636.754C42.1846 640.248 42.6358 649.526 44.1015 653.617C48.6173 666.22 65.6426 675.259 71.4832 675.451Z" fill="#129447"/>
<path d="M108.393 679.425C112.326 683.995 114.14 689.937 115.073 693.824" stroke="#EF6A00" stroke-width="5" stroke-miterlimit="10" stroke-linecap="round" stroke-linejoin="round"/>
<path d="M145.311 666.19C148.291 669.841 149.844 674.932 150.682 678.288" stroke="#EF6A00" stroke-width="5" stroke-miterlimit="10" stroke-linecap="round" stroke-linejoin="round"/>
<path d="M152.907 672.132C153.409 668.515 144.002 669.901 150.433 669.248C146.393 670.2 144.628 668.535 146.218 670.934C151.33 676.317 145.152 680.547 149.578 681.931C152.347 679.545 151.847 679.758 152.907 672.132Z" fill="#FF9425"/>
<path d="M150.443 630.872C143.656 625.443 132.849 627.99 142.993 630.974C140.754 633.156 139.392 636.248 142.795 636.809C152.066 636.344 143.771 641.387 153.599 635.917C154.121 635.227 155.459 637.132 150.443 630.872Z" fill="#FF9221"/>
<path d="M156.525 661.688C155.222 661.168 158.946 661.945 153.639 661.128C149.523 662.098 146.737 660.211 147.247 662.374C147.757 664.537 139.56 669.821 152.696 667.139C156.974 670.265 155.848 673.838 156.525 661.688Z" fill="#C65104"/>
<path d="M156.419 667.915C155.116 667.396 158.297 662.572 154.85 661.256C150.733 662.227 146.582 666.235 147.092 668.399C147.602 670.562 150.736 668.841 152.778 672.495C145.296 687.488 155.461 680.545 156.419 667.915Z" fill="#C65104"/>
<path d="M156.819 654.59C154.511 651.673 154.935 651.803 151.094 650.978C147.254 651.883 143.616 654.203 144.382 656.885C146.697 664.991 149.092 661.399 152.453 661.905C158.218 665.737 156.058 659.96 156.819 654.59Z" fill="#C65104"/>
<path d="M153.88 635.438C151.572 632.521 152.75 632.513 148.909 631.688C145.069 632.593 141.431 634.913 142.197 637.595C144.512 645.702 146.907 642.109 150.268 642.615C156.034 646.447 156.034 646.507 153.88 635.438Z" fill="#C65104"/>
<path d="M155.596 644.542C153.288 641.625 153.712 641.755 149.871 640.93C146.031 641.835 142.393 644.155 143.159 646.837C145.474 654.943 148.056 654.531 151.417 655.036C157.182 658.869 157.996 654.726 155.596 644.542Z" fill="#C65104"/>
<path d="M149.121 681.459C148.951 681.499 148.569 681.401 148.069 681C146.903 680.066 148.018 678.314 148.105 677.156C148.193 675.997 148.281 674.843 148.581 673.634C148.724 673.059 148.586 672.307 148.28 671.575C147.776 670.371 146.143 669.947 145.278 668.777C144.877 668.235 144.521 667.675 144.51 667.063C144.492 665.972 146.142 665.401 146.617 664.151C147.03 663.062 146.457 660.979 145.575 659.519C144.767 658.182 144.159 657.34 143.989 656.814C143.577 655.539 144.864 654.239 145.667 653.244C146.065 652.751 145.919 651.813 145.571 650.902C144.928 649.22 143.052 648.04 142.355 647.015C142.012 646.511 143.197 646.01 143.529 645.507C144.194 644.498 143.739 642.95 143.203 640.476C142.826 638.731 141.449 637.432 140.864 636.285C140.358 635.294 141.558 634.087 141.946 632.858C142.123 632.294 142.077 631.688 141.994 631.141C141.123 630.302 140.228 629.944 139.707 629.643C139.481 629.459 139.334 629.212 138.67 629.078" stroke="#C65104" stroke-width="2" stroke-linecap="round"/>
<path d="M148.297 650.701C149.141 648.534 139.815 650.265 146.162 649.253C142.123 650.205 140.56 649.403 141.88 650.653C146.348 653.305 139.899 656.385 144.089 656.763C147.027 655.096 146.518 655.27 148.297 650.701Z" fill="#FF9425"/>
<path d="M153.734 664.849C153.587 664.225 153.617 663.294 153.465 661.843C153.349 660.717 153.847 659.736 153.978 658.678C154.076 657.761 154.271 656.988 154.339 656.478C154.334 656.181 154.246 655.809 154.156 655.426" stroke="#C65104" stroke-width="2" stroke-linecap="round"/>
<path d="M150.686 681.422C150.751 681.201 151.122 680.784 151.518 680.463C151.935 680.125 152.147 679.634 152.414 679.179C152.696 678.7 152.747 678.009 152.832 677.451C152.917 676.892 153.04 676.412 153.151 675.89C153.267 675.348 153.487 674.821 153.73 674.268C153.974 673.714 154.086 673.194 154.366 672.632C154.649 672.065 154.843 671.406 155.076 670.814C155.401 669.991 155.571 669.501 155.56 668.864C155.545 668.011 156.078 666.991 156.276 666.238C156.45 665.576 156.631 664.67 156.773 664.017C156.933 663.281 157.175 662.808 157.187 662.104C157.196 661.578 157.161 661.078 157.173 660.127C157.182 659.359 157.147 658.689 157.145 657.925C157.142 657.02 157.105 656.51 157.107 656.014C157.109 655.492 157.219 654.997 157.277 654.487C157.332 654.007 157.26 653.501 157.202 652.672C157.048 650.446 156.473 648.992 156.324 647.944C156.233 647.474 156.094 647.048 155.805 646.071C155.589 645.242 155.233 643.732 154.867 642.177" stroke="#FF8600" stroke-width="2" stroke-linecap="round"/>
<path d="M150.621 632.157C150.75 632.373 151.175 632.848 151.593 633.288C151.985 633.699 152.14 634.273 152.399 634.707C152.659 635.142 152.918 635.575 153.112 636.148C153.315 636.744 153.879 637.981 154.24 639.1C154.478 640.026 154.61 640.749 154.682 641.306C154.764 641.738 154.938 642.474 155.116 643.231" stroke="#FF8600" stroke-width="2" stroke-linecap="round"/>
<path d="M90.899 556.579C96.0268 555.251 98.7026 556.215 100.563 558.015C102.826 560.204 104.572 564.248 106.228 570.573C109.385 582.63 111.835 601.793 119.74 621.506L119.854 621.791L120.017 622.054C128.401 635.516 135.811 647.549 139.528 658.912C143.094 669.815 143.144 679.751 137.388 689.519C125.995 696.508 116.472 699.346 108.562 699.403C100.566 699.461 93.9182 696.683 88.3155 691.937C76.8858 682.258 69.7798 664.357 65.9011 645.904L65.8708 645.762L65.8291 645.624C60.7809 628.688 62.5764 608.057 68.1409 590.593C70.9123 581.892 74.5757 574.122 78.6581 568.113C82.7236 562.13 86.9829 558.218 90.899 556.579Z" fill="#87CFE5" stroke="#0076B8" stroke-width="7"/>
<path d="M113.316 661.567C113.264 661.28 113.093 661.02 112.852 660.841C112.611 660.663 112.319 660.581 112.031 660.614C111.742 660.648 111.477 660.795 111.283 661.024C111.089 661.253 110.984 661.546 110.998 661.836C111.032 662.462 111.067 663.068 111.111 663.692C111.474 674.799 115.82 686.408 122.687 695.461C123.062 695.984 123.421 696.478 123.805 696.995C125.591 695.494 127.377 693.992 129.163 692.491C128.744 692.052 128.349 691.636 127.939 691.193C120.498 683.507 115.499 674.205 113.655 663.357C113.537 662.757 113.426 662.172 113.316 661.567Z" fill="#0074AB"/>
<path d="M90.7893 669.45C90.7098 669.165 90.5114 668.916 90.2509 668.754C89.9894 668.593 89.6871 668.533 89.3978 668.59C89.1076 668.647 88.8501 668.817 88.6699 669.065C88.4886 669.313 88.3997 669.618 88.434 669.912C88.4974 670.446 88.5589 670.949 88.6295 671.483C89.6369 680.878 92.9862 690.474 97.3549 698.888C97.5936 699.37 97.8223 699.829 98.0637 700.309C98.4917 701.165 99.2333 701.788 100.16 702.018C101.086 702.249 102.122 702.069 103.004 701.539C103.886 701.009 104.531 700.178 104.761 699.252C104.993 698.325 104.79 697.378 104.234 696.599C103.93 696.17 103.64 695.762 103.339 695.334C97.8825 687.829 93.6702 679.983 91.2137 670.944C91.0676 670.438 90.93 669.959 90.7893 669.45Z" fill="#007BA4"/>
<g clip-path="url(#clip4_176_1579)">
<path d="M185.5 433.038C210.48 433.038 231.5 457.267 231.5 487.107C231.5 503.943 228.056 517.431 220.771 526.658C213.589 535.757 202.302 541.176 185.5 541.176C160.614 541.176 141 517.541 141 487.107C141 456.673 160.614 433.038 185.5 433.038Z" fill="#FEFEFE" stroke="#0F79AB" stroke-width="6"/>
<path d="M280.176 406.004C293.85 406.004 306.49 413.616 315.821 426.275C325.149 438.929 331 456.44 331 475.593C331 497.167 327.187 514.606 319.027 526.575C311.002 538.347 298.53 545.181 280.176 545.181C266.506 545.181 254.294 537.727 245.386 525.182C236.468 512.624 231 495.106 231 475.593C231 456.079 236.468 438.561 245.386 426.003C254.294 413.458 266.506 406.004 280.176 406.004Z" fill="#FEFEFE" stroke="#0F79AB" stroke-width="6"/>
<path d="M233 551.189C244.046 551.189 253 541.55 253 529.661C253 517.772 244.046 508.134 233 508.134C221.954 508.134 213 517.772 213 529.661C213 541.55 221.954 551.189 233 551.189Z" fill="#ED6F7A"/>
<path d="M265.5 491.112C265.5 502.172 259.508 511.138 251.5 511.138C243.492 511.138 237 502.172 237 491.112C237 480.053 243.492 471.087 251.5 471.087C260.5 473.59 265.5 479.598 265.5 491.112Z" fill="#2B2A28"/>
<path d="M213.5 511.138C221.508 511.138 228 502.172 228 491.112C228 480.053 221.508 471.087 213.5 471.087C205.492 471.087 199 480.053 199 491.112C199 502.172 205.492 511.138 213.5 511.138Z" fill="#2B2A28"/>
<path d="M263 480.599C264 484.103 260.761 487.107 258 487.107C255.239 487.107 253 484.642 253 481.6C253 478.559 255.239 476.093 258 476.093C260.761 476.093 263 477.558 263 480.599Z" fill="#F9FAFB"/>
<path d="M225 480.599C226 484.103 222.761 487.107 220 487.107C217.239 487.107 215 484.642 215 481.6C215 478.559 217.239 476.093 220 476.093C222.761 476.093 225 477.558 225 480.599Z" fill="#F9FAFB"/>
</g>
</g>
<defs>
<clipPath id="clip0_176_1579">
<rect width="476" height="786" fill="white"/>
</clipPath>
<clipPath id="clip1_176_1579">
<rect width="151" height="90.1148" fill="white" transform="translate(94 695.885)"/>
</clipPath>
<clipPath id="clip2_176_1579">
<rect width="151" height="90.1148" fill="white" transform="matrix(-1 0 0 1 396.001 695.885)"/>
</clipPath>
<clipPath id="clip3_176_1579">
<rect width="76" height="149.19" fill="white" transform="matrix(-1 0 0 1 470 494.63)"/>
</clipPath>
<clipPath id="clip4_176_1579">
<rect width="196" height="148.189" fill="white" transform="translate(138 403)"/>
</clipPath>
</defs>
</svg>
