<svg width="476" height="786" viewBox="0 0 476 786" fill="none" xmlns="http://www.w3.org/2000/svg">
<g clip-path="url(#clip0_157_1374)">
<path d="M86.9296 16.7143C96.5345 11.8058 106.682 11.5524 117.15 15.7188C127.798 19.9572 138.925 28.8568 149.706 42.484C171.246 69.7073 190.39 114.534 201.105 172.941C203.797 197.451 207.515 221.975 210.903 244.675C214.315 267.526 217.378 288.445 218.81 305.947C220.262 323.711 219.917 336.908 217.187 344.843C215.87 348.67 214.243 350.541 212.698 351.426C211.21 352.28 208.76 352.81 204.48 351.727L201.386 350.945L199.008 353.076C195.786 355.965 194.143 356.089 193.632 356.04C193.139 355.992 191.842 355.603 189.746 352.806C187.689 350.061 185.529 345.873 183.134 340.141C180.765 334.471 178.317 327.671 175.575 319.89C164.678 288.966 149.647 243.897 118.755 204.259L118.539 203.982L118.293 203.733L115.425 200.807C55.8798 139.71 39.4621 98.8817 41.6354 71.5833C43.8011 44.3815 64.7521 28.0479 86.9296 16.7143Z" fill="#8BCDE5" stroke="#0E6B96" stroke-width="12"/>
<path d="M307.345 63.0001C329.956 36.7664 354.435 28.2455 371.981 33.7082C390.948 39.6138 410.17 56.4775 412.328 84.658C414.514 113.194 399.378 155.113 344.924 210.922L344.816 211.034L344.714 211.149C311.199 249.217 298.305 291.6 289.629 320.998C287.446 328.398 285.571 334.835 283.702 340.279C281.814 345.774 280.078 349.805 278.313 352.52C276.553 355.23 275.28 355.846 274.561 355.996C273.785 356.157 271.966 356.128 268.378 353.876L266.01 352.389L263.352 353.247C259.04 354.637 256.325 354.41 254.592 353.718C252.907 353.044 251.211 351.556 249.678 348.449C246.419 341.847 245.025 330.25 245.345 314.045C245.977 281.971 253.048 236.878 258.547 190.113C265.454 131.368 284.962 88.9707 307.345 63.0001Z" fill="#87CFE5" stroke="#0E6B96" stroke-width="12"/>
<path d="M237.5 334.426C339.975 334.426 423 416.937 423 518.661C423 620.384 339.975 702.895 237.5 702.895C135.025 702.895 52.0005 620.384 52.0005 518.661C52.0005 416.937 135.025 334.426 237.5 334.426Z" fill="#86D0E3" stroke="#0C74AB" stroke-width="7"/>
<path d="M364.501 646.824C330.001 685.874 266.001 701.394 241.001 698.89C134.001 704.898 53.5005 610.673 56.0005 517.159C57.5664 458.584 43.0005 596.76 182.001 655.836C256.501 693.383 364.501 646.824 364.501 646.824Z" fill="#37B4CA"/>
<path opacity="0.77" d="M173.5 393.501L182.5 381.987L195 370.972L202 366.967L208.5 364.965L212 368.469L215 372.474L217 378.482L208.5 380.985L196 387.994L187.5 393.501L179 401.511L175 397.006L173.5 393.501Z" fill="#004F80"/>
<path opacity="0.7" d="M264.5 357.956H272.5L280 359.458L288 362.462L298 366.968L306.5 371.974L305 379.483L295 376.98L283.5 374.477L274.5 372.975H267.5H259.5V365.966L261 360.96L264.5 357.956Z" fill="#014C83"/>
<g clip-path="url(#clip1_157_1374)">
<path d="M199 700.891C217.453 700.891 227.418 706.675 232.985 714.199C238.752 721.994 240.5 732.567 240.5 743.445C240.5 754.689 239.623 763.351 232.348 769.732C224.743 776.403 209.12 781.494 176.5 781.494C154.106 781.494 138.008 780.424 126.449 778.523C114.815 776.61 108.241 773.923 104.485 771.045C100.993 768.369 99.6442 765.306 99.1137 761.46C98.8339 759.432 98.7896 757.202 98.8315 754.653C98.8709 752.258 99.0004 749.257 99.0004 746.449C99.0004 742.955 101.71 738.187 108.265 732.613C114.594 727.232 123.607 721.877 134.018 717.118C154.892 707.577 180.368 700.891 199 700.891Z" fill="#87CFE5" stroke="#0178B2" stroke-width="9"/>
<path d="M235.614 730.881C246.614 773.936 213.16 778.991 174.5 778.991C135.84 778.991 114 775.987 108.5 768.978C95.5 762.97 149.114 767.928 177.114 764.925C262.114 764.925 216 687.875 235.614 730.881Z" fill="#31A7BA"/>
</g>
<g clip-path="url(#clip2_157_1374)">
<path d="M291.001 700.891C272.548 700.891 262.583 706.675 257.016 714.199C251.249 721.994 249.501 732.567 249.501 743.445C249.501 754.689 250.378 763.351 257.653 769.732C265.258 776.403 280.881 781.494 313.501 781.494C335.895 781.494 351.993 780.424 363.552 778.523C375.186 776.61 381.76 773.923 385.516 771.045C389.008 768.369 390.357 765.306 390.887 761.46C391.167 759.432 391.211 757.202 391.169 754.653C391.13 752.258 391.001 749.257 391.001 746.449C391.001 742.955 388.291 738.187 381.736 732.613C375.407 727.232 366.394 721.877 355.983 717.118C335.109 707.577 309.633 700.891 291.001 700.891Z" fill="#87CFE5" stroke="#0178B2" stroke-width="9"/>
<path d="M254.387 730.881C243.387 773.936 276.841 778.991 315.501 778.991C354.161 778.991 376.001 775.987 381.501 768.978C394.501 762.97 340.887 767.928 312.887 764.925C227.887 764.925 274.001 687.875 254.387 730.881Z" fill="#31A7BA"/>
</g>
<g clip-path="url(#clip3_157_1374)">
<path d="M193.5 431.549C218.481 431.549 239.5 455.778 239.5 485.618C239.5 502.455 236.057 515.942 228.772 525.17C221.589 534.268 210.302 539.687 193.5 539.687C168.615 539.687 149 516.052 149 485.618C149 455.184 168.615 431.549 193.5 431.549Z" fill="#FEFEFE" stroke="#0F79AB" stroke-width="6"/>
<path d="M288.176 404.515C301.85 404.515 314.49 412.127 323.821 424.786C333.149 437.44 339 454.951 339 474.104C339 495.678 335.187 513.118 327.027 525.086C319.002 536.858 306.53 543.692 288.176 543.692C274.506 543.692 262.294 536.238 253.386 523.693C244.469 511.135 239 493.617 239 474.104C239 454.59 244.469 437.073 253.386 424.514C262.294 411.97 274.506 404.515 288.176 404.515Z" fill="#FEFEFE" stroke="#0F79AB" stroke-width="6"/>
<path d="M241 549.7C252.046 549.7 261 540.062 261 528.172C261 516.283 252.046 506.645 241 506.645C229.955 506.645 221 516.283 221 528.172C221 540.062 229.955 549.7 241 549.7Z" fill="#ED6F7A"/>
<path d="M273.5 489.624C273.5 500.683 267.508 509.649 259.5 509.649C251.492 509.649 245 500.683 245 489.624C245 478.564 251.492 469.598 259.5 469.598C268.5 472.101 273.5 478.109 273.5 489.624Z" fill="#2B2A28"/>
<path d="M221.5 509.649C229.509 509.649 236 500.683 236 489.624C236 478.564 229.509 469.598 221.5 469.598C213.492 469.598 207 478.564 207 489.624C207 500.683 213.492 509.649 221.5 509.649Z" fill="#2B2A28"/>
<path d="M271 479.11C272 482.615 268.761 485.619 266 485.619C263.239 485.619 261 483.153 261 480.112C261 477.07 263.239 474.604 266 474.604C268.761 474.604 271 476.069 271 479.11Z" fill="#F9FAFB"/>
<path d="M233 479.11C234 482.615 230.762 485.619 228 485.619C225.239 485.619 223 483.153 223 480.112C223 477.07 225.239 474.604 228 474.604C230.762 474.604 233 476.069 233 479.11Z" fill="#F9FAFB"/>
</g>
<g clip-path="url(#clip4_157_1374)">
<path d="M62.086 498.138C67.3401 498.815 69.4648 500.708 70.5216 503.074C71.8074 505.952 71.9225 510.361 71.1056 516.856C69.5483 529.238 64.6905 547.96 64.6905 569.225V569.533L64.7442 569.837C67.5148 585.473 69.9142 599.417 69.1349 611.363C68.3871 622.825 64.7354 632.077 55.7569 639.009C42.5812 641.259 32.6863 640.348 25.3233 637.453C17.8798 634.527 12.7443 629.467 9.30963 622.97C2.30391 609.715 2.37071 590.43 5.63872 571.835L5.66411 571.692L5.67681 571.549C7.29434 553.929 16.6396 535.424 28.3038 521.267C34.1151 514.214 40.4065 508.358 46.4317 504.296C52.4328 500.25 57.8416 498.202 62.086 498.138Z" fill="#87CFE5" stroke="#0076B8" stroke-width="7"/>
<path d="M43.8178 604.062C43.8759 603.776 43.8145 603.471 43.6576 603.215C43.5001 602.959 43.2598 602.774 42.9793 602.698C42.6988 602.621 42.398 602.659 42.1327 602.8C41.868 602.941 41.6605 603.173 41.5662 603.449C41.3647 604.043 41.1721 604.619 40.9797 605.215C37.1836 615.672 36.8963 628.081 39.901 639.053C40.0545 639.679 40.2034 640.273 40.3672 640.897C42.5837 640.167 44.8003 639.437 47.0168 638.707C46.7908 638.143 46.5791 637.608 46.3633 637.045C42.3183 627.129 41.1399 616.621 43.4664 605.852C43.5798 605.25 43.6941 604.665 43.8178 604.062Z" fill="#0074AB"/>
<path d="M19.9754 602.993C20.0078 602.698 19.9166 602.393 19.7347 602.146C19.5521 601.899 19.2939 601.73 19.0038 601.675C18.7137 601.62 18.4117 601.682 18.1514 601.845C17.8918 602.008 17.6951 602.259 17.6175 602.544C17.4783 603.064 17.3473 603.555 17.214 604.077C14.6529 613.185 14.1899 623.351 15.1129 632.798C15.1558 633.334 15.1967 633.846 15.2424 634.382C15.321 635.338 15.7769 636.193 16.5522 636.753C17.325 637.312 18.3538 637.531 19.3699 637.366C20.386 637.202 21.2939 636.67 21.8517 635.897C22.4119 635.121 22.5761 634.165 22.3505 633.234C22.2276 632.722 22.1097 632.235 21.9899 631.725C19.7184 622.717 18.7297 613.854 19.8133 604.54C19.8659 604.015 19.9165 603.518 19.9754 602.993Z" fill="#007BA4"/>
</g>
<path d="M344.279 603C297.279 611.5 285.779 575.5 302.279 552" stroke="#076FA2" stroke-width="6" stroke-linecap="round"/>
<path d="M193.319 565.107C193.081 564.703 192.749 564.461 192.396 564.436C192.043 564.41 191.697 564.602 191.436 564.97C191.174 565.338 191.018 565.851 191.001 566.397C190.985 566.943 191.109 567.476 191.347 567.88C192.513 569.86 193.755 571.734 195.058 573.496C219.343 604.928 257.155 600.351 280.759 569.853C282.086 568.149 283.351 566.397 284.594 564.541C284.848 564.161 284.994 563.64 285 563.094C285.006 562.548 284.87 562.02 284.625 561.628C284.379 561.235 284.042 561.009 283.689 561C283.335 560.991 282.994 561.2 282.739 561.579C281.546 563.364 280.33 565.047 279.055 566.684C256.441 596.062 219.719 600.228 196.814 570.395C195.584 568.733 194.416 566.968 193.319 565.107Z" fill="#076FA2"/>
<path d="M217.334 591.963L217.375 591.979L217.417 591.987L224.306 593.487L224.341 593.495L224.377 593.498L230.368 593.998L230.391 594H235.205V613.916L234.954 617.48L232.614 620.735L230.462 622.531L227.375 623H224.543L221.495 621.612L218.414 618.339L215.308 612.682L213.291 604.506L211.842 596.282V589.879L217.334 591.963Z" fill="#FEFEFE" stroke="#0578A5" stroke-width="3"/>
<path d="M252.506 591.723L252.465 591.738L252.423 591.748L246.19 593.104L246.154 593.111L246.119 593.114L240.699 593.566L240.676 593.568H236.403V611.422L236.627 614.579L238.709 617.474L240.633 619.079L243.406 619.5H245.953L248.688 618.255L251.455 615.318L254.247 610.236L256.064 602.878L257.37 595.467V589.878L252.506 591.723Z" fill="#FEFEFE" stroke="#0875A4" stroke-width="3"/>
<path d="M126 601C173 609.5 184.5 573.5 168 550" stroke="#076FA2" stroke-width="6" stroke-linecap="round"/>
<path fill-rule="evenodd" clip-rule="evenodd" d="M320.576 676.939C317.803 687.022 330.97 690.264 365.649 699.442C383.571 704.185 401.849 694.483 406.441 677.789C411.032 661.095 400.21 643.69 382.287 638.948C347.609 629.77 320.059 657.433 320.576 676.939Z" fill="#FF9425"/>
<path fill-rule="evenodd" clip-rule="evenodd" d="M327.478 637.633C327.399 637.816 324.166 656.699 324.166 656.699C324.166 656.699 405.01 681.632 406.44 677.789C412.481 661.555 400.236 643.59 382.286 638.947C314.684 621.458 330.248 631.234 327.478 637.633Z" fill="#FF8600"/>
<path d="M388.352 643.202C385.323 649.277 382.655 655.488 381.926 662.215" stroke="#EF6A00" stroke-width="5" stroke-miterlimit="10" stroke-linecap="round" stroke-linejoin="round"/>
<path d="M357.428 635.757C353.706 639.205 352.886 643.853 352.411 648.774" stroke="#EF6A00" stroke-width="5" stroke-miterlimit="10" stroke-linecap="round" stroke-linejoin="round"/>
<path fill-rule="evenodd" clip-rule="evenodd" d="M400.69 675.716C400.69 675.716 419.118 691.952 426.805 695.966C434.458 699.962 445.892 692.893 446.825 688.427C448.105 682.302 443.163 674.719 434.138 673.775C425.636 672.885 400.69 675.716 400.69 675.716Z" fill="#129447"/>
<path fill-rule="evenodd" clip-rule="evenodd" d="M400.803 675.608C400.803 675.608 407.069 684.191 409.742 694.503C411.23 700.24 407.844 707.186 409.511 711.156C411.509 715.912 415.52 720.019 419.833 717.599C424.145 715.18 425.124 709.122 425.085 701.679C425.018 688.655 405.473 677.97 400.803 675.608Z" fill="#00AA63"/>
<path fill-rule="evenodd" clip-rule="evenodd" d="M399.928 676.451C399.928 676.451 400.719 685.142 399.614 695.7C398.831 703.182 394.937 711.803 394.628 712.357C390.4 719.949 396.615 725.101 403.123 721.755C408.791 718.839 411.743 712.676 412.446 707.263C414.261 693.303 404.514 676.244 399.928 676.451Z" fill="#129447"/>
<path fill-rule="evenodd" clip-rule="evenodd" d="M399.929 676.45C399.929 676.45 408.755 671.642 415.702 664.008C419.566 659.761 419.703 651.909 422.936 649.305C426.81 646.182 432.156 644.679 434.852 649.049C437.548 653.419 435.014 661.154 432.342 665.732C425.91 676.759 404.448 678.161 399.929 676.45Z" fill="#00AA63"/>
<path fill-rule="evenodd" clip-rule="evenodd" d="M399.929 676.45C399.929 676.45 406.996 667.279 410.895 657.525C414.055 649.62 413.987 643.145 415.097 640.61C417.141 635.946 421.86 634.259 425.544 637.753C429.227 641.247 428.776 650.525 427.31 654.616C422.795 667.219 405.769 676.258 399.929 676.45Z" fill="#129447"/>
<path d="M363.019 680.424C359.086 684.994 357.272 690.936 356.339 694.823" stroke="#EF6A00" stroke-width="5" stroke-miterlimit="10" stroke-linecap="round" stroke-linejoin="round"/>
<path d="M326.101 667.189C323.121 670.84 321.568 675.931 320.73 679.287" stroke="#EF6A00" stroke-width="5" stroke-miterlimit="10" stroke-linecap="round" stroke-linejoin="round"/>
<path d="M318.505 673.131C318.003 669.514 327.41 670.9 320.979 670.247C325.019 671.199 326.784 669.534 325.194 671.933C320.082 677.316 326.26 681.546 321.834 682.93C319.065 680.544 319.565 680.757 318.505 673.131Z" fill="#FF9425"/>
<path d="M320.969 631.871C327.755 626.442 338.563 628.989 328.419 631.973C330.658 634.155 332.02 637.247 328.617 637.808C319.346 637.343 327.641 642.386 317.813 636.916C317.291 636.226 315.953 638.131 320.969 631.871Z" fill="#FF9221"/>
<path d="M314.887 662.687C316.19 662.167 312.466 662.944 317.773 662.127C321.889 663.097 324.674 661.21 324.165 663.373C323.655 665.536 331.852 670.82 318.716 668.138C314.438 671.264 315.564 674.837 314.887 662.687Z" fill="#C65104"/>
<path d="M314.993 668.914C316.296 668.395 313.115 663.571 316.562 662.256C320.679 663.226 324.83 667.234 324.32 669.398C323.81 671.561 320.675 669.84 318.634 673.494C326.115 688.487 315.951 681.544 314.993 668.914Z" fill="#C65104"/>
<path d="M314.593 655.589C316.901 652.672 316.477 652.802 320.318 651.977C324.158 652.882 327.796 655.202 327.03 657.884C324.715 665.99 322.32 662.398 318.959 662.904C313.193 666.736 315.353 660.959 314.593 655.589Z" fill="#C65104"/>
<path d="M317.532 636.437C319.84 633.52 318.662 633.512 322.503 632.687C326.343 633.592 329.981 635.912 329.215 638.594C326.899 646.701 324.505 643.108 321.143 643.614C315.378 647.446 315.377 647.506 317.532 636.437Z" fill="#C65104"/>
<path d="M315.816 645.541C318.124 642.625 317.7 642.754 321.541 641.929C325.381 642.834 329.019 645.154 328.253 647.836C325.938 655.942 323.355 655.53 319.995 656.035C314.23 659.868 313.416 655.725 315.816 645.541Z" fill="#C65104"/>
<path d="M322.291 682.458C322.46 682.498 322.843 682.4 323.343 681.999C324.508 681.065 323.394 679.313 323.307 678.155C323.219 676.996 323.131 675.842 322.831 674.633C322.688 674.058 322.826 673.306 323.132 672.574C323.636 671.37 325.269 670.946 326.134 669.776C326.535 669.234 326.891 668.674 326.902 668.062C326.92 666.971 325.27 666.4 324.795 665.15C324.382 664.061 324.955 661.978 325.837 660.518C326.645 659.181 327.253 658.339 327.423 657.813C327.835 656.538 326.548 655.238 325.745 654.243C325.347 653.751 325.492 652.812 325.841 651.901C326.484 650.219 328.36 649.039 329.056 648.014C329.4 647.51 328.215 647.009 327.882 646.506C327.218 645.497 327.673 643.949 328.209 641.475C328.586 639.73 329.963 638.431 330.548 637.284C331.054 636.293 329.854 635.086 329.466 633.857C329.289 633.293 329.335 632.687 329.417 632.14C330.289 631.301 331.184 630.943 331.705 630.642C331.931 630.458 332.078 630.211 332.742 630.077" stroke="#C65104" stroke-width="2" stroke-linecap="round"/>
<path d="M323.115 651.7C322.271 649.533 331.597 651.264 325.25 650.252C329.289 651.204 330.852 650.402 329.532 651.652C325.064 654.304 331.513 657.384 327.323 657.762C324.385 656.095 324.894 656.269 323.115 651.7Z" fill="#FF9425"/>
<path d="M317.678 665.848C317.825 665.224 317.795 664.293 317.946 662.842C318.063 661.716 317.565 660.735 317.434 659.677C317.336 658.761 317.14 657.987 317.073 657.477C317.078 657.18 317.166 656.808 317.256 656.425" stroke="#C65104" stroke-width="2" stroke-linecap="round"/>
<path d="M320.726 682.421C320.661 682.2 320.29 681.783 319.893 681.462C319.476 681.124 319.265 680.633 318.998 680.178C318.716 679.699 318.665 679.008 318.58 678.45C318.495 677.892 318.372 677.411 318.261 676.889C318.145 676.347 317.925 675.82 317.682 675.267C317.437 674.713 317.326 674.193 317.046 673.631C316.763 673.064 316.569 672.405 316.336 671.813C316.011 670.99 315.84 670.5 315.852 669.863C315.867 669.01 315.333 667.99 315.136 667.237C314.962 666.575 314.781 665.669 314.639 665.016C314.479 664.28 314.237 663.807 314.225 663.103C314.216 662.577 314.251 662.077 314.239 661.126C314.23 660.358 314.265 659.688 314.267 658.924C314.27 658.019 314.307 657.509 314.305 657.013C314.303 656.491 314.192 655.996 314.135 655.486C314.08 655.006 314.152 654.5 314.209 653.671C314.364 651.445 314.939 649.991 315.087 648.943C315.179 648.473 315.317 648.047 315.607 647.07C315.823 646.241 316.178 644.731 316.545 643.176" stroke="#FF8600" stroke-width="2" stroke-linecap="round"/>
<path d="M320.791 633.156C320.662 633.372 320.237 633.847 319.818 634.287C319.427 634.698 319.272 635.272 319.013 635.706C318.753 636.141 318.494 636.574 318.299 637.147C318.097 637.743 317.533 638.98 317.172 640.099C316.934 641.025 316.802 641.748 316.73 642.305C316.648 642.737 316.474 643.473 316.296 644.23" stroke="#FF8600" stroke-width="2" stroke-linecap="round"/>
<path d="M380.513 557.578C375.385 556.25 372.709 557.214 370.849 559.014C368.586 561.203 366.84 565.247 365.184 571.572C362.027 583.629 359.577 602.792 351.672 622.505L351.557 622.79L351.394 623.053C343.011 636.515 335.601 648.548 331.884 659.911C328.317 670.814 328.267 680.75 334.024 690.518C345.417 697.507 354.94 700.345 362.85 700.402C370.846 700.46 377.494 697.682 383.096 692.936C394.526 683.257 401.632 665.356 405.511 646.903L405.541 646.761L405.583 646.623C410.631 629.687 408.835 609.056 403.271 591.592C400.5 582.891 396.836 575.121 392.754 569.112C388.688 563.129 384.429 559.217 380.513 557.578Z" fill="#87CFE5" stroke="#0076B8" stroke-width="7"/>
<path d="M358.096 662.566C358.148 662.279 358.318 662.019 358.56 661.84C358.801 661.662 359.093 661.58 359.381 661.613C359.67 661.647 359.935 661.794 360.129 662.023C360.323 662.252 360.428 662.545 360.413 662.835C360.38 663.461 360.345 664.067 360.301 664.691C359.938 675.798 355.592 687.407 348.725 696.46C348.35 696.983 347.991 697.477 347.607 697.994C345.82 696.493 344.035 694.991 342.249 693.49C342.668 693.051 343.063 692.635 343.473 692.192C350.914 684.506 355.913 675.204 357.757 664.356C357.875 663.756 357.986 663.171 358.096 662.566Z" fill="#0074AB"/>
<path d="M380.623 670.449C380.702 670.164 380.9 669.915 381.161 669.753C381.422 669.592 381.725 669.532 382.014 669.589C382.304 669.646 382.562 669.816 382.742 670.064C382.923 670.312 383.012 670.617 382.978 670.911C382.914 671.445 382.853 671.948 382.782 672.482C381.775 681.877 378.426 691.473 374.057 699.887C373.818 700.369 373.59 700.828 373.348 701.308C372.92 702.164 372.179 702.787 371.252 703.017C370.325 703.248 369.289 703.068 368.408 702.538C367.526 702.008 366.88 701.177 366.651 700.251C366.419 699.324 366.621 698.378 367.178 697.598C367.482 697.169 367.772 696.761 368.073 696.333C373.529 688.829 377.742 680.982 380.198 671.943C380.344 671.437 380.482 670.958 380.623 670.449Z" fill="#007BA4"/>
</g>
<defs>
<clipPath id="clip0_157_1374">
<rect width="476" height="786" fill="white"/>
</clipPath>
<clipPath id="clip1_157_1374">
<rect width="151" height="90.1148" fill="white" transform="translate(94 695.885)"/>
</clipPath>
<clipPath id="clip2_157_1374">
<rect width="151" height="90.1148" fill="white" transform="matrix(-1 0 0 1 396.001 695.885)"/>
</clipPath>
<clipPath id="clip3_157_1374">
<rect width="196" height="148.189" fill="white" transform="translate(146 401.511)"/>
</clipPath>
<clipPath id="clip4_157_1374">
<rect width="76" height="149.19" fill="white" transform="translate(0 494.63)"/>
</clipPath>
</defs>
</svg>
