<svg width="476" height="786" viewBox="0 0 476 786" fill="none" xmlns="http://www.w3.org/2000/svg">
<g clip-path="url(#clip0_175_289)">
<path d="M86.9297 16.714C96.5345 11.8056 106.682 11.5521 117.15 15.7185C127.798 19.957 138.925 28.8566 149.706 42.4838C171.246 69.7071 190.39 114.534 201.105 172.94C203.797 197.451 207.515 221.974 210.903 244.675C214.315 267.526 217.378 288.445 218.81 305.946C220.262 323.711 219.917 336.908 217.187 344.843C215.87 348.67 214.243 350.541 212.698 351.426C211.21 352.279 208.76 352.809 204.48 351.727L201.386 350.945L199.008 353.076C195.786 355.965 194.143 356.089 193.632 356.039C193.139 355.991 191.842 355.602 189.746 352.806C187.689 350.061 185.529 345.873 183.134 340.14C180.765 334.471 178.317 327.671 175.575 319.89C164.678 288.966 149.647 243.897 118.755 204.258L118.539 203.981L118.293 203.732L115.425 200.807C55.8798 139.709 39.4621 98.8815 41.6354 71.5831C43.8011 44.3812 64.7521 28.0476 86.9297 16.714Z" fill="#8BCDE5" stroke="#0E6B96" stroke-width="12"/>
<path d="M307.345 63.0001C329.956 36.7664 354.435 28.2455 371.981 33.7082C390.948 39.6138 410.17 56.4775 412.328 84.658C414.514 113.194 399.378 155.113 344.924 210.922L344.816 211.034L344.714 211.149C311.199 249.217 298.305 291.6 289.629 320.998C287.446 328.398 285.571 334.835 283.702 340.279C281.814 345.774 280.078 349.805 278.313 352.52C276.553 355.23 275.28 355.846 274.561 355.996C273.785 356.157 271.966 356.128 268.378 353.876L266.01 352.389L263.352 353.247C259.04 354.637 256.325 354.41 254.592 353.718C252.907 353.044 251.211 351.556 249.678 348.449C246.419 341.847 245.025 330.25 245.345 314.045C245.977 281.971 253.048 236.878 258.547 190.113C265.454 131.368 284.962 88.9707 307.345 63.0001Z" fill="#87CFE5" stroke="#0E6B96" stroke-width="12"/>
<path d="M237.5 334.426C339.975 334.426 423 416.937 423 518.661C423 620.384 339.975 702.895 237.5 702.895C135.025 702.895 52.0005 620.384 52.0005 518.661C52.0005 416.937 135.025 334.426 237.5 334.426Z" fill="#86D0E3" stroke="#0C74AB" stroke-width="7"/>
<path d="M364.501 646.824C330.001 685.874 266.001 701.394 241.001 698.89C134.001 704.898 53.5005 610.673 56.0005 517.159C57.5664 458.584 43.0005 596.76 182.001 655.836C256.501 693.383 364.501 646.824 364.501 646.824Z" fill="#37B4CA"/>
<path opacity="0.77" d="M173.5 393.501L182.5 381.987L195 370.972L202 366.967L208.5 364.965L212 368.469L215 372.474L217 378.482L208.5 380.985L196 387.994L187.5 393.501L179 401.511L175 397.006L173.5 393.501Z" fill="#004F80"/>
<path opacity="0.7" d="M264.5 357.956H272.5L280 359.458L288 362.462L298 366.968L306.5 371.974L305 379.483L295 376.98L283.5 374.477L274.5 372.975H267.5H259.5V365.966L261 360.96L264.5 357.956Z" fill="#014C83"/>
<g clip-path="url(#clip1_175_289)">
<path d="M199 700.891C217.453 700.891 227.418 706.675 232.985 714.199C238.752 721.994 240.5 732.567 240.5 743.445C240.5 754.689 239.623 763.351 232.348 769.732C224.743 776.403 209.12 781.494 176.5 781.494C154.106 781.494 138.008 780.424 126.449 778.523C114.815 776.61 108.241 773.923 104.485 771.045C100.993 768.369 99.6442 765.306 99.1137 761.46C98.8339 759.432 98.7896 757.202 98.8315 754.653C98.8709 752.258 99.0004 749.257 99.0004 746.449C99.0004 742.955 101.71 738.187 108.265 732.613C114.594 727.232 123.607 721.877 134.018 717.118C154.892 707.577 180.368 700.891 199 700.891Z" fill="#87CFE5" stroke="#0178B2" stroke-width="9"/>
<path d="M235.614 730.881C246.614 773.936 213.16 778.991 174.5 778.991C135.84 778.991 114 775.987 108.5 768.978C95.5 762.97 149.114 767.928 177.114 764.925C262.114 764.925 216 687.875 235.614 730.881Z" fill="#31A7BA"/>
</g>
<g clip-path="url(#clip2_175_289)">
<path d="M291.001 700.891C272.548 700.891 262.583 706.675 257.016 714.199C251.249 721.994 249.501 732.567 249.501 743.445C249.501 754.689 250.378 763.351 257.653 769.732C265.258 776.403 280.881 781.494 313.501 781.494C335.895 781.494 351.993 780.424 363.552 778.523C375.186 776.61 381.76 773.923 385.516 771.045C389.008 768.369 390.357 765.306 390.887 761.46C391.167 759.432 391.211 757.202 391.169 754.653C391.13 752.258 391.001 749.257 391.001 746.449C391.001 742.955 388.291 738.187 381.736 732.613C375.407 727.232 366.394 721.877 355.983 717.118C335.109 707.577 309.633 700.891 291.001 700.891Z" fill="#87CFE5" stroke="#0178B2" stroke-width="9"/>
<path d="M254.387 730.881C243.387 773.936 276.841 778.991 315.501 778.991C354.161 778.991 376.001 775.987 381.501 768.978C394.501 762.97 340.887 767.928 312.887 764.925C227.887 764.925 274.001 687.875 254.387 730.881Z" fill="#31A7BA"/>
</g>
<g clip-path="url(#clip3_175_289)">
<path d="M193.5 431.549C218.481 431.549 239.5 455.778 239.5 485.618C239.5 502.455 236.057 515.942 228.772 525.17C221.589 534.268 210.302 539.687 193.5 539.687C168.615 539.687 149 516.052 149 485.618C149 455.184 168.615 431.549 193.5 431.549Z" fill="#FEFEFE" stroke="#0F79AB" stroke-width="6"/>
<path d="M288.176 404.515C301.85 404.515 314.49 412.127 323.821 424.786C333.149 437.44 339 454.951 339 474.104C339 495.678 335.187 513.118 327.027 525.086C319.002 536.858 306.53 543.692 288.176 543.692C274.506 543.692 262.294 536.238 253.386 523.693C244.469 511.135 239 493.617 239 474.104C239 454.59 244.469 437.073 253.386 424.514C262.294 411.97 274.506 404.515 288.176 404.515Z" fill="#FEFEFE" stroke="#0F79AB" stroke-width="6"/>
<path d="M241 549.7C252.046 549.7 261 540.062 261 528.172C261 516.283 252.046 506.645 241 506.645C229.955 506.645 221 516.283 221 528.172C221 540.062 229.955 549.7 241 549.7Z" fill="#ED6F7A"/>
<path d="M273.5 489.624C273.5 500.683 267.508 509.649 259.5 509.649C251.492 509.649 245 500.683 245 489.624C245 478.564 251.492 469.598 259.5 469.598C268.5 472.101 273.5 478.109 273.5 489.624Z" fill="#2B2A28"/>
<path d="M221.5 509.649C229.509 509.649 236 500.683 236 489.624C236 478.564 229.509 469.598 221.5 469.598C213.492 469.598 207 478.564 207 489.624C207 500.683 213.492 509.649 221.5 509.649Z" fill="#2B2A28"/>
<path d="M271 479.11C272 482.615 268.761 485.619 266 485.619C263.239 485.619 261 483.153 261 480.112C261 477.07 263.239 474.604 266 474.604C268.761 474.604 271 476.069 271 479.11Z" fill="#F9FAFB"/>
<path d="M233 479.11C234 482.615 230.762 485.619 228 485.619C225.239 485.619 223 483.153 223 480.112C223 477.07 225.239 474.604 228 474.604C230.762 474.604 233 476.069 233 479.11Z" fill="#F9FAFB"/>
</g>
<g clip-path="url(#clip4_175_289)">
<path d="M62.0857 498.138C67.3398 498.815 69.4645 500.708 70.5213 503.074C71.8072 505.952 71.9222 510.361 71.1053 516.856C69.548 529.238 64.6902 547.96 64.6902 569.225V569.533L64.7439 569.837C67.5145 585.473 69.9139 599.417 69.1346 611.363C68.3868 622.825 64.7351 632.077 55.7566 639.009C42.5809 641.259 32.686 640.348 25.323 637.453C17.8795 634.527 12.744 629.467 9.30938 622.97C2.30366 609.715 2.37047 590.43 5.63848 571.835L5.66387 571.692L5.67657 571.549C7.2941 553.929 16.6393 535.424 28.3035 521.267C34.1148 514.214 40.4062 508.358 46.4314 504.296C52.4325 500.25 57.8413 498.202 62.0857 498.138Z" fill="#87CFE5" stroke="#0076B8" stroke-width="7"/>
<path d="M43.8178 604.062C43.8759 603.776 43.8145 603.471 43.6576 603.215C43.5001 602.959 43.2598 602.774 42.9793 602.698C42.6988 602.621 42.398 602.659 42.1327 602.8C41.868 602.941 41.6605 603.173 41.5662 603.449C41.3647 604.043 41.1721 604.619 40.9797 605.215C37.1836 615.672 36.8963 628.081 39.901 639.053C40.0545 639.679 40.2034 640.273 40.3672 640.897C42.5837 640.167 44.8003 639.437 47.0168 638.707C46.7908 638.143 46.5791 637.608 46.3633 637.045C42.3183 627.129 41.1399 616.621 43.4664 605.852C43.5798 605.25 43.6941 604.665 43.8178 604.062Z" fill="#0074AB"/>
<path d="M19.9754 602.993C20.0078 602.698 19.9166 602.393 19.7347 602.146C19.5521 601.899 19.2939 601.73 19.0038 601.675C18.7137 601.62 18.4117 601.682 18.1514 601.845C17.8918 602.008 17.6951 602.259 17.6175 602.544C17.4783 603.064 17.3473 603.555 17.214 604.077C14.6529 613.185 14.1899 623.351 15.1129 632.798C15.1558 633.334 15.1967 633.846 15.2424 634.382C15.321 635.338 15.7769 636.193 16.5522 636.753C17.325 637.312 18.3538 637.531 19.3699 637.366C20.386 637.202 21.2939 636.67 21.8517 635.897C22.4119 635.121 22.5761 634.165 22.3505 633.234C22.2276 632.722 22.1097 632.235 21.9899 631.725C19.7184 622.717 18.7297 613.854 19.8133 604.54C19.8659 604.015 19.9165 603.518 19.9754 602.993Z" fill="#007BA4"/>
</g>
<path fill-rule="evenodd" clip-rule="evenodd" d="M265.659 644.771C266.568 634.314 356.85 621.089 394.763 624.384C414.356 626.087 429.043 641.525 427.538 658.837C426.033 676.152 408.905 688.825 389.31 687.122C351.398 683.827 264.751 655.227 265.659 644.771Z" fill="#FF9425"/>
<path fill-rule="evenodd" clip-rule="evenodd" d="M265.661 645.17C265.65 644.971 265.656 644.748 265.656 644.748C265.656 644.748 427.512 654.723 427.537 658.837C427.644 676.216 408.895 688.927 389.309 687.122C315.55 680.319 266.091 652.156 265.661 645.17Z" fill="#FF8600"/>
<path d="M396.905 685.202C396.099 678.433 395.702 671.662 397.426 665.072" stroke="#EF6A00" stroke-width="5" stroke-miterlimit="10" stroke-linecap="round" stroke-linejoin="round"/>
<path d="M363.366 681.567C360.913 677.036 361.787 672.373 363.109 667.571" stroke="#EF6A00" stroke-width="5" stroke-miterlimit="10" stroke-linecap="round" stroke-linejoin="round"/>
<path d="M322.345 672.164C322.476 665.824 323.286 660.641 324.492 656.131" stroke="#EF6A00" stroke-width="5" stroke-miterlimit="10" stroke-linecap="round" stroke-linejoin="round"/>
<path fill-rule="evenodd" clip-rule="evenodd" d="M421.05 658.81C421.05 658.81 445.335 649.857 454.459 648.722C463.544 647.592 472.365 658.191 471.67 662.721C470.715 668.935 463.026 674.377 453.685 672.159C444.887 670.07 421.05 658.81 421.05 658.81Z" fill="#129447"/>
<path fill-rule="evenodd" clip-rule="evenodd" d="M421.123 658.951C421.123 658.951 430.495 653.022 436.917 644.224C440.49 639.33 439.646 631.619 442.753 628.452C446.478 624.659 451.972 622.169 455.39 625.935C458.808 629.7 457.576 635.747 454.827 642.746C450.014 654.996 426.638 658.335 421.123 658.951Z" fill="#00AA63"/>
<path fill-rule="evenodd" clip-rule="evenodd" d="M420.557 657.857C420.557 657.857 424.513 649.94 427.257 639.61C429.201 632.289 428.46 622.824 428.355 622.195C426.905 613.584 434.978 610.87 440.246 616.265C444.833 620.964 445.531 627.789 444.26 633.132C440.984 646.912 425.053 659.631 420.557 657.857Z" fill="#129447"/>
<path fill-rule="evenodd" clip-rule="evenodd" d="M420.558 657.857C420.558 657.857 427.604 665.427 431.748 675.014C434.054 680.347 431.33 687.793 433.604 691.361C436.327 695.638 441.11 698.895 445.389 695.706C449.669 692.516 449.96 684.355 448.965 679.121C446.569 666.513 425.686 657.8 420.558 657.857Z" fill="#00AA63"/>
<path fill-rule="evenodd" clip-rule="evenodd" d="M420.558 657.858C420.558 657.858 424.262 668.934 424.596 679.468C424.867 688.007 422.439 694.085 422.623 696.857C422.961 701.955 427.051 705.17 431.995 703.146C436.941 701.123 439.871 692.223 439.9 687.863C439.99 674.431 426.31 660.051 420.558 657.858Z" fill="#129447"/>
<path d="M385.211 641.399C382.955 635.738 383.312 629.513 383.797 625.529" stroke="#EF6A00" stroke-width="5" stroke-miterlimit="10" stroke-linecap="round" stroke-linejoin="round"/>
<path d="M343.588 641.158C341.959 636.854 342.079 631.786 342.33 628.511" stroke="#EF6A00" stroke-width="5" stroke-miterlimit="10" stroke-linecap="round" stroke-linejoin="round"/>
<path d="M302.652 641.207C301.902 638.753 302.169 635.625 302.439 633.584" stroke="#EF6A00" stroke-width="5" stroke-miterlimit="10" stroke-linecap="round" stroke-linejoin="round"/>
<path d="M346.646 629.285C346.079 629.327 347.481 631.53 346.377 632.231C345.11 633.036 343.309 633.784 343.582 634.942C343.717 635.519 345.196 638.241 344.975 639.634C344.738 641.135 345.286 641.39 344.793 641.626C343.827 642.09 345.801 646.918 343.206 648.008C342.095 648.475 339.225 647.56 338.903 648.002C338.234 648.92 335.769 648.379 334.27 647.632C333.078 647.039 332.806 645.567 332.001 644.596C331.576 644.083 331.303 643.447 330.926 642.941C330.744 642.699 330.439 642.612 330.195 642.683C328.642 643.126 328.872 646.328 328.067 647.389C327.698 647.874 327.449 648.465 326.987 648.894C326.123 649.696 324.697 649.722 323.526 650.135C322.316 650.563 321.194 650.913 319.773 650.972C318.974 651.006 317.677 651.253 316.194 650.978C314.701 650.7 313.862 649.238 313.057 648.267C312.251 647.293 312.275 646.522 311.715 646.469C310.324 646.339 309.618 648.531 308.582 649.57C307.501 650.654 306.416 651.634 305.214 652.376C304.102 653.062 302.305 653.335 298.163 654.323C295.796 654.888 293.06 655.416 291.384 655.641C289.914 655.837 288.057 655.434 286.847 654.711C285.52 653.918 284.204 653.198 283.165 652.16C282.214 651.208 280.576 650.603 279.912 649.552C279.245 648.494 278.083 647.925 277.228 646.949C276.342 645.937 275.865 644.328 275.264 643.14C274.852 641.969 274.46 641.084 274.376 640.466C274.358 640.133 274.392 639.762 274.427 639.381" stroke="#C65104" stroke-width="2" stroke-linecap="round"/>
<path d="M273.762 638.727C275.698 644.779 280.857 652.202 287.548 655.476C295.253 656.18 305.727 652.542 308.62 649.389C313.595 643.968 305.107 644.261 307.701 632.213C301.73 632.202 283.38 636.935 273.762 638.727Z" fill="#934511"/>
<path d="M300.116 636.039C300.52 642.603 313.084 648.63 317.51 651.135C322.64 651.604 328.641 647.607 329.491 644.245C331.849 634.921 331.783 631.47 327.822 629.533C323.159 631.115 296.044 631.149 300.116 636.039Z" fill="#934511"/>
<path d="M320.637 633.395C321.041 639.958 333.605 645.985 338.031 648.49C343.16 648.959 349.162 644.962 350.012 641.6C352.37 632.276 352.304 628.825 348.343 626.888C343.68 628.47 316.565 628.504 320.637 633.395Z" fill="#934511"/>
<path d="M363.373 661.515C363.384 661.224 363.516 660.942 363.73 660.731C363.944 660.521 364.221 660.398 364.511 660.391C364.801 660.384 365.085 660.492 365.309 660.691C365.533 660.891 365.679 661.166 365.705 661.456C365.76 662.08 365.81 662.685 365.855 663.309C367.058 674.356 364.388 686.461 358.862 696.39C358.564 696.961 358.279 697.501 357.971 698.067C355.991 696.831 354.013 695.596 352.033 694.36C352.386 693.867 352.719 693.399 353.062 692.903C359.348 684.248 362.989 674.334 363.289 663.335C363.321 662.724 363.349 662.13 363.373 661.515Z" fill="#0074AB"/>
<path d="M386.784 666.151C386.823 665.858 386.984 665.583 387.219 665.387C387.455 665.191 387.746 665.089 388.041 665.104C388.336 665.12 388.615 665.252 388.828 665.471C389.042 665.691 389.173 665.981 389.181 666.277C389.193 666.814 389.203 667.322 389.208 667.86C389.532 677.304 387.566 687.275 384.424 696.22C384.256 696.73 384.094 697.217 383.922 697.726C383.619 698.634 382.973 699.355 382.087 699.714C381.203 700.073 380.152 700.04 379.204 699.639C378.257 699.238 377.501 698.507 377.143 697.622C376.783 696.737 376.851 695.771 377.292 694.921C377.533 694.454 377.763 694.009 378 693.543C382.347 685.346 385.413 676.984 386.574 667.69C386.647 667.168 386.716 666.675 386.784 666.151Z" fill="#007BA4"/>
<path d="M371.916 553.55C366.651 552.956 364.138 554.288 362.549 556.331C360.616 558.817 359.457 563.066 358.707 569.561C357.277 581.942 357.547 601.26 352.494 621.889L352.42 622.187L352.296 622.469C345.89 636.977 340.245 649.933 338.164 661.706C336.167 673.002 337.515 682.846 344.588 691.708C356.851 697.024 366.679 698.495 374.518 697.439C382.443 696.371 388.634 692.686 393.513 687.199C403.468 676.009 407.985 657.286 409.229 638.47L409.239 638.326L409.261 638.183C411.877 620.706 407.197 600.532 399.232 584.024C395.264 575.8 390.544 568.623 385.657 563.248C380.79 557.896 376.023 554.622 371.916 553.55Z" fill="#87CFE5" stroke="#0076B8" stroke-width="7"/>
<path d="M364.489 660.647C364.5 660.356 364.632 660.074 364.846 659.863C365.06 659.653 365.337 659.53 365.627 659.523C365.918 659.515 366.201 659.624 366.425 659.823C366.649 660.023 366.795 660.298 366.821 660.588C366.876 661.212 366.926 661.817 366.971 662.441C368.174 673.488 365.504 685.593 359.979 695.522C359.681 696.093 359.395 696.633 359.088 697.199C357.108 695.963 355.129 694.728 353.149 693.492C353.502 692.999 353.835 692.531 354.179 692.035C360.464 683.38 364.105 673.466 364.405 662.467C364.437 661.856 364.465 661.262 364.489 660.647Z" fill="#0074AB"/>
<path d="M387.901 665.282C387.939 664.989 388.101 664.715 388.336 664.519C388.572 664.322 388.863 664.22 389.157 664.236C389.453 664.251 389.731 664.383 389.945 664.603C390.159 664.823 390.29 665.113 390.297 665.409C390.31 665.946 390.32 666.454 390.325 666.992C390.649 676.435 388.683 686.407 385.541 695.352C385.372 695.862 385.211 696.349 385.039 696.858C384.736 697.766 384.089 698.487 383.204 698.846C382.32 699.205 381.268 699.172 380.321 698.771C379.373 698.37 378.617 697.638 378.26 696.754C377.9 695.869 377.967 694.903 378.408 694.053C378.649 693.586 378.879 693.141 379.117 692.675C383.463 684.477 386.53 676.116 387.691 666.822C387.764 666.3 387.833 665.807 387.901 665.282Z" fill="#007BA4"/>
<g clip-path="url(#clip5_175_289)">
<path d="M146.218 540.981C145.683 540.392 144.936 540.041 144.141 540.004C143.346 539.966 142.569 540.246 141.981 540.782C141.392 541.317 141.041 542.065 141.003 542.859C140.966 543.654 141.246 544.431 141.782 545.02C144.405 547.902 147.198 550.632 150.13 553.197C204.771 598.972 289.849 592.306 342.959 547.893C345.945 545.411 348.79 542.86 351.586 540.156C352.158 539.603 352.486 538.845 352.5 538.05C352.513 537.254 352.209 536.486 351.656 535.914C351.103 535.342 350.345 535.014 349.55 535C348.754 534.987 347.986 535.291 347.414 535.844C344.728 538.442 341.994 540.893 339.125 543.278C288.242 586.061 205.618 592.128 154.081 548.682C151.315 546.261 148.685 543.691 146.218 540.981Z" fill="#076FA2"/>
<path d="M211.668 582.963L211.736 582.979L211.806 582.987L223.306 584.487L223.365 584.495L223.425 584.498L233.425 584.998L233.463 585H241.5V604.916L241.08 608.48L237.175 611.735L233.582 613.531L228.429 614H223.701L218.614 612.612L213.471 609.339L208.285 603.682L204.918 595.506L202.5 587.282V580.879L211.668 582.963Z" fill="#FEFEFE" stroke="#0578A5" stroke-width="3"/>
<path d="M270.38 582.723L270.312 582.738L270.241 582.748L259.837 584.104L259.777 584.111L259.718 584.114L250.67 584.566L250.633 584.568H243.5V602.422L243.873 605.579L247.349 608.474L250.561 610.079L255.19 610.5H259.441L264.007 609.255L268.626 606.318L273.287 601.236L276.319 593.878L278.5 586.467V580.878L270.38 582.723Z" fill="#FEFEFE" stroke="#0875A4" stroke-width="3"/>
</g>
</g>
<defs>
<clipPath id="clip0_175_289">
<rect width="476" height="786" fill="white"/>
</clipPath>
<clipPath id="clip1_175_289">
<rect width="151" height="90.1148" fill="white" transform="translate(94 695.885)"/>
</clipPath>
<clipPath id="clip2_175_289">
<rect width="151" height="90.1148" fill="white" transform="matrix(-1 0 0 1 396.001 695.885)"/>
</clipPath>
<clipPath id="clip3_175_289">
<rect width="196" height="148.189" fill="white" transform="translate(146 401.511)"/>
</clipPath>
<clipPath id="clip4_175_289">
<rect width="76" height="149.19" fill="white" transform="translate(0 494.63)"/>
</clipPath>
<clipPath id="clip5_175_289">
<rect width="212" height="81" fill="white" transform="translate(141 535)"/>
</clipPath>
</defs>
</svg>
