<svg width="476" height="786" viewBox="0 0 476 786" fill="none" xmlns="http://www.w3.org/2000/svg">
<g clip-path="url(#clip0_157_344)">
<path d="M132.319 1.54358C142.63 -1.54687 152.637 0.0334364 162.164 6.01334C171.856 12.0965 181.181 22.8452 189.316 38.1755C205.569 68.8016 216.308 116.289 216.332 175.597C214.57 200.161 213.814 224.922 213.061 247.833C212.305 270.896 211.553 291.998 209.813 309.449C208.047 327.162 205.337 340.064 201.231 347.367C199.251 350.889 197.318 352.434 195.641 353.025C194.027 353.595 191.527 353.674 187.52 351.839L184.623 350.513L181.906 352.178C178.223 354.435 176.589 354.261 176.096 354.12C175.621 353.984 174.417 353.368 172.862 350.243C171.336 347.176 169.968 342.672 168.647 336.609C167.34 330.612 166.159 323.491 164.865 315.353C159.724 283.01 153.067 236.026 129.862 191.518L129.701 191.207L129.504 190.918L127.213 187.527C79.7368 116.773 70.9558 73.7053 77.9944 47.28C85.0083 20.9483 108.511 8.67944 132.319 1.54358Z" fill="#8BCDE5" stroke="#0E6B96" stroke-width="12"/>
<path d="M302.992 55.946C326.477 30.5676 351.195 22.9349 368.501 29.0122C387.209 35.582 405.782 53.0983 406.934 81.3019C408.101 109.861 391.516 151.161 335.223 204.925L335.111 205.032L335.005 205.143C300.225 241.946 285.86 283.788 276.162 312.822C273.722 320.13 271.624 326.488 269.566 331.854C267.488 337.272 265.614 341.233 263.757 343.881C261.905 346.522 260.614 347.092 259.891 347.216C259.112 347.348 257.299 347.255 253.799 344.879L251.491 343.311L248.809 344.073C244.459 345.307 241.759 344.983 240.055 344.23C238.398 343.498 236.759 341.952 235.341 338.797C232.324 332.091 231.346 320.467 232.24 304.304C234.009 272.314 242.663 227.558 249.808 181.078C258.783 122.692 279.745 81.0698 302.992 55.946Z" fill="#87CFE5" stroke="#0E6B96" stroke-width="12"/>
<path d="M237.035 335.001C339.31 335.001 422.172 417.407 422.172 519.001C422.172 620.595 339.31 703.002 237.035 703.002C134.761 703.002 51.8984 620.595 51.8984 519.001C51.8984 417.407 134.761 335.001 237.035 335.001Z" fill="#86D0E3" stroke="#0C74AB" stroke-width="7"/>
<path d="M363.787 647.001C329.354 686.002 265.48 701.502 240.529 699.002C133.738 705.002 53.3959 610.896 55.891 517.501C57.4539 459.001 42.9165 597.001 181.644 656.002C255.998 693.502 363.787 647.001 363.787 647.001Z" fill="#37B4CA"/>
<path opacity="0.77" d="M173.161 394.001L182.143 382.501L194.619 371.501L201.605 367.501L208.092 365.501L211.585 369.001L214.579 373.001L216.575 379.001L208.092 381.501L195.617 388.501L187.133 394.001L178.65 402.001L174.658 397.501L173.161 394.001Z" fill="#004F80"/>
<path opacity="0.7" d="M263.982 358.501H271.967L279.452 360.001L287.436 363.001L297.417 367.501L305.9 372.501L304.403 380.001L294.423 377.501L282.945 375.001L273.963 373.501H266.977H258.992V366.501L260.489 361.501L263.982 358.501Z" fill="#014C83"/>
<g clip-path="url(#clip1_157_344)">
<path d="M199 700.999C217.453 700.999 227.418 706.775 232.985 714.29C238.752 722.075 240.5 732.635 240.5 743.499C240.5 754.728 239.623 763.379 232.348 769.751C224.743 776.414 209.12 781.499 176.5 781.499C154.106 781.499 138.008 780.43 126.449 778.532C114.815 776.621 108.241 773.938 104.485 771.063C100.993 768.391 99.6442 765.331 99.1137 761.491C98.8339 759.465 98.7896 757.237 98.8315 754.692C98.8709 752.3 99.0004 749.303 99.0004 746.499C99.0004 743.009 101.71 738.247 108.265 732.68C114.594 727.306 123.607 721.957 134.018 717.205C154.892 707.676 180.368 700.999 199 700.999Z" fill="#87CFE5" stroke="#0178B2" stroke-width="9"/>
<path d="M235.614 730.95C246.614 773.95 213.16 778.999 174.5 778.999C135.84 778.999 114 775.999 108.5 768.999C95.5 762.999 149.114 767.95 177.114 764.95C262.114 764.95 216 687.999 235.614 730.95Z" fill="#31A7BA"/>
</g>
<g clip-path="url(#clip2_157_344)">
<path d="M291.001 700.999C272.548 700.999 262.583 706.775 257.016 714.29C251.249 722.075 249.501 732.635 249.501 743.499C249.501 754.728 250.378 763.379 257.653 769.751C265.258 776.414 280.881 781.499 313.501 781.499C335.895 781.499 351.993 780.43 363.552 778.532C375.186 776.621 381.76 773.938 385.516 771.063C389.008 768.391 390.357 765.331 390.887 761.491C391.167 759.465 391.211 757.237 391.169 754.692C391.13 752.3 391.001 749.303 391.001 746.499C391.001 743.009 388.291 738.247 381.736 732.68C375.407 727.306 366.394 721.957 355.983 717.205C335.109 707.676 309.633 700.999 291.001 700.999Z" fill="#87CFE5" stroke="#0178B2" stroke-width="9"/>
<path d="M254.387 730.95C243.387 773.95 276.841 778.999 315.501 778.999C354.161 778.999 376.001 775.999 381.501 768.999C394.501 762.999 340.887 767.95 312.887 764.95C227.887 764.95 274.001 687.999 254.387 730.95Z" fill="#31A7BA"/>
</g>
<g clip-path="url(#clip3_157_344)">
<path d="M193.5 432C218.481 432 239.5 456.198 239.5 486C239.5 502.815 236.057 516.285 228.772 525.501C221.589 534.588 210.302 540 193.5 540C168.615 540 149 516.395 149 486C149 455.605 168.615 432 193.5 432Z" fill="#FEFEFE" stroke="#0F79AB" stroke-width="6"/>
<path d="M288.176 405C301.85 405 314.49 412.602 323.821 425.245C333.149 437.883 339 455.372 339 474.5C339 496.047 335.187 513.464 327.027 525.417C319.002 537.174 306.53 544 288.176 544C274.506 544 262.294 536.555 253.386 524.026C244.469 511.484 239 493.989 239 474.5C239 455.011 244.469 437.516 253.386 424.974C262.294 412.445 274.506 405 288.176 405Z" fill="#FEFEFE" stroke="#0F79AB" stroke-width="6"/>
<path d="M241 550C252.046 550 261 540.374 261 528.5C261 516.626 252.046 507 241 507C229.955 507 221 516.626 221 528.5C221 540.374 229.955 550 241 550Z" fill="#ED6F7A"/>
<path d="M273.5 490C273.5 501.046 267.508 510 259.5 510C251.492 510 245 501.046 245 490C245 478.954 251.492 470 259.5 470C268.5 472.5 273.5 478.5 273.5 490Z" fill="#2B2A28"/>
<path d="M221.5 510C229.509 510 236 501.046 236 490C236 478.954 229.509 470 221.5 470C213.492 470 207 478.954 207 490C207 501.046 213.492 510 221.5 510Z" fill="#2B2A28"/>
<path d="M271 479.5C272 483 268.761 486 266 486C263.239 486 261 483.538 261 480.5C261 477.462 263.239 475 266 475C268.761 475 271 476.462 271 479.5Z" fill="#F9FAFB"/>
<path d="M233 479.5C234 483 230.762 486 228 486C225.239 486 223 483.538 223 480.5C223 477.462 225.239 475 228 475C230.762 475 233 476.462 233 479.5Z" fill="#F9FAFB"/>
</g>
<g clip-path="url(#clip4_157_344)">
<path d="M62.0857 498.503C67.3398 499.179 69.4645 501.071 70.5213 503.433C71.8072 506.308 71.9222 510.71 71.1053 517.198C69.548 529.564 64.6902 548.262 64.6902 569.5V569.808L64.7439 570.112C67.5145 585.727 69.9139 599.653 69.1346 611.584C68.3868 623.031 64.7351 632.272 55.7566 639.195C42.5809 641.442 32.686 640.532 25.323 637.641C17.8795 634.718 12.744 629.665 9.30938 623.176C2.30366 609.938 2.37047 590.678 5.63848 572.107L5.66387 571.964L5.67657 571.821C7.2941 554.223 16.6393 535.742 28.3035 521.603C34.1148 514.559 40.4062 508.711 46.4314 504.654C52.4325 500.612 57.8413 498.567 62.0857 498.503Z" fill="#87CFE5" stroke="#0076B8" stroke-width="7"/>
<path d="M43.8178 604.292C43.8759 604.007 43.8145 603.702 43.6576 603.446C43.5001 603.191 43.2598 603.006 42.9793 602.93C42.6988 602.853 42.398 602.891 42.1327 603.032C41.868 603.173 41.6605 603.405 41.5662 603.68C41.3647 604.273 41.1721 604.849 40.9797 605.444C37.1836 615.888 36.8963 628.281 39.901 639.239C40.0545 639.864 40.2034 640.457 40.3672 641.08C42.5837 640.351 44.8003 639.622 47.0168 638.893C46.7908 638.33 46.5791 637.796 46.3633 637.233C42.3183 627.33 41.1399 616.835 43.4664 606.08C43.5798 605.479 43.6941 604.895 43.8178 604.292Z" fill="#0074AB"/>
<path d="M19.9754 603.224C20.0078 602.93 19.9166 602.625 19.7347 602.378C19.5521 602.132 19.2939 601.963 19.0038 601.908C18.7137 601.853 18.4117 601.915 18.1514 602.078C17.8918 602.241 17.6951 602.491 17.6175 602.776C17.4783 603.295 17.3473 603.786 17.214 604.307C14.6529 613.403 14.1899 623.556 15.1129 632.991C15.1558 633.527 15.1967 634.038 15.2424 634.573C15.321 635.528 15.7769 636.382 16.5522 636.941C17.325 637.5 18.3538 637.718 19.3699 637.554C20.386 637.39 21.2939 636.859 21.8517 636.086C22.4119 635.311 22.5761 634.357 22.3505 633.427C22.2276 632.916 22.1097 632.429 21.9899 631.92C19.7184 622.923 18.7297 614.072 19.8133 604.769C19.8659 604.245 19.9165 603.749 19.9754 603.224Z" fill="#007BA4"/>
</g>
<path d="M334.912 537.256L334.797 537.574L334.797 537.907C334.796 549.088 326.615 571.443 307.766 589.579C289.106 607.533 260.121 621.24 218.32 615.791C183.12 604.448 167.905 586.712 160.615 571.342C156.937 563.587 155.25 556.38 154.082 550.745C153.691 548.861 153.346 547.096 153 545.556C156.946 547.639 161.717 550.007 167.133 552.411C189.473 562.328 223.454 573.19 255.588 566.608C285.779 566.517 308.666 554.524 322.926 545.29C326.508 542.97 329.563 540.813 332.038 539.068C333.169 538.27 334.152 537.58 335 537C334.971 537.083 334.943 537.169 334.912 537.256Z" fill="#D20223" stroke="#076FA2" stroke-width="6"/>
<path d="M210.463 566.202L210.526 566.219L210.59 566.228L221.205 567.813L221.26 567.821L221.315 567.824L230.546 568.353L230.581 568.355L238 568.355L238 589.401L237.612 593.166L234.008 596.607L230.691 598.505L225.934 599L221.57 599L216.875 597.534L212.127 594.074L207.34 588.096L204.232 579.457L202 570.767L202 564L210.463 566.202Z" fill="#FEFEFE" stroke="#0578A5" stroke-width="3"/>
<path d="M301.294 585.254C294.446 591.239 274.361 599.884 257.47 603.542C240.124 604.539 241.493 607.354 241.493 602.212C252.449 591.239 264.318 582.594 304.489 581.264C308.597 581.264 305.858 581.264 301.294 585.254Z" fill="#FF1863"/>
<path d="M264.576 566.055L264.514 566.072L264.449 566.083L254.937 567.593L254.882 567.602L254.828 567.605L246.555 568.109L246.522 568.111L240 568.111L240 588.001L240.341 591.518L243.519 594.743L246.456 596.531L250.688 597L254.575 597L258.749 595.613L262.972 592.341L267.234 586.68L270.006 578.482L272 570.226L272 564L264.576 566.055Z" fill="#FEFEFE" stroke="#0875A4" stroke-width="3"/>
<path d="M212.463 566.202L212.526 566.219L212.59 566.228L223.205 567.813L223.26 567.821L223.315 567.824L232.546 568.353L232.581 568.355L240 568.355L240 589.401L239.612 593.166L236.008 596.607L232.691 598.505L227.934 599L223.57 599L218.875 597.534L214.127 594.074L209.34 588.096L206.232 579.457L204 570.767L204 564L212.463 566.202Z" fill="#FEFEFE" stroke="#0578A5" stroke-width="3"/>
<path d="M303.294 585.254C296.446 591.239 276.361 599.884 259.47 603.542C242.124 604.539 243.493 607.354 243.493 602.212C254.449 591.239 266.318 582.594 306.489 581.264C310.597 581.264 307.858 581.264 303.294 585.254Z" fill="#FF1863"/>
<path d="M266.576 566.055L266.514 566.072L266.449 566.083L256.937 567.593L256.882 567.602L256.828 567.605L248.555 568.109L248.522 568.111L242 568.111L242 588.001L242.341 591.518L245.519 594.743L248.456 596.531L252.688 597L256.575 597L260.749 595.613L264.972 592.341L269.234 586.68L272.006 578.482L274 570.226L274 564L266.576 566.055Z" fill="#FEFEFE" stroke="#0875A4" stroke-width="3"/>
<g clip-path="url(#clip5_157_344)">
<path fill-rule="evenodd" clip-rule="evenodd" d="M241.349 619.057C244.355 608.989 335.445 614.328 371.908 625.247C390.751 630.889 402.011 649.005 397.034 665.676C392.057 682.347 372.719 691.3 353.874 685.657C317.412 674.739 238.343 629.126 241.349 619.057Z" fill="#FF9425"/>
<path fill-rule="evenodd" clip-rule="evenodd" d="M241.27 619.449C241.299 619.252 241.349 619.034 241.349 619.034C241.349 619.034 397.841 661.636 397.033 665.675C393.622 682.737 372.688 691.399 353.873 685.657C283.014 664.03 240.277 626.386 241.27 619.449Z" fill="#FF8600"/>
<path d="M361.7 685.315C362.281 678.515 363.261 671.795 366.283 665.682" stroke="#EF6A00" stroke-width="5" stroke-miterlimit="10" stroke-linecap="round" stroke-linejoin="round"/>
<path d="M329.59 674.95C328.105 670.009 329.905 665.615 332.17 661.175" stroke="#EF6A00" stroke-width="5" stroke-miterlimit="10" stroke-linecap="round" stroke-linejoin="round"/>
<path d="M291.32 657.412C292.731 651.221 294.573 646.304 296.667 642.126" stroke="#EF6A00" stroke-width="5" stroke-miterlimit="10" stroke-linecap="round" stroke-linejoin="round"/>
<path fill-rule="evenodd" clip-rule="evenodd" d="M390.686 664.333C390.686 664.333 416.28 660.479 425.445 661.216C434.571 661.95 441.065 674.132 439.468 678.432C437.275 684.331 428.644 688.108 419.945 684.039C411.751 680.207 390.686 664.333 390.686 664.333Z" fill="#129447"/>
<path fill-rule="evenodd" clip-rule="evenodd" d="M390.729 664.486C390.729 664.486 401.107 660.572 409.176 653.249C413.665 649.175 414.399 641.442 418.083 638.968C422.498 636.003 428.383 634.676 430.968 639.062C433.552 643.446 431.123 649.125 427.015 655.431C419.823 666.467 396.255 665 390.729 664.486Z" fill="#00AA63"/>
<path fill-rule="evenodd" clip-rule="evenodd" d="M390.396 663.298C390.396 663.298 395.871 656.337 400.649 646.765C404.035 639.981 405.224 630.551 405.247 629.912C405.571 621.175 414.026 620.151 418.093 626.508C421.635 632.047 420.937 638.88 418.612 643.861C412.615 656.709 394.44 665.95 390.396 663.298Z" fill="#129447"/>
<path fill-rule="evenodd" clip-rule="evenodd" d="M390.396 663.299C390.396 663.299 395.766 672.151 397.884 682.391C399.063 688.087 394.89 694.836 396.394 698.796C398.196 703.541 402.22 707.705 407.057 705.445C411.893 703.186 413.83 695.243 413.914 689.908C414.119 677.061 395.431 664.283 390.396 663.299Z" fill="#00AA63"/>
<path fill-rule="evenodd" clip-rule="evenodd" d="M390.398 663.299C390.398 663.299 391.784 674.91 389.979 685.307C388.516 693.734 384.909 699.202 384.529 701.957C383.828 707.024 387.182 711.006 392.434 710.024C397.687 709.043 402.357 700.911 403.268 696.642C406.074 683.489 395.586 666.616 390.398 663.299Z" fill="#129447"/>
<path d="M359.111 639.994C358.047 633.986 359.656 627.955 360.937 624.147" stroke="#EF6A00" stroke-width="5" stroke-miterlimit="10" stroke-linecap="round" stroke-linejoin="round"/>
<path d="M318.398 631.317C317.673 626.767 318.817 621.822 319.725 618.661" stroke="#EF6A00" stroke-width="5" stroke-miterlimit="10" stroke-linecap="round" stroke-linejoin="round"/>
<path d="M278.298 623.064C278.06 620.506 278.954 617.493 279.631 615.546" stroke="#EF6A00" stroke-width="5" stroke-miterlimit="10" stroke-linecap="round" stroke-linejoin="round"/>
<path d="M366.767 542.629C361.733 540.98 359.002 541.775 357.033 543.457C354.637 545.502 352.642 549.433 350.593 555.65C346.688 567.5 343.043 586.496 333.92 605.698L333.788 605.976L333.609 606.228C324.4 619.154 316.251 630.713 311.83 641.835C307.589 652.506 306.917 662.431 312.051 672.554C322.985 680.254 332.312 683.689 340.203 684.243C348.18 684.803 354.988 682.445 360.877 678.055C372.89 669.101 381.102 651.658 386.128 633.462L386.167 633.322L386.217 633.187C392.315 616.58 391.814 595.85 387.353 578.049C385.132 569.18 381.962 561.185 378.263 554.924C374.58 548.689 370.573 544.513 366.767 542.629Z" fill="#87CFE5" stroke="#0076B8" stroke-width="7"/>
</g>
</g>
<defs>
<clipPath id="clip0_157_344">
<rect width="476" height="786" fill="white"/>
</clipPath>
<clipPath id="clip1_157_344">
<rect width="151" height="90" fill="white" transform="translate(94 695.999)"/>
</clipPath>
<clipPath id="clip2_157_344">
<rect width="151" height="90" fill="white" transform="matrix(-1 0 0 1 396.001 695.999)"/>
</clipPath>
<clipPath id="clip3_157_344">
<rect width="196" height="148" fill="white" transform="translate(146 402)"/>
</clipPath>
<clipPath id="clip4_157_344">
<rect width="76" height="149" fill="white" transform="translate(0 495)"/>
</clipPath>
<clipPath id="clip5_157_344">
<rect width="156.179" height="209.026" fill="white" transform="matrix(0.322075 -0.94664 0.946476 0.322992 227.664 656.078)"/>
</clipPath>
</defs>
</svg>
