<svg width="700" height="800" viewBox="0 0 700 800" fill="none" xmlns="http://www.w3.org/2000/svg">
<g clip-path="url(#clip0_465_84)">
<g clip-path="url(#clip1_465_84)">
<path d="M454.271 635.135C437.556 628.021 426.581 628.757 419.003 632.567C411.153 636.514 406.007 644.21 402.342 652.821C398.553 661.721 396.429 668.916 400.869 676.772C405.51 684.985 417.946 695.038 447.493 707.615C467.777 716.249 482.72 721.609 493.83 724.561C505.013 727.531 511.873 727.939 516.245 727.109C520.309 726.337 522.563 724.432 524.339 721.593C525.277 720.095 526.068 718.347 526.889 716.313C527.66 714.402 528.554 711.976 529.5 709.754C530.677 706.987 529.83 702.168 525.77 695.229C521.85 688.529 515.491 680.815 507.664 673.034C491.971 657.434 471.148 642.319 454.271 635.135Z" fill="#87CFE5" stroke="#0178B2" stroke-width="9"/>
<path d="M411 644.759C386.529 674.6 415.129 691.499 450.147 706.405C485.165 721.31 505.96 727.352 513.303 723.925C527.103 724.181 476.869 707.435 452.519 694.262C375.526 661.49 443.257 618.277 411 644.759Z" fill="#31A7BA"/>
</g>
<g clip-path="url(#clip2_465_84)">
<path d="M378.076 636.143C399.651 631.759 412.523 635.401 420.62 641.895C429.008 648.623 433.284 659.193 435.58 670.494C437.954 682.175 438.757 691.382 431.598 699.74C424.115 708.477 406.924 717.478 368.787 725.228C342.604 730.548 323.556 733.261 309.641 734.032C295.636 734.809 287.382 733.579 282.383 731.481C277.736 729.531 275.512 726.669 274.08 722.8C273.324 720.759 272.802 718.452 272.313 715.795C271.853 713.297 271.371 710.149 270.778 707.231C270.041 703.601 272.202 698.004 278.689 690.656C284.953 683.562 294.359 675.857 305.528 668.439C327.918 653.568 356.292 640.57 378.076 636.143Z" fill="#87CFE5" stroke="#0178B2" stroke-width="9"/>
<path d="M427.215 658.601C449.165 700.718 411.119 713.918 365.919 723.102C320.719 732.287 294.55 734.355 286.64 728.38C270.173 725.227 333.903 717.64 366.005 707.868C465.384 687.674 395.204 618.581 427.215 658.601Z" fill="#31A7BA"/>
</g>
<path d="M381.428 298.101C486.665 298.101 571.928 379.686 571.928 480.269C571.928 580.851 486.665 662.437 381.428 662.437C276.19 662.437 190.928 580.851 190.928 480.269C190.928 379.686 276.19 298.101 381.428 298.101Z" fill="#86D0E3" stroke="#0C74AB" stroke-width="7"/>
<path d="M511.85 606.995C476.42 645.606 410.695 660.952 385.021 658.477C275.137 664.417 192.467 571.249 195.035 478.784C196.643 420.867 181.684 557.493 324.431 615.905C400.939 653.032 511.85 606.995 511.85 606.995Z" fill="#37B4CA"/>
<path d="M580.926 452.801C574.803 451.601 572.057 443.483 572.926 441.436C573.982 438.945 570.657 429.076 575.425 424.773C592.494 423.281 588.294 428.623 609.208 424.774L620.31 419.663L634.209 409.702C642.566 399.336 647.593 386.895 655.776 381.151C663.627 375.641 671.858 373.482 681.901 376.557C691.533 385.266 697.09 393.184 699.796 400.251C702.532 407.395 697.627 412.795 695.573 418.819C691.38 431.106 693.36 427.137 683.755 443.134L676.964 452.802L669.985 459.014C657.625 467.134 640.497 470.329 624.13 469.065C615.976 468.435 606.352 464.847 599.992 462.472C593.658 460.106 583.603 455.957 580.926 452.801Z" fill="#87CFE5" stroke="#0076B8" stroke-width="7"/>
<path d="M652.021 401.231C651.847 401.464 651.577 401.62 651.281 401.67C650.984 401.72 650.685 401.661 650.441 401.498C650.196 401.337 650.023 401.084 649.951 400.789C649.88 400.495 649.915 400.185 650.058 399.931C650.367 399.385 650.67 398.858 650.987 398.318C656.271 388.521 665.361 380.091 675.576 375.105C676.147 374.807 676.691 374.527 677.267 374.238C678.202 376.401 679.138 378.563 680.074 380.725C679.501 380.927 678.96 381.121 678.394 381.33C668.273 384.828 659.625 390.89 653.126 399.78C652.751 400.264 652.39 400.738 652.021 401.231Z" fill="#0074AB"/>
<path d="M661.886 412.575C661.62 412.759 661.281 412.841 660.952 412.813C660.623 412.784 660.33 412.648 660.131 412.424C659.931 412.2 659.838 411.904 659.863 411.59C659.888 411.278 660.029 410.974 660.264 410.755C660.692 410.36 661.097 409.986 661.53 409.594C668.97 402.548 678.485 396.774 688.012 392.589C688.548 392.343 689.059 392.109 689.596 391.866C690.553 391.429 691.604 391.375 692.532 391.756C693.46 392.134 694.189 392.916 694.545 393.89C694.902 394.863 694.851 395.936 694.39 396.831C693.929 397.73 693.096 398.378 692.089 398.673C691.536 398.836 691.009 398.99 690.46 399.155C680.672 401.932 671.673 405.751 663.287 411.617C662.811 411.94 662.36 412.246 661.886 412.575Z" fill="#007BA4"/>
<path d="M313.98 397.662C323.255 374.266 331.117 362.587 353.962 377.334" stroke="#025081" stroke-width="13" stroke-linecap="round"/>
<path d="M405.932 358.573C421.402 349.543 429.74 349.457 443.928 359.437" stroke="#025081" stroke-width="16" stroke-linecap="round"/>
<path d="M200.144 506.215C200.313 501.111 196.002 480.121 194.06 478.789C191.696 477.167 190.719 483.052 180.164 489.142C163.716 496.298 182.365 490.791 161.077 497.821L148.057 498.913L129.756 497.215C116.299 492.427 104.723 484.208 94.0167 483.312C83.7448 482.453 75.0061 484.666 67.5453 492.278C63.6212 504.535 62.9802 514.097 64.4687 521.517C65.9738 529.017 73.4891 531.238 78.747 535.405C89.4737 543.905 85.4366 541.469 103.195 550.484L114.829 555.446L124.696 557.34C140.556 558.215 158.013 552.494 172.274 543.312C179.378 538.738 186.168 530.891 190.652 525.702C195.119 520.534 199.466 510.255 200.144 506.215Z" fill="#87CFE5" stroke="#0076B8" stroke-width="7"/>
<path d="M107.263 499.572C107.553 499.687 107.887 499.687 108.187 499.584C108.485 499.48 108.726 499.281 108.858 499.021C108.992 498.761 109.008 498.458 108.908 498.169C108.809 497.881 108.602 497.63 108.329 497.483C107.74 497.166 107.168 496.862 106.575 496.554C96.2463 490.737 83.2042 487.978 71.0645 488.74C70.3755 488.765 69.7211 488.793 69.0322 488.83C69.3892 491.153 69.7462 493.476 70.1033 495.8C70.7403 495.69 71.3441 495.589 71.9793 495.489C83.1981 493.495 94.5079 494.435 105.439 498.87C106.053 499.101 106.649 499.33 107.263 499.572Z" fill="#0074AB"/>
<path d="M104.605 514.212C104.951 514.239 105.307 514.142 105.593 513.955C105.877 513.767 106.068 513.506 106.125 513.214C106.182 512.923 106.101 512.622 105.902 512.365C105.704 512.108 105.405 511.916 105.068 511.844C104.454 511.715 103.874 511.594 103.258 511.47C92.5016 509.087 80.5598 508.824 69.499 509.934C68.8704 509.988 68.2711 510.039 67.6438 510.095C66.5238 510.192 65.5327 510.665 64.8968 511.452C64.2609 512.237 64.0325 513.27 64.2526 514.284C64.4727 515.298 65.1211 516.196 66.0444 516.739C66.9701 517.284 68.0955 517.429 69.1821 517.185C69.7792 517.052 70.3482 516.925 70.943 516.795C81.4527 514.344 91.8255 513.18 102.785 514.081C103.402 514.123 103.987 514.164 104.605 514.212Z" fill="#007BA4"/>
<path d="M420.504 371.318C430.596 367.046 442.818 369.929 454.516 378.377C466.21 386.822 477.184 400.713 484.463 417.906C492.663 437.273 496.478 454.12 495.004 467.413C493.556 480.489 486.949 490.521 473.403 496.257C463.314 500.528 451.468 497.653 440.126 489.175C428.771 480.688 418.077 466.671 410.66 449.154C403.244 431.637 400.621 414.203 402.43 400.143C404.236 386.098 410.416 375.59 420.504 371.318Z" fill="#FEFEFE" stroke="#0F79AB" stroke-width="6"/>
<path d="M340.335 396.355C364.141 386.082 393.772 399.683 405.596 427.081C412.267 442.539 414.329 456.339 411.043 467.807C407.803 479.115 399.194 488.732 383.182 495.642C359.467 505.876 331.41 492.242 319.351 464.299C307.292 436.356 316.62 406.589 340.335 396.355Z" fill="#FEFEFE" stroke="#0F79AB" stroke-width="6"/>
<path d="M431.217 398.834C431.217 409.052 426.171 417.334 419.428 417.334C412.684 417.334 406.428 409.052 406.428 398.834C403.928 388.437 409.684 379.937 416.428 379.937C423.928 381.937 431.217 388.197 431.217 398.834Z" fill="#2B2A28"/>
<path d="M417.428 562.41C425.861 536.288 426.483 520.215 421.428 489.41" stroke="#0875A4" stroke-width="7" stroke-linecap="round"/>
<path d="M419.928 500.492C430.973 500.492 439.928 490.854 439.928 478.964C439.928 467.075 430.973 457.437 419.928 457.437C408.882 457.437 399.928 467.075 399.928 478.964C399.928 490.854 408.882 500.492 419.928 500.492Z" fill="#ED6F7A"/>
<path d="M381.927 425.437C390.428 426.937 393.927 422.437 393.927 413.937C393.927 407.586 381.927 397.937 375.927 399.937C367.928 399.937 367.928 405.586 367.928 411.937C367.928 418.288 375.3 425.437 381.927 425.437Z" fill="#2B2A28"/>
<path d="M293.928 519.709C369.845 582.905 474.466 584.23 520.725 480.437" stroke="#0875A4" stroke-width="7" stroke-linecap="round"/>
<path d="M443.39 560.098L438.27 561.347L433.667 562.572L427.509 563.849L423.881 564.024L421.099 564.158L419.123 565.9L415.409 586.008L414.652 591.057L415.919 594.169L418.771 596.555L423.193 597.676L427.317 598.232L431.953 597.305L436.919 594.313L442.28 588.701L447.261 580.462L451.883 571.217L455.058 563.787L457.135 555.425L443.39 560.098Z" fill="#FEFEFE"/>
<path d="M419.123 565.9L421.099 564.158L423.881 564.024L427.509 563.849L433.667 562.572L438.27 561.347L443.39 560.098L457.135 555.425L455.058 563.787L451.883 571.217L447.261 580.462L442.28 588.701L436.919 594.313L431.953 597.305L427.317 598.232L423.193 597.676L418.771 596.555L415.919 594.169L414.652 591.057L415.409 586.008L419.123 565.9ZM419.123 565.9L419.766 564.746" stroke="#0875A4" stroke-width="5"/>
<path d="M408.309 565.087L408.229 565.101L408.149 565.106L394.779 565.956L394.71 565.961L394.642 565.959L383.099 565.672L383.055 565.671L375.038 565.85L372.044 566.66L369.983 576.149L369.916 588.649L371.892 594.918L376.046 599.432L379.99 602.055L385.864 603.13L391.297 603.567L397.285 602.267L403.531 598.566L410.071 591.829L414.779 581.711L418.402 571.445L419.059 563.276L408.309 565.087Z" fill="#FEFEFE" stroke="#0578A5" stroke-width="6"/>
<path d="M277.928 531.437C289.967 521.335 291.91 513.212 290.928 496.437" stroke="#0875A4" stroke-width="7" stroke-linecap="round"/>
<path d="M518.389 454.242C516.479 471.107 519.147 478.561 532.389 487.242" stroke="#0875A4" stroke-width="7" stroke-linecap="round"/>
<path d="M332.387 279.634C343.167 275.839 351.44 275.078 357.21 276.128C362.939 277.171 365.96 279.909 367.14 283.138L367.326 283.644L367.653 284.07C369.986 287.105 371.41 289.504 372.182 291.377C372.955 293.252 372.984 294.375 372.858 295.001C372.663 295.973 371.691 297.217 367.859 298.351C364.201 299.435 359.409 299.99 353.991 300.71C348.775 301.402 343.045 302.245 338.223 304.007C333.752 305.641 329.148 307.532 324.841 309.247C320.482 310.982 316.42 312.54 312.838 313.609C309.178 314.701 306.413 315.156 304.533 314.982C303.641 314.9 303.141 314.691 302.865 314.507C302.717 314.408 302.568 314.275 302.431 314.055C302.602 305.543 305.756 299.514 310.847 294.385C316.206 288.986 323.656 284.625 332.387 279.634Z" fill="#86D0E3" stroke="#0C74AB" stroke-width="7"/>
<path d="M307.005 241.852C313.302 233.085 326.919 228.283 338.988 229.5C345.011 230.107 350.2 232.183 353.67 235.57C357.036 238.857 359.103 243.68 358.443 250.605L358.422 250.823L358.429 251.041C358.679 259.417 358.369 264.273 357.597 267.201C357.229 268.602 356.797 269.381 356.41 269.855C356.044 270.304 355.578 270.655 354.835 270.981C354.028 271.335 352.99 271.62 351.491 271.955C350.09 272.269 348.218 272.639 346.238 273.137C342.131 274.17 337.108 275.847 331.127 279.435C319.96 286.136 313.604 292.322 309.437 295.736C307.245 297.531 306.045 298.225 305.183 298.426C305.004 298.467 304.799 298.497 304.544 298.477C306.86 288.363 306.466 277.371 306.013 267.626C305.761 262.18 305.487 257.15 305.574 252.611C305.656 248.273 306.07 244.675 307.005 241.852Z" fill="#86D0E3" stroke="#0C74AB" stroke-width="7"/>
<path d="M272.162 167.629C273.072 166.363 274.256 165.284 275.834 164.07C276.631 163.458 277.469 162.854 278.419 162.161C279.316 161.507 280.283 160.793 281.282 160C284.55 157.788 287.329 155.789 290.037 154.154C292.756 152.513 295.003 151.5 296.979 151.167C298.803 150.859 300.473 151.112 302.259 152.261C304.17 153.49 306.397 155.868 308.897 160.19C309.353 160.979 309.398 161.729 308.899 162.822C308.322 164.085 307.076 165.589 305.15 167.253C301.317 170.562 295.907 173.58 291.741 175.871C288.899 177.434 285.879 179.921 283.194 182.12C280.351 184.449 277.827 186.504 275.59 187.76C273.176 189.113 272.413 188.795 272.277 188.715C271.911 188.5 270.646 187.248 269.907 182.042C269.209 173.753 270.458 170.001 272.162 167.629Z" fill="#86D0E3" stroke="#0C74AB" stroke-width="7"/>
<path d="M277.174 206.139C273.14 194.755 274.762 189.521 277.121 186.439C278.477 184.669 280.326 183.263 282.558 181.809C284.575 180.495 287.244 178.952 289.358 177.215C295.439 172.875 301.829 169.434 307.874 168.711C313.594 168.026 319.331 169.721 324.666 176.575C327.796 180.598 329.726 183.711 330.786 186.082C331.868 188.502 331.875 189.768 331.755 190.304C331.683 190.623 331.524 190.96 330.73 191.344C329.811 191.788 328.344 192.119 326.262 192.252C322.086 192.518 316.868 191.941 311.726 191.487C309.243 191.268 306.768 191.08 304.621 191.088C302.617 191.095 300.298 191.259 298.485 192.143C291.338 195.631 287.467 199.843 285.558 204.143C284.43 206.685 284.07 209.093 283.992 211.076C282.297 209.884 280.086 208.269 277.174 206.139Z" fill="#86D0E3" stroke="#0C74AB" stroke-width="7"/>
<path d="M291.11 203.806C291.91 202.028 293.133 200.607 294.747 199.183C295.565 198.462 296.448 197.769 297.423 197.016C298.33 196.316 299.334 195.55 300.316 194.738C302.705 193.056 306.173 192.03 310.354 191.835C314.537 191.639 319.177 192.29 323.599 193.696C332.711 196.593 339.622 202.206 341.007 208.67C342.421 215.268 342.291 218.902 341.673 220.859C341.39 221.755 341.022 222.242 340.68 222.549C340.318 222.874 339.802 223.159 339.012 223.384C337.201 223.901 335.081 223.874 331.956 224.06C329.174 224.226 325.656 224.585 322.603 226.451C317.102 229.813 313.491 232.605 310.964 234.491C309.67 235.456 308.794 236.081 308.086 236.484C307.402 236.875 307.14 236.899 307.095 236.901C307.055 236.904 306.447 236.963 303.888 234.745C301.527 232.7 298.459 229.64 293.427 224.95C289.134 213.099 289.563 207.241 291.11 203.806Z" fill="#86D0E3" stroke="#0C74AB" stroke-width="7"/>
<path d="M252.87 151.816C252.687 146.714 254.428 144.351 255.886 143.045C256.759 142.264 257.676 141.737 258.589 141.226C258.966 141.015 259.576 140.681 260.057 140.332C260.294 140.16 260.663 139.869 261.007 139.451C266.512 136.069 273.023 133.666 279.26 133.804C285.506 133.942 291.793 136.619 296.933 144.258C296.924 144.386 296.872 144.666 296.647 145.165C296.158 146.246 295.137 147.664 293.603 149.266C290.56 152.443 286.214 155.61 282.68 157.417C279.922 158.827 277.303 161.122 275.285 162.709C273.032 164.48 271.261 165.622 269.512 165.998C268.03 166.317 266.132 166.169 263.396 164.197C260.629 162.203 257.172 158.44 252.87 151.816Z" fill="#86D0E3" stroke="#0C74AB" stroke-width="7"/>
<path d="M113.913 116.594C113.826 114.824 115.03 111.93 118.769 108.465C122.422 105.079 127.958 101.681 134.98 99.0219C148.779 93.796 167.852 91.594 188.444 97.5025L189.426 97.7906C195.701 99.8771 221.583 108.028 242.844 117.272C253.63 121.962 262.786 126.751 267.658 130.973C270.217 133.19 270.798 134.579 270.831 135.107C270.838 135.217 270.837 135.372 270.598 135.681C270.305 136.061 269.656 136.645 268.337 137.318C262.856 140.112 259.129 142.852 256.835 145.653C254.442 148.576 253.598 151.598 254.022 154.557C254.417 157.303 255.853 159.551 257.019 161.148C257.593 161.935 258.25 162.753 258.684 163.317C258.75 163.403 258.812 163.487 258.871 163.565C258.759 163.597 258.638 163.63 258.509 163.664C257.43 163.942 255.925 164.214 253.868 164.463C245.558 165.468 229.73 165.938 200.927 165.937C198.697 165.937 192.346 165.163 183.808 163.298C175.363 161.454 165.038 158.598 154.913 154.56C144.761 150.512 134.974 145.34 127.476 138.932C120.019 132.559 115.044 125.162 113.913 116.594Z" fill="#86D0E3" stroke="#0C74AB" stroke-width="7"/>
<path d="M304.668 40.7366C308.151 43.3879 311.924 47.2643 315.158 52.028C321.622 61.5486 325.647 74.1438 321.623 87.2727C314.075 105.899 307.566 123.337 302.038 134.274C300.666 136.988 299.402 139.205 298.246 140.888C297.107 142.544 296.229 143.445 295.648 143.857C295.426 143.578 295.069 143.041 294.641 142.049C291.575 134.952 283.9 131.583 276.487 129.247C272.657 128.039 268.472 126.993 264.474 125.93C260.414 124.851 256.477 123.737 252.866 122.355C245.572 119.564 240.321 115.942 238.09 110.18C235.831 104.343 236.248 95.2228 243.106 80.4069C243.64 79.2517 245.768 75.9923 249.304 71.5333C252.757 67.1788 257.354 61.928 262.615 56.837C267.886 51.7372 273.755 46.8634 279.749 43.2043C285.732 39.5519 291.609 37.2525 296.997 36.939C297.565 36.9545 298.539 37.1627 299.917 37.7933C301.31 38.4304 302.928 39.4113 304.668 40.7366Z" fill="#86D0E3" stroke="#0082AA" stroke-width="7"/>
</g>
<defs>
<clipPath id="clip0_465_84">
<rect width="700" height="800" fill="white"/>
</clipPath>
<clipPath id="clip1_465_84">
<rect width="148.65" height="77.5278" fill="white" transform="matrix(-0.920118 -0.391642 -0.391642 0.920118 551.066 671.655)"/>
</clipPath>
<clipPath id="clip2_465_84">
<rect width="180.151" height="95.5347" fill="white" transform="translate(254.258 655.887) rotate(-11.4862)"/>
</clipPath>
</defs>
</svg>
