<svg width="700" height="800" viewBox="0 0 700 800" fill="none" xmlns="http://www.w3.org/2000/svg">
<g clip-path="url(#clip0_465_332)">
<path d="M549.472 493.145C549.597 486.824 557.257 482.902 559.464 483.48C559.641 480.706 560.168 472.14 565.325 476.311C569.832 493.24 575.027 497.078 582.576 517.531L589.661 527.947L602.105 540.479C613.978 547.385 627.345 550.649 634.55 558.044C641.463 565.139 645.079 573.096 643.766 583.623C636.727 594.546 629.762 601.263 623.15 604.995C616.465 608.768 610.183 604.616 603.778 603.417C590.712 600.969 595.043 602.387 577.301 595.035L566.404 589.602L558.941 583.484C548.616 572.234 542.391 555.49 540.774 538.87C539.968 530.59 541.87 520.41 543.132 513.682C544.389 506.98 546.778 496.287 549.472 493.145Z" fill="#87CFE5" stroke="#0076B8" stroke-width="7"/>
<path d="M614.723 558.023C614.466 557.887 614.269 557.645 614.173 557.36C614.077 557.076 614.089 556.771 614.21 556.504C614.331 556.236 614.554 556.026 614.833 555.909C615.112 555.792 615.425 555.778 615.698 555.879C616.286 556.099 616.854 556.315 617.437 556.543C627.943 560.22 637.699 567.87 644.229 577.174C644.613 577.691 644.975 578.183 645.351 578.707C643.363 579.971 641.375 581.236 639.387 582.5C639.097 581.966 638.821 581.462 638.525 580.936C633.478 571.491 626.131 563.905 616.33 558.885C615.793 558.591 615.268 558.309 614.723 558.023Z" fill="#0074AB"/>
<path d="M605.071 569.548C604.848 569.315 604.714 568.993 604.69 568.663C604.667 568.334 604.755 568.024 604.945 567.791C605.135 567.559 605.413 567.421 605.726 567.396C606.039 567.372 606.361 567.463 606.613 567.66C607.072 568.02 607.505 568.362 607.96 568.728C616.088 574.966 623.287 583.455 628.919 592.205C629.246 592.696 629.558 593.164 629.883 593.656C630.465 594.532 630.683 595.561 630.453 596.538C630.225 597.513 629.568 598.357 628.663 598.861C627.758 599.366 626.69 599.485 625.733 599.171C624.774 598.857 624.003 598.136 623.553 597.188C623.305 596.668 623.069 596.172 622.82 595.655C618.538 586.426 613.35 578.14 606.238 570.782C605.844 570.362 605.471 569.965 605.071 569.548Z" fill="#007BA4"/>
<g clip-path="url(#clip1_465_332)">
<path d="M296.474 661.759C309.181 643.781 320.859 637.476 330.957 636.481C341.419 635.45 351.427 639.97 360.485 646.372C369.847 652.989 376.455 658.941 376.759 669.784C377.076 681.12 370.557 699.337 348.095 731.117C332.674 752.935 320.697 767.989 311.155 778.132C301.551 788.34 294.786 793.164 289.803 795.129C285.171 796.956 281.691 796.468 278.124 794.721C276.242 793.8 274.355 792.531 272.261 790.99C270.294 789.542 267.885 787.65 265.547 785.997C262.637 783.94 260.532 778.495 260.406 768.828C260.283 759.495 262.03 747.562 265.237 734.618C271.667 708.666 283.643 679.911 296.474 661.759Z" fill="#87CFE5" stroke="#0178B2" stroke-width="9"/>
<path d="M346.658 643.737C390.083 658.36 371.255 693.928 344.633 731.593C318.011 769.257 300.47 788.768 290.847 790.001C276.892 799.131 317.94 749.814 334.72 720.767C393.253 637.955 297.341 637.536 346.658 643.737Z" fill="#31A7BA"/>
</g>
<path d="M380.428 291.101C485.665 291.101 570.928 372.686 570.928 473.269C570.928 573.851 485.665 655.437 380.428 655.437C275.19 655.437 189.928 573.851 189.928 473.269C189.928 372.686 275.19 291.101 380.428 291.101Z" fill="#86D0E3" stroke="#0C74AB" stroke-width="7"/>
<path d="M510.85 599.995C475.42 638.606 409.695 653.952 384.021 651.477C274.137 657.417 191.467 564.249 194.035 471.784C195.643 413.867 180.684 550.493 323.431 608.905C399.939 646.032 510.85 599.995 510.85 599.995Z" fill="#37B4CA"/>
<path d="M517.898 518.295C501.513 520.938 492.522 541.258 488.423 548.506C484.177 556.015 482.215 577.447 483.435 586.773C481.335 611.267 502.026 648.202 516.084 641.656C548.281 639.139 530.143 600.368 543.294 600.368C563.179 597.16 575.491 593.319 585.014 584.256C595.129 580.949 596.351 570.157 598.848 565.156C604.144 554.548 600.919 561.949 600.958 558.576C600.979 556.797 602.352 552.471 602.029 550.292C601.725 548.244 601.273 545.69 600.958 543.283C600.566 540.287 599.525 541.96 594.537 531.89C588.188 526.351 591.18 519.454 567.781 513.26C548.176 508.069 531.049 513.26 517.898 518.295Z" fill="#87CFE5" stroke="#0178B2" stroke-width="9"/>
<path d="M525.154 519.805C494.064 530.706 489.783 557.569 487.969 564.618C486.155 571.667 497.596 538.939 526.515 529.875C526.515 529.875 553.27 525.847 580.025 522.826C578.592 520.64 551.003 510.742 525.154 519.805Z" fill="#31A7BA"/>
<path d="M541.311 598.104C540.714 598.057 539.337 598.299 536.732 599.527C534.321 600.664 531.132 602.513 526.977 605.277C522.758 612.985 520.648 616.983 519.132 620.791C517.581 624.682 516.631 628.416 514.745 635.866C514.301 637.62 514.075 638.974 514.006 639.994C513.936 641.036 514.042 641.577 514.131 641.813C514.136 641.827 514.142 641.838 514.147 641.848C514.239 641.854 514.43 641.853 514.762 641.775C515.905 641.506 517.658 640.622 520.004 639.072C522.285 637.566 524.884 635.597 527.663 633.408L527.909 633.215L528.081 633.132C528.117 633.107 528.183 633.058 528.275 632.979C528.531 632.757 529.005 632.288 529.611 631.419C530.776 629.748 532.428 626.598 533.935 620.926C533.827 620.411 533.835 619.927 533.862 619.575C533.92 618.826 534.117 618.034 534.345 617.297C534.805 615.811 535.564 614.014 536.366 612.2C538.039 608.412 539.953 604.394 540.89 601.204C541.31 599.775 541.427 598.841 541.393 598.315L541.37 598.111C541.352 598.108 541.333 598.106 541.311 598.104Z" fill="#31A7BA" stroke="#0178B2" stroke-width="5"/>
<path d="M366.001 315C376.445 302.776 383.926 296.13 397.464 299.003" stroke="#025081" stroke-width="13" stroke-linecap="round"/>
<path d="M452 308.932C469.059 303.464 477.218 305.185 488.909 317.999" stroke="#025081" stroke-width="16" stroke-linecap="round"/>
<path d="M214.896 469.777C211.99 465.578 196.017 451.294 193.664 451.382C190.799 451.489 193.522 456.796 188.677 467.977C179.735 483.527 191.426 467.989 178.524 486.322L168.72 494.96L153.013 504.504C139.354 508.681 125.16 508.981 116.029 514.643C107.269 520.075 101.571 527.061 100.117 537.62C104.272 549.801 109.457 557.861 115.074 562.931C120.753 568.057 128.112 565.361 134.817 565.573C148.497 566.004 143.803 566.454 163.436 563.109L175.734 560.158L184.787 555.798C198.043 547.048 208.651 532.049 214.628 516.177C217.606 508.269 218.382 497.921 218.889 491.082C219.395 484.27 216.759 473.425 214.896 469.777Z" fill="#87CFE5" stroke="#0076B8" stroke-width="7"/>
<path d="M136.356 519.805C136.657 519.723 136.926 519.525 137.105 519.264C137.283 519.002 137.357 518.699 137.309 518.411C137.261 518.122 137.093 517.87 136.841 517.697C136.589 517.525 136.274 517.447 135.967 517.491C135.305 517.588 134.664 517.685 134.005 517.791C122.244 519.277 110.127 524.835 100.834 532.682C100.296 533.113 99.787 533.526 99.2556 533.966C100.927 535.618 102.599 537.271 104.27 538.924C104.716 538.456 105.141 538.015 105.591 537.557C113.411 529.268 123.052 523.282 134.473 520.328C135.104 520.148 135.719 519.977 136.356 519.805Z" fill="#0074AB"/>
<path d="M142.948 533.145C143.242 532.96 143.469 532.669 143.587 532.349C143.703 532.029 143.701 531.705 143.573 531.437C143.445 531.169 143.201 530.976 142.888 530.888C142.576 530.8 142.221 530.824 141.908 530.967C141.338 531.229 140.8 531.478 140.232 531.746C130.174 536.243 120.429 543.15 112.209 550.634C111.736 551.051 111.285 551.449 110.815 551.869C109.974 552.614 109.46 553.585 109.419 554.596C109.375 555.605 109.808 556.571 110.589 557.253C111.37 557.936 112.426 558.271 113.491 558.156C114.559 558.042 115.549 557.489 116.276 556.645C116.677 556.182 117.057 555.74 117.458 555.282C124.436 547.05 132.071 539.933 141.408 534.123C141.929 533.79 142.422 533.474 142.948 533.145Z" fill="#007BA4"/>
<path d="M457.076 319.336C467.933 317.846 478.979 323.821 488.065 335.03C497.148 346.235 504.114 362.51 506.652 381.007C509.511 401.843 508.794 419.102 503.901 431.549C499.089 443.793 490.091 451.753 475.518 453.752C464.664 455.241 453.979 449.372 445.244 438.227C436.499 427.07 429.836 410.747 427.25 391.901C424.665 373.055 426.685 355.541 432.102 342.441C437.513 329.355 446.222 320.825 457.076 319.336Z" fill="#FEFEFE" stroke="#0F79AB" stroke-width="6"/>
<path d="M373.15 322.571C398.813 318.87 423.865 339.736 428.124 369.271C430.528 385.935 428.915 399.794 422.749 410.007C416.669 420.076 405.847 427.112 388.587 429.602C363.022 433.289 339.498 412.802 335.154 382.68C330.809 352.557 347.585 326.258 373.15 322.571Z" fill="#FEFEFE" stroke="#0F79AB" stroke-width="6"/>
<path d="M460.232 348.694C457.565 358.557 450.531 365.235 444.021 363.474C437.512 361.713 433.635 352.085 436.303 342.222C436.604 331.532 444.381 324.83 450.891 326.591C457.608 330.48 463.01 338.426 460.232 348.694Z" fill="#2B2A28"/>
<path d="M406.494 514.532C422.84 489.452 428.51 472.75 433.373 439" stroke="#0875A4" stroke-width="7" stroke-linecap="round"/>
<path d="M422.791 443.878C433.454 446.762 444.614 439.796 447.718 428.319C450.822 416.842 444.695 405.2 434.033 402.316C423.37 399.432 412.21 406.398 409.106 417.875C406.001 429.352 412.128 440.994 422.791 443.878Z" fill="#ED6F7A"/>
<path d="M405.705 361.504C413.52 365.172 418.073 361.741 420.292 353.536C421.95 347.406 412.886 334.958 406.571 335.322C398.85 333.234 397.375 338.686 395.717 344.817C394.058 350.948 399.308 359.774 405.705 361.504Z" fill="#2B2A28"/>
<path d="M288.201 432.386C345.648 512.74 446.527 540.506 517.553 451.804" stroke="#0875A4" stroke-width="7" stroke-linecap="round"/>
<path d="M422.572 509.294L417.302 509.206L412.539 509.226L406.258 508.902L402.704 508.153L399.979 507.579L397.626 508.764L388.943 527.277L386.932 531.969L387.371 535.301L389.525 538.331L393.52 540.535L397.369 542.117L402.088 542.393L407.65 540.757L414.257 536.684L421.162 529.974L427.973 522.2L432.925 515.816L437.051 508.253L422.572 509.294Z" fill="#FEFEFE"/>
<path d="M397.626 508.764L399.979 507.579L402.704 508.153L406.258 508.902L412.539 509.226L417.302 509.206L422.572 509.294L437.051 508.253L432.925 515.816L427.973 522.2L421.162 529.974L414.257 536.684L407.65 540.757L402.088 542.393L397.369 542.117L393.52 540.535L389.525 538.331L387.371 535.301L386.932 531.969L388.943 527.277L397.626 508.764ZM397.626 508.764L398.54 507.81" stroke="#0875A4" stroke-width="5"/>
<path d="M387.371 505.24L387.29 505.233L387.211 505.217L374.062 502.656L373.994 502.643L373.928 502.624L362.833 499.424L362.791 499.412L354.99 497.556L351.889 497.581L347.493 506.239L344.263 518.315L344.589 524.881L347.464 530.3L350.616 533.836L356.027 536.362L361.172 538.16L367.294 538.418L374.274 536.42L382.306 531.557L389.422 522.961L395.525 513.945L398.229 506.209L387.371 505.24Z" fill="#FEFEFE" stroke="#0578A5" stroke-width="6"/>
<path d="M269.754 439.681C283.958 432.955 287.894 425.589 291.19 409.112" stroke="#0875A4" stroke-width="7" stroke-linecap="round"/>
<path d="M521.924 425.871C515.807 441.704 516.501 449.589 527.114 461.34" stroke="#0875A4" stroke-width="7" stroke-linecap="round"/>
<path d="M354.786 235.734C361.002 227.38 373.988 222.869 385.279 224.063C390.916 224.66 395.681 226.644 398.79 229.823C401.796 232.897 403.604 237.439 402.773 244.038L402.746 244.252L402.745 244.468C402.727 252.47 402.288 257.098 401.473 259.885C401.083 261.217 400.653 261.957 400.274 262.407C399.917 262.833 399.471 263.162 398.772 263.465C398.01 263.795 397.03 264.061 395.607 264.376C394.277 264.669 392.489 265.019 390.6 265.489C386.675 266.465 381.865 268.055 376.094 271.469C365.329 277.838 359.129 283.732 355.089 286.978C352.957 288.691 351.814 289.337 351.025 289.518C350.961 289.532 350.893 289.545 350.819 289.554C353.245 279.962 353.203 269.556 353.073 260.329C352.999 255.122 352.894 250.319 353.114 245.986C353.323 241.848 353.82 238.422 354.786 235.734Z" fill="#86D0E3" stroke="#0C74AB" stroke-width="7"/>
<path d="M303.824 215.25C303.521 213.72 303.542 212.119 303.735 210.137C303.832 209.137 303.964 208.113 304.107 206.945C304.242 205.844 304.381 204.65 304.485 203.378C305.103 199.481 305.542 196.086 306.199 192.992C306.858 189.885 307.654 187.552 308.76 185.882C309.782 184.339 311.108 183.293 313.167 182.774C315.371 182.219 318.628 182.217 323.492 183.345C324.379 183.551 324.959 184.031 325.415 185.142C325.943 186.426 326.19 188.364 326.089 190.907C325.886 195.967 324.393 201.979 323.219 206.586C322.419 209.73 322.171 213.634 321.942 217.097C321.7 220.763 321.477 224.011 320.864 226.502C320.204 229.19 319.45 229.529 319.298 229.574C318.891 229.694 317.113 229.763 312.807 226.745C306.277 221.591 304.391 218.115 303.824 215.25Z" fill="#86D0E3" stroke="#0C74AB" stroke-width="7"/>
<path d="M336.959 234.508C325.687 230.173 322.764 225.538 321.957 221.741C321.493 219.56 321.627 217.241 321.973 214.6C322.286 212.213 322.848 209.182 322.903 206.446C323.559 199.004 325.099 191.912 328.479 186.849C331.678 182.057 336.695 178.8 345.372 179.203C350.463 179.439 354.083 179.998 356.574 180.733C359.117 181.484 360.083 182.302 360.412 182.741C360.608 183.003 360.76 183.343 360.536 184.197C360.276 185.184 359.573 186.513 358.321 188.181C355.808 191.528 351.977 195.118 348.29 198.729C346.509 200.474 344.757 202.232 343.367 203.868C342.07 205.395 340.686 207.264 340.18 209.216C338.183 216.914 338.867 222.595 340.893 226.84C342.091 229.35 343.688 231.189 345.143 232.538C343.135 233.05 340.47 233.68 336.959 234.508Z" fill="#86D0E3" stroke="#0C74AB" stroke-width="7"/>
<path d="M339.35 213.146C339.632 211.217 340.417 209.515 341.579 207.702C342.167 206.784 342.826 205.875 343.557 204.884C344.237 203.962 344.992 202.95 345.713 201.9C347.549 199.626 350.602 197.688 354.569 196.352C358.538 195.016 363.178 194.368 367.816 194.506C377.374 194.791 385.56 198.291 388.666 204.127C391.837 210.083 392.709 213.613 392.652 215.665C392.626 216.604 392.406 217.173 392.161 217.562C391.902 217.974 391.484 218.39 390.787 218.823C389.186 219.818 387.141 220.373 384.187 221.411C381.558 222.334 378.274 223.644 375.85 226.276C371.483 231.019 368.777 234.696 366.864 237.202C365.885 238.486 365.214 239.327 364.645 239.909C364.093 240.473 363.848 240.567 363.805 240.582C363.768 240.595 363.2 240.819 360.13 239.39C357.298 238.071 353.509 235.97 347.383 232.842C340.001 222.624 338.805 216.873 339.35 213.146Z" fill="#86D0E3" stroke="#0C74AB" stroke-width="7"/>
<path d="M276.871 224.673C272.484 222.061 271.441 219.318 271.135 217.385C270.952 216.228 271.005 215.172 271.071 214.127C271.098 213.696 271.148 213.002 271.115 212.409C271.099 212.117 271.055 211.649 270.89 211.134C271.031 204.674 272.541 197.9 276.037 192.733C279.539 187.559 285.196 183.726 294.401 183.547C294.504 183.624 294.711 183.819 295.009 184.279C295.653 185.276 296.291 186.902 296.805 189.06C297.826 193.339 298.132 198.708 297.735 202.658C297.425 205.739 297.935 209.184 298.174 211.74C298.441 214.594 298.441 216.701 297.81 218.374C297.274 219.792 296.121 221.308 292.981 222.538C289.805 223.782 284.77 224.649 276.871 224.673Z" fill="#86D0E3" stroke="#0C74AB" stroke-width="7"/>
<path d="M226.276 357.163C224.518 356.944 221.874 355.259 219.105 350.979C216.4 346.797 214.007 340.758 212.598 333.383C209.829 318.89 210.947 299.722 220.316 280.458L220.769 279.54C223.906 273.718 236.396 249.628 249.166 230.278C255.645 220.462 261.941 212.269 266.94 208.197C269.564 206.059 271.033 205.726 271.558 205.785C271.669 205.797 271.821 205.824 272.084 206.113C272.408 206.467 272.872 207.207 273.307 208.623C275.114 214.503 277.17 218.646 279.534 221.389C282.001 224.25 284.832 225.603 287.82 225.694C290.594 225.779 293.055 224.752 294.829 223.878C295.703 223.448 296.623 222.942 297.252 222.613C297.349 222.562 297.442 222.516 297.529 222.471C297.542 222.587 297.554 222.711 297.564 222.845C297.653 223.955 297.661 225.484 297.552 227.554C297.109 235.912 294.844 251.585 289.878 279.956C289.494 282.153 287.636 288.276 284.328 296.364C281.056 304.366 276.463 314.043 270.74 323.321C265.003 332.623 258.222 341.372 250.617 347.654C243.055 353.901 234.91 357.526 226.276 357.163Z" fill="#86D0E3" stroke="#0C74AB" stroke-width="7"/>
<path d="M184.433 156.188C187.644 153.214 192.113 150.166 197.363 147.801C207.855 143.075 220.956 141.281 233.195 147.508C250.241 158.153 266.296 167.571 276.116 174.901C278.553 176.72 280.519 178.348 281.978 179.777C283.413 181.184 284.15 182.204 284.455 182.847C284.142 183.018 283.551 183.277 282.501 183.528C274.981 185.324 270.339 192.304 266.76 199.203C264.911 202.768 263.159 206.709 261.423 210.464C259.66 214.278 257.885 217.964 255.901 221.283C251.894 227.987 247.421 232.535 241.361 233.739C235.222 234.958 226.31 232.975 212.898 223.667C211.852 222.941 209.008 220.283 205.225 216.032C201.531 211.88 197.152 206.447 193.044 200.387C188.929 194.316 185.139 187.694 182.568 181.159C180.002 174.636 178.75 168.451 179.37 163.089C179.483 162.533 179.856 161.609 180.714 160.36C181.582 159.099 182.827 157.674 184.433 156.188Z" fill="#86D0E3" stroke="#0082AA" stroke-width="7"/>
<path d="M384.117 268.827C393.118 268.237 399.489 269.523 403.554 271.627C407.573 273.708 409.244 276.497 409.466 279.29L409.506 279.797L409.689 280.271C410.848 283.279 411.432 285.544 411.63 287.218C411.829 288.903 411.609 289.752 411.427 290.136C411.23 290.551 410.614 291.301 407.519 291.341C404.549 291.379 400.815 290.741 396.429 290.068C392.258 289.429 387.552 288.774 383.335 289.109C379.513 289.412 375.529 289.896 371.848 290.301C368.108 290.712 364.673 291.043 361.72 291.088C358.686 291.134 356.589 290.863 355.325 290.348C354.744 290.112 354.499 289.885 354.397 289.76C354.357 289.711 354.309 289.642 354.267 289.529C356.174 282.766 359.789 278.716 364.624 275.808C369.78 272.706 376.32 270.889 384.117 268.827Z" fill="#86D0E3" stroke="#0C74AB" stroke-width="7"/>
</g>
<defs>
<clipPath id="clip0_465_332">
<rect width="700" height="800" fill="white"/>
</clipPath>
<clipPath id="clip1_465_332">
<rect width="180.151" height="91.8863" fill="white" transform="translate(220 761.11) rotate(-54.7469)"/>
</clipPath>
</defs>
</svg>
