<svg width="700" height="800" viewBox="0 0 700 800" fill="none" xmlns="http://www.w3.org/2000/svg">
<g clip-path="url(#clip0_465_280)">
<path d="M549.509 496.134C549.634 489.812 557.294 485.89 559.501 486.468C559.678 483.694 560.205 475.128 565.362 479.3C569.869 496.229 575.064 500.066 582.614 520.519L589.698 530.936L602.142 543.467C614.015 550.373 627.382 553.637 634.587 561.032C641.5 568.127 645.117 576.084 643.803 586.611C636.764 597.534 629.8 604.252 623.187 607.984C616.502 611.756 610.22 607.604 603.815 606.405C590.749 603.957 595.08 605.376 577.338 598.023L566.441 592.59L558.978 586.472C548.653 575.223 542.428 558.478 540.811 541.859C540.005 533.578 541.908 523.398 543.169 516.67C544.426 509.969 546.816 499.275 549.509 496.134Z" fill="#87CFE5" stroke="#0076B8" stroke-width="7"/>
<path d="M614.762 561.011C614.505 560.875 614.309 560.634 614.212 560.349C614.116 560.064 614.128 559.759 614.249 559.492C614.37 559.225 614.593 559.014 614.872 558.897C615.152 558.78 615.464 558.766 615.737 558.867C616.325 559.087 616.893 559.303 617.476 559.531C627.983 563.208 637.738 570.858 644.268 580.162C644.652 580.679 645.014 581.172 645.39 581.695C643.402 582.959 641.414 584.224 639.426 585.488C639.137 584.954 638.86 584.45 638.564 583.924C633.517 574.48 626.17 566.893 616.369 561.873C615.832 561.58 615.307 561.298 614.762 561.011Z" fill="#0074AB"/>
<path d="M605.11 572.536C604.887 572.302 604.753 571.981 604.729 571.651C604.706 571.322 604.794 571.011 604.984 570.779C605.174 570.547 605.452 570.408 605.765 570.384C606.078 570.36 606.4 570.451 606.652 570.648C607.111 571.008 607.544 571.35 607.999 571.715C616.127 577.954 623.326 586.443 628.958 595.192C629.285 595.683 629.597 596.151 629.922 596.643C630.504 597.52 630.722 598.548 630.492 599.526C630.265 600.501 629.607 601.344 628.702 601.849C627.797 602.354 626.729 602.473 625.773 602.159C624.813 601.845 624.042 601.124 623.592 600.176C623.344 599.656 623.108 599.159 622.859 598.643C618.577 589.414 613.39 581.128 606.277 573.77C605.883 573.35 605.51 572.953 605.11 572.536Z" fill="#007BA4"/>
<g clip-path="url(#clip1_465_280)">
<path d="M274.703 665.778C283.845 645.75 294.148 637.384 303.885 634.528C313.972 631.569 324.646 634.149 334.736 638.755C345.166 643.516 352.766 648.135 355.08 658.733C357.5 669.811 354.483 688.923 338.322 724.326C327.228 748.631 318.26 765.65 310.77 777.391C303.232 789.206 297.482 795.204 292.952 798.062C288.74 800.719 285.23 800.886 281.4 799.833C279.38 799.278 277.289 798.382 274.946 797.257C272.744 796.2 270.025 794.789 267.42 793.6C264.179 792.12 261.098 787.161 259.176 777.686C257.32 768.539 256.817 756.49 257.561 743.175C259.053 716.48 265.472 686 274.703 665.778Z" fill="#87CFE5" stroke="#0178B2" stroke-width="9"/>
<path d="M320.66 638.738C366.047 645.03 354.162 683.479 335.009 725.437C315.855 767.396 302.249 789.828 293.023 792.829C281.009 804.395 312.17 748.305 323.256 716.644C365.367 624.392 271.051 641.816 320.66 638.738Z" fill="#31A7BA"/>
</g>
<path d="M380.467 294.089C485.704 294.089 570.967 375.675 570.967 476.257C570.967 576.84 485.704 658.425 380.467 658.425C275.229 658.425 189.967 576.84 189.967 476.257C189.967 375.675 275.229 294.089 380.467 294.089Z" fill="#86D0E3" stroke="#0C74AB" stroke-width="7"/>
<path d="M510.889 602.983C475.459 641.595 409.734 656.94 384.06 654.465C274.176 660.405 191.506 567.237 194.074 474.772C195.682 416.855 180.723 553.481 323.47 611.893C399.978 649.02 510.889 602.983 510.889 602.983Z" fill="#37B4CA"/>
<path d="M581.938 491.283C565.552 493.926 556.561 514.246 552.462 521.494C548.216 529.003 546.254 550.435 547.474 559.761C545.374 584.256 566.065 621.19 580.123 614.645C612.32 612.127 594.182 573.356 607.333 573.356C627.218 570.149 639.53 566.307 649.053 557.244C659.168 553.937 660.39 543.145 662.887 538.144C668.183 527.536 664.958 534.938 664.997 531.564C665.018 529.785 666.391 525.46 666.068 523.28C665.764 521.232 665.313 518.679 664.998 516.271C664.606 513.275 663.564 514.948 658.576 504.878C652.227 499.339 655.219 492.442 631.82 486.248C612.215 481.058 595.088 486.248 581.938 491.283Z" fill="#87CFE5" stroke="#0178B2" stroke-width="9"/>
<path d="M589.193 492.793C558.103 503.694 553.822 530.557 552.008 537.606C550.194 544.656 561.635 511.927 590.554 502.864C590.554 502.864 617.31 498.836 644.064 495.815C642.631 493.628 615.042 483.73 589.193 492.793Z" fill="#31A7BA"/>
<path d="M605.35 571.092C604.753 571.046 603.376 571.287 600.771 572.515C598.36 573.652 595.171 575.502 591.016 578.265C586.797 585.973 584.687 589.972 583.171 593.779C581.62 597.671 580.67 601.405 578.784 608.854C578.34 610.608 578.114 611.962 578.045 612.982C577.975 614.024 578.081 614.566 578.17 614.801C578.175 614.815 578.181 614.826 578.186 614.837C578.278 614.843 578.469 614.841 578.801 614.763C579.945 614.494 581.697 613.61 584.043 612.061C586.324 610.554 588.923 608.585 591.702 606.397L591.948 606.203L592.12 606.121C592.156 606.095 592.222 606.047 592.314 605.967C592.57 605.746 593.044 605.276 593.65 604.407C594.815 602.736 596.467 599.586 597.974 593.914C597.866 593.399 597.874 592.915 597.901 592.563C597.959 591.814 598.156 591.022 598.384 590.285C598.844 588.799 599.603 587.002 600.405 585.188C602.078 581.401 603.992 577.382 604.929 574.193C605.349 572.764 605.466 571.83 605.432 571.304L605.409 571.099C605.391 571.097 605.372 571.094 605.35 571.092Z" fill="#31A7BA" stroke="#0178B2" stroke-width="5"/>
<path d="M349.575 322.02C358.675 302.511 366.055 292.64 385.495 303.757" stroke="#025081" stroke-width="13" stroke-linecap="round"/>
<path d="M435.039 305.92C452.098 300.453 460.257 302.174 471.948 314.988" stroke="#025081" stroke-width="16" stroke-linecap="round"/>
<path d="M221.721 481.644C218.814 477.445 202.842 463.16 200.488 463.248C197.623 463.355 200.346 468.662 195.501 479.843C186.559 495.393 198.251 479.856 185.348 498.189L175.544 506.826L159.837 516.37C146.178 520.547 131.984 520.847 122.853 526.509C114.093 531.941 108.395 538.927 106.942 549.486C111.096 561.667 116.281 569.727 121.898 574.797C127.578 579.923 134.936 577.227 141.642 577.439C155.321 577.871 150.627 578.32 170.26 574.975L182.559 572.024L191.611 567.664C204.867 558.914 215.475 543.915 221.452 528.043C224.431 520.135 225.206 509.788 225.714 502.948C226.22 496.136 223.583 485.291 221.721 481.644Z" fill="#87CFE5" stroke="#0076B8" stroke-width="7"/>
<path d="M143.179 531.671C143.48 531.59 143.748 531.391 143.927 531.13C144.105 530.868 144.18 530.565 144.131 530.277C144.083 529.989 143.915 529.736 143.663 529.563C143.411 529.391 143.097 529.313 142.789 529.357C142.128 529.454 141.486 529.551 140.827 529.657C129.066 531.143 116.95 536.701 107.656 544.548C107.118 544.98 106.609 545.392 106.078 545.832C107.749 547.485 109.421 549.137 111.092 550.79C111.539 550.322 111.963 549.881 112.414 549.423C120.233 541.134 129.875 535.148 141.295 532.194C141.926 532.014 142.541 531.843 143.179 531.671Z" fill="#0074AB"/>
<path d="M149.77 545.01C150.064 544.825 150.292 544.535 150.409 544.215C150.526 543.895 150.524 543.571 150.396 543.303C150.267 543.035 150.023 542.842 149.71 542.753C149.398 542.666 149.043 542.69 148.73 542.833C148.16 543.095 147.622 543.343 147.054 543.611C136.997 548.109 127.251 555.016 119.031 562.499C118.558 562.917 118.108 563.315 117.637 563.734C116.796 564.48 116.282 565.451 116.241 566.461C116.198 567.47 116.63 568.437 117.411 569.119C118.192 569.802 119.248 570.136 120.313 570.022C121.381 569.908 122.372 569.354 123.099 568.511C123.499 568.048 123.88 567.606 124.28 567.147C131.258 558.915 138.893 551.798 148.23 545.989C148.751 545.655 149.244 545.34 149.77 545.01Z" fill="#007BA4"/>
<path d="M450.111 313.324C460.969 311.834 472.014 317.809 481.1 329.018C490.183 340.223 497.15 356.498 499.687 374.995C502.546 395.831 501.829 413.09 496.936 425.538C492.124 437.781 483.127 445.741 468.553 447.74C457.699 449.229 447.015 443.36 438.279 432.215C429.534 421.058 422.871 404.735 420.285 385.889C417.7 367.043 419.72 349.529 425.137 336.429C430.548 323.343 439.257 314.813 450.111 313.324Z" fill="#FEFEFE" stroke="#0F79AB" stroke-width="6"/>
<path d="M366.187 316.559C391.85 312.858 416.902 333.724 421.161 363.259C423.565 379.923 421.952 393.782 415.786 403.995C409.706 414.064 398.884 421.1 381.624 423.589C356.059 427.277 332.535 406.79 328.191 376.668C323.846 346.545 340.622 320.246 366.187 316.559Z" fill="#FEFEFE" stroke="#0F79AB" stroke-width="6"/>
<path d="M453.268 342.683C450.6 352.545 443.566 359.223 437.057 357.463C430.547 355.702 426.671 346.073 429.338 336.21C429.64 325.52 437.416 318.818 443.926 320.579C450.643 324.468 456.045 332.414 453.268 342.683Z" fill="#2B2A28"/>
<path d="M399.529 508.521C415.875 483.441 421.545 466.738 426.408 432.988" stroke="#0875A4" stroke-width="7" stroke-linecap="round"/>
<path d="M415.828 437.866C426.491 440.75 437.651 433.784 440.755 422.307C443.86 410.83 437.732 399.189 427.07 396.305C416.407 393.421 405.247 400.386 402.143 411.863C399.038 423.34 405.166 434.982 415.828 437.866Z" fill="#ED6F7A"/>
<path d="M398.743 355.493C406.557 359.16 411.11 355.73 413.329 347.525C414.987 341.394 405.923 328.947 399.609 329.31C391.887 327.222 390.412 332.674 388.754 338.805C387.096 344.936 392.345 353.762 398.743 355.493Z" fill="#2B2A28"/>
<path d="M288.24 435.374C345.687 515.728 446.566 543.494 517.592 454.792" stroke="#0875A4" stroke-width="7" stroke-linecap="round"/>
<path d="M422.611 512.281L417.341 512.194L412.578 512.213L406.297 511.89L402.743 511.141L400.018 510.567L397.665 511.752L388.982 530.264L386.972 534.957L387.41 538.289L389.564 541.319L393.559 543.523L397.408 545.105L402.128 545.381L407.689 543.744L414.296 539.672L421.201 532.962L428.012 525.188L432.964 518.804L437.091 511.24L422.611 512.281Z" fill="#FEFEFE"/>
<path d="M397.665 511.752L400.018 510.567L402.743 511.141L406.297 511.89L412.578 512.213L417.341 512.194L422.611 512.281L437.091 511.24L432.964 518.804L428.012 525.188L421.201 532.962L414.296 539.672L407.689 543.744L402.128 545.381L397.408 545.105L393.559 543.523L389.564 541.319L387.41 538.289L386.972 534.957L388.982 530.264L397.665 511.752ZM397.665 511.752L398.579 510.798" stroke="#0875A4" stroke-width="5"/>
<path d="M387.41 508.228L387.329 508.221L387.25 508.205L374.101 505.644L374.033 505.63L373.967 505.611L362.872 502.412L362.83 502.4L355.03 500.544L351.928 500.569L347.532 509.227L344.302 521.303L344.628 527.869L347.503 533.287L350.655 536.823L356.066 539.35L361.211 541.148L367.333 541.406L374.313 539.407L382.345 534.545L389.461 525.949L395.564 516.933L398.268 509.197L387.41 508.228Z" fill="#FEFEFE" stroke="#0578A5" stroke-width="6"/>
<path d="M269.793 442.669C283.997 435.943 287.933 428.577 291.229 412.1" stroke="#0875A4" stroke-width="7" stroke-linecap="round"/>
<path d="M521.963 428.858C515.846 444.691 516.54 452.577 527.153 464.328" stroke="#0875A4" stroke-width="7" stroke-linecap="round"/>
<path d="M332.46 248C336.28 238.314 347.639 230.569 358.851 228.776C364.448 227.881 369.566 228.552 373.397 230.81C377.1 232.993 380.031 236.906 380.951 243.493L380.981 243.706L381.036 243.915C383.108 251.645 383.891 256.227 383.831 259.13C383.802 260.518 383.58 261.345 383.333 261.878C383.099 262.382 382.754 262.816 382.159 263.291C381.509 263.809 380.633 264.321 379.34 264.996C378.134 265.626 376.499 266.43 374.798 267.377C371.263 269.344 367.035 272.134 362.355 276.936C353.626 285.893 349.178 293.202 346.126 297.389C344.515 299.599 343.58 300.521 342.865 300.901C342.807 300.932 342.745 300.962 342.675 300.99C342.514 291.097 339.758 281.063 337.224 272.19C335.794 267.182 334.44 262.573 333.521 258.333C332.643 254.284 332.228 250.847 332.46 248Z" fill="#86D0E3" stroke="#0C74AB" stroke-width="7"/>
<path d="M273.694 209.189C273.827 207.635 274.292 206.103 275.027 204.252C275.398 203.318 275.809 202.371 276.27 201.289C276.706 200.268 277.171 199.16 277.624 197.967C279.299 194.394 280.662 191.255 282.152 188.464C283.648 185.662 285.06 183.642 286.587 182.344C287.996 181.146 289.56 180.509 291.683 180.582C293.954 180.66 297.084 181.562 301.444 183.996C302.239 184.44 302.662 185.061 302.793 186.255C302.944 187.635 302.643 189.566 301.84 191.981C300.241 196.786 297.138 202.147 294.732 206.248C293.091 209.046 291.769 212.728 290.588 215.991C289.338 219.447 288.222 222.505 286.942 224.728C285.562 227.127 284.743 227.244 284.585 227.245C284.16 227.247 282.433 226.82 279.134 222.725C274.291 215.962 273.444 212.099 273.694 209.189Z" fill="#86D0E3" stroke="#0C74AB" stroke-width="7"/>
<path d="M309.635 234.16C299.52 227.561 297.633 222.416 297.638 218.535C297.641 216.305 298.258 214.065 299.149 211.555C299.958 209.279 301.149 206.42 301.773 203.748C302.95 199.868 303.574 195.732 304.201 192.336C304.874 188.695 305.545 185.946 306.669 184.003C307.638 182.327 308.911 181.287 311.262 180.98C313.923 180.631 318.135 181.215 324.79 183.758C332.025 186.523 337.338 188.913 341.118 190.979C344.974 193.088 346.933 194.702 347.791 195.794C348.031 196.1 348.135 196.306 348.18 196.416C347.972 196.717 347.285 197.378 345.554 198.237C341.903 200.049 336.412 201.47 330.929 203.113C328.315 203.897 325.7 204.737 323.575 205.686C322.509 206.162 321.458 206.712 320.55 207.362C319.67 207.993 318.694 208.877 318.08 210.103C314.516 217.213 313.995 222.91 315.088 227.486C315.733 230.191 316.909 232.323 318.051 233.947C315.98 234.027 313.242 234.086 309.635 234.16Z" fill="#86D0E3" stroke="#0C74AB" stroke-width="7"/>
<path d="M315.435 224.76C315.348 222.813 315.799 220.993 316.598 218.994C317.003 217.982 317.48 216.965 318.011 215.854C318.505 214.82 319.054 213.685 319.565 212.518C320.935 209.948 323.646 207.403 327.42 205.256C331.187 203.112 335.759 201.511 340.423 200.714C345.1 199.916 349.694 199.956 353.539 200.923C357.371 201.888 360.248 203.709 361.964 206.332C369.527 217.891 372.815 224.411 373.733 227.892C373.851 228.342 373.913 228.684 373.946 228.937C373.116 228.944 371.952 228.779 370.374 228.471C368.869 228.177 366.902 227.735 365.135 227.455C363.353 227.173 361.295 226.968 359.37 227.269C357.356 227.585 355.153 228.523 353.755 230.78C350.359 236.261 348.394 240.381 346.988 243.203C346.268 244.648 345.768 245.601 345.318 246.28C344.883 246.937 344.66 247.076 344.621 247.099C344.587 247.119 344.071 247.446 340.786 246.62C337.757 245.858 333.639 244.509 327.034 242.591C317.859 233.946 315.602 228.524 315.435 224.76Z" fill="#86D0E3" stroke="#0C74AB" stroke-width="7"/>
<path d="M260.497 236.384C255.58 235.007 253.858 232.631 253.057 230.845C252.579 229.776 252.354 228.742 252.145 227.717C252.059 227.294 251.927 226.611 251.74 226.047C251.648 225.769 251.483 225.329 251.19 224.874C249.64 218.602 249.33 211.668 251.356 205.768C253.386 199.859 257.847 194.683 266.687 192.108C266.806 192.156 267.057 192.29 267.464 192.656C268.346 193.45 269.386 194.854 270.446 196.802C272.548 200.667 274.244 205.77 274.892 209.686C275.398 212.742 276.788 215.934 277.686 218.34C278.689 221.024 279.239 223.059 279.066 224.838C278.919 226.348 278.201 228.111 275.491 230.118C272.75 232.148 268.115 234.299 260.497 236.384Z" fill="#86D0E3" stroke="#0C74AB" stroke-width="7"/>
<path d="M246.23 377.486C244.475 377.734 241.483 376.797 237.694 373.388C233.991 370.057 230.105 364.852 226.82 358.1C220.364 344.832 216.442 326.036 220.459 304.994L220.657 303.99C222.166 297.551 227.936 271.037 235.214 249.025C238.907 237.858 242.846 228.306 246.609 223.071C248.585 220.322 249.915 219.617 250.438 219.537C250.548 219.52 250.702 219.506 251.031 219.716C251.436 219.974 252.077 220.567 252.867 221.82C256.146 227.024 259.212 230.488 262.21 232.518C265.337 234.637 268.424 235.204 271.332 234.512C274.032 233.87 276.14 232.237 277.625 230.93C278.356 230.287 279.111 229.559 279.633 229.076C279.713 229.002 279.791 228.933 279.864 228.867C279.906 228.976 279.95 229.093 279.995 229.219C280.37 230.268 280.777 231.741 281.212 233.768C282.966 241.952 284.869 257.673 287.479 286.357C287.682 288.578 287.487 294.973 286.404 303.644C285.333 312.223 283.425 322.764 280.322 333.214C277.211 343.69 272.948 353.906 267.246 361.954C261.576 369.958 254.66 375.584 246.23 377.486Z" fill="#86D0E3" stroke="#0C74AB" stroke-width="7"/>
<path d="M153.388 194.396C155.713 190.688 159.231 186.579 163.682 182.926C172.577 175.625 184.756 170.475 198.195 173.292C217.429 179.12 235.386 184.021 246.779 188.534C249.605 189.654 251.928 190.713 253.709 191.711C255.462 192.695 256.439 193.488 256.902 194.029C256.644 194.275 256.141 194.68 255.193 195.196C248.403 198.892 245.743 206.842 244.089 214.436C243.234 218.36 242.572 222.622 241.875 226.7C241.169 230.841 240.417 234.863 239.368 238.585C237.249 246.102 234.118 251.66 228.583 254.403C222.974 257.183 213.854 257.594 198.477 252.108C197.278 251.68 193.839 249.857 189.078 246.74C184.429 243.696 178.783 239.594 173.235 234.816C167.679 230.03 162.293 224.626 158.105 218.989C153.925 213.361 151.103 207.717 150.302 202.38C150.266 201.813 150.385 200.824 150.888 199.395C151.396 197.95 152.226 196.25 153.388 194.396Z" fill="#86D0E3" stroke="#0082AA" stroke-width="7"/>
<path d="M380.415 266.888C384.046 265.859 386.287 265.403 387.876 265.437C389.156 265.464 389.886 265.795 390.685 266.658C391.702 267.756 392.815 269.73 394.303 273.327C396.05 277.548 397.181 280.879 397.823 283.493C398.474 286.141 398.571 287.85 398.433 288.911C398.308 289.866 398.022 290.131 397.881 290.245C397.637 290.441 397.076 290.723 395.836 290.866C394.608 291.008 393.059 290.979 391.121 290.848C390.167 290.783 389.165 290.697 388.095 290.605C387.035 290.514 385.912 290.417 384.764 290.334C380.215 290.008 374.869 289.872 369.732 291.349C360.32 294.055 351.246 297.356 343.697 299.107C339.959 299.974 337.123 300.317 335.226 300.112C334.309 300.013 333.855 299.809 333.662 299.681C333.659 299.679 333.657 299.676 333.653 299.674C334.768 292.662 338.388 287.616 343.916 283.288C349.816 278.67 357.683 275.022 366.823 270.876C369.621 270.092 372.12 269.351 374.348 268.684C376.66 267.991 378.647 267.389 380.415 266.888Z" fill="#86D0E3" stroke="#0C74AB" stroke-width="7"/>
</g>
<defs>
<clipPath id="clip0_465_280">
<rect width="700" height="800" fill="white"/>
</clipPath>
<clipPath id="clip1_465_280">
<rect width="180.151" height="91.8863" fill="white" transform="translate(218.039 777.617) rotate(-65.4644)"/>
</clipPath>
</defs>
</svg>
