<svg width="700" height="800" viewBox="0 0 700 800" fill="none" xmlns="http://www.w3.org/2000/svg">
<g clip-path="url(#clip0_465_230)">
<path d="M563.362 565.082C545.107 565.303 535.309 570.398 529.881 576.937C524.257 583.712 512.387 593.718 512.5 603.076C507 626.882 522.613 638.988 529.876 644.39C542.904 661.89 557.138 627.85 587.627 631C609.78 630.732 624.527 632.771 635.941 630.997C647.43 629.212 653.905 626.822 657.591 624.301C661.017 621.957 662.32 619.306 662.805 615.991C663.061 614.243 663.081 612.324 663.013 610.132C662.949 608.072 662.79 605.492 662.761 603.076C662.724 600.07 659.994 596.001 653.452 591.285C647.135 586.731 638.163 582.232 627.814 578.263C607.065 570.305 581.793 564.859 563.362 565.082Z" fill="#87CFE5" stroke="#0178B2" stroke-width="9"/>
<path d="M516.999 599.933C515 622.488 513.91 621.011 525 633.488C536.09 645.966 541 649.98 546.999 641.919C548.033 635.99 564 644.076 537.276 620.425C526.001 610.449 540.999 559.951 516.999 599.933Z" fill="#31A7BA"/>
<g clip-path="url(#clip1_465_230)">
<path d="M304.535 663.139C318.16 645.846 330.15 640.157 340.287 639.688C350.788 639.202 360.547 644.236 369.26 651.101C378.265 658.196 384.555 664.483 384.295 675.328C384.022 686.664 376.565 704.518 352.48 735.087C335.946 756.073 323.203 770.485 313.146 780.118C303.024 789.812 296.018 794.278 290.939 795.982C286.218 797.565 282.769 796.897 279.297 794.967C277.465 793.949 275.647 792.583 273.636 790.936C271.747 789.387 269.439 787.373 267.19 785.601C264.392 783.396 262.573 777.848 262.949 768.187C263.312 758.861 265.677 747.035 269.553 734.275C277.323 708.693 290.778 680.599 304.535 663.139Z" fill="#87CFE5" stroke="#0178B2" stroke-width="9"/>
<path d="M355.59 647.751C398.196 664.612 377.544 699.152 348.999 735.382C320.455 771.612 301.923 790.184 292.249 790.915C277.839 799.307 321.395 752.191 339.663 724.056C402.422 644.399 306.662 638.994 355.59 647.751Z" fill="#31A7BA"/>
</g>
<path d="M380.428 293.101C485.665 293.101 570.928 374.686 570.928 475.269C570.928 575.851 485.665 657.437 380.428 657.437C275.19 657.437 189.928 575.851 189.928 475.269C189.928 374.686 275.19 293.101 380.428 293.101Z" fill="#86D0E3" stroke="#0C74AB" stroke-width="7"/>
<path d="M510.85 601.995C475.42 640.606 409.695 655.952 384.021 653.477C274.137 659.417 191.467 566.249 194.035 473.784C195.643 415.867 180.684 552.493 323.431 610.905C399.939 648.032 510.85 601.995 510.85 601.995Z" fill="#37B4CA"/>
<path d="M542.768 505.307C541.354 499.145 547.831 493.48 550.113 493.504C549.611 490.77 548.041 482.333 554.057 485.127C562.541 500.454 568.513 502.914 580.804 520.921L590.207 529.304L605.323 538.438C618.518 542.252 632.277 542.172 641.063 547.595C649.492 552.798 654.933 559.638 656.216 570.17C652.041 582.475 646.917 590.683 641.41 595.909C635.841 601.193 628.739 598.691 622.234 599.084C608.965 599.883 613.511 600.207 594.514 597.385L582.624 594.761L573.898 590.64C561.15 582.235 551.044 567.505 545.438 551.776C542.645 543.939 542.017 533.602 541.607 526.769C541.198 519.963 540.918 509.009 542.768 505.307Z" fill="#87CFE5" stroke="#0076B8" stroke-width="7"/>
<path d="M621.826 552.39C621.544 552.321 621.295 552.134 621.132 551.881C620.97 551.628 620.907 551.33 620.96 551.042C621.012 550.753 621.177 550.495 621.42 550.313C621.662 550.132 621.962 550.042 622.251 550.074C622.875 550.144 623.479 550.216 624.1 550.295C635.185 551.31 646.506 556.361 655.101 563.8C655.599 564.208 656.07 564.598 656.562 565.015C654.94 566.724 653.319 568.434 651.697 570.143C651.287 569.695 650.896 569.273 650.481 568.835C643.292 560.9 634.322 555.325 623.594 552.836C623.002 552.682 622.425 552.536 621.826 552.39Z" fill="#0074AB"/>
<path d="M615.263 565.915C614.989 565.743 614.781 565.463 614.678 565.149C614.576 564.836 614.586 564.513 614.713 564.242C614.841 563.97 615.077 563.769 615.375 563.668C615.672 563.569 616.007 563.579 616.3 563.709C616.832 563.947 617.335 564.173 617.865 564.418C627.266 568.495 636.311 574.981 643.9 582.1C644.336 582.497 644.753 582.875 645.187 583.273C645.964 583.982 646.426 584.927 646.441 585.931C646.457 586.932 646.023 587.91 645.268 588.62C644.513 589.329 643.506 589.703 642.502 589.632C641.494 589.56 640.572 589.048 639.905 588.238C639.538 587.793 639.189 587.369 638.822 586.929C632.426 579.016 625.381 572.238 616.695 566.828C616.21 566.517 615.752 566.222 615.263 565.915Z" fill="#007BA4"/>
<path d="M349.536 321.032C358.636 301.523 366.016 291.651 385.456 302.769" stroke="#025081" stroke-width="13" stroke-linecap="round"/>
<path d="M435 304.932C452.059 299.464 460.218 301.185 471.909 313.999" stroke="#025081" stroke-width="16" stroke-linecap="round"/>
<path d="M221.68 480.655C218.773 476.456 202.801 462.172 200.447 462.259C197.582 462.367 200.305 467.674 195.46 478.855C186.518 494.405 198.21 478.867 185.307 497.2L175.503 505.838L159.796 515.382C146.137 519.559 131.943 519.859 122.812 525.521C114.052 530.953 108.354 537.939 106.901 548.498C111.055 560.679 116.24 568.739 121.857 573.809C127.537 578.934 134.895 576.238 141.601 576.451C155.28 576.882 150.586 577.332 170.219 573.987L182.518 571.036L191.57 566.676C204.826 557.926 215.434 542.927 221.411 527.054C224.39 519.147 225.165 508.799 225.673 501.96C226.179 495.148 223.542 484.303 221.68 480.655Z" fill="#87CFE5" stroke="#0076B8" stroke-width="7"/>
<path d="M143.139 530.683C143.441 530.601 143.709 530.403 143.888 530.142C144.066 529.88 144.141 529.577 144.092 529.289C144.044 529 143.876 528.747 143.624 528.575C143.372 528.403 143.058 528.325 142.75 528.369C142.089 528.466 141.447 528.563 140.788 528.669C129.027 530.154 116.911 535.712 107.617 543.56C107.079 543.991 106.57 544.404 106.039 544.843C107.71 546.496 109.382 548.149 111.053 549.802C111.499 549.334 111.924 548.893 112.375 548.435C120.194 540.146 129.835 534.16 141.256 531.206C141.887 531.026 142.502 530.855 143.139 530.683Z" fill="#0074AB"/>
<path d="M149.731 544.022C150.025 543.837 150.253 543.547 150.37 543.227C150.487 542.907 150.485 542.582 150.356 542.314C150.228 542.047 149.984 541.853 149.671 541.765C149.359 541.677 149.004 541.701 148.691 541.844C148.121 542.107 147.583 542.355 147.015 542.623C136.958 547.121 127.212 554.027 118.992 561.511C118.519 561.929 118.069 562.327 117.598 562.746C116.757 563.492 116.243 564.462 116.202 565.473C116.159 566.482 116.591 567.448 117.372 568.131C118.153 568.814 119.209 569.148 120.274 569.034C121.342 568.92 122.333 568.366 123.06 567.522C123.46 567.06 123.841 566.618 124.241 566.159C131.219 557.927 138.854 550.81 148.191 545.001C148.712 544.667 149.205 544.352 149.731 544.022Z" fill="#007BA4"/>
<path d="M450.58 319.336C461.437 317.846 472.482 323.821 481.569 335.03C490.652 346.236 497.618 362.51 500.156 381.008C503.015 401.844 502.298 419.102 497.405 431.55C492.593 443.793 483.595 451.753 469.022 453.752C458.168 455.242 447.483 449.373 438.748 438.227C430.003 427.07 423.34 410.747 420.754 391.902C418.169 373.056 420.189 355.541 425.606 342.441C431.017 329.355 439.726 320.825 450.58 319.336Z" fill="#FEFEFE" stroke="#0F79AB" stroke-width="6"/>
<path d="M366.656 322.572C392.319 318.871 417.37 339.737 421.63 369.271C424.034 385.935 422.421 399.795 416.255 410.007C410.175 420.077 399.353 427.113 382.093 429.602C356.528 433.289 333.004 412.802 328.66 382.68C324.315 352.558 341.091 326.259 366.656 322.572Z" fill="#FEFEFE" stroke="#0F79AB" stroke-width="6"/>
<path d="M453.736 348.695C451.069 358.558 444.035 365.236 437.525 363.475C431.016 361.714 427.139 352.085 429.807 342.222C430.108 331.533 437.885 324.831 444.394 326.591C451.112 330.48 456.514 338.426 453.736 348.695Z" fill="#2B2A28"/>
<path d="M399.998 514.533C416.344 489.453 422.014 472.751 426.877 439" stroke="#0875A4" stroke-width="7" stroke-linecap="round"/>
<path d="M416.297 443.878C426.959 446.762 438.12 439.796 441.224 428.32C444.328 416.843 438.201 405.201 427.539 402.317C416.876 399.433 405.716 406.399 402.612 417.875C399.507 429.352 405.634 440.994 416.297 443.878Z" fill="#ED6F7A"/>
<path d="M399.211 361.505C407.026 365.172 411.578 361.742 413.798 353.537C415.456 347.406 406.392 334.959 400.077 335.323C392.356 333.234 390.881 338.687 389.223 344.818C387.564 350.949 392.814 359.774 399.211 361.505Z" fill="#2B2A28"/>
<path d="M293.086 439.079C350.533 519.433 451.412 547.199 522.437 458.497" stroke="#0875A4" stroke-width="7" stroke-linecap="round"/>
<path d="M427.457 515.987L422.186 515.899L417.424 515.918L411.143 515.595L407.588 514.846L404.864 514.272L402.511 515.457L393.828 533.969L391.817 538.662L392.255 541.994L394.41 545.024L398.404 547.228L402.254 548.81L406.973 549.086L412.535 547.449L419.142 543.377L426.047 536.667L432.858 528.893L437.81 522.509L441.936 514.945L427.457 515.987Z" fill="#FEFEFE"/>
<path d="M402.511 515.457L404.864 514.272L407.588 514.846L411.143 515.595L417.424 515.918L422.186 515.899L427.457 515.987L441.936 514.945L437.81 522.509L432.858 528.893L426.047 536.667L419.142 543.377L412.535 547.449L406.973 549.086L402.254 548.81L398.404 547.228L394.41 545.024L392.255 541.994L391.817 538.662L393.828 533.969L402.511 515.457ZM402.511 515.457L403.425 514.503" stroke="#0875A4" stroke-width="5"/>
<path d="M392.256 511.933L392.175 511.926L392.096 511.91L378.947 509.349L378.879 509.336L378.812 509.316L367.718 506.117L367.676 506.105L359.875 504.249L356.774 504.274L352.377 512.932L349.148 525.008L349.473 531.574L352.349 536.992L355.501 540.528L360.911 543.055L366.057 544.853L372.179 545.111L379.158 543.112L387.19 538.25L394.307 529.654L400.41 520.638L403.113 512.902L392.256 511.933Z" fill="#FEFEFE" stroke="#0578A5" stroke-width="6"/>
<path d="M274.639 446.374C288.843 439.648 292.779 432.282 296.075 415.805" stroke="#0875A4" stroke-width="7" stroke-linecap="round"/>
<path d="M526.809 432.563C520.692 448.397 521.386 456.282 531.999 468.033" stroke="#0875A4" stroke-width="7" stroke-linecap="round"/>
<path d="M322.946 239.595C327.926 230.451 340.15 224.16 351.497 223.757C357.162 223.555 362.158 224.85 365.683 227.561C369.091 230.182 371.519 234.426 371.623 241.075L371.627 241.291L371.656 241.505C372.763 249.431 372.978 254.074 372.562 256.948C372.363 258.321 372.041 259.115 371.73 259.614C371.436 260.085 371.041 260.473 370.391 260.872C369.683 261.306 368.75 261.707 367.385 262.218C366.11 262.695 364.389 263.293 362.585 264.023C358.835 265.541 354.297 267.791 349.062 271.983C339.299 279.8 333.988 286.508 330.445 290.289C328.575 292.284 327.534 293.084 326.778 293.374C326.717 293.397 326.651 293.419 326.578 293.439C327.633 283.601 326.13 273.304 324.704 264.187C323.9 259.042 323.122 254.301 322.73 249.98C322.356 245.854 322.367 242.392 322.946 239.595Z" fill="#86D0E3" stroke="#0C74AB" stroke-width="7"/>
<path d="M266.458 224.537C265.701 223.173 265.231 221.643 264.808 219.697C264.594 218.715 264.407 217.699 264.186 216.544C263.977 215.454 263.744 214.275 263.454 213.032C262.849 209.133 262.228 205.767 261.907 202.62C261.584 199.46 261.628 196.996 262.17 195.067C262.67 193.286 263.613 191.884 265.414 190.76C267.342 189.557 270.443 188.559 275.419 188.144C276.326 188.068 277.025 188.348 277.8 189.266C278.695 190.326 279.523 192.096 280.205 194.548C281.56 199.427 281.978 205.608 282.271 210.353C282.471 213.591 283.43 217.383 284.272 220.75C285.164 224.315 285.945 227.475 286.124 230.035C286.317 232.795 285.703 233.349 285.573 233.438C285.222 233.677 283.55 234.287 278.527 232.731C270.734 229.823 267.875 227.091 266.458 224.537Z" fill="#86D0E3" stroke="#0C74AB" stroke-width="7"/>
<path d="M297.146 240.493C285.692 236.662 282.567 232.161 281.591 228.404C281.031 226.246 281.062 223.923 281.291 221.269C281.497 218.871 281.925 215.818 281.859 213.083C282.183 205.619 283.407 198.465 286.559 193.257C289.541 188.328 294.41 184.851 303.095 184.868C308.193 184.879 311.834 185.276 314.354 185.9C316.928 186.537 317.93 187.312 318.278 187.736C318.485 187.989 318.653 188.322 318.466 189.185C318.25 190.182 317.608 191.541 316.43 193.264C314.068 196.718 310.401 200.475 306.877 204.247C305.176 206.068 303.503 207.902 302.187 209.599C300.96 211.182 299.66 213.11 299.241 215.083C297.588 222.862 298.523 228.507 300.736 232.658C302.044 235.112 303.72 236.878 305.235 238.161C303.251 238.762 300.617 239.51 297.146 240.493Z" fill="#86D0E3" stroke="#0C74AB" stroke-width="7"/>
<path d="M292.214 216.449C292.388 214.507 293.077 212.764 294.135 210.889C294.671 209.94 295.279 208.995 295.953 207.965C296.581 207.006 297.278 205.954 297.939 204.865C299.645 202.492 302.585 200.386 306.471 198.831C310.359 197.275 314.956 196.369 319.594 196.247C329.153 195.998 337.522 199.035 340.949 204.688C344.448 210.458 345.516 213.933 345.574 215.985C345.6 216.925 345.412 217.505 345.189 217.907C344.954 218.333 344.56 218.771 343.888 219.243C342.346 220.325 340.334 220.994 337.443 222.195C334.869 223.263 331.664 224.755 329.391 227.519C325.296 232.499 322.8 236.32 321.03 238.93C320.124 240.266 319.501 241.144 318.965 241.757C318.446 242.35 318.207 242.458 318.165 242.476C318.128 242.491 317.573 242.746 314.428 241.49C311.527 240.332 307.626 238.446 301.335 235.665C293.394 225.876 291.879 220.201 292.214 216.449Z" fill="#86D0E3" stroke="#0C74AB" stroke-width="7"/>
<path d="M243.922 235.228C239.23 233.215 237.836 230.632 237.279 228.755C236.946 227.633 236.86 226.579 236.788 225.535C236.758 225.104 236.717 224.409 236.607 223.825C236.552 223.538 236.447 223.08 236.216 222.591C235.508 216.168 236.116 209.255 238.905 203.674C241.697 198.085 246.803 193.543 255.904 192.158C256.016 192.221 256.248 192.387 256.603 192.804C257.372 193.707 258.218 195.236 259.011 197.307C260.585 201.416 261.592 206.698 261.717 210.666C261.814 213.761 262.771 217.109 263.344 219.612C263.983 222.406 264.259 224.495 263.853 226.236C263.508 227.713 262.564 229.366 259.613 230.998C256.627 232.648 251.749 234.168 243.922 235.228Z" fill="#86D0E3" stroke="#0C74AB" stroke-width="7"/>
<path d="M152.731 345.835C151.094 345.158 148.99 342.833 147.454 337.973C145.952 333.224 145.244 326.767 145.839 319.282C147.006 304.573 153.16 286.386 167.296 270.29L167.976 269.525C172.543 264.741 190.966 244.819 208.404 229.542C217.251 221.791 225.492 215.558 231.39 212.955C234.488 211.588 235.992 211.656 236.483 211.852C236.586 211.893 236.726 211.96 236.903 212.308C237.121 212.735 237.373 213.571 237.417 215.052C237.603 221.2 238.489 225.74 240.042 229.011C241.663 232.424 244.035 234.477 246.892 235.357C249.544 236.173 252.19 235.835 254.132 235.462C255.088 235.279 256.109 235.034 256.804 234.883C256.91 234.86 257.012 234.84 257.108 234.82C257.089 234.935 257.068 235.058 257.043 235.189C256.834 236.284 256.437 237.76 255.784 239.727C253.144 247.67 246.809 262.183 234.508 288.227C233.555 290.243 230.143 295.656 224.811 302.579C219.537 309.429 212.545 317.545 204.57 324.976C196.574 332.426 187.718 339.067 178.722 343.111C169.775 347.132 160.961 348.472 152.731 345.835Z" fill="#86D0E3" stroke="#0C74AB" stroke-width="7"/>
<path d="M165.6 140.954C169.484 138.938 174.601 137.182 180.289 136.291C191.659 134.512 204.766 136.252 214.919 145.497C228.538 160.276 241.527 173.609 249.055 183.278C250.923 185.678 252.388 187.768 253.416 189.532C254.428 191.269 254.868 192.448 254.992 193.149C254.645 193.23 254.006 193.324 252.927 193.288C245.201 193.029 238.876 198.53 233.598 204.235C230.87 207.183 228.138 210.52 225.469 213.681C222.759 216.891 220.071 219.976 217.279 222.651C211.64 228.055 206.122 231.256 199.96 230.812C193.717 230.362 185.648 226.09 175.18 213.563C174.364 212.586 172.325 209.27 169.803 204.169C167.34 199.187 164.556 192.788 162.199 185.856C159.839 178.912 157.938 171.524 157.189 164.541C156.442 157.571 156.872 151.275 158.89 146.269C159.146 145.763 159.75 144.971 160.909 143.994C162.08 143.007 163.658 141.962 165.6 140.954Z" fill="#86D0E3" stroke="#0082AA" stroke-width="7"/>
<path d="M354.36 268.677C364.996 264.272 373.189 262.787 378.909 263.161C384.658 263.536 387.296 265.682 388.267 267.962C390.782 273.87 392.421 278.472 393.365 282.028C394.324 285.64 394.49 287.904 394.31 289.252C394.153 290.427 393.801 290.583 393.692 290.644C393.329 290.847 392.472 291.07 390.698 290.938C388.991 290.811 386.927 290.401 384.484 289.845C382.132 289.31 379.399 288.632 376.707 288.104C371.413 287.065 365.141 286.341 359.762 288.631C350.751 292.468 342.148 296.854 334.87 299.515C331.265 300.833 328.492 301.52 326.584 301.549C325.662 301.563 325.186 301.416 324.979 301.313C324.975 301.311 324.972 301.309 324.969 301.307C325.218 294.212 328.195 288.762 333.153 283.79C338.442 278.487 345.8 273.907 354.36 268.677Z" fill="#86D0E3" stroke="#0C74AB" stroke-width="7"/>
</g>
<defs>
<clipPath id="clip0_465_230">
<rect width="700" height="800" fill="white"/>
</clipPath>
<clipPath id="clip1_465_230">
<rect width="180.151" height="91.8863" fill="white" transform="translate(223 758.379) rotate(-51.7664)"/>
</clipPath>
</defs>
</svg>
