<svg width="700" height="800" viewBox="0 0 700 800" fill="none" xmlns="http://www.w3.org/2000/svg">
<g clip-path="url(#clip0_465_180)">
<g clip-path="url(#clip1_465_180)">
<path d="M502.467 650.564C493.244 634.913 483.977 628.988 475.618 627.553C466.958 626.066 458.247 629.202 450.184 633.953C441.851 638.864 435.869 643.391 434.775 652.349C433.632 661.712 437.666 677.186 453.969 704.852C465.162 723.845 474 737.032 481.186 746.005C488.419 755.036 493.696 759.438 497.707 761.367C501.435 763.16 504.38 762.966 507.495 761.736C509.139 761.087 510.814 760.151 512.682 759.002C514.438 757.923 516.597 756.502 518.678 755.276C521.268 753.749 523.448 749.369 524.303 741.375C525.128 733.657 524.593 723.674 522.917 712.765C519.556 690.894 511.779 666.367 502.467 650.564Z" fill="#87CFE5" stroke="#0178B2" stroke-width="9"/>
<path d="M461.939 632.609C424.529 642.085 437.503 672.666 456.825 705.455C476.147 738.244 489.289 755.455 497.232 757.059C508.183 765.46 477.712 722.154 465.944 697.094C423.462 625.003 503.619 630.46 461.939 632.609Z" fill="#31A7BA"/>
</g>
<g clip-path="url(#clip2_465_180)">
<path d="M351.052 646.318C370.291 635.615 383.661 635.194 393.343 638.936C403.373 642.813 410.645 651.594 416.251 661.672C422.046 672.089 425.596 680.622 421.299 690.753C416.808 701.344 403.144 715.122 369.135 734.041C345.787 747.029 328.452 755.376 315.421 760.319C302.306 765.293 294.067 766.617 288.668 766.129C283.649 765.676 280.663 763.62 278.128 760.365C276.791 758.648 275.595 756.608 274.325 754.222C273.132 751.98 271.721 749.125 270.274 746.524C268.473 743.287 268.84 737.298 272.802 728.332C276.627 719.676 283.263 709.487 291.666 699.04C308.511 678.094 331.626 657.124 351.052 646.318Z" fill="#87CFE5" stroke="#0178B2" stroke-width="9"/>
<path d="M404.681 652.866C438.339 686.374 406.066 710.46 365.759 732.882C325.453 755.305 301.135 765.189 291.788 761.886C275.138 763.86 333.591 737.357 361.235 718.335C449.855 669.035 362.067 624.399 404.681 652.866Z" fill="#31A7BA"/>
</g>
<path d="M380.428 294.101C485.665 294.101 570.928 375.686 570.928 476.269C570.928 576.851 485.665 658.437 380.428 658.437C275.19 658.437 189.928 576.851 189.928 476.269C189.928 375.686 275.19 294.101 380.428 294.101Z" fill="#86D0E3" stroke="#0C74AB" stroke-width="7"/>
<path d="M510.85 602.995C475.42 641.606 409.695 656.952 384.021 654.477C274.137 660.417 191.467 567.249 194.035 474.784C195.643 416.867 180.684 553.493 323.431 611.905C399.939 649.032 510.85 602.995 510.85 602.995Z" fill="#37B4CA"/>
<path d="M571.039 467.066C567.134 462.093 570.581 454.209 572.656 453.26C571.037 451 566.023 444.034 572.656 444C586.861 454.253 593.312 453.935 612.102 464.99L624.18 468.57L641.746 470.395C655.309 468.226 667.724 462.292 677.983 463.456C687.825 464.573 695.662 468.444 701.308 477.426C702.773 490.337 701.633 499.946 698.877 507.02C696.089 514.173 688.598 514.935 682.88 518.06C671.215 524.436 675.466 522.793 657.077 528.331L645.202 531.022L635.552 531.01C620.437 528.837 605.02 519.814 593.248 507.971C587.383 502.071 582.411 492.985 579.129 486.978C575.861 480.995 570.942 471.203 571.039 467.066Z" fill="#87CFE5" stroke="#0076B8" stroke-width="7"/>
<path d="M662.621 475.989C662.336 476.047 662.031 475.984 661.776 475.825C661.521 475.665 661.337 475.421 661.263 475.138C661.187 474.854 661.226 474.55 661.368 474.283C661.51 474.016 661.743 473.807 662.019 473.712C662.613 473.51 663.19 473.318 663.785 473.125C674.247 469.322 686.641 469.069 697.586 472.138C698.21 472.295 698.803 472.447 699.425 472.615C698.686 474.852 697.947 477.089 697.208 479.326C696.646 479.096 696.113 478.881 695.551 478.661C685.666 474.544 675.176 473.322 664.41 475.639C663.809 475.752 663.224 475.866 662.621 475.989Z" fill="#0074AB"/>
<path d="M662.444 491.021C662.123 490.981 661.816 490.817 661.589 490.577C661.363 490.337 661.234 490.04 661.234 489.741C661.234 489.441 661.362 489.157 661.589 488.94C661.815 488.723 662.122 488.59 662.443 488.583C663.026 488.571 663.577 488.562 664.161 488.557C674.402 488.242 685.349 490.256 695.247 493.465C695.811 493.638 696.349 493.803 696.912 493.978C697.917 494.288 698.737 494.947 699.178 495.849C699.619 496.748 699.644 497.817 699.263 498.781C698.882 499.745 698.13 500.512 697.191 500.875C696.249 501.239 695.196 501.169 694.248 500.72C693.726 500.474 693.23 500.239 692.71 499.997C683.553 495.563 674.292 492.431 664.128 491.237C663.558 491.161 663.017 491.09 662.444 491.021Z" fill="#007BA4"/>
<path d="M331.873 353.846C341.147 330.45 349.01 318.771 371.854 333.518" stroke="#025081" stroke-width="13" stroke-linecap="round"/>
<path d="M417 327.136C432.471 318.106 440.809 318.02 454.996 328" stroke="#025081" stroke-width="16" stroke-linecap="round"/>
<path d="M424.577 337.881C434.668 333.609 446.89 336.492 458.588 344.94C470.282 353.385 481.256 367.276 488.536 384.469C496.736 403.836 500.55 420.683 499.077 433.976C497.628 447.052 491.021 457.084 477.475 462.82C467.387 467.091 455.54 464.216 444.198 455.738C432.843 447.251 422.149 433.234 414.733 415.717C407.316 398.2 404.693 380.766 406.502 366.706C408.308 352.661 414.488 342.153 424.577 337.881Z" fill="#FEFEFE" stroke="#0F79AB" stroke-width="6"/>
<path d="M344.407 362.918C368.213 352.645 397.844 366.246 409.668 393.644C416.339 409.102 418.401 422.902 415.115 434.37C411.875 445.678 403.266 455.295 387.255 462.205C363.539 472.439 335.482 458.805 323.424 430.862C311.365 402.919 320.692 373.152 344.407 362.918Z" fill="#FEFEFE" stroke="#0F79AB" stroke-width="6"/>
<path d="M435.289 365.397C435.289 375.615 430.243 383.897 423.5 383.897C416.756 383.897 410.5 375.615 410.5 365.397C408 355 413.757 346.5 420.5 346.5C428 348.5 435.289 354.76 435.289 365.397Z" fill="#2B2A28"/>
<path d="M407 536.777C420.845 510.235 424.874 493.063 426.452 459" stroke="#0875A4" stroke-width="7" stroke-linecap="round"/>
<path d="M424 467.055C435.046 467.055 444 457.417 444 445.527C444 433.638 435.046 424 424 424C412.954 424 404 433.638 404 445.527C404 457.417 412.954 467.055 424 467.055Z" fill="#ED6F7A"/>
<path d="M385.999 392C394.5 393.5 397.999 389 397.999 380.5C397.999 374.149 385.999 364.5 379.999 366.5C372 366.5 372 372.149 372 378.5C372 384.851 379.372 392 385.999 392Z" fill="#2B2A28"/>
<path d="M212.546 496.444C211.704 491.407 203.331 471.682 201.164 470.759C198.526 469.637 198.731 475.598 189.587 483.653C174.877 493.918 192.07 484.835 172.591 495.932L160.043 499.575L141.767 501.525C127.629 499.49 114.658 493.72 103.986 494.956C93.7462 496.143 85.6169 500.039 79.8068 508.975C78.3814 521.765 79.6419 531.266 82.5667 538.245C85.5238 545.3 93.3297 545.993 99.3072 549.039C111.502 555.253 107.063 553.662 126.252 558.992L138.637 561.557L148.684 561.465C164.404 559.19 180.387 550.133 192.553 538.315C198.614 532.427 203.72 523.394 207.091 517.422C210.448 511.473 212.679 500.537 212.546 496.444Z" fill="#87CFE5" stroke="#0076B8" stroke-width="7"/>
<path d="M120.182 508.28C120.489 508.335 120.816 508.269 121.089 508.109C121.362 507.948 121.558 507.706 121.637 507.424C121.716 507.143 121.672 506.843 121.517 506.579C121.363 506.316 121.111 506.112 120.814 506.021C120.174 505.827 119.553 505.642 118.911 505.457C107.637 501.795 94.3066 501.666 82.5566 504.811C81.8863 504.973 81.2502 505.129 80.5821 505.301C81.3911 507.508 82.2 509.715 83.009 511.922C83.6119 511.689 84.1837 511.471 84.7867 511.248C95.3904 507.076 106.663 505.763 118.255 507.952C118.902 508.057 119.532 508.164 120.182 508.28Z" fill="#0074AB"/>
<path d="M120.467 523.156C120.812 523.114 121.142 522.948 121.384 522.709C121.626 522.469 121.762 522.174 121.76 521.877C121.758 521.58 121.619 521.301 121.374 521.088C121.129 520.876 120.798 520.747 120.453 520.743C119.826 520.738 119.233 520.733 118.605 520.734C107.59 520.523 95.8315 522.624 85.2079 525.897C84.6023 526.074 84.0249 526.242 83.421 526.421C82.3424 526.738 81.4642 527.398 80.9963 528.294C80.5279 529.189 80.5082 530.248 80.9242 531.198C81.3402 532.148 82.1532 532.9 83.1656 533.25C84.1807 533.602 85.3126 533.522 86.3296 533.068C86.8887 532.819 87.4213 532.582 87.9787 532.337C97.7972 527.859 107.736 524.669 118.657 523.387C119.271 523.306 119.851 523.231 120.467 523.156Z" fill="#007BA4"/>
<path d="M295.02 482.564C365.468 551.803 469.624 561.749 524.282 462.124" stroke="#0875A4" stroke-width="7" stroke-linecap="round"/>
<path d="M440.643 535.138L435.437 535.961L430.75 536.801L424.507 537.567L420.877 537.442L418.094 537.346L415.98 538.92L410.621 558.653L409.451 563.622L410.457 566.828L413.102 569.441L417.417 570.923L421.481 571.817L426.178 571.275L431.374 568.703L437.179 563.552L442.823 555.752L448.19 546.919L451.967 539.776L454.726 531.614L440.643 535.138Z" fill="#FEFEFE"/>
<path d="M415.98 538.92L418.094 537.346L420.877 537.442L424.507 537.567L430.75 536.801L435.437 535.961L440.643 535.138L454.726 531.614L451.967 539.776L448.19 546.919L442.823 555.752L437.179 563.552L431.374 568.703L426.178 571.275L421.481 571.817L417.417 570.923L413.102 569.441L410.457 566.828L409.451 563.622L410.621 558.653L415.98 538.92ZM415.98 538.92L416.716 537.822" stroke="#0875A4" stroke-width="5"/>
<path d="M405.271 537.218L405.19 537.225L405.109 537.223L391.715 536.968L391.646 536.967L391.578 536.96L380.098 535.722L380.054 535.718L372.05 535.235L369 535.795L366.163 545.082L365.065 557.534L366.518 563.945L370.286 568.786L374 571.725L379.766 573.28L385.144 574.164L391.219 573.362L397.749 570.189L404.822 564.014L410.348 554.319L414.805 544.386L416.133 536.299L405.271 537.218Z" fill="#FEFEFE" stroke="#0578A5" stroke-width="6"/>
<path d="M278.107 492.933C290.938 483.858 293.545 475.923 293.949 459.124" stroke="#0875A4" stroke-width="7" stroke-linecap="round"/>
<path d="M524.115 435.825C520.822 452.476 522.866 460.124 535.347 469.867" stroke="#0875A4" stroke-width="7" stroke-linecap="round"/>
<path d="M299.664 241.591C305.023 232.221 318.072 226.041 330.203 226.007C336.256 225.99 341.632 227.52 345.432 230.532C349.119 233.454 351.672 238.039 351.73 244.995L351.732 245.214L351.761 245.429C352.873 253.735 353.066 258.597 352.6 261.59C352.377 263.021 352.028 263.84 351.692 264.352C351.375 264.836 350.947 265.234 350.242 265.634C349.476 266.069 348.472 266.46 347.016 266.948C345.654 267.404 343.831 267.965 341.912 268.664C337.934 270.115 333.111 272.301 327.532 276.488C317.115 284.303 311.431 291.112 307.638 294.937C305.643 296.949 304.52 297.763 303.684 298.051C303.51 298.111 303.309 298.162 303.054 298.168C304.314 287.869 302.789 276.977 301.334 267.33C300.522 261.939 299.731 256.964 299.349 252.441C298.984 248.117 299.025 244.496 299.664 241.591Z" fill="#86D0E3" stroke="#0C74AB" stroke-width="7"/>
<path d="M243.226 201.63C243.602 200.117 244.302 198.677 245.319 196.965C245.832 196.101 246.387 195.23 247.013 194.234C247.604 193.295 248.238 192.273 248.873 191.166C251.089 187.901 252.93 185.016 254.84 182.495C256.758 179.963 258.47 178.19 260.182 177.149C261.763 176.187 263.407 175.804 265.492 176.21C267.723 176.644 270.671 178.028 274.594 181.118C275.31 181.681 275.63 182.361 275.571 183.561C275.503 184.948 274.902 186.807 273.729 189.066C271.394 193.559 267.486 198.365 264.464 202.036C262.403 204.541 260.519 207.969 258.839 211.006C257.061 214.222 255.478 217.066 253.864 219.061C252.123 221.212 251.296 221.198 251.14 221.175C250.72 221.11 249.082 220.416 246.468 215.853C242.75 208.413 242.521 204.465 243.226 201.63Z" fill="#86D0E3" stroke="#0C74AB" stroke-width="7"/>
<path d="M262.141 235.547C254.178 226.466 253.747 221.004 254.797 217.267C255.401 215.121 256.599 213.13 258.133 210.953C259.52 208.985 261.428 206.564 262.749 204.168C266.791 197.884 271.452 192.322 276.799 189.411C281.859 186.657 287.816 186.107 295.31 190.499C299.707 193.076 302.652 195.254 304.515 197.063C306.417 198.91 306.891 200.084 306.978 200.626C307.03 200.949 307.007 201.321 306.411 201.972C305.722 202.725 304.482 203.575 302.597 204.47C298.816 206.263 293.756 207.66 288.812 209.142C286.424 209.858 284.055 210.6 282.063 211.402C280.205 212.151 278.111 213.162 276.755 214.654C271.407 220.541 269.371 225.887 269.19 230.588C269.083 233.367 269.641 235.737 270.303 237.608C268.287 237.128 265.634 236.447 262.141 235.547Z" fill="#86D0E3" stroke="#0C74AB" stroke-width="7"/>
<path d="M274.223 228.219C274.308 226.272 274.917 224.498 275.89 222.578C276.382 221.605 276.946 220.634 277.573 219.574C278.157 218.588 278.805 217.505 279.416 216.387C281.013 213.939 283.854 211.702 287.666 209.973C291.479 208.242 296.03 207.128 300.658 206.797C310.196 206.114 318.694 208.769 322.374 214.261C326.131 219.866 327.356 223.289 327.506 225.337C327.575 226.274 327.414 226.862 327.21 227.274C326.993 227.71 326.62 228.165 325.97 228.667C324.478 229.818 322.499 230.578 319.665 231.909C317.143 233.093 314.008 234.728 311.863 237.592C307.998 242.752 305.677 246.683 304.028 249.371C303.183 250.746 302.601 251.651 302.093 252.288C301.602 252.904 301.367 253.023 301.326 253.042C301.291 253.059 300.748 253.339 297.549 252.227C294.599 251.202 290.616 249.495 284.205 247.002C275.828 237.583 274.058 231.982 274.223 228.219Z" fill="#86D0E3" stroke="#0C74AB" stroke-width="7"/>
<path d="M219.45 194.085C217.391 189.413 218.133 186.574 219.004 184.821C219.526 183.772 220.182 182.943 220.841 182.13C221.113 181.795 221.557 181.259 221.874 180.756C222.03 180.509 222.265 180.102 222.43 179.587C226.291 174.406 231.45 169.763 237.294 167.581C243.148 165.397 249.979 165.556 257.582 170.748C257.621 170.87 257.677 171.15 257.652 171.697C257.599 172.882 257.175 174.577 256.344 176.633C254.693 180.712 251.829 185.262 249.215 188.25C247.176 190.581 245.593 193.682 244.305 195.904C242.868 198.383 241.646 200.1 240.161 201.097C238.902 201.942 237.084 202.507 233.813 201.688C230.504 200.86 225.899 198.646 219.45 194.085Z" fill="#86D0E3" stroke="#0C74AB" stroke-width="7"/>
<path d="M77.3279 212.822C76.5915 211.21 76.6378 208.076 78.8277 203.472C80.9675 198.975 84.8518 193.769 90.3901 188.698C101.273 178.734 118.175 169.626 139.49 167.489L140.509 167.393C147.111 167.008 174.171 164.995 197.344 165.709C209.1 166.071 219.379 167.13 225.468 169.247C228.666 170.359 229.72 171.434 229.946 171.913C229.993 172.013 230.05 172.157 229.942 172.532C229.811 172.994 229.424 173.777 228.448 174.891C224.392 179.515 221.944 183.44 220.85 186.892C219.709 190.493 220.044 193.613 221.535 196.204C222.918 198.609 225.084 200.166 226.759 201.217C227.584 201.735 228.497 202.252 229.108 202.615C229.202 202.671 229.29 202.726 229.374 202.777C229.282 202.848 229.182 202.924 229.074 203.003C228.175 203.661 226.878 204.47 225.059 205.464C217.712 209.474 203.183 215.772 176.428 226.436C174.356 227.262 168.17 228.895 159.549 230.324C151.02 231.738 140.372 232.909 129.471 232.907C118.543 232.906 107.536 231.726 98.1978 228.55C88.9113 225.391 81.5505 220.362 77.3279 212.822Z" fill="#86D0E3" stroke="#0C74AB" stroke-width="7"/>
<path d="M226.433 71.7212C230.649 72.8945 235.59 75.0983 240.358 78.3256C249.888 84.7758 258.291 94.9853 259.414 108.671C259.3 128.768 259.711 147.377 258.626 159.583C258.356 162.612 258.003 165.14 257.552 167.131C257.108 169.092 256.626 170.254 256.239 170.851C255.93 170.675 255.398 170.308 254.634 169.545C249.158 164.088 240.781 163.8 233.03 164.375C229.025 164.672 224.751 165.25 220.643 165.743C216.472 166.243 212.402 166.667 208.536 166.72C200.726 166.828 194.508 165.408 190.302 160.882C186.042 156.296 183.053 147.67 183.936 131.368C184.005 130.097 184.775 126.281 186.408 120.83C188.003 115.507 190.329 108.927 193.331 102.249C196.339 95.5603 199.986 88.8595 204.199 83.241C208.404 77.6327 213.012 73.3206 217.901 71.0342C218.434 70.8384 219.416 70.6711 220.929 70.7465C222.459 70.8227 224.325 71.1347 226.433 71.7212Z" fill="#86D0E3" stroke="#0082AA" stroke-width="7"/>
<path d="M329.394 274.663C339.962 270.311 348.185 269.119 354.001 269.867C359.777 270.61 362.937 273.186 364.284 276.349L364.495 276.845L364.844 277.254C367.333 280.162 368.879 282.484 369.748 284.314C370.618 286.147 370.705 287.266 370.612 287.898C370.468 288.879 369.562 290.172 365.794 291.505C362.198 292.777 357.442 293.581 352.068 294.583C346.896 295.547 341.217 296.687 336.494 298.698C332.114 300.563 327.615 302.691 323.403 304.629C319.141 306.589 315.165 308.356 311.644 309.611C308.047 310.892 305.308 311.491 303.422 311.415C302.527 311.38 302.017 311.198 301.732 311.028C301.579 310.937 301.423 310.812 301.274 310.6C301.002 302.09 303.837 295.905 308.653 290.517C313.723 284.846 320.936 280.102 329.394 274.663Z" fill="#86D0E3" stroke="#0C74AB" stroke-width="7"/>
</g>
<defs>
<clipPath id="clip0_465_180">
<rect width="700" height="800" fill="white"/>
</clipPath>
<clipPath id="clip1_465_180">
<rect width="148.65" height="77.5278" fill="white" transform="matrix(-0.507691 -0.861539 -0.861539 0.507691 558.656 737.431)"/>
</clipPath>
<clipPath id="clip2_465_180">
<rect width="180.151" height="95.5347" fill="white" transform="translate(239 702.579) rotate(-29.0872)"/>
</clipPath>
</defs>
</svg>
