<svg width="700" height="800" viewBox="0 0 700 800" fill="none" xmlns="http://www.w3.org/2000/svg">
<g clip-path="url(#clip0_465_381)">
<path d="M543.048 512.987C541.762 506.796 548.356 501.267 550.636 501.339C550.192 498.595 548.797 490.127 554.754 493.045C562.918 508.545 568.837 511.129 580.752 529.387L589.978 537.964L604.901 547.41C618.014 551.498 631.772 551.703 640.443 557.307C648.762 562.684 654.06 569.636 655.124 580.192C650.694 592.408 645.401 600.508 639.786 605.619C634.109 610.785 627.06 608.137 620.548 608.394C607.265 608.918 611.804 609.336 592.87 606.12L581.037 603.25L572.399 598.947C559.827 590.28 550.029 575.343 544.752 559.501C542.122 551.608 541.709 541.259 541.441 534.419C541.174 527.607 541.122 516.649 543.048 512.987Z" fill="#87CFE5" stroke="#0076B8" stroke-width="7"/>
<path d="M621.109 561.702C620.828 561.627 620.583 561.435 620.425 561.179C620.269 560.923 620.212 560.623 620.271 560.336C620.33 560.048 620.5 559.794 620.746 559.617C620.992 559.441 621.294 559.358 621.583 559.395C622.204 559.479 622.807 559.563 623.426 559.655C634.487 560.9 645.701 566.185 654.14 573.801C654.629 574.219 655.092 574.619 655.575 575.046C653.918 576.721 652.262 578.396 650.605 580.072C650.204 579.616 649.823 579.186 649.417 578.739C642.393 570.656 633.541 564.896 622.868 562.185C622.279 562.019 621.705 561.86 621.109 561.702Z" fill="#0074AB"/>
<path d="M614.269 575.088C613.999 574.91 613.797 574.626 613.7 574.31C613.604 573.994 613.621 573.672 613.754 573.403C613.888 573.135 614.128 572.938 614.428 572.844C614.727 572.751 615.061 572.768 615.352 572.904C615.879 573.153 616.377 573.389 616.902 573.645C626.215 577.916 635.124 584.588 642.563 591.864C642.992 592.27 643.4 592.657 643.826 593.064C644.588 593.789 645.031 594.743 645.024 595.747C645.019 596.748 644.566 597.717 643.796 598.411C643.026 599.105 642.012 599.458 641.009 599.365C640.004 599.273 639.092 598.742 638.442 597.918C638.084 597.466 637.744 597.034 637.386 596.586C631.156 588.543 624.254 581.62 615.681 576.03C615.204 575.709 614.751 575.405 614.269 575.088Z" fill="#007BA4"/>
<g clip-path="url(#clip1_465_381)">
<path d="M407.27 643.818C387.365 639.066 375.176 642.533 367.297 648.947C359.135 655.592 354.616 666.171 351.907 677.517C349.107 689.245 347.896 698.506 354.155 707.035C360.697 715.952 376.281 725.286 411.467 733.686C435.623 739.454 453.255 742.484 466.196 743.478C479.221 744.478 486.982 743.369 491.75 741.334C496.183 739.443 498.401 736.595 499.931 732.72C500.738 730.676 501.341 728.362 501.931 725.692C502.485 723.184 503.092 720.021 503.792 717.092C504.662 713.447 502.927 707.776 497.244 700.274C491.757 693.031 483.369 685.124 473.323 677.479C453.183 662.151 427.368 648.617 407.27 643.818Z" fill="#87CFE5" stroke="#0178B2" stroke-width="9"/>
<path d="M360.307 665.67C337.72 707.746 372.547 721.635 414.249 731.591C455.95 741.547 480.257 744.039 487.935 738.144C503.454 735.226 444.386 726.59 414.932 716.246C323.244 694.355 392.174 625.863 360.307 665.67Z" fill="#31A7BA"/>
</g>
<g clip-path="url(#clip2_465_381)">
<path d="M286.012 645.001C292.324 623.91 301.164 614.145 310.134 609.897C319.427 605.496 329.955 606.469 340.171 609.526C350.73 612.686 358.565 616.123 362.069 626.231C365.733 636.798 359.657 653.717 348.501 691C340.841 716.596 342.239 710.823 336.501 723.5C330.725 736.259 331.988 733.016 328.001 736.5C324.294 739.739 325.501 740 310.001 744.5C304.835 746 304.5 747 289 749.742C278 752.5 262.637 746.789 260 746C256.719 745.018 255.501 727.5 268.5 718C323.5 707 280.667 718 279.5 701C277.679 674.46 279.64 666.297 286.012 645.001Z" fill="#87CFE5" stroke="#0178B2" stroke-width="9"/>
<path d="M326.876 610.988C370.155 613.584 366.253 643.906 356.259 677.304C346.265 710.703 337.798 728.726 329.794 731.508C320.792 741.05 339.308 696.126 343.725 671.093C365.698 597.661 281.417 615.846 326.876 610.988Z" fill="#31A7BA"/>
</g>
<path d="M379.428 296.101C484.665 296.101 569.928 377.686 569.928 478.269C569.928 578.851 484.665 660.437 379.428 660.437C274.19 660.437 188.928 578.851 188.928 478.269C188.928 377.686 274.19 296.101 379.428 296.101Z" fill="#86D0E3" stroke="#0C74AB" stroke-width="7"/>
<path d="M509.85 604.994C474.42 643.606 408.695 658.951 383.021 656.476C273.137 662.417 190.467 569.249 193.035 476.784C194.643 418.866 179.684 555.492 322.431 613.905C398.939 651.031 509.85 604.994 509.85 604.994Z" fill="#37B4CA"/>
<path d="M373.073 332.254C386.472 323.367 395.49 319.029 407.719 325.508" stroke="#025081" stroke-width="13" stroke-linecap="round"/>
<path d="M461.999 335.706C479.551 332.124 487.475 334.721 497.704 348.729" stroke="#025081" stroke-width="16" stroke-linecap="round"/>
<path d="M205.445 463.915C204.226 458.956 194.396 439.915 192.166 439.158C189.452 438.237 190.103 444.166 181.59 452.885C167.692 464.225 184.155 453.877 165.564 466.405L153.324 470.98L135.247 474.297C120.996 473.329 107.628 468.549 97.0787 470.583C86.9574 472.535 79.1435 477.031 74.0208 486.377C73.5597 499.239 75.53 508.618 78.9705 515.358C82.449 522.171 90.2849 522.276 96.4743 524.865C109.101 530.145 104.555 528.892 124.09 532.766L136.633 534.394L146.645 533.548C162.149 530.099 177.408 519.868 188.652 507.17C194.253 500.843 198.667 491.452 201.58 485.244C204.481 479.06 205.885 467.987 205.445 463.915Z" fill="#87CFE5" stroke="#0076B8" stroke-width="7"/>
<path d="M114.23 482.653C114.54 482.684 114.861 482.595 115.122 482.414C115.382 482.234 115.559 481.977 115.616 481.69C115.675 481.404 115.608 481.108 115.434 480.856C115.26 480.606 114.994 480.421 114.691 480.353C114.038 480.207 113.404 480.069 112.75 479.933C101.233 477.128 87.9311 478.001 76.4505 482.019C75.7941 482.23 75.1716 482.434 74.5183 482.656C75.4907 484.796 76.4631 486.936 77.4355 489.076C78.0191 488.798 78.573 488.537 79.1575 488.27C89.418 483.314 100.56 481.158 112.284 482.47C112.937 482.527 113.573 482.586 114.23 482.653Z" fill="#0074AB"/>
<path d="M115.632 497.466C115.972 497.398 116.289 497.208 116.513 496.951C116.735 496.694 116.849 496.39 116.825 496.094C116.801 495.798 116.641 495.53 116.381 495.336C116.12 495.143 115.78 495.039 115.436 495.061C114.811 495.103 114.219 495.143 113.593 495.191C102.593 495.807 91.0255 498.786 80.6777 502.847C80.087 503.068 79.5239 503.28 78.9351 503.504C77.8833 503.901 77.0572 504.624 76.658 505.554C76.258 506.481 76.3179 507.538 76.804 508.454C77.2902 509.37 78.1574 510.059 79.1931 510.332C80.2319 510.607 81.3546 510.442 82.3346 509.913C82.8734 509.624 83.3867 509.347 83.9242 509.061C93.3787 503.858 103.05 499.93 113.844 497.832C114.45 497.706 115.023 497.587 115.632 497.466Z" fill="#007BA4"/>
<path d="M469.078 346.336C479.935 344.846 490.98 350.821 500.067 362.03C509.15 373.236 516.116 389.51 518.654 408.008C521.513 428.844 520.796 446.102 515.903 458.55C511.091 470.793 502.093 478.753 487.52 480.752C476.666 482.242 465.981 476.373 457.246 465.227C448.501 454.07 441.838 437.747 439.252 418.902C436.667 400.056 438.687 382.541 444.104 369.441C449.515 356.355 458.224 347.825 469.078 346.336Z" fill="#FEFEFE" stroke="#0F79AB" stroke-width="6"/>
<path d="M385.152 349.571C410.815 345.87 435.867 366.736 440.126 396.271C442.53 412.935 440.917 426.794 434.751 437.007C428.671 447.076 417.849 454.112 400.589 456.602C375.024 460.289 351.5 439.802 347.156 409.68C342.811 379.557 359.587 353.258 385.152 349.571Z" fill="#FEFEFE" stroke="#0F79AB" stroke-width="6"/>
<path d="M472.234 375.695C469.567 385.558 462.533 392.236 456.023 390.475C449.514 388.714 445.637 379.085 448.305 369.222C448.606 358.533 456.383 351.831 462.892 353.591C469.61 357.48 475.012 365.426 472.234 375.695Z" fill="#2B2A28"/>
<path d="M418.494 541.532C434.84 516.452 440.51 499.75 445.373 466" stroke="#0875A4" stroke-width="7" stroke-linecap="round"/>
<path d="M434.793 470.878C445.455 473.762 456.616 466.796 459.72 455.32C462.824 443.843 456.697 432.201 446.035 429.317C435.372 426.433 424.212 433.399 421.108 444.875C418.003 456.352 424.13 467.994 434.793 470.878Z" fill="#ED6F7A"/>
<path d="M417.707 388.505C425.522 392.172 430.075 388.742 432.294 380.537C433.952 374.406 424.888 361.959 418.573 362.323C410.852 360.234 409.377 365.687 407.719 371.818C406.06 377.949 411.31 386.774 417.707 388.505Z" fill="#2B2A28"/>
<path d="M303.668 437.454C348.363 525.541 443.911 568.178 527.482 491.18" stroke="#0875A4" stroke-width="7" stroke-linecap="round"/>
<path d="M424.928 533.715L419.731 532.835L415.02 532.137L408.859 530.872L405.458 529.596L402.851 528.618L400.347 529.436L388.976 546.43L386.281 550.766L386.213 554.127L387.887 557.446L391.504 560.226L395.071 562.37L399.695 563.353L405.44 562.573L412.585 559.541L420.421 553.948L428.325 547.287L434.182 541.722L439.4 534.866L424.928 533.715Z" fill="#FEFEFE"/>
<path d="M400.347 529.436L402.851 528.618L405.458 529.596L408.859 530.872L415.02 532.137L419.731 532.835L424.928 533.715L439.4 534.866L434.182 541.722L428.325 547.287L420.421 553.948L412.585 559.541L405.44 562.573L399.695 563.353L395.071 562.37L391.504 560.226L387.887 557.446L386.213 554.127L386.281 550.766L388.976 546.43L400.347 529.436ZM400.347 529.436L401.394 528.63" stroke="#0875A4" stroke-width="5"/>
<path d="M390.738 524.408L390.659 524.389L390.583 524.361L377.97 519.849L377.905 519.826L377.842 519.797L367.356 514.964L367.316 514.946L359.884 511.936L356.814 511.494L351.164 519.392L346.154 530.844L345.487 537.383L347.514 543.173L350.097 547.143L355.066 550.455L359.882 553.008L365.895 554.184L373.096 553.26L381.768 549.662L390.098 542.235L397.489 534.241L401.326 527L390.738 524.408Z" fill="#FEFEFE" stroke="#0578A5" stroke-width="6"/>
<path d="M284.334 441.888C299.389 437.377 304.389 430.688 310.128 414.895" stroke="#0875A4" stroke-width="7" stroke-linecap="round"/>
<path d="M535.709 466.2C527.278 480.932 526.777 488.832 535.5 502.046" stroke="#0875A4" stroke-width="7" stroke-linecap="round"/>
<path d="M324.705 226.889C324.359 225.368 324.335 223.767 324.471 221.781C324.54 220.778 324.643 219.75 324.754 218.579C324.857 217.475 324.963 216.277 325.031 215.003C325.538 211.09 325.881 207.684 326.451 204.572C327.022 201.448 327.752 199.094 328.811 197.393C329.788 195.822 331.084 194.739 333.128 194.162C335.315 193.545 338.571 193.451 343.465 194.441C344.358 194.622 344.95 195.085 345.438 196.183C346.002 197.451 346.304 199.382 346.274 201.927C346.214 206.99 344.891 213.042 343.848 217.681C343.137 220.846 342.999 224.755 342.869 228.223C342.73 231.895 342.598 235.148 342.056 237.655C341.472 240.36 340.728 240.721 340.577 240.77C340.174 240.902 338.398 241.021 334.009 238.125C327.337 233.158 325.353 229.737 324.705 226.889Z" fill="#86D0E3" stroke="#0C74AB" stroke-width="7"/>
<path d="M360.526 252.445C348.896 249.189 345.55 244.849 344.389 241.145C343.723 239.018 343.638 236.696 343.734 234.034C343.821 231.629 344.096 228.558 343.894 225.83C343.847 218.359 344.713 211.153 347.602 205.794C350.335 200.723 355.024 197.008 363.7 196.593C368.791 196.35 372.448 196.566 374.996 197.064C377.599 197.572 378.638 198.296 379.006 198.702C379.226 198.945 379.41 199.269 379.267 200.139C379.101 201.147 378.526 202.536 377.436 204.315C375.249 207.883 371.773 211.817 368.442 215.759C366.833 217.663 365.254 219.579 364.024 221.339C362.876 222.981 361.674 224.971 361.354 226.962C360.09 234.814 361.305 240.405 363.722 244.441C365.15 246.827 366.913 248.508 368.489 249.714C366.538 250.413 363.944 251.291 360.526 252.445Z" fill="#86D0E3" stroke="#0C74AB" stroke-width="7"/>
<path d="M351.063 240.229C350.346 238.416 350.179 236.549 350.283 234.399C350.336 233.31 350.455 232.193 350.595 230.969C350.726 229.827 350.876 228.569 350.978 227.295C351.435 224.468 353.313 221.006 356.45 217.469C359.569 213.952 363.675 210.657 368.024 208.196C372.403 205.718 376.795 204.216 380.488 204.008C384.104 203.804 386.72 204.825 388.424 207.021C398.462 219.962 403.98 227.815 406.594 232.378C406.489 232.334 406.381 232.29 406.273 232.244C404.641 231.551 402.67 230.679 400.831 230.02C399.077 229.391 396.916 228.749 394.934 228.836C393.885 228.883 392.611 229.142 391.465 229.973C390.256 230.85 389.554 232.097 389.252 233.43C387.828 239.719 387.314 244.254 386.904 247.381C386.694 248.981 386.532 250.045 386.328 250.834C386.131 251.597 385.965 251.801 385.936 251.835C385.91 251.865 385.529 252.342 382.154 252.632C379.042 252.899 374.71 252.966 367.84 253.305C356.349 248.123 352.448 243.732 351.063 240.229Z" fill="#86D0E3" stroke="#0C74AB" stroke-width="7"/>
<path d="M185.359 329.278C183.925 328.237 182.422 325.486 182.063 320.401C181.712 315.432 182.53 308.989 184.856 301.849C189.425 287.819 199.655 271.571 217.158 259.22L217.998 258.635C223.555 255.05 246.12 239.979 266.643 229.195C277.055 223.724 286.523 219.588 292.866 218.433C296.197 217.827 297.644 218.244 298.076 218.55C298.166 218.614 298.286 218.711 298.378 219.091C298.49 219.557 298.539 220.429 298.237 221.879C296.983 227.901 296.784 232.522 297.53 236.065C298.31 239.762 300.137 242.313 302.71 243.835C305.098 245.248 307.749 245.536 309.725 245.628C310.698 245.672 311.747 245.673 312.458 245.688C312.567 245.69 312.671 245.695 312.769 245.698C312.724 245.805 312.674 245.92 312.619 246.042C312.161 247.057 311.43 248.401 310.335 250.16C305.914 257.267 296.366 269.901 278.325 292.353C276.928 294.091 272.346 298.557 265.545 304.045C258.818 309.474 250.124 315.733 240.635 321.097C231.121 326.475 220.959 330.865 211.267 332.697C201.629 334.518 192.746 333.763 185.359 329.278Z" fill="#86D0E3" stroke="#0C74AB" stroke-width="7"/>
<path d="M245.706 133.063C249.954 132.009 255.338 131.496 261.078 131.958C272.548 132.883 284.888 137.634 292.602 148.994C302.394 166.545 311.911 182.541 316.974 193.701C318.23 196.47 319.167 198.845 319.754 200.8C320.333 202.725 320.485 203.974 320.442 204.684C320.086 204.683 319.443 204.625 318.402 204.338C310.95 202.282 303.515 206.155 297.051 210.47C293.711 212.7 290.275 215.306 286.942 217.757C283.557 220.246 280.223 222.618 276.884 224.567C270.139 228.505 264.027 230.33 258.139 228.46C252.173 226.565 245.325 220.527 238.07 205.901C237.505 204.761 236.296 201.061 235.035 195.512C233.803 190.093 232.59 183.22 231.916 175.93C231.242 168.627 231.119 160.999 232.021 154.034C232.921 147.083 234.81 141.061 237.94 136.665C238.308 136.232 239.08 135.603 240.435 134.923C241.804 134.237 243.582 133.59 245.706 133.063Z" fill="#86D0E3" stroke="#0082AA" stroke-width="7"/>
<path d="M296.134 239.561C292.524 235.468 292.192 232.194 292.43 229.954C292.569 228.658 292.916 227.552 293.258 226.501C293.403 226.056 293.628 225.385 293.749 224.794C293.811 224.489 293.891 224.006 293.861 223.452C295.737 216.781 299.035 210.22 303.814 205.956C308.554 201.726 314.961 199.539 323.82 202.136C323.908 202.245 324.098 202.544 324.303 203.249C324.68 204.543 324.86 206.471 324.778 208.868C324.617 213.629 323.465 219.282 322.013 223.252C320.906 226.28 320.484 229.911 320.026 232.644C319.518 235.672 318.942 237.902 317.853 239.476C316.94 240.795 315.446 241.96 312.17 242.261C308.817 242.569 303.756 241.937 296.134 239.561Z" fill="#86D0E3" stroke="#0C74AB" stroke-width="7"/>
<path d="M368.347 251.42C372.781 241.999 384.614 234.999 395.917 233.929C401.561 233.395 406.625 234.393 410.303 236.893C413.859 239.309 416.533 243.402 417.028 250.034L417.07 250.609L417.295 251.139C424.46 268.05 427.616 277.156 428.287 281.743C428.351 282.186 428.386 282.549 428.402 282.844C428.331 282.827 428.254 282.811 428.175 282.79C426.747 282.416 424.975 281.694 422.564 280.769C420.278 279.892 417.59 278.908 414.757 278.261C409.059 276.96 402.199 276.914 396.324 282.215C387.038 290.593 382.131 297.601 378.816 301.584C377.066 303.687 376.074 304.546 375.337 304.88C375.277 304.907 375.212 304.933 375.141 304.957C375.615 295.073 373.509 284.883 371.55 275.866C370.444 270.777 369.388 266.09 368.743 261.8C368.127 257.703 367.934 254.246 368.347 251.42Z" fill="#86D0E3" stroke="#0C74AB" stroke-width="7"/>
<path d="M408.117 281.827C417.118 281.237 423.489 282.523 427.554 284.627C431.573 286.708 433.244 289.497 433.466 292.29L433.506 292.797L433.689 293.271C434.848 296.279 435.432 298.544 435.63 300.218C435.829 301.903 435.609 302.752 435.427 303.136C435.23 303.551 434.614 304.301 431.519 304.341C428.549 304.379 424.815 303.741 420.429 303.068C416.258 302.429 411.552 301.774 407.335 302.109C403.513 302.412 399.529 302.896 395.848 303.301C392.108 303.712 388.673 304.043 385.72 304.088C382.686 304.134 380.589 303.863 379.325 303.348C378.744 303.112 378.499 302.885 378.397 302.76C378.357 302.711 378.309 302.642 378.267 302.529C380.174 295.766 383.789 291.716 388.624 288.808C393.78 285.706 400.32 283.889 408.117 281.827Z" fill="#86D0E3" stroke="#0C74AB" stroke-width="7"/>
</g>
<defs>
<clipPath id="clip0_465_381">
<rect width="700" height="800" fill="white"/>
</clipPath>
<clipPath id="clip1_465_381">
<rect width="167.458" height="96.6376" fill="white" transform="matrix(-0.972662 -0.232225 -0.232225 0.972662 521.777 665.638)"/>
</clipPath>
<clipPath id="clip2_465_381">
<rect width="180.151" height="88.3381" fill="white" transform="translate(245.398 763.607) rotate(-73.341)"/>
</clipPath>
</defs>
</svg>
