<svg width="700" height="800" viewBox="0 0 700 800" fill="none" xmlns="http://www.w3.org/2000/svg">
<g clip-path="url(#clip0_465_737)">
<path d="M549.8 456.107C545.83 450.867 549.173 442.421 551.234 441.38C549.586 438.997 544.48 431.652 551.112 431.519C565.451 442.234 571.897 441.802 590.832 453.306L602.957 456.944L620.545 458.635C634.079 456.13 646.413 449.632 656.687 450.724C666.543 451.772 674.43 455.782 680.195 465.265C681.83 478.994 680.817 489.243 678.154 496.816C675.462 504.473 667.981 505.392 662.305 508.803C650.725 515.76 654.954 513.949 636.64 520.111L624.801 523.148L615.152 523.273C600.01 521.176 584.475 511.79 572.547 499.347C566.605 493.148 561.514 483.545 558.153 477.195C554.805 470.87 549.757 460.514 549.8 456.107Z" fill="#87CFE5" stroke="#0076B8" stroke-width="7"/>
<path d="M641.492 464.292C641.208 464.357 640.902 464.295 640.645 464.129C640.388 463.962 640.201 463.705 640.123 463.404C640.043 463.104 640.079 462.779 640.217 462.492C640.356 462.206 640.586 461.98 640.86 461.876C641.451 461.652 642.026 461.439 642.619 461.225C653.029 457.024 665.419 456.577 676.403 459.688C677.03 459.846 677.624 460 678.249 460.169C677.539 462.562 676.83 464.955 676.121 467.348C675.556 467.112 675.02 466.89 674.455 466.664C664.516 462.422 654.011 461.271 643.277 463.894C642.677 464.022 642.094 464.152 641.492 464.292Z" fill="#0074AB"/>
<path d="M641.514 480.302C641.192 480.265 640.883 480.094 640.652 479.842C640.423 479.589 640.291 479.276 640.287 478.956C640.283 478.637 640.407 478.334 640.631 478.099C640.855 477.865 641.16 477.718 641.48 477.706C642.063 477.686 642.614 477.667 643.198 477.654C653.434 477.171 664.406 479.159 674.346 482.434C674.913 482.61 675.453 482.778 676.018 482.956C677.027 483.272 677.856 483.961 678.308 484.915C678.761 485.867 678.8 487.005 678.431 488.037C678.063 489.069 677.322 489.897 676.388 490.297C675.451 490.698 674.397 490.639 673.443 490.174C672.918 489.92 672.418 489.677 671.895 489.426C662.68 484.836 653.379 481.634 643.201 480.508C642.629 480.436 642.088 480.368 641.514 480.302Z" fill="#007BA4"/>
<path d="M455.226 631.848C448.153 614.397 438.584 607.303 428.973 605.069C419.015 602.755 407.837 605.361 397.026 609.743C385.851 614.273 377.579 618.591 374.026 628.042C370.312 637.921 372.414 654.123 381.416 685.935C387.553 707.625 395.136 716.434 401.457 726.6C407.817 736.831 417.435 747.101 421.735 749.493C429.01 749.899 424.265 750.936 428.394 752.141C430.517 751.589 427.473 754.052 440.22 752.013C442.586 751.011 465.082 743.478 467.872 742.347C485.966 735.013 510.876 715.364 476.149 697.842C431.434 708.176 456.003 706.878 465.06 696.421C474.117 685.965 462.369 649.469 455.226 631.848Z" fill="#87CFE5" stroke="#0178B2" stroke-width="9"/>
<path d="M414.708 609.395C363.502 611.404 378.586 659.098 391.125 694.97C409.061 726.664 415.473 742.855 424.566 743.662C430.98 749.895 402.293 679.943 410.868 649.932C415.363 621.878 471.692 613.31 414.708 609.395Z" fill="#31A7BA"/>
<g clip-path="url(#clip1_465_737)">
<path d="M342.529 631.965C363.561 625.461 376.78 627.964 385.545 633.827C394.626 639.902 400.019 650.283 403.518 661.596C407.134 673.291 408.921 682.609 402.681 691.81C396.159 701.428 379.989 712.231 342.81 723.729C317.285 731.622 298.592 736.185 284.805 738.282C270.93 740.392 262.573 739.915 257.366 738.246C252.526 736.694 250.003 733.983 248.161 730.171C247.19 728.159 246.422 725.855 245.65 723.19C244.924 720.685 244.107 717.518 243.204 714.598C242.08 710.963 243.634 705.049 249.313 696.941C254.796 689.114 263.346 680.367 273.682 671.748C294.405 654.467 321.292 638.533 342.529 631.965Z" fill="#87CFE5" stroke="#0178B2" stroke-width="9"/>
<path d="M393.908 650.251C420.294 691.154 383.789 708.203 339.725 721.831C295.66 735.458 269.801 740.032 261.278 734.681C244.528 733.015 307.232 719.273 338.18 706.279C435.062 676.318 357.719 612.435 393.908 650.251Z" fill="#31A7BA"/>
</g>
<path d="M380.428 296.101C485.665 296.101 570.928 377.686 570.928 478.269C570.928 578.851 485.665 660.437 380.428 660.437C275.19 660.437 189.928 578.851 189.928 478.269C189.928 377.686 275.19 296.101 380.428 296.101Z" fill="#86D0E3" stroke="#0C74AB" stroke-width="7"/>
<path d="M510.851 604.994C475.421 643.606 409.696 658.951 384.022 656.476C274.138 662.417 191.468 569.249 194.036 476.784C195.644 418.866 180.685 555.492 323.432 613.905C399.94 651.031 510.851 604.994 510.851 604.994Z" fill="#37B4CA"/>
<path d="M299.481 358.293C307.308 344.249 313.33 336.257 327.169 336.402" stroke="#025081" stroke-width="13" stroke-linecap="round"/>
<path d="M316.642 271.796C326.536 267.511 334.472 266.768 340.309 268.103C346.125 269.433 350.086 272.859 352.186 277.491L352.359 277.872L352.617 278.202C355.549 281.951 357.503 284.986 358.706 287.434C359.921 289.905 360.271 291.574 360.255 292.654C360.241 293.606 359.95 294.198 359.459 294.709C358.878 295.314 357.87 295.943 356.239 296.528C352.884 297.732 348.307 298.307 342.969 299.088C337.902 299.83 332.207 300.758 327.577 302.857C323.386 304.757 319.104 306.967 315.128 308.95C311.087 310.965 307.353 312.75 304.022 313.956C300.618 315.188 298.076 315.645 296.301 315.422C294.987 315.256 294.034 314.734 293.289 313.336C291.736 302.462 293.909 295.036 298.042 288.973C302.335 282.675 308.858 277.634 316.642 271.796Z" fill="#86D0E3" stroke="#0C74AB" stroke-width="7"/>
<path d="M386 315.853C400.143 311.41 407.384 312.279 418.897 320.668" stroke="#025081" stroke-width="16" stroke-linecap="round"/>
<path d="M406.004 330.633C415.961 326.054 428.265 328.563 440.215 336.65C452.161 344.734 463.554 358.284 471.355 375.247C480.142 394.354 484.469 411.077 483.402 424.409C482.353 437.523 476.055 447.752 462.691 453.898C452.737 458.476 440.808 455.963 429.212 447.835C417.604 439.699 406.487 426.015 398.54 408.733C390.592 391.45 387.439 374.104 388.817 359.995C390.194 345.902 396.05 335.21 406.004 330.633Z" fill="#FEFEFE" stroke="#0F79AB" stroke-width="6"/>
<path d="M326.636 358.104C350.117 347.109 380.149 359.799 392.803 386.824C399.943 402.071 402.425 415.801 399.491 427.365C396.598 438.766 388.286 448.642 372.493 456.037C349.101 466.99 320.641 454.218 307.735 426.657C294.829 399.094 303.244 369.057 326.636 358.104Z" fill="#FEFEFE" stroke="#0F79AB" stroke-width="6"/>
<path d="M417.551 357.809C417.863 368.021 413.072 376.454 406.332 376.66C399.592 376.866 393.086 368.778 392.774 358.565C389.958 348.249 395.452 339.577 402.193 339.371C409.75 341.142 417.227 347.176 417.551 357.809Z" fill="#2B2A28"/>
<path d="M414.001 534.135C421.874 505.253 422.152 487.617 416.438 454" stroke="#0875A4" stroke-width="7" stroke-linecap="round"/>
<path d="M409.369 459.764C420.41 459.427 429.066 449.52 428.703 437.636C428.34 425.752 419.096 416.392 408.055 416.729C397.015 417.066 388.359 426.973 388.721 438.857C389.084 450.74 398.328 460.101 409.369 459.764Z" fill="#ED6F7A"/>
<path d="M369.095 385.903C377.638 387.143 380.998 382.538 380.739 374.043C380.545 367.694 368.256 358.416 362.32 360.598C354.325 360.842 354.497 366.488 354.691 372.837C354.885 379.185 362.471 386.106 369.095 385.903Z" fill="#2B2A28"/>
<path d="M287.146 489.912C366.027 549.365 470.591 545.634 511.78 439.728" stroke="#0875A4" stroke-width="7" stroke-linecap="round"/>
<path d="M438.385 523.032L433.33 524.527L428.792 525.973L422.703 527.546L419.087 527.896L416.316 528.165L414.426 530L411.688 550.264L411.175 555.343L412.592 558.391L415.555 560.636L420.026 561.542L424.173 561.898L428.758 560.748L433.574 557.52L438.658 551.655L443.235 543.185L447.404 533.728L450.217 526.153L451.887 517.701L438.385 523.032Z" fill="#FEFEFE"/>
<path d="M414.426 530L416.316 528.165L419.087 527.896L422.703 527.546L428.792 525.973L433.33 524.527L438.385 523.032L451.887 517.701L450.217 526.153L447.404 533.728L443.235 543.185L438.658 551.655L433.574 557.52L428.758 560.748L424.173 561.898L420.026 561.542L415.555 560.636L412.592 558.391L411.175 555.343L411.688 550.264L414.426 530ZM414.426 530L415.012 528.816" stroke="#0875A4" stroke-width="5"/>
<path d="M403.586 529.71L403.507 529.728L403.426 529.737L390.114 531.232L390.045 531.24L389.976 531.241L378.433 531.513L378.389 531.514L370.391 532.08L367.44 533.033L365.839 542.611L366.376 555.099L368.653 561.266L373.02 565.574L377.086 568.003L383.005 568.793L388.452 568.967L394.371 567.379L400.431 563.381L406.638 556.336L410.852 546.003L413.974 535.573L414.235 527.382L403.586 529.71Z" fill="#FEFEFE" stroke="#0578A5" stroke-width="6"/>
<path d="M271.731 502.399C283.268 491.727 284.817 483.52 283.025 466.812" stroke="#0875A4" stroke-width="7" stroke-linecap="round"/>
<path d="M508.182 413.676C507.089 430.615 510.114 437.93 523.76 445.961" stroke="#0875A4" stroke-width="7" stroke-linecap="round"/>
<path d="M224.97 216.983C224.939 215.55 225.39 213.993 226.323 211.891C226.788 210.842 227.318 209.771 227.92 208.532C228.481 207.376 229.081 206.111 229.65 204.756C231.883 200.653 233.649 197.095 235.692 193.874C237.711 190.689 239.807 188.172 242.427 186.342C247.508 182.79 255.6 181.134 271.681 184.889C274.338 185.51 275.015 186.544 275.271 187.301C275.639 188.393 275.558 190.21 274.617 192.891C272.753 198.198 268.442 204.413 265.04 209.236C262.722 212.523 261.088 216.724 259.639 220.41C258.107 224.306 256.752 227.71 254.976 230.281C253.285 232.73 251.485 234.028 249.12 234.286C246.546 234.566 242.57 233.706 236.427 230.003C226.734 223.421 225.024 219.547 224.97 216.983Z" fill="#86D0E3" stroke="#0C74AB" stroke-width="7"/>
<path d="M269.202 246.529C259.399 239.741 257.395 234.347 257.344 230.111C257.314 227.718 257.897 225.331 258.727 222.706C259.484 220.312 260.579 217.374 261.144 214.62C263.185 207.125 266.006 200.175 270.191 195.716C272.24 193.533 274.565 192.002 277.265 191.242C279.966 190.483 283.283 190.428 287.423 191.577C292.205 192.903 295.521 194.241 297.733 195.515C299.975 196.806 300.769 197.852 301.031 198.443C301.224 198.881 301.275 199.388 300.877 200.261C300.429 201.243 299.499 202.455 298.002 203.88C294.988 206.751 290.679 209.588 286.486 212.488C284.463 213.888 282.459 215.311 280.823 216.688C279.285 217.982 277.628 219.59 276.793 221.44C273.455 228.832 273.057 234.685 274.153 239.337C274.846 242.28 276.103 244.563 277.285 246.27C275.297 246.363 272.669 246.436 269.202 246.529Z" fill="#86D0E3" stroke="#0C74AB" stroke-width="7"/>
<path d="M266.085 221.068C266.537 219.172 267.471 217.546 268.789 215.844C269.456 214.982 270.194 214.135 271.01 213.213C271.769 212.355 272.611 211.414 273.423 210.432C275.453 208.33 278.667 206.671 282.736 205.694C286.808 204.716 291.488 204.483 296.095 205.033C305.59 206.166 313.432 210.38 316.007 216.469C318.636 222.683 319.191 226.277 318.952 228.316C318.842 229.249 318.573 229.796 318.294 230.162C317.999 230.549 317.546 230.926 316.813 231.295C315.131 232.144 313.044 232.515 310.009 233.286C307.309 233.972 303.921 234.985 301.273 237.391C296.501 241.727 293.48 245.148 291.352 247.475C290.262 248.666 289.519 249.445 288.9 249.974C288.301 250.486 288.048 250.559 288.004 250.57C287.966 250.58 287.38 250.752 284.449 249.055C281.746 247.49 278.158 245.06 272.335 241.4C265.89 230.566 265.211 224.732 266.085 221.068Z" fill="#86D0E3" stroke="#0C74AB" stroke-width="7"/>
<path d="M208.025 211.214C205.521 205.408 206.232 201.523 207.283 198.971C207.873 197.541 208.621 196.405 209.315 195.371C209.618 194.92 210.046 194.295 210.343 193.727C210.498 193.431 210.711 192.981 210.841 192.438C210.847 192.412 210.852 192.385 210.858 192.357C215.003 185.601 220.617 179.409 227.037 176.254C233.385 173.135 240.763 172.835 249.119 178.578C249.174 178.673 249.38 179.099 249.356 180.303C249.322 181.931 248.86 184.161 247.988 186.774C246.255 191.969 243.202 197.808 240.382 201.709C238.298 204.593 236.72 208.329 235.338 211.201C233.827 214.342 232.465 216.683 230.743 218.118C229.275 219.34 227.292 220.114 223.808 219.386C220.218 218.635 215.166 216.295 208.025 211.214Z" fill="#86D0E3" stroke="#0C74AB" stroke-width="7"/>
<path d="M76.3096 263.696C75.2412 262.283 74.6064 259.213 75.7456 254.244C76.8587 249.389 79.5211 243.465 83.8275 237.313C92.2895 225.226 106.813 212.667 127.158 205.958L128.132 205.643C134.493 203.835 160.472 196 183.248 191.67C194.803 189.473 205.066 188.277 211.469 189.023C214.832 189.415 216.095 190.235 216.419 190.653C216.487 190.741 216.573 190.869 216.55 191.259C216.521 191.738 216.314 192.586 215.602 193.885C212.646 199.28 211.108 203.642 210.789 207.249C210.456 211.012 211.46 213.985 213.477 216.191C215.35 218.239 217.802 219.288 219.665 219.952C220.582 220.278 221.586 220.585 222.261 220.807C222.365 220.841 222.463 220.875 222.556 220.907C222.481 220.996 222.401 221.091 222.312 221.192C221.578 222.029 220.487 223.101 218.927 224.465C212.625 229.974 199.808 239.274 176.003 255.488C174.159 256.744 168.475 259.68 160.369 262.945C152.351 266.176 142.21 269.628 131.568 271.992C120.9 274.361 109.899 275.597 100.094 274.522C90.3439 273.454 82.0675 270.141 76.3096 263.696Z" fill="#86D0E3" stroke="#0C74AB" stroke-width="7"/>
<path d="M191.255 93.6098C195.625 93.8405 200.926 94.9201 206.281 97.0361C216.983 101.265 227.4 109.409 231.466 122.525C235.714 142.168 240.153 160.245 241.741 172.396C242.135 175.411 242.338 177.955 242.33 179.997C242.322 182.007 242.104 183.246 241.856 183.913C241.515 183.808 240.917 183.565 240.005 182.987C233.476 178.847 225.236 180.384 217.794 182.626C213.949 183.785 209.902 185.276 205.999 186.648C202.036 188.042 198.155 189.338 194.392 190.229C186.792 192.028 180.413 191.991 175.326 188.485C170.172 184.933 165.383 177.16 162.709 161.055C162.501 159.799 162.424 155.908 162.836 150.232C163.238 144.689 164.081 137.761 165.564 130.592C167.048 123.41 169.155 116.077 172.049 109.679C174.938 103.292 178.5 98.0825 182.777 94.79C183.254 94.4833 184.177 94.1069 185.671 93.8522C187.18 93.5948 189.07 93.4945 191.255 93.6098Z" fill="#86D0E3" stroke="#0082AA" stroke-width="7"/>
<path d="M281.749 248.155C283.295 243.931 286.602 240.009 291.054 236.863C295.649 233.616 301.257 231.35 306.803 230.495C312.368 229.636 317.609 230.232 321.669 232.365C325.608 234.435 328.733 238.098 330.017 244.105L330.064 244.324L330.138 244.536C332.668 251.723 333.702 255.934 333.81 258.562C333.861 259.804 333.692 260.486 333.52 260.882C333.361 261.248 333.102 261.597 332.562 262.018C331.966 262.485 331.138 262.957 329.882 263.591C328.717 264.18 327.123 264.937 325.475 265.825C322.046 267.673 317.954 270.301 313.522 274.82C305.286 283.216 301.235 290.078 298.448 293.957C296.978 296.003 296.144 296.801 295.51 297.128C295.402 297.183 295.271 297.242 295.093 297.281C294.349 288.001 290.976 278.625 287.921 270.392C286.194 265.738 284.571 261.468 283.405 257.542C282.302 253.826 281.703 250.71 281.749 248.155Z" fill="#86D0E3" stroke="#0C74AB" stroke-width="7"/>
<path d="M207.805 476.415C205.994 471.775 193.521 454.868 191.053 454.522C188.05 454.1 189.352 459.791 181.117 469.836C167.378 483.402 183.967 470.354 165.319 485.913L152.669 492.559L133.634 499.008C118.263 500.583 103.45 498.267 92.3516 502.127C81.7037 505.83 73.7877 511.616 69.2495 521.676C70.0652 534.353 73.1317 543.188 77.5051 549.18C81.9267 555.236 90.3349 553.952 97.2314 555.392C111.301 558.328 106.301 557.905 127.631 558.241L141.238 557.615L151.882 555.015C168.146 548.892 183.456 536.172 194.213 521.747C199.572 514.56 203.345 504.582 205.834 497.986C208.314 491.417 208.691 480.325 207.805 476.415Z" fill="#87CFE5" stroke="#0076B8" stroke-width="7"/>
<path d="M111.961 510.911C112.297 510.887 112.632 510.742 112.893 510.52C113.153 510.297 113.317 510.014 113.349 509.723C113.382 509.432 113.281 509.154 113.069 508.939C112.857 508.724 112.552 508.59 112.221 508.577C111.507 508.55 110.813 508.527 110.099 508.51C97.4705 507.801 83.3038 511.01 71.4096 516.978C70.7277 517.301 70.0814 517.611 69.4038 517.943C70.6638 519.867 71.9238 521.79 73.1838 523.714C73.781 523.339 74.348 522.985 74.9472 522.62C85.4383 515.95 97.1596 511.867 109.857 511.077C110.563 511.017 111.25 510.962 111.961 510.911Z" fill="#0074AB"/>
<path d="M114.971 525.169C115.329 525.042 115.649 524.8 115.863 524.509C116.075 524.217 116.166 523.9 116.11 523.614C116.054 523.329 115.856 523.095 115.557 522.951C115.258 522.808 114.883 522.766 114.517 522.849C113.851 523 113.221 523.144 112.555 523.302C100.829 525.853 88.7357 530.817 78.0598 536.626C77.4494 536.947 76.8674 537.254 76.2593 537.577C75.1725 538.152 74.3609 539.007 74.0277 539.988C73.6935 540.967 73.8653 541.991 74.4796 542.803C75.0939 543.614 76.0934 544.135 77.2312 544.219C78.3723 544.304 79.5587 543.944 80.5551 543.252C81.103 542.873 81.6249 542.512 82.1717 542.136C91.774 535.367 101.738 529.81 113.093 525.844C113.729 525.613 114.331 525.395 114.971 525.169Z" fill="#007BA4"/>
</g>
<defs>
<clipPath id="clip0_465_737">
<rect width="700" height="800" fill="white"/>
</clipPath>
<clipPath id="clip1_465_737">
<rect width="180.151" height="98.1055" fill="white" transform="translate(221.24 663.77) rotate(-17.1845)"/>
</clipPath>
</defs>
</svg>
