<svg width="700" height="800" viewBox="0 0 700 800" fill="none" xmlns="http://www.w3.org/2000/svg">
<g clip-path="url(#clip0_465_636)">
<path d="M516.039 485.682C513.793 479.503 519.481 472.421 521.759 472.036C520.888 469.272 518.179 460.747 524.554 462.579C535.089 477.05 541.375 478.541 556.069 495.123L566.578 502.18L582.883 508.989C596.552 510.593 610.256 508.028 619.748 512.105C628.855 516.017 635.206 522.177 637.914 532.94C635.421 546.539 631.427 556.032 626.647 562.481C621.813 569.001 614.394 567.67 607.964 569.252C594.846 572.479 599.422 571.998 580.104 572.477L567.897 571.882L558.641 569.152C544.794 562.677 532.723 549.121 525.002 533.712C521.155 526.034 519.128 515.355 517.792 508.296C516.461 501.265 514.697 489.88 516.039 485.682Z" fill="#87CFE5" stroke="#0076B8" stroke-width="7"/>
<path d="M601.225 520.58C600.934 520.559 600.66 520.409 600.463 520.174C600.268 519.939 600.165 519.639 600.178 519.328C600.191 519.017 600.321 518.718 600.538 518.485C600.755 518.252 601.042 518.104 601.334 518.085C601.965 518.046 602.577 518.012 603.207 517.983C614.393 517.044 626.363 520.276 635.938 526.492C636.49 526.828 637.013 527.15 637.559 527.496C636.175 529.573 634.79 531.65 633.406 533.727C632.936 533.334 632.49 532.964 632.017 532.581C623.774 525.593 614.077 521.391 603.048 520.727C602.436 520.673 601.841 520.624 601.225 520.58Z" fill="#0074AB"/>
<path d="M596.519 535.882C596.223 535.752 595.978 535.497 595.832 535.188C595.688 534.879 595.654 534.541 595.744 534.234C595.835 533.928 596.043 533.675 596.326 533.517C596.609 533.359 596.944 533.309 597.254 533.392C597.816 533.545 598.348 533.69 598.91 533.85C608.833 536.411 618.728 541.551 627.258 547.615C627.747 547.951 628.213 548.27 628.7 548.608C629.571 549.208 630.159 550.111 630.31 551.156C630.462 552.199 630.163 553.298 629.506 554.175C628.849 555.052 627.897 555.624 626.886 555.73C625.872 555.837 624.883 555.469 624.108 554.743C623.682 554.345 623.277 553.965 622.851 553.572C615.403 546.465 607.462 540.659 598.07 536.577C597.545 536.339 597.048 536.115 596.519 535.882Z" fill="#007BA4"/>
<path d="M454.163 658.632C443.806 639.231 432.742 631.675 422.5 629.621C411.889 627.494 400.905 630.996 390.614 636.489C379.977 642.167 372.275 647.463 370.321 658.334C368.278 669.699 372.23 688.696 390.537 722.992C397.618 748.788 400.137 762.545 408.423 773.738C416.762 785.003 436.008 790.937 440.839 793.432C448.362 793.533 448.985 795.624 452.921 794.239C454.997 793.509 457.832 796.702 460.22 795.371C462.464 794.12 465.964 798.092 468.621 796.674C488.877 799.814 507.143 792.973 484.69 764.818C407.09 729.006 488.891 780.143 475.281 735.149C461.671 690.154 464.62 678.222 454.163 658.632Z" fill="#87CFE5" stroke="#0178B2" stroke-width="9"/>
<path d="M405.612 616.942C357.687 619.555 365.523 659.023 380.502 702.595C395.482 746.167 406.991 769.735 416.229 773.491C427.359 786.048 401.557 727.35 393.755 694.745C360.82 598.944 456.826 624.055 405.612 616.942Z" fill="#31A7BA"/>
<path d="M380.428 289.101C485.665 289.101 570.928 370.686 570.928 471.269C570.928 571.851 485.665 653.437 380.428 653.437C275.19 653.437 189.928 571.851 189.928 471.269C189.928 370.686 275.19 289.101 380.428 289.101Z" fill="#86D0E3" stroke="#0C74AB" stroke-width="7"/>
<path d="M510.85 597.994C475.42 636.606 409.695 651.951 384.021 649.476C274.137 655.417 191.467 562.249 194.035 469.784C195.643 411.866 180.684 548.492 323.431 606.905C399.939 644.031 510.85 597.994 510.85 597.994Z" fill="#37B4CA"/>
<path d="M299.504 330.379C307.331 316.334 313.354 308.343 327.192 308.487" stroke="#025081" stroke-width="13" stroke-linecap="round"/>
<path d="M239.671 517.995C236.614 514.584 220.113 504.376 217.756 505.001C214.887 505.761 217.797 510.29 213.319 522.257C204.882 539.405 216.077 521.639 203.762 542.397L194.226 553.031L178.801 565.898C165.246 573.085 151.024 576.63 142.062 584.22C133.463 591.503 127.987 599.591 126.888 610.177C131.468 621.052 136.94 627.689 142.745 631.325C148.614 635 155.9 630.695 162.631 629.364C176.362 626.648 171.671 628.161 191.243 620.412L203.474 614.728L212.403 608.42C225.397 596.885 235.524 579.89 240.978 563.108C243.696 554.748 244.122 544.523 244.398 537.766C244.674 531.036 241.662 521.11 239.671 517.995Z" fill="#87CFE5" stroke="#0076B8" stroke-width="7"/>
<path d="M162.621 584.572C162.92 584.424 163.182 584.17 163.353 583.875C163.523 583.58 163.587 583.269 163.528 583.001C163.471 582.731 163.294 582.524 163.035 582.414C162.777 582.305 162.458 582.302 162.152 582.415C161.492 582.661 160.852 582.902 160.194 583.156C148.453 587.294 136.492 595.468 127.44 605.218C126.915 605.76 126.419 606.277 125.901 606.826C127.633 608.048 129.366 609.269 131.098 610.491C131.529 609.934 131.94 609.409 132.376 608.86C139.935 599.02 149.399 590.998 160.75 585.512C161.377 585.192 161.987 584.885 162.621 584.572Z" fill="#0074AB"/>
<path d="M169.682 596.014C169.971 595.767 170.189 595.433 170.296 595.095C170.402 594.758 170.389 594.444 170.251 594.213C170.114 593.982 169.862 593.851 169.546 593.837C169.229 593.823 168.875 593.928 168.565 594.138C168.003 594.523 167.472 594.888 166.911 595.279C156.98 601.951 147.443 610.891 139.455 620.041C138.995 620.555 138.557 621.045 138.099 621.56C137.281 622.477 136.799 623.537 136.792 624.528C136.783 625.517 137.25 626.356 138.056 626.84C138.862 627.324 139.932 627.407 140.996 627.052C142.063 626.696 143.037 625.932 143.738 624.946C144.123 624.405 144.49 623.889 144.876 623.351C151.593 613.759 159.007 605.098 168.172 597.318C168.682 596.874 169.166 596.455 169.682 596.014Z" fill="#007BA4"/>
<path d="M307.643 266.646C315.203 263.418 321.287 263.131 325.8 264.456C330.344 265.79 333.657 268.856 335.548 273.027L335.701 273.365L335.921 273.663C338.429 277.053 340.122 279.784 341.188 281.973C342.267 284.188 342.612 285.661 342.641 286.582C342.666 287.387 342.46 287.732 342.255 287.965C341.966 288.295 341.364 288.724 340.169 289.138C337.655 290.01 334.145 290.324 329.806 290.806C325.78 291.253 321.066 291.851 317.243 293.583C313.915 295.092 310.517 296.874 307.414 298.441C304.238 300.044 301.357 301.428 298.794 302.326C296.166 303.248 294.332 303.485 293.119 303.261C292.293 303.109 291.54 302.721 290.869 301.435C289.191 291.859 290.676 285.561 293.659 280.602C296.759 275.45 301.637 271.418 307.643 266.646Z" fill="#86D0E3" stroke="#0C74AB" stroke-width="7"/>
<path d="M383.001 283.853C397.144 279.41 404.385 280.279 415.898 288.668" stroke="#025081" stroke-width="16" stroke-linecap="round"/>
<path d="M400.005 298.633C409.962 294.054 422.266 296.563 434.216 304.65C446.162 312.734 457.555 326.284 465.356 343.247C474.143 362.354 478.47 379.077 477.403 392.409C476.354 405.523 470.056 415.752 456.692 421.898C446.738 426.476 434.809 423.963 423.213 415.835C411.605 407.699 400.488 394.015 392.541 376.733C384.593 359.45 381.44 342.104 382.818 327.995C384.195 313.902 390.051 303.21 400.005 298.633Z" fill="#FEFEFE" stroke="#0F79AB" stroke-width="6"/>
<path d="M320.636 326.104C344.117 315.109 374.149 327.799 386.803 354.824C393.943 370.071 396.425 383.801 393.491 395.365C390.598 406.766 382.286 416.642 366.493 424.037C343.101 434.99 314.641 422.218 301.735 394.657C288.829 367.094 297.244 337.057 320.636 326.104Z" fill="#FEFEFE" stroke="#0F79AB" stroke-width="6"/>
<path d="M411.551 325.809C411.863 336.021 407.072 344.454 400.332 344.66C393.592 344.866 387.086 336.778 386.774 326.565C383.958 316.249 389.452 307.577 396.193 307.371C403.75 309.142 411.227 315.176 411.551 325.809Z" fill="#2B2A28"/>
<path d="M408.002 502.135C415.875 473.253 416.153 455.617 410.439 422" stroke="#0875A4" stroke-width="7" stroke-linecap="round"/>
<path d="M403.369 427.763C414.41 427.426 423.066 417.519 422.703 405.636C422.34 393.752 413.096 384.391 402.055 384.729C391.015 385.066 382.359 394.973 382.721 406.856C383.084 418.74 392.328 428.1 403.369 427.763Z" fill="#ED6F7A"/>
<path d="M363.095 353.903C371.638 355.143 374.998 350.538 374.739 342.043C374.545 335.694 362.256 326.416 356.32 328.598C348.325 328.842 348.497 334.488 348.691 340.837C348.885 347.185 356.471 354.106 363.095 353.903Z" fill="#2B2A28"/>
<path d="M283.143 461.913C362.024 521.366 466.588 517.635 507.777 411.729" stroke="#0875A4" stroke-width="7" stroke-linecap="round"/>
<path d="M434.383 495.032L429.328 496.528L424.791 497.973L418.701 499.547L415.085 499.897L412.314 500.165L410.424 502.001L407.686 522.264L407.174 527.344L408.59 530.391L411.553 532.637L416.024 533.542L420.171 533.898L424.756 532.748L429.572 529.521L434.656 523.655L439.233 515.186L443.402 505.728L446.215 498.154L447.885 489.701L434.383 495.032Z" fill="#FEFEFE"/>
<path d="M410.424 502.001L412.314 500.165L415.085 499.897L418.701 499.547L424.791 497.973L429.328 496.528L434.383 495.032L447.885 489.701L446.215 498.154L443.402 505.728L439.233 515.186L434.656 523.655L429.572 529.521L424.756 532.748L420.171 533.898L416.024 533.542L411.553 532.637L408.59 530.391L407.174 527.344L407.686 522.264L410.424 502.001ZM410.424 502.001L411.01 500.817" stroke="#0875A4" stroke-width="5"/>
<path d="M399.583 501.711L399.504 501.728L399.424 501.737L386.111 503.232L386.042 503.24L385.973 503.242L374.43 503.513L374.386 503.514L366.388 504.08L363.437 505.034L361.836 514.611L362.373 527.1L364.65 533.266L369.017 537.575L373.083 540.004L379.002 540.793L384.45 540.967L390.368 539.38L396.428 535.382L402.635 528.337L406.849 518.003L409.971 507.573L410.232 499.383L399.583 501.711Z" fill="#FEFEFE" stroke="#0578A5" stroke-width="6"/>
<path d="M267.729 474.399C279.265 463.727 280.814 455.52 279.022 438.812" stroke="#0875A4" stroke-width="7" stroke-linecap="round"/>
<path d="M504.18 385.676C503.087 402.615 506.112 409.93 519.758 417.961" stroke="#0875A4" stroke-width="7" stroke-linecap="round"/>
<path d="M189.109 294.056C188.153 293.041 187.439 291.702 186.685 289.787C186.307 288.826 185.954 287.817 185.537 286.654C185.147 285.566 184.714 284.382 184.204 283.153C182.968 279.175 181.799 275.828 181.004 272.566C180.215 269.326 179.913 266.588 180.307 264.109C181.038 259.514 184.423 254.444 196.208 248.791C197.835 248.01 198.722 248.251 199.423 248.687C200.404 249.296 201.525 250.659 202.638 252.984C204.845 257.598 206.16 264.087 207.148 269.154C207.827 272.638 209.485 276.382 210.923 279.657C212.45 283.137 213.767 286.171 214.312 288.834C214.844 291.43 214.485 292.892 213.587 293.899C212.524 295.091 209.959 296.528 204.008 297.152C194.305 297.617 190.839 295.893 189.109 294.056Z" fill="#86D0E3" stroke="#0C74AB" stroke-width="7"/>
<path d="M237.008 289.731C225.363 291.396 220.53 288.835 217.89 285.924C216.38 284.26 215.311 282.19 214.264 279.755C213.316 277.55 212.257 274.685 210.92 272.313C207.692 265.591 205.395 258.753 205.68 252.788C205.82 249.864 206.577 247.203 208.122 244.835C209.669 242.464 212.128 240.197 215.957 238.255C220.368 236.019 223.694 234.767 226.155 234.207C228.661 233.637 229.886 233.871 230.398 234.096C230.731 234.242 231.047 234.494 231.293 235.343C231.575 236.318 231.654 237.792 231.443 239.817C231.02 243.888 229.612 248.799 228.329 253.678C227.711 256.032 227.121 258.389 226.776 260.468C226.454 262.412 226.235 264.691 226.798 266.612C229.015 274.18 232.464 278.709 236.301 281.365C238.592 282.952 240.882 283.765 242.801 284.223C241.383 285.608 239.49 287.394 237.008 289.731Z" fill="#86D0E3" stroke="#0C74AB" stroke-width="7"/>
<path d="M230.496 269.461C229.574 267.743 229.191 265.908 229.045 263.76C228.971 262.673 228.959 261.549 228.956 260.318C228.953 259.172 228.957 257.91 228.911 256.637C229.031 253.717 230.33 250.342 232.721 246.907C235.114 243.47 238.456 240.186 242.264 237.535C250.111 232.071 258.772 230.009 264.743 232.847C270.837 235.744 273.64 238.06 274.816 239.742C275.354 240.513 275.516 241.1 275.551 241.559C275.588 242.044 275.5 242.627 275.198 243.39C274.505 245.142 273.192 246.807 271.437 249.399C269.875 251.706 268.017 254.715 267.637 258.273C266.954 264.684 266.969 269.248 266.925 272.401C266.903 274.015 266.865 275.091 266.754 275.898C266.647 276.678 266.506 276.9 266.481 276.938C266.459 276.971 266.136 277.489 262.818 278.169C259.758 278.796 255.462 279.365 248.678 280.5C236.663 276.687 232.278 272.779 230.496 269.461Z" fill="#86D0E3" stroke="#0C74AB" stroke-width="7"/>
<path d="M156.693 309.99C155.626 308.941 155.076 307.837 154.767 306.783C154.443 305.68 154.376 304.623 154.322 303.552C154.3 303.117 154.273 302.396 154.165 301.791C154.114 301.503 154.01 301.032 153.772 300.526C153.168 294.025 153.965 286.88 157.11 280.912C160.312 274.836 166.086 269.691 176.135 267.66C176.137 267.661 176.14 267.661 176.142 267.662C176.239 267.705 176.489 267.852 176.858 268.255C177.626 269.093 178.48 270.566 179.278 272.626C180.857 276.707 181.815 282.038 181.859 286.092C181.894 289.281 182.851 292.683 183.405 295.2C184.022 298.003 184.272 300.116 183.793 301.945C183.369 303.564 182.231 305.451 178.879 307.405C175.531 309.356 170.156 311.254 161.666 312.854C159.207 311.989 157.672 310.954 156.693 309.99Z" fill="#86D0E3" stroke="#0C74AB" stroke-width="7"/>
<path d="M97.7114 441.616C95.9737 441.27 93.459 439.398 91.0083 434.928C88.6136 430.56 86.6657 424.364 85.7954 416.906C84.0854 402.25 86.5923 383.214 97.335 364.68L97.8535 363.798C101.405 358.219 115.61 335.099 129.751 316.728C136.925 307.407 143.799 299.693 149.08 295.995C151.853 294.053 153.342 293.827 153.862 293.924C153.971 293.944 154.121 293.982 154.362 294.289C154.659 294.666 155.068 295.438 155.4 296.881C156.775 302.877 158.525 307.159 160.684 310.065C162.936 313.099 165.662 314.653 168.636 314.961C171.396 315.247 173.925 314.401 175.758 313.659C176.661 313.293 177.615 312.855 178.267 312.572C178.367 312.529 178.463 312.489 178.553 312.451C178.557 312.568 178.56 312.692 178.561 312.826C178.568 313.94 178.466 315.466 178.206 317.522C177.159 325.826 173.761 341.293 166.75 369.229C166.207 371.392 163.91 377.364 160.024 385.191C156.179 392.934 150.896 402.253 144.515 411.091C138.118 419.951 130.719 428.185 122.679 433.898C114.683 439.58 106.297 442.605 97.7114 441.616Z" fill="#86D0E3" stroke="#0C74AB" stroke-width="7"/>
<path d="M70.5647 238.134C73.9839 235.402 78.662 232.686 84.0697 230.708C94.8774 226.756 108.073 225.918 119.828 233.017C136.056 244.871 151.386 255.429 160.648 263.453C162.947 265.444 164.79 267.21 166.14 268.741C167.47 270.248 168.13 271.32 168.388 271.983C168.064 272.13 167.455 272.346 166.39 272.52C158.76 273.766 153.624 280.391 149.553 287.011C147.45 290.433 145.417 294.237 143.413 297.856C141.378 301.531 139.339 305.079 137.12 308.245C132.637 314.64 127.846 318.852 121.715 319.613C115.503 320.383 106.758 317.759 94.0572 307.501C93.0669 306.702 90.4235 303.845 86.9592 299.33C83.5761 294.921 79.6022 289.184 75.945 282.841C72.2814 276.488 68.9828 269.609 66.8927 262.905C64.8065 256.212 64.0067 249.953 65.0141 244.65C65.1672 244.104 65.6064 243.209 66.5534 242.026C67.5103 240.831 68.8556 239.5 70.5647 238.134Z" fill="#86D0E3" stroke="#0082AA" stroke-width="7"/>
<path d="M263.627 266.08C263.639 261.795 265.363 257.181 268.42 252.867C271.581 248.405 276.019 244.486 280.886 241.864C285.769 239.232 290.853 238.025 295.365 238.61C299.748 239.179 303.881 241.466 307.091 246.453L307.213 246.644L307.359 246.817C312.153 252.497 314.53 255.959 315.512 258.283C315.974 259.377 316.037 260.021 316.014 260.399C315.993 260.743 315.885 261.118 315.535 261.668C315.145 262.28 314.54 262.979 313.587 263.974C312.705 264.894 311.478 266.113 310.246 267.469C307.681 270.291 304.76 274.046 302.165 279.637C297.349 290.011 295.905 297.607 294.633 302.041C293.962 304.381 293.466 305.354 293.006 305.842C292.927 305.926 292.823 306.019 292.668 306.115C288.814 297.937 282.496 290.556 276.875 284.12C273.688 280.471 270.733 277.142 268.32 273.972C266.045 270.983 264.445 268.38 263.627 266.08Z" fill="#86D0E3" stroke="#0C74AB" stroke-width="7"/>
<path d="M207.008 517.909C217.091 504.726 239.246 506.423 247.571 506.242C256.196 506.055 276.004 514.47 283.643 519.959C306.214 529.701 328.958 565.409 316.538 574.695C299.082 601.866 273.513 567.539 267.289 579.124C255.052 595.123 245.841 604.151 233.351 608.25C225.65 615.595 215.565 611.564 209.978 611.397C198.127 611.042 206.173 611.704 203.183 610.142C201.606 609.318 197.146 608.481 195.379 607.165C193.718 605.928 191.682 604.321 189.711 602.904C187.257 601.141 189.224 601.016 182.714 591.855C180.839 583.641 173.348 583.013 178.965 559.469C183.671 539.742 196.349 527.111 207.008 517.909Z" fill="#87CFE5" stroke="#0178B2" stroke-width="9"/>
<path d="M204.903 525.016C229.22 502.788 254.91 511.729 261.978 513.468C269.047 515.206 234.801 509.795 213.13 530.981C213.13 530.981 196.919 552.644 181.596 574.783C180.348 572.486 184.686 543.497 204.903 525.016Z" fill="#31A7BA"/>
<path d="M266.232 576.305C266.473 575.757 267.337 574.659 269.653 572.945C271.795 571.359 274.934 569.425 279.334 567.074C288.121 567.004 292.642 567.038 296.714 567.504C300.876 567.98 304.615 568.91 312.07 570.775C313.825 571.214 315.125 571.655 316.056 572.077C317.007 572.509 317.434 572.859 317.599 573.048C317.609 573.059 317.616 573.07 317.623 573.079C317.585 573.163 317.493 573.331 317.267 573.586C316.489 574.466 314.881 575.592 312.405 576.925C309.999 578.221 307.034 579.579 303.791 580.991L303.504 581.116L303.35 581.229C303.311 581.249 303.237 581.284 303.124 581.327C302.807 581.448 302.169 581.643 301.117 581.766C299.093 582.001 295.537 581.965 289.827 580.609C289.424 580.27 288.994 580.048 288.671 579.905C287.984 579.602 287.193 579.4 286.436 579.252C284.909 578.954 282.967 578.773 280.99 578.62C276.861 578.302 272.416 578.086 269.162 577.402C267.704 577.096 266.826 576.757 266.379 576.478L266.21 576.36C266.216 576.344 266.223 576.325 266.232 576.305Z" fill="#31A7BA" stroke="#0178B2" stroke-width="5"/>
</g>
<defs>
<clipPath id="clip0_465_636">
<rect width="700" height="800" fill="white"/>
</clipPath>
</defs>
</svg>
