<svg width="700" height="800" viewBox="0 0 700 800" fill="none" xmlns="http://www.w3.org/2000/svg">
<g clip-path="url(#clip0_465_585)">
<path d="M519.935 498.77C517.69 492.591 523.378 485.509 525.655 485.124C524.784 482.36 522.075 473.834 528.45 475.666C538.985 490.138 545.272 491.629 559.965 508.211L570.474 515.268L586.779 522.077C600.448 523.681 614.152 521.115 623.645 525.193C632.752 529.105 639.103 535.265 641.81 546.028C639.318 559.627 635.324 569.12 630.543 575.569C625.71 582.089 618.291 580.758 611.861 582.34C598.743 585.567 603.318 585.086 584.001 585.565L571.793 584.97L562.537 582.24C548.69 575.765 536.619 562.209 528.898 546.799C525.052 539.122 523.024 528.443 521.688 521.384C520.358 514.352 518.593 502.967 519.935 498.77Z" fill="#87CFE5" stroke="#0076B8" stroke-width="7"/>
<path d="M605.121 533.668C604.83 533.647 604.557 533.497 604.36 533.262C604.164 533.027 604.061 532.727 604.075 532.416C604.088 532.105 604.217 531.806 604.434 531.573C604.652 531.34 604.938 531.192 605.231 531.173C605.862 531.134 606.473 531.1 607.103 531.071C618.289 530.132 630.259 533.364 639.835 539.58C640.387 539.916 640.909 540.238 641.456 540.584C640.071 542.661 638.687 544.738 637.303 546.815C636.833 546.422 636.386 546.052 635.913 545.669C627.671 538.681 617.974 534.479 606.944 533.815C606.333 533.761 605.738 533.712 605.121 533.668Z" fill="#0074AB"/>
<path d="M600.416 548.97C600.12 548.84 599.874 548.585 599.728 548.276C599.584 547.967 599.55 547.629 599.641 547.322C599.731 547.016 599.939 546.763 600.223 546.605C600.506 546.447 600.841 546.397 601.15 546.48C601.713 546.633 602.245 546.778 602.807 546.937C612.729 549.499 622.625 554.639 631.154 560.703C631.643 561.038 632.11 561.358 632.597 561.696C633.467 562.295 634.056 563.199 634.206 564.244C634.358 565.287 634.059 566.386 633.402 567.263C632.746 568.139 631.793 568.712 630.782 568.818C629.769 568.925 628.779 568.557 628.005 567.831C627.579 567.433 627.173 567.053 626.748 566.66C619.299 559.553 611.358 553.747 601.966 549.665C601.442 549.427 600.944 549.203 600.416 548.97Z" fill="#007BA4"/>
<path d="M459.052 651.887C449.816 631.928 439.2 623.754 429.091 621.121C418.618 618.394 407.453 621.265 396.866 626.164C385.923 631.228 377.932 636.077 375.363 646.82C372.677 658.05 375.542 677.241 391.868 712.523C397.47 738.68 399.203 752.558 406.838 764.204C414.523 775.926 433.4 782.944 438.082 785.711C445.586 786.239 446.09 788.362 450.098 787.204C452.212 786.593 454.861 789.942 457.321 788.749C459.632 787.627 462.901 791.792 465.634 790.527C485.679 794.815 504.304 789.024 483.489 759.637C408.053 719.469 486.812 775.176 475.784 729.481C464.755 683.785 468.378 672.04 459.052 651.887Z" fill="#87CFE5" stroke="#0178B2" stroke-width="9"/>
<path d="M411.612 619.942C363.687 622.555 371.523 662.023 386.502 705.595C401.482 749.167 412.991 772.735 422.229 776.491C433.359 789.048 407.557 730.35 399.755 697.745C366.82 601.944 462.826 627.055 411.612 619.942Z" fill="#31A7BA"/>
<path d="M386.428 292.101C491.665 292.101 576.928 373.686 576.928 474.269C576.928 574.851 491.665 656.437 386.428 656.437C281.19 656.437 195.928 574.851 195.928 474.269C195.928 373.686 281.19 292.101 386.428 292.101Z" fill="#86D0E3" stroke="#0C74AB" stroke-width="7"/>
<path d="M516.85 600.994C481.42 639.606 415.695 654.951 390.021 652.476C280.137 658.417 197.467 565.249 200.035 472.784C201.643 414.866 186.684 551.492 329.431 609.905C405.939 647.031 516.85 600.994 516.85 600.994Z" fill="#37B4CA"/>
<path d="M313.269 334.401C324.361 322.761 332.191 316.53 345.553 320.133" stroke="#025081" stroke-width="13" stroke-linecap="round"/>
<path d="M403.419 300.018C417.562 295.576 424.803 296.445 436.316 304.834" stroke="#025081" stroke-width="16" stroke-linecap="round"/>
<path d="M232.017 503.8C229.217 500.176 213.504 488.791 211.108 489.243C208.191 489.792 210.763 494.521 205.425 506.13C195.76 522.617 208.22 505.714 194.426 525.52L184.139 535.43L167.817 547.139C153.775 553.318 139.333 555.817 129.84 562.734C120.733 569.37 114.683 577.038 112.815 587.516C116.59 598.695 121.564 605.714 127.089 609.763C132.674 613.856 140.254 610.094 147.064 609.257C160.957 607.549 156.168 608.716 176.252 602.415L188.866 597.637L198.231 591.997C212.031 581.44 223.37 565.228 230.033 548.889C233.353 540.748 234.522 530.582 235.291 523.863C236.057 517.171 233.777 507.052 232.017 503.8Z" fill="#87CFE5" stroke="#0076B8" stroke-width="7"/>
<path d="M150.317 564.584C150.626 564.458 150.907 564.224 151.099 563.942C151.289 563.66 151.376 563.355 151.337 563.082C151.299 562.81 151.138 562.59 150.888 562.462C150.638 562.334 150.321 562.307 150.007 562.398C149.331 562.595 148.675 562.789 148 562.995C135.989 566.266 123.464 573.546 113.725 582.61C113.163 583.113 112.63 583.592 112.073 584.102C113.712 585.446 115.35 586.791 116.989 588.136C117.46 587.612 117.908 587.118 118.383 586.603C126.639 577.34 136.662 570.028 148.383 565.384C149.031 565.112 149.663 564.85 150.317 564.584Z" fill="#0074AB"/>
<path d="M156.527 576.51C156.833 576.284 157.075 575.967 157.206 575.638C157.336 575.309 157.346 574.995 157.226 574.755C157.106 574.515 156.864 574.365 156.549 574.328C156.235 574.291 155.874 574.37 155.55 574.557C154.961 574.9 154.404 575.225 153.817 575.574C143.425 581.505 133.262 589.725 124.629 598.269C124.133 598.748 123.659 599.205 123.166 599.685C122.283 600.54 121.725 601.562 121.645 602.55C121.564 603.536 121.969 604.407 122.737 604.948C123.506 605.49 124.567 605.65 125.654 605.374C126.745 605.097 127.772 604.405 128.542 603.473C128.966 602.961 129.37 602.473 129.794 601.966C137.192 592.889 145.218 584.791 154.925 577.699C155.467 577.294 155.98 576.911 156.527 576.51Z" fill="#007BA4"/>
<path d="M412.015 317.5C421.971 312.921 434.276 315.431 446.226 323.518C458.172 331.602 469.565 345.151 477.366 362.114C486.153 381.222 490.479 397.945 489.412 411.277C488.364 424.39 482.066 434.62 468.701 440.766C458.748 445.344 446.819 442.831 435.223 434.703C423.615 426.567 412.498 412.883 404.55 395.6C396.603 378.318 393.449 360.972 394.828 346.863C396.205 332.769 402.061 322.078 412.015 317.5Z" fill="#FEFEFE" stroke="#0F79AB" stroke-width="6"/>
<path d="M332.646 344.972C356.127 333.977 386.159 346.667 398.813 373.692C405.953 388.939 408.435 402.67 405.501 414.233C402.608 425.634 394.296 435.51 378.503 442.905C355.11 453.858 326.651 441.087 313.745 413.525C300.839 385.963 309.253 355.925 332.646 344.972Z" fill="#FEFEFE" stroke="#0F79AB" stroke-width="6"/>
<path d="M423.561 344.677C423.873 354.889 419.082 363.322 412.342 363.528C405.601 363.733 399.095 355.645 398.784 345.433C395.967 335.117 401.462 326.445 408.202 326.239C415.76 328.009 423.237 334.044 423.561 344.677Z" fill="#2B2A28"/>
<path d="M407.598 521.448C415.954 492.702 416.529 475.073 411.38 441.365" stroke="#0875A4" stroke-width="7" stroke-linecap="round"/>
<path d="M415.379 446.632C426.419 446.294 435.075 436.388 434.713 424.504C434.35 412.62 425.105 403.26 414.065 403.597C403.024 403.934 394.368 413.841 394.731 425.724C395.094 437.608 404.338 446.969 415.379 446.632Z" fill="#ED6F7A"/>
<path d="M375.105 372.771C383.648 374.011 387.008 369.406 386.749 360.91C386.555 354.562 374.266 345.284 368.33 347.466C360.334 347.71 360.507 353.356 360.701 359.704C360.894 366.053 368.481 372.973 375.105 372.771Z" fill="#2B2A28"/>
<path d="M290.074 458.441C361.297 526.883 465.558 535.657 519.093 435.423" stroke="#0875A4" stroke-width="7" stroke-linecap="round"/>
<path d="M436.28 509.373L431.083 510.254L426.405 511.148L420.171 511.983L416.54 511.9L413.756 511.835L411.661 513.432L406.524 533.224L405.409 538.206L406.452 541.401L409.126 543.984L413.457 545.417L417.531 546.265L422.221 545.67L427.388 543.041L433.135 537.824L438.691 529.961L443.959 521.069L447.655 513.884L450.322 505.691L436.28 509.373Z" fill="#FEFEFE"/>
<path d="M411.661 513.432L413.756 511.835L416.54 511.9L420.171 511.983L426.405 511.148L431.083 510.254L436.28 509.373L450.322 505.691L447.655 513.884L443.959 521.069L438.691 529.961L433.135 537.824L427.388 543.041L422.221 545.67L417.531 546.265L413.457 545.417L409.126 543.984L406.452 541.401L405.409 538.206L406.524 533.224L411.661 513.432ZM411.661 513.432L412.384 512.327" stroke="#0875A4" stroke-width="5"/>
<path d="M400.934 511.851L400.853 511.859L400.773 511.858L387.377 511.754L387.308 511.753L387.239 511.746L375.746 510.638L375.702 510.634L367.693 510.241L364.649 510.836L361.917 520.154L360.96 532.617L362.485 539.012L366.306 543.81L370.054 546.708L375.836 548.198L381.224 549.02L387.289 548.15L393.784 544.904L400.786 538.65L406.203 528.893L410.548 518.911L411.785 510.81L400.934 511.851Z" fill="#FEFEFE" stroke="#0578A5" stroke-width="6"/>
<path d="M273.279 468.999C286.007 459.78 288.524 451.816 288.739 435.014" stroke="#0875A4" stroke-width="7" stroke-linecap="round"/>
<path d="M518.629 409.128C515.523 425.815 517.653 433.439 530.243 443.041" stroke="#0875A4" stroke-width="7" stroke-linecap="round"/>
<path d="M214.467 282.976C213.631 281.659 213.071 280.159 212.533 278.242C212.261 277.274 212.014 276.272 211.725 275.131C211.452 274.056 211.15 272.892 210.787 271.669C209.952 267.813 209.132 264.489 208.625 261.367C208.115 258.232 208.013 255.769 208.439 253.812C208.834 252.004 209.691 250.549 211.423 249.32C213.276 248.005 216.312 246.824 221.255 246.115C222.156 245.986 222.87 246.223 223.698 247.094C224.654 248.1 225.586 249.817 226.412 252.225C228.054 257.015 228.838 263.16 229.412 267.88C229.803 271.099 230.985 274.829 232.025 278.14C233.127 281.645 234.094 284.754 234.424 287.298C234.781 290.042 234.201 290.631 234.076 290.728C233.74 290.987 232.107 291.695 227 290.44C219.049 287.999 216.033 285.441 214.467 282.976Z" fill="#86D0E3" stroke="#0C74AB" stroke-width="7"/>
<path d="M253.342 283.454C241.294 284.289 236.686 281.323 234.35 278.223C233.008 276.443 232.15 274.284 231.347 271.744C230.622 269.449 229.851 266.464 228.745 263.961C226.195 256.939 224.593 249.86 225.517 243.843C226.391 238.149 229.562 233.076 237.596 229.775C242.311 227.837 245.828 226.814 248.396 226.428C251.018 226.034 252.239 226.367 252.723 226.626C253.011 226.781 253.293 227.025 253.45 227.893C253.632 228.898 253.557 230.399 253.126 232.44C252.263 236.535 250.309 241.408 248.493 246.239C247.616 248.572 246.771 250.907 246.202 252.977C245.672 254.909 245.208 257.188 245.574 259.171C247.017 266.992 250.037 271.851 253.668 274.842C255.814 276.611 258.038 277.603 259.927 278.21C258.324 279.523 256.175 281.221 253.342 283.454Z" fill="#86D0E3" stroke="#0C74AB" stroke-width="7"/>
<path d="M245.593 274.717C244.31 273.249 243.527 271.546 242.903 269.486C242.588 268.442 242.325 267.35 242.046 266.151C241.787 265.034 241.508 263.803 241.178 262.573C240.643 259.7 241.153 256.12 242.715 252.237C244.278 248.352 246.8 244.403 249.918 240.967C256.344 233.886 264.324 229.938 270.778 231.368C277.366 232.827 280.616 234.457 282.139 235.834C282.836 236.464 283.126 237.001 283.262 237.44C283.407 237.904 283.452 238.492 283.328 239.304C283.044 241.166 282.138 243.083 281.007 246.002C280 248.6 278.863 251.948 279.289 255.501C280.058 261.902 281.094 266.348 281.757 269.43C282.096 271.008 282.3 272.065 282.373 272.876C282.443 273.662 282.355 273.909 282.339 273.951C282.325 273.988 282.126 274.566 279.044 275.971C276.202 277.267 272.143 278.782 265.785 281.407C253.222 280.38 248.073 277.552 245.593 274.717Z" fill="#86D0E3" stroke="#0C74AB" stroke-width="7"/>
<path d="M193.19 302.323C188.648 299.991 187.435 297.318 187.009 295.408C186.753 294.265 186.741 293.207 186.741 292.161C186.741 291.729 186.748 291.033 186.678 290.443C186.643 290.153 186.57 289.688 186.373 289.184C186.11 282.728 187.193 275.873 190.359 270.498C193.53 265.115 198.936 260.936 208.112 260.181C208.219 260.251 208.439 260.433 208.764 260.873C209.469 261.828 210.208 263.411 210.856 265.532C212.143 269.74 212.784 275.079 212.635 279.045C212.519 282.14 213.243 285.546 213.642 288.083C214.087 290.913 214.219 293.017 213.693 294.726C213.247 296.175 212.191 297.76 209.135 299.184C206.043 300.624 201.071 301.804 193.19 302.323Z" fill="#86D0E3" stroke="#0C74AB" stroke-width="7"/>
<path d="M115.927 423.701C114.227 423.202 111.888 421.114 109.844 416.444C107.847 411.881 106.457 405.537 106.252 398.03C105.85 383.281 110.036 364.542 122.382 347.036L122.977 346.203C127.009 340.961 143.211 319.194 158.927 302.15C166.9 293.503 174.432 286.43 180.02 283.215C182.955 281.527 184.458 281.434 184.967 281.577C185.074 281.607 185.22 281.658 185.433 281.985C185.695 282.387 186.034 283.192 186.236 284.659C187.074 290.753 188.437 295.173 190.329 298.26C192.304 301.481 194.881 303.272 197.815 303.842C200.539 304.372 203.133 303.755 205.025 303.178C205.957 302.894 206.946 302.542 207.62 302.318C207.724 302.283 207.823 302.253 207.916 302.223C207.91 302.339 207.901 302.464 207.891 302.597C207.799 303.707 207.562 305.218 207.121 307.243C205.34 315.422 200.583 330.526 191.119 357.729C190.386 359.835 187.568 365.58 183.002 373.031C178.486 380.402 172.396 389.215 165.256 397.451C158.097 405.709 149.997 413.254 141.481 418.23C133.012 423.18 124.391 425.448 115.927 423.701Z" fill="#86D0E3" stroke="#0C74AB" stroke-width="7"/>
<path d="M106.952 218.612C110.6 216.195 115.501 213.905 121.062 212.415C132.178 209.438 145.397 209.775 156.475 217.888C171.587 231.137 185.919 243.014 194.432 251.828C196.544 254.016 198.223 255.939 199.433 257.583C200.623 259.203 201.186 260.328 201.384 261.012C201.048 261.13 200.422 261.291 199.345 261.37C191.635 261.933 185.931 268.076 181.289 274.309C178.89 277.53 176.528 281.139 174.21 284.566C171.857 288.046 169.512 291.398 167.02 294.355C161.986 300.327 156.841 304.097 150.666 304.31C144.41 304.526 135.934 301.136 124.193 289.791C123.278 288.907 120.899 285.826 117.849 281.022C114.87 276.33 111.421 270.263 108.342 263.621C105.257 256.967 102.582 249.823 101.095 242.959C99.6113 236.108 99.3703 229.802 100.844 224.61C101.045 224.079 101.562 223.227 102.611 222.133C103.67 221.027 105.128 219.821 106.952 218.612Z" fill="#86D0E3" stroke="#0082AA" stroke-width="7"/>
<path d="M318.499 272.025C326.369 267.975 332.784 266.994 337.562 267.788C342.323 268.579 345.71 271.159 347.682 274.823L347.877 275.186L348.151 275.493C350.819 278.485 352.616 280.915 353.751 282.877C354.899 284.861 355.257 286.175 355.305 286.978C355.346 287.654 355.179 288.026 354.902 288.36C354.542 288.796 353.839 289.328 352.561 289.885C349.913 291.04 346.214 291.747 341.772 292.69C337.603 293.574 332.824 294.664 329.001 296.721C325.61 298.546 322.158 300.64 318.976 302.51C315.732 304.417 312.757 306.097 310.091 307.269C307.355 308.471 305.375 308.939 304.029 308.852C303.133 308.794 302.462 308.512 301.849 307.56C299.922 298.63 301.263 292.423 304.242 287.255C307.361 281.845 312.383 277.336 318.499 272.025Z" fill="#86D0E3" stroke="#0C74AB" stroke-width="7"/>
<path d="M269.627 269.08C269.639 264.795 271.363 260.181 274.42 255.867C277.581 251.405 282.019 247.486 286.886 244.864C291.769 242.232 296.853 241.025 301.365 241.61C305.748 242.179 309.881 244.466 313.091 249.453L313.213 249.644L313.359 249.817C318.153 255.497 320.53 258.959 321.512 261.283C321.974 262.377 322.037 263.021 322.014 263.399C321.993 263.743 321.885 264.118 321.535 264.668C321.145 265.28 320.54 265.979 319.587 266.974C318.705 267.894 317.478 269.113 316.246 270.469C313.681 273.291 310.76 277.046 308.165 282.637C303.349 293.011 301.905 300.607 300.633 305.041C299.962 307.381 299.466 308.354 299.006 308.842C298.927 308.926 298.823 309.019 298.668 309.115C294.814 300.937 288.496 293.556 282.875 287.12C279.688 283.471 276.733 280.142 274.32 276.972C272.045 273.983 270.445 271.38 269.627 269.08Z" fill="#86D0E3" stroke="#0C74AB" stroke-width="7"/>
<path d="M186.008 539.909C196.091 526.726 218.246 528.423 226.571 528.242C235.196 528.055 255.004 536.47 262.643 541.959C285.214 551.701 307.958 587.409 295.538 596.695C278.082 623.866 252.513 589.539 246.289 601.124C234.052 617.123 224.841 626.151 212.351 630.25C204.65 637.595 194.565 633.564 188.978 633.397C177.127 633.042 185.173 633.704 182.183 632.142C180.606 631.318 176.146 630.481 174.379 629.165C172.718 627.928 170.682 626.321 168.711 624.904C166.257 623.141 168.224 623.016 161.714 613.855C159.839 605.641 152.348 605.013 157.965 581.469C162.671 561.742 175.349 549.111 186.008 539.909Z" fill="#87CFE5" stroke="#0178B2" stroke-width="9"/>
<path d="M183.903 547.016C208.22 524.788 233.91 533.729 240.978 535.468C248.047 537.206 213.801 531.795 192.13 552.981C192.13 552.981 175.919 574.644 160.596 596.783C159.348 594.486 163.686 565.497 183.903 547.016Z" fill="#31A7BA"/>
<path d="M245.232 598.305C245.473 597.757 246.337 596.659 248.653 594.945C250.795 593.359 253.934 591.425 258.334 589.074C267.121 589.004 271.642 589.038 275.714 589.504C279.876 589.98 283.615 590.91 291.07 592.775C292.825 593.214 294.125 593.655 295.056 594.077C296.007 594.509 296.434 594.859 296.599 595.048C296.609 595.059 296.616 595.07 296.623 595.079C296.585 595.163 296.493 595.331 296.267 595.586C295.489 596.466 293.881 597.592 291.405 598.925C288.999 600.221 286.034 601.579 282.791 602.991L282.504 603.116L282.35 603.229C282.311 603.249 282.237 603.284 282.124 603.327C281.807 603.448 281.169 603.643 280.117 603.766C278.093 604.001 274.537 603.965 268.827 602.609C268.424 602.27 267.994 602.048 267.671 601.905C266.984 601.602 266.193 601.4 265.436 601.252C263.909 600.954 261.967 600.773 259.99 600.62C255.861 600.302 251.416 600.086 248.162 599.402C246.704 599.096 245.826 598.757 245.379 598.478L245.21 598.36C245.216 598.344 245.223 598.325 245.232 598.305Z" fill="#31A7BA" stroke="#0178B2" stroke-width="5"/>
</g>
<defs>
<clipPath id="clip0_465_585">
<rect width="700" height="800" fill="white"/>
</clipPath>
</defs>
</svg>
