<svg width="700" height="800" viewBox="0 0 700 800" fill="none" xmlns="http://www.w3.org/2000/svg">
<g clip-path="url(#clip0_465_683)">
<path d="M544.04 469.682C541.794 463.504 547.482 456.422 549.759 456.036C548.889 453.272 546.18 444.747 552.555 446.579C563.09 461.05 569.376 462.542 584.069 479.124L594.579 486.181L610.884 492.99C624.553 494.593 638.257 492.028 647.749 496.105C656.856 500.018 663.207 506.177 665.915 516.94C663.422 530.54 659.428 540.032 654.647 546.482C649.814 553.001 642.395 551.67 635.965 553.253C622.847 556.48 627.423 555.999 608.105 556.478L595.898 555.882L586.642 553.153C572.795 546.678 560.724 533.122 553.003 517.712C549.156 510.035 547.129 499.356 545.793 492.296C544.462 485.265 542.698 473.88 544.04 469.682Z" fill="#87CFE5" stroke="#0076B8" stroke-width="7"/>
<path d="M629.226 504.58C628.935 504.559 628.661 504.409 628.464 504.175C628.269 503.94 628.166 503.639 628.179 503.329C628.192 503.018 628.322 502.718 628.539 502.485C628.756 502.252 629.043 502.105 629.335 502.086C629.966 502.047 630.578 502.012 631.208 501.983C642.394 501.044 654.364 504.276 663.939 510.492C664.491 510.829 665.013 511.151 665.56 511.497C664.176 513.574 662.791 515.651 661.407 517.727C660.937 517.334 660.491 516.964 660.018 516.581C651.775 509.593 642.078 505.391 631.049 504.727C630.437 504.673 629.842 504.625 629.226 504.58Z" fill="#0074AB"/>
<path d="M624.518 519.883C624.222 519.752 623.977 519.498 623.831 519.189C623.687 518.88 623.653 518.541 623.743 518.235C623.834 517.929 624.042 517.675 624.325 517.517C624.608 517.36 624.943 517.31 625.253 517.393C625.815 517.545 626.347 517.691 626.909 517.85C636.832 520.412 646.727 525.551 655.257 531.616C655.746 531.951 656.212 532.271 656.699 532.608C657.57 533.208 658.159 534.111 658.309 535.156C658.461 536.199 658.162 537.298 657.505 538.175C656.848 539.052 655.896 539.624 654.885 539.73C653.871 539.838 652.882 539.47 652.107 538.744C651.681 538.346 651.276 537.966 650.85 537.572C643.402 530.465 635.461 524.66 626.069 520.578C625.544 520.34 625.047 520.115 624.518 519.883Z" fill="#007BA4"/>
<path d="M482.024 680.298C481.105 661.49 474.414 651.636 466.078 646.356C457.441 640.886 446.029 639.657 434.378 640.226C422.334 640.815 413.1 642.162 406.628 649.911C399.862 658.011 396.5 674 394.5 707C393.136 729.5 397.388 740.318 400 752C402.629 763.757 408.319 776.625 411.588 780.303C418.321 783.086 413.5 782.5 417 785C419.187 785.179 415.5 786.5 428.206 788.781C430.77 788.615 454.492 788.928 457.499 788.781C476.999 787.828 506.998 777.5 479.999 749.5C434.378 744.499 457.999 751.382 469.999 744.499C481.999 737.617 482.952 699.289 482.024 680.298Z" fill="#87CFE5" stroke="#0178B2" stroke-width="9"/>
<path d="M449.5 645.499C400.499 630.499 399 680.499 399 718.499C405.473 754.337 406.183 771.737 414.5 775.499C418.499 783.499 414.5 708 432.499 682.499C445.999 657.499 502 667.999 449.5 645.499Z" fill="#31A7BA"/>
<path d="M380.428 293.102C485.665 293.102 570.928 374.687 570.928 475.269C570.928 575.852 485.665 657.437 380.428 657.437C275.19 657.437 189.928 575.852 189.928 475.269C189.928 374.687 275.19 293.102 380.428 293.102Z" fill="#86D0E3" stroke="#0C74AB" stroke-width="7"/>
<path d="M510.851 601.995C475.421 640.606 409.696 655.952 384.022 653.477C274.138 659.417 191.468 566.249 194.036 473.784C195.644 415.867 180.685 552.493 323.432 610.905C399.94 648.032 510.851 601.995 510.851 601.995Z" fill="#37B4CA"/>
<path d="M299.481 355.294C307.308 341.249 313.33 333.258 327.169 333.402" stroke="#025081" stroke-width="13" stroke-linecap="round"/>
<path d="M309.731 267.758C318.121 264.154 324.863 263.709 329.844 265.043C334.833 266.379 338.373 269.571 340.336 273.903L340.497 274.258L340.732 274.568C343.39 278.086 345.175 280.925 346.29 283.206C347.417 285.511 347.762 287.052 347.775 288.027C347.787 288.879 347.556 289.313 347.251 289.647C346.859 290.078 346.11 290.579 344.759 291.054C341.946 292.044 338.056 292.447 333.366 293.035C328.972 293.585 323.915 294.301 319.811 296.161C316.178 297.807 312.47 299.741 309.059 301.455C305.578 303.203 302.395 304.73 299.559 305.737C296.655 306.768 294.569 307.082 293.156 306.854C292.161 306.693 291.34 306.259 290.645 304.938C289.01 294.905 290.736 288.21 294.121 282.86C297.64 277.3 303.097 272.908 309.731 267.758Z" fill="#86D0E3" stroke="#0C74AB" stroke-width="7"/>
<path d="M374.772 588.936C370.119 583.02 363.072 577.944 354.399 573.916C345.264 569.672 334.566 566.704 323.56 565.113C301.36 561.905 278.827 564.416 265.778 572.323C261.574 574.87 257.04 579.735 253.141 586.056C249.267 592.336 246.198 599.768 244.738 607.162C243.272 614.582 243.482 621.663 245.788 627.492C247.87 632.754 251.801 637.362 258.566 640.406C258.873 640.131 259.213 639.783 259.589 639.339C260.51 638.254 261.49 636.81 262.711 634.9C265.099 631.163 268.176 625.995 272.739 620.29C281.971 608.748 297.16 595.115 326.098 583.573L326.902 583.252L327.762 583.332L330.754 583.615C352.814 585.728 366.748 587.753 374.772 588.936Z" fill="#91E1E6" stroke="#0082AA" stroke-width="8"/>
<path d="M250.543 590.231C244.316 597.001 248.06 595.109 244.161 600.633C261.527 583.343 240.266 597.73 241.674 610.191C240.965 610.514 248.053 604.47 256.912 599.491C268.439 575.977 274.291 564.413 250.543 590.231Z" fill="#2FC7CE"/>
<path d="M386.184 620.684C388.513 617.189 389.146 613.932 388.107 610.787L388.077 610.699L388.054 610.609C385.946 602.606 377.313 594.92 364.861 590.025C352.566 585.193 337.328 583.428 323.302 586.64C309.22 589.865 293.027 599.064 280.964 609.821C274.947 615.187 270.085 620.83 267.042 626.158C263.961 631.551 262.972 636.209 263.926 639.831C264.841 643.305 267.59 646.075 272.359 648.151C277.16 650.24 283.631 651.439 291.11 651.864C306.003 652.711 324.01 650.452 338.496 647.142C350.554 643.618 364.521 637.961 374.716 631.191C379.836 627.792 383.819 624.233 386.184 620.684Z" fill="#2FC7CE" stroke="#0082AA" stroke-width="6"/>
<path d="M386 312.853C400.143 308.411 407.384 309.279 418.897 317.669" stroke="#025081" stroke-width="16" stroke-linecap="round"/>
<path d="M210.554 265.679C209.861 264.142 209.615 262.32 209.58 259.854C209.562 258.62 209.596 257.339 209.623 255.876C209.648 254.5 209.664 253.007 209.611 251.437C209.923 246.496 210.038 242.238 210.554 238.223C211.065 234.239 211.935 230.906 213.576 228.075C216.72 222.648 223.4 217.928 239.834 215.534C242.455 215.152 243.612 215.864 244.318 216.695C245.249 217.79 245.965 219.794 246.241 222.859C246.789 228.941 245.445 236.849 244.362 242.949C243.629 247.075 243.907 251.848 244.141 256.093C244.387 260.562 244.592 264.527 244.041 267.817C243.509 270.994 242.378 272.921 240.403 274.026C238.229 275.243 234.248 275.926 226.968 274.573C215.267 271.723 211.821 268.492 210.554 265.679Z" fill="#86D0E3" stroke="#0C74AB" stroke-width="7"/>
<path d="M259.917 282.16C248.248 279.706 244.309 275.511 242.619 271.627C241.664 269.433 241.275 267.006 241.022 264.265C240.791 261.765 240.661 258.632 240.113 255.874C239.088 248.175 238.993 240.674 241.121 234.941C242.163 232.135 243.711 229.821 245.906 228.074C248.101 226.327 251.137 224.989 255.399 224.442C260.32 223.811 263.896 223.757 266.429 224.074C268.997 224.394 270.134 225.05 270.604 225.493C270.952 225.822 271.195 226.27 271.167 227.229C271.136 228.308 270.748 229.785 269.921 231.68C268.256 235.495 265.386 239.781 262.645 244.081C261.323 246.155 260.028 248.244 259.054 250.148C258.139 251.937 257.235 254.062 257.183 256.091C256.973 264.199 258.876 269.748 261.69 273.611C263.471 276.055 265.515 277.672 267.266 278.787C265.471 279.644 263.076 280.73 259.917 282.16Z" fill="#86D0E3" stroke="#0C74AB" stroke-width="7"/>
<path d="M260.262 260.903C259.943 258.98 260.173 257.119 260.728 255.039C261.009 253.986 261.36 252.919 261.755 251.753C262.122 250.667 262.533 249.474 262.9 248.254C263.956 245.529 266.275 242.754 269.647 240.274C273.021 237.794 277.244 235.764 281.704 234.484C290.895 231.846 299.758 232.689 304.493 237.302C309.326 242.011 311.231 245.107 311.801 247.08C312.062 247.982 312.026 248.591 311.911 249.036C311.79 249.507 311.518 250.03 310.986 250.656C309.764 252.09 307.985 253.242 305.487 255.129C303.263 256.808 300.534 259.056 299.026 262.301C296.31 268.148 294.852 272.474 293.793 275.444C293.25 276.964 292.868 277.97 292.502 278.698C292.148 279.402 291.944 279.567 291.908 279.594C291.876 279.618 291.403 280.005 288.043 279.577C284.945 279.183 280.695 278.335 273.908 277.22C263.767 269.734 260.877 264.62 260.262 260.903Z" fill="#86D0E3" stroke="#0C74AB" stroke-width="7"/>
<path d="M185.661 277.828C181.101 273.448 180.249 269.591 180.229 266.832C180.218 265.284 180.467 263.947 180.705 262.725C180.81 262.192 180.962 261.45 181.016 260.811C181.044 260.479 181.065 259.98 180.975 259.43C180.97 259.403 180.964 259.376 180.959 259.348C182.159 251.514 184.932 243.63 189.626 238.232C194.267 232.895 200.951 229.757 210.88 231.81C210.968 231.875 211.324 232.188 211.768 233.307C212.368 234.82 212.807 237.056 213.017 239.802C213.434 245.263 212.885 251.829 211.799 256.518C210.996 259.984 210.991 264.04 210.831 267.223C210.657 270.705 210.309 273.39 209.278 275.381C208.399 277.077 206.872 278.559 203.378 279.239C199.778 279.939 194.213 279.742 185.661 277.828Z" fill="#86D0E3" stroke="#0C74AB" stroke-width="7"/>
<path d="M79.0191 380.989C77.4861 380.101 75.7102 377.517 74.8332 372.496C73.9763 367.589 74.1325 361.096 75.716 353.756C78.8276 339.332 87.3442 322.124 103.494 308.049L104.269 307.382C109.431 303.248 130.338 285.95 149.652 273.125C159.45 266.619 168.446 261.537 174.638 259.74C177.889 258.797 179.371 259.064 179.832 259.324C179.929 259.378 180.058 259.462 180.188 259.831C180.347 260.284 180.485 261.146 180.333 262.619C179.7 268.738 179.975 273.355 181.079 276.803C182.232 280.401 184.311 282.752 187.026 284.003C189.546 285.165 192.213 285.181 194.187 285.07C195.16 285.015 196.204 284.908 196.912 284.851C197.021 284.842 197.124 284.836 197.222 284.829C197.188 284.94 197.151 285.059 197.109 285.186C196.756 286.243 196.167 287.654 195.258 289.516C191.586 297.038 183.378 310.581 167.725 334.759C166.513 336.631 162.412 341.542 156.208 347.695C150.07 353.783 142.062 360.898 133.17 367.204C124.255 373.525 114.595 378.931 105.141 381.743C95.7392 384.54 86.8258 384.696 79.0191 380.989Z" fill="#86D0E3" stroke="#0C74AB" stroke-width="7"/>
<path d="M119 179.636C123.118 178.153 128.423 177.092 134.179 176.966C145.684 176.713 158.444 180.179 167.279 190.692C178.813 207.15 189.915 222.09 196.092 232.674C197.624 235.3 198.798 237.567 199.583 239.452C200.355 241.308 200.634 242.535 200.664 243.246C200.309 243.281 199.664 243.289 198.599 243.109C190.976 241.826 183.976 246.438 177.987 251.391C174.892 253.95 171.74 256.895 168.675 259.673C165.562 262.495 162.488 265.195 159.365 267.475C153.058 272.081 147.164 274.521 141.116 273.263C134.987 271.987 127.558 266.681 118.847 252.873C118.168 251.796 116.588 248.239 114.767 242.848C112.987 237.583 111.078 230.87 109.663 223.687C108.246 216.491 107.345 208.916 107.53 201.895C107.716 194.888 108.979 188.705 111.644 184.012C111.965 183.544 112.669 182.839 113.948 182.025C115.239 181.202 116.942 180.377 119 179.636Z" fill="#86D0E3" stroke="#0082AA" stroke-width="7"/>
<path d="M265.427 244.203C270.171 231.199 282.466 224.941 294.476 225.143C306.654 225.348 317.386 232.09 319.515 244.004L319.654 244.782L320.113 245.424C324.022 250.891 326.746 255.086 328.534 258.294C330.367 261.584 331.038 263.531 331.174 264.584C331.179 264.624 331.179 264.661 331.182 264.695C331.09 264.719 330.978 264.743 330.846 264.766C330.36 264.851 329.717 264.901 328.879 264.91C327.105 264.931 325.199 264.787 322.696 264.709C320.343 264.636 317.686 264.638 315.056 265.033C309.651 265.845 304.07 268.404 301.179 275.332C297.141 285.008 293.541 289.163 290.824 290.658C288.579 291.893 286.387 291.573 283.596 289.724C280.648 287.77 277.793 284.575 274.82 281.246C273.401 279.657 271.936 278.022 270.524 276.684C269.77 275.97 268.927 275.237 268.013 274.613C267.997 270.785 267.74 267.938 267.353 265.61C266.899 262.889 266.269 260.925 265.808 259.286C264.988 256.367 264.291 253.338 265.427 244.203Z" fill="#86D0E3" stroke="#0C74AB" stroke-width="7"/>
<path d="M406.004 327.633C415.961 323.054 428.265 325.564 440.215 333.651C452.161 341.735 463.554 355.284 471.355 372.247C480.142 391.355 484.469 408.077 483.402 421.41C482.353 434.523 476.055 444.753 462.691 450.899C452.737 455.476 440.808 452.964 429.212 444.836C417.604 436.7 406.487 423.016 398.54 405.733C390.592 388.451 387.439 371.104 388.817 356.996C390.194 342.902 396.05 332.211 406.004 327.633Z" fill="#FEFEFE" stroke="#0F79AB" stroke-width="6"/>
<path d="M326.636 355.105C350.117 344.109 380.149 356.8 392.803 383.825C399.943 399.072 402.425 412.802 399.491 424.366C396.598 435.767 388.286 445.643 372.493 453.038C349.101 463.991 320.641 451.219 307.735 423.658C294.829 396.095 303.244 366.058 326.636 355.105Z" fill="#FEFEFE" stroke="#0F79AB" stroke-width="6"/>
<path d="M417.551 354.81C417.863 365.022 413.072 373.455 406.332 373.661C399.592 373.867 393.086 365.779 392.774 355.566C389.958 345.25 395.452 336.578 402.193 336.372C409.75 338.143 417.227 344.177 417.551 354.81Z" fill="#2B2A28"/>
<path d="M414.001 531.136C421.874 502.254 422.152 484.618 416.438 451.001" stroke="#0875A4" stroke-width="7" stroke-linecap="round"/>
<path d="M409.37 456.764C420.411 456.427 429.067 446.52 428.704 434.637C428.341 422.753 419.097 413.392 408.056 413.73C397.016 414.067 388.36 423.974 388.722 435.857C389.085 447.741 398.329 457.101 409.37 456.764Z" fill="#ED6F7A"/>
<path d="M369.096 382.904C377.639 384.144 380.999 379.539 380.74 371.043C380.546 364.695 368.257 355.417 362.321 357.599C354.326 357.843 354.498 363.489 354.692 369.838C354.886 376.186 362.472 383.107 369.096 382.904Z" fill="#2B2A28"/>
<path d="M287.146 486.913C366.027 546.366 470.591 542.635 511.78 436.729" stroke="#0875A4" stroke-width="7" stroke-linecap="round"/>
<path d="M438.385 520.032L433.33 521.528L428.792 522.973L422.703 524.547L419.087 524.897L416.316 525.165L414.426 527.001L411.688 547.264L411.175 552.344L412.592 555.391L415.555 557.637L420.026 558.542L424.173 558.898L428.758 557.748L433.574 554.521L438.658 548.655L443.235 540.186L447.404 530.728L450.217 523.154L451.887 514.701L438.385 520.032Z" fill="#FEFEFE"/>
<path d="M414.426 527.001L416.316 525.165L419.087 524.897L422.703 524.547L428.792 522.973L433.33 521.528L438.385 520.032L451.887 514.701L450.217 523.154L447.404 530.728L443.235 540.186L438.658 548.655L433.574 554.521L428.758 557.748L424.173 558.898L420.026 558.542L415.555 557.637L412.592 555.391L411.175 552.344L411.688 547.264L414.426 527.001ZM414.426 527.001L415.012 525.817" stroke="#0875A4" stroke-width="5"/>
<path d="M403.585 526.711L403.506 526.728L403.426 526.737L390.113 528.232L390.044 528.24L389.975 528.242L378.432 528.513L378.388 528.514L370.39 529.08L367.439 530.034L365.838 539.611L366.375 552.1L368.652 558.266L373.019 562.575L377.085 565.004L383.004 565.793L388.452 565.967L394.37 564.38L400.43 560.382L406.637 553.337L410.851 543.003L413.973 532.573L414.234 524.383L403.585 526.711Z" fill="#FEFEFE" stroke="#0578A5" stroke-width="6"/>
<path d="M271.73 499.399C283.267 488.727 284.816 480.52 283.024 463.812" stroke="#0875A4" stroke-width="7" stroke-linecap="round"/>
<path d="M508.181 410.677C507.088 427.615 510.113 434.931 523.759 442.962" stroke="#0875A4" stroke-width="7" stroke-linecap="round"/>
<path d="M221.29 520.972C218.837 516.636 204.084 501.677 201.593 501.685C198.561 501.695 200.659 507.143 193.938 518.258C182.269 533.641 196.832 518.365 180.588 536.42L169.013 544.799L151.089 553.891C136.099 557.638 121.107 557.454 110.671 562.854C100.659 568.035 93.6469 574.888 90.5868 585.492C93.1984 597.924 97.4912 606.233 102.673 611.541C107.911 616.906 116.051 614.438 123.082 614.882C137.426 615.786 132.418 616.079 153.578 613.375L166.958 610.82L177.123 606.73C192.35 598.356 205.694 583.586 214.288 567.776C218.569 559.9 220.884 549.487 222.41 542.604C223.929 535.748 222.723 524.716 221.29 520.972Z" fill="#87CFE5" stroke="#0076B8" stroke-width="7"/>
<path d="M131.332 568.758C131.661 568.686 131.972 568.495 132.199 568.238C132.425 567.98 132.547 567.677 132.537 567.384C132.529 567.091 132.388 566.831 132.148 566.648C131.908 566.466 131.587 566.376 131.257 566.41C130.547 566.485 129.857 566.561 129.147 566.646C116.547 567.742 102.981 572.935 92.0572 580.534C91.4283 580.951 90.8326 581.35 90.2092 581.775C91.7302 583.5 93.2512 585.225 94.7721 586.949C95.3098 586.493 95.8207 586.062 96.3617 585.615C105.797 577.52 116.818 571.811 129.273 569.221C129.964 569.061 130.636 568.909 131.332 568.758Z" fill="#0074AB"/>
<path d="M136.341 582.443C136.677 582.266 136.959 581.981 137.13 581.662C137.299 581.343 137.343 581.016 137.247 580.741C137.151 580.467 136.922 580.263 136.605 580.163C136.289 580.064 135.912 580.076 135.561 580.21C134.923 580.455 134.32 580.687 133.683 580.938C122.44 585.132 111.177 591.766 101.436 599.036C100.878 599.441 100.345 599.827 99.7895 600.234C98.7956 600.958 98.1139 601.919 97.9237 602.938C97.7322 603.954 98.0481 604.944 98.7715 605.659C99.495 606.375 100.559 606.748 101.697 606.669C102.838 606.591 103.961 606.066 104.849 605.24C105.338 604.787 105.803 604.354 106.291 603.905C114.832 595.838 123.903 588.919 134.578 583.377C135.175 583.058 135.74 582.757 136.341 582.443Z" fill="#007BA4"/>
</g>
<defs>
<clipPath id="clip0_465_683">
<rect width="700" height="800" fill="white"/>
</clipPath>
</defs>
</svg>
