<svg width="700" height="800" viewBox="0 0 700 800" fill="none" xmlns="http://www.w3.org/2000/svg">
<g clip-path="url(#clip0_465_484)">
<path d="M554.647 514.831C552.805 508.265 558.996 500.999 561.31 500.665C560.62 497.732 558.47 488.683 564.753 490.811C574.368 506.357 580.585 508.124 594.237 526.021L604.323 533.772L620.25 541.446C633.877 543.563 647.819 541.298 657.084 545.885C665.973 550.285 671.941 556.962 673.939 568.363C670.523 582.582 665.873 592.436 660.636 599.066C655.342 605.768 647.977 604.134 641.409 605.595C628.012 608.574 632.642 608.212 613.199 608.106L600.972 607.095L591.855 603.933C578.376 596.689 567.156 582.056 560.431 565.611C557.081 557.418 555.76 546.126 554.892 538.662C554.026 531.228 553.017 519.202 554.647 514.831Z" fill="#87CFE5" stroke="#0076B8" stroke-width="7"/>
<path d="M637.903 554.21C637.612 554.179 637.347 554.012 637.165 553.76C636.984 553.506 636.901 553.187 636.936 552.861C636.97 552.535 637.12 552.224 637.354 551.986C637.587 551.748 637.885 551.602 638.181 551.591C638.817 551.57 639.434 551.553 640.069 551.543C651.372 550.908 663.183 554.684 672.388 561.522C672.919 561.892 673.423 562.248 673.949 562.629C672.418 564.769 670.888 566.909 669.358 569.048C668.912 568.62 668.488 568.217 668.039 567.8C660.225 560.193 650.763 555.469 639.725 554.422C639.114 554.346 638.52 554.276 637.903 554.21Z" fill="#0074AB"/>
<path d="M632.146 570.15C631.858 570.003 631.628 569.728 631.503 569.399C631.378 569.069 631.367 568.712 631.479 568.393C631.59 568.074 631.816 567.814 632.111 567.657C632.406 567.5 632.746 567.458 633.052 567.555C633.607 567.733 634.132 567.903 634.685 568.088C644.484 571.095 654.082 576.811 662.246 583.455C662.715 583.824 663.162 584.175 663.629 584.545C664.464 585.203 664.995 586.171 665.076 587.275C665.158 588.376 664.784 589.522 664.065 590.423C663.347 591.324 662.351 591.896 661.328 591.975C660.302 592.056 659.333 591.638 658.604 590.85C658.202 590.418 657.82 590.006 657.419 589.579C650.411 581.872 642.822 575.518 633.658 570.93C633.147 570.663 632.662 570.411 632.146 570.15Z" fill="#007BA4"/>
<g clip-path="url(#clip1_465_484)">
<path d="M343.66 627.468C364.777 621.325 377.913 623.964 386.537 629.858C395.472 635.964 400.639 646.27 403.898 657.471C407.266 669.048 408.856 678.259 402.442 687.252C395.738 696.652 379.384 707.095 342.055 717.954C316.428 725.409 297.684 729.667 283.887 731.558C270.001 733.46 261.673 732.882 256.512 731.169C251.715 729.576 249.254 726.871 247.495 723.088C246.567 721.092 245.848 718.81 245.133 716.172C244.461 713.692 243.71 710.56 242.869 707.668C241.822 704.07 243.495 698.258 249.327 690.337C254.958 682.689 263.667 674.175 274.156 665.809C295.186 649.036 322.337 633.67 343.66 627.468Z" fill="#87CFE5" stroke="#0178B2" stroke-width="9"/>
<path d="M394.541 646.16C420.026 686.831 383.256 703.173 339.015 716.043C294.773 728.912 268.88 733.09 260.487 727.704C243.81 725.845 306.65 713.102 337.793 700.688C435.065 672.392 359.214 608.405 394.541 646.16Z" fill="#31A7BA"/>
</g>
<g clip-path="url(#clip2_465_484)">
<path d="M405.128 626.976C384.01 620.833 370.874 623.471 362.25 629.365C353.315 635.472 348.148 645.778 344.889 656.979C341.522 668.556 339.931 677.767 346.345 686.759C353.049 696.16 369.403 706.603 406.732 717.462C432.359 724.917 451.103 729.175 464.9 731.065C478.786 732.968 487.114 732.39 492.275 730.677C497.072 729.084 499.533 726.379 501.292 722.595C502.22 720.6 502.939 718.318 503.654 715.68C504.327 713.2 505.077 710.068 505.918 707.176C506.965 703.578 505.293 697.766 499.46 689.845C493.83 682.197 485.12 673.682 474.631 665.316C453.601 648.543 426.45 633.178 405.128 626.976Z" fill="#87CFE5" stroke="#0178B2" stroke-width="9"/>
<path d="M354.246 645.667C328.761 686.339 365.531 702.681 409.772 715.551C454.014 728.42 479.907 732.598 488.3 727.211C504.977 725.353 442.137 712.61 410.994 700.196C313.722 671.9 389.573 607.913 354.246 645.667Z" fill="#31A7BA"/>
</g>
<path d="M380.428 293.101C485.665 293.101 570.928 374.686 570.928 475.269C570.928 575.851 485.665 657.437 380.428 657.437C275.19 657.437 189.928 575.851 189.928 475.269C189.928 374.686 275.19 293.101 380.428 293.101Z" fill="#86D0E3" stroke="#0C74AB" stroke-width="7"/>
<path d="M510.85 601.994C475.42 640.606 409.695 655.951 384.021 653.476C274.137 659.417 191.467 566.249 194.035 473.784C195.643 415.866 180.684 552.492 323.431 610.905C399.939 648.031 510.85 601.994 510.85 601.994Z" fill="#37B4CA"/>
<path d="M369.073 322.254C382.472 313.367 391.49 309.029 403.719 315.508" stroke="#025081" stroke-width="13" stroke-linecap="round"/>
<path d="M464.999 322.706C482.551 319.124 490.475 321.721 500.704 335.729" stroke="#025081" stroke-width="16" stroke-linecap="round"/>
<path d="M207.087 458.385C206.026 453.929 196.391 437.086 194.021 436.511C191.137 435.812 191.535 441.181 181.893 449.564C166.298 460.612 184.611 450.335 163.888 462.708L150.434 467.507L130.74 471.461C115.399 471.313 101.208 467.646 89.71 470.044C78.6786 472.344 70.0082 476.842 63.9941 485.622C62.8334 497.365 64.478 505.809 67.8464 511.773C71.2521 517.802 79.7094 517.493 86.2603 519.533C99.6246 523.694 94.7798 522.786 115.678 525.309L129.14 526.147L139.996 524.86C156.919 520.918 173.924 510.81 186.722 498.661C193.097 492.608 198.348 483.824 201.814 478.017C205.266 472.233 207.352 462.072 207.087 458.385Z" fill="#87CFE5" stroke="#0076B8" stroke-width="7"/>
<path d="M107.612 480.158C107.945 480.17 108.297 480.072 108.588 479.894C108.878 479.716 109.083 479.473 109.159 479.209C109.237 478.945 109.18 478.678 109.005 478.458C108.83 478.239 108.552 478.084 108.228 478.038C107.531 477.939 106.854 477.846 106.154 477.756C93.8607 475.793 79.4496 477.274 66.8437 481.526C66.1239 481.753 65.4412 481.971 64.7242 482.206C65.6641 484.106 66.6039 486.006 67.5438 487.905C68.1885 487.622 68.8001 487.356 69.4451 487.082C80.7817 482.038 92.9262 479.5 105.52 480.091C106.223 480.109 106.906 480.13 107.612 480.158Z" fill="#0074AB"/>
<path d="M108.361 493.582C108.732 493.502 109.084 493.313 109.339 493.067C109.593 492.821 109.731 492.538 109.72 492.27C109.709 492.002 109.551 491.766 109.279 491.603C109.008 491.44 108.646 491.363 108.274 491.401C107.596 491.471 106.955 491.538 106.276 491.614C94.3647 492.742 81.7186 496.052 70.3339 500.285C69.6845 500.518 69.0655 500.739 68.4181 500.974C67.2618 501.389 66.3323 502.091 65.8532 502.959C65.3735 503.824 65.3837 504.784 65.8615 505.594C66.3393 506.404 67.2404 506.987 68.3449 507.182C69.4526 507.379 70.6736 507.171 71.7592 506.638C72.3561 506.347 72.9246 506.068 73.5198 505.78C83.9987 500.552 94.6454 496.475 106.412 494.007C107.072 493.861 107.697 493.723 108.361 493.582Z" fill="#007BA4"/>
<path d="M470.076 338.336C480.933 336.846 491.979 342.821 501.065 354.03C510.148 365.236 517.114 381.51 519.652 400.008C522.511 420.844 521.794 438.102 516.901 450.55C512.089 462.793 503.091 470.753 488.518 472.752C477.664 474.242 466.979 468.373 458.244 457.227C449.499 446.07 442.836 429.747 440.25 410.902C437.665 392.056 439.685 374.541 445.102 361.441C450.513 348.355 459.222 339.825 470.076 338.336Z" fill="#FEFEFE" stroke="#0F79AB" stroke-width="6"/>
<path d="M386.15 341.572C411.813 337.871 436.865 358.737 441.124 388.271C443.528 404.935 441.915 418.795 435.749 429.007C429.669 439.077 418.847 446.113 401.587 448.602C376.022 452.289 352.498 431.802 348.154 401.68C343.809 371.558 360.585 345.259 386.15 341.572Z" fill="#FEFEFE" stroke="#0F79AB" stroke-width="6"/>
<path d="M473.232 367.695C470.565 377.558 463.531 384.236 457.021 382.475C450.512 380.714 446.635 371.085 449.303 361.222C449.604 350.533 457.381 343.831 463.891 345.591C470.608 349.48 476.01 357.426 473.232 367.695Z" fill="#2B2A28"/>
<path d="M413.49 533.532C429.836 508.452 435.506 491.75 440.369 458" stroke="#0875A4" stroke-width="7" stroke-linecap="round"/>
<path d="M435.791 462.879C446.454 465.763 457.614 458.797 460.718 447.32C463.822 435.843 457.695 424.201 447.033 421.317C436.37 418.433 425.21 425.399 422.106 436.876C419.001 448.353 425.128 459.995 435.791 462.879Z" fill="#ED6F7A"/>
<path d="M418.705 380.505C426.52 384.172 431.073 380.742 433.292 372.537C434.95 366.406 425.886 353.959 419.571 354.323C411.85 352.234 410.375 357.687 408.717 363.818C407.058 369.949 412.308 378.774 418.705 380.505Z" fill="#2B2A28"/>
<path d="M311.072 440.921C360.012 526.723 457.527 564.647 537.241 483.664" stroke="#0875A4" stroke-width="7" stroke-linecap="round"/>
<path d="M436.885 531.152L431.652 530.526L426.912 530.059L420.697 529.096L417.238 527.988L414.586 527.138L412.124 528.077L401.596 545.606L399.116 550.069L399.212 553.428L401.046 556.662L404.794 559.262L408.462 561.229L413.129 561.986L418.828 560.926L425.817 557.549L433.371 551.58L440.94 544.542L446.519 538.698L451.396 531.595L436.885 531.152Z" fill="#FEFEFE"/>
<path d="M412.124 528.077L414.586 527.138L417.238 527.988L420.697 529.096L426.912 530.059L431.652 530.526L436.885 531.152L451.396 531.595L446.519 538.698L440.94 544.542L433.371 551.58L425.817 557.549L418.828 560.926L413.129 561.986L408.462 561.229L404.794 559.262L401.046 556.662L399.212 553.428L399.116 550.069L401.596 545.606L412.124 528.077ZM412.124 528.077L413.131 527.221" stroke="#0875A4" stroke-width="5"/>
<path d="M402.283 523.524L402.203 523.508L402.126 523.485L389.307 519.593L389.241 519.573L389.177 519.547L378.467 515.232L378.427 515.216L370.856 512.572L367.769 512.281L362.511 520.444L358.065 532.127L357.718 538.692L360.025 544.376L362.799 548.215L367.924 551.281L372.858 553.595L378.922 554.477L386.069 553.202L394.556 549.185L402.513 541.361L409.505 533.016L412.984 525.597L402.283 523.524Z" fill="#FEFEFE" stroke="#0578A5" stroke-width="6"/>
<path d="M291.977 446.294C306.793 441.055 311.461 434.129 316.423 418.075" stroke="#0875A4" stroke-width="7" stroke-linecap="round"/>
<path d="M544.238 458.312C536.537 473.438 536.421 481.353 545.779 494.126" stroke="#0875A4" stroke-width="7" stroke-linecap="round"/>
<path d="M302.59 219.868C302.385 218.322 302.507 216.725 302.824 214.759C302.984 213.767 303.181 212.753 303.397 211.597C303.602 210.507 303.816 209.324 304 208.061C304.863 204.211 305.515 200.85 306.366 197.804C307.221 194.745 308.162 192.467 309.372 190.87C310.489 189.395 311.878 188.435 313.967 188.047C316.201 187.632 319.452 187.836 324.235 189.269C325.107 189.53 325.655 190.046 326.041 191.183C326.487 192.498 326.611 194.448 326.349 196.98C325.827 202.016 323.957 207.922 322.494 212.446C321.497 215.533 321.003 219.413 320.556 222.855C320.083 226.499 319.655 229.726 318.886 232.174C318.057 234.814 317.283 235.105 317.129 235.14C316.715 235.235 314.936 235.191 310.829 231.907C304.638 226.351 302.976 222.763 302.59 219.868Z" fill="#86D0E3" stroke="#0C74AB" stroke-width="7"/>
<path d="M335.927 248.588C324.643 244.284 321.707 239.657 320.889 235.863C320.42 233.683 320.547 231.363 320.886 228.722C321.192 226.334 321.746 223.301 321.794 220.566C322.43 213.122 323.95 206.025 327.316 200.953C330.501 196.153 335.51 192.881 344.188 193.26C349.28 193.483 352.902 194.031 355.394 194.76C357.939 195.504 358.907 196.319 359.237 196.758C359.434 197.019 359.587 197.359 359.365 198.213C359.108 199.201 358.409 200.532 357.161 202.204C354.657 205.557 350.837 209.157 347.159 212.779C345.383 214.528 343.636 216.291 342.25 217.931C340.958 219.462 339.579 221.335 339.078 223.288C337.103 230.992 337.802 236.67 339.84 240.91C341.045 243.416 342.646 245.251 344.106 246.596C342.099 247.114 339.436 247.751 335.927 248.588Z" fill="#86D0E3" stroke="#0C74AB" stroke-width="7"/>
<path d="M332.269 227.714C331.721 225.843 331.725 223.968 332.025 221.837C332.177 220.757 332.397 219.656 332.648 218.45C332.882 217.328 333.146 216.093 333.363 214.837C334.082 212.017 336.118 208.89 339.286 205.889C342.449 202.894 346.527 200.233 350.879 198.337C355.242 196.436 359.714 195.377 363.663 195.408C367.597 195.439 370.786 196.537 373.031 198.695C385.945 211.112 393.226 218.632 396.738 223.085C396.992 223.406 397.219 223.707 397.425 223.985C397.188 223.956 396.936 223.922 396.669 223.885C394.894 223.64 392.379 223.221 389.984 222.93C385.179 222.345 379.031 221.992 373.988 224.322C367.962 227.108 364.496 229.989 362.498 233.011C360.526 235.992 360.213 238.915 359.923 240.234C359.763 240.96 359.653 241.139 359.616 241.19C359.607 241.202 359.587 241.231 359.517 241.281C359.438 241.337 359.267 241.441 358.942 241.561C357.484 242.1 354.39 242.488 347.77 242.261C336.81 236.054 333.327 231.328 332.269 227.714Z" fill="#86D0E3" stroke="#0C74AB" stroke-width="7"/>
<path d="M154.476 309.105C153.143 307.938 151.898 305.06 152.004 299.964C152.109 294.984 153.512 288.642 156.48 281.745C162.311 268.191 173.982 252.945 192.54 242.244L193.43 241.738C199.291 238.675 223.138 225.728 244.56 216.863C255.428 212.366 265.234 209.111 271.656 208.541C275.029 208.242 276.431 208.789 276.833 209.132C276.918 209.204 277.029 209.312 277.085 209.699C277.154 210.174 277.124 211.046 276.69 212.463C274.891 218.345 274.271 222.929 274.691 226.525C275.13 230.277 276.716 232.985 279.139 234.735C281.388 236.36 284.002 236.89 285.962 237.161C286.926 237.294 287.971 237.391 288.678 237.471C288.786 237.483 288.889 237.497 288.986 237.509C288.931 237.612 288.872 237.722 288.806 237.838C288.256 238.807 287.406 240.078 286.155 241.731C281.104 248.404 270.442 260.113 250.426 280.823C248.876 282.427 243.905 286.456 236.632 291.3C229.437 296.091 220.208 301.531 210.268 306.006C200.303 310.493 189.782 313.936 179.964 314.875C170.199 315.809 161.423 314.246 154.476 309.105Z" fill="#86D0E3" stroke="#0C74AB" stroke-width="7"/>
<path d="M232.487 119.22C236.813 118.559 242.223 118.539 247.896 119.524C259.234 121.492 271.088 127.35 277.732 139.367C285.881 157.738 293.897 174.537 297.92 186.113C298.918 188.985 299.634 191.435 300.041 193.436C300.441 195.406 300.479 196.663 300.371 197.367C300.016 197.333 299.381 197.216 298.371 196.835C291.137 194.108 283.381 197.286 276.549 200.992C273.019 202.908 269.36 205.19 265.817 207.326C262.219 209.495 258.682 211.553 255.179 213.189C248.103 216.494 241.849 217.754 236.156 215.354C230.388 212.922 224.121 206.284 218.232 191.057C217.773 189.87 216.908 186.075 216.158 180.434C215.426 174.925 214.845 167.97 214.841 160.649C214.836 153.315 215.41 145.707 216.944 138.854C218.476 132.014 220.906 126.19 224.425 122.097C224.831 121.7 225.657 121.144 227.068 120.591C228.494 120.033 230.324 119.551 232.487 119.22Z" fill="#86D0E3" stroke="#0082AA" stroke-width="7"/>
<path d="M277.478 231.232C274.152 226.295 274.06 222.523 274.529 219.923C274.792 218.465 275.254 217.255 275.687 216.148C275.875 215.667 276.146 214.991 276.309 214.396C276.394 214.086 276.503 213.618 276.518 213.081C276.519 213.055 276.518 213.029 276.518 213.002C278.998 205.84 282.906 198.958 288.082 194.78C290.715 192.655 293.633 191.261 296.867 190.812C300.062 190.368 303.788 190.816 308.124 192.7C308.202 192.809 308.433 193.192 308.616 194.206C308.893 195.743 308.896 197.931 308.6 200.559C308.012 205.784 306.35 211.868 304.535 216.08C303.189 219.205 302.465 223.035 301.757 226.002C300.98 229.259 300.189 231.709 298.918 233.37C297.858 234.755 296.296 235.811 293.122 235.802C289.813 235.792 284.863 234.601 277.478 231.232Z" fill="#86D0E3" stroke="#0C74AB" stroke-width="7"/>
<path d="M360.347 241.42C364.781 231.998 376.614 224.999 387.917 223.929C393.561 223.395 398.625 224.393 402.303 226.892C405.859 229.308 408.533 233.401 409.028 240.033L409.065 240.537L409.244 241.01C412.688 250.126 415.399 257.008 417.448 262.134C417.868 263.186 418.261 264.159 418.623 265.06C416.455 263.911 413.939 262.932 411.132 262.489C404.168 261.39 396.227 263.679 388.103 272.433C386.314 274.361 384.206 277.077 382.064 279.797C379.869 282.586 377.558 285.483 375.213 288.026C372.838 290.602 370.611 292.608 368.631 293.756C368.078 294.076 367.59 294.303 367.161 294.459C367.542 284.732 365.476 274.732 363.55 265.865C362.444 260.776 361.388 256.089 360.743 251.799C360.127 247.702 359.934 244.245 360.347 241.42Z" fill="#86D0E3" stroke="#0C74AB" stroke-width="7"/>
<path d="M406.207 268.823C414.985 268.304 421.224 270.111 425.284 272.942C429.352 275.778 431.508 279.819 431.87 284.379L431.901 284.767L432.016 285.138C433.277 289.211 433.967 292.376 434.232 294.81C434.499 297.272 434.307 298.771 434.006 299.643C433.746 300.399 433.412 300.693 433.055 300.882C432.581 301.133 431.76 301.342 430.386 301.33C427.522 301.307 423.87 300.4 419.406 299.391C415.234 298.448 410.386 297.433 406.024 297.779C402.179 298.084 398.17 298.626 394.509 299.065C390.773 299.513 387.386 299.855 384.487 299.84C381.514 299.825 379.541 299.425 378.358 298.768C377.543 298.316 376.96 297.684 376.764 296.296C378.564 286.654 382.313 281.154 387.115 277.418C392.115 273.528 398.491 271.331 406.207 268.823Z" fill="#86D0E3" stroke="#0C74AB" stroke-width="7"/>
</g>
<defs>
<clipPath id="clip0_465_484">
<rect width="700" height="800" fill="white"/>
</clipPath>
<clipPath id="clip1_465_484">
<rect width="179.963" height="96.6376" fill="white" transform="translate(222 657.267) rotate(-16.2195)"/>
</clipPath>
<clipPath id="clip2_465_484">
<rect width="179.963" height="96.6376" fill="white" transform="matrix(-0.960198 -0.279319 -0.279319 0.960198 526.787 656.774)"/>
</clipPath>
</defs>
</svg>
