<svg width="700" height="800" viewBox="0 0 700 800" fill="none" xmlns="http://www.w3.org/2000/svg">
<g clip-path="url(#clip0_465_537)">
<path d="M527.909 506.94C525.007 501.042 529.893 493.385 532.115 492.754C530.95 490.101 527.332 481.92 533.868 483.05C545.911 496.293 552.322 497.094 568.727 511.984L579.939 517.86L596.887 522.86C610.649 522.972 623.994 518.935 633.873 521.959C643.351 524.86 650.332 530.295 654.191 540.701C653.188 554.49 650.247 564.36 646.194 571.29C642.096 578.295 634.577 577.777 628.356 580.048C615.666 584.678 620.162 583.704 601.01 586.275L588.811 587.007L579.313 585.298C564.846 580.363 551.376 568.196 542.029 553.715C537.372 546.5 534.198 536.104 532.105 529.231C530.019 522.385 527.03 511.259 527.909 506.94Z" fill="#87CFE5" stroke="#0076B8" stroke-width="7"/>
<path d="M616.378 532.393C616.086 532.404 615.798 532.284 615.577 532.072C615.357 531.86 615.222 531.573 615.202 531.262C615.181 530.952 615.277 530.64 615.468 530.385C615.658 530.13 615.927 529.952 616.216 529.901C616.839 529.794 617.444 529.694 618.067 529.597C629.085 527.45 641.334 529.364 651.528 534.505C652.113 534.78 652.667 535.043 653.248 535.328C652.097 537.543 650.946 539.758 649.795 541.972C649.286 541.632 648.802 541.313 648.29 540.984C639.338 534.931 629.243 531.805 618.206 532.342C617.592 532.354 616.995 532.37 616.378 532.393Z" fill="#0074AB"/>
<path d="M613.359 548.116C613.05 548.018 612.779 547.792 612.6 547.501C612.424 547.209 612.353 546.876 612.41 546.562C612.467 546.247 612.646 545.973 612.91 545.785C613.175 545.598 613.502 545.512 613.819 545.561C614.395 545.652 614.94 545.738 615.515 545.836C625.657 547.306 636.052 551.342 645.189 556.446C645.711 556.726 646.21 556.993 646.73 557.276C647.661 557.778 648.344 558.612 648.607 559.634C648.871 560.655 648.693 561.78 648.135 562.723C647.578 563.666 646.692 564.338 645.699 564.553C644.703 564.769 643.68 564.511 642.831 563.873C642.364 563.524 641.92 563.19 641.454 562.845C633.279 556.588 624.755 551.678 614.976 548.639C614.428 548.459 613.91 548.29 613.359 548.116Z" fill="#007BA4"/>
<g clip-path="url(#clip1_465_537)">
<path d="M329.186 621.505C347.886 609.93 361.249 608.953 371.137 612.321C381.381 615.811 389.12 624.356 395.26 634.274C401.606 644.527 405.606 652.975 401.835 663.357C397.894 674.21 384.936 688.652 351.88 709.114C329.186 723.162 312.269 732.285 299.482 737.802C286.613 743.355 278.435 745.029 273.004 744.761C267.955 744.512 264.859 742.565 262.151 739.391C260.722 737.716 259.419 735.711 258.023 733.361C256.711 731.152 255.148 728.335 253.563 725.774C251.591 722.588 251.645 716.541 255.142 707.347C258.519 698.47 264.629 687.933 272.494 677.063C288.262 655.27 310.305 633.192 329.186 621.505Z" fill="#87CFE5" stroke="#0178B2" stroke-width="9"/>
<path d="M383.216 625.883C418.664 658.241 387.616 683.835 348.439 708.086C309.262 732.337 285.434 743.298 275.905 740.357C259.34 743.034 316.47 713.923 343.148 693.62C429.285 640.301 339.065 598.972 383.216 625.883Z" fill="#31A7BA"/>
</g>
<path d="M440.064 628.245C426.857 610.659 414.766 604.887 404.33 604.427C393.518 603.951 383.2 609.094 373.873 616.099C364.231 623.34 357.431 629.754 357.167 640.796C356.889 652.339 363.705 670.506 387.05 701.593C398 726 402.597 739.208 412.5 749C422.466 758.854 442.395 761.768 447.551 763.494C455 762.441 455.936 764.412 459.614 762.441C461.554 761.401 464.844 764.122 467 762.441C469.026 760.861 473.093 764.249 475.501 762.441C496 762.441 513.002 752.882 486.5 728.5C404.33 705 493 743 472.657 700.622C452.313 658.244 453.399 646.001 440.064 628.245Z" fill="#87CFE5" stroke="#0178B2" stroke-width="9"/>
<path d="M389.095 604.119C342.481 615.556 357.485 652.891 380.269 692.939C403.053 732.987 418.724 754.018 428.498 755.999C441.76 766.28 405.541 713.37 391.839 682.772C341.745 594.721 440.74 601.632 389.095 604.119Z" fill="#31A7BA"/>
<path d="M380.428 291.101C485.665 291.101 570.928 372.686 570.928 473.269C570.928 573.851 485.665 655.437 380.428 655.437C275.19 655.437 189.928 573.851 189.928 473.269C189.928 372.686 275.19 291.101 380.428 291.101Z" fill="#86D0E3" stroke="#0C74AB" stroke-width="7"/>
<path d="M510.85 599.994C475.42 638.606 409.695 653.951 384.021 651.476C274.137 657.417 191.467 564.249 194.035 471.784C195.643 413.866 180.684 550.492 323.431 608.905C399.939 646.031 510.85 599.994 510.85 599.994Z" fill="#37B4CA"/>
<path d="M336.851 323.828C347.943 312.188 355.773 305.957 369.135 309.559" stroke="#025081" stroke-width="13" stroke-linecap="round"/>
<path d="M427.999 300.706C445.551 297.124 453.475 299.721 463.704 313.729" stroke="#025081" stroke-width="16" stroke-linecap="round"/>
<path d="M212.468 474.499C210.15 470.548 196.008 457.263 193.574 457.406C190.611 457.581 192.563 462.599 185.795 473.436C174.116 488.565 188.62 473.379 172.424 491.274L160.964 499.8L143.289 509.343C128.576 513.691 113.933 514.337 103.64 519.994C93.7647 525.422 86.7901 532.26 83.6085 542.416C85.9348 553.984 89.9783 561.577 94.9443 566.295C99.9651 571.063 107.962 568.293 114.823 568.327C128.82 568.395 123.922 568.945 144.643 565.242L157.761 562.104L167.766 557.697C182.794 548.976 196.097 534.334 204.78 518.972C209.105 511.318 211.555 501.382 213.17 494.815C214.778 488.274 213.8 477.947 212.468 474.499Z" fill="#87CFE5" stroke="#0076B8" stroke-width="7"/>
<path d="M123.715 524.427C124.038 524.342 124.346 524.145 124.572 523.89C124.797 523.635 124.921 523.342 124.917 523.067C124.914 522.792 124.782 522.554 124.551 522.395C124.319 522.236 124.008 522.17 123.685 522.22C122.989 522.329 122.314 522.439 121.619 522.557C109.289 524.278 95.942 529.91 85.1323 537.666C84.5103 538.093 83.9212 538.501 83.3045 538.936C84.7591 540.477 86.2138 542.019 87.6685 543.561C88.2021 543.101 88.709 542.668 89.2456 542.217C98.6099 534.076 109.48 528.096 121.695 524.976C122.373 524.788 123.033 524.608 123.715 524.427Z" fill="#0074AB"/>
<path d="M128.361 537.045C128.693 536.86 128.974 536.576 129.146 536.267C129.317 535.957 129.366 535.646 129.277 535.393C129.188 535.139 128.968 534.96 128.661 534.884C128.353 534.807 127.985 534.84 127.64 534.984C127.012 535.25 126.419 535.502 125.792 535.773C114.732 540.337 103.608 547.203 93.9605 554.582C93.4075 554.995 92.8804 555.387 92.33 555.801C91.3459 556.537 90.6625 557.48 90.4582 558.45C90.2527 559.418 90.5434 560.333 91.2372 560.967C91.9311 561.602 92.9634 561.896 94.0767 561.759C95.1934 561.623 96.3002 561.067 97.1825 560.24C97.6678 559.787 98.13 559.354 98.6148 558.904C107.105 550.839 116.093 543.825 126.622 538.022C127.211 537.689 127.768 537.374 128.361 537.045Z" fill="#007BA4"/>
<path d="M436.359 318.918C446.74 315.405 458.715 319.186 469.755 328.477C480.791 337.765 490.706 352.431 496.692 370.116C503.434 390.037 505.99 407.12 503.536 420.268C501.123 433.2 493.791 442.716 479.858 447.432C469.48 450.945 457.879 447.199 447.196 437.904C436.501 428.6 426.875 413.829 420.776 395.811C414.678 377.793 413.354 360.212 416.199 346.324C419.041 332.452 425.982 322.431 436.359 318.918Z" fill="#FEFEFE" stroke="#0F79AB" stroke-width="6"/>
<path d="M354.557 337.947C379.058 329.465 407.6 345.224 417.362 373.423C422.869 389.333 423.904 403.247 419.777 414.441C415.709 425.478 406.411 434.431 389.931 440.135C365.523 448.585 338.553 432.91 328.597 404.15C318.642 375.391 330.148 346.397 354.557 337.947Z" fill="#FEFEFE" stroke="#0F79AB" stroke-width="6"/>
<path d="M445.005 347.152C444.248 357.342 438.603 365.228 431.878 364.728C425.153 364.229 419.527 355.505 420.284 345.316C418.561 334.762 424.932 326.712 431.657 327.211C438.988 329.761 445.793 336.544 445.005 347.152Z" fill="#2B2A28"/>
<path d="M410.66 521.289C421.974 493.573 424.388 476.1 422.789 442.039" stroke="#0875A4" stroke-width="7" stroke-linecap="round"/>
<path d="M426.217 447.695C437.232 448.513 446.876 439.564 447.756 427.708C448.637 415.851 440.421 405.576 429.406 404.758C418.391 403.94 408.747 412.888 407.866 424.745C406.985 436.601 415.201 446.876 426.217 447.695Z" fill="#ED6F7A"/>
<path d="M393.88 370.031C402.246 372.156 406.069 367.928 406.699 359.452C407.169 353.118 395.917 342.607 389.785 344.157C381.808 343.564 381.39 349.197 380.919 355.531C380.449 361.865 387.271 369.54 393.88 370.031Z" fill="#2B2A28"/>
<path d="M294.908 445.347C356.588 522.5 458.812 544.808 524.972 452.42" stroke="#0875A4" stroke-width="7" stroke-linecap="round"/>
<path d="M433.217 514.927L427.949 515.123L423.195 515.398L416.905 515.413L413.316 514.856L410.564 514.428L408.278 515.738L400.602 534.69L398.847 539.484L399.463 542.788L401.777 545.698L405.884 547.684L409.813 549.057L414.54 549.079L420.006 547.146L426.385 542.724L432.919 535.654L439.303 527.525L443.905 520.885L447.619 513.11L433.217 514.927Z" fill="#FEFEFE"/>
<path d="M408.278 515.738L410.564 514.428L413.316 514.856L416.905 515.413L423.195 515.398L427.949 515.123L433.217 514.927L447.619 513.11L443.905 520.885L439.303 527.525L432.919 535.654L426.385 542.724L420.006 547.146L414.54 549.079L409.813 549.057L405.884 547.684L401.777 545.698L399.463 542.788L398.847 539.484L400.602 534.69L408.278 515.738ZM408.278 515.738L409.14 514.736" stroke="#0875A4" stroke-width="5"/>
<path d="M397.848 512.77L397.767 512.767L397.687 512.756L384.42 510.904L384.351 510.895L384.284 510.879L373.034 508.28L372.991 508.271L365.102 506.836L362.006 507.028L358.081 515.91L355.505 528.141L356.183 534.68L359.345 539.937L362.682 543.298L368.221 545.53L373.455 547.049L379.582 546.978L386.444 544.608L394.204 539.321L400.848 530.355L406.458 521.025L408.742 513.155L397.848 512.77Z" fill="#FEFEFE" stroke="#0578A5" stroke-width="6"/>
<path d="M276.879 453.623C290.701 446.144 294.236 438.577 296.643 421.946" stroke="#0875A4" stroke-width="7" stroke-linecap="round"/>
<path d="M527.943 426.289C522.686 442.427 523.802 450.264 535.031 461.428" stroke="#0875A4" stroke-width="7" stroke-linecap="round"/>
<path d="M252.795 253.04C252.197 251.6 251.903 250.026 251.702 248.045C251.601 247.045 251.529 246.015 251.44 244.842C251.355 243.735 251.257 242.537 251.109 241.27C250.948 237.327 250.711 233.912 250.747 230.75C250.783 227.574 251.104 225.13 251.86 223.274C252.559 221.561 253.653 220.275 255.57 219.361C257.621 218.383 260.815 217.741 265.806 217.891C266.716 217.918 267.378 218.274 268.045 219.274C268.815 220.429 269.438 222.281 269.838 224.794C270.635 229.795 270.353 235.983 270.108 240.732C269.942 243.971 270.466 247.847 270.923 251.288C271.407 254.931 271.826 258.159 271.715 260.722C271.596 263.487 270.924 263.968 270.784 264.042C270.408 264.239 268.678 264.656 263.863 262.544C256.448 258.775 253.915 255.738 252.795 253.04Z" fill="#86D0E3" stroke="#0C74AB" stroke-width="7"/>
<path d="M292.241 264.41C280.228 263.165 276.198 259.452 274.428 255.998C273.411 254.014 272.936 251.74 272.581 249.1C272.26 246.714 272.013 243.641 271.353 240.986C270.045 233.63 269.681 226.382 271.624 220.612C273.462 215.152 277.456 210.699 285.937 208.825C290.914 207.725 294.555 207.32 297.15 207.38C299.801 207.442 300.947 207.98 301.38 208.318C301.637 208.52 301.873 208.809 301.879 209.691C301.885 210.712 301.554 212.178 300.78 214.115C299.227 218.001 296.465 222.466 293.847 226.915C292.583 229.063 291.35 231.217 290.435 233.16C289.581 234.972 288.733 237.137 288.753 239.154C288.834 247.106 290.976 252.412 294.039 255.981C295.85 258.092 297.871 259.451 299.628 260.373C297.823 261.392 295.415 262.695 292.241 264.41Z" fill="#86D0E3" stroke="#0C74AB" stroke-width="7"/>
<path d="M285.01 251.645C283.998 249.979 283.518 248.167 283.258 246.03C283.126 244.948 283.054 243.827 282.986 242.597C282.922 241.453 282.858 240.193 282.744 238.924C282.709 236.002 283.826 232.562 286.031 229.005C288.237 225.445 291.4 221.988 295.061 219.138C302.607 213.264 311.145 210.743 317.259 213.259C323.498 215.827 326.421 217.991 327.685 219.609C328.263 220.349 328.457 220.927 328.516 221.383C328.579 221.866 328.522 222.452 328.261 223.231C327.662 225.017 326.44 226.749 324.825 229.431C323.388 231.819 321.693 234.922 321.503 238.495C321.162 244.933 321.421 249.49 321.545 252.641C321.608 254.254 321.628 255.33 321.56 256.142C321.495 256.927 321.366 257.156 321.343 257.195C321.322 257.229 321.027 257.764 317.75 258.619C314.728 259.408 310.469 260.205 303.755 261.7C291.554 258.533 286.967 254.864 285.01 251.645Z" fill="#86D0E3" stroke="#0C74AB" stroke-width="7"/>
<path d="M229.505 263.397C225.431 260.321 224.695 257.48 224.602 255.524C224.547 254.354 224.716 253.31 224.895 252.279C224.97 251.854 225.096 251.17 225.128 250.576C225.144 250.284 225.151 249.814 225.044 249.284C225.892 242.879 228.135 236.311 232.176 231.558C236.224 226.799 242.267 223.609 251.436 224.44C251.53 224.528 251.715 224.744 251.96 225.234C252.491 226.295 252.947 227.982 253.222 230.183C253.767 234.548 253.483 239.918 252.656 243.8C252.01 246.83 252.139 250.309 252.097 252.877C252.05 255.742 251.819 257.837 251.008 259.43C250.32 260.782 249.008 262.161 245.753 263.04C242.459 263.929 237.359 264.239 229.505 263.397Z" fill="#86D0E3" stroke="#0C74AB" stroke-width="7"/>
<path d="M132.567 369.721C130.977 368.938 129.032 366.48 127.819 361.528C126.634 356.691 126.353 350.201 127.439 342.771C129.573 328.171 136.912 310.429 152.078 295.3L152.807 294.581C157.679 290.109 177.374 271.444 195.782 257.349C205.12 250.198 213.754 244.522 219.81 242.313C222.991 241.153 224.488 241.32 224.965 241.548C225.065 241.596 225.2 241.671 225.354 242.03C225.543 242.471 225.739 243.322 225.686 244.802C225.467 250.95 226.051 255.538 227.385 258.904C228.778 262.416 231.01 264.622 233.803 265.688C236.395 266.677 239.057 266.513 241.02 266.27C241.986 266.149 243.021 265.973 243.724 265.868C243.832 265.852 243.935 265.839 244.032 265.825C244.005 265.938 243.976 266.06 243.942 266.189C243.662 267.267 243.169 268.715 242.387 270.634C239.229 278.386 231.952 292.45 217.961 317.626C216.878 319.576 213.117 324.752 207.34 331.309C201.626 337.796 194.115 345.434 185.667 352.323C177.198 359.23 167.923 365.274 158.68 368.716C149.488 372.139 140.605 372.895 132.567 369.721Z" fill="#86D0E3" stroke="#0C74AB" stroke-width="7"/>
<path d="M158.909 166.133C162.918 164.377 168.139 162.962 173.874 162.448C185.335 161.422 198.3 164.022 207.822 173.916C220.437 189.56 232.519 203.72 239.394 213.864C241.1 216.381 242.424 218.564 243.333 220.392C244.228 222.191 244.59 223.397 244.667 224.104C244.316 224.163 243.672 224.214 242.598 224.107C234.905 223.339 228.232 228.412 222.589 233.757C219.674 236.519 216.727 239.668 213.856 242.647C210.94 245.672 208.055 248.572 205.092 251.058C199.109 256.078 193.393 258.909 187.274 258.06C181.073 257.2 173.304 252.405 163.684 239.215C162.934 238.186 161.118 234.743 158.938 229.487C156.808 224.354 154.452 217.785 152.557 210.713C150.659 203.629 149.249 196.131 148.962 189.114C148.676 182.11 149.52 175.856 151.863 170.994C152.152 170.506 152.808 169.755 154.028 168.857C155.261 167.949 156.905 167.011 158.909 166.133Z" fill="#86D0E3" stroke="#0082AA" stroke-width="7"/>
<path d="M345.642 263.426C354.198 261.16 360.674 261.578 365.17 263.379C369.65 265.174 372.405 268.42 373.544 272.422L373.657 272.818L373.858 273.177C375.822 276.673 377.056 279.432 377.743 281.591C378.439 283.776 378.507 285.135 378.381 285.93C378.276 286.6 378.033 286.927 377.691 287.194C377.246 287.542 376.445 287.91 375.077 288.181C372.242 288.741 368.478 288.637 363.937 288.604C359.676 288.573 354.774 288.612 350.599 289.801C346.895 290.855 343.074 292.16 339.565 293.303C335.987 294.469 332.721 295.471 329.866 296.044C326.935 296.631 324.901 296.663 323.605 296.289C322.742 296.04 322.148 295.621 321.753 294.56C321.788 285.424 324.43 279.649 328.448 275.242C332.656 270.627 338.528 267.301 345.642 263.426Z" fill="#86D0E3" stroke="#0C74AB" stroke-width="7"/>
<path d="M306.271 243.89C307.79 239.883 311.028 236.171 315.406 233.209C319.936 230.144 325.469 228.037 330.947 227.295C336.444 226.55 341.628 227.208 345.645 229.344C349.548 231.418 352.612 235.013 353.861 240.811L353.909 241.033L353.985 241.246C356.474 248.25 357.48 252.327 357.582 254.848C357.63 256.034 357.462 256.659 357.307 257.005C357.166 257.319 356.934 257.633 356.412 258.024C355.832 258.46 355.02 258.902 353.777 259.497C352.628 260.048 351.05 260.758 349.42 261.593C346.027 263.332 341.971 265.819 337.574 270.14C329.417 278.156 325.393 284.758 322.642 288.462C321.191 290.416 320.384 291.152 319.782 291.447C319.678 291.497 319.548 291.548 319.369 291.584C318.639 282.572 315.322 273.44 312.325 265.438C310.626 260.901 309.031 256.745 307.887 252.928C306.809 249.33 306.228 246.331 306.271 243.89Z" fill="#86D0E3" stroke="#0C74AB" stroke-width="7"/>
</g>
<defs>
<clipPath id="clip0_465_537">
<rect width="700" height="800" fill="white"/>
</clipPath>
<clipPath id="clip1_465_537">
<rect width="179.963" height="96.6376" fill="white" transform="translate(219.955 682.805) rotate(-31.7578)"/>
</clipPath>
</defs>
</svg>
