<svg width="800" height="800" viewBox="0 0 800 800" fill="none" xmlns="http://www.w3.org/2000/svg">
<g clip-path="url(#clip0_452_84)">
<g clip-path="url(#clip1_452_84)">
<path d="M556.135 654.285C537.682 654.335 527.732 660.138 522.186 667.668C516.44 675.469 514.721 686.033 514.75 696.897C514.78 708.126 515.681 716.775 522.973 723.128C530.596 729.769 546.233 734.812 578.852 734.723C601.246 734.663 617.342 733.551 628.896 731.621C640.524 729.679 647.091 726.977 650.839 724.093C654.324 721.411 655.664 718.348 656.185 714.506C656.459 712.479 656.497 710.252 656.448 707.706C656.402 705.314 656.265 702.318 656.257 699.513C656.248 696.024 653.525 691.269 646.955 685.72C640.612 680.363 631.585 675.039 621.16 670.315C600.261 660.842 574.767 654.234 556.135 654.285Z" fill="#87CFE5" stroke="#0178B2" stroke-width="9"/>
<path d="M519.603 684.335C508.72 727.365 542.187 732.323 580.847 732.218C619.507 732.113 641.339 729.054 646.82 722.039C659.803 716.004 606.203 721.101 578.195 718.177C493.195 718.407 539.1 641.331 519.603 684.335Z" fill="#31A7BA"/>
</g>
<path d="M314.909 663.941L282.444 657.222L255.374 650.014L224.059 627.531L219.863 615.262L227.115 599.161L242.856 577.65L243.189 577.195L243.48 576.711L266.392 538.617L280.242 535.977L312.333 543.21L336.323 548.811L368.001 556.864L390.107 570.818L394.488 588.966L393.154 609.74L380.745 631.672L364.68 656.768L344.859 665.865L314.909 663.941Z" fill="#480062" stroke="#D46D06" stroke-width="25"/>
<path d="M328.67 644.93C326.045 643.626 324.748 642.343 324.133 641.229C323.54 640.156 323.425 638.961 323.79 637.497C324.589 634.297 327.439 630.566 331.06 626.129C334.426 622.005 338.216 618.664 341.915 616.969C345.424 615.361 348.69 615.262 351.879 617.3C354.872 619.212 356.657 621.501 356.816 624.261C356.978 627.088 355.486 631.192 349.91 636.861L349.81 636.962L349.72 637.072C346.161 641.433 343.248 644.513 340.095 645.992C337.349 647.281 333.946 647.55 328.67 644.93Z" fill="#FEC7FF" stroke="#E2A5E6" stroke-width="6"/>
<path d="M234.951 568.413C232.023 586.055 229.094 603.696 226.166 621.337C215.962 618.82 214.068 616.248 211.651 614.699C210.676 613.938 209.849 613.22 209.102 612.53C208.439 611.908 207.908 611.364 207.375 610.803C194.266 594.449 191.718 584.897 186.708 572.207C182.513 559.957 180.083 547.409 178.81 533.981C178.685 532.455 178.578 530.871 178.575 529.266C183.303 528.397 188.031 527.528 192.759 526.658C193.455 527.469 194.283 528.43 195.157 529.377C203.252 538.004 213.596 546.264 222.535 554.532C227.042 558.671 231.419 562.79 235.749 566.632C237.904 568.537 240.032 570.349 242.073 571.916C244.007 573.388 246.331 574.989 246.697 574.477C246.705 574.315 246.561 573.978 245.684 573.198C244.442 572.459 243.84 570.666 234.951 568.413Z" fill="#D46D06"/>
<g clip-path="url(#clip2_452_84)">
<path d="M432.77 658.07C451.278 657.161 461.557 662.439 467.509 669.67C473.676 677.161 475.947 687.622 476.481 698.473C477.032 709.689 476.577 718.373 469.593 725.096C462.292 732.125 446.872 737.974 414.155 739.582C391.693 740.686 375.494 740.413 363.807 739.086C352.045 737.751 345.319 735.395 341.411 732.709C337.777 730.213 336.274 727.223 335.553 723.413C335.173 721.404 335.019 719.181 334.937 716.637C334.859 714.246 334.841 711.246 334.704 708.445C334.533 704.959 337.016 700.069 343.318 694.186C349.402 688.507 358.179 682.72 368.388 677.46C388.857 666.914 414.082 658.989 432.77 658.07Z" fill="#87CFE5" stroke="#0178B2" stroke-width="9"/>
<path d="M470.964 686.181C484.108 728.587 450.801 735.278 412.025 737.184C373.249 739.09 351.196 737.17 345.336 730.45C332.003 725.098 386.021 727.4 413.958 723.024C499.213 718.833 449.183 644.248 470.964 686.181Z" fill="#31A7BA"/>
</g>
<path d="M395.649 19.021C406.02 16.065 416.025 17.7754 425.493 23.8788C435.124 30.0877 444.326 40.9567 452.277 56.3916C468.163 87.2266 478.305 134.85 477.559 194.153C475.475 218.692 474.395 243.441 473.344 266.34C472.286 289.391 471.259 310.482 469.29 327.909C467.29 345.597 464.407 358.463 460.199 365.712C458.169 369.208 456.212 370.727 454.525 371.297C452.901 371.846 450.395 371.892 446.404 370.005L443.518 368.641L440.775 370.271C437.056 372.48 435.42 372.284 434.928 372.137C434.454 371.995 433.256 371.363 431.739 368.218C430.25 365.132 428.938 360.61 427.693 354.531C426.461 348.517 425.37 341.381 424.18 333.227C419.45 300.82 413.39 253.753 390.721 208.947L390.562 208.634L390.369 208.342L388.118 204.922C341.472 133.556 333.234 90.3778 340.629 64.0464C347.998 37.8082 371.704 25.8464 395.649 19.021Z" fill="#8BCDE5" stroke="#0E6B96" stroke-width="12"/>
<path d="M624.548 64.3078C619.081 27.6467 601.868 6.05261 582.958 1.10632C562.515 -4.24086 535.617 0.242754 517.663 24.6733C499.483 49.4119 489.304 96.1239 506.656 177.706L506.69 177.868L506.716 178.031C515.283 231.628 502.821 277.495 493.936 309.159C491.699 317.129 489.731 324.047 488.322 330.059C486.901 336.128 486.175 340.778 486.222 344.248C486.269 347.709 487.066 348.989 487.629 349.533C488.236 350.117 489.891 351.119 494.403 351.098L497.381 351.083L499.289 353.367C502.383 357.07 504.959 358.398 506.913 358.747C508.814 359.087 511.187 358.691 514.333 356.73C521.02 352.562 528.864 342.795 537.782 327.864C555.434 298.313 574.682 253.27 596.296 207.595C623.447 150.219 629.959 100.6 624.548 64.3078Z" fill="#87CFE5" stroke="#0E6B96" stroke-width="12"/>
<path d="M467.619 326.999C570.094 326.999 653.119 409.405 653.119 510.999C653.119 612.593 570.094 694.999 467.619 694.999C365.144 694.999 282.119 612.593 282.119 510.999C282.119 409.405 365.144 326.999 467.619 326.999Z" fill="#86D0E3" stroke="#0C74AB" stroke-width="7"/>
<path d="M594.619 638.999C560.119 677.999 496.119 693.499 471.119 690.999C364.119 696.999 283.619 602.894 286.119 509.499C287.685 450.999 273.119 588.999 412.119 647.999C486.619 685.499 594.619 638.999 594.619 638.999Z" fill="#37B4CA"/>
<path opacity="0.77" d="M379.023 397.359L388.537 383.176L402.431 369.02L410.508 363.5L418.243 360.287L423.035 363.659L427.279 367.665L430.565 374.051L420.435 378.125L405.992 387.822L396.272 395.24L386.895 405.446L381.35 401.034L379.023 397.359Z" fill="#004F80"/>
<path opacity="0.7" d="M478.272 349.304L488.203 350.792L497.246 353.981L506.64 359.057L518.248 366.299L527.904 373.86L524.698 382.551L512.731 377.701L498.902 372.572L487.998 369.103L479.308 367.801L469.376 366.313L470.631 357.941L473.389 352.241L478.272 349.304Z" fill="#014C83"/>
<path d="M458.991 594.489C451.912 570.237 451.077 556.951 464.936 534.784" stroke="#117CA9" stroke-width="7" stroke-linecap="round"/>
<g clip-path="url(#clip3_452_84)">
<path d="M414.058 415.739C438.893 415.144 460.478 443.313 461.325 478.624C461.803 498.547 458.762 514.589 451.782 525.682C444.899 536.62 433.831 543.302 417.127 543.702C392.386 544.296 372.215 516.795 371.351 480.782C370.487 444.768 389.317 416.333 414.058 415.739Z" fill="#FEFEFE" stroke="#0F79AB" stroke-width="6"/>
<path d="M508.666 401.467C522.336 401.139 535.162 408.764 544.807 421.725C554.448 434.681 560.735 452.779 561.214 472.727C561.753 495.197 558.376 513.453 550.518 526.114C542.789 538.567 530.491 545.985 512.143 546.425C498.477 546.753 486.082 539.281 476.863 526.429C467.634 513.563 461.73 495.449 461.242 475.125C460.755 454.801 465.784 436.425 474.385 423.131C482.977 409.851 495 401.795 508.666 401.467Z" fill="#FEFEFE" stroke="#0F79AB" stroke-width="6"/>
<path d="M459.144 550.522C470.186 550.257 478.907 540.407 478.622 528.521C478.337 516.635 469.154 507.215 458.111 507.48C447.069 507.745 438.348 517.595 438.633 529.48C438.918 541.366 448.101 550.787 459.144 550.522Z" fill="#ED6F7A"/>
<path d="M496.058 487.906C496.323 498.963 490.548 508.07 482.542 508.262C474.536 508.454 467.831 499.646 467.566 488.589C467.301 477.533 473.576 468.414 481.582 468.222C490.639 470.509 495.782 476.395 496.058 487.906Z" fill="#2B2A28"/>
<path d="M444.554 509.173C452.56 508.981 458.835 499.862 458.57 488.805C458.304 477.749 451.599 468.941 443.593 469.133C435.588 469.325 429.313 478.444 429.578 489.501C429.843 500.557 436.548 509.365 444.554 509.173Z" fill="#2B2A28"/>
<path d="M493.306 477.456C494.39 480.935 491.224 484.016 488.464 484.082C485.704 484.148 483.406 481.737 483.333 478.696C483.26 475.656 485.44 473.137 488.2 473.071C490.96 473.005 493.233 474.415 493.306 477.456Z" fill="#F9FAFB"/>
<path d="M455.318 478.367C456.402 481.846 453.236 484.927 450.476 484.993C447.715 485.059 445.418 482.648 445.345 479.608C445.272 476.567 447.451 474.048 450.211 473.982C452.972 473.916 455.245 475.326 455.318 478.367Z" fill="#F9FAFB"/>
</g>
<g clip-path="url(#clip4_452_84)">
<path d="M354.883 541.338C354.34 540.615 353.561 540.167 352.718 540.092C351.875 540.017 351.037 540.322 350.389 540.939C349.741 541.556 349.336 542.434 349.262 543.382C349.188 544.329 349.452 545.267 349.996 545.99C352.66 549.531 355.51 552.895 358.515 556.07C414.604 612.796 505.28 608.089 563.613 557.103C566.891 554.255 570.024 551.318 573.11 548.198C573.742 547.559 574.123 546.667 574.172 545.718C574.22 544.769 573.93 543.84 573.367 543.137C572.804 542.433 572.012 542.012 571.168 541.966C570.323 541.92 569.494 542.252 568.863 542.891C565.898 545.89 562.888 548.711 559.737 551.448C503.841 600.572 415.797 604.658 362.907 550.832C360.071 547.836 357.388 544.667 354.883 541.338Z" fill="#076FA2"/>
<path d="M422.618 593.95L422.69 593.971L422.763 593.984L434.917 596.214L434.98 596.226L435.043 596.231L445.646 597.21L445.686 597.214L454.225 597.521L453.371 621.294L452.772 625.531L448.483 629.269L444.589 631.275L439.093 631.638L434.071 631.457L428.726 629.606L423.401 625.503L418.135 618.552L414.908 608.664L412.692 598.756L412.967 591.112L422.618 593.95Z" fill="#FEFEFE" stroke="#0578A5" stroke-width="3"/>
<path d="M485.007 595.906L484.934 595.922L484.858 595.931L473.746 597.151L473.682 597.158L473.619 597.16L463.987 597.354L463.947 597.355L456.369 597.082L455.603 618.393L455.864 622.176L459.433 625.764L462.776 627.803L467.676 628.482L472.193 628.644L477.097 627.333L482.131 624.004L487.301 618.116L490.838 609.448L493.473 600.685L493.713 594.014L485.007 595.906Z" fill="#FEFEFE" stroke="#0875A4" stroke-width="3"/>
</g>
<g clip-path="url(#clip5_452_84)">
<path d="M636.149 542.304C635.44 548.256 636.728 551.035 638.752 552.743C641.215 554.822 645.47 555.959 651.997 556.547C664.438 557.668 683.901 556.602 704.572 561.478L704.871 561.548L705.153 561.677C719.63 568.319 732.56 574.164 744.375 576.043C755.711 577.846 765.655 575.939 774.73 567.622C780.346 553.601 782.036 542.475 781.138 533.688C780.231 524.804 776.649 517.978 771.227 512.699C760.166 501.93 741.403 497.582 722.477 496.924L722.332 496.919L722.189 496.9C704.641 494.645 684.221 500.712 667.424 510.335C659.055 515.13 651.726 520.729 646.209 526.445C640.714 532.138 637.316 537.636 636.149 542.304Z" fill="#87CFE5" stroke="#0076B8" stroke-width="7"/>
<path d="M743.867 546.436C743.574 546.435 743.294 546.297 743.085 546.066C742.878 545.833 742.761 545.526 742.76 545.199C742.758 544.872 742.873 544.548 743.079 544.288C743.285 544.028 743.565 543.853 743.857 543.812C744.487 543.726 745.098 543.645 745.727 543.57C756.88 541.779 769.017 544.308 778.9 550.138C779.468 550.451 780.007 550.752 780.57 551.075C779.284 553.354 777.998 555.632 776.711 557.91C776.222 557.531 775.757 557.175 775.266 556.808C766.68 550.071 756.772 546.362 745.699 546.459C745.084 546.446 744.486 546.438 743.867 546.436Z" fill="#0074AB"/>
<path d="M749.034 519.886C748.739 519.854 748.466 519.683 748.273 519.426C748.081 519.168 747.984 518.844 748.006 518.512C748.028 518.179 748.167 517.86 748.393 517.61C748.619 517.361 748.914 517.202 749.211 517.181C749.753 517.147 750.265 517.115 750.807 517.088C760.326 516.35 770.328 518.171 779.271 521.355C779.782 521.525 780.268 521.688 780.777 521.861C781.686 522.167 782.399 522.866 782.741 523.85C783.084 524.831 783.028 526.016 782.604 527.099C782.18 528.183 781.427 529.063 780.53 529.501C779.63 529.941 778.658 529.903 777.812 529.44C777.347 529.188 776.903 528.946 776.439 528.697C768.274 524.125 759.916 521.002 750.58 520.062C750.056 519.999 749.56 519.941 749.034 519.886Z" fill="#007BA4"/>
</g>
<path d="M283.601 492.076C286.161 497.252 287.97 505.18 286.86 507.24C285.509 509.748 278.865 511.46 273.656 513.675C263.725 517.896 255.835 509.5 238.687 512.09L234.308 514.838L231.389 516.67C221.601 526.388 224.325 553.163 215.164 557.905C199.83 567.527 187.507 555.796 177.236 550.651C167.938 539.477 162.852 529.896 160.682 521.752C158.49 513.519 160.076 506.386 162.816 500.233C169.176 491.061 172.075 489.238 188.18 476.943L197.193 473.464L197.305 473.41C211.089 466.849 230.009 467.04 247.108 471.367C255.627 473.523 263.551 476.672 270.014 480.394C276.452 484.102 281.088 488.174 283.601 492.076Z" fill="#87CFE5" stroke="#0076B8" stroke-width="7"/>
</g>
<defs>
<clipPath id="clip0_452_84">
<rect width="800" height="800" fill="white"/>
</clipPath>
<clipPath id="clip1_452_84">
<rect width="151" height="90" fill="white" transform="matrix(-0.999996 0.00271074 0.00271074 0.999996 661.121 649)"/>
</clipPath>
<clipPath id="clip2_452_84">
<rect width="151.636" height="90" fill="white" transform="translate(327.209 658.252) rotate(-2.81378)"/>
</clipPath>
<clipPath id="clip3_452_84">
<rect width="196" height="148.189" fill="white" transform="translate(366.482 402.876) rotate(-1.37402)"/>
</clipPath>
<clipPath id="clip4_452_84">
<rect width="225.384" height="96.7482" fill="white" transform="translate(349.596 534) rotate(2.05882)"/>
</clipPath>
<clipPath id="clip5_452_84">
<rect width="86.1527" height="149" fill="white" transform="matrix(-0.229587 0.973288 0.973288 0.229587 648.898 473)"/>
</clipPath>
</defs>
</svg>
