<svg width="800" height="800" viewBox="0 0 800 800" fill="none" xmlns="http://www.w3.org/2000/svg">
<g clip-path="url(#clip0_452_287)">
<g clip-path="url(#clip1_452_287)">
<path d="M508.957 665.059C489.962 661.26 478.644 664.512 471.534 670.264C464.168 676.224 460.43 685.559 458.436 695.532C456.374 705.841 455.688 713.964 462.007 721.312C468.612 728.994 483.76 736.878 517.337 743.593C540.389 748.203 557.156 750.537 569.403 751.173C581.729 751.814 588.989 750.704 593.383 748.838C597.467 747.104 599.418 744.573 600.669 741.156C601.329 739.354 601.784 737.318 602.208 734.973C602.607 732.769 603.023 729.991 603.538 727.416C604.179 724.212 602.264 719.283 596.539 712.823C591.011 706.587 582.716 699.821 572.871 693.314C553.134 680.269 528.136 668.895 508.957 665.059Z" fill="#87CFE5" stroke="#0178B2" stroke-width="9"/>
<path d="M465.768 685.018C446.551 722.23 480.06 733.751 519.855 741.71C559.65 749.669 582.682 751.41 589.628 746.116C604.112 743.284 548.014 736.793 519.743 728.275C432.248 710.776 493.844 649.625 465.768 685.018Z" fill="#31A7BA"/>
</g>
<g clip-path="url(#clip2_452_287)">
<path d="M374.518 661.836C393.766 654.33 406.469 656.199 415.28 661.638C424.408 667.273 430.453 677.388 434.796 688.526C439.286 700.038 441.83 709.263 436.789 718.756C431.52 728.679 417.258 740.247 383.234 753.516C359.876 762.625 342.657 768.078 329.841 770.833C316.943 773.607 309.013 773.53 303.946 772.111C299.236 770.792 296.606 768.204 294.517 764.482C293.415 762.519 292.478 760.254 291.504 757.627C290.589 755.159 289.526 752.034 288.405 749.159C287.01 745.581 287.932 739.597 292.544 731.224C296.996 723.14 304.259 713.99 313.218 704.883C331.181 686.623 355.084 669.415 374.518 661.836Z" fill="#87CFE5" stroke="#0178B2" stroke-width="9"/>
<path d="M424.685 677.649C453.35 717.257 420.474 736.041 380.15 751.767C339.825 767.492 315.846 773.3 307.31 768.361C291.352 767.498 349.254 750.766 377.26 736.301C465.919 701.726 387.054 641.594 424.685 677.649Z" fill="#31A7BA"/>
</g>
<path d="M343.518 37.2978C352.478 31.2982 362.525 29.8514 373.41 32.7504C384.483 35.6996 396.58 43.2151 408.889 55.4601C433.481 79.922 457.766 122.125 475.278 178.788C480.835 202.78 487.412 226.664 493.448 248.778C499.525 271.039 505.028 291.425 508.508 308.614C512.04 326.061 513.251 339.19 511.473 347.382C510.616 351.332 509.221 353.38 507.79 354.44C506.413 355.461 504.042 356.275 499.665 355.706L496.5 355.295L494.39 357.689C491.53 360.933 489.913 361.25 489.4 361.261C488.905 361.272 487.571 361.039 485.16 358.512C482.795 356.032 480.157 352.133 477.104 346.73C474.084 341.386 470.854 334.93 467.216 327.536C452.756 298.15 432.527 255.223 397.187 219.55L396.94 219.301L396.666 219.083L393.473 216.519C327.155 162.939 306.048 124.381 304.994 97.0512C303.945 69.818 322.828 51.1507 343.518 37.2978Z" fill="#8BCDE5" stroke="#0E6B96" stroke-width="12"/>
<path d="M463.502 322.999C565.977 322.999 649.002 405.405 649.002 506.999C649.002 608.593 565.977 690.999 463.502 690.999C361.027 690.999 278.002 608.593 278.002 506.999C278.002 405.405 361.027 322.999 463.502 322.999Z" fill="#86D0E3" stroke="#0C74AB" stroke-width="7"/>
<path d="M590.502 634.999C556.002 673.999 492.002 689.499 467.002 686.999C360.002 692.999 279.502 598.894 282.002 505.499C283.568 446.999 269.002 584.999 408.002 643.999C482.502 681.499 590.502 634.999 590.502 634.999Z" fill="#37B4CA"/>
<path opacity="0.77" d="M388.612 358.385L400.596 346.216L416.878 334.887L425.84 330.965L434.037 329.244L438.119 333.448L441.545 338.172L443.588 345.058L432.877 347.179L416.884 354.024L405.955 359.507L394.845 367.794L390.217 362.429L388.612 358.385Z" fill="#004F80"/>
<path opacity="0.7" d="M486.063 332.93L495.994 334.418L505.037 337.607L514.431 342.683L526.039 349.925L535.695 357.486L532.489 366.177L520.522 361.327L506.694 356.198L495.789 352.729L487.099 351.427L477.167 349.939L478.422 341.567L481.18 335.867L486.063 332.93Z" fill="#014C83"/>
<path d="M397.868 527.288C390.306 508.934 389.197 498.975 402.561 482.831" stroke="#117CA9" stroke-width="7" stroke-linecap="round"/>
<path d="M405.291 540.145C396.31 516.531 394.424 503.354 406.481 480.157" stroke="#117CA9" stroke-width="7" stroke-linecap="round"/>
<g clip-path="url(#clip3_452_287)">
<path d="M377.708 363.462C402.192 367.67 418.357 397.017 412.894 428.799C409.811 446.731 403.967 460.515 395.138 469.116C386.432 477.597 374.378 481.467 357.91 478.636C333.519 474.443 318.623 445.966 324.195 413.552C329.767 381.137 353.318 359.269 377.708 363.462Z" fill="#FEFEFE" stroke="#0F79AB" stroke-width="6"/>
<path d="M473.35 367.372C486.826 369.688 497.901 379.873 504.798 394.83C511.692 409.782 514.278 429.277 510.799 449.515C506.88 472.312 499.955 490.095 489.739 501.359C479.691 512.439 466.158 517.548 448.07 514.438C434.597 512.123 423.916 502.177 417.415 487.411C410.907 472.631 408.7 453.194 412.245 432.574C415.789 411.955 424.36 394.37 435.43 382.611C446.488 370.864 459.878 365.056 473.35 367.372Z" fill="#FEFEFE" stroke="#0F79AB" stroke-width="6"/>
<path d="M397.23 507.504C408.116 509.376 418.621 501.117 420.694 489.058C422.767 476.999 415.622 465.707 404.736 463.836C393.85 461.964 383.345 470.223 381.272 482.282C379.199 494.34 386.344 505.633 397.23 507.504Z" fill="#ED6F7A"/>
<path d="M443.872 452.225C441.944 463.443 434.475 471.521 426.583 470.164C418.691 468.808 413.856 458.614 415.784 447.397C417.712 436.179 425.674 428.186 433.566 429.542C441.999 433.606 445.88 440.546 443.872 452.225Z" fill="#2B2A28"/>
<path d="M389.134 463.727C397.026 465.083 404.987 457.09 406.916 445.872C408.844 434.655 404.009 424.461 396.117 423.105C388.224 421.748 380.263 429.742 378.335 440.959C376.407 452.177 381.241 462.37 389.134 463.727Z" fill="#2B2A28"/>
<path d="M443.242 441.138C443.616 444.862 439.9 447.36 437.179 446.892C434.458 446.425 432.681 443.545 433.212 440.46C433.742 437.375 436.379 435.254 439.1 435.721C441.821 436.189 443.772 438.053 443.242 441.138Z" fill="#F9FAFB"/>
<path d="M405.791 434.701C406.165 438.424 402.45 440.922 399.728 440.455C397.007 439.987 395.23 437.107 395.761 434.022C396.291 430.937 398.927 428.816 401.648 429.284C404.37 429.751 406.321 431.616 405.791 434.701Z" fill="#F9FAFB"/>
</g>
<g clip-path="url(#clip4_452_287)">
<path d="M667.489 532.557C661.262 528.732 657.72 528.538 655.057 529.63C651.818 530.96 648.903 534.546 645.697 540.653C639.585 552.297 646.562 568.687 633.114 586.449L632.143 592.089L629.782 598.144C616.836 608.888 594.799 610.606 588.104 621.236C581.681 631.434 579.859 642.213 585.384 655.506C598.503 668.395 610 675.903 619.956 679.638C630.022 683.414 638.89 683.479 646.789 680.923C662.904 675.706 675.026 659.543 683.179 641.281L683.241 641.141L683.318 641.01C692.676 624.942 694.065 601.676 690.145 580.105C688.192 569.358 684.951 559.21 680.871 550.782C676.807 542.387 672.133 536.157 667.489 532.557Z" fill="#87CFE5" stroke="#0076B8" stroke-width="7"/>
<path d="M620.663 636.293C620.78 636.007 621.041 635.803 621.376 635.72C621.711 635.638 622.093 635.684 622.451 635.855C622.81 636.025 623.117 636.308 623.321 636.648C623.524 636.987 623.606 637.354 623.536 637.663C623.383 638.328 623.231 638.97 623.066 639.629C620.642 651.535 613.112 662.139 602.857 668.793C602.292 669.187 601.752 669.559 601.177 669.943C599.192 667.481 597.207 665.019 595.223 662.557C595.829 662.275 596.4 662.005 596.995 661.715C607.73 656.813 615.676 649.021 619.919 638.082C620.174 637.485 620.418 636.901 620.663 636.293Z" fill="#0074AB"/>
<path d="M647.653 655.324C647.803 655.051 648.097 654.872 648.454 654.818C648.811 654.765 649.203 654.839 649.558 655.036C649.913 655.232 650.207 655.536 650.391 655.89C650.575 656.243 650.633 656.617 650.538 656.92C650.363 657.47 650.197 657.99 650.014 658.537C647.081 668.285 641.163 677.162 634.17 684.282C633.783 684.694 633.414 685.087 633.025 685.496C632.334 686.229 631.29 686.563 630.08 686.382C628.873 686.204 627.6 685.527 626.582 684.54C625.565 683.554 624.899 682.351 624.773 681.239C624.645 680.122 625.068 679.187 625.906 678.598C626.365 678.274 626.804 677.965 627.258 677.639C635.462 672.013 642.158 665.437 646.853 656.752C647.127 656.27 647.385 655.813 647.653 655.324Z" fill="#007BA4"/>
</g>
<g clip-path="url(#clip5_452_287)">
<path d="M304.948 460.543C304.516 459.749 303.811 459.191 302.989 458.993C302.166 458.796 301.293 458.974 300.561 459.49C299.83 460.005 299.3 460.815 299.088 461.741C298.876 462.667 299 463.634 299.432 464.428C301.548 468.322 303.874 472.067 306.381 475.648C353.553 539.981 443.94 548.612 509.114 506.725C512.775 504.388 516.304 501.942 519.814 499.307C520.532 498.768 521.04 497.941 521.228 497.01C521.414 496.078 521.263 495.117 520.809 494.338C520.356 493.56 519.635 493.027 518.806 492.858C517.977 492.688 517.108 492.896 516.39 493.435C513.018 495.967 509.627 498.317 506.109 500.563C443.618 540.966 355.925 532.106 311.494 471.11C309.128 467.731 306.938 464.203 304.948 460.543Z" fill="#076FA2"/>
<path d="M364.242 522.513L364.31 522.544L364.381 522.568L376.077 526.555L376.137 526.575L376.199 526.59L386.544 529.112L386.583 529.122L394.985 530.677L390.656 554.068L389.443 558.172L384.653 561.24L380.506 562.654L375.017 562.208L370.075 561.293L365.059 558.679L360.394 553.84L356.203 546.192L354.46 535.938L353.719 525.812L355.111 518.291L364.242 522.513Z" fill="#FEFEFE" stroke="#0578A5" stroke-width="3"/>
<path d="M425.671 533.59L425.597 533.595L425.521 533.592L414.35 533.172L414.285 533.169L414.223 533.161L404.666 531.942L404.627 531.937L397.17 530.557L393.29 551.525L392.993 555.306L395.998 559.378L399.007 561.885L403.754 563.275L408.198 564.097L413.242 563.518L418.709 560.963L424.686 555.896L429.455 547.84L433.346 539.558L434.561 532.994L425.671 533.59Z" fill="#FEFEFE" stroke="#0875A4" stroke-width="3"/>
</g>
<path d="M685.89 98.6105C682.743 61.6778 666.926 39.0422 648.364 32.9144C628.299 26.29 601.172 29.0702 581.715 52.3212C562.012 75.8653 548.911 121.843 561.088 204.357L561.112 204.521L561.128 204.684C566.302 258.715 550.975 303.706 540.113 334.747C537.378 342.56 534.978 349.341 533.193 355.252C531.393 361.219 530.375 365.814 530.204 369.28C530.032 372.737 530.747 374.065 531.274 374.643C531.843 375.265 533.432 376.369 537.937 376.632L540.91 376.805L542.669 379.204C545.525 383.095 548.011 384.582 549.94 385.054C551.815 385.513 554.209 385.267 557.472 383.508C564.409 379.77 572.852 370.517 582.693 356.177C602.172 327.796 624.219 284.056 648.668 239.833C679.379 184.282 689.004 135.172 685.89 98.6105Z" fill="#87CFE5" stroke="#0E6B96" stroke-width="12"/>
<path d="M293.08 471.438C297.93 473.523 303.892 477.958 304.343 480.04C304.892 482.575 301.291 487.673 298.984 492.275C294.587 501.047 296.484 499.438 286.102 511.326L283.245 519.606L281.631 528.164C280.595 540.665 288.131 548.7 284.578 557.381C279.63 573.08 264.103 572.194 253.911 574.669C240.818 572.388 231.597 568.735 225.257 564.362C218.847 559.94 215.716 554.058 213.969 548.177C212.947 538.072 213.88 535.101 217.778 517.093L221.977 509.376L222.023 509.273C227.71 496.609 240.974 485.607 255.426 478.547C262.626 475.03 270.003 472.551 276.704 471.33C283.378 470.113 289.017 470.21 293.08 471.438Z" fill="#87CFE5" stroke="#0076B8" stroke-width="7"/>
<path d="M514.183 351.939L553.068 358.368L585.764 366.012L625.669 395.49L633.004 416.325L624.714 442.685L607.529 474.796L607.287 475.249L607.083 475.719L582.263 532.91L565.174 538.174L526.726 530.997L497.907 525.348L459.75 516.955L431.183 498.558L423.771 470.44L423.717 438.581L437.274 405.186L454.908 367.196L478.578 352L514.183 351.939Z" fill="#480062" stroke="#D46D06" stroke-width="25"/>
<path d="M499.895 384.015C503.147 385.625 504.874 387.361 505.762 389.002C506.636 390.618 506.89 392.496 506.541 394.791C505.804 399.642 502.57 405.364 498.675 411.857C494.972 418.029 490.636 423.241 486.187 426.094C481.877 428.856 477.752 429.283 473.66 426.614C469.932 424.182 467.462 421.012 467.022 416.814C466.568 412.478 468.189 406.274 474.432 397.677L474.509 397.571L474.577 397.458C478.426 391.042 481.758 386.207 485.622 383.676C487.469 382.467 489.416 381.806 491.629 381.778C493.872 381.749 496.57 382.369 499.895 384.015Z" fill="#FEC7FF" stroke="#E2A5E6" stroke-width="6"/>
<path d="M383.541 324.009L406.804 331.526L421.492 337.767L437.652 359.696L443.924 376.868L437.264 398.381L423.078 425.313L402.328 462.416L393.24 467.237L358.035 471.506L331.231 467.216L301.94 460.194L279.191 447.132L270.02 429.179L273.395 396.539L284.808 367.974L299.266 336.33L317.982 324.121L383.541 324.009Z" fill="#480062" stroke="#D46D06" stroke-width="25"/>
<path d="M334.918 349.777C337.567 351.109 338.913 352.515 339.589 353.785C340.252 355.03 340.462 356.505 340.183 358.375C339.584 362.377 336.944 367.144 333.683 372.668C330.61 377.872 327.035 382.221 323.406 384.585C319.912 386.861 316.672 387.163 313.463 385.036C310.439 383.032 308.502 380.47 308.155 377.111C307.794 373.607 309.073 368.465 314.251 361.22L314.327 361.115L314.394 361.002C317.61 355.555 320.343 351.548 323.471 349.467C324.95 348.483 326.493 347.955 328.242 347.932C330.02 347.909 332.195 348.408 334.918 349.777Z" fill="#FEC7FF" stroke="#E2A5E6" stroke-width="6"/>
<path d="M614.881 474.714C617.781 455.578 620.68 436.442 623.58 417.307C633.626 419.459 635.204 422.105 637.583 423.642C638.543 424.421 639.375 425.174 640.143 425.912C640.785 426.544 641.37 427.159 641.933 427.774C656.763 446.621 661.76 460.099 668.875 476.518C675.232 492.604 679.919 509.254 683.188 527.152C683.533 529.181 683.857 531.286 684.055 533.4C679.681 534.896 675.307 536.391 670.933 537.886C670.113 536.67 669.13 535.288 668.1 533.943C658.571 521.79 646.575 510.519 635.836 499.093C625.435 488.303 613.058 474.167 605.303 469.958C605.098 469.949 604.999 470.092 605.568 470.684C606.505 471.194 606.465 472.823 614.881 474.714Z" fill="#D46D06"/>
</g>
<defs>
<clipPath id="clip0_452_287">
<rect width="800" height="800" fill="white"/>
</clipPath>
<clipPath id="clip1_452_287">
<rect width="158.511" height="84.2596" fill="white" transform="matrix(-0.980582 -0.19611 -0.19611 0.980582 617.957 682.085)"/>
</clipPath>
<clipPath id="clip2_452_287">
<rect width="169.053" height="99.0344" fill="white" transform="translate(263 699.421) rotate(-21.3048)"/>
</clipPath>
<clipPath id="clip3_452_287">
<rect width="196" height="152.505" fill="white" transform="translate(333.578 341.257) rotate(9.75368)"/>
</clipPath>
<clipPath id="clip4_452_287">
<rect width="105.208" height="156.298" fill="white" transform="matrix(-0.797246 -0.603654 -0.603654 0.797246 738.229 581.509)"/>
</clipPath>
<clipPath id="clip5_452_287">
<rect width="225.384" height="96.7482" fill="white" transform="translate(300.793 452.509) rotate(10.4852)"/>
</clipPath>
</defs>
</svg>
