<svg width="800" height="800" viewBox="0 0 800 800" fill="none" xmlns="http://www.w3.org/2000/svg">
<g clip-path="url(#clip0_452_157)">
<g clip-path="url(#clip1_452_157)">
<path d="M580.024 670.536C560.825 665.042 548.857 667.666 540.984 673.282C532.828 679.1 528.084 688.801 525.075 699.316C521.964 710.185 520.48 718.82 526.284 727.154C532.351 735.867 547.197 745.44 581.134 755.152C604.433 761.82 621.478 765.58 634.03 767.183C646.663 768.798 654.246 768.158 658.95 766.494C663.323 764.947 665.574 762.387 667.19 758.828C668.042 756.95 668.705 754.808 669.367 752.331C669.988 750.004 670.684 747.065 671.461 744.35C672.427 740.973 670.927 735.556 665.649 728.217C660.553 721.131 652.658 713.27 643.142 705.57C624.064 690.132 599.409 676.083 580.024 670.536Z" fill="#87CFE5" stroke="#0178B2" stroke-width="9"/>
<path d="M533.634 688.625C510.279 726.971 543.686 741.818 583.908 753.328C624.13 764.839 647.684 768.438 655.345 763.3C670.532 761.363 613.38 750.193 585.08 738.952C496.645 713.644 565.938 652.891 533.634 688.625Z" fill="#31A7BA"/>
</g>
<g clip-path="url(#clip2_452_157)">
<path d="M437.143 666.214C454.603 659.405 466.543 662.168 475.077 668.491C483.918 675.042 490.163 686.169 494.886 698.281C499.768 710.799 502.7 720.767 498.587 730.556C494.288 740.789 481.716 752.223 450.852 764.259C429.664 772.522 413.967 777.271 402.205 779.42C390.367 781.582 382.98 781.017 378.176 779.198C373.711 777.507 371.104 774.594 368.933 770.509C367.787 768.353 366.777 765.886 365.71 763.033C364.707 760.352 363.527 756.963 362.308 753.837C360.79 749.946 361.284 743.638 365.066 735.013C368.718 726.687 374.92 717.399 382.705 708.258C398.312 689.933 419.514 673.089 437.143 666.214Z" fill="#87CFE5" stroke="#0178B2" stroke-width="9"/>
<path d="M484.808 686.095C513.911 729.973 484.452 747.945 447.873 762.21C411.294 776.475 389.325 781.189 381.078 775.415C366.169 773.523 419.05 759.26 444.239 745.584C524.664 714.22 447.577 645.449 484.808 686.095Z" fill="#31A7BA"/>
</g>
<path d="M732.975 125.09C741.24 88.9571 733.078 62.5762 717.269 51.0804C700.18 38.6528 673.497 33.0288 647.877 49.2392C621.932 65.6538 595.435 105.447 581.872 187.744L581.844 187.907L581.81 188.068C570.261 241.103 541.945 279.277 522.135 305.528C517.148 312.135 512.794 317.861 509.292 322.947C505.758 328.081 503.387 332.146 502.167 335.395C500.95 338.635 501.225 340.118 501.551 340.829C501.904 341.594 503.08 343.131 507.29 344.755L510.069 345.826L511.013 348.648C512.546 353.224 514.46 355.399 516.153 356.436C517.8 357.445 520.154 357.941 523.798 357.26C531.544 355.816 542.407 349.577 556.152 338.922C583.358 317.833 617.693 282.898 654.462 248.237C700.65 204.696 724.792 160.86 732.975 125.09Z" fill="#87CFE5" stroke="#0E6B96" stroke-width="12"/>
<path d="M507.62 3.31601C518.394 2.84257 527.731 6.82412 535.527 14.9545C543.458 23.2253 549.893 35.9303 554.052 52.7872C562.364 86.4632 561.199 135.14 546.736 192.658C539.025 216.047 532.242 239.873 525.915 261.906C519.547 284.085 513.663 304.364 507.71 320.861C501.667 337.605 495.883 349.453 490.11 355.53C487.326 358.461 485.07 359.486 483.297 359.648C481.589 359.806 479.141 359.271 475.696 356.511L473.205 354.516L470.158 355.466C466.029 356.753 464.483 356.184 464.038 355.927C463.61 355.679 462.591 354.787 461.843 351.376C461.11 348.028 460.88 343.326 461.078 337.123C461.273 330.988 461.864 323.794 462.595 315.586C465.5 282.964 470.507 235.774 458.833 186.935L458.752 186.594L458.631 186.265L457.234 182.417C428.387 102.187 430.374 58.2747 443.667 34.3724C456.914 10.5548 482.745 4.40924 507.62 3.31601Z" fill="#8BCDE5" stroke="#0E6B96" stroke-width="12"/>
<path d="M465.121 322.999C567.596 322.999 650.621 405.405 650.621 506.999C650.621 608.593 567.596 690.999 465.121 690.999C362.646 690.999 279.621 608.593 279.621 506.999C279.621 405.405 362.646 322.999 465.121 322.999Z" fill="#86D0E3" stroke="#0C74AB" stroke-width="7"/>
<path d="M592.121 635C557.621 674 493.621 689.5 468.621 687C361.621 693 281.121 598.895 283.621 505.5C285.187 447 270.621 585 409.621 644C484.121 681.5 592.121 635 592.121 635Z" fill="#37B4CA"/>
<path opacity="0.77" d="M390.232 358.385L402.215 346.216L418.498 334.888L427.459 330.965L435.656 329.244L439.738 333.448L443.165 338.172L445.207 345.058L434.496 347.179L418.503 354.024L407.575 359.508L396.465 367.794L391.836 362.429L390.232 358.385Z" fill="#004F80"/>
<path opacity="0.7" d="M487.682 332.93L497.614 334.418L506.656 337.607L516.05 342.683L527.658 349.926L537.314 357.487L534.108 366.177L522.141 361.327L508.313 356.198L497.408 352.73L488.718 351.427L478.786 349.939L480.041 341.567L482.799 335.867L487.682 332.93Z" fill="#014C83"/>
<path d="M426.001 565.822C425.628 540.561 428.357 527.532 447.614 509.85" stroke="#117CA9" stroke-width="7" stroke-linecap="round"/>
<g clip-path="url(#clip3_452_157)">
<path d="M415.925 387.803C440.408 392.012 456.151 423.817 450.167 458.628C446.791 478.269 440.711 493.422 431.721 502.96C422.857 512.364 410.708 516.784 394.24 513.953C369.85 509.76 355.365 478.884 361.468 443.381C367.571 407.877 391.534 383.61 415.925 387.803Z" fill="#FEFEFE" stroke="#0F79AB" stroke-width="6"/>
<path d="M511.508 392.058C524.984 394.374 536.098 404.332 543.06 418.91C550.02 433.483 552.695 452.454 549.315 472.12C545.507 494.272 538.671 511.532 528.517 522.439C518.53 533.166 505.032 538.071 486.943 534.962C473.471 532.646 462.751 522.923 456.186 508.533C449.614 494.128 447.316 475.214 450.761 455.179C454.205 435.143 462.686 418.082 473.691 406.698C484.685 395.327 498.036 389.742 511.508 392.058Z" fill="#FEFEFE" stroke="#0F79AB" stroke-width="6"/>
<path d="M434.151 528.753C445.037 530.625 455.495 522.643 457.509 510.925C459.523 499.208 452.331 488.192 441.445 486.321C430.559 484.449 420.102 492.431 418.087 504.149C416.073 515.866 423.265 526.882 434.151 528.753Z" fill="#ED6F7A"/>
<path d="M482.457 474.439C480.584 485.339 473.159 493.16 465.267 491.803C457.375 490.446 452.495 480.51 454.369 469.611C456.243 458.711 464.16 450.974 472.052 452.331C480.498 456.323 484.408 463.091 482.457 474.439Z" fill="#2B2A28"/>
<path d="M427.816 485.365C435.708 486.722 443.625 478.986 445.499 468.086C447.372 457.186 442.493 447.25 434.601 445.893C426.709 444.537 418.792 452.273 416.918 463.173C415.044 474.073 419.923 484.009 427.816 485.365Z" fill="#2B2A28"/>
<path d="M481.774 463.654C482.166 467.277 478.465 469.689 475.743 469.221C473.022 468.753 471.233 465.944 471.749 462.947C472.264 459.949 474.888 457.898 477.609 458.366C480.33 458.834 482.289 460.656 481.774 463.654Z" fill="#F9FAFB"/>
<path d="M444.323 457.216C444.714 460.839 441.014 463.251 438.292 462.783C435.571 462.315 433.782 459.506 434.298 456.509C434.813 453.511 437.437 451.461 440.158 451.928C442.88 452.396 444.838 454.219 444.323 457.216Z" fill="#F9FAFB"/>
</g>
<g clip-path="url(#clip4_452_157)">
<path d="M333.384 502.034C332.952 501.239 332.247 500.682 331.424 500.484C330.601 500.286 329.728 500.465 328.997 500.98C328.265 501.495 327.735 502.305 327.524 503.231C327.312 504.158 327.436 505.124 327.868 505.919C329.984 509.812 332.31 513.558 334.817 517.139C381.989 581.472 472.376 590.103 537.55 548.215C541.21 545.878 544.739 543.432 548.25 540.798C548.968 540.259 549.475 539.432 549.663 538.5C549.85 537.569 549.699 536.608 549.245 535.829C548.791 535.05 548.07 534.518 547.242 534.348C546.413 534.179 545.544 534.387 544.826 534.926C541.453 537.458 538.062 539.808 534.545 542.054C472.053 582.456 384.361 573.596 339.929 512.6C337.564 509.222 335.373 505.694 333.384 502.034Z" fill="#076FA2"/>
<path d="M392.678 564.003L392.746 564.035L392.817 564.059L404.512 568.045L404.573 568.066L404.635 568.081L414.98 570.603L415.019 570.612L423.421 572.167L419.092 595.558L417.878 599.662L413.088 602.731L408.942 604.145L403.453 603.698L398.511 602.784L393.495 600.17L388.829 595.33L384.638 587.683L382.895 577.429L382.155 567.303L383.547 559.782L392.678 564.003Z" fill="#FEFEFE" stroke="#0578A5" stroke-width="3"/>
<path d="M454.107 575.08L454.032 575.085L453.956 575.083L442.785 574.662L442.721 574.66L442.659 574.652L433.102 573.432L433.063 573.428L425.606 572.047L421.725 593.016L421.429 596.796L424.434 600.868L427.442 603.375L432.19 604.765L436.634 605.588L441.678 605.009L447.145 602.453L453.122 597.386L457.891 589.331L461.782 581.049L462.996 574.485L454.107 575.08Z" fill="#FEFEFE" stroke="#0875A4" stroke-width="3"/>
</g>
<g clip-path="url(#clip5_452_157)">
<path d="M651.289 543.538C647.713 548.753 647.55 551.972 648.597 554.55C649.87 557.686 653.272 560.812 659.057 564.527C670.083 571.609 688.715 580.054 705.56 594.635L705.804 594.846L706.002 595.103C716.219 608.329 725.386 620.059 735.459 627.545C745.123 634.728 755.31 637.77 767.828 634.406C779.921 624.036 786.943 614.465 790.413 605.823C793.92 597.087 793.931 588.975 791.473 581.414C786.456 565.992 771.128 552.829 753.841 543.035L753.709 542.96L753.585 542.873C738.362 532.254 716.39 528.015 696.048 528.854C685.913 529.272 676.351 530.946 668.418 533.607C660.516 536.259 654.661 539.745 651.289 543.538Z" fill="#87CFE5" stroke="#0076B8" stroke-width="7"/>
<path d="M749.489 599.649C749.218 599.506 749.024 599.241 748.943 598.924C748.865 598.606 748.906 598.262 749.065 597.956C749.224 597.65 749.489 597.404 749.809 597.261C750.128 597.118 750.474 597.09 750.766 597.193C751.394 597.418 752.001 597.64 752.624 597.874C763.878 601.612 773.932 609.861 780.272 620.1C780.647 620.668 781.001 621.21 781.367 621.786C779.054 623.289 776.741 624.793 774.428 626.296C774.159 625.705 773.901 625.147 773.623 624.566C768.935 614.11 761.533 605.839 751.182 600.559C750.617 600.249 750.064 599.951 749.489 599.649Z" fill="#0074AB"/>
<path d="M767.302 577.36C767.043 577.187 766.873 576.895 766.819 576.561C766.767 576.227 766.835 575.878 767.019 575.578C767.202 575.278 767.488 575.047 767.821 574.924C768.153 574.801 768.505 574.795 768.792 574.92C769.313 575.151 769.805 575.369 770.322 575.607C779.541 579.536 787.956 586.088 794.716 593.399C795.108 593.806 795.481 594.194 795.87 594.603C796.566 595.329 796.886 596.328 796.723 597.413C796.561 598.495 795.929 599.575 795.004 600.381C794.078 601.187 792.947 601.643 791.897 601.617C790.844 601.591 789.959 601.085 789.398 600.242C789.089 599.78 788.795 599.34 788.485 598.882C783.127 590.651 776.881 583.681 768.654 578.274C768.197 577.962 767.764 577.667 767.302 577.36Z" fill="#007BA4"/>
</g>
<path d="M290.399 420.828C296.577 418.027 304.033 411.749 304.47 408.63C305.001 404.834 299.929 396.855 296.583 389.721C290.205 376.122 276.633 377.146 262.218 358.395L260.047 351.506L258.599 346.913C256.335 327.915 278.301 303.525 273.031 290.125C265.428 266.003 245.231 266.211 231.751 261.721C214.831 264.217 203.065 269.074 195.11 275.23C187.069 281.454 183.413 290.128 181.562 298.902C180.966 314.123 182.4 318.688 188.802 346.228L194.845 358.215L194.912 358.375C203.258 377.958 221.369 395.578 240.744 407.319C250.397 413.168 260.204 417.459 269.037 419.796C277.836 422.125 285.188 422.389 290.399 420.828Z" fill="#87CFE5" stroke="#0076B8" stroke-width="7"/>
<path d="M106.206 391.518L114.625 361.658L123.315 337.095L149.044 309.172L164.321 305.615L183.15 314.009L206.559 330.265L206.982 330.56L207.428 330.818L248.951 354.852L251.224 367.048L242.383 396.111L235.387 418.395L225.578 447.313L209.558 467.095L188.264 470.259L164.201 467.588L139.787 454.227L112.326 437.391L103.189 418.705L106.206 391.518Z" fill="#480062" stroke="#D46D06" stroke-width="25"/>
<path d="M127.975 405.458C129.479 403.104 130.902 402.001 132.11 401.509C133.29 401.028 134.63 400.981 136.293 401.431C139.876 402.401 143.964 405.364 148.729 409.034C153.197 412.475 156.806 416.287 158.583 419.927C160.286 423.416 160.22 426.449 157.952 429.216C155.791 431.853 153.256 433.382 150.189 433.36C146.986 433.338 142.422 431.629 136.301 425.992L136.205 425.903L136.101 425.823C131.406 422.208 128.036 419.231 126.471 416.103C125.735 414.63 125.418 413.149 125.58 411.523C125.746 409.866 126.427 407.88 127.975 405.458Z" fill="#FEC7FF" stroke="#E2A5E6" stroke-width="6"/>
<path d="M72.6936 492.368L80.4425 475.127L86.2381 464.791L103.899 454.521L116.625 451.399L131.798 458.078L151.398 471.5L177.939 490.676L180.459 497.134L180.664 524.491L175.041 544.837L167.088 566.92L155.503 582.812L142.12 587.901L118.028 582.611L97.0712 571.291L74.298 557.519L67.0734 543.008L72.6936 492.368Z" fill="#480062" stroke="#D46D06" stroke-width="25"/>
<path d="M86.4976 532.665C87.7298 530.764 88.859 529.932 89.7546 529.573C90.6239 529.226 91.6432 529.176 92.9801 529.534C95.9105 530.319 99.3028 532.733 103.366 535.817C107.133 538.676 110.134 541.811 111.602 544.763C112.996 547.568 112.909 549.892 111.148 552.01C109.386 554.128 107.376 555.29 104.976 555.269C102.434 555.247 98.6711 553.901 93.5147 549.223L93.418 549.135L93.3138 549.056C89.3214 546.026 86.5457 543.594 85.2679 541.086C84.6751 539.922 84.4265 538.769 84.552 537.51C84.6805 536.22 85.2206 534.636 86.4976 532.665Z" fill="#FEC7FF" stroke="#E2A5E6" stroke-width="6"/>
<path d="M214.541 323.854C195.907 318.885 177.273 313.917 158.639 308.948C161.846 299.344 164.528 298.198 166.199 296.13C167.021 295.321 167.795 294.64 168.54 294.025C169.178 293.511 169.786 293.057 170.387 292.625C188.091 281.985 198.924 279.997 212.961 276.228C226.553 273.134 240.474 271.721 255.299 271.433C256.981 271.418 258.725 271.425 260.484 271.529C261.463 276.056 262.442 280.583 263.42 285.109C262.481 285.724 261.379 286.454 260.297 287.226C250.455 294.389 241.029 303.682 231.559 311.655C226.821 315.677 222.098 319.579 217.653 323.469C213.541 327.122 208.187 331.916 208.041 333.758C208.152 333.837 208.427 333.816 209.201 333.176C209.939 332.155 211.683 332.197 214.541 323.854Z" fill="#D46D06"/>
</g>
<defs>
<clipPath id="clip0_452_157">
<rect width="800" height="800" fill="white"/>
</clipPath>
<clipPath id="clip1_452_157">
<rect width="163.408" height="90.6098" fill="white" transform="matrix(-0.961406 -0.275135 -0.275135 0.961406 690.652 696.959)"/>
</clipPath>
<clipPath id="clip2_452_157">
<rect width="153.352" height="107.693" fill="white" transform="translate(335.621 699.384) rotate(-21.3048)"/>
</clipPath>
<clipPath id="clip3_452_157">
<rect width="196" height="148.189" fill="white" transform="translate(371.727 366) rotate(9.75368)"/>
</clipPath>
<clipPath id="clip4_452_157">
<rect width="225.384" height="96.7482" fill="white" transform="translate(329.229 494) rotate(10.4852)"/>
</clipPath>
<clipPath id="clip5_452_157">
<rect width="90.8799" height="156.298" fill="white" transform="matrix(-0.654474 0.756085 0.756085 0.654474 697.1 485.001)"/>
</clipPath>
</defs>
</svg>
