<svg width="800" height="800" viewBox="0 0 800 800" fill="none" xmlns="http://www.w3.org/2000/svg">
<g clip-path="url(#clip0_229_30)">
<path d="M141.577 159.887C146.813 150.461 155.094 144.59 166.103 142.204C177.302 139.777 191.495 140.947 208.035 146.228C241.078 156.778 281.941 183.256 323.373 225.692C339.263 244.507 356.011 262.76 371.471 279.686C387.033 296.724 401.23 312.355 412.168 326.063C423.271 339.978 430.337 351.109 432.492 359.21C433.531 363.116 433.223 365.575 432.434 367.171C431.674 368.708 429.936 370.514 425.781 372.004L422.777 373.082L421.991 376.175C420.926 380.367 419.632 381.386 419.18 381.63C418.744 381.865 417.451 382.267 414.153 381.118C410.917 379.99 406.791 377.724 401.61 374.308C396.484 370.93 390.665 366.659 384.054 361.739C357.782 342.185 320.198 313.212 272.475 297.589L272.142 297.479L271.799 297.41L267.788 296.585C184.33 279.158 147.958 254.474 134.553 230.634C121.196 206.879 129.484 181.653 141.577 159.887Z" fill="#8BCDE5" stroke="#0E6B96" stroke-width="12"/>
<path d="M457.398 39.8868C437.149 7.54704 411.014 -6.52573 389.829 -4.42634C366.928 -2.15678 341.414 11.6015 332.979 40.8329C324.436 70.4331 332.829 117.736 383.156 187.858L383.255 187.998L383.347 188.14C413.534 235.216 419.269 282.54 422.943 315.311C423.866 323.56 424.642 330.73 425.622 336.853C426.612 343.033 427.739 347.64 429.178 350.868C430.613 354.088 431.935 355.002 432.725 355.31C433.575 355.641 435.658 355.989 440.231 354.365L443.249 353.292L446.101 354.749C450.728 357.112 453.876 357.438 456.001 357.069C458.066 356.711 460.318 355.497 462.725 352.544C467.845 346.269 471.893 334.345 474.963 317.211C481.039 283.298 482.524 234.331 486.159 183.93C490.724 120.62 477.443 71.9019 457.398 39.8868Z" fill="#87CFE5" stroke="#0E6B96" stroke-width="12"/>
<path d="M464.5 337C566.975 337 650 419.406 650 521C650 622.594 566.975 705 464.5 705C362.025 705 279 622.594 279 521C279 419.406 362.025 337 464.5 337Z" fill="#86D0E3" stroke="#0C74AB" stroke-width="7"/>
<path d="M591.502 649C557.002 688 493.002 703.5 468.002 701C361.002 707 280.502 612.895 283.002 519.5C284.568 461 270.002 599 409.002 658C483.502 695.5 591.502 649 591.502 649Z" fill="#37B4CA"/>
<path opacity="0.77" d="M383 370.014L394.172 357.096L409.69 344.74L418.379 340.247L426.448 338L430.793 341.932L434.517 346.425L437 353.164L426.448 355.973L410.931 363.836L400.379 370.014L389.828 379L384.862 373.945L383 370.014Z" fill="#004F80"/>
<path opacity="0.7" d="M480.277 328H490.319L499.734 329.814L509.777 333.442L522.33 338.884L533 344.93L531.117 354L518.564 350.977L504.128 347.953L492.83 346.14H484.043H474V337.674L475.883 331.628L480.277 328Z" fill="#014C83"/>
<path d="M475.501 576C466.054 552.569 463.906 539.432 475.501 516" stroke="#117CA9" stroke-width="7" stroke-linecap="round"/>
<g clip-path="url(#clip1_229_30)">
<path d="M423.254 392C448.097 392 469 420.679 469 456C469 475.929 465.575 491.893 458.331 502.816C451.188 513.586 439.963 520 423.254 520C398.506 520 379 492.024 379 456C379 419.976 398.506 392 423.254 392Z" fill="#FEFEFE" stroke="#0F79AB" stroke-width="6"/>
<path d="M518.176 380C531.85 380 544.49 387.931 553.821 401.119C563.149 414.303 569 432.546 569 452.5C569 474.977 565.187 493.146 557.027 505.615C549.002 517.879 536.53 525 518.176 525C504.506 525 492.294 517.234 483.386 504.164C474.468 491.08 469 472.83 469 452.5C469 432.17 474.468 413.92 483.386 400.836C492.294 387.766 504.506 380 518.176 380Z" fill="#FEFEFE" stroke="#0F79AB" stroke-width="6"/>
<path d="M470 525.055C481.046 525.055 490 515.417 490 503.527C490 491.638 481.046 482 470 482C458.954 482 450 491.638 450 503.527C450 515.417 458.954 525.055 470 525.055Z" fill="#ED6F7A"/>
<path d="M503.5 466.112C503.5 477.172 497.508 486.138 489.5 486.138C481.492 486.138 475 477.172 475 466.112C475 455.052 481.492 446.087 489.5 446.087C498.5 448.59 503.5 454.598 503.5 466.112Z" fill="#2B2A28"/>
<path d="M451.5 486.138C459.508 486.138 466 477.172 466 466.112C466 455.052 459.508 446.087 451.5 446.087C443.492 446.087 437 455.052 437 466.112C437 477.172 443.492 486.138 451.5 486.138Z" fill="#2B2A28"/>
<path d="M501 455.599C502 459.103 498.761 462.107 496 462.107C493.239 462.107 491 459.642 491 456.6C491 453.559 493.239 451.093 496 451.093C498.761 451.093 501 452.557 501 455.599Z" fill="#F9FAFB"/>
<path d="M463 455.599C464 459.103 460.761 462.107 458 462.107C455.239 462.107 453 459.642 453 456.6C453 453.559 455.239 451.093 458 451.093C460.761 451.093 463 452.557 463 455.599Z" fill="#F9FAFB"/>
</g>
<g clip-path="url(#clip2_229_30)">
<path d="M425.998 702.999C444.451 702.999 454.416 708.775 459.983 716.29C465.75 724.075 467.498 734.635 467.498 745.499C467.498 756.728 466.621 765.379 459.346 771.751C451.741 778.414 436.118 783.499 403.499 783.499C381.105 783.499 365.006 782.43 353.447 780.532C341.814 778.621 335.24 775.938 331.483 773.063C327.992 770.391 326.643 767.331 326.112 763.491C325.832 761.465 325.788 759.237 325.83 756.692C325.869 754.3 325.999 751.303 325.999 748.499C325.999 745.009 328.708 740.247 335.264 734.68C341.592 729.306 350.605 723.957 361.017 719.205C381.89 709.676 407.366 702.999 425.998 702.999Z" fill="#87CFE5" stroke="#0178B2" stroke-width="9"/>
<path d="M462.613 732.95C473.613 775.95 440.159 780.999 401.498 780.999C362.839 780.999 340.998 777.998 335.499 770.999C322.499 764.998 376.113 769.95 404.113 766.95C489.113 766.95 442.999 689.998 462.613 732.95Z" fill="#31A7BA"/>
</g>
<g clip-path="url(#clip3_229_30)">
<path d="M518.002 702.999C499.549 702.999 489.584 708.775 484.017 716.29C478.25 724.075 476.502 734.635 476.502 745.499C476.502 756.728 477.379 765.379 484.654 771.751C492.259 778.414 507.882 783.499 540.501 783.499C562.895 783.499 578.994 782.43 590.553 780.532C602.186 778.621 608.76 775.938 612.517 773.063C616.008 770.391 617.357 767.331 617.888 763.491C618.168 761.465 618.212 759.237 618.17 756.692C618.131 754.3 618.001 751.303 618.001 748.499C618.001 745.009 615.292 740.247 608.736 734.68C602.408 729.306 593.395 723.957 582.983 719.205C562.11 709.676 536.634 702.999 518.002 702.999Z" fill="#87CFE5" stroke="#0178B2" stroke-width="9"/>
<path d="M481.387 732.95C470.387 775.95 503.841 780.999 542.502 780.999C581.161 780.999 603.002 777.998 608.501 770.999C621.501 764.998 567.887 769.95 539.887 766.95C454.887 766.95 501.001 689.998 481.387 732.95Z" fill="#31A7BA"/>
</g>
<g clip-path="url(#clip4_229_30)">
<path d="M371.218 536.979C370.683 536.391 369.936 536.039 369.141 536.002C368.346 535.965 367.569 536.245 366.981 536.78C366.392 537.316 366.041 538.063 366.003 538.858C365.966 539.653 366.246 540.43 366.782 541.018C369.405 543.901 372.198 546.63 375.13 549.196C429.771 594.971 514.849 588.305 567.959 543.892C570.945 541.41 573.79 538.859 576.586 536.155C577.158 535.601 577.486 534.844 577.5 534.048C577.513 533.253 577.209 532.484 576.656 531.913C576.103 531.341 575.345 531.012 574.55 530.999C573.754 530.986 572.986 531.289 572.414 531.842C569.728 534.441 566.994 536.892 564.125 539.277C513.242 582.059 430.618 588.126 379.081 544.681C376.315 542.26 373.685 539.689 371.218 536.979Z" fill="#076FA2"/>
<path d="M436.668 578.961L436.736 578.977L436.806 578.986L448.306 580.486L448.365 580.494L448.425 580.497L458.425 580.997L458.463 580.999H466.5V600.915L466.08 604.478L462.175 607.734L458.582 609.53L453.429 609.999H448.701L443.614 608.611L438.471 605.337L433.285 599.68L429.918 591.504L427.5 583.281V576.877L436.668 578.961Z" fill="#FEFEFE" stroke="#0578A5" stroke-width="3"/>
<path d="M495.38 578.721L495.312 578.737L495.241 578.747L484.837 580.102L484.777 580.11L484.718 580.113L475.67 580.565L475.633 580.567H468.5V598.42L468.873 601.578L472.349 604.472L475.561 606.078L480.19 606.499H484.441L489.007 605.253L493.626 602.317L498.287 597.235L501.319 589.876L503.5 582.465V576.876L495.38 578.721Z" fill="#FEFEFE" stroke="#0875A4" stroke-width="3"/>
</g>
<path d="M293.396 532C298.615 532.595 305.587 535.336 306.637 537.416C307.914 539.947 306.024 546.629 305.212 552.341C303.666 563.231 293.396 565.5 287.11 581.751V587.034V590.556C289.862 604.307 311.777 616.494 311.003 627C311.003 645.5 296.028 649.795 287.11 655.892C274.024 657.87 264.196 657.069 256.883 654.523C249.491 651.949 244.768 646.702 241.357 640.988C237.371 630.5 237.367 627 235.684 606.38L237.358 596.689L237.371 596.562C238.977 581.066 248.259 564.792 259.844 552.341C265.615 546.138 271.864 540.989 277.848 537.416C283.809 533.857 289.181 532.056 293.396 532Z" fill="#87CFE5" stroke="#0076B8" stroke-width="7"/>
<g clip-path="url(#clip5_229_30)">
<path d="M625.121 538.427C620.505 542.251 619.523 545.152 619.812 547.785C620.164 550.988 622.463 554.746 626.787 559.67C635.028 569.057 649.865 581.698 661.482 599.478L661.65 599.736L661.765 600.023C667.677 614.814 673.017 627.96 680.283 637.465C687.253 646.584 695.773 652.056 708.08 652.285C721.813 645.997 730.705 639.1 736.112 632.114C741.577 625.052 743.686 617.638 743.397 610.076C742.804 594.65 732.206 578.567 718.947 565.046L718.845 564.943L718.755 564.831C707.595 551.102 688.618 541.424 669.815 536.82C660.447 534.526 651.278 533.531 643.341 533.87C635.436 534.208 629.184 535.849 625.121 538.427Z" fill="#87CFE5" stroke="#0076B8" stroke-width="7"/>
<path d="M700.32 615.663C700.109 615.46 700 615.167 700.009 614.855C700.019 614.544 700.146 614.24 700.37 614.003C700.595 613.764 700.901 613.61 701.23 613.563C701.558 613.517 701.882 613.583 702.122 613.755C702.637 614.126 703.135 614.489 703.643 614.868C712.958 621.257 720.009 631.454 723.151 642.491C723.347 643.109 723.53 643.698 723.716 644.321C721.214 645.085 718.711 645.849 716.209 646.613C716.116 646.002 716.024 645.423 715.921 644.818C714.343 634.02 709.721 624.503 701.631 616.942C701.195 616.509 700.767 616.091 700.32 615.663Z" fill="#0074AB"/>
<path d="M722.361 599.986C722.169 599.76 722.089 599.448 722.127 599.129C722.165 598.809 722.318 598.508 722.563 598.282C722.808 598.056 723.129 597.921 723.465 597.896C723.801 597.871 724.124 597.958 724.354 598.149C724.769 598.497 725.162 598.827 725.574 599.18C732.979 605.207 738.972 613.42 743.257 621.891C743.509 622.366 743.75 622.819 743.999 623.296C744.447 624.144 744.481 625.141 744.051 626.09C743.624 627.037 742.767 627.858 741.713 628.35C740.659 628.843 739.507 628.961 738.554 628.66C737.599 628.359 736.921 627.662 736.627 626.743C736.464 626.239 736.309 625.759 736.145 625.258C733.379 616.318 729.476 608.295 723.36 601.179C723.023 600.773 722.704 600.389 722.361 599.986Z" fill="#007BA4"/>
</g>
</g>
<defs>
<clipPath id="clip0_229_30">
<rect width="800" height="800" fill="white"/>
</clipPath>
<clipPath id="clip1_229_30">
<rect width="196" height="148.189" fill="white" transform="translate(376 378)"/>
</clipPath>
<clipPath id="clip2_229_30">
<rect width="151" height="90" fill="white" transform="translate(321 697.999)"/>
</clipPath>
<clipPath id="clip3_229_30">
<rect width="151" height="90" fill="white" transform="matrix(-1 0 0 1 623 697.999)"/>
</clipPath>
<clipPath id="clip4_229_30">
<rect width="212" height="81" fill="white" transform="translate(366 530.999)"/>
</clipPath>
<clipPath id="clip5_229_30">
<rect width="86.1527" height="149" fill="white" transform="matrix(-0.83716 0.546959 0.546959 0.83716 682.125 497)"/>
</clipPath>
</defs>
</svg>
