<svg width="800" height="800" viewBox="0 0 800 800" fill="none" xmlns="http://www.w3.org/2000/svg">
<g clip-path="url(#clip0_452_40)">
<g clip-path="url(#clip1_452_40)">
<path d="M532.135 685.296C515.099 678.204 503.679 679.707 495.652 684.504C487.335 689.475 481.663 698.551 477.487 708.581C473.171 718.948 470.656 727.271 474.922 735.95C479.383 745.024 491.851 755.723 521.965 768.261C542.639 776.868 557.911 782.07 569.312 784.76C580.786 787.467 587.887 787.517 592.46 786.307C596.71 785.182 599.131 782.876 601.097 779.534C602.134 777.771 603.031 775.732 603.971 773.366C604.854 771.142 605.886 768.326 606.964 765.737C608.306 762.515 607.635 757.078 603.723 749.419C599.945 742.025 593.681 733.623 585.896 725.234C570.288 708.414 549.335 692.458 532.135 685.296Z" fill="#87CFE5" stroke="#0178B2" stroke-width="9"/>
<path d="M486.823 698.874C460.14 734.344 489.084 751.862 524.774 766.722C560.465 781.581 581.78 787.206 589.548 782.858C603.856 782.315 552.457 766.279 527.761 752.748C449.29 720.077 521.439 666.761 486.823 698.874Z" fill="#31A7BA"/>
</g>
<g clip-path="url(#clip2_452_40)">
<path d="M375.403 679.217C392.858 672.996 404.224 675.078 412.012 680.28C420.081 685.669 425.279 695.027 428.926 705.261C432.696 715.838 434.77 724.283 430.028 732.738C425.07 741.578 411.999 751.634 381.143 762.63C359.959 770.179 344.372 774.6 332.801 776.708C321.155 778.83 314.035 778.518 309.517 777.077C305.317 775.737 303.014 773.309 301.223 769.87C300.278 768.056 299.489 765.973 298.674 763.561C297.908 761.295 297.025 758.428 296.083 755.786C294.912 752.499 295.876 747.1 300.208 739.647C304.391 732.451 311.121 724.374 319.374 716.388C335.921 700.375 357.778 685.497 375.403 679.217Z" fill="#87CFE5" stroke="#0178B2" stroke-width="9"/>
<path d="M420.094 695.088C444.934 731.884 414.984 747.917 378.413 760.95C341.843 773.982 320.177 778.518 312.625 773.779C298.313 772.509 350.691 759.1 376.17 746.835C456.575 718.181 387.122 661.24 420.094 695.088Z" fill="#31A7BA"/>
</g>
<path d="M191.482 105.437C199.399 98.1145 209.098 95.1201 220.302 96.288C231.699 97.4761 244.819 103.015 258.885 113.193C286.988 133.525 317.551 171.429 343.677 224.673C352.904 247.506 363.122 270.073 372.529 290.978C381.999 312.02 390.611 331.3 396.727 347.737C402.934 364.421 406.175 377.201 405.695 385.569C405.464 389.605 404.405 391.844 403.156 393.115C401.955 394.338 399.741 395.512 395.328 395.631L392.138 395.718L390.426 398.411C388.106 402.062 386.559 402.627 386.053 402.718C385.566 402.805 384.212 402.783 381.438 400.663C378.715 398.582 375.501 395.141 371.644 390.279C367.829 385.471 363.632 379.597 358.886 372.861C340.025 346.086 313.356 306.834 272.889 277.103L272.607 276.895L272.302 276.722L268.749 274.687C194.893 232.093 168.037 197.294 162.738 170.462C157.459 143.725 173.204 122.344 191.482 105.437Z" fill="#8BCDE5" stroke="#0E6B96" stroke-width="12"/>
<path d="M557.427 73.3079C551.959 36.6468 534.747 15.0527 515.837 10.1064C495.394 4.75926 468.496 9.24288 450.542 33.6734C432.362 58.412 422.183 105.124 439.535 186.706L439.568 186.869L439.595 187.031C448.162 240.628 435.7 286.495 426.815 318.159C424.578 326.129 422.61 333.048 421.201 339.059C419.78 345.128 419.054 349.778 419.101 353.248C419.148 356.709 419.945 357.989 420.508 358.533C421.115 359.117 422.77 360.119 427.282 360.098L430.26 360.083L432.167 362.367C435.262 366.07 437.838 367.398 439.792 367.748C441.693 368.087 444.066 367.691 447.212 365.73C453.899 361.562 461.742 351.795 470.661 336.864C488.313 307.313 507.561 262.27 529.175 216.595C556.326 159.22 562.838 109.6 557.427 73.3079Z" fill="#87CFE5" stroke="#0E6B96" stroke-width="12"/>
<path d="M466.5 332C568.975 332 652 414.405 652 516C652 617.594 568.975 700 466.5 700C364.025 700 281 617.594 281 516C281 414.405 364.025 332 466.5 332Z" fill="#86D0E3" stroke="#0C74AB" stroke-width="7"/>
<path d="M593.502 644C559.002 683 495.002 698.5 470.002 696C363.002 702 282.502 607.895 285.002 514.5C286.568 456 272.002 594 411.002 653C485.502 690.5 593.502 644 593.502 644Z" fill="#37B4CA"/>
<path opacity="0.77" d="M363.242 402.23L368.625 386.022L378.238 368.671L384.55 361.196L391.146 356.035L396.664 358.006L401.823 360.734L406.695 366.012L398.019 372.642L386.688 385.841L379.3 395.584L372.987 407.922L366.466 405.15L363.242 402.23Z" fill="#004F80"/>
<path opacity="0.7" d="M428.1 345.729L436.261 339.875L444.969 335.862L455.244 332.957L468.616 330.063L480.811 328.758L484.567 337.225L472.604 342.085L459.111 348.042L448.873 353.152L441.733 358.274L433.572 364.127L428.638 357.248L426.645 351.237L428.1 345.729Z" fill="#014C83"/>
<path d="M512.213 567.659C495.582 548.641 489.232 536.942 492.472 511" stroke="#117CA9" stroke-width="7" stroke-linecap="round"/>
<g clip-path="url(#clip3_452_40)">
<path d="M403.033 418.406C426.017 408.978 456.24 427.577 469.646 460.256C477.21 478.694 480.1 494.763 477.543 507.618C475.022 520.293 467.072 530.488 451.613 536.829C428.716 546.222 400.052 527.742 386.38 494.414C372.708 461.085 380.136 427.799 403.033 418.406Z" fill="#FEFEFE" stroke="#0F79AB" stroke-width="6"/>
<path d="M486.297 371.278C498.948 366.089 513.652 368.629 527.291 377.289C540.924 385.946 553.262 400.603 560.835 419.064C569.365 439.859 572.733 458.116 569.916 472.749C567.147 487.142 558.31 498.463 541.33 505.429C528.682 510.617 514.437 508.067 501.235 499.356C488.019 490.636 476.033 475.826 468.317 457.018C460.601 438.209 458.733 419.248 462.018 403.759C465.299 388.287 473.65 376.467 486.297 371.278Z" fill="#FEFEFE" stroke="#0F79AB" stroke-width="6"/>
<path d="M496.778 523.764C506.997 519.572 511.623 507.257 507.111 496.257C502.599 485.257 490.656 479.739 480.437 483.931C470.218 488.123 465.592 500.438 470.104 511.438C474.616 522.438 486.559 527.956 496.778 523.764Z" fill="#ED6F7A"/>
<path d="M505.402 456.517C509.599 466.75 507.458 477.319 500.049 480.358C492.641 483.397 483.231 477.566 479.034 467.334C474.836 457.102 477.44 446.343 484.849 443.304C494.125 442.204 501.031 445.864 505.402 456.517Z" fill="#2B2A28"/>
<path d="M464.893 494.78C472.302 491.741 474.905 480.982 470.708 470.75C466.51 460.518 457.101 454.687 449.692 457.726C442.283 460.765 439.68 471.524 443.878 481.756C448.075 491.989 457.484 497.82 464.893 494.78Z" fill="#2B2A28"/>
<path d="M499.099 447.74C501.354 450.602 499.497 454.611 496.943 455.659C494.388 456.706 491.381 455.275 490.227 452.461C489.072 449.647 490.208 446.516 492.763 445.469C495.317 444.421 497.944 444.926 499.099 447.74Z" fill="#F9FAFB"/>
<path d="M463.942 462.162C466.198 465.025 464.341 469.033 461.787 470.081C459.232 471.129 456.225 469.697 455.071 466.884C453.916 464.07 455.052 460.939 457.606 459.891C460.161 458.843 462.788 459.348 463.942 462.162Z" fill="#F9FAFB"/>
</g>
<path d="M315.664 588C319.612 588.41 324.887 590.295 325.681 591.726C326.647 593.468 325.217 598.065 324.603 601.995C323.433 609.487 315.664 611.048 310.908 622.228V625.863V628.287C312.99 637.748 329.57 646.132 328.985 653.36C328.985 666.088 317.655 669.043 310.908 673.237C301.007 674.599 293.572 674.048 288.039 672.296C282.446 670.525 278.873 666.915 276.292 662.983C273.276 655.768 273.274 653.36 272 639.174L273.267 632.506L273.276 632.419C274.492 621.758 281.514 610.561 290.279 601.995C294.646 597.727 299.373 594.184 303.901 591.726C308.41 589.278 312.474 588.039 315.664 588Z" fill="#87CFE5" stroke="#0076B8" stroke-width="7"/>
<g clip-path="url(#clip4_452_40)">
<path d="M405.216 571.449C404.486 571.133 403.66 571.12 402.92 571.412C402.18 571.705 401.587 572.28 401.27 573.01C400.954 573.74 400.941 574.566 401.234 575.305C401.526 576.045 402.101 576.639 402.831 576.955C406.408 578.504 410.075 579.844 413.803 580.978C482.43 600.247 557.249 559.199 587.408 496.881C589.11 493.391 590.655 489.896 592.093 486.282C592.387 485.542 592.374 484.717 592.06 483.986C591.745 483.255 591.152 482.68 590.413 482.386C589.674 482.092 588.847 482.104 588.117 482.418C587.386 482.734 586.811 483.326 586.517 484.065C585.136 487.538 583.651 490.896 582.016 494.25C553.216 554.166 480.388 593.659 415.549 575.238C412.032 574.168 408.578 572.906 405.216 571.449Z" fill="#076FA2"/>
<path d="M482.136 582.818L482.205 582.804L482.272 582.783L493.372 579.424L493.429 579.406L493.485 579.385L502.807 575.73L502.842 575.716L510.169 572.412L518.355 590.568L519.437 593.989L517.215 598.563L514.678 601.677L510.173 604.222L505.864 606.165L500.656 606.991L494.621 606.122L487.569 603.096L481.139 597.027L475.554 590.524L472.922 584.686L482.136 582.818Z" fill="#FEFEFE" stroke="#0578A5" stroke-width="3"/>
<path d="M535.559 558.465L535.504 558.508L535.443 558.546L526.516 564.058L526.464 564.09L526.412 564.117L518.349 568.248L518.316 568.265L511.814 571.197L519.152 587.472L520.79 590.197L525.149 591.407L528.737 591.55L533.13 590.031L537.005 588.284L540.656 585.272L543.659 580.697L545.819 574.148L545.559 566.193L544.501 558.541L542.203 553.446L535.559 558.465Z" fill="#FEFEFE" stroke="#0875A4" stroke-width="3"/>
</g>
<g clip-path="url(#clip5_452_40)">
<path d="M636.121 427.427C631.505 431.251 630.523 434.152 630.812 436.785C631.164 439.988 633.463 443.746 637.787 448.67C646.028 458.057 660.865 470.698 672.482 488.478L672.65 488.736L672.765 489.023C678.677 503.814 684.017 516.96 691.283 526.465C698.253 535.584 706.773 541.056 719.08 541.285C732.813 534.997 741.705 528.1 747.112 521.114C752.577 514.052 754.686 506.638 754.397 499.076C753.804 483.65 743.206 467.567 729.947 454.046L729.845 453.943L729.755 453.831C718.595 440.102 699.618 430.424 680.815 425.82C671.447 423.526 662.278 422.531 654.341 422.87C646.436 423.208 640.184 424.849 636.121 427.427Z" fill="#87CFE5" stroke="#0076B8" stroke-width="7"/>
<path d="M711.32 504.663C711.109 504.46 711 504.167 711.009 503.855C711.019 503.544 711.146 503.24 711.37 503.003C711.595 502.764 711.901 502.61 712.23 502.563C712.558 502.517 712.882 502.583 713.122 502.755C713.637 503.126 714.135 503.489 714.643 503.868C723.958 510.257 731.009 520.454 734.151 531.491C734.347 532.109 734.53 532.698 734.716 533.321C732.214 534.085 729.711 534.849 727.209 535.613C727.116 535.002 727.024 534.423 726.921 533.818C725.343 523.02 720.721 513.503 712.631 505.942C712.195 505.509 711.767 505.091 711.32 504.663Z" fill="#0074AB"/>
<path d="M733.361 488.986C733.169 488.76 733.089 488.448 733.127 488.129C733.165 487.809 733.318 487.508 733.563 487.282C733.808 487.056 734.129 486.921 734.465 486.896C734.801 486.871 735.124 486.958 735.354 487.149C735.769 487.497 736.162 487.827 736.574 488.18C743.979 494.207 749.972 502.42 754.257 510.891C754.509 511.366 754.75 511.819 754.999 512.296C755.447 513.144 755.481 514.141 755.051 515.09C754.624 516.037 753.767 516.858 752.713 517.35C751.659 517.843 750.507 517.961 749.554 517.66C748.599 517.359 747.921 516.662 747.627 515.743C747.464 515.239 747.309 514.759 747.145 514.258C744.379 505.318 740.476 497.295 734.36 490.179C734.023 489.773 733.704 489.389 733.361 488.986Z" fill="#007BA4"/>
</g>
</g>
<defs>
<clipPath id="clip0_452_40">
<rect width="800" height="800" fill="white"/>
</clipPath>
<clipPath id="clip1_452_40">
<rect width="151" height="90" fill="white" transform="matrix(-0.923184 -0.384359 -0.384359 0.923184 630.992 721.038)"/>
</clipPath>
<clipPath id="clip2_452_40">
<rect width="151.636" height="90" fill="white" transform="translate(274.402 709.902) rotate(-19.6144)"/>
</clipPath>
<clipPath id="clip3_452_40">
<rect width="196" height="148.189" fill="white" transform="translate(354 423.388) rotate(-22.3048)"/>
</clipPath>
<clipPath id="clip4_452_40">
<rect width="212" height="81" fill="white" transform="translate(398 568.142) rotate(-24.2706)"/>
</clipPath>
<clipPath id="clip5_452_40">
<rect width="86.1527" height="149" fill="white" transform="matrix(-0.83716 0.546959 0.546959 0.83716 693.125 386)"/>
</clipPath>
</defs>
</svg>
