<svg width="800" height="800" viewBox="0 0 800 800" fill="none" xmlns="http://www.w3.org/2000/svg">
<g clip-path="url(#clip0_452_217)">
<g clip-path="url(#clip1_452_217)">
<path d="M515.277 683.918C496.537 677.02 484.408 678.753 476.141 683.772C467.577 688.971 462.129 698.295 458.351 708.559C454.446 719.169 452.328 727.67 457.5 736.41C462.906 745.548 477.004 756.192 510.131 768.386C532.874 776.757 549.594 781.765 561.993 784.293C574.472 786.836 582.082 786.758 586.896 785.446C591.371 784.227 593.805 781.841 595.68 778.41C596.669 776.601 597.488 774.513 598.331 772.092C599.123 769.817 600.033 766.938 601.009 764.288C602.222 760.991 601.127 755.479 596.406 747.769C591.847 740.326 584.554 731.903 575.634 723.521C557.749 706.715 534.199 690.883 515.277 683.918Z" fill="#87CFE5" stroke="#0178B2" stroke-width="9"/>
<path d="M467.676 698.53C441.55 735.045 473.769 752.32 513.031 766.771C552.292 781.223 575.515 786.553 583.535 781.995C598.824 781.186 542.654 765.822 515.262 752.521C428.939 720.747 502.532 665.281 467.676 698.53Z" fill="#31A7BA"/>
</g>
<g clip-path="url(#clip2_452_217)">
<path d="M371.518 680.131C390.766 672.625 403.469 674.494 412.28 679.933C421.408 685.569 427.453 695.683 431.796 706.821C436.286 718.333 438.83 727.558 433.789 737.051C428.52 746.974 414.258 758.542 380.234 771.811C356.876 780.92 339.657 786.373 326.841 789.129C313.943 791.902 306.013 791.825 300.946 790.406C296.236 789.087 293.606 786.499 291.517 782.777C290.415 780.814 289.478 778.549 288.504 775.922C287.589 773.454 286.526 770.329 285.405 767.454C284.01 763.876 284.932 757.892 289.544 749.519C293.996 741.435 301.259 732.286 310.218 723.178C328.181 704.919 352.084 687.71 371.518 680.131Z" fill="#87CFE5" stroke="#0178B2" stroke-width="9"/>
<path d="M421.685 695.944C450.35 735.553 417.474 754.336 377.15 770.062C336.825 785.787 312.846 791.595 304.31 786.656C288.352 785.793 346.254 769.061 374.26 754.596C462.919 720.021 384.054 659.889 421.685 695.944Z" fill="#31A7BA"/>
</g>
<path d="M361.786 19.0076C371.311 13.9527 381.454 13.5377 391.986 17.5312C402.701 21.5938 413.969 30.3033 424.966 43.7393C446.936 70.5807 466.792 115.039 478.436 173.193C481.519 197.626 485.627 222.056 489.377 244.671C493.153 267.435 496.549 288.276 498.259 305.73C499.994 323.446 499.86 336.63 497.256 344.598C496.001 348.44 494.404 350.335 492.873 351.243C491.399 352.119 488.958 352.688 484.661 351.675L481.555 350.943L479.212 353.109C476.035 356.046 474.395 356.196 473.883 356.155C473.389 356.114 472.086 355.747 469.946 352.988C467.846 350.28 465.619 346.132 463.133 340.445C460.674 334.821 458.118 328.07 455.252 320.344C443.864 289.637 428.116 244.871 396.596 205.781L396.377 205.508L396.126 205.263L393.212 202.388C332.7 142.326 315.634 101.817 317.372 74.5226C319.104 47.3243 339.792 30.6792 361.786 19.0076Z" fill="#8BCDE5" stroke="#0E6B96" stroke-width="12"/>
<path d="M461.502 321.999C563.977 321.999 647.002 404.405 647.002 505.999C647.002 607.593 563.977 689.999 461.502 689.999C359.027 689.999 276.002 607.593 276.002 505.999C276.002 404.405 359.027 321.999 461.502 321.999Z" fill="#86D0E3" stroke="#0C74AB" stroke-width="7"/>
<path d="M588.502 633.999C554.002 672.999 490.002 688.499 465.002 685.999C358.002 691.999 277.502 597.894 280.002 504.499C281.568 445.999 267.002 583.999 406.002 642.999C480.502 680.499 588.502 633.999 588.502 633.999Z" fill="#37B4CA"/>
<path opacity="0.77" d="M386.612 357.385L398.596 345.216L414.878 333.888L423.84 329.965L432.037 328.244L436.119 332.448L439.545 337.172L441.588 344.058L430.877 346.179L414.884 353.024L403.955 358.508L392.845 366.794L388.217 361.429L386.612 357.385Z" fill="#004F80"/>
<path opacity="0.7" d="M484.063 331.93L493.994 333.418L503.037 336.607L512.431 341.683L524.039 348.925L533.695 356.486L530.489 365.177L518.522 360.327L504.694 355.198L493.789 351.729L485.099 350.427L475.167 348.939L476.422 340.567L479.18 334.867L484.063 331.93Z" fill="#014C83"/>
<path d="M403.291 539.145C394.31 515.531 392.424 502.354 404.481 479.157" stroke="#117CA9" stroke-width="7" stroke-linecap="round"/>
<g clip-path="url(#clip3_452_217)">
<path d="M380.769 361.059C405.252 365.268 420.995 397.073 415.011 431.884C411.635 451.525 405.555 466.678 396.565 476.216C387.7 485.62 375.551 490.04 359.084 487.209C334.693 483.016 320.209 452.14 326.312 416.637C332.415 381.134 356.378 356.867 380.769 361.059Z" fill="#FEFEFE" stroke="#0F79AB" stroke-width="6"/>
<path d="M476.352 365.314C489.828 367.63 500.942 377.588 507.904 392.166C514.864 406.74 517.539 425.711 514.159 445.376C510.351 467.528 503.515 484.788 493.361 495.695C483.374 506.422 469.876 511.327 451.787 508.218C438.315 505.902 427.595 496.179 421.03 481.789C414.457 467.384 412.16 448.471 415.604 428.435C419.048 408.399 427.529 391.338 438.535 379.955C449.528 368.583 462.879 362.998 476.352 365.314Z" fill="#FEFEFE" stroke="#0F79AB" stroke-width="6"/>
<path d="M398.995 502.009C409.881 503.881 420.339 495.899 422.353 484.181C424.367 472.464 417.175 461.448 406.289 459.577C395.403 457.706 384.945 465.688 382.931 477.405C380.917 489.122 388.109 500.138 398.995 502.009Z" fill="#ED6F7A"/>
<path d="M447.301 447.695C445.427 458.595 438.003 466.416 430.111 465.059C422.218 463.703 417.339 453.767 419.213 442.867C421.087 431.967 429.004 424.231 436.896 425.587C445.342 429.579 449.252 436.347 447.301 447.695Z" fill="#2B2A28"/>
<path d="M392.66 458.622C400.552 459.978 408.469 452.242 410.343 441.342C412.216 430.442 407.337 420.506 399.445 419.15C391.552 417.793 383.635 425.529 381.762 436.429C379.888 447.329 384.767 457.265 392.66 458.622Z" fill="#2B2A28"/>
<path d="M446.618 436.91C447.009 440.533 443.308 442.945 440.587 442.477C437.866 442.009 436.077 439.2 436.592 436.203C437.108 433.205 439.732 431.155 442.453 431.622C445.174 432.09 447.133 433.913 446.618 436.91Z" fill="#F9FAFB"/>
<path d="M409.166 430.472C409.558 434.096 405.858 436.507 403.136 436.04C400.415 435.572 398.626 432.763 399.141 429.765C399.657 426.768 402.28 424.717 405.002 425.185C407.723 425.653 409.682 427.475 409.166 430.472Z" fill="#F9FAFB"/>
</g>
<g clip-path="url(#clip4_452_217)">
<path d="M656.028 554.331C650.129 556.607 648.172 559.168 647.576 561.885C646.851 565.192 647.886 569.695 650.552 576.032C655.635 588.111 666.215 605.618 671.849 627.173L671.931 627.485L671.949 627.809C672.887 644.495 673.805 659.354 677.872 671.227C681.774 682.618 688.45 690.892 700.674 695.203C716.513 693.499 727.72 689.583 735.471 684.422C743.307 679.205 747.908 672.524 750.16 664.899C754.753 649.346 749.566 629.819 740.859 611.96L740.792 611.823L740.739 611.681C734.199 594.311 718.485 578.38 701.239 567.558C692.647 562.167 683.817 558.135 675.77 555.839C667.755 553.553 660.955 553.113 656.028 554.331Z" fill="#87CFE5" stroke="#0076B8" stroke-width="7"/>
<path d="M705.228 656.17C705.085 655.898 705.075 655.57 705.189 655.263C705.304 654.957 705.533 654.696 705.837 654.534C706.141 654.371 706.499 654.319 706.843 654.382C707.187 654.445 707.489 654.618 707.671 654.868C708.061 655.409 708.437 655.935 708.817 656.481C715.98 665.932 719.6 678.423 719.031 690.453C719.019 691.133 719.004 691.78 718.98 692.462C716.222 692.393 713.464 692.323 710.706 692.254C710.819 691.614 710.922 691.008 711.022 690.371C713.075 679.098 711.654 668.09 706.109 657.879C705.818 657.303 705.531 656.745 705.228 656.17Z" fill="#0074AB"/>
<path d="M732.529 647.876C732.414 647.587 732.438 647.25 732.583 646.945C732.729 646.64 732.983 646.39 733.304 646.247C733.625 646.103 733.991 646.075 734.335 646.161C734.679 646.248 734.973 646.442 735.138 646.708C735.437 647.193 735.719 647.652 736.011 648.14C741.387 656.597 744.616 666.761 746.052 676.615C746.144 677.172 746.232 677.703 746.321 678.26C746.484 679.253 746.183 680.258 745.434 681.059C744.689 681.86 743.556 682.393 742.337 682.534C741.118 682.675 739.927 682.41 739.076 681.794C738.223 681.177 737.78 680.259 737.794 679.247C737.801 678.691 737.808 678.161 737.811 677.608C738.052 667.79 736.848 658.509 733.127 649.395C732.927 648.879 732.737 648.391 732.529 647.876Z" fill="#007BA4"/>
</g>
<path d="M579.414 56.0138C565.574 21.628 543.813 4.62684 524.271 4.21205C503.145 3.76366 478.027 14.3772 466.244 42.3121C454.312 70.5994 455.271 118.398 491.113 193.712L491.183 193.861L491.247 194.013C512.039 244.151 510.581 291.658 509.3 324.52C508.977 332.791 508.671 339.978 508.699 346.153C508.727 352.385 509.102 357.077 509.955 360.441C510.805 363.796 511.877 364.856 512.551 365.254C513.277 365.681 515.12 366.271 519.504 365.201L522.397 364.495L524.783 366.273C528.654 369.155 531.467 369.848 533.449 369.733C535.377 369.622 537.593 368.685 540.197 366.046C545.732 360.438 551.09 349.115 556.293 332.52C566.592 299.674 574.842 251.391 585.246 201.943C598.315 139.828 593.114 90.0542 579.414 56.0138Z" fill="#87CFE5" stroke="#0E6B96" stroke-width="12"/>
<path d="M291.086 495.288C297.688 492.354 305.71 485.898 306.232 482.751C306.868 478.922 301.642 470.992 298.23 463.879C291.726 450.319 294.425 452.86 279.5 434.269L275.148 421.534L272.5 408.438C270.46 389.37 280.481 377.514 275.148 364.135C267.546 340.013 246.132 340.604 231.927 336.342C213.945 339.173 201.381 344.281 192.832 350.625C184.19 357.038 180.15 365.833 178.023 374.694C177.103 390.017 178.537 394.583 184.802 422.165L190.981 434.11L191.05 434.269C199.525 453.811 218.391 471.194 238.706 482.638C248.828 488.34 259.142 492.47 268.462 494.655C277.744 496.83 285.532 496.958 291.086 495.288Z" fill="#87CFE5" stroke="#0076B8" stroke-width="7"/>
<path d="M479.496 509.614L479.4 509.939L479.4 510.278C479.399 521.689 472.601 544.505 456.938 563.015C441.431 581.338 417.345 595.327 382.61 589.766C353.359 578.19 340.716 560.088 334.658 544.401C331.601 536.487 330.2 529.132 329.229 523.381C328.904 521.458 328.617 519.657 328.33 518.085C331.609 520.211 335.574 522.628 340.074 525.081C358.639 535.202 386.876 546.288 413.579 539.57C438.667 539.478 457.686 527.238 469.536 517.814C472.512 515.446 475.051 513.244 477.108 511.463C478.047 510.649 478.864 509.945 479.569 509.353C479.545 509.438 479.522 509.525 479.496 509.614Z" fill="#D20223" stroke="#076FA2" stroke-width="6"/>
<path d="M326.972 510.631C326.565 510.175 325.996 509.903 325.391 509.874C324.786 509.845 324.194 510.062 323.746 510.477C323.299 510.892 323.031 511.47 323.003 512.086C322.974 512.701 323.187 513.303 323.595 513.758C325.592 515.99 327.718 518.104 329.95 520.091C371.545 555.535 436.308 550.374 476.737 515.983C479.01 514.062 481.176 512.086 483.304 509.993C483.739 509.564 483.989 508.977 484 508.361C484.01 507.745 483.778 507.151 483.357 506.708C482.936 506.265 482.359 506.011 481.754 506C481.148 505.99 480.564 506.225 480.128 506.653C478.083 508.665 476.002 510.563 473.818 512.41C435.085 545.538 372.189 550.235 332.958 516.595C330.852 514.72 328.85 512.729 326.972 510.631Z" fill="#076FA2"/>
<path d="M376.038 542.365L376.09 542.377L376.142 542.383L384.896 543.545L384.942 543.551L384.987 543.553L392.599 543.94L392.628 543.942L398.746 543.942L398.746 559.363L398.427 562.123L395.454 564.644L392.719 566.034L388.796 566.397L385.198 566.397L381.325 565.323L377.41 562.788L373.462 558.408L370.899 552.077L369.059 545.709L369.059 540.751L376.038 542.365Z" fill="#FEFEFE" stroke="#0578A5" stroke-width="3"/>
<path d="M420.725 542.179L420.674 542.191L420.62 542.198L412.7 543.248L412.654 543.254L412.609 543.256L405.722 543.606L405.694 543.608L400.264 543.608L400.264 557.432L400.548 559.877L403.194 562.118L405.639 563.361L409.162 563.687L412.398 563.687L415.874 562.723L419.39 560.449L422.938 556.514L425.246 550.816L426.907 545.078L426.907 540.75L420.725 542.179Z" fill="#FEFEFE" stroke="#0875A4" stroke-width="3"/>
<path d="M451.651 565.679C445.942 572.648 429.195 582.715 415.112 586.973C400.649 588.135 401.791 591.412 401.791 585.425C410.925 572.648 420.821 562.582 454.315 561.034C457.741 561.033 455.457 561.034 451.651 565.679Z" fill="#FF1863"/>
<path d="M460.381 238.089L499.265 244.518L531.962 252.163L571.867 281.64L579.201 302.475L570.912 328.835L553.726 360.947L553.484 361.399L553.281 361.869L528.46 419.06L511.371 424.324L472.923 417.147L444.104 411.498L405.947 403.106L377.38 384.708L369.969 356.59L369.914 324.732L383.471 291.336L401.105 253.346L424.775 238.15L460.381 238.089Z" fill="#480062" stroke="#D46D06" stroke-width="25"/>
<path d="M446.093 270.166C449.345 271.775 451.071 273.511 451.959 275.152C452.833 276.768 453.087 278.647 452.738 280.941C452.001 285.793 448.767 291.514 444.872 298.007C441.169 304.179 436.833 309.391 432.384 312.244C428.074 315.007 423.949 315.433 419.857 312.764C416.129 310.332 413.659 307.163 413.219 302.965C412.765 298.628 414.386 292.424 420.629 283.827L420.706 283.722L420.774 283.609C424.623 277.192 427.955 272.357 431.82 269.826C433.667 268.617 435.613 267.956 437.826 267.928C440.069 267.899 442.767 268.52 446.093 270.166Z" fill="#FEC7FF" stroke="#E2A5E6" stroke-width="6"/>
<path d="M329.738 210.159L353.001 217.676L367.689 223.917L383.849 245.847L390.121 263.019L383.461 284.531L369.275 311.464L348.525 348.567L339.437 353.387L304.232 357.656L277.428 353.366L248.138 346.344L225.389 333.283L216.217 315.33L219.592 282.689L231.006 254.125L245.463 222.481L264.18 210.272L329.738 210.159Z" fill="#480062" stroke="#D46D06" stroke-width="25"/>
<path d="M281.115 235.927C283.764 237.26 285.111 238.665 285.787 239.935C286.45 241.181 286.66 242.655 286.38 244.525C285.781 248.527 283.141 253.294 279.88 258.818C276.807 264.022 273.233 268.372 269.603 270.736C266.109 273.011 262.869 273.313 259.66 271.187C256.636 269.182 254.699 266.621 254.353 263.262C253.991 259.757 255.27 254.615 260.449 247.371L260.524 247.265L260.591 247.153C263.807 241.705 266.541 237.698 269.668 235.618C271.147 234.633 272.69 234.105 274.439 234.082C276.218 234.059 278.392 234.558 281.115 235.927Z" fill="#FEC7FF" stroke="#E2A5E6" stroke-width="6"/>
<path d="M561.078 360.864C563.978 341.728 566.878 322.593 569.778 303.457C579.823 305.61 581.401 308.256 583.78 309.792C584.74 310.572 585.573 311.324 586.341 312.062C586.982 312.695 587.567 313.309 588.13 313.924C602.96 332.772 607.957 346.249 615.073 362.669C621.429 378.755 626.116 395.404 629.386 413.302C629.731 415.332 630.054 417.436 630.253 419.55C625.878 421.046 621.504 422.541 617.13 424.037C616.31 422.82 615.328 421.438 614.298 420.093C604.768 407.941 592.772 396.669 582.033 385.243C571.632 374.453 559.256 360.317 551.5 356.108C551.296 356.1 551.197 356.242 551.765 356.834C552.702 357.344 552.662 358.973 561.078 360.864Z" fill="#D46D06"/>
</g>
<defs>
<clipPath id="clip0_452_217">
<rect width="800" height="800" fill="white"/>
</clipPath>
<clipPath id="clip1_452_217">
<rect width="163.408" height="90.6098" fill="white" transform="matrix(-0.938445 -0.345429 -0.345429 0.938445 623.648 718.445)"/>
</clipPath>
<clipPath id="clip2_452_217">
<rect width="169.053" height="99.0344" fill="white" transform="translate(260 717.716) rotate(-21.3048)"/>
</clipPath>
<clipPath id="clip3_452_217">
<rect width="196" height="148.189" fill="white" transform="translate(336.57 339.256) rotate(9.75368)"/>
</clipPath>
<clipPath id="clip4_452_217">
<rect width="90.8799" height="156.298" fill="white" transform="matrix(-0.967492 0.252901 0.252901 0.967492 726.928 532)"/>
</clipPath>
</defs>
</svg>
