<svg width="66" height="69" viewBox="0 0 66 69" fill="none" xmlns="http://www.w3.org/2000/svg">
<path fill-rule="evenodd" clip-rule="evenodd" d="M6.78105 58.0854C9.64521 60.8899 38.1781 43.5075 47.9515 33.6538C53.0025 28.5616 53.2533 20.6572 48.5114 16.0137C43.7692 11.3699 35.8188 11.7342 30.7676 16.8267C20.9945 26.68 3.91719 55.2806 6.78105 58.0854Z" fill="#FF9425"/>
<path fill-rule="evenodd" clip-rule="evenodd" d="M6.68206 57.9697C6.72862 58.0298 6.7858 58.0928 6.7858 58.0928C6.7858 58.0928 49.5313 17.2073 48.5114 16.0138C44.2036 10.9728 35.7905 11.7069 30.7676 16.8268C11.8512 36.1102 5.05841 55.8524 6.68206 57.9697Z" fill="#FF8600"/>
<path d="M33.37 15.5975C34.8343 17.7403 36.4134 19.788 38.5404 21.2852" stroke="#EF6A00" stroke-width="2" stroke-miterlimit="10" stroke-linecap="round" stroke-linejoin="round"/>
<path d="M24.9036 24.5219C25.3491 26.406 26.7575 27.5463 28.3251 28.6219" stroke="#EF6A00" stroke-width="2" stroke-miterlimit="10" stroke-linecap="round" stroke-linejoin="round"/>
<path d="M15.7864 36.8684C17.4056 38.6676 18.9257 39.9734 20.3884 40.9917" stroke="#EF6A00" stroke-width="2" stroke-miterlimit="10" stroke-linecap="round" stroke-linejoin="round"/>
<path fill-rule="evenodd" clip-rule="evenodd" d="M46.7056 17.545C46.7056 17.545 55.7274 14.4266 58.5608 12.6116C61.382 10.8045 61.2018 5.67379 59.8768 4.52985C58.0587 2.96078 54.5514 3.19541 52.4945 6.02897C50.5569 8.69775 46.7056 17.545 46.7056 17.545Z" fill="#129447"/>
<path fill-rule="evenodd" clip-rule="evenodd" d="M46.6908 17.4874C46.6908 17.4874 50.7906 16.998 54.781 18.0291C57.001 18.6025 58.6901 21.0268 60.3489 21.2108C62.3368 21.4313 64.4937 20.8597 64.509 18.9701C64.5243 17.0813 62.671 15.6251 60.1553 14.2505C55.7527 11.8447 48.3864 16.3703 46.6908 17.4874Z" fill="#00AA63"/>
<path fill-rule="evenodd" clip-rule="evenodd" d="M46.8057 17.9359C46.8057 17.9359 49.8873 19.2924 53.2326 21.6292C55.6037 23.2858 57.7589 26.1914 57.8863 26.398C59.6308 29.2233 62.5643 28.1111 62.69 25.3173C62.7991 22.8835 61.2905 20.75 59.6017 19.5063C55.2465 16.2984 47.6193 16.3682 46.8057 17.9359Z" fill="#129447"/>
<path fill-rule="evenodd" clip-rule="evenodd" d="M46.8058 17.9356C46.8058 17.9356 46.8855 14.096 45.6506 10.356C44.9638 8.27558 42.3442 6.76587 42.0887 5.20231C41.7826 3.32831 42.3061 1.26517 44.2983 1.18072C46.2904 1.09649 48.4089 3.38371 49.4374 5.12808C51.9149 9.32931 48.2532 16.7478 46.8058 17.9356Z" fill="#00AA63"/>
<path fill-rule="evenodd" clip-rule="evenodd" d="M46.806 17.9355C46.806 17.9355 45.0765 13.8691 42.5402 10.7501C40.4847 8.22228 38.289 7.038 37.6485 6.19481C36.4705 4.64396 36.8109 2.75552 38.6982 2.17867C40.5852 1.60142 43.6255 3.48198 44.722 4.73352C48.0999 8.58931 47.8661 15.9518 46.806 17.9355Z" fill="#129447"/>
<path d="M41.0357 30.9856C41.8181 33.1491 43.4715 34.862 44.6016 35.8979" stroke="#EF6A00" stroke-width="2" stroke-miterlimit="10" stroke-linecap="round" stroke-linejoin="round"/>
<path d="M29.4632 40.8291C30.0819 42.4539 31.3808 43.8884 32.2683 44.7749" stroke="#EF6A00" stroke-width="2" stroke-miterlimit="10" stroke-linecap="round" stroke-linejoin="round"/>
<path d="M18.0099 50.4275C18.4127 51.3118 19.2683 52.1521 19.8531 52.6779" stroke="#EF6A00" stroke-width="2" stroke-miterlimit="10" stroke-linecap="round" stroke-linejoin="round"/>
</svg>
