<svg width="900" height="721" viewBox="0 0 900 721" fill="none" xmlns="http://www.w3.org/2000/svg">
<g clip-path="url(#clip0_447_274)">
<path d="M217.536 608.581C223.969 606.181 233.218 606.417 244.297 609.089C255.255 611.732 267.471 616.628 279.482 622.894C303.656 635.505 326.121 653.192 335.676 668.071C336.373 669.157 337.546 670.719 338.826 672.438C340.156 674.222 341.724 676.334 343.37 678.693C346.68 683.435 350.203 689.036 352.588 694.677C355.007 700.399 356.021 705.622 355.033 709.848C354.139 713.669 351.427 717.416 344.587 720.14C343.906 720.204 342.546 720.155 340.31 719.753C337.854 719.312 334.722 718.521 330.971 717.371C323.479 715.075 313.782 711.433 302.559 706.602C280.125 696.947 251.822 682.643 223.234 665.16L222.982 665.005L222.709 664.89L220.804 664.073C201.427 655.653 191.403 648.119 186.973 641.899C184.756 638.786 184.032 636.133 184.073 633.888C184.114 631.617 184.947 629.351 186.547 627.057C189.843 622.331 195.94 618.143 202.339 614.839C208.629 611.592 214.68 609.465 217.312 608.657L217.425 608.622L217.536 608.581Z" fill="#91E1E6" stroke="#0082AA" stroke-width="8"/>
<path d="M349.361 693.636C356.25 704.614 355.312 709.747 348.031 715.471C338.147 718.507 337.656 717.661 321.211 708.26C328.195 708.108 331.228 708.174 333.418 694.047C324.923 653.303 341.495 681.103 349.361 693.636Z" fill="#2FC7CE"/>
<path d="M108.118 316.939C163.668 229.137 282.904 200.49 374.419 252.874C465.933 305.258 495.157 418.885 439.608 506.688C384.058 594.49 264.821 623.137 173.307 570.753C81.7925 518.369 52.5686 404.742 108.118 316.939Z" fill="#86D0E3" stroke="#0C74AB" stroke-width="7"/>
<path d="M458.01 368.997C474.439 418.667 453.708 481.495 437.904 501.626C385.306 596.4 256.901 616.851 174.127 566.553C122.28 535.047 238.692 618.683 367.188 530.007C441.352 485.51 458.01 368.997 458.01 368.997Z" fill="#37B4CA"/>
<path opacity="0.77" d="M395.685 392.694L407.089 387.576L418.806 387.577L423.625 387.576L427.804 390.157L429.406 395.365L429.406 402.194L425.726 410.194L418.806 406.245L407.089 404.102L397.866 406.245L392.609 406.245L390.508 395.365L395.685 392.694Z" fill="#004F80"/>
<path opacity="0.7" d="M390.506 342.872L391.216 334.901L390.31 327.301L385.412 318.708L377.527 309.208L364.385 300.708L359.654 302.708L354.923 307.208L354.923 312.708L364.385 314.208L371.745 322.208L375.68 331.642L375.059 338.617L374.349 346.588L381.682 347.179L387.053 346.107L390.506 342.872Z" fill="#014C83"/>
<path d="M272.844 506.57C291.675 503.492 302.281 497.723 321.28 482.359" stroke="#0082AA" stroke-width="5" stroke-linecap="round"/>
<path d="M135.149 443.218C156.703 447.888 169.741 451.206 179.73 454.661C190.388 458.348 197.643 462.211 208.237 468.226C217.479 473.473 227.427 478.021 235.657 482.166C244.155 486.446 250.606 490.199 253.958 493.99C255.559 495.8 256.204 497.35 256.257 498.746C256.309 500.13 255.801 501.939 253.918 504.32C250.011 509.261 241.125 515.498 224.594 523.469L222.95 524.263L222.659 526.037C221.507 533.066 220.846 538.264 219.77 541.652C219.313 543.09 218.91 543.73 218.705 543.975C218.652 543.963 218.583 543.945 218.497 543.918C217.725 543.671 216.367 542.902 214.243 541.064C212.179 539.277 209.633 536.697 206.48 533.165C200.178 526.103 191.7 515.522 180.158 500.558L180.062 500.435L179.957 500.32C174.689 494.629 169.284 489.395 164.183 484.411C159.053 479.399 154.239 474.649 149.998 469.812C142.697 461.485 137.293 453.109 135.149 443.218Z" fill="#CD0131" stroke="#0875A4" stroke-width="7"/>
<path d="M163.172 454.083C170.597 457.191 181.136 483.262 176.209 489.907C175.505 491.589 165.167 481.891 155.63 471.005C146.093 460.119 143.988 457.468 139.871 447.533C146.203 450.349 152.627 448.532 163.172 454.083Z" fill="#ED2D51"/>
<path d="M239.415 478.381L239.467 478.432L239.523 478.477L244.195 482.252L248.867 486.027L246.2 483.872L250.749 485.658L258.389 491.044L260.158 491.723L267.546 495.917L282.196 506.28L267.948 511.283L252.608 514.293L261.003 513.748L247.288 515.336L235.389 515.464L231.17 512.918L227.48 508.924L224.892 503.194L223.725 495.287L225.721 486.083L228.593 477.347L235.31 476.089L239.415 478.381Z" fill="#FEFEFE" stroke="#0578A5" stroke-width="3"/>
<path d="M295.544 521.294L295.501 521.263L295.463 521.227L289.878 515.908L289.846 515.877L289.819 515.845L285.6 510.803L285.583 510.783L282.57 506.605L265.233 512.2L258.688 513.484L246.716 515.833L258.577 525.818L264.743 528.287L270.546 528.6L276.479 528.461L284.023 528.246L290.79 526.918L299.243 525.874L293.431 526.592L300.593 524.995L295.544 521.294Z" fill="#FEFEFE" stroke="#0875A4" stroke-width="3"/>
<path d="M45.7257 238.418C54.5652 241.637 63.2094 248.582 71.0994 258.172C78.9627 267.73 85.8925 279.695 91.3608 292.57C102.367 318.484 107.099 347.208 102.422 366.558C99.1707 380.007 91.0184 393.654 81.4435 403.623C76.6693 408.594 71.6502 412.536 66.8629 415.074C64.0852 416.546 61.4844 417.494 59.116 417.947C59.169 417.811 59.223 417.672 59.2792 417.531C60.1755 415.28 61.3302 412.731 62.701 409.595C65.4071 403.404 68.7057 395.476 71.3418 385.366C76.6301 365.086 79.1631 336.396 69.6445 295.209L69.5396 294.755L69.3323 294.336L58.1463 271.719C54.9155 265.172 52.1709 259.574 49.8786 254.802C45.6613 246.023 43.0851 240.26 41.8129 236.614C42.8349 237.069 44.013 237.625 45.3778 238.273L45.5482 238.353L45.7257 238.418Z" fill="#91E1E6" stroke="#0082AA" stroke-width="8"/>
<path d="M86.4273 392.119C80.8513 402.361 81.7453 397.051 76.8032 403.966C90.5596 376.02 81.3714 407.592 66.8396 410.727C66.7102 411.719 71.181 400.707 73.8634 387.947C96.582 364.707 107.693 353.055 86.4273 392.119Z" fill="#2FC7CE"/>
<path d="M13.852 238.09C17.2275 231.915 20.7494 229.462 24.2624 229.587L24.3997 229.592L24.5362 229.585C29.1248 229.328 34.4125 231.628 40.0159 236.673C45.5763 241.68 51.1213 249.11 56.1318 258.33C66.1483 276.764 73.7644 301.866 75.2021 327.621C76.648 353.524 73.6312 377.234 67.5324 394.507C64.481 403.149 60.7099 410.032 56.4703 414.779C52.2472 419.507 47.7068 421.968 43.0024 422.231C38.2736 422.495 33.5007 420.6 28.8177 416.475C24.1124 412.331 19.6418 406.049 15.689 397.939C7.79407 381.741 2.2355 358.812 0.783718 332.93C0.429799 310.821 1.80322 284.275 5.84631 263.424C7.8753 252.96 10.5358 244.156 13.852 238.09Z" fill="#2FC7CE" stroke="#0082AA" stroke-width="6"/>
<path d="M690.808 505.011C706.524 535.127 717.568 590.756 705.532 604.992C696.513 642.19 663.528 651.075 636.231 643.097C608.589 635.018 568.119 557.24 537.184 487.321L537.122 487.183L537.055 487.048C514.524 442.698 479.825 415.826 455.651 397.433C449.566 392.804 444.263 388.799 439.89 385.151C435.476 381.468 432.377 378.443 430.523 375.856C428.674 373.276 428.597 371.885 428.739 371.169C428.894 370.398 429.637 368.732 433.164 366.221L435.491 364.565L435.733 361.812C436.126 357.347 437.408 354.925 438.741 353.573C440.036 352.259 442.101 351.222 445.62 350.909C453.1 350.24 464.532 353.058 479.614 359.084C509.467 371.011 549.003 393.476 590.727 415.084C643.139 442.227 675.248 475.199 690.808 505.011Z" fill="#87CFE5" stroke="#0E6B96" stroke-width="12"/>
<path d="M793.7 364.088C797.072 351.662 785.208 334.474 777.661 323.593C769.984 312.525 749.737 294.274 730.954 285.679C693.431 268.506 667.696 243.962 596.121 247.969C566.538 251.728 536.682 254.309 509.059 256.76C481.252 259.225 455.811 261.552 434.811 264.8C413.496 268.098 398.019 272.187 389.348 277.548C385.166 280.134 383.369 282.53 382.714 284.556C382.082 286.507 382.073 289.475 384.426 294.097L386.127 297.44L384.212 300.772C381.615 305.289 381.882 307.214 382.069 307.788C382.25 308.342 383.035 309.726 386.86 311.356C390.614 312.955 393.275 306.105 400.638 307.258C407.921 308.398 413.805 304.431 423.67 305.41C462.881 309.3 489.112 297.377 543.629 321.841L512.063 310.611L578.015 333.083L607.841 351.934C694.874 403.369 724.123 413.276 755.769 403.138C787.304 393.036 785.913 392.781 793.7 364.088Z" fill="#8BCDE5" stroke="#0E6B96" stroke-width="12"/>
<path d="M355.634 342.72C376.763 354.914 381.501 386.217 365.442 412.133C356.381 426.755 350.161 438.116 335.082 441.246C324.11 445.642 314.831 449.923 300.62 441.722C279.572 429.573 272.518 394.386 288.897 367.955C305.276 341.523 334.586 330.572 355.634 342.72Z" fill="#FEFEFE" stroke="#0F79AB" stroke-width="6"/>
<path d="M329.204 439.773C334.59 444.969 344.375 443.949 351.058 437.497C357.741 431.044 358.792 421.601 353.405 416.405C348.019 411.209 338.235 412.228 331.552 418.681C324.869 425.134 323.817 434.577 329.204 439.773Z" fill="#2B2A28"/>
<path d="M363.561 438.029C362.29 438.39 361.271 439.237 360.745 440.427C360.218 441.614 360.226 443.046 360.751 444.365C361.277 445.683 362.27 446.768 363.496 447.335C364.723 447.905 366.082 447.911 367.291 447.397C368.559 446.86 369.756 446.355 371.023 445.834C393.219 436.181 417.21 431.247 442.283 431.68C443.685 431.673 445.038 431.67 446.447 431.676C445.042 431.505 443.692 431.343 442.29 431.184C417.523 427.731 391.522 429.785 367.576 436.9C366.213 437.277 364.922 437.636 363.561 438.029Z" fill="#1D8EAF"/>
<path d="M367.136 436.889C365.424 436.873 363.877 437.556 362.845 438.857C361.812 440.153 361.378 441.961 361.63 443.814C361.882 445.666 362.796 447.391 364.162 448.541C365.528 449.695 367.233 450.178 368.913 449.954C370.421 449.752 371.927 449.565 373.442 449.392C400.52 446.582 429.555 446.859 456 459.662C457.452 460.402 458.882 461.189 460.281 462.023C458.993 461.011 457.66 460.038 456.293 459.104C431.192 442.637 400.828 437.97 371.986 436.968C370.367 436.926 368.754 436.9 367.136 436.889Z" fill="#1D8EAF"/>
<path d="M368.497 439.034C367.333 438.438 366.053 438.393 364.916 438.983C363.781 439.568 362.881 440.739 362.439 442.166C361.996 443.592 362.053 445.135 362.62 446.382C363.185 447.634 364.214 448.487 365.458 448.827C366.264 449.049 367.028 449.259 367.829 449.489C382.017 453.294 395.415 459.773 406.518 471.042C407.148 471.653 407.755 472.251 408.377 472.878C407.873 472.137 407.381 471.423 406.866 470.693C398.054 457.407 384.698 447.121 370.809 440.222C370.026 439.816 369.283 439.431 368.497 439.034Z" fill="#1D8EAF"/>
<path d="M332.534 480.245C342.621 487.529 357.577 484.69 365.94 473.904C374.303 463.119 372.905 448.47 362.818 441.186C352.732 433.902 337.775 436.741 329.412 447.527C321.05 458.313 322.447 472.961 332.534 480.245Z" fill="#FF4664"/>
<g clip-path="url(#clip1_447_274)">
<path d="M413.036 468.324C406.807 469.823 404.498 472.005 403.533 474.476C402.36 477.483 402.792 481.792 404.615 487.984C408.089 499.786 416.352 517.232 419.104 537.93L419.144 538.229L419.118 538.534C417.81 554.195 416.73 568.15 419.213 579.653C421.595 590.689 427.183 599.111 438.874 604.423C455.006 604.506 466.785 602.038 475.262 598.044C483.833 594.005 489.352 588.26 492.641 581.387C499.349 567.367 496.773 548.607 490.438 531.031L490.389 530.896L490.355 530.758C486.13 513.867 472.5 497.35 456.645 485.436C448.745 479.5 440.424 474.806 432.654 471.815C424.916 468.836 418.148 467.708 413.036 468.324Z" fill="#87CFE5" stroke="#0076B8" stroke-width="7"/>
<path d="M445.382 569.338C445.275 569.064 445.309 568.752 445.463 568.473C445.619 568.195 445.884 567.974 446.211 567.853C446.538 567.732 446.905 567.722 447.242 567.819C447.579 567.917 447.859 568.113 448.009 568.371C448.329 568.927 448.637 569.467 448.946 570.026C454.887 579.772 456.865 592.011 454.697 603.354C454.595 603.998 454.494 604.609 454.379 605.253C451.618 604.885 448.857 604.516 446.096 604.148C446.294 603.554 446.478 602.991 446.663 602.398C450.221 591.935 450.255 581.343 446.04 571.054C445.825 570.476 445.611 569.916 445.382 569.338Z" fill="#0074AB"/>
<path d="M470.629 556.648C470.429 556.41 470.35 556.082 470.396 555.745C470.443 555.409 470.611 555.091 470.876 554.852C471.141 554.614 471.484 554.47 471.842 554.443C472.199 554.416 472.541 554.507 472.781 554.707C473.217 555.073 473.628 555.419 474.059 555.791C481.817 562.119 488.032 570.753 492.427 579.663C492.686 580.163 492.933 580.64 493.189 581.141C493.649 582.033 493.667 583.084 493.192 584.084C492.72 585.083 491.793 585.949 490.664 586.471C489.534 586.993 488.308 587.121 487.301 586.806C486.291 586.491 485.584 585.759 485.288 584.792C485.125 584.262 484.969 583.756 484.804 583.229C482.033 573.82 478.035 565.38 471.668 557.901C471.318 557.475 470.986 557.071 470.629 556.648Z" fill="#007BA4"/>
</g>
<g clip-path="url(#clip2_447_274)">
<path d="M215.228 258.396C213.919 266.352 215.458 270.153 218.042 272.556C221.186 275.48 226.769 277.237 235.404 278.377C251.864 280.55 270.264 256.257 297.426 263.916L302.007 263.775L311.679 263.478C330.503 273.176 341.351 306.362 356.932 309.521C371.881 312.551 385.211 310.523 397.781 299.84C406.108 281.31 409.04 266.457 408.39 254.606C407.732 242.626 403.396 233.265 396.518 225.883C382.488 210.826 357.827 203.979 332.724 202.079L332.531 202.065L332.342 202.032C309.167 198.06 281.663 205.114 258.753 217.137C247.339 223.127 237.256 230.254 229.573 237.635C221.921 244.987 217.067 252.189 215.228 258.396Z" fill="#87CFE5" stroke="#0076B8" stroke-width="7"/>
<path d="M367.08 280.481C366.976 280.253 367.033 279.977 367.225 279.718C367.418 279.46 367.731 279.24 368.108 279.103C368.484 278.966 368.899 278.921 369.274 278.973C369.648 279.026 369.952 279.17 370.105 279.381C370.433 279.836 370.747 280.278 371.062 280.736C377.168 288.678 378.647 299.184 375.5 309.309C375.345 309.882 375.193 310.426 375.024 311C371.929 310.946 368.835 310.892 365.74 310.839C366 310.3 366.242 309.79 366.488 309.254C371.15 299.763 371.842 290.501 367.718 281.917C367.51 281.433 367.302 280.964 367.08 280.481Z" fill="#0074AB"/>
<path d="M392.76 271.604C392.63 271.413 392.653 271.127 392.807 270.821C392.962 270.515 393.236 270.213 393.584 269.971C393.932 269.73 394.33 269.565 394.707 269.502C395.082 269.441 395.405 269.486 395.589 269.639C395.921 269.92 396.234 270.187 396.559 270.473C402.53 275.313 406.183 282.381 407.876 289.889C407.984 290.309 408.087 290.709 408.192 291.131C408.382 291.88 408.067 292.819 407.261 293.764C406.459 294.708 405.231 295.582 403.904 296.169C402.577 296.755 401.275 297 400.34 296.825C399.401 296.65 398.906 296.07 398.909 295.236C398.909 294.779 398.91 294.343 398.906 293.889C399.041 285.762 397.607 278.634 393.431 272.616C393.207 272.271 392.993 271.945 392.76 271.604Z" fill="#007BA4"/>
</g>
</g>
<defs>
<clipPath id="clip0_447_274">
<rect width="900" height="721" fill="white"/>
</clipPath>
<clipPath id="clip1_447_274">
<rect width="92.1769" height="149" fill="white" transform="matrix(-0.991278 0.131787 0.131787 0.991278 487.219 454.928)"/>
</clipPath>
<clipPath id="clip2_447_274">
<rect width="115.91" height="197.988" fill="white" transform="matrix(-0.271381 0.962472 0.962472 0.271381 236.445 165.997)"/>
</clipPath>
</defs>
</svg>
