<svg width="900" height="721" viewBox="0 0 900 721" fill="none" xmlns="http://www.w3.org/2000/svg">
<g clip-path="url(#clip0_448_30)">
<path d="M766.876 268.55C799.914 281.221 847.131 316.064 847.804 334.429C866.783 368.155 847.646 395.811 821.132 407.16C794.284 418.652 709.051 385.849 636.61 352.898L636.466 352.833L636.32 352.775C588.139 333.723 542.785 335.559 511.416 337.085C503.521 337.47 496.661 337.828 490.763 337.862C484.81 337.896 480.323 337.59 477.099 336.822C473.882 336.055 472.854 335.058 472.465 334.428C472.046 333.75 471.457 332.024 472.416 327.892L473.05 325.167L471.318 322.941C468.511 319.331 467.809 316.693 467.89 314.829C467.97 313.016 468.833 310.924 471.316 308.451C476.594 303.193 487.333 298.046 503.11 292.992C534.335 282.99 580.334 274.762 627.415 264.498C686.556 251.605 734.17 256.006 766.876 268.55Z" fill="#87CFE5" stroke="#0E6B96" stroke-width="12"/>
<path d="M798.703 98.5735C793.049 86.8922 772.174 80.8351 758.931 77.0222C745.459 73.1437 717.251 71.3849 696.662 76.207C655.53 85.839 618.776 82.5609 564.923 129.397C544.072 150.382 522.217 170.623 502.039 189.398C481.725 208.297 463.188 225.643 448.775 240.989C434.146 256.566 424.658 269.188 421.398 278.637C419.825 283.194 420.009 286.147 420.848 288.117C421.654 290.013 423.634 292.316 428.586 294.457L432.167 296.006L432.884 299.755C433.857 304.839 435.356 306.166 435.888 306.497C436.401 306.815 437.948 307.407 442.06 306.331C446.096 305.275 443.613 298.346 450.2 294.74C456.716 291.173 458.708 284.507 467.156 279.236C500.73 258.29 513.469 233.033 572.904 218.662L540.454 229.254L607.589 206.355L643.765 202.725C746.934 189.369 776.668 179.167 794.879 151.982C813.026 124.893 811.757 125.546 798.703 98.5735Z" fill="#8BCDE5" stroke="#0E6B96" stroke-width="12"/>
<path d="M204.927 574.955C211.781 574.549 220.553 577.489 230.359 583.296C240.059 589.04 250.3 597.305 259.942 606.821C279.349 625.973 295.633 649.476 300.399 666.504C300.747 667.746 301.41 669.584 302.129 671.603C302.876 673.698 303.755 676.178 304.637 678.916C306.409 684.421 308.132 690.809 308.756 696.901C309.389 703.082 308.825 708.372 306.64 712.122C304.663 715.513 300.971 718.298 293.633 718.895C292.963 718.756 291.677 718.31 289.658 717.27C287.439 716.127 284.678 714.451 281.43 712.251C274.942 707.856 266.741 701.528 257.431 693.616C238.819 677.8 215.962 655.819 193.766 630.714L193.569 630.492L193.343 630.302L191.762 628.962C175.71 615.225 168.338 605.08 165.93 597.834C164.724 594.207 164.811 591.458 165.509 589.324C166.215 587.166 167.676 585.244 169.879 583.521C174.418 579.97 181.476 577.756 188.562 576.477C195.529 575.219 201.937 574.962 204.69 574.962H204.809L204.927 574.955Z" fill="#91E1E6" stroke="#0082AA" stroke-width="8"/>
<path d="M305.98 694.96C309.343 707.477 306.94 712.109 298.299 715.444C287.96 715.444 287.738 714.491 274.777 700.677C281.498 702.582 284.378 703.535 290.618 690.673C294.459 649.231 302.139 680.67 305.98 694.96Z" fill="#2FC7CE"/>
<path d="M124.794 294.975C181.474 207.162 303.136 178.512 396.513 230.902C489.89 283.292 519.709 396.932 463.029 484.745C406.348 572.558 284.686 601.208 191.309 548.818C97.932 496.428 68.1134 382.787 124.794 294.975Z" fill="#86D0E3" stroke="#0C74AB" stroke-width="7"/>
<path d="M481.805 347.038C498.569 396.713 477.416 459.549 461.29 479.683C407.622 574.467 276.603 594.921 192.145 544.616C139.242 513.107 258.024 596.753 389.134 508.067C464.808 463.564 481.805 347.038 481.805 347.038Z" fill="#37B4CA"/>
<path opacity="0.77" d="M418.479 395.027L430.114 389.909L442.069 389.909L446.987 389.909L451.251 392.49L452.886 397.698L452.886 404.529L449.131 412.53L442.069 408.58L430.114 406.437L420.704 408.58L415.34 408.58L413.196 397.698L418.479 395.027Z" fill="#004F80"/>
<path opacity="0.7" d="M426.437 336.686L427.161 328.714L426.237 321.113L421.239 312.519L413.194 303.017L399.785 294.517L394.957 296.517L390.13 301.017L390.13 306.518L399.785 308.018L407.294 316.019L411.309 325.454L410.676 332.43L409.951 340.403L417.433 340.994L422.914 339.921L426.437 336.686Z" fill="#014C83"/>
<path d="M277.867 472.518C296.464 473.249 307.723 469.728 328.867 458.518" stroke="#0082AA" stroke-width="5" stroke-linecap="round"/>
<path d="M158.629 383.574C178.266 392.372 190.056 398.18 198.916 403.518C208.384 409.221 214.565 414.423 223.522 422.385C231.336 429.331 239.963 435.736 247.022 441.406C254.314 447.262 259.746 452.197 262.21 456.551C263.387 458.63 263.699 460.26 263.48 461.616C263.264 462.958 262.437 464.605 260.186 466.544C255.508 470.572 245.818 474.888 228.469 479.381L226.703 479.838L226.067 481.547C223.598 488.175 221.959 493.102 220.276 496.185C219.593 497.435 219.103 497.976 218.86 498.185C218.818 498.166 218.767 498.14 218.708 498.107C218.024 497.716 216.878 496.702 215.205 494.489C213.58 492.34 211.649 489.321 209.322 485.254C204.671 477.124 198.625 465.131 190.5 448.259L190.432 448.119L190.353 447.986C186.423 441.395 182.276 435.22 178.368 429.351C174.439 423.45 170.761 417.868 167.648 412.314C162.308 402.786 158.78 393.588 158.629 383.574Z" fill="#CD0131" stroke="#0875A4" stroke-width="7"/>
<path d="M183.244 399.628C189.737 404.129 194.744 431.628 188.743 437.128C187.744 438.628 179.747 427.127 172.747 414.627C165.747 402.127 164.251 399.126 162.247 388.627C167.751 392.626 174.244 392.128 183.244 399.628Z" fill="#ED2D51"/>
<path d="M255.374 436.428L255.414 436.487L255.459 436.542L259.24 441.116L263.021 445.689L260.862 443.078L264.932 445.689L271.276 452.401L272.862 453.401L279.205 458.902L291.364 471.806L276.44 473.957L260.862 473.957L269.161 475.033L255.459 473.957L243.828 471.806L240.237 468.517L237.459 463.918L236.112 457.838L236.599 449.907L240.436 441.317L245.032 433.351L251.841 433.408L255.374 436.428Z" fill="#FEFEFE" stroke="#0578A5" stroke-width="3"/>
<path d="M301.289 488.993L301.254 488.955L301.224 488.912L296.871 482.66L296.846 482.623L296.826 482.586L293.747 476.865L293.735 476.842L291.655 472.193L273.597 474.331L266.951 474.331L254.792 474.331L264.308 486.333L269.814 489.919L275.409 491.333L281.224 492.333L288.625 493.566L295.497 493.566L303.956 494.166L298.141 493.753L305.453 493.566L301.289 488.993Z" fill="#FEFEFE" stroke="#0875A4" stroke-width="3"/>
<path d="M387.074 331.396C407.186 345.632 408.579 377.243 389.452 401.423C378.66 415.066 371.108 425.748 355.462 427.359C343.847 430.638 333.963 433.973 320.435 424.398C300.399 410.216 297.08 374.51 316.588 349.849C336.096 325.188 367.038 317.214 387.074 331.396Z" fill="#FEFEFE" stroke="#0F79AB" stroke-width="6"/>
<path d="M348.269 422.825C353.765 428.022 363.749 427.003 370.568 420.549C377.387 414.095 378.459 404.651 372.963 399.455C367.467 394.258 357.484 395.278 350.665 401.731C343.846 408.185 342.773 417.629 348.269 422.825Z" fill="#2B2A28"/>
<path d="M378.09 421.931C376.764 421.936 375.537 422.474 374.68 423.474C373.823 424.47 373.408 425.846 373.522 427.252C373.635 428.658 374.268 429.967 375.276 430.843C376.284 431.722 377.586 432.098 378.898 431.933C378.898 431.933 378.898 431.933 378.898 431.933C380.301 431.759 381.624 431.597 383.022 431.438C407.656 428.154 432.619 429.887 457.052 437.063C458.427 437.435 459.753 437.797 461.132 438.183C459.804 437.639 458.529 437.119 457.202 436.588C433.928 426.587 407.905 421.559 382.355 421.931C380.909 421.924 379.539 421.922 378.09 421.931Z" fill="#1D8EAF"/>
<path d="M381.897 421.846C380.245 421.375 378.546 421.615 377.163 422.581C375.781 423.542 374.829 425.15 374.527 426.983C374.225 428.816 374.601 430.704 375.583 432.165C376.565 433.63 378.073 434.548 379.765 434.783C379.765 434.783 379.765 434.783 379.765 434.783C381.303 434.997 382.834 435.224 384.37 435.467C411.742 440.088 440.096 448.189 462.225 467.631C463.428 468.734 464.597 469.876 465.722 471.055C465.722 471.055 465.722 471.055 465.722 471.055C464.756 469.735 463.736 468.44 462.671 467.175C442.914 444.59 414.571 431.954 386.623 423.227C385.05 422.751 383.479 422.292 381.897 421.846Z" fill="#1D8EAF"/>
<path d="M382.474 424.267C381.505 423.381 380.274 422.989 379.007 423.241C377.743 423.489 376.548 424.36 375.727 425.599C374.906 426.839 374.539 428.326 374.748 429.669C374.956 431.016 375.723 432.11 376.838 432.774C377.559 433.204 378.242 433.611 378.956 434.048C391.669 441.519 402.862 451.364 410.39 465.214C410.825 465.972 411.242 466.711 411.665 467.483C411.665 467.483 411.665 467.483 411.665 467.483C411.388 466.637 411.117 465.82 410.826 464.981C406.099 449.872 395.979 436.37 384.392 426.028C383.743 425.428 383.127 424.859 382.474 424.267Z" fill="#1D8EAF"/>
<path d="M345.32 464.303C355.612 471.587 370.873 468.748 379.406 457.961C387.939 447.174 386.513 432.524 376.221 425.239C365.929 417.954 350.669 420.793 342.136 431.58C333.602 442.367 335.028 457.018 345.32 464.303Z" fill="#FF4664"/>
<path d="M43.9271 216.905C53.1104 218.946 62.5851 224.707 71.6564 233.189C80.697 241.642 89.1253 252.602 96.223 264.656C110.509 288.917 118.941 316.781 116.822 336.575C115.349 350.332 109.042 364.924 100.847 376.055C96.7601 381.605 92.2969 386.167 87.8808 389.306C85.3184 391.128 82.8631 392.406 80.5738 393.164C80.6087 393.022 80.6441 392.877 80.6815 392.73C81.2771 390.382 82.0901 387.704 83.041 384.416C84.9182 377.926 87.1566 369.635 88.4543 359.269C91.0576 338.473 89.8343 309.697 75.0351 270.099L74.872 269.663L74.6119 269.275L60.577 248.307C56.5214 242.235 53.0713 237.042 50.1774 232.609C44.8532 224.455 41.5487 219.075 39.8126 215.626C40.8853 215.945 42.1257 216.342 43.5632 216.807L43.7426 216.864L43.9271 216.905Z" fill="#91E1E6" stroke="#0082AA" stroke-width="8"/>
<path d="M104.292 364C100.096 374.881 100.292 369.5 96.2915 376.999C106.293 347.5 101.293 380 87.293 385C87.2937 386 90.293 374.5 91.2915 361.499C110.792 335.5 120.292 322.5 104.292 364Z" fill="#2FC7CE"/>
<path d="M12.2804 220.729C14.8234 214.167 17.996 211.277 21.4954 210.944L21.6321 210.931L21.7665 210.905C26.2827 210.054 31.8248 211.646 38.0372 215.919C44.2021 220.159 50.6671 226.803 56.8352 235.293C69.1661 252.266 79.9851 276.164 84.7633 301.512C89.5688 327.006 89.6641 350.907 85.8658 368.827C83.9654 377.793 81.1224 385.109 77.5367 390.367C73.9651 395.605 69.7837 398.636 65.1535 399.508C60.4993 400.386 55.5203 399.128 50.3403 395.648C45.1356 392.152 39.8852 386.505 34.9103 378.979C24.974 363.947 16.4779 341.936 11.6693 316.464C8.44029 294.589 6.34631 268.089 7.64073 246.89C8.29033 236.251 9.78214 227.176 12.2804 220.729Z" fill="#2FC7CE" stroke="#0082AA" stroke-width="6"/>
<path d="M431.874 425.503C425.501 426.179 422.924 428.07 421.643 430.433C420.083 433.307 419.944 437.71 420.934 444.197C422.823 456.563 428.715 475.261 428.715 496.5L428.715 496.808L428.65 497.111C425.289 512.727 422.379 526.653 423.324 538.584C424.231 550.031 428.66 559.272 439.55 566.195C455.53 568.442 467.531 567.532 476.462 564.641C485.489 561.718 491.718 556.665 495.884 550.176C504.381 536.938 504.3 517.677 500.336 499.106L500.305 498.964L500.29 498.82C498.328 481.223 486.994 462.742 472.847 448.603C465.798 441.558 458.168 435.711 450.86 431.653C443.582 427.612 437.022 425.567 431.874 425.503Z" fill="#87CFE5" stroke="#0076B8" stroke-width="7"/>
<path d="M454.033 531.292C453.963 531.007 454.037 530.702 454.227 530.446C454.419 530.191 454.71 530.006 455.05 529.93C455.39 529.853 455.755 529.891 456.077 530.032C456.398 530.173 456.65 530.405 456.764 530.68C457.008 531.273 457.242 531.849 457.475 532.444C462.079 542.888 462.428 555.281 458.784 566.239C458.598 566.864 458.417 567.457 458.218 568.08C455.53 567.351 452.842 566.622 450.153 565.893C450.427 565.33 450.684 564.796 450.946 564.233C455.852 554.33 457.281 543.835 454.459 533.08C454.322 532.479 454.183 531.895 454.033 531.292Z" fill="#0074AB"/>
<path d="M482.947 530.224C482.907 529.93 483.018 529.625 483.239 529.378C483.46 529.132 483.773 528.963 484.125 528.908C484.477 528.853 484.843 528.915 485.159 529.078C485.474 529.241 485.712 529.491 485.807 529.776C485.975 530.295 486.134 530.786 486.296 531.307C489.402 540.403 489.964 550.556 488.844 559.991C488.792 560.527 488.743 561.038 488.687 561.573C488.592 562.528 488.039 563.382 487.099 563.941C486.161 564.5 484.914 564.718 483.681 564.554C482.449 564.39 481.348 563.859 480.671 563.086C479.992 562.311 479.792 561.357 480.066 560.427C480.215 559.916 480.358 559.429 480.503 558.92C483.258 549.923 484.458 541.072 483.143 531.769C483.08 531.245 483.018 530.749 482.947 530.224Z" fill="#007BA4"/>
<g clip-path="url(#clip1_448_30)">
<path d="M235.952 198.515C234.728 206.136 236.283 209.796 238.858 212.124C241.992 214.958 247.525 216.692 256.069 217.863C272.357 220.094 290.326 196.953 317.24 204.542L321.767 204.447L331.323 204.248C350.014 213.719 361.03 245.652 376.458 248.82C391.26 251.86 404.416 250.033 416.744 239.896C424.81 222.194 427.575 207.972 426.827 196.597C426.071 185.099 421.701 176.081 414.839 168.938C400.838 154.369 376.404 147.581 351.577 145.535L351.386 145.52L351.199 145.486C328.259 141.47 301.138 147.992 278.602 159.322C267.374 164.967 257.472 171.714 249.945 178.727C242.447 185.711 237.713 192.577 235.952 198.515Z" fill="#87CFE5" stroke="#0076B8" stroke-width="7"/>
<path d="M386.226 221.052C386.12 220.832 386.174 220.567 386.362 220.321C386.55 220.075 386.857 219.867 387.228 219.739C387.599 219.611 388.009 219.571 388.38 219.625C388.75 219.679 389.052 219.82 389.205 220.024C389.533 220.462 389.847 220.89 390.163 221.332C396.268 229.005 397.824 239.096 394.803 248.781C394.655 249.33 394.51 249.851 394.347 250.399C391.289 250.32 388.23 250.241 385.171 250.162C385.423 249.648 385.658 249.161 385.896 248.649C390.42 239.585 391.02 230.707 386.868 222.435C386.658 221.969 386.449 221.517 386.226 221.052Z" fill="#0074AB"/>
<path d="M411.527 212.765C411.397 212.58 411.417 212.306 411.566 212.014C411.717 211.722 411.984 211.434 412.326 211.206C412.668 210.977 413.06 210.822 413.432 210.766C413.803 210.71 414.122 210.756 414.305 210.905C414.636 211.178 414.948 211.436 415.272 211.714C421.216 216.41 424.889 223.222 426.629 230.44C426.74 230.844 426.845 231.229 426.952 231.634C427.147 232.355 426.844 233.252 426.056 234.152C425.271 235.05 424.066 235.878 422.759 236.429C421.453 236.98 420.168 237.203 419.243 237.027C418.313 236.851 417.819 236.29 417.814 235.49C417.81 235.051 417.807 234.633 417.799 234.197C417.86 226.403 416.38 219.551 412.199 213.741C411.974 213.409 411.76 213.094 411.527 212.765Z" fill="#007BA4"/>
</g>
</g>
<defs>
<clipPath id="clip0_448_30">
<rect width="900" height="721" fill="white"/>
</clipPath>
<clipPath id="clip1_448_30">
<rect width="110.903" height="196.176" fill="white" transform="matrix(-0.271381 0.962472 0.962472 0.271381 256.098 110.065)"/>
</clipPath>
</defs>
</svg>
