<svg width="900" height="721" viewBox="0 0 900 721" fill="none" xmlns="http://www.w3.org/2000/svg">
<g clip-path="url(#clip0_448_33)">
<path d="M788.438 342.472C821.082 352.239 869.066 382.902 871.17 401.176C892.024 433.189 875.896 462.467 851.408 476.11C826.611 489.926 742.386 464.616 670.399 438.043L670.256 437.991L670.112 437.945C622.459 423.13 579.175 428.921 549.258 433.181C541.727 434.254 535.187 435.21 529.542 435.759C523.844 436.313 519.523 436.399 516.374 435.913C513.233 435.429 512.17 434.523 511.747 433.928C511.292 433.288 510.591 431.616 511.181 427.408L511.572 424.631L509.736 422.561C506.761 419.202 505.879 416.63 505.809 414.761C505.741 412.945 506.401 410.781 508.583 408.095C513.219 402.386 523.094 396.31 537.8 389.889C566.906 377.179 610.3 364.951 654.569 350.597C710.178 332.565 756.122 332.804 788.438 342.472Z" fill="#87CFE5" stroke="#0E6B96" stroke-width="12"/>
<path d="M791.852 168.477C785.461 157.333 764.959 153.165 751.955 150.551C738.726 147.891 711.56 148.669 692.241 155.326C653.646 168.625 618.166 168.653 570.494 220.201C552.274 243.003 533.031 265.153 515.27 285.69C497.391 306.364 481.083 325.328 468.559 341.928C455.848 358.777 447.814 372.218 445.48 381.935C444.354 386.621 444.777 389.55 445.745 391.439C446.676 393.258 448.764 395.377 453.688 397.068L457.246 398.292L458.247 401.967C459.603 406.95 461.15 408.14 461.687 408.422C462.206 408.693 463.736 409.145 467.585 407.703C471.363 406.288 468.406 399.599 474.414 395.411C480.358 391.269 481.709 384.441 489.361 378.426C519.771 354.521 529.864 328.186 585.595 308.518L555.397 321.995L617.791 293.13L652.14 286.263C749.848 263.682 777.477 250.839 792.651 222.09C807.771 193.443 806.609 194.207 791.852 168.477Z" fill="#8BCDE5" stroke="#0E6B96" stroke-width="12"/>
<path d="M324.609 673.882C328.576 668.278 336.355 663.268 347.017 659.244C357.564 655.262 370.416 652.436 383.872 650.858C410.951 647.681 439.476 649.661 455.747 656.584C456.934 657.089 458.782 657.722 460.807 658.422C462.91 659.149 465.395 660.012 468.084 661.036C473.488 663.094 479.552 665.742 484.697 669.063C489.917 672.432 493.694 676.179 495.255 680.229C496.666 683.891 496.532 688.514 492.411 694.615C491.884 695.051 490.732 695.776 488.658 696.702C486.379 697.719 483.345 698.828 479.597 699.988C472.111 702.305 462.046 704.75 450.05 707.072C426.071 711.713 394.626 715.814 361.155 717.447L360.86 717.462L360.569 717.52L358.535 717.916C337.779 721.859 325.252 721.271 318.091 718.622C314.507 717.296 312.415 715.51 311.186 713.632C309.942 711.731 309.355 709.389 309.387 706.593C309.453 700.831 312.137 693.938 315.568 687.606C318.94 681.382 322.746 676.219 324.467 674.07L324.54 673.978L324.609 673.882Z" fill="#91E1E6" stroke="#0082AA" stroke-width="8"/>
<path d="M481.445 670.018C493.317 675.216 495.431 679.987 492.632 688.816C486.169 696.887 485.287 696.464 466.403 697.946C472.091 693.891 474.635 692.238 468.497 679.328C438.549 650.425 467.89 664.082 481.445 670.018Z" fill="#2FC7CE"/>
<g clip-path="url(#clip1_448_33)">
<path d="M497.209 552.261C493.781 557.673 493.642 560.848 494.67 563.293C495.921 566.269 499.231 569.062 504.85 572.237C515.561 578.291 533.638 585.062 550.022 598.005L550.26 598.192L550.454 598.429C560.418 610.582 569.357 621.352 579.147 627.881C588.541 634.145 598.415 636.301 610.506 631.975C622.145 620.804 628.882 610.832 632.187 602.063C635.528 593.197 635.491 585.23 633.067 578.007C628.121 563.272 613.212 551.598 596.429 543.392L596.299 543.329L596.179 543.253C581.387 534.069 560.104 531.701 540.427 534.186C530.624 535.424 521.383 537.848 513.723 541.11C506.093 544.359 500.449 548.26 497.209 552.261Z" fill="#87CFE5" stroke="#0076B8" stroke-width="7"/>
<path d="M590.753 602.257C590.485 602.135 590.292 601.888 590.209 601.58C590.127 601.272 590.163 600.929 590.314 600.615C590.465 600.3 590.721 600.037 591.031 599.872C591.34 599.708 591.678 599.654 591.965 599.735C592.582 599.91 593.179 600.084 593.79 600.27C604.84 603.131 614.781 610.539 621.12 620.191C621.495 620.725 621.849 621.234 622.215 621.776C619.976 623.434 617.738 625.092 615.499 626.749C615.227 626.185 614.967 625.653 614.688 625.098C609.958 615.11 602.608 607.483 592.42 603.031C591.863 602.766 591.319 602.513 590.753 602.257Z" fill="#0074AB"/>
<path d="M600.044 575.57C599.736 575.539 599.45 575.358 599.249 575.085C599.048 574.81 598.947 574.465 598.971 574.109C598.996 573.754 599.142 573.412 599.38 573.143C599.618 572.875 599.927 572.703 600.239 572.679C600.806 572.638 601.342 572.6 601.91 572.567C611.885 571.709 622.357 573.58 631.715 576.917C632.25 577.096 632.759 577.266 633.291 577.447C634.243 577.767 634.987 578.509 635.343 579.558C635.699 580.604 635.637 581.871 635.189 583.032C634.742 584.193 633.95 585.138 633.008 585.613C632.064 586.09 631.047 586.057 630.161 585.569C629.675 585.302 629.211 585.047 628.726 584.784C620.186 579.958 611.441 576.683 601.663 575.747C601.115 575.684 600.595 575.626 600.044 575.57Z" fill="#007BA4"/>
</g>
<path d="M188.386 426.848C242.991 339.082 360.201 310.447 450.16 362.809C540.119 415.172 568.846 528.753 514.24 616.519C459.635 704.286 342.425 732.921 252.466 680.559C162.507 628.196 133.78 514.615 188.386 426.848Z" fill="#86D0E3" stroke="#0C74AB" stroke-width="7"/>
<path d="M532.329 478.886C548.479 528.535 528.1 591.337 512.565 611.461C460.861 706.195 334.638 726.638 253.271 676.36C202.305 644.867 316.739 728.469 443.05 639.83C515.954 595.351 532.329 478.886 532.329 478.886Z" fill="#37B4CA"/>
<path opacity="0.77" d="M468.01 471.581L479.219 466.465L490.737 466.465L495.474 466.465L499.582 469.045L501.157 474.251L501.157 481.077L497.54 489.074L490.737 485.127L479.219 482.984L470.153 485.127L464.986 485.127L462.921 474.251L468.01 471.581Z" fill="#004F80"/>
<path opacity="0.7" d="M458.844 423.779L459.542 415.81L458.652 408.214L453.836 399.624L446.086 390.128L433.167 381.631L428.517 383.63L423.866 388.128L423.866 393.626L433.167 395.126L440.402 403.122L444.27 412.553L443.66 419.525L442.962 427.493L450.17 428.084L455.45 427.012L458.844 423.779Z" fill="#014C83"/>
<path d="M352 588.545C373.377 585.054 385.413 578.49 406.97 561" stroke="#0082AA" stroke-width="5" stroke-linecap="round"/>
<path d="M207.041 523.305C232.059 528.749 247.113 532.592 258.624 536.596C270.771 540.821 279.043 545.248 291.083 552.114C301.607 558.116 312.62 563.023 321.677 567.408C326.253 569.623 330.323 571.7 333.711 573.751C337.127 575.818 339.651 577.742 341.27 579.589C342.851 581.393 343.386 582.903 343.325 584.29C343.261 585.741 342.514 587.738 340.117 590.416C335.229 595.878 324.732 602.804 305.952 611.881L304.308 612.676L304.018 614.457C302.772 622.12 301.206 628.706 298.896 633.345C296.606 637.945 294.03 639.839 290.946 639.933C287.379 640.041 281.806 637.871 273.448 630.734C265.227 623.716 254.87 612.383 241.811 595.399L241.717 595.275L241.611 595.161C219.806 571.523 210.54 550.092 207.041 523.305Z" fill="#CD0131" stroke="#0875A4" stroke-width="7"/>
<path d="M239.665 536.371C248.098 539.92 260.086 569.635 254.498 577.202C253.7 579.118 241.954 568.058 231.117 555.646C220.28 543.234 217.889 540.212 213.206 528.888C220.397 532.102 227.688 530.037 239.665 536.371Z" fill="#ED2D51"/>
<path d="M326.574 564.214L326.618 564.26L326.667 564.3L330.697 567.662L334.728 571.023L332.426 569.104L336.381 570.66L342.984 575.443L344.522 576.034L350.924 579.736L363.585 588.937L351.03 593.688L337.553 596.645L344.911 596.029L332.878 597.67L322.458 597.958L318.805 595.707L315.638 592.132L313.463 586.965L312.567 579.8L314.461 571.41L317.115 563.433L323.016 562.192L326.574 564.214Z" fill="#FEFEFE" stroke="#0578A5" stroke-width="3"/>
<path d="M376.265 601.167L376.224 601.141L376.188 601.11L370.932 596.435L370.902 596.408L370.877 596.379L367.017 591.84L367.002 591.822L364.308 588.012L345.589 595.254L338.613 597.173L325.851 600.683L337.156 609.321L343.329 611.133L349.357 610.86L355.571 610.129L363.474 609.162L370.688 607.178L379.632 605.304L373.483 606.592L381.137 604.304L376.265 601.167Z" fill="#FEFEFE" stroke="#0875A4" stroke-width="3"/>
<path d="M434.758 426.625C455.527 438.815 460.186 470.105 444.399 496.01C435.492 510.626 429.378 521.982 414.555 525.111C403.77 529.505 394.649 533.785 380.679 525.586C359.989 513.443 353.055 478.27 369.155 451.85C385.256 425.429 414.067 414.482 434.758 426.625Z" fill="#FEFEFE" stroke="#0F79AB" stroke-width="6"/>
<path d="M408.774 523.638C414.069 528.832 423.687 527.813 430.256 521.363C436.826 514.913 437.859 505.474 432.564 500.28C427.269 495.086 417.651 496.105 411.081 502.555C404.512 509.005 403.479 518.445 408.774 523.638Z" fill="#2B2A28"/>
<path d="M442.514 521.898C441.245 522.266 440.226 523.118 439.701 524.311C439.174 525.502 439.184 526.937 439.71 528.256C440.236 529.574 441.229 530.656 442.454 531.217C443.681 531.781 445.038 531.779 446.246 531.257C446.246 531.257 446.246 531.257 446.246 531.257C447.49 530.72 448.665 530.216 449.91 529.695C471.7 520.053 495.279 515.118 519.93 515.549C521.309 515.543 522.638 515.54 524.024 515.546C522.643 515.374 521.318 515.212 519.941 515.053C495.618 511.598 470.012 513.655 446.463 520.77C445.122 521.147 443.853 521.506 442.514 521.898Z" fill="#1D8EAF"/>
<path d="M446.024 520.752C444.312 520.736 442.768 521.419 441.742 522.721C440.714 524.019 440.288 525.83 440.547 527.685C440.806 529.539 441.726 531.266 443.095 532.415C444.464 533.568 446.171 534.048 447.848 533.82C447.848 533.82 447.848 533.82 447.848 533.82C449.329 533.618 450.807 533.431 452.295 533.258C478.88 530.445 507.454 530.735 533.423 543.526C534.847 544.264 536.251 545.048 537.625 545.88C537.625 545.88 537.625 545.88 537.625 545.88C536.363 544.872 535.058 543.901 533.719 542.97C509.114 526.525 479.18 521.827 450.798 520.831C449.204 520.789 447.617 520.763 446.024 520.752Z" fill="#1D8EAF"/>
<path d="M447.399 522.864C446.243 522.262 444.975 522.215 443.849 522.808C442.725 523.396 441.837 524.576 441.402 526.013C440.967 527.451 441.028 529.006 441.594 530.262C442.159 531.523 443.182 532.382 444.416 532.724C444.416 532.724 444.416 532.724 444.416 532.724C445.208 532.945 445.959 533.155 446.746 533.384C460.683 537.174 473.851 543.634 484.775 554.896C485.394 555.506 485.991 556.104 486.603 556.731C486.603 556.731 486.603 556.731 486.603 556.731C486.108 555.989 485.626 555.275 485.119 554.545C476.466 541.26 463.325 530.96 449.672 524.054C448.902 523.647 448.171 523.262 447.399 522.864Z" fill="#1D8EAF"/>
<path d="M412.051 564.094C421.966 571.375 436.668 568.537 444.889 557.756C453.109 546.974 451.736 532.332 441.82 525.051C431.905 517.77 417.203 520.607 408.982 531.389C400.762 542.17 402.135 556.813 412.051 564.094Z" fill="#FF4664"/>
<path d="M25.569 396.721C34.4191 393.531 45.5059 393.328 57.7077 395.64C69.8683 397.943 82.8532 402.693 95.2991 409.078C120.35 421.929 142.382 440.957 151.183 458.813C157.3 471.223 159.781 486.925 158.813 500.714C158.331 507.589 157.001 513.831 154.95 518.846C153.76 521.756 152.37 524.15 150.842 526.015C150.795 525.876 150.748 525.735 150.7 525.591C149.947 523.288 149.201 520.591 148.245 517.305C146.358 510.817 143.813 502.616 139.362 493.163C130.434 474.202 114.003 450.547 80.3123 425.014L79.9409 424.732L79.5135 424.543L56.4372 414.34C49.7624 411.381 44.0689 408.84 39.2523 406.643C30.3909 402.603 24.7209 399.827 21.4086 397.842C22.4852 397.537 23.7456 397.209 25.2088 396.832L25.3911 396.785L25.569 396.721Z" fill="#91E1E6" stroke="#0082AA" stroke-width="8"/>
<path d="M155.271 488.687C157.55 500.125 154.835 495.474 155.469 503.95C148.133 473.677 161.3 503.809 152.148 515.524C152.684 516.368 149.064 505.048 142.951 493.531C145.513 461.133 146.582 445.067 155.271 488.687Z" fill="#2FC7CE"/>
<path d="M0.881549 416.885C-0.481246 409.98 0.652374 405.841 3.43032 403.687L3.53894 403.603L3.63889 403.51C6.99866 400.374 12.5324 398.753 20.0669 399.039C27.5438 399.322 36.5609 401.476 46.3146 405.348C65.8134 413.088 87.7407 427.488 105.341 446.346C123.042 465.311 135.912 485.452 142.292 502.623C145.484 511.215 146.996 518.916 146.781 525.277C146.566 531.613 144.655 536.411 141.211 539.626C137.748 542.857 132.869 544.459 126.631 544.291C120.364 544.122 112.906 542.161 104.676 538.465C88.2387 531.082 69.2837 517.034 51.5916 498.088C37.1586 481.336 21.2103 460.07 10.9602 441.468C5.8163 432.133 2.22051 423.667 0.881549 416.885Z" fill="#2FC7CE" stroke="#0082AA" stroke-width="6"/>
<g clip-path="url(#clip2_448_33)">
<path d="M277.341 350.885C281.963 357.693 285.732 359.44 289.276 359.425C293.588 359.407 298.842 356.827 305.865 351.67C319.252 341.838 315.524 311.04 340.465 297.834L343.669 294.544L350.434 287.6C370.79 281.702 401.826 298.76 415.269 290.269C428.167 282.122 436.359 271.352 437.948 254.695C430.989 235.172 422.712 222.125 413.954 213.793C405.099 205.37 395.424 201.446 385.302 200.756C364.653 199.349 342.083 211.418 322.656 227.461L322.507 227.584L322.347 227.691C302.861 240.859 287.965 265.207 279.859 290.046C275.82 302.421 273.536 314.712 273.16 325.524C272.786 336.293 274.325 345.006 277.341 350.885Z" fill="#87CFE5" stroke="#0076B8" stroke-width="7"/>
<path d="M402.269 261.69C402.034 261.593 401.882 261.348 401.84 261.023C401.799 260.698 401.87 260.318 402.046 259.954C402.221 259.59 402.489 259.269 402.796 259.047C403.103 258.826 403.423 258.722 403.681 258.771C404.235 258.881 404.771 258.99 405.319 259.111C415.276 260.753 423.692 267.511 428.506 277.204C428.795 277.736 429.066 278.245 429.346 278.788C427.077 280.9 424.808 283.011 422.54 285.123C422.35 284.543 422.168 283.996 421.97 283.428C418.692 273.152 412.712 265.807 403.734 262.311C403.245 262.097 402.767 261.893 402.269 261.69Z" fill="#0074AB"/>
<path d="M414.574 237.258C414.347 237.206 414.163 236.979 414.06 236.645C413.958 236.31 413.943 235.896 414.025 235.475C414.107 235.054 414.279 234.655 414.507 234.347C414.735 234.04 414.999 233.849 415.239 233.835C415.675 233.812 416.087 233.792 416.522 233.778C424.213 233.215 431.79 235.914 438.263 240.302C438.635 240.538 438.989 240.763 439.359 241.003C440.021 241.427 440.45 242.341 440.531 243.602C440.612 244.859 440.339 246.36 439.792 247.718C439.246 249.075 438.478 250.162 437.682 250.682C436.883 251.205 436.12 251.119 435.539 250.5C435.219 250.161 434.914 249.837 434.594 249.503C429.007 243.385 422.986 239.098 415.766 237.541C415.362 237.442 414.98 237.349 414.574 237.258Z" fill="#007BA4"/>
</g>
</g>
<defs>
<clipPath id="clip0_448_33">
<rect width="900" height="721" fill="white"/>
</clipPath>
<clipPath id="clip1_448_33">
<rect width="92.1769" height="149" fill="white" transform="matrix(-0.619863 0.78471 0.78471 0.619863 541.137 491)"/>
</clipPath>
<clipPath id="clip2_448_33">
<rect width="118.31" height="197.988" fill="white" transform="matrix(0.467948 0.883756 0.883756 -0.467948 228 267.648)"/>
</clipPath>
</defs>
</svg>
