<svg width="900" height="721" viewBox="0 0 900 721" fill="none" xmlns="http://www.w3.org/2000/svg">
<g clip-path="url(#clip0_448_31)">
<path d="M740.877 434.433C766.877 456.456 798.563 503.77 793.172 521.357C799.46 559.043 772.956 579.411 745.054 582.105C716.799 584.833 649.761 527.909 594.442 474.729L594.332 474.624L594.218 474.525C556.488 441.865 514.507 429.836 485.387 421.758C478.058 419.725 471.682 417.982 466.29 416.224C460.846 414.449 456.853 412.797 454.162 411.091C451.478 409.389 450.867 408.133 450.717 407.419C450.557 406.65 450.584 404.837 452.81 401.218L454.28 398.83L453.428 396.198C452.047 391.928 452.269 389.219 452.953 387.478C453.618 385.787 455.09 384.068 458.164 382.481C464.699 379.106 476.18 377.494 492.227 377.5C523.987 377.511 568.646 383.686 614.959 388.263C673.135 394.012 715.138 412.631 740.877 434.433Z" fill="#87CFE5" stroke="#0E6B96" stroke-width="12"/>
<path d="M791.31 272.388C789.31 259.698 771.641 248.496 760.423 241.418C749.011 234.218 723.352 225.261 702.929 224.595C662.129 223.262 628.969 210.642 566.055 241.811C540.903 256.621 515.029 270.456 491.114 283.314C467.041 296.256 445.044 308.161 427.426 319.207C409.543 330.419 397.246 340.112 391.602 348.359C388.88 352.337 388.23 355.224 388.462 357.334C388.683 359.365 389.879 362.09 393.876 365.424L396.765 367.836L396.389 371.627C395.88 376.766 396.901 378.429 397.303 378.883C397.691 379.322 398.96 380.289 403.07 380.314C407.104 380.338 406.725 373.035 413.832 371.264C420.861 369.512 424.558 363.614 433.851 360.722C470.785 349.227 489.602 328.22 548.683 329.709L515.664 331.537L584.249 326.809L618.789 332.637C718.129 346.368 748.521 344.216 772.945 322.764C797.283 301.389 795.925 301.689 791.31 272.388Z" fill="#8BCDE5" stroke="#0E6B96" stroke-width="12"/>
<path d="M269.076 660.094C274.034 655.344 282.621 651.901 293.853 649.97C304.963 648.061 318.119 647.723 331.629 648.724C358.82 650.74 386.451 658.092 401.115 667.975C402.184 668.696 403.88 669.667 405.735 670.739C407.662 671.851 409.938 673.17 412.384 674.685C417.3 677.73 422.752 681.48 427.174 685.716C431.66 690.014 434.658 694.409 435.423 698.681C436.115 702.544 435.107 707.058 429.903 712.267C429.303 712.596 428.035 713.089 425.823 713.604C423.392 714.171 420.203 714.684 416.303 715.113C408.514 715.969 398.167 716.461 385.949 716.467C361.525 716.477 329.873 714.542 296.7 709.799L296.407 709.757L296.111 709.759L294.038 709.763C272.911 709.699 260.723 706.746 254.194 702.788C250.926 700.806 249.211 698.655 248.36 696.578C247.499 694.476 247.367 692.066 247.928 689.326C249.085 683.681 253.027 677.422 257.597 671.855C262.088 666.384 266.804 662.036 268.901 660.253L268.991 660.176L269.076 660.094Z" fill="#91E1E6" stroke="#0082AA" stroke-width="8"/>
<path d="M423.8 686.037C434.471 693.392 435.641 698.478 431.22 706.616C423.344 713.315 422.558 712.732 403.735 710.607C410.089 707.704 412.9 706.564 409.321 692.724C385.396 658.667 411.616 677.639 423.8 686.037Z" fill="#2FC7CE"/>
<g clip-path="url(#clip1_448_31)">
<path d="M451.883 524.617C447.014 528.781 445.947 531.774 446.21 534.413C446.529 537.626 448.871 541.269 453.306 545.958C461.76 554.896 477.044 566.688 488.893 583.88L489.065 584.129L489.18 584.411C495.126 598.959 500.499 611.883 507.934 621.005C515.068 629.756 523.87 634.723 536.699 634.147C551.11 626.897 560.484 619.35 566.224 611.942C572.026 604.452 574.335 596.827 574.145 589.21C573.755 573.673 562.943 558.128 549.318 545.344L549.213 545.246L549.12 545.139C537.687 532.008 518.044 523.48 498.507 520.063C488.773 518.361 479.228 517.958 470.947 518.821C462.7 519.68 456.157 521.747 451.883 524.617Z" fill="#87CFE5" stroke="#0076B8" stroke-width="7"/>
<path d="M526.569 599.932C526.349 599.737 526.237 599.444 526.248 599.125C526.261 598.807 526.396 598.489 526.633 598.234C526.869 597.977 527.191 597.801 527.536 597.735C527.881 597.669 528.22 597.717 528.47 597.878C529.008 598.228 529.527 598.57 530.057 598.927C539.774 604.914 547.094 614.92 550.312 626.011C550.514 626.631 550.702 627.222 550.892 627.847C548.264 628.773 545.637 629.698 543.01 630.623C542.916 630.004 542.825 629.419 542.721 628.807C541.14 617.869 536.361 608.416 527.934 601.162C527.48 600.746 527.034 600.343 526.569 599.932Z" fill="#0074AB"/>
<path d="M543.302 577.162C543.017 577.041 542.797 576.784 542.685 576.463C542.574 576.142 542.579 575.783 542.707 575.45C542.835 575.117 543.075 574.833 543.382 574.647C543.688 574.461 544.034 574.387 544.339 574.456C544.893 574.584 545.417 574.706 545.969 574.841C555.755 576.956 565.212 581.827 573.174 587.771C573.632 588.099 574.069 588.411 574.524 588.741C575.339 589.327 575.832 590.255 575.863 591.362C575.896 592.467 575.464 593.659 574.694 594.637C573.925 595.615 572.89 596.286 571.85 596.462C570.807 596.64 569.845 596.309 569.142 595.582C568.756 595.184 568.388 594.803 568.001 594.409C561.26 587.284 553.866 581.58 544.797 577.807C544.292 577.586 543.812 577.377 543.302 577.162Z" fill="#007BA4"/>
</g>
<path d="M141.386 396.848C195.991 309.082 313.201 280.447 403.16 332.809C493.119 385.172 521.846 498.753 467.24 586.519C412.635 674.286 295.425 702.921 205.466 650.559C115.507 598.196 86.7802 484.615 141.386 396.848Z" fill="#86D0E3" stroke="#0C74AB" stroke-width="7"/>
<path d="M485.329 448.886C501.479 498.535 481.1 561.337 465.565 581.461C413.861 676.195 287.638 696.638 206.271 646.36C155.305 614.867 269.739 698.469 396.05 609.83C468.954 565.351 485.329 448.886 485.329 448.886Z" fill="#37B4CA"/>
<path opacity="0.77" d="M421.01 441.581L432.219 436.465L443.737 436.465L448.474 436.465L452.582 439.045L454.157 444.251L454.157 451.077L450.54 459.074L443.737 455.127L432.219 452.984L423.153 455.127L417.986 455.127L415.921 444.251L421.01 441.581Z" fill="#004F80"/>
<path opacity="0.7" d="M411.844 393.779L412.542 385.81L411.652 378.214L406.836 369.624L399.086 360.128L386.167 351.631L381.517 353.63L376.866 358.128L376.866 363.626L386.167 365.126L393.402 373.122L397.27 382.553L396.66 389.525L395.962 397.493L403.17 398.084L408.45 397.012L411.844 393.779Z" fill="#014C83"/>
<path d="M305 558.545C326.377 555.054 338.413 548.49 359.97 531" stroke="#0082AA" stroke-width="5" stroke-linecap="round"/>
<path d="M160.041 493.305C185.059 498.749 200.113 502.592 211.624 506.596C223.771 510.821 232.043 515.248 244.083 522.114C254.607 528.116 265.62 533.023 274.677 537.408C279.253 539.623 283.323 541.7 286.711 543.751C290.127 545.818 292.651 547.742 294.27 549.589C295.851 551.393 296.386 552.903 296.325 554.29C296.261 555.741 295.514 557.738 293.117 560.416C288.229 565.878 277.732 572.804 258.952 581.881L257.308 582.676L257.018 584.457C255.772 592.12 254.206 598.706 251.896 603.345C249.606 607.945 247.03 609.839 243.946 609.933C240.379 610.041 234.806 607.871 226.448 600.734C218.227 593.716 207.87 582.383 194.811 565.399L194.717 565.275L194.611 565.161C172.806 541.523 163.54 520.092 160.041 493.305Z" fill="#CD0131" stroke="#0875A4" stroke-width="7"/>
<path d="M192.665 506.371C201.098 509.92 213.086 539.635 207.498 547.202C206.7 549.118 194.954 538.058 184.117 525.646C173.28 513.234 170.889 510.212 166.206 498.888C173.397 502.102 180.688 500.037 192.665 506.371Z" fill="#ED2D51"/>
<path d="M279.574 534.214L279.618 534.26L279.667 534.3L283.697 537.662L287.728 541.023L285.426 539.104L289.381 540.66L295.984 545.443L297.522 546.034L303.924 549.736L316.585 558.937L304.03 563.688L290.553 566.645L297.911 566.029L285.878 567.67L275.458 567.958L271.805 565.707L268.638 562.132L266.463 556.965L265.567 549.8L267.461 541.41L270.115 533.433L276.016 532.192L279.574 534.214Z" fill="#FEFEFE" stroke="#0578A5" stroke-width="3"/>
<path d="M329.265 571.167L329.224 571.141L329.188 571.11L323.932 566.435L323.902 566.408L323.877 566.379L320.017 561.84L320.002 561.822L317.308 558.012L298.589 565.254L291.613 567.173L278.851 570.683L290.156 579.321L296.329 581.133L302.357 580.86L308.571 580.129L316.474 579.162L323.688 577.178L332.632 575.304L326.483 576.592L334.137 574.304L329.265 571.167Z" fill="#FEFEFE" stroke="#0875A4" stroke-width="3"/>
<path d="M387.758 396.625C408.527 408.815 413.186 440.105 397.399 466.01C388.492 480.626 382.378 491.982 367.555 495.111C356.77 499.505 347.649 503.785 333.679 495.586C312.989 483.443 306.055 448.27 322.155 421.85C338.256 395.429 367.067 384.482 387.758 396.625Z" fill="#FEFEFE" stroke="#0F79AB" stroke-width="6"/>
<path d="M361.774 493.638C367.069 498.832 376.687 497.813 383.256 491.363C389.826 484.913 390.859 475.474 385.564 470.28C380.269 465.086 370.651 466.105 364.081 472.555C357.512 479.005 356.479 488.445 361.774 493.638Z" fill="#2B2A28"/>
<path d="M395.514 491.898C394.245 492.266 393.226 493.118 392.701 494.311C392.174 495.502 392.184 496.937 392.71 498.256C393.236 499.574 394.229 500.656 395.454 501.217C396.681 501.781 398.038 501.779 399.246 501.257C399.246 501.257 399.246 501.257 399.246 501.257C400.49 500.72 401.665 500.216 402.91 499.695C424.7 490.053 448.279 485.118 472.93 485.549C474.309 485.543 475.638 485.54 477.024 485.546C475.643 485.374 474.318 485.212 472.941 485.053C448.618 481.598 423.012 483.655 399.463 490.77C398.122 491.147 396.853 491.506 395.514 491.898Z" fill="#1D8EAF"/>
<path d="M399.024 490.752C397.312 490.736 395.768 491.419 394.742 492.721C393.714 494.019 393.288 495.83 393.547 497.685C393.806 499.539 394.726 501.266 396.095 502.415C397.464 503.568 399.171 504.048 400.848 503.82C400.848 503.82 400.848 503.82 400.848 503.82C402.329 503.618 403.807 503.431 405.295 503.258C431.88 500.445 460.454 500.735 486.423 513.526C487.847 514.264 489.251 515.048 490.625 515.88C490.625 515.88 490.625 515.88 490.625 515.88C489.363 514.872 488.058 513.901 486.719 512.97C462.114 496.525 432.18 491.827 403.798 490.831C402.204 490.789 400.617 490.763 399.024 490.752Z" fill="#1D8EAF"/>
<path d="M400.397 492.864C399.241 492.262 397.973 492.215 396.847 492.808C395.723 493.396 394.835 494.576 394.4 496.013C393.965 497.451 394.026 499.006 394.592 500.262C395.157 501.523 396.18 502.382 397.414 502.724C397.414 502.724 397.414 502.724 397.414 502.724C398.206 502.945 398.957 503.155 399.744 503.384C413.681 507.174 426.849 513.634 437.773 524.896C438.392 525.506 438.989 526.104 439.601 526.731C439.601 526.731 439.601 526.731 439.601 526.731C439.106 525.989 438.624 525.275 438.117 524.545C429.464 511.26 416.323 500.96 402.67 494.054C401.9 493.647 401.169 493.262 400.397 492.864Z" fill="#1D8EAF"/>
<path d="M365.051 534.094C374.966 541.375 389.668 538.537 397.889 527.756C406.109 516.974 404.736 502.332 394.82 495.051C384.905 487.77 370.203 490.607 361.982 501.389C353.762 512.17 355.135 526.813 365.051 534.094Z" fill="#FF4664"/>
<path d="M36.9005 325.732C46.3014 326.081 56.6606 330.037 67.1141 336.741C77.5323 343.423 87.801 352.681 96.9583 363.255C115.39 384.539 128.714 410.422 130.203 430.273C131.238 444.071 127.67 459.562 121.619 471.989C118.602 478.186 115.035 483.479 111.259 487.364C109.067 489.618 106.883 491.319 104.768 492.477C104.777 492.331 104.786 492.183 104.796 492.031C104.958 489.614 105.274 486.833 105.615 483.428C106.29 476.705 106.995 468.147 106.4 457.716C105.205 436.792 98.8069 408.71 77.1014 372.435L76.8622 372.035L76.5363 371.7L58.9463 353.611C53.8612 348.372 49.5302 343.887 45.8835 340.049C39.1745 332.99 34.9531 328.296 32.6228 325.216C33.7353 325.336 35.027 325.503 36.5248 325.7L36.7116 325.724L36.9005 325.732Z" fill="#91E1E6" stroke="#0082AA" stroke-width="8"/>
<path d="M122.827 459.511C120.666 470.971 119.886 465.643 117.306 473.741C121.817 442.921 122.767 475.789 109.9 483.235C110.081 484.218 110.955 472.366 109.59 459.399C124.075 430.306 131.072 415.804 122.827 459.511Z" fill="#2FC7CE"/>
<path d="M6.46219 335.206C7.77867 328.293 10.3773 324.878 13.759 323.918L13.8912 323.881L14.0187 323.832C18.307 322.179 24.0455 322.744 30.9272 325.825C37.7563 328.882 45.3148 334.25 52.9144 341.487C68.1069 355.954 83.0629 377.506 92.3392 401.575C101.669 425.783 106.078 449.274 105.577 467.585C105.327 476.747 103.851 484.455 101.274 490.275C98.7066 496.071 95.1412 499.807 90.7446 501.502C86.3254 503.205 81.2011 502.867 75.478 500.38C69.7276 497.881 63.5439 493.274 57.2919 486.77C44.8048 473.779 32.4744 453.664 23.1459 429.478C16.0204 408.546 9.17645 382.86 6.62206 361.775C5.34015 351.194 5.16891 341.998 6.46219 335.206Z" fill="#2FC7CE" stroke="#0082AA" stroke-width="6"/>
<g clip-path="url(#clip2_448_31)">
<path d="M225.497 312.136C226.008 320.348 228.362 323.771 231.42 325.563C235.141 327.743 240.976 328.198 249.646 327.335C266.175 325.691 278.648 297.286 306.838 298.62L311.271 297.421L320.629 294.889C341.152 300.178 359.177 330.662 375.07 330.2C390.319 329.756 402.853 324.658 412.703 311.132C416.655 290.785 416.175 275.342 412.88 263.711C409.548 251.953 403.219 243.65 394.859 237.901C377.804 226.176 352.234 225.07 327.345 228.985L327.154 229.016L326.962 229.027C303.486 230.436 278.268 243.807 258.643 261.056C248.866 269.65 240.641 279.066 234.813 288.18C229.007 297.258 225.894 305.54 225.497 312.136Z" fill="#87CFE5" stroke="#0076B8" stroke-width="7"/>
<path d="M378.436 298.985C378.283 298.782 378.276 298.494 378.406 298.192C378.536 297.891 378.791 297.601 379.127 297.377C379.463 297.153 379.857 297.013 380.235 296.978C380.611 296.944 380.94 297.018 381.136 297.192C381.558 297.568 381.963 297.935 382.373 298.318C390.107 304.801 393.909 314.903 393.116 325.697C393.093 326.302 393.068 326.878 393.032 327.488C390.004 328.15 386.977 328.812 383.949 329.474C384.081 328.878 384.203 328.315 384.322 327.726C386.733 317.212 385.326 307.845 379.379 300.265C379.068 299.832 378.761 299.413 378.436 298.985Z" fill="#0074AB"/>
<path d="M401.466 284.223C401.296 284.062 401.254 283.773 401.335 283.433C401.418 283.093 401.616 282.73 401.901 282.409C402.186 282.088 402.537 281.832 402.89 281.683C403.243 281.535 403.567 281.505 403.781 281.615C404.168 281.818 404.533 282.01 404.914 282.22C411.82 285.651 416.967 291.833 420.303 298.906C420.503 299.298 420.693 299.672 420.89 300.067C421.243 300.768 421.147 301.774 420.575 302.9C420.005 304.024 419.005 305.176 417.843 306.066C416.682 306.957 415.468 307.501 414.518 307.543C413.564 307.586 412.951 307.124 412.766 306.295C412.663 305.84 412.566 305.406 412.461 304.956C410.767 296.846 407.768 290.09 402.347 285.073C402.05 284.783 401.769 284.508 401.466 284.223Z" fill="#007BA4"/>
</g>
</g>
<defs>
<clipPath id="clip0_448_31">
<rect width="900" height="721" fill="white"/>
</clipPath>
<clipPath id="clip1_448_31">
<rect width="92.1769" height="149" fill="white" transform="matrix(-0.823372 0.567502 0.567502 0.823372 511.896 479)"/>
</clipPath>
<clipPath id="clip2_448_31">
<rect width="118.31" height="197.988" fill="white" transform="matrix(-0.0472731 0.998882 0.998882 0.0472731 225.416 215.374)"/>
</clipPath>
</defs>
</svg>
