<svg width="900" height="721" viewBox="0 0 900 721" fill="none" xmlns="http://www.w3.org/2000/svg">
<g clip-path="url(#clip0_449_130)">
<path d="M723.016 200.097C756.905 203.64 809.744 224.871 815.201 242.438C841.631 270.027 831.213 301.788 809.681 319.737C787.877 337.912 700.419 328.664 624.752 315.904L624.602 315.879L624.451 315.861C574.878 310.142 533.419 323.861 504.811 333.597C497.611 336.048 491.361 338.2 485.916 339.787C480.419 341.388 476.19 342.274 473.005 342.38C469.828 342.487 468.615 341.794 468.09 341.288C467.524 340.743 466.525 339.23 466.324 334.986L466.193 332.185L464.005 330.491C460.459 327.742 459.115 325.378 458.7 323.555C458.296 321.783 458.544 319.534 460.189 316.49C463.686 310.02 472.262 302.218 485.522 293.181C511.765 275.292 552.139 255.228 592.977 232.912C644.277 204.878 689.467 196.591 723.016 200.097Z" fill="#87CFE5" stroke="#0E6B96" stroke-width="12"/>
<path d="M721.279 48.2878C713.543 38.032 692.681 36.4635 679.452 35.4976C665.994 34.5153 639.139 38.6876 620.806 47.7111C584.179 65.7368 548.982 70.2074 508.138 127.317C492.916 152.221 476.597 176.606 461.548 199.205C446.398 221.954 432.592 242.811 422.245 260.848C411.743 279.156 405.455 293.497 404.356 303.43C403.826 308.22 404.612 311.073 405.809 312.826C406.96 314.514 409.297 316.355 414.393 317.417L418.078 318.185L419.53 321.707C421.5 326.48 423.183 327.467 423.752 327.679C424.3 327.883 425.875 328.14 429.513 326.227C433.084 324.351 429.313 318.085 434.75 313.177C440.128 308.324 440.613 301.38 447.452 294.455C474.631 266.931 481.347 239.539 534.177 213.049L505.904 230.201L564.193 193.752L597.413 182.638C691.525 148.003 717.329 131.801 728.784 101.379C740.198 71.0644 739.142 71.9685 721.279 48.2878Z" fill="#8BCDE5" stroke="#0E6B96" stroke-width="12"/>
<path d="M282.308 606.039C288.777 603.736 298.021 604.111 309.058 606.95C319.976 609.759 332.116 614.838 344.031 621.285C368.012 634.259 390.209 652.283 399.538 667.304C400.219 668.4 401.367 669.981 402.621 671.718C403.923 673.522 405.46 675.657 407.071 678.041C410.309 682.833 413.746 688.486 416.046 694.162C418.378 699.92 419.313 705.158 418.261 709.369C417.31 713.176 414.542 716.881 407.662 719.502C406.979 719.556 405.621 719.486 403.391 719.051C400.942 718.573 397.822 717.734 394.089 716.528C386.632 714.119 376.992 710.331 365.843 705.332C343.557 695.339 315.473 680.61 287.152 662.697L286.902 662.539L286.631 662.419L284.739 661.574C265.491 652.863 255.581 645.178 251.246 638.893C249.076 635.746 248.392 633.082 248.467 630.838C248.542 628.569 249.409 626.315 251.043 624.046C254.411 619.37 260.57 615.274 267.019 612.067C273.357 608.915 279.439 606.88 282.083 606.112L282.196 606.079L282.308 606.039Z" fill="#91E1E6" stroke="#0082AA" stroke-width="8"/>
<path d="M412.836 693.073C419.559 704.153 418.544 709.272 411.178 714.885C401.249 717.771 400.771 716.918 384.469 707.27C391.454 707.224 394.486 707.335 396.889 693.243C389.01 652.375 405.16 680.422 412.836 693.073Z" fill="#2FC7CE"/>
<g clip-path="url(#clip1_449_130)">
<path d="M457.422 486.261C453.993 491.673 453.855 494.848 454.883 497.293C456.134 500.269 459.444 503.062 465.063 506.237C475.774 512.291 493.851 519.062 510.235 532.005L510.473 532.192L510.667 532.429C520.631 544.582 529.57 555.352 539.36 561.881C548.753 568.145 558.628 570.301 570.719 565.975C582.358 554.804 589.095 544.832 592.4 536.063C595.741 527.197 595.704 519.23 593.28 512.007C588.334 497.272 573.425 485.598 556.641 477.392L556.512 477.329L556.392 477.253C541.6 468.069 520.317 465.701 500.64 468.186C490.837 469.424 481.595 471.848 473.936 475.11C466.306 478.359 460.662 482.26 457.422 486.261Z" fill="#87CFE5" stroke="#0076B8" stroke-width="7"/>
<path d="M550.965 536.257C550.698 536.135 550.505 535.888 550.422 535.58C550.34 535.272 550.376 534.929 550.527 534.615C550.677 534.3 550.933 534.037 551.244 533.872C551.553 533.708 551.891 533.654 552.178 533.735C552.795 533.91 553.392 534.084 554.003 534.27C565.053 537.131 574.993 544.539 581.333 554.191C581.708 554.725 582.062 555.234 582.427 555.776C580.189 557.434 577.951 559.092 575.712 560.749C575.44 560.185 575.18 559.653 574.901 559.098C570.171 549.11 562.821 541.483 552.633 537.031C552.076 536.766 551.532 536.513 550.965 536.257Z" fill="#0074AB"/>
<path d="M560.257 509.57C559.948 509.539 559.663 509.358 559.461 509.085C559.261 508.81 559.16 508.465 559.184 508.109C559.208 507.754 559.355 507.412 559.593 507.143C559.831 506.875 560.14 506.703 560.451 506.679C561.019 506.638 561.555 506.6 562.123 506.567C572.098 505.709 582.57 507.58 591.928 510.917C592.463 511.096 592.972 511.266 593.504 511.447C594.456 511.767 595.2 512.509 595.555 513.558C595.912 514.604 595.85 515.871 595.402 517.032C594.955 518.193 594.163 519.138 593.221 519.613C592.277 520.09 591.26 520.057 590.374 519.569C589.888 519.302 589.424 519.047 588.938 518.784C580.399 513.958 571.654 510.683 561.876 509.747C561.327 509.684 560.808 509.626 560.257 509.57Z" fill="#007BA4"/>
</g>
<path d="M156.599 344.848C211.204 257.082 328.413 228.447 418.373 280.809C508.331 333.172 537.059 446.753 482.453 534.519C427.848 622.286 310.638 650.921 220.679 598.559C130.72 546.196 101.993 432.615 156.599 344.848Z" fill="#86D0E3" stroke="#0C74AB" stroke-width="7"/>
<path d="M500.542 396.885C516.692 446.534 496.313 509.337 480.778 529.46C429.074 624.195 302.851 644.637 221.484 594.36C170.518 562.867 284.952 646.469 411.263 557.829C484.167 513.35 500.542 396.885 500.542 396.885Z" fill="#37B4CA"/>
<path opacity="0.77" d="M425.363 391.313L434.112 382.637L444.92 378.655L449.365 377.017L454.111 378.017L457.389 382.357L459.749 388.763L459.12 397.517L451.372 396.165L439.824 398.137L432.057 403.282L427.209 405.069L421.51 395.578L425.363 391.313Z" fill="#004F80"/>
<path opacity="0.7" d="M410.477 341.858L411.175 333.89L410.285 326.293L405.469 317.703L397.718 308.207L384.8 299.71L380.15 301.709L375.499 306.208L375.499 311.705L384.8 313.205L392.034 321.201L395.903 330.632L395.293 337.604L394.595 345.572L401.803 346.163L407.083 345.091L410.477 341.858Z" fill="#014C83"/>
<path d="M326.619 516.614C347.996 513.123 360.033 506.559 381.589 489.068" stroke="#0082AA" stroke-width="5" stroke-linecap="round"/>
<path d="M301.626 496.074L301.674 496.116L301.726 496.152L306.013 499.179L310.299 502.207L307.852 500.478L311.918 501.712L318.883 505.95L320.464 506.416L327.142 509.593L340.5 517.749L328.367 523.492L315.17 527.519L322.455 526.315L310.592 528.916L300.229 530.039L296.407 528.088L292.963 524.778L290.382 519.802L288.914 512.732L290.129 504.217L292.135 496.053L297.917 494.343L301.626 496.074Z" fill="#FEFEFE" stroke="#0578A5" stroke-width="3"/>
<path d="M354.118 528.923L354.075 528.9L354.036 528.872L348.423 524.634L348.39 524.609L348.363 524.582L344.152 520.367L344.135 520.35L341.145 516.769L323.067 525.488L316.267 527.96L303.827 532.483L315.789 540.186L322.087 541.498L328.074 540.742L334.209 539.515L342.01 537.918L349.041 535.361L357.805 532.777L351.78 534.554L359.226 531.658L354.118 528.923Z" fill="#FEFEFE" stroke="#0875A4" stroke-width="3"/>
<path d="M381.707 346.416C403.956 355.631 412.876 385.982 400.805 413.814C393.994 429.517 389.501 441.606 375.249 446.745C365.171 452.581 356.726 458.076 341.762 451.878C319.597 442.697 307.888 408.814 320.2 380.429C332.511 352.044 359.542 337.236 381.707 346.416Z" fill="#FEFEFE" stroke="#0F79AB" stroke-width="6"/>
<path d="M369.12 445.542C375.144 449.87 384.495 447.399 390.006 440.024C395.518 432.649 395.102 423.163 389.079 418.835C383.055 414.508 373.704 416.979 368.193 424.353C362.681 431.728 363.097 441.215 369.12 445.542Z" fill="#2B2A28"/>
<path d="M392.72 440.186C391.529 440.759 390.666 441.768 390.346 443.032C390.024 444.294 390.272 445.708 391.009 446.921C391.745 448.134 392.905 449.036 394.206 449.386C395.509 449.739 396.847 449.513 397.951 448.797C397.951 448.797 397.951 448.797 397.951 448.797C399.089 448.062 400.165 447.37 401.306 446.65C421.197 433.53 443.633 424.756 468.014 421.096C469.373 420.861 470.683 420.638 472.05 420.414C470.661 420.474 469.326 420.534 467.942 420.605C443.383 421.229 418.472 427.5 396.428 438.419C395.168 439.013 393.976 439.578 392.72 440.186Z" fill="#1D8EAF"/>
<path d="M395.991 438.475C394.301 438.742 392.891 439.671 392.094 441.126C391.296 442.576 391.176 444.432 391.739 446.219C392.302 448.005 393.495 449.555 395.036 450.461C396.577 451.371 398.339 451.562 399.956 451.06C399.956 451.06 399.956 451.06 399.956 451.06C401.382 450.615 402.809 450.185 404.248 449.769C430 442.588 458.227 438.14 485.956 446.45C487.483 446.942 488.997 447.483 490.49 448.075C490.49 448.075 490.49 448.075 490.49 448.075C489.078 447.29 487.63 446.55 486.156 445.853C459.165 433.713 428.867 434.04 400.712 437.762C399.133 437.984 397.564 438.221 395.991 438.475Z" fill="#1D8EAF"/>
<path d="M397.696 440.33C396.457 439.928 395.198 440.091 394.186 440.862C393.175 441.629 392.495 442.939 392.304 444.429C392.114 445.918 392.431 447.442 393.198 448.587C393.963 449.737 395.115 450.414 396.389 450.548C396.389 450.548 396.389 450.548 396.389 450.548C397.206 450.634 397.981 450.716 398.796 450.812C413.168 452.24 427.225 456.429 439.864 465.725C440.575 466.224 441.263 466.715 441.971 467.231C441.971 467.231 441.971 467.231 441.971 467.231C441.359 466.582 440.765 465.958 440.145 465.322C429.41 453.654 414.744 445.674 400.135 441.127C399.309 440.853 398.524 440.594 397.696 440.33Z" fill="#1D8EAF"/>
<path d="M375.166 484.227C385.081 491.508 399.783 488.67 408.004 477.889C416.225 467.107 414.851 452.465 404.936 445.184C395.02 437.902 380.318 440.74 372.098 451.522C363.877 462.303 365.251 476.946 375.166 484.227Z" fill="#FF4664"/>
<path d="M32.9835 253.653C42.39 253.525 52.9366 256.949 63.7171 263.114C74.461 269.259 85.1865 277.984 94.8689 288.079C114.358 308.4 128.978 333.573 131.473 353.323C133.208 367.05 130.43 382.702 125.018 395.421C122.319 401.763 119.026 407.23 115.451 411.302C113.377 413.665 111.282 415.473 109.229 416.738C109.23 416.592 109.231 416.443 109.234 416.291C109.273 413.869 109.447 411.076 109.616 407.657C109.948 400.909 110.217 392.326 109.093 381.939C106.838 361.102 99.0227 333.382 75.5036 298.255L75.2443 297.868L74.9019 297.55L56.4162 280.377C51.0717 275.403 46.5186 271.143 42.6817 267.496C35.623 260.786 31.1687 256.312 28.6851 253.355C29.8022 253.418 31.1008 253.519 32.6067 253.641L32.7945 253.655L32.9835 253.653Z" fill="#91E1E6" stroke="#0082AA" stroke-width="8"/>
<path d="M125.591 382.897C124.014 394.452 122.965 389.17 120.799 397.389C123.74 366.38 126.357 399.158 113.884 407.247C114.115 408.22 114.386 396.338 112.365 383.457C125.354 353.666 131.606 338.828 125.591 382.897Z" fill="#2FC7CE"/>
<path d="M3.06803 264.66C4.03185 257.689 6.45373 254.146 9.78237 253.016L9.91244 252.972L10.0374 252.916C14.2362 251.048 19.9959 251.321 27.0252 254.049C34.0007 256.755 41.822 261.733 49.7792 268.575C65.6866 282.252 81.7175 303.017 92.2037 326.584C102.75 350.286 108.346 373.523 108.776 391.837C108.991 400.999 107.909 408.773 105.63 414.715C103.36 420.635 99.9891 424.547 95.6843 426.462C91.3572 428.388 86.2223 428.31 80.3804 426.117C74.5105 423.913 68.101 419.626 61.5268 413.448C48.3963 401.107 35.0606 381.644 24.5162 357.964C16.3372 337.42 8.19806 312.114 4.57653 291.186C2.75908 280.684 2.12123 271.509 3.06803 264.66Z" fill="#2FC7CE" stroke="#0082AA" stroke-width="6"/>
<g clip-path="url(#clip2_449_130)">
<path d="M245.554 268.885C250.176 275.693 253.944 277.44 257.488 277.425C261.801 277.407 267.055 274.827 274.078 269.67C287.465 259.838 283.737 229.04 308.678 215.834L311.882 212.544L318.647 205.6C339.003 199.702 370.039 216.76 383.482 208.269C396.38 200.122 404.572 189.352 406.161 172.695C399.202 153.172 390.925 140.125 382.166 131.793C373.312 123.37 363.637 119.446 353.515 118.756C332.866 117.349 310.296 129.418 290.869 145.461L290.72 145.584L290.56 145.691C271.074 158.859 256.178 183.207 248.072 208.046C244.033 220.421 241.749 232.712 241.373 243.524C240.999 254.293 242.538 263.006 245.554 268.885Z" fill="#87CFE5" stroke="#0076B8" stroke-width="7"/>
<path d="M370.482 179.69C370.247 179.593 370.095 179.348 370.053 179.023C370.011 178.698 370.083 178.318 370.259 177.954C370.434 177.59 370.702 177.269 371.009 177.047C371.316 176.826 371.636 176.722 371.894 176.771C372.448 176.881 372.983 176.99 373.531 177.111C383.489 178.753 391.905 185.511 396.719 195.204C397.008 195.736 397.279 196.245 397.558 196.788C395.29 198.9 393.021 201.011 390.753 203.123C390.563 202.543 390.381 201.996 390.183 201.428C386.905 191.152 380.925 183.807 371.946 180.311C371.458 180.097 370.98 179.893 370.482 179.69Z" fill="#0074AB"/>
<path d="M382.787 155.258C382.559 155.206 382.376 154.979 382.273 154.645C382.171 154.31 382.156 153.896 382.238 153.475C382.32 153.054 382.492 152.655 382.72 152.347C382.948 152.04 383.212 151.849 383.452 151.835C383.888 151.812 384.3 151.792 384.735 151.778C392.426 151.215 400.003 153.914 406.476 158.302C406.848 158.538 407.202 158.763 407.572 159.003C408.233 159.427 408.663 160.341 408.744 161.602C408.825 162.859 408.551 164.36 408.005 165.718C407.459 167.075 406.691 168.162 405.895 168.682C405.096 169.205 404.333 169.119 403.752 168.5C403.432 168.161 403.127 167.837 402.807 167.503C397.219 161.385 391.199 157.098 383.978 155.541C383.575 155.442 383.193 155.349 382.787 155.258Z" fill="#007BA4"/>
</g>
<path d="M267.646 476.484C300.583 490.36 331.347 509.301 359.831 530.6L359.835 530.603C361.653 531.947 363.4 533.251 365.197 534.599C365.167 534.641 365.138 534.685 365.108 534.727C365.078 534.77 365.047 534.813 365.017 534.856C363.137 533.626 361.31 532.437 359.416 531.206C329.619 511.657 298.797 493.957 266.055 480.153C256.766 476.15 247.513 472.006 238.337 467.616L238.336 467.616C236.267 466.63 234.303 465.67 232.26 464.666C232.285 464.599 232.311 464.533 232.336 464.466C232.361 464.399 232.386 464.332 232.411 464.265C234.608 464.866 236.713 465.459 238.911 466.117L238.913 466.117C248.676 469.022 258.286 472.45 267.639 476.481L267.646 476.484Z" fill="#0082AA"/>
</g>
<defs>
<clipPath id="clip0_449_130">
<rect width="900" height="721" fill="white"/>
</clipPath>
<clipPath id="clip1_449_130">
<rect width="92.1769" height="149" fill="white" transform="matrix(-0.619863 0.78471 0.78471 0.619863 501.35 425)"/>
</clipPath>
<clipPath id="clip2_449_130">
<rect width="118.31" height="197.988" fill="white" transform="matrix(0.467948 0.883756 0.883756 -0.467948 196.213 185.648)"/>
</clipPath>
</defs>
</svg>
