<svg width="570" height="786" viewBox="0 0 570 786" fill="none" xmlns="http://www.w3.org/2000/svg">
<g clip-path="url(#clip0_350_316)">
<path d="M315.475 514.568C314.398 509.38 315.686 506.657 317.842 504.752C320.465 502.435 325.117 500.624 332.308 498.881C346.016 495.559 367.601 492.882 390.231 484.668L390.558 484.549L390.864 484.381C406.554 475.744 420.572 468.108 433.55 464.225C446.002 460.499 457.097 460.349 467.545 466.09C474.445 477.577 476.86 487.208 476.297 495.23C475.729 503.34 472.102 510.11 466.362 515.84C454.654 527.529 434.109 534.915 413.204 539.033L413.043 539.065L412.886 539.109C393.583 544.398 370.695 542.783 351.641 537.313C342.148 534.588 333.765 530.95 327.381 526.869C321.024 522.805 316.994 518.524 315.475 514.568Z" fill="#87CFE5" stroke="#0076B8" stroke-width="7"/>
<path d="M434.69 505.698C434.422 505.885 434.081 505.974 433.748 505.954C433.417 505.932 433.121 505.804 432.919 505.587C432.717 505.371 432.624 505.083 432.652 504.777C432.681 504.472 432.829 504.176 433.07 503.961C433.592 503.5 434.1 503.055 434.628 502.6C443.709 494.25 456.338 488.137 468.936 485.663C469.647 485.506 470.323 485.36 471.036 485.213C471.259 487.552 471.483 489.89 471.706 492.229C471.028 492.292 470.385 492.354 469.711 492.425C457.741 493.465 446.422 497.363 436.375 504.537C435.807 504.923 435.256 505.302 434.69 505.698Z" fill="#0074AB"/>
<path d="M425.427 484.316C425.138 484.484 424.785 484.546 424.45 484.499C424.117 484.451 423.83 484.298 423.646 484.063C423.461 483.828 423.393 483.527 423.446 483.216C423.5 482.905 423.671 482.61 423.93 482.406C424.403 482.035 424.851 481.685 425.328 481.319C433.565 474.717 443.811 469.504 453.927 465.877C454.497 465.662 455.041 465.458 455.612 465.246C456.629 464.866 457.708 464.872 458.624 465.306C459.539 465.737 460.216 466.56 460.493 467.551C460.771 468.543 460.623 469.611 460.073 470.478C459.521 471.348 458.611 471.947 457.555 472.183C456.975 472.314 456.422 472.438 455.846 472.571C445.588 474.777 436.044 478.07 426.946 483.44C426.43 483.735 425.941 484.015 425.427 484.316Z" fill="#007BA4"/>
<path d="M188.496 9.93665C178.205 6.8462 168.217 8.4265 158.708 14.4064C149.036 20.4896 139.729 31.2382 131.61 46.5686C115.389 77.1946 104.671 124.682 104.647 183.99C106.405 208.554 107.16 233.315 107.911 256.226C108.666 279.289 109.416 300.391 111.153 317.842C112.916 335.555 115.62 348.457 119.718 355.76C121.694 359.282 123.624 360.827 125.297 361.418C126.908 361.988 129.403 362.067 133.402 360.232L136.294 358.906L139.005 360.571C142.681 362.828 144.312 362.654 144.804 362.513C145.278 362.377 146.48 361.761 148.032 358.636C149.555 355.569 150.92 351.065 152.239 345.002C153.543 339.005 154.722 331.884 156.013 323.746C161.144 291.403 167.788 244.419 190.947 199.911L191.108 199.6L191.305 199.311L193.591 195.92C240.974 125.166 249.738 82.0983 242.713 55.6731C235.713 29.3413 212.257 17.0725 188.496 9.93665Z" fill="#8BCDE5" stroke="#0E6B96" stroke-width="12"/>
<path d="M304.455 75.4362C331.207 53.5781 356.7 49.4638 372.955 57.8926C390.527 67.0046 406.437 86.9369 403.638 115.025C400.805 143.467 378.65 182.052 315.511 227.447L315.386 227.537L315.266 227.633C275.757 259.229 255.719 298.661 242.082 326.059C238.651 332.955 235.69 338.959 232.907 343.986C230.097 349.061 227.692 352.723 225.487 355.086C223.288 357.443 221.932 357.827 221.201 357.849C220.412 357.872 218.633 357.527 215.507 354.687L213.444 352.813L210.687 353.193C206.216 353.809 203.593 353.113 202.014 352.13C200.479 351.174 199.075 349.415 198.114 346.093C196.069 339.032 196.725 327.386 199.864 311.506C206.078 280.075 220.878 236.964 234.427 191.934C251.447 135.369 277.973 97.0753 304.455 75.4362Z" fill="#87CFE5" stroke="#0E6B96" stroke-width="12"/>
<path d="M189.571 335.001C291.645 335.001 374.345 417.407 374.345 519.001C374.345 620.595 291.645 703.002 189.571 703.002C87.4968 703.002 4.79688 620.595 4.79688 519.001C4.79688 417.407 87.4968 335.001 189.571 335.001Z" fill="#86D0E3" stroke="#0C74AB" stroke-width="7"/>
<path d="M316.075 647.001C281.71 686.002 217.96 701.502 193.058 699.002C86.4769 705.002 6.29182 610.896 8.78203 517.501C10.3418 459.001 -4.16709 597.001 134.289 656.002C208.498 693.502 316.075 647.001 316.075 647.001Z" fill="#37B4CA"/>
<path opacity="0.77" d="M252.702 381.81L254.366 386.486L254.542 391.91L246.71 392.185L246.597 392.189L246.486 392.219L232.498 396.087L232.466 396.096L232.436 396.107L222.714 399.497L222.626 399.528L222.545 399.575L213.039 405.003L210.985 400.449L210.628 397.247L221.979 388.268L236.923 380.387L244.57 378.198L250.659 377.906L252.702 381.81Z" fill="#004F80"/>
<path opacity="0.7" d="M287.041 373.481L293.508 371.499L300.01 371.075L307.356 371.961L316.759 373.785L325.095 376.46L326.08 384.002L317.264 384.09L307.235 384.549L299.52 385.345L293.862 387.079L287.395 389.062L285.344 382.369L285.091 377.217L287.041 373.481Z" fill="#014C83"/>
<g clip-path="url(#clip1_350_316)">
<path d="M139.908 694C121.491 694 111.545 699.777 105.989 707.291C100.233 715.076 98.4889 725.636 98.4889 736.5C98.4889 747.729 99.3642 756.38 106.625 762.753C114.215 769.415 129.807 774.5 162.363 774.5C184.713 774.5 200.781 773.432 212.317 771.533C223.927 769.622 230.489 766.939 234.238 764.064C237.722 761.392 239.069 758.333 239.598 754.492C239.878 752.466 239.922 750.239 239.88 747.693C239.841 745.301 239.711 742.305 239.711 739.5C239.711 736.01 237.007 731.248 230.465 725.682C224.148 720.307 215.153 714.959 204.762 710.206C183.929 700.677 158.503 694 139.908 694Z" fill="#87CFE5" stroke="#0178B2" stroke-width="9"/>
<path d="M103.366 723.952C92.3875 766.952 125.776 772 164.36 772C202.945 772 224.742 769 230.231 762C243.206 756 189.696 760.952 161.751 757.952C76.9178 757.952 122.942 681 103.366 723.952Z" fill="#31A7BA"/>
</g>
<g clip-path="url(#clip2_350_316)">
<path d="M190.907 690C172.49 690 162.544 695.777 156.988 703.291C151.232 711.076 149.488 721.636 149.488 732.5C149.488 743.729 150.363 752.38 157.624 758.753C165.214 765.415 180.806 770.5 213.362 770.5C235.712 770.5 251.78 769.432 263.316 767.533C274.926 765.622 281.488 762.939 285.237 760.064C288.721 757.392 290.068 754.333 290.597 750.492C290.877 748.466 290.921 746.239 290.879 743.693C290.84 741.301 290.71 738.305 290.71 735.5C290.71 732.01 288.006 727.248 281.464 721.682C275.147 716.307 266.152 710.959 255.761 706.206C234.928 696.677 209.502 690 190.907 690Z" fill="#87CFE5" stroke="#0178B2" stroke-width="9"/>
<path d="M154.365 719.952C143.386 762.952 176.775 768 215.359 768C253.944 768 275.741 765 281.23 758C294.205 752 240.695 756.952 212.75 753.952C127.917 753.952 173.941 677 154.365 719.952Z" fill="#31A7BA"/>
</g>
<g clip-path="url(#clip3_350_316)">
<path d="M253.212 582.196L253.247 582.223L253.285 582.243L259.509 585.642L259.541 585.66L259.575 585.673L265.215 587.854L265.237 587.863L269.884 589.229L264.246 608.406L262.994 611.766L259.815 614.238L257.229 615.356L254.117 614.932L251.383 614.128L248.835 611.927L246.788 607.901L245.391 601.572L245.758 593.127L246.688 584.797L248.501 578.631L253.212 582.196Z" fill="#FEFEFE" stroke="#0578A5" stroke-width="3"/>
<path d="M282.612 586.453L282.583 586.463L282.553 586.466L278.319 586.841L278.294 586.843L278.272 586.84L274.824 586.367L274.81 586.365L272.207 585.6L266.434 605.238L265.549 608.751L265.881 612.308L266.534 614.418L268.087 615.378L269.639 615.834L271.707 614.954L274.342 612.219L277.686 607.129L281.172 599.361L284.365 591.443L286.172 585.295L282.612 586.453Z" fill="#FEFEFE" stroke="#0875A4" stroke-width="3"/>
<path d="M269.527 591.385C282.324 581.003 285.998 568.373 291.528 542.239" stroke="#076FA2" stroke-width="5" stroke-linecap="round"/>
</g>
<g clip-path="url(#clip4_350_316)">
<path d="M87.6337 557.125C92.9014 557.579 95.0999 559.379 96.2534 561.695C97.6571 564.513 97.9577 568.907 97.417 575.423C96.3864 587.843 92.332 606.729 93.2289 627.949L93.2419 628.256L93.3083 628.557C96.7304 644.042 99.7111 657.855 99.4379 669.808C99.1756 681.276 95.9245 690.663 87.264 697.958C74.2207 700.759 64.3155 700.267 56.8514 697.688C49.3057 695.082 43.9714 690.25 40.2726 683.911C32.7278 670.98 31.981 651.734 34.4555 633.042L34.4748 632.898L34.4814 632.754C35.3512 615.104 43.8893 596.246 54.9232 581.628C60.4205 574.345 66.447 568.237 72.2837 563.93C78.097 559.639 83.4041 557.368 87.6337 557.125Z" fill="#87CFE5" stroke="#0076B8" stroke-width="7"/>
<path d="M73.8854 663.59C73.9313 663.303 73.8572 663.001 73.6899 662.751C73.5221 662.503 73.2746 662.329 72.9917 662.264C72.7088 662.199 72.4104 662.25 72.1518 662.402C71.8939 662.554 71.6967 662.795 71.6143 663.073C71.4384 663.674 71.2707 664.258 71.104 664.86C67.7597 675.455 67.9966 687.849 71.4555 698.671C71.635 699.289 71.8085 699.875 71.9981 700.49C74.1775 699.669 76.357 698.847 78.5364 698.025C78.2873 697.472 78.0537 696.948 77.8147 696.394C73.363 686.671 71.7448 676.235 73.6105 665.391C73.6982 664.786 73.7875 664.198 73.8854 663.59Z" fill="#0074AB"/>
<path d="M50.066 663.528C50.0859 663.232 49.9821 662.932 49.7903 662.692C49.5978 662.454 49.3332 662.296 49.0416 662.254C48.75 662.211 48.4515 662.286 48.1988 662.459C47.9468 662.633 47.7613 662.891 47.6959 663.179C47.579 663.704 47.4691 664.2 47.3582 664.726C45.1885 673.922 45.1556 684.085 46.4744 693.473C46.5398 694.007 46.6022 694.515 46.6704 695.048C46.7891 695.999 47.2797 696.833 48.0764 697.359C48.8706 697.885 49.9057 698.059 50.912 697.852C51.9183 697.646 52.8012 697.077 53.3247 696.281C53.8506 695.483 53.974 694.523 53.7098 693.603C53.5657 693.098 53.4275 692.617 53.2866 692.113C50.6416 683.22 49.282 674.418 49.9696 665.078C49.9999 664.552 50.0295 664.055 50.066 663.528Z" fill="#007BA4"/>
</g>
<path d="M227.951 411.602C239.338 410.095 250.847 416.13 260.252 427.454C269.654 438.775 276.788 455.218 279.262 473.908C282.048 494.961 281.126 512.4 275.876 524.978C270.714 537.35 261.211 545.394 245.927 547.417C234.543 548.924 223.411 542.996 214.373 531.736C205.325 520.464 198.508 503.972 195.988 484.93C193.468 465.888 195.759 448.19 201.563 434.952C207.361 421.729 216.567 413.109 227.951 411.602Z" fill="#FEFEFE" stroke="#0F79AB" stroke-width="6"/>
<path d="M274.376 463.088C275.698 473.077 271.518 481.87 264.498 482.8C257.479 483.729 250.716 476.384 249.394 466.394C248.072 456.405 252.691 447.553 259.71 446.624C267.899 447.841 273 452.687 274.376 463.088Z" fill="#2B2A28"/>
<path d="M302.893 399.952C294.312 401.328 287.577 410.056 283.71 423.394C279.846 436.726 278.926 454.465 281.936 473.223C285.326 494.352 290.459 511.049 297.461 521.948C304.346 532.67 313.247 538.108 324.765 536.26C333.343 534.883 339.835 526.353 343.453 513.169C347.076 499.972 347.754 482.265 344.688 463.154C341.621 444.043 335.437 427.437 327.867 416.035C320.306 404.646 311.471 398.575 302.893 399.952Z" fill="#FEFEFE" stroke="#0F79AB" stroke-width="6"/>
<path d="M284.879 462.625C286.469 472.536 292.58 479.796 299.024 478.762C305.468 477.728 309.402 468.856 307.812 458.945C306.222 449.034 299.709 441.838 293.265 442.872C286.383 446.277 283.223 452.306 284.879 462.625Z" fill="#2B2A28"/>
<path d="M292 553.055C303.046 553.055 312 543.417 312 531.527C312 519.638 303.046 510 292 510C280.954 510 272 519.638 272 531.527C272 543.417 280.954 553.055 292 553.055Z" fill="#ED6F7A"/>
<path fill-rule="evenodd" clip-rule="evenodd" d="M519.354 418.466C512.13 410.851 433.397 456.625 405.846 482.77C391.608 496.281 389.757 517.487 401.716 530.095C413.676 542.705 434.945 541.971 449.184 528.46C476.735 502.315 526.576 426.082 519.354 418.466Z" fill="#FF9425"/>
<path fill-rule="evenodd" clip-rule="evenodd" d="M519.601 418.78C519.486 418.617 519.343 418.447 519.343 418.447C519.343 418.447 399.174 526.861 401.717 530.095C412.458 543.757 435.017 542.046 449.185 528.459C502.541 477.288 523.617 424.513 519.601 418.78Z" fill="#FF8600"/>
<path d="M442.058 531.679C438.471 525.883 434.564 520.339 429.112 516.255" stroke="#EF6A00" stroke-width="5" stroke-miterlimit="10" stroke-linecap="round" stroke-linejoin="round"/>
<path d="M465.982 507.988C465.075 502.917 461.487 499.814 457.465 496.878" stroke="#EF6A00" stroke-width="5" stroke-miterlimit="10" stroke-linecap="round" stroke-linejoin="round"/>
<path d="M492.156 475.133C488.104 470.254 484.243 466.703 480.492 463.925" stroke="#EF6A00" stroke-width="5" stroke-miterlimit="10" stroke-linecap="round" stroke-linejoin="round"/>
<path fill-rule="evenodd" clip-rule="evenodd" d="M406.765 526.042C406.765 526.042 382.226 534.133 374.395 538.917C366.597 543.68 366.311 557.456 369.675 560.567C374.292 564.834 383.686 564.312 389.598 556.771C395.167 549.667 406.765 526.042 406.765 526.042Z" fill="#129447"/>
<path fill-rule="evenodd" clip-rule="evenodd" d="M406.796 526.197C406.796 526.197 395.784 527.384 385.29 524.494C379.452 522.887 375.307 516.329 370.908 515.784C365.637 515.131 359.796 516.599 359.473 521.669C359.15 526.738 363.878 530.703 370.385 534.47C381.773 541.062 402.105 529.143 406.796 526.197Z" fill="#00AA63"/>
<path fill-rule="evenodd" clip-rule="evenodd" d="M406.555 524.99C406.555 524.99 398.535 521.254 389.958 514.879C383.878 510.36 378.562 502.496 378.253 501.938C374.02 494.301 366.026 497.196 365.273 504.69C364.618 511.219 368.325 516.991 372.645 520.381C383.788 529.124 404.15 529.172 406.555 524.99Z" fill="#129447"/>
<path fill-rule="evenodd" clip-rule="evenodd" d="M406.556 524.99C406.556 524.99 405.769 535.293 408.505 545.368C410.027 550.973 416.792 555.105 417.239 559.31C417.777 564.348 416.071 569.869 410.743 570.034C405.415 570.199 400.104 563.996 397.62 559.282C391.637 547.931 402.516 528.134 406.556 524.99Z" fill="#00AA63"/>
<path fill-rule="evenodd" clip-rule="evenodd" d="M406.555 524.991C406.555 524.991 410.563 535.957 416.864 544.406C421.972 551.253 427.653 554.5 429.236 556.783C432.148 560.981 430.958 566.038 425.836 567.528C420.714 569.02 412.883 563.879 410.143 560.487C401.706 550.034 403.431 530.282 406.555 524.991Z" fill="#129447"/>
<path d="M423.903 490.143C422.139 484.312 417.983 479.665 415.122 476.85" stroke="#EF6A00" stroke-width="5" stroke-miterlimit="10" stroke-linecap="round" stroke-linejoin="round"/>
<path d="M456.253 464.082C454.845 459.702 451.593 455.812 449.357 453.406" stroke="#EF6A00" stroke-width="5" stroke-miterlimit="10" stroke-linecap="round" stroke-linejoin="round"/>
<path d="M488.249 438.673C487.306 436.288 485.149 434.006 483.667 432.577" stroke="#EF6A00" stroke-width="5" stroke-miterlimit="10" stroke-linecap="round" stroke-linejoin="round"/>
</g>
<defs>
<clipPath id="clip0_350_316">
<rect width="570" height="786" fill="white"/>
</clipPath>
<clipPath id="clip1_350_316">
<rect width="150.704" height="90" fill="white" transform="matrix(-1 0 0 1 244.702 689)"/>
</clipPath>
<clipPath id="clip2_350_316">
<rect width="150.704" height="90" fill="white" transform="matrix(-1 0 0 1 295.701 685)"/>
</clipPath>
<clipPath id="clip3_350_316">
<rect width="127.764" height="81.2975" fill="white" transform="translate(225.93 524) rotate(16.3822)"/>
</clipPath>
<clipPath id="clip4_350_316">
<rect width="75.8512" height="149" fill="white" transform="translate(25.5771 556.242) rotate(-2.42029)"/>
</clipPath>
</defs>
</svg>
