<svg width="570" height="786" viewBox="0 0 570 786" fill="none" xmlns="http://www.w3.org/2000/svg">
<g clip-path="url(#clip0_424_2)">
<path d="M341.741 524.163C345.696 520.638 348.699 520.393 351.426 521.309C354.744 522.423 358.637 525.547 363.74 530.905C373.468 541.119 386.572 558.478 404.995 573.976L405.262 574.2L405.56 574.381C420.882 583.656 434.501 591.983 444.35 601.284C453.799 610.208 459.473 619.744 459.721 631.663C453.219 643.379 446.083 650.283 438.854 653.804C431.545 657.365 423.868 657.606 416.036 655.497C400.06 651.197 383.397 637.092 369.384 621.042L369.275 620.918L369.159 620.804C354.932 606.726 344.894 586.093 340.111 566.856C337.727 557.271 336.69 548.192 337.035 540.623C337.378 533.086 339.073 527.456 341.741 524.163Z" fill="#87CFE5" stroke="#0076B8" stroke-width="7"/>
<path d="M408.995 622.995C408.699 622.856 408.452 622.606 408.304 622.308C408.156 622.01 408.12 621.689 408.207 621.406C408.293 621.123 408.496 620.898 408.775 620.77C409.053 620.643 409.384 620.623 409.691 620.725C410.351 620.946 410.991 621.164 411.648 621.394C423.418 625.088 435.025 632.972 443.462 642.648C443.954 643.185 444.418 643.697 444.902 644.242C442.987 645.604 441.073 646.966 439.159 648.329C438.766 647.772 438.391 647.246 437.992 646.698C431.111 636.85 422.078 628.993 410.843 623.875C410.225 623.575 409.621 623.288 408.995 622.995Z" fill="#0074AB"/>
<path d="M422.887 604.287C422.598 604.121 422.367 603.845 422.241 603.532C422.116 603.219 422.104 602.894 422.216 602.617C422.328 602.341 422.554 602.131 422.85 602.021C423.146 601.913 423.487 601.913 423.794 602.036C424.351 602.26 424.878 602.473 425.433 602.704C435.268 606.539 444.903 612.809 453.1 619.76C453.571 620.146 454.02 620.515 454.489 620.904C455.327 621.595 455.86 622.533 455.942 623.543C456.026 624.551 455.651 625.548 454.931 626.284C454.211 627.02 453.212 627.426 452.186 627.382C451.156 627.339 450.184 626.851 449.451 626.054C449.048 625.617 448.664 625.2 448.261 624.767C441.224 616.984 433.603 610.362 424.405 605.165C423.892 604.865 423.405 604.582 422.887 604.287Z" fill="#007BA4"/>
<path d="M181.848 10.5436C171.557 7.45313 161.57 9.03344 152.061 15.0133C142.388 21.0965 133.082 31.8452 124.963 47.1755C108.741 77.8016 98.0235 125.289 97.9996 184.597C99.7577 209.161 100.513 233.922 101.264 256.833C102.019 279.896 102.769 300.998 104.505 318.449C106.268 336.162 108.973 349.064 113.07 356.367C115.047 359.889 116.976 361.434 118.649 362.025C120.26 362.595 122.755 362.674 126.755 360.839L129.646 359.513L132.358 361.178C136.033 363.435 137.665 363.261 138.157 363.12C138.631 362.984 139.832 362.368 141.384 359.243C142.907 356.176 144.273 351.672 145.591 345.609C146.896 339.612 148.074 332.491 149.365 324.353C154.496 292.01 161.141 245.026 184.3 200.518L184.461 200.207L184.658 199.918L186.943 196.527C234.327 125.773 243.091 82.7053 236.066 56.28C229.066 29.9483 205.61 17.6794 181.848 10.5436Z" fill="#8BCDE5" stroke="#0E6B96" stroke-width="12"/>
<path d="M308.608 79.4539C334.392 56.4634 359.685 51.2543 376.288 58.9749C394.236 67.3212 410.99 86.5494 409.405 114.732C407.8 143.27 387.327 182.774 326.204 230.847L326.083 230.943L325.967 231.043C287.855 264.313 269.536 304.571 257.092 332.532C253.961 339.57 251.261 345.695 248.698 350.838C246.109 356.029 243.864 359.79 241.763 362.246C239.668 364.696 238.33 365.139 237.6 365.192C236.813 365.249 235.021 364.981 231.775 362.279L229.633 360.494L226.895 360.994C222.455 361.801 219.804 361.219 218.184 360.305C216.61 359.416 215.131 357.719 214.028 354.442C211.68 347.476 211.834 335.812 214.287 319.811C219.14 288.142 232.068 244.433 243.664 198.861C258.231 141.616 283.083 102.214 308.608 79.4539Z" fill="#87CFE5" stroke="#0E6B96" stroke-width="12"/>
<path d="M189.57 335.001C291.644 335.001 374.344 417.407 374.344 519.001C374.344 620.595 291.644 703.002 189.57 703.002C87.4959 703.002 4.7959 620.595 4.7959 519.001C4.7959 417.407 87.4959 335.001 189.57 335.001Z" fill="#86D0E3" stroke="#0C74AB" stroke-width="7"/>
<path d="M316.074 647.001C281.709 686.002 217.959 701.502 193.057 699.002C86.4759 705.002 6.29084 610.896 8.78106 517.501C10.3409 459.001 -4.16807 597.001 134.288 656.002C208.497 693.502 316.074 647.001 316.074 647.001Z" fill="#37B4CA"/>
<path opacity="0.77" d="M252.701 381.81L254.365 386.486L254.541 391.91L246.709 392.185L246.596 392.189L246.485 392.219L232.497 396.087L232.465 396.096L232.435 396.107L222.713 399.497L222.625 399.528L222.544 399.575L213.038 405.003L210.984 400.449L210.627 397.247L221.978 388.268L236.922 380.387L244.569 378.198L250.658 377.906L252.701 381.81Z" fill="#004F80"/>
<path opacity="0.7" d="M287.04 373.481L293.507 371.499L300.009 371.075L307.355 371.961L316.758 373.785L325.094 376.46L326.079 384.002L317.263 384.09L307.234 384.549L299.52 385.345L293.861 387.079L287.394 389.062L285.343 382.369L285.09 377.217L287.04 373.481Z" fill="#014C83"/>
<g clip-path="url(#clip1_424_2)">
<path d="M139.907 694C121.49 694 111.544 699.777 105.988 707.291C100.233 715.076 98.4879 725.636 98.4879 736.5C98.4879 747.729 99.3632 756.38 106.624 762.753C114.214 769.415 129.806 774.5 162.362 774.5C184.712 774.5 200.78 773.432 212.316 771.533C223.926 769.622 230.488 766.939 234.237 764.064C237.721 761.392 239.068 758.333 239.597 754.492C239.877 752.466 239.921 750.239 239.879 747.693C239.84 745.301 239.71 742.305 239.71 739.5C239.71 736.01 237.006 731.248 230.464 725.682C224.147 720.307 215.152 714.959 204.761 710.206C183.928 700.677 158.502 694 139.907 694Z" fill="#87CFE5" stroke="#0178B2" stroke-width="9"/>
<path d="M103.365 723.952C92.3865 766.952 125.775 772 164.359 772C202.944 772 224.741 769 230.23 762C243.205 756 189.695 760.952 161.75 757.952C76.9168 757.952 122.941 681 103.365 723.952Z" fill="#31A7BA"/>
</g>
<g clip-path="url(#clip2_424_2)">
<path d="M190.905 690C172.488 690 162.542 695.777 156.986 703.291C151.231 711.076 149.486 721.636 149.486 732.5C149.486 743.729 150.361 752.38 157.622 758.753C165.212 765.415 180.805 770.5 213.36 770.5C235.711 770.5 251.778 769.432 263.314 767.533C274.924 765.622 281.486 762.939 285.235 760.064C288.719 757.392 290.066 754.333 290.595 750.492C290.875 748.466 290.919 746.239 290.877 743.693C290.838 741.301 290.708 738.305 290.708 735.5C290.708 732.01 288.004 727.248 281.462 721.682C275.145 716.307 266.15 710.959 255.759 706.206C234.926 696.677 209.5 690 190.905 690Z" fill="#87CFE5" stroke="#0178B2" stroke-width="9"/>
<path d="M154.363 719.952C143.385 762.952 176.773 768 215.357 768C253.942 768 275.739 765 281.228 758C294.203 752 240.693 756.952 212.748 753.952C127.915 753.952 173.939 677 154.363 719.952Z" fill="#31A7BA"/>
</g>
<g clip-path="url(#clip3_424_2)">
<path d="M253.21 582.196L253.245 582.223L253.283 582.243L259.507 585.642L259.539 585.66L259.573 585.673L265.213 587.854L265.235 587.863L269.882 589.229L264.244 608.406L262.993 611.766L259.813 614.238L257.227 615.356L254.115 614.932L251.381 614.128L248.833 611.927L246.786 607.901L245.389 601.572L245.756 593.127L246.686 584.797L248.499 578.631L253.21 582.196Z" fill="#FEFEFE" stroke="#0578A5" stroke-width="3"/>
<path d="M282.61 586.453L282.581 586.463L282.552 586.466L278.317 586.841L278.292 586.843L278.27 586.84L274.822 586.367L274.808 586.365L272.205 585.6L266.432 605.238L265.547 608.751L265.879 612.308L266.532 614.418L268.085 615.378L269.637 615.834L271.705 614.954L274.34 612.219L277.685 607.129L281.17 599.361L284.363 591.443L286.17 585.295L282.61 586.453Z" fill="#FEFEFE" stroke="#0875A4" stroke-width="3"/>
<path d="M269.525 591.385C282.322 581.003 285.996 568.373 291.526 542.239" stroke="#076FA2" stroke-width="5" stroke-linecap="round"/>
</g>
<g clip-path="url(#clip4_424_2)">
<path d="M87.6327 557.125C92.9004 557.579 95.0989 559.379 96.2524 561.695C97.6561 564.513 97.9567 568.907 97.4161 575.423C96.3854 587.843 92.3311 606.729 93.2279 627.949L93.2409 628.256L93.3073 628.557C96.7295 644.042 99.7101 657.855 99.4369 669.808C99.1746 681.276 95.9236 690.663 87.263 697.958C74.2197 700.759 64.3146 700.267 56.8504 697.688C49.3047 695.082 43.9705 690.25 40.2716 683.911C32.7268 670.98 31.98 651.734 34.4545 633.042L34.4738 632.898L34.4804 632.754C35.3502 615.104 43.8883 596.246 54.9222 581.628C60.4195 574.345 66.446 568.237 72.2827 563.93C78.0961 559.639 83.4031 557.368 87.6327 557.125Z" fill="#87CFE5" stroke="#0076B8" stroke-width="7"/>
<path d="M73.8844 663.59C73.9303 663.303 73.8562 663.001 73.6889 662.751C73.5211 662.503 73.2737 662.329 72.9908 662.264C72.7078 662.199 72.4095 662.25 72.1509 662.402C71.8929 662.554 71.6958 662.795 71.6134 663.073C71.4375 663.674 71.2697 664.258 71.103 664.86C67.7588 675.455 67.9956 687.849 71.4545 698.671C71.634 699.289 71.8075 699.875 71.9971 700.49C74.1766 699.669 76.3561 698.847 78.5355 698.025C78.2863 697.472 78.0527 696.948 77.8137 696.394C73.362 686.671 71.7438 676.235 73.6095 665.391C73.6972 664.786 73.7865 664.198 73.8844 663.59Z" fill="#0074AB"/>
<path d="M50.065 663.528C50.0849 663.232 49.9811 662.932 49.7893 662.692C49.5968 662.454 49.3322 662.296 49.0406 662.254C48.749 662.211 48.4505 662.286 48.1978 662.459C47.9459 662.633 47.7603 662.891 47.6949 663.179C47.5781 663.704 47.4682 664.2 47.3572 664.726C45.1876 673.922 45.1546 684.085 46.4734 693.473C46.5388 694.007 46.6012 694.515 46.6694 695.048C46.7881 695.999 47.2787 696.833 48.0754 697.359C48.8696 697.885 49.9047 698.059 50.911 697.852C51.9173 697.646 52.8002 697.077 53.3237 696.281C53.8496 695.483 53.9731 694.523 53.7088 693.603C53.5647 693.098 53.4266 692.617 53.2856 692.113C50.6407 683.22 49.281 674.418 49.9686 665.078C49.999 664.552 50.0285 664.055 50.065 663.528Z" fill="#007BA4"/>
</g>
<path d="M227.951 411.602C239.338 410.095 250.847 416.13 260.252 427.454C269.654 438.775 276.788 455.218 279.262 473.908C282.048 494.961 281.126 512.4 275.876 524.978C270.714 537.35 261.211 545.394 245.927 547.417C234.543 548.924 223.411 542.996 214.373 531.736C205.325 520.464 198.508 503.972 195.988 484.93C193.468 465.888 195.759 448.19 201.563 434.952C207.361 421.729 216.567 413.109 227.951 411.602Z" fill="#FEFEFE" stroke="#0F79AB" stroke-width="6"/>
<path d="M276.352 490.512C276.268 501.735 270.901 510.794 263.82 510.74C256.74 510.687 251.068 501.545 251.153 490.322C251.238 479.098 257.047 470.043 264.127 470.097C272.066 472.697 276.441 478.827 276.352 490.512Z" fill="#2B2A28"/>
<path d="M300.611 400.509C292.497 401.811 286.244 410.79 282.782 424.609C279.321 438.424 278.719 456.868 281.858 476.432C285.394 498.47 290.516 515.921 297.319 527.37C304.011 538.63 312.532 544.425 323.423 542.677C331.535 541.375 337.559 532.598 340.789 518.935C344.023 505.258 344.396 486.843 341.198 466.911C338 446.978 331.884 429.604 324.533 417.625C317.191 405.659 308.723 399.207 300.611 400.509Z" fill="#FEFEFE" stroke="#0F79AB" stroke-width="6"/>
<path d="M289.061 483.956C289.027 494.425 293.618 502.926 299.789 502.946C305.96 502.966 310.99 494.495 311.024 484.026C311.058 473.557 306.082 465.054 299.911 465.034C292.967 467.382 289.096 473.056 289.061 483.956Z" fill="#2B2A28"/>
<path d="M292 553.055C303.046 553.055 312 543.417 312 531.527C312 519.638 303.046 510 292 510C280.954 510 272 519.638 272 531.527C272 543.417 280.954 553.055 292 553.055Z" fill="#ED6F7A"/>
<path fill-rule="evenodd" clip-rule="evenodd" d="M537.527 594.17C535.181 583.94 445.096 582.999 408.499 591.365C389.586 595.688 377.383 612.95 381.266 629.888C385.15 646.827 403.658 657.068 422.572 652.745C459.169 644.379 539.872 604.401 537.527 594.17Z" fill="#FF9425"/>
<path fill-rule="evenodd" clip-rule="evenodd" d="M537.581 594.566C537.564 594.367 537.527 594.148 537.527 594.148C537.527 594.148 380.718 625.811 381.267 629.888C383.584 647.108 403.682 657.169 422.573 652.745C493.718 636.081 538.134 601.541 537.581 594.566Z" fill="#FF8600"/>
<path d="M414.882 651.867C414.726 645.057 414.171 638.3 411.567 632.007" stroke="#EF6A00" stroke-width="5" stroke-miterlimit="10" stroke-linecap="round" stroke-linejoin="round"/>
<path d="M447.156 643.754C448.923 638.937 447.418 634.439 445.458 629.863" stroke="#EF6A00" stroke-width="5" stroke-miterlimit="10" stroke-linecap="round" stroke-linejoin="round"/>
<path d="M485.94 628.922C484.929 622.663 483.415 617.64 481.607 613.338" stroke="#EF6A00" stroke-width="5" stroke-miterlimit="10" stroke-linecap="round" stroke-linejoin="round"/>
<path fill-rule="evenodd" clip-rule="evenodd" d="M387.603 628.988C387.603 628.988 362.62 623.393 353.543 623.497C344.506 623.601 337.361 635.282 338.672 639.673C340.471 645.697 348.745 650.05 357.566 646.597C365.874 643.345 387.603 628.988 387.603 628.988Z" fill="#129447"/>
<path fill-rule="evenodd" clip-rule="evenodd" d="M387.552 629.137C387.552 629.137 377.565 624.527 370.062 616.682C365.888 612.318 365.638 604.569 362.16 601.853C357.991 598.598 352.273 596.873 349.458 601.061C346.643 605.248 348.688 611.069 352.351 617.629C358.762 629.11 382.075 629.268 387.552 629.137Z" fill="#00AA63"/>
<path fill-rule="evenodd" clip-rule="evenodd" d="M387.952 627.977C387.952 627.977 382.983 620.67 378.861 610.813C375.94 603.826 375.345 594.356 375.361 593.719C375.577 584.999 367.308 583.398 362.911 589.448C359.082 594.719 359.352 601.569 361.338 606.688C366.462 619.89 383.805 630.339 387.952 627.977Z" fill="#129447"/>
<path fill-rule="evenodd" clip-rule="evenodd" d="M387.953 627.978C387.953 627.978 382.12 636.422 379.406 646.471C377.896 652.061 381.595 659.066 379.871 662.905C377.805 667.506 373.584 671.375 368.957 668.793C364.33 666.211 362.907 658.17 363.151 652.854C363.735 640.05 382.932 628.612 387.953 627.978Z" fill="#00AA63"/>
<path fill-rule="evenodd" clip-rule="evenodd" d="M387.951 627.978C387.951 627.978 385.875 639.443 387.017 649.918C387.943 658.407 391.162 664.099 391.369 666.868C391.749 671.961 388.2 675.694 383.085 674.356C377.969 673.019 373.865 664.602 373.228 660.289C371.269 647.002 382.636 630.924 387.951 627.978Z" fill="#129447"/>
<path d="M420.207 606.925C421.623 601.017 420.407 594.902 419.378 591.023" stroke="#EF6A00" stroke-width="5" stroke-miterlimit="10" stroke-linecap="round" stroke-linejoin="round"/>
<path d="M460.855 601.083C461.848 596.603 461.023 591.601 460.322 588.392" stroke="#EF6A00" stroke-width="5" stroke-miterlimit="10" stroke-linecap="round" stroke-linejoin="round"/>
<path d="M500.874 595.622C501.265 593.092 500.568 590.03 500.02 588.045" stroke="#EF6A00" stroke-width="5" stroke-miterlimit="10" stroke-linecap="round" stroke-linejoin="round"/>
</g>
<defs>
<clipPath id="clip0_424_2">
<rect width="570" height="786" fill="white"/>
</clipPath>
<clipPath id="clip1_424_2">
<rect width="150.704" height="90" fill="white" transform="matrix(-1 0 0 1 244.701 689)"/>
</clipPath>
<clipPath id="clip2_424_2">
<rect width="150.704" height="90" fill="white" transform="matrix(-1 0 0 1 295.699 685)"/>
</clipPath>
<clipPath id="clip3_424_2">
<rect width="127.764" height="81.2975" fill="white" transform="translate(225.928 524) rotate(16.3822)"/>
</clipPath>
<clipPath id="clip4_424_2">
<rect width="75.8512" height="149" fill="white" transform="translate(25.5762 556.242) rotate(-2.42029)"/>
</clipPath>
</defs>
</svg>
