<svg width="570" height="786" viewBox="0 0 570 786" fill="none" xmlns="http://www.w3.org/2000/svg">
<g clip-path="url(#clip0_414_4)">
<path d="M325.536 529.648C327.264 524.64 329.764 522.958 332.591 522.425C336.031 521.775 340.954 522.599 348.024 524.779C361.503 528.937 381.419 537.678 405.066 542.196L405.408 542.261L405.756 542.273C423.656 542.877 439.608 543.486 452.746 546.788C465.352 549.956 474.962 555.503 481.002 565.781C481.056 579.18 478.204 588.691 473.617 595.296C468.98 601.974 462.401 605.936 454.538 607.924C438.498 611.979 417.066 607.816 396.997 600.661L396.842 600.607L396.685 600.564C377.392 595.234 358.552 582.139 344.978 567.692C338.214 560.495 332.872 553.081 329.474 546.309C326.09 539.565 324.818 533.824 325.536 529.648Z" fill="#87CFE5" stroke="#0076B8" stroke-width="7"/>
<path d="M427.844 590.1C427.521 590.049 427.214 589.878 426.988 589.633C426.763 589.388 426.639 589.09 426.643 588.795C426.646 588.499 426.779 588.226 427.011 588.025C427.243 587.825 427.554 587.714 427.877 587.726C428.573 587.754 429.248 587.784 429.944 587.821C442.277 588.079 455.624 592.406 466.43 599.339C467.052 599.717 467.641 600.079 468.257 600.467C466.8 602.31 465.343 604.153 463.885 605.996C463.352 605.571 462.845 605.171 462.309 604.756C452.95 597.223 442.082 592.203 429.864 590.429C429.187 590.314 428.527 590.206 427.844 590.1Z" fill="#0074AB"/>
<path d="M435.956 568.255C435.631 568.176 435.333 567.976 435.124 567.711C434.917 567.446 434.815 567.137 434.845 566.84C434.875 566.543 435.033 566.278 435.287 566.09C435.541 565.903 435.868 565.808 436.197 565.84C436.795 565.9 437.36 565.957 437.958 566.024C448.473 566.958 459.476 570.286 469.289 574.669C469.849 574.909 470.383 575.138 470.942 575.38C471.939 575.809 472.714 576.561 473.075 577.508C473.437 578.452 473.356 579.514 472.87 580.422C472.384 581.33 471.538 581.999 470.541 582.244C469.541 582.49 468.47 582.293 467.544 581.732C467.035 581.425 466.55 581.132 466.042 580.829C457.11 575.323 447.943 571.094 437.658 568.674C437.082 568.529 436.536 568.393 435.956 568.255Z" fill="#007BA4"/>
<path d="M188.847 10.5436C178.556 7.45313 168.569 9.03344 159.06 15.0133C149.387 21.0965 140.081 31.8452 131.962 47.1755C115.74 77.8016 105.023 125.289 104.999 184.597C106.757 209.161 107.512 233.922 108.263 256.833C109.018 279.896 109.768 300.998 111.504 318.449C113.267 336.162 115.972 349.064 120.069 356.367C122.046 359.889 123.975 361.434 125.649 362.025C127.259 362.595 129.754 362.674 133.754 360.839L136.645 359.513L139.357 361.178C143.032 363.435 144.664 363.261 145.156 363.12C145.63 362.984 146.831 362.368 148.383 359.243C149.906 356.176 151.272 351.672 152.59 345.609C153.895 339.612 155.073 332.491 156.364 324.353C161.495 292.01 168.14 245.026 191.299 200.518L191.46 200.207L191.657 199.918L193.942 196.527C241.326 125.773 250.09 82.7053 243.065 56.28C236.065 29.9483 212.609 17.6794 188.847 10.5436Z" fill="#8BCDE5" stroke="#0E6B96" stroke-width="12"/>
<path d="M309.957 72.3156C336.587 50.3107 362.058 46.0563 378.359 54.3956C395.981 63.4108 412 83.2553 409.356 111.358C406.679 139.816 384.736 178.522 321.848 224.263L321.724 224.354L321.604 224.45C282.269 256.264 262.449 295.805 248.963 323.277C245.569 330.193 242.641 336.212 239.886 341.255C237.104 346.345 234.719 350.02 232.527 352.395C230.341 354.764 228.988 355.156 228.256 355.182C227.468 355.21 225.687 354.874 222.545 352.052L220.472 350.188L217.717 350.584C213.249 351.224 210.622 350.542 209.038 349.568C207.498 348.621 206.085 346.87 205.105 343.553C203.021 336.504 203.613 324.854 206.665 308.957C212.706 277.493 227.269 234.3 240.57 189.197C257.279 132.539 283.594 94.1 309.957 72.3156Z" fill="#87CFE5" stroke="#0E6B96" stroke-width="12"/>
<path d="M189.57 335.001C291.644 335.001 374.344 417.407 374.344 519.001C374.344 620.595 291.644 703.002 189.57 703.002C87.4959 703.002 4.7959 620.595 4.7959 519.001C4.7959 417.407 87.4959 335.001 189.57 335.001Z" fill="#86D0E3" stroke="#0C74AB" stroke-width="7"/>
<path d="M316.074 647.001C281.709 686.002 217.959 701.502 193.057 699.002C86.4759 705.002 6.29084 610.896 8.78106 517.501C10.3409 459.001 -4.16807 597.001 134.288 656.002C208.497 693.502 316.074 647.001 316.074 647.001Z" fill="#37B4CA"/>
<path opacity="0.77" d="M252.701 381.81L254.365 386.486L254.541 391.91L246.709 392.185L246.596 392.189L246.485 392.219L232.497 396.087L232.465 396.096L232.435 396.107L222.713 399.497L222.625 399.528L222.544 399.575L213.038 405.003L210.984 400.449L210.627 397.247L221.978 388.268L236.922 380.387L244.569 378.198L250.658 377.906L252.701 381.81Z" fill="#004F80"/>
<path opacity="0.7" d="M287.04 373.481L293.507 371.499L300.009 371.075L307.355 371.961L316.758 373.785L325.094 376.46L326.079 384.002L317.263 384.09L307.234 384.549L299.52 385.345L293.861 387.079L287.394 389.062L285.343 382.369L285.09 377.217L287.04 373.481Z" fill="#014C83"/>
<g clip-path="url(#clip1_414_4)">
<path d="M139.907 694C121.49 694 111.544 699.777 105.988 707.291C100.232 715.076 98.4879 725.636 98.4879 736.5C98.4879 747.729 99.3632 756.38 106.624 762.753C114.214 769.415 129.806 774.5 162.362 774.5C184.712 774.5 200.78 773.432 212.316 771.533C223.926 769.622 230.488 766.939 234.237 764.064C237.721 761.392 239.068 758.333 239.597 754.492C239.877 752.466 239.921 750.239 239.879 747.693C239.84 745.301 239.71 742.305 239.71 739.5C239.71 736.01 237.006 731.248 230.464 725.682C224.147 720.307 215.152 714.959 204.761 710.206C183.928 700.677 158.502 694 139.907 694Z" fill="#87CFE5" stroke="#0178B2" stroke-width="9"/>
<path d="M103.365 723.952C92.3865 766.952 125.775 772 164.359 772C202.944 772 224.741 769 230.23 762C243.205 756 189.695 760.952 161.75 757.952C76.9168 757.952 122.941 681 103.365 723.952Z" fill="#31A7BA"/>
</g>
<g clip-path="url(#clip2_414_4)">
<path d="M190.905 690C172.488 690 162.542 695.777 156.986 703.291C151.231 711.076 149.486 721.636 149.486 732.5C149.486 743.729 150.361 752.38 157.622 758.753C165.212 765.415 180.805 770.5 213.36 770.5C235.711 770.5 251.778 769.432 263.314 767.533C274.924 765.622 281.486 762.939 285.235 760.064C288.719 757.392 290.066 754.333 290.595 750.492C290.875 748.466 290.919 746.239 290.877 743.693C290.838 741.301 290.708 738.305 290.708 735.5C290.708 732.01 288.004 727.248 281.462 721.682C275.145 716.307 266.15 710.959 255.759 706.206C234.926 696.677 209.5 690 190.905 690Z" fill="#87CFE5" stroke="#0178B2" stroke-width="9"/>
<path d="M154.363 719.952C143.385 762.952 176.773 768 215.357 768C253.942 768 275.739 765 281.228 758C294.203 752 240.693 756.952 212.748 753.952C127.915 753.952 173.939 677 154.363 719.952Z" fill="#31A7BA"/>
</g>
<g clip-path="url(#clip3_414_4)">
<path d="M253.21 582.196L253.245 582.223L253.283 582.243L259.507 585.642L259.539 585.66L259.573 585.673L265.213 587.854L265.235 587.863L269.882 589.229L264.244 608.406L262.993 611.766L259.813 614.238L257.227 615.356L254.115 614.932L251.381 614.128L248.833 611.927L246.786 607.901L245.389 601.572L245.756 593.127L246.686 584.797L248.499 578.631L253.21 582.196Z" fill="#FEFEFE" stroke="#0578A5" stroke-width="3"/>
<path d="M282.61 586.453L282.581 586.463L282.552 586.466L278.317 586.841L278.292 586.843L278.27 586.84L274.822 586.367L274.808 586.365L272.205 585.6L266.432 605.238L265.547 608.751L265.879 612.308L266.532 614.418L268.085 615.378L269.637 615.834L271.705 614.954L274.34 612.219L277.685 607.129L281.17 599.361L284.363 591.443L286.17 585.295L282.61 586.453Z" fill="#FEFEFE" stroke="#0875A4" stroke-width="3"/>
<path d="M269.525 591.385C282.322 581.003 285.996 568.373 291.526 542.239" stroke="#076FA2" stroke-width="5" stroke-linecap="round"/>
</g>
<g clip-path="url(#clip4_414_4)">
<path d="M87.6337 557.125C92.9014 557.579 95.0999 559.379 96.2534 561.695C97.6571 564.513 97.9577 568.907 97.417 575.423C96.3864 587.843 92.332 606.729 93.2289 627.949L93.2419 628.256L93.3083 628.557C96.7304 644.042 99.7111 657.855 99.4379 669.808C99.1756 681.276 95.9245 690.663 87.264 697.958C74.2207 700.759 64.3155 700.267 56.8514 697.688C49.3057 695.082 43.9714 690.25 40.2726 683.911C32.7278 670.98 31.981 651.734 34.4555 633.042L34.4748 632.898L34.4814 632.754C35.3512 615.104 43.8893 596.246 54.9232 581.628C60.4205 574.345 66.447 568.237 72.2837 563.93C78.097 559.639 83.4041 557.368 87.6337 557.125Z" fill="#87CFE5" stroke="#0076B8" stroke-width="7"/>
<path d="M73.8854 663.59C73.9313 663.303 73.8572 663.001 73.6899 662.751C73.5221 662.503 73.2746 662.329 72.9917 662.264C72.7088 662.199 72.4104 662.25 72.1518 662.402C71.8939 662.554 71.6967 662.795 71.6143 663.073C71.4384 663.674 71.2707 664.258 71.104 664.86C67.7597 675.455 67.9966 687.849 71.4555 698.671C71.635 699.289 71.8085 699.875 71.9981 700.49C74.1775 699.669 76.357 698.847 78.5364 698.025C78.2873 697.472 78.0537 696.948 77.8147 696.394C73.363 686.671 71.7448 676.235 73.6105 665.391C73.6982 664.786 73.7875 664.198 73.8854 663.59Z" fill="#0074AB"/>
<path d="M50.066 663.528C50.0859 663.232 49.9821 662.932 49.7903 662.692C49.5978 662.454 49.3332 662.296 49.0416 662.254C48.75 662.211 48.4515 662.286 48.1988 662.459C47.9468 662.633 47.7613 662.891 47.6959 663.179C47.579 663.704 47.4691 664.2 47.3582 664.726C45.1885 673.922 45.1556 684.085 46.4744 693.473C46.5398 694.007 46.6022 694.515 46.6704 695.048C46.7891 695.999 47.2797 696.833 48.0764 697.359C48.8706 697.885 49.9057 698.059 50.912 697.852C51.9183 697.646 52.8012 697.077 53.3247 696.281C53.8506 695.483 53.974 694.523 53.7098 693.603C53.5657 693.098 53.4275 692.617 53.2866 692.113C50.6416 683.22 49.282 674.418 49.9696 665.078C49.9999 664.552 50.0295 664.055 50.066 663.528Z" fill="#007BA4"/>
</g>
<path d="M227.951 411.602C239.338 410.095 250.847 416.13 260.252 427.454C269.654 438.775 276.788 455.218 279.262 473.908C282.048 494.961 281.126 512.4 275.876 524.978C270.714 537.35 261.211 545.394 245.927 547.417C234.543 548.924 223.411 542.996 214.373 531.736C205.325 520.464 198.508 503.972 195.988 484.93C193.468 465.888 195.759 448.19 201.563 434.952C207.361 421.729 216.567 413.109 227.951 411.602Z" fill="#FEFEFE" stroke="#0F79AB" stroke-width="6"/>
<path d="M276.746 482.315C277.052 493.534 272.005 502.774 264.926 502.968C257.848 503.161 251.862 494.223 251.555 483.003C251.249 471.784 256.738 462.532 263.816 462.338C271.841 464.66 276.427 470.634 276.746 482.315Z" fill="#2B2A28"/>
<path d="M300.611 400.509C292.497 401.811 286.244 410.79 282.782 424.609C279.321 438.424 278.719 456.868 281.858 476.432C285.394 498.47 290.516 515.921 297.319 527.37C304.011 538.63 312.532 544.425 323.423 542.677C331.535 541.375 337.559 532.598 340.789 518.935C344.023 505.258 344.396 486.843 341.198 466.911C338 446.978 331.884 429.604 324.533 417.625C317.191 405.659 308.723 399.207 300.611 400.509Z" fill="#FEFEFE" stroke="#0F79AB" stroke-width="6"/>
<path d="M286.953 480.036C287.479 490.491 292.517 498.736 298.68 498.425C304.844 498.115 309.414 489.388 308.888 478.932C308.362 468.476 302.939 460.251 296.775 460.561C289.967 463.276 286.405 469.15 286.953 480.036Z" fill="#2B2A28"/>
<path d="M292 553.055C303.046 553.055 312 543.417 312 531.527C312 519.638 303.046 510 292 510C280.954 510 272 519.638 272 531.527C272 543.417 280.954 553.055 292 553.055Z" fill="#ED6F7A"/>
<path fill-rule="evenodd" clip-rule="evenodd" d="M547.214 526.786C542.794 517.267 454.479 535.062 420.418 550.849C402.816 559.007 394.465 578.427 401.783 594.189C409.101 609.951 429.333 616.124 446.936 607.966C480.997 592.18 551.633 536.306 547.214 526.786Z" fill="#FF9425"/>
<path fill-rule="evenodd" clip-rule="evenodd" d="M547.348 527.162C547.291 526.972 547.209 526.764 547.209 526.764C547.209 526.764 400.4 590.315 401.784 594.189C407.628 610.552 429.377 616.218 446.937 607.966C513.068 576.885 549.339 533.87 547.348 527.162Z" fill="#FF8600"/>
<path d="M439.231 608.704C437.663 602.076 435.717 595.581 431.862 589.966" stroke="#EF6A00" stroke-width="5" stroke-miterlimit="10" stroke-linecap="round" stroke-linejoin="round"/>
<path d="M469.115 594.063C469.843 588.984 467.436 584.897 464.568 580.828" stroke="#EF6A00" stroke-width="5" stroke-miterlimit="10" stroke-linecap="round" stroke-linejoin="round"/>
<path d="M503.973 571.498C501.682 565.585 499.158 560.986 496.496 557.154" stroke="#EF6A00" stroke-width="5" stroke-miterlimit="10" stroke-linecap="round" stroke-linejoin="round"/>
<path fill-rule="evenodd" clip-rule="evenodd" d="M407.794 591.992C407.794 591.992 382.194 591.709 373.337 593.698C364.518 595.677 359.956 608.587 362.151 612.61C365.162 618.128 374.16 620.668 382.071 615.457C389.523 610.55 407.794 591.992 407.794 591.992Z" fill="#129447"/>
<path fill-rule="evenodd" clip-rule="evenodd" d="M407.775 592.148C407.775 592.148 397.049 589.715 388.08 583.599C383.09 580.198 381.236 572.669 377.269 570.735C372.515 568.417 366.563 567.918 364.68 572.6C362.796 577.28 366.006 582.549 370.952 588.205C379.608 598.103 402.445 593.415 407.775 592.148Z" fill="#00AA63"/>
<path fill-rule="evenodd" clip-rule="evenodd" d="M407.925 590.93C407.925 590.93 401.547 584.815 395.467 576.03C391.158 569.802 388.609 560.662 388.492 560.035C386.891 551.461 378.471 551.613 375.427 558.445C372.776 564.395 374.463 571.041 377.47 575.635C385.224 587.485 404.36 594.102 407.925 590.93Z" fill="#129447"/>
<path fill-rule="evenodd" clip-rule="evenodd" d="M407.926 590.931C407.926 590.931 403.975 600.403 403.408 610.797C403.092 616.578 408.166 622.662 407.277 626.775C406.211 631.705 402.887 636.366 397.824 634.802C392.762 633.238 389.7 625.668 388.833 620.417C386.744 607.771 403.146 592.595 407.926 590.931Z" fill="#00AA63"/>
<path fill-rule="evenodd" clip-rule="evenodd" d="M407.925 590.932C407.925 590.932 408.276 602.578 411.57 612.587C414.239 620.699 418.571 625.597 419.348 628.263C420.778 633.166 418.082 637.555 412.8 637.309C407.518 637.063 401.755 629.683 400.236 625.597C395.559 613.007 403.338 594.918 407.925 590.932Z" fill="#129447"/>
<path d="M435.104 563.637C435.262 557.563 432.801 551.835 430.989 548.254" stroke="#EF6A00" stroke-width="5" stroke-miterlimit="10" stroke-linecap="round" stroke-linejoin="round"/>
<path d="M473.651 549.478C473.691 544.889 471.846 540.168 470.493 537.174" stroke="#EF6A00" stroke-width="5" stroke-miterlimit="10" stroke-linecap="round" stroke-linejoin="round"/>
<path d="M511.661 535.821C511.518 533.265 510.2 530.415 509.251 528.587" stroke="#EF6A00" stroke-width="5" stroke-miterlimit="10" stroke-linecap="round" stroke-linejoin="round"/>
</g>
<defs>
<clipPath id="clip0_414_4">
<rect width="570" height="786" fill="white"/>
</clipPath>
<clipPath id="clip1_414_4">
<rect width="150.704" height="90" fill="white" transform="matrix(-1 0 0 1 244.701 689)"/>
</clipPath>
<clipPath id="clip2_414_4">
<rect width="150.704" height="90" fill="white" transform="matrix(-1 0 0 1 295.699 685)"/>
</clipPath>
<clipPath id="clip3_414_4">
<rect width="127.764" height="81.2975" fill="white" transform="translate(225.928 524) rotate(16.3822)"/>
</clipPath>
<clipPath id="clip4_414_4">
<rect width="75.8512" height="149" fill="white" transform="translate(25.5771 556.242) rotate(-2.42029)"/>
</clipPath>
</defs>
</svg>
