<svg width="570" height="786" viewBox="0 0 570 786" fill="none" xmlns="http://www.w3.org/2000/svg">
<g clip-path="url(#clip0_393_3)">
<path d="M321.16 477.629C322.494 472.501 324.855 470.63 327.632 469.878C331.01 468.963 335.983 469.401 343.202 471.025C356.963 474.121 377.498 481.286 401.425 483.95L401.771 483.989L402.12 483.974C420.013 483.183 435.963 482.55 449.319 484.819C462.132 486.997 472.145 491.779 478.967 501.555C480.063 514.91 477.96 524.614 473.901 531.556C469.797 538.574 463.546 543.037 455.861 545.63C440.185 550.921 418.495 548.438 397.93 542.867L397.772 542.824L397.611 542.794C377.963 538.981 358.16 527.391 343.503 514.045C336.2 507.396 330.298 500.42 326.383 493.933C322.484 487.472 320.769 481.849 321.16 477.629Z" fill="#87CFE5" stroke="#0076B8" stroke-width="7"/>
<path d="M431.963 522.503C431.64 522.552 431.295 522.481 431.006 522.315C430.718 522.149 430.51 521.903 430.425 521.619C430.339 521.336 430.383 521.036 430.544 520.775C430.705 520.515 430.969 520.314 431.281 520.229C431.953 520.046 432.606 519.872 433.28 519.699C445.121 516.238 459.151 516.353 471.541 519.718C472.248 519.892 472.919 520.06 473.623 520.244C472.787 522.44 471.951 524.636 471.115 526.832C470.479 526.587 469.875 526.358 469.239 526.123C458.049 521.751 446.174 520.23 433.988 522.21C433.307 522.304 432.646 522.399 431.963 522.503Z" fill="#0074AB"/>
<path d="M433.133 499.23C432.8 499.253 432.455 499.152 432.176 498.962C431.899 498.771 431.709 498.507 431.648 498.215C431.587 497.922 431.659 497.622 431.844 497.367C432.03 497.112 432.314 496.923 432.637 496.855C433.225 496.732 433.782 496.617 434.372 496.5C444.681 494.232 456.176 494.098 466.852 495.329C467.459 495.39 468.037 495.447 468.642 495.511C469.723 495.62 470.688 496.105 471.317 496.899C471.946 497.691 472.188 498.728 471.997 499.74C471.806 500.752 471.201 501.644 470.323 502.178C469.443 502.713 468.362 502.847 467.311 502.59C466.733 502.451 466.182 502.317 465.607 502.18C455.433 499.613 445.419 498.336 434.882 499.118C434.289 499.154 433.727 499.188 433.133 499.23Z" fill="#007BA4"/>
<path d="M188.848 10.5436C178.557 7.45313 168.57 9.03344 159.061 15.0133C149.388 21.0965 140.082 31.8452 131.963 47.1755C115.741 77.8016 105.023 125.289 105 184.597C106.758 209.161 107.513 233.922 108.264 256.833C109.019 279.896 109.769 300.998 111.505 318.449C113.268 336.162 115.973 349.064 120.07 356.367C122.047 359.889 123.976 361.434 125.649 362.025C127.26 362.595 129.755 362.674 133.755 360.839L136.646 359.513L139.358 361.178C143.033 363.435 144.665 363.261 145.157 363.12C145.631 362.984 146.832 362.368 148.384 359.243C149.907 356.176 151.273 351.672 152.591 345.609C153.896 339.612 155.074 332.491 156.365 324.353C161.496 292.01 168.141 245.026 191.3 200.518L191.461 200.207L191.658 199.918L193.943 196.527C241.327 125.773 250.091 82.7053 243.066 56.28C236.066 29.9483 212.61 17.6794 188.848 10.5436Z" fill="#8BCDE5" stroke="#0E6B96" stroke-width="12"/>
<path d="M307.992 72.479C334.786 50.6736 360.288 46.6094 376.526 55.0702C394.08 64.2167 409.951 84.1802 407.097 112.263C404.208 140.7 381.976 179.241 318.749 224.511L318.623 224.602L318.503 224.697C278.932 256.215 258.817 295.608 245.126 322.979C241.681 329.868 238.708 335.866 235.915 340.888C233.096 345.957 230.683 349.614 228.474 351.972C226.27 354.326 224.914 354.707 224.182 354.728C223.394 354.749 221.615 354.401 218.494 351.555L216.435 349.676L213.677 350.051C209.205 350.658 206.583 349.956 205.006 348.971C203.473 348.012 202.073 346.25 201.118 342.926C199.087 335.861 199.766 324.217 202.937 308.343C209.212 276.924 224.097 233.842 237.735 188.839C254.866 132.308 281.468 94.066 307.992 72.479Z" fill="#87CFE5" stroke="#0E6B96" stroke-width="12"/>
<path d="M189.571 335.001C291.645 335.001 374.345 417.407 374.345 519.001C374.345 620.595 291.645 703.002 189.571 703.002C87.4968 703.002 4.79688 620.595 4.79688 519.001C4.79688 417.407 87.4968 335.001 189.571 335.001Z" fill="#86D0E3" stroke="#0C74AB" stroke-width="7"/>
<path d="M316.075 647.001C281.71 686.002 217.96 701.502 193.058 699.002C86.4769 705.002 6.29182 610.896 8.78203 517.501C10.3418 459.001 -4.16709 597.001 134.289 656.002C208.498 693.502 316.075 647.001 316.075 647.001Z" fill="#37B4CA"/>
<path opacity="0.77" d="M252.702 381.81L254.366 386.486L254.542 391.91L246.71 392.185L246.597 392.189L246.486 392.219L232.498 396.087L232.466 396.096L232.436 396.107L222.714 399.497L222.626 399.528L222.545 399.575L213.039 405.003L210.985 400.449L210.628 397.247L221.979 388.268L236.923 380.387L244.57 378.198L250.659 377.906L252.702 381.81Z" fill="#004F80"/>
<path opacity="0.7" d="M287.041 373.481L293.508 371.499L300.01 371.075L307.356 371.961L316.759 373.785L325.095 376.46L326.08 384.002L317.264 384.09L307.235 384.549L299.52 385.345L293.862 387.079L287.395 389.062L285.344 382.369L285.091 377.217L287.041 373.481Z" fill="#014C83"/>
<g clip-path="url(#clip1_393_3)">
<path d="M139.908 694C121.491 694 111.545 699.777 105.989 707.291C100.233 715.076 98.4889 725.636 98.4889 736.5C98.4889 747.729 99.3642 756.38 106.625 762.753C114.215 769.415 129.807 774.5 162.363 774.5C184.713 774.5 200.781 773.432 212.317 771.533C223.927 769.622 230.489 766.939 234.238 764.064C237.722 761.392 239.069 758.333 239.598 754.492C239.878 752.466 239.922 750.239 239.88 747.693C239.841 745.301 239.711 742.305 239.711 739.5C239.711 736.01 237.007 731.248 230.465 725.682C224.148 720.307 215.153 714.959 204.762 710.206C183.929 700.677 158.503 694 139.908 694Z" fill="#87CFE5" stroke="#0178B2" stroke-width="9"/>
<path d="M103.366 723.952C92.3875 766.952 125.776 772 164.36 772C202.945 772 224.742 769 230.231 762C243.206 756 189.696 760.952 161.751 757.952C76.9178 757.952 122.942 681 103.366 723.952Z" fill="#31A7BA"/>
</g>
<g clip-path="url(#clip2_393_3)">
<path d="M190.907 690C172.49 690 162.544 695.777 156.988 703.291C151.232 711.076 149.488 721.636 149.488 732.5C149.488 743.729 150.363 752.38 157.624 758.753C165.214 765.415 180.806 770.5 213.362 770.5C235.712 770.5 251.78 769.432 263.316 767.533C274.926 765.622 281.488 762.939 285.237 760.064C288.721 757.392 290.068 754.333 290.597 750.492C290.877 748.466 290.921 746.239 290.879 743.693C290.84 741.301 290.71 738.305 290.71 735.5C290.71 732.01 288.006 727.248 281.464 721.682C275.147 716.307 266.152 710.959 255.761 706.206C234.928 696.677 209.502 690 190.907 690Z" fill="#87CFE5" stroke="#0178B2" stroke-width="9"/>
<path d="M154.365 719.952C143.386 762.952 176.775 768 215.359 768C253.944 768 275.741 765 281.23 758C294.205 752 240.695 756.952 212.75 753.952C127.917 753.952 173.941 677 154.365 719.952Z" fill="#31A7BA"/>
</g>
<g clip-path="url(#clip3_393_3)">
<path d="M253.212 582.196L253.247 582.223L253.285 582.243L259.509 585.642L259.541 585.66L259.575 585.673L265.215 587.854L265.237 587.863L269.884 589.229L264.246 608.406L262.994 611.766L259.815 614.238L257.229 615.356L254.117 614.932L251.383 614.128L248.835 611.927L246.788 607.901L245.391 601.572L245.758 593.127L246.688 584.797L248.501 578.631L253.212 582.196Z" fill="#FEFEFE" stroke="#0578A5" stroke-width="3"/>
<path d="M282.612 586.453L282.583 586.463L282.553 586.466L278.319 586.841L278.294 586.843L278.272 586.84L274.824 586.367L274.81 586.365L272.207 585.6L266.434 605.238L265.549 608.751L265.881 612.308L266.534 614.418L268.087 615.378L269.639 615.834L271.707 614.954L274.342 612.219L277.686 607.129L281.172 599.361L284.365 591.443L286.172 585.295L282.612 586.453Z" fill="#FEFEFE" stroke="#0875A4" stroke-width="3"/>
<path d="M269.527 591.385C282.324 581.003 285.998 568.373 291.528 542.239" stroke="#076FA2" stroke-width="5" stroke-linecap="round"/>
</g>
<g clip-path="url(#clip4_393_3)">
<path d="M87.6337 557.125C92.9014 557.579 95.0999 559.379 96.2534 561.695C97.6571 564.513 97.9577 568.907 97.417 575.423C96.3864 587.843 92.332 606.729 93.2289 627.949L93.2419 628.256L93.3083 628.557C96.7304 644.042 99.7111 657.855 99.4379 669.808C99.1756 681.276 95.9245 690.663 87.264 697.958C74.2207 700.759 64.3155 700.267 56.8514 697.688C49.3057 695.082 43.9714 690.25 40.2726 683.911C32.7278 670.98 31.981 651.734 34.4555 633.042L34.4748 632.898L34.4814 632.754C35.3512 615.104 43.8893 596.246 54.9232 581.628C60.4205 574.345 66.447 568.237 72.2837 563.93C78.097 559.639 83.4041 557.368 87.6337 557.125Z" fill="#87CFE5" stroke="#0076B8" stroke-width="7"/>
<path d="M73.8854 663.59C73.9313 663.303 73.8572 663.001 73.6899 662.751C73.5221 662.503 73.2746 662.329 72.9917 662.264C72.7088 662.199 72.4104 662.25 72.1518 662.402C71.8939 662.554 71.6967 662.795 71.6143 663.073C71.4384 663.674 71.2707 664.258 71.104 664.86C67.7597 675.455 67.9966 687.849 71.4555 698.671C71.635 699.289 71.8085 699.875 71.9981 700.49C74.1775 699.669 76.357 698.847 78.5364 698.025C78.2873 697.472 78.0537 696.948 77.8147 696.394C73.363 686.671 71.7448 676.235 73.6105 665.391C73.6982 664.786 73.7875 664.198 73.8854 663.59Z" fill="#0074AB"/>
<path d="M50.066 663.528C50.0859 663.232 49.9821 662.932 49.7903 662.692C49.5978 662.454 49.3332 662.296 49.0416 662.254C48.75 662.211 48.4515 662.286 48.1988 662.459C47.9468 662.633 47.7613 662.891 47.6959 663.179C47.579 663.704 47.4691 664.2 47.3582 664.726C45.1885 673.922 45.1556 684.085 46.4744 693.473C46.5398 694.007 46.6022 694.515 46.6704 695.048C46.7891 695.999 47.2797 696.833 48.0764 697.359C48.8706 697.885 49.9057 698.059 50.912 697.852C51.9183 697.646 52.8012 697.077 53.3247 696.281C53.8506 695.483 53.974 694.523 53.7098 693.603C53.5657 693.098 53.4275 692.617 53.2866 692.113C50.6416 683.22 49.282 674.418 49.9696 665.078C49.9999 664.552 50.0295 664.055 50.066 663.528Z" fill="#007BA4"/>
</g>
<path d="M227.951 411.602C239.338 410.095 250.847 416.13 260.252 427.454C269.654 438.775 276.788 455.218 279.262 473.908C282.048 494.961 281.126 512.4 275.876 524.978C270.714 537.35 261.211 545.394 245.927 547.417C234.543 548.924 223.411 542.996 214.373 531.736C205.325 520.464 198.508 503.972 195.988 484.93C193.468 465.888 195.759 448.19 201.563 434.952C207.361 421.729 216.567 413.109 227.951 411.602Z" fill="#FEFEFE" stroke="#0F79AB" stroke-width="6"/>
<path d="M272.649 475.147C274.121 486.273 270.063 495.988 263.043 496.917C256.024 497.846 249.139 489.58 247.667 478.453C246.194 467.327 250.691 457.553 257.71 456.624C265.933 458.098 271.115 463.562 272.649 475.147Z" fill="#2B2A28"/>
<path d="M300.611 400.509C292.497 401.811 286.244 410.79 282.782 424.609C279.321 438.424 278.719 456.868 281.858 476.432C285.394 498.47 290.516 515.921 297.319 527.37C304.011 538.63 312.532 544.425 323.423 542.677C331.535 541.375 337.559 532.598 340.789 518.935C344.023 505.258 344.396 486.843 341.198 466.911C338 446.978 331.884 429.604 324.533 417.625C317.191 405.659 308.723 399.207 300.611 400.509Z" fill="#FEFEFE" stroke="#0F79AB" stroke-width="6"/>
<path d="M288.953 467.036C289.479 477.491 294.517 485.736 300.68 485.425C306.844 485.115 311.414 476.388 310.888 465.932C310.362 455.476 304.939 447.251 298.775 447.561C291.967 450.276 288.405 456.15 288.953 467.036Z" fill="#2B2A28"/>
<path d="M292 553.055C303.046 553.055 312 543.417 312 531.527C312 519.638 303.046 510 292 510C280.954 510 272 519.638 272 531.527C272 543.417 280.954 553.055 292 553.055Z" fill="#ED6F7A"/>
<path fill-rule="evenodd" clip-rule="evenodd" d="M532.35 453.086C526.5 444.371 441.227 476.348 409.695 497.523C393.399 508.465 388.032 529.065 397.716 543.493C407.402 557.923 428.494 560.754 444.79 549.811C476.322 528.636 538.199 461.801 532.35 453.086Z" fill="#FF9425"/>
<path fill-rule="evenodd" clip-rule="evenodd" d="M532.541 453.436C532.454 453.257 532.342 453.064 532.342 453.064C532.342 453.064 395.75 539.879 397.717 543.493C406.025 558.757 428.552 560.839 444.791 549.81C505.947 508.272 535.543 459.759 532.541 453.436Z" fill="#FF8600"/>
<path d="M437.227 551.794C434.659 545.481 431.732 539.361 427.04 534.424" stroke="#EF6A00" stroke-width="5" stroke-miterlimit="10" stroke-linecap="round" stroke-linejoin="round"/>
<path d="M464.773 532.433C464.726 527.282 461.707 523.623 458.232 520.057" stroke="#EF6A00" stroke-width="5" stroke-miterlimit="10" stroke-linecap="round" stroke-linejoin="round"/>
<path d="M496.067 504.412C492.888 498.925 489.674 494.779 486.44 491.413" stroke="#EF6A00" stroke-width="5" stroke-miterlimit="10" stroke-linecap="round" stroke-linejoin="round"/>
<path fill-rule="evenodd" clip-rule="evenodd" d="M403.372 540.34C403.372 540.34 377.826 544.218 369.305 547.627C360.821 551.02 358.238 564.554 361.035 568.184C364.874 573.162 374.223 574.217 381.312 567.769C387.99 561.696 403.372 540.34 403.372 540.34Z" fill="#129447"/>
<path fill-rule="evenodd" clip-rule="evenodd" d="M403.376 540.499C403.376 540.499 392.32 539.829 382.457 535.227C376.969 532.667 373.978 525.508 369.733 524.236C364.644 522.711 358.64 523.183 357.475 528.128C356.309 533.072 360.308 537.771 366.094 542.572C376.221 550.974 398.259 542.619 403.376 540.499Z" fill="#00AA63"/>
<path fill-rule="evenodd" clip-rule="evenodd" d="M403.341 539.268C403.341 539.268 396.058 534.244 388.666 526.527C383.427 521.056 379.499 512.414 379.288 511.811C376.39 503.575 368.025 505.094 366.031 512.357C364.294 518.684 366.985 524.995 370.678 529.059C380.203 539.541 400.271 542.989 403.341 539.268Z" fill="#129447"/>
<path fill-rule="evenodd" clip-rule="evenodd" d="M403.341 539.268C403.341 539.268 400.844 549.295 401.859 559.686C402.423 565.466 408.402 570.67 408.141 574.89C407.829 579.948 405.225 585.106 399.944 584.379C394.663 583.652 390.463 576.648 388.802 571.586C384.799 559.394 398.833 541.693 403.341 539.268Z" fill="#00AA63"/>
<path fill-rule="evenodd" clip-rule="evenodd" d="M403.341 539.269C403.341 539.269 405.46 550.751 410.261 560.133C414.153 567.738 419.212 571.888 420.392 574.403C422.561 579.028 420.543 583.816 415.244 584.429C409.945 585.044 403.082 578.667 400.948 574.865C394.376 563.15 399.376 543.963 403.341 539.269Z" fill="#129447"/>
<path d="M426.267 507.809C425.502 501.765 422.18 496.489 419.83 493.235" stroke="#EF6A00" stroke-width="5" stroke-miterlimit="10" stroke-linecap="round" stroke-linejoin="round"/>
<path d="M462.515 487.519C461.859 482.965 459.303 478.587 457.501 475.84" stroke="#EF6A00" stroke-width="5" stroke-miterlimit="10" stroke-linecap="round" stroke-linejoin="round"/>
<path d="M498.306 467.812C497.775 465.303 496.029 462.693 494.807 461.036" stroke="#EF6A00" stroke-width="5" stroke-miterlimit="10" stroke-linecap="round" stroke-linejoin="round"/>
</g>
<defs>
<clipPath id="clip0_393_3">
<rect width="570" height="786" fill="white"/>
</clipPath>
<clipPath id="clip1_393_3">
<rect width="150.704" height="90" fill="white" transform="matrix(-1 0 0 1 244.702 689)"/>
</clipPath>
<clipPath id="clip2_393_3">
<rect width="150.704" height="90" fill="white" transform="matrix(-1 0 0 1 295.701 685)"/>
</clipPath>
<clipPath id="clip3_393_3">
<rect width="127.764" height="81.2975" fill="white" transform="translate(225.93 524) rotate(16.3822)"/>
</clipPath>
<clipPath id="clip4_393_3">
<rect width="75.8512" height="149" fill="white" transform="translate(25.5771 556.242) rotate(-2.42029)"/>
</clipPath>
</defs>
</svg>
