<svg width="1100" height="850" viewBox="0 0 1100 850" fill="none" xmlns="http://www.w3.org/2000/svg">
<g clip-path="url(#clip0_471_2315)">
<path d="M550.005 103.458C562.739 65.5375 582.481 48.2676 600.098 49.7313C619.143 51.3136 641.702 65.9325 652.11 99.0226C662.65 132.53 658.991 140.144 626.116 222.652L618.551 276.523L614.61 304.49C605.797 372.036 610.26 379.559 611.165 417.237C611.394 426.721 611.615 434.964 611.544 442.017C611.471 449.137 611.098 454.461 610.303 458.22C609.512 461.97 608.537 463.075 607.927 463.463C607.269 463.879 605.604 464.37 601.66 462.713L599.059 461.619L596.894 463.414C593.384 466.323 590.843 466.836 589.057 466.509C587.321 466.19 585.33 464.9 583.004 461.627C578.057 454.67 566.764 441.357 562.2 421.877C553.166 383.323 525.173 330.31 516.17 272.773C504.861 200.497 537.399 140.999 550.005 103.458Z" fill="#87CFE5" stroke="#0E6B96" stroke-width="12"/>
<path d="M274.21 109.052C283.335 100.449 294.482 96.3703 307.332 96.6627C320.404 96.9602 335.43 101.813 351.516 111.601C383.652 131.152 418.515 169.492 448.201 224.804C458.663 248.696 470.264 272.214 480.943 294.003C491.694 315.937 501.47 336.039 508.398 353.283C515.428 370.787 519.076 384.326 518.48 393.417C518.192 397.801 516.964 400.314 515.524 401.796C514.139 403.223 511.591 404.684 506.527 405.195L502.865 405.566L500.887 408.626C498.204 412.775 496.425 413.52 495.845 413.662C495.285 413.799 493.731 413.892 490.559 411.839C487.446 409.825 483.777 406.383 479.378 401.46C475.026 396.591 470.243 390.603 464.834 383.729C443.339 356.411 412.951 316.276 366.678 287.631L366.355 287.431L366.007 287.27L361.941 285.378C277.423 245.717 246.796 210.413 240.865 181.857C234.954 153.403 253.14 128.918 274.21 109.052Z" fill="#8BCDE5" stroke="#0E6B96" stroke-width="12"/>
<g clip-path="url(#clip1_471_2315)">
<path d="M657.473 718.179C645.464 704.169 634.593 700.363 625.265 701.026C615.601 701.715 606.446 707.26 598.197 714.33C589.671 721.638 583.674 727.934 583.57 737.605C583.461 747.715 589.768 762.886 610.997 787.652C625.572 804.655 636.86 816.182 645.824 823.723C654.846 831.311 661.162 834.557 665.789 835.538C670.09 836.45 673.291 835.483 676.552 833.386C678.273 832.28 679.992 830.864 681.898 829.176C683.688 827.589 685.879 825.54 688.009 823.715C690.658 821.444 692.51 816.287 692.471 807.688C692.432 799.385 690.627 789.061 687.46 778.063C681.11 756.014 669.599 732.326 657.473 718.179Z" fill="#87CFE5" stroke="#0178B2" stroke-width="9"/>
<path d="M610.904 709.873C571.097 729.506 589.037 758.192 614.197 787.544C639.357 816.896 655.849 831.526 664.743 831.146C677.759 837.111 639.107 799.627 623.162 776.416C567.843 711.881 656.28 696.812 610.904 709.873Z" fill="#31A7BA"/>
</g>
<path d="M585.501 366.001C687.976 366.001 771.001 448.407 771.001 550.001C771.001 651.595 687.976 734.001 585.501 734.001C483.026 734.001 400.001 651.595 400.001 550.001C400.001 448.407 483.026 366.001 585.501 366.001Z" fill="#86D0E3" stroke="#0C74AB" stroke-width="7"/>
<path d="M712.501 678.001C678.001 717.001 614.001 732.501 589.001 730.001C482.001 736.001 401.501 641.896 404.001 548.501C405.567 490.001 391.001 628.001 530.001 687.001C604.501 724.501 712.501 678.001 712.501 678.001Z" fill="#37B4CA"/>
<path opacity="0.77" d="M547.315 386.918L559.167 376.613L574.684 367.513L582.964 364.681L590.327 363.848L593.423 368.198L595.886 372.975L596.896 379.654L587.29 380.622L572.532 385.529L562.356 389.641L551.706 396.375L548.262 390.879L547.315 386.918Z" fill="#004F80"/>
<path d="M575.261 433.975C599.546 423.857 629.367 437.872 640.928 465.62C647.452 481.276 649.329 495.213 645.823 506.744C642.365 518.114 633.492 527.725 617.159 534.53C592.966 544.61 564.741 530.577 552.95 502.278C541.158 473.977 551.069 444.055 575.261 433.975Z" fill="#FEFEFE" stroke="#0F79AB" stroke-width="6"/>
<path d="M662.154 396.978C674.095 392.003 687.66 393.471 700.013 400.165C712.361 406.857 723.285 418.685 729.645 433.95C736.81 451.145 739.272 466.432 736.121 478.94C733.022 491.242 724.401 501.228 708.373 507.906C696.436 512.879 683.296 511.381 671.351 504.624C659.393 497.86 648.801 485.887 642.321 470.334C635.84 454.782 634.798 438.83 638.415 425.576C642.028 412.337 650.217 401.952 662.154 396.978Z" fill="#FEFEFE" stroke="#0F79AB" stroke-width="6"/>
<path d="M651.001 550.256C658.108 536.329 658.069 526.891 652.958 508" stroke="#0082AA" stroke-width="7" stroke-linecap="round"/>
<path d="M666.449 523.181C677.002 518.785 681.898 506.44 677.385 495.61C672.873 484.78 660.66 479.564 650.108 483.961C639.555 488.358 634.659 500.702 639.172 511.532C643.684 522.363 655.897 527.578 666.449 523.181Z" fill="#ED6F7A"/>
<path d="M676.51 453.276C680.025 461.713 676.594 471.169 668.2 474.667C659.806 478.164 650.151 474.16 646.636 465.724C643.12 457.287 647.076 447.612 655.47 444.114C665.699 442.093 672.85 444.492 676.51 453.276Z" fill="#2B2A28"/>
<path d="M611.265 488.426C619.513 485.178 623.439 475.537 620.034 466.891C616.629 458.246 607.183 453.87 598.935 457.119C590.687 460.367 586.761 470.008 590.166 478.654C593.57 487.299 603.017 491.675 611.265 488.426Z" fill="#2B2A28"/>
<path opacity="0.7" d="M625.67 394.877L631.54 387.662L638.488 382.074L647.248 377.21L658.92 371.718L669.973 367.971L676.095 375.201L666.35 382.26L655.503 390.672L647.454 397.613L642.318 403.926L636.448 411.141L629.706 405.655L625.991 400.384L625.67 394.877Z" fill="#014C83"/>
<path d="M554.862 564.805L554.99 564.976L554.999 565.161C555.294 571.366 588.326 583.789 615.183 599.096C646.418 606.724 635.627 607.431 667.324 603.435C696.866 593.559 699.29 589.962 706.41 581.073C710.002 576.588 714.413 566.01 715.471 562.825C715.825 561.76 716.637 538.779 716.953 537.907C712.935 539.258 693.461 550.345 687.934 551.946C665.135 558.55 666.154 560.499 637.738 564.415C606.571 565.851 605.213 571.52 590.25 567.098C586.491 565.987 560.477 566.516 557.876 565.669C556.689 565.283 557.109 567.334 556.218 567.053C556.251 567.098 554.828 564.759 554.862 564.805Z" fill="#D20223" stroke="#076FA2" stroke-width="6"/>
<path d="M682.368 595.622C691.291 595.379 698.348 591.485 705.144 584.035C711.723 576.821 715.209 565.338 709.825 563.893C696.681 566.849 685.836 570.962 678.373 592.733C677.752 594.998 677.652 596.615 682.368 595.622Z" fill="#FF1863"/>
<path d="M606.652 567.444L606.718 567.443L606.785 567.436L616.655 566.319L616.712 566.313L616.767 566.302L625.184 564.666L625.219 564.66L631.773 563.045L635.848 579.362L636.226 582.332L633.693 585.764L631.108 587.959L626.95 589.391L623.044 590.354L618.564 590.25L613.65 588.612L608.207 585.023L603.741 578.984L600.045 572.705L598.769 567.597L606.652 567.444Z" fill="#FEFEFE" stroke="#0875A4" stroke-width="3"/>
<path d="M661.61 559.061L661.547 559.082L661.482 559.097L650.798 561.615L650.743 561.628L650.687 561.637L641.319 563.072L641.283 563.078L633.715 563.855L635.646 582.512L636.387 585.809L640.38 588.481L643.937 589.816L648.836 589.756L653.287 589.299L657.943 587.507L662.469 583.943L666.804 578.142L669.182 570.158L670.662 562.22L670.041 556.222L661.61 559.061Z" fill="#FEFEFE" stroke="#0578A5" stroke-width="3"/>
<path d="M365.838 295.555L357.662 297.451L351.9 300.669L346.718 305.152L344.452 309.363L349.579 305.522L350.805 304.604L346.803 317.678L641.261 717.483L662.722 701.917L377.653 300.267L372.336 297.544L365.838 295.555Z" fill="#D3B256" stroke="#F1CD51"/>
<path d="M651.556 702.821L361.422 312.045" stroke="#F1CD51" stroke-width="21" stroke-linecap="round"/>
<path d="M664.936 701.965L637.749 716.487L666.976 756.723L616.337 763.568L610.775 770.308L608.55 777.573L604.884 793.833L598.871 816.327L602.019 833.184L609.963 828.663L624.144 782.347L631.81 778.735L641.163 779.612L630.059 825.876L636.805 832.411L642.854 829.794L657.869 780.754L671.289 776.916L681.685 780.099L673.675 824.828L678.422 830.751L686.644 825.322L700.407 780.369L709.812 776.792L719.964 777.913L719.462 798.122L715.744 818.836L721.307 823.519L728.729 817.845L740.288 780.095L747.795 776.999L756.209 778.085L753.847 797.227L752.945 817.313L757.309 821.629L763.115 816.95L768.432 796.726L771.455 778.283L777.626 776.696L783.224 778.41L783.573 794.409L781.038 816.975L784.706 823.561L790.634 819.913L800.644 787.22L791.862 760.196L701.413 751.375L664.936 701.965Z" fill="#B8BDC6"/>
<path d="M787.008 773.276C794.021 784.701 794.003 792.758 787.116 810.061" stroke="#B7B6AF" stroke-width="6" stroke-linecap="round"/>
<path d="M626.072 766.055C613.484 774.217 610.722 781.887 613.228 801" stroke="#B7B6AF" stroke-width="6" stroke-linecap="round"/>
<path d="M644.531 766.283C651.545 777.708 651.527 785.764 644.639 803.068" stroke="#B7B6AF" stroke-width="6" stroke-linecap="round"/>
<path d="M686.844 762.352C693.857 773.776 693.839 781.833 686.952 799.136" stroke="#B7B6AF" stroke-width="6" stroke-linecap="round"/>
<path d="M724.985 772.044C731.999 783.468 731.981 791.525 725.093 808.828" stroke="#B7B6AF" stroke-width="6" stroke-linecap="round"/>
<path d="M760.03 771.848C767.044 783.272 767.026 791.329 760.138 808.632" stroke="#B7B6AF" stroke-width="6" stroke-linecap="round"/>
<g clip-path="url(#clip2_471_2315)">
<path d="M773.136 585.274C771.636 579.651 769.099 578.005 766.141 577.739C762.541 577.415 757.272 578.997 749.638 582.431C735.087 588.979 713.415 601.682 688.07 609.932L687.703 610.051L687.334 610.109C668.334 613.07 651.399 615.792 637.264 621.299C623.703 626.582 613.157 634.262 606.079 647.008C605.135 662.639 607.525 673.369 611.946 680.494C616.416 687.697 623.123 691.486 631.319 692.813C648.04 695.519 671.015 687.963 692.746 677.09L692.912 677.006L693.082 676.936C713.868 668.289 734.69 650.643 750.025 632.086C757.665 622.841 763.813 613.522 767.861 605.197C771.892 596.906 773.619 590.053 773.136 585.274Z" fill="#87CFE5" stroke="#0076B8" stroke-width="7"/>
<path d="M649.304 646.825C649.636 646.649 650.008 646.599 650.334 646.676C650.66 646.753 650.912 646.95 651.04 647.235C651.169 647.519 651.163 647.871 651.03 648.223C650.896 648.574 650.647 648.897 650.331 649.109C649.65 649.565 648.988 650.005 648.303 650.451C636.341 658.76 621.59 663.895 608.117 664.785C607.351 664.856 606.624 664.92 605.859 664.978C606.436 662.212 607.014 659.446 607.592 656.68C608.293 656.715 608.959 656.745 609.659 656.768C622.01 657.452 634.689 654.696 647.216 647.913C647.919 647.552 648.601 647.197 649.304 646.825Z" fill="#0074AB"/>
<path d="M653.722 673.117C654.069 672.966 654.445 672.95 654.763 673.058C655.081 673.167 655.317 673.39 655.421 673.694C655.524 673.997 655.49 674.36 655.33 674.715C655.17 675.069 654.897 675.386 654.568 675.584C653.967 675.941 653.398 676.279 652.794 676.63C642.277 683.032 630.222 687.494 618.841 690.125C618.196 690.285 617.581 690.438 616.937 690.594C615.787 690.877 614.707 690.698 613.938 690.047C613.169 689.398 612.773 688.331 612.835 687.129C612.897 685.927 613.411 684.704 614.26 683.779C615.111 682.85 616.227 682.296 617.367 682.187C617.993 682.126 618.59 682.069 619.213 682.006C630.249 681.056 640.941 678.725 651.9 673.898C652.518 673.636 653.103 673.386 653.722 673.117Z" fill="#007BA4"/>
</g>
<g clip-path="url(#clip3_471_2315)">
<path d="M400.415 532.971C399.796 528.153 401.004 525.82 402.886 524.321C405.178 522.497 409.121 521.346 415.162 520.526C426.677 518.962 444.674 518.817 463.825 513.76L464.103 513.687L464.364 513.567C477.797 507.394 489.793 501.952 500.733 499.802C511.23 497.74 520.418 498.776 528.761 505.086C533.871 516.23 535.366 525.217 534.482 532.431C533.588 539.724 530.233 545.479 525.186 550.068C514.888 559.429 497.505 563.956 479.994 565.48L479.86 565.492L479.728 565.515C463.481 568.27 444.629 564.387 429.15 557.415C421.438 553.941 414.693 549.757 409.624 545.382C404.576 541.025 401.466 536.718 400.415 532.971Z" fill="#87CFE5" stroke="#0076B8" stroke-width="7"/>
<path d="M500.082 523.978C499.812 523.994 499.551 524.121 499.357 524.321C499.164 524.522 499.053 524.779 499.05 525.045C499.046 525.312 499.151 525.57 499.34 525.771C499.529 525.973 499.787 526.101 500.057 526.119C500.639 526.157 501.204 526.19 501.785 526.219C512.091 527.097 523.333 524.402 532.511 519.13C533.039 518.845 533.539 518.572 534.062 518.278C532.886 516.487 531.71 514.696 530.534 512.905C530.079 513.239 529.647 513.554 529.19 513.879C521.207 519.822 512.019 523.365 501.777 523.864C501.208 523.906 500.655 523.944 500.082 523.978Z" fill="#0074AB"/>
<path d="M504.698 545.365C504.426 545.406 504.172 545.56 503.992 545.78C503.813 546 503.721 546.269 503.739 546.54C503.757 546.81 503.884 547.063 504.092 547.255C504.3 547.446 504.571 547.561 504.846 547.562C505.347 547.562 505.82 547.561 506.321 547.555C515.123 547.659 524.386 545.653 532.678 542.588C533.151 542.423 533.602 542.265 534.074 542.097C534.917 541.8 535.58 541.193 535.903 540.372C536.226 539.554 536.182 538.59 535.796 537.729C535.411 536.867 534.719 536.189 533.892 535.879C533.062 535.567 532.163 535.648 531.377 536.07C530.945 536.3 530.534 536.521 530.103 536.748C522.522 540.903 514.772 543.887 506.13 545.141C505.645 545.219 505.186 545.292 504.698 545.365Z" fill="#007BA4"/>
</g>
<g clip-path="url(#clip4_471_2315)">
<path d="M477.904 616.915C496.865 625.081 504.25 636.12 506.256 647.207C508.334 658.694 504.911 671.586 499.542 684.054C493.992 696.942 488.815 706.482 478.19 710.576C467.083 714.856 448.516 713.778 414.998 699.344C391.987 689.434 375.972 681.084 365.034 673.79C354.024 666.449 348.595 660.46 346.156 655.499C343.889 650.887 344.015 646.779 345.368 642.136C346.082 639.687 347.137 637.111 348.438 634.209C349.661 631.481 351.275 628.099 352.661 624.88C354.386 620.875 359.524 616.609 369.011 613.121C378.17 609.755 390.075 607.604 403.122 606.757C429.281 605.059 458.759 608.669 477.904 616.915Z" fill="#87CFE5" stroke="#0178B2" stroke-width="9"/>
<path d="M500.723 667.491C490.774 721.708 453.903 712.697 414.178 695.589C374.453 678.481 353.494 665.373 351.302 654.906C340.909 642.267 393.553 671.676 423.807 680.623C511.149 718.238 501.797 609.518 500.723 667.491Z" fill="#31A7BA"/>
</g>
</g>
<defs>
<clipPath id="clip0_471_2315">
<rect width="1100" height="850" fill="white"/>
</clipPath>
<clipPath id="clip1_471_2315">
<rect width="151" height="90" fill="white" transform="matrix(-0.650809 -0.759242 -0.759242 0.650809 729.604 794.646)"/>
</clipPath>
<clipPath id="clip2_471_2315">
<rect width="85.7179" height="186.986" fill="white" transform="matrix(-0.116899 -0.993144 -0.9509 0.309497 785.502 653.458)"/>
</clipPath>
<clipPath id="clip3_471_2315">
<rect width="69.6706" height="138.96" fill="white" transform="translate(411.785 588.835) rotate(-104.79)"/>
</clipPath>
<clipPath id="clip4_471_2315">
<rect width="168.937" height="112.459" fill="white" transform="translate(372.482 564.711) rotate(23.2996)"/>
</clipPath>
</defs>
</svg>
