<svg width="1100" height="850" viewBox="0 0 1100 850" fill="none" xmlns="http://www.w3.org/2000/svg">
<path d="M755.077 123.013C786.857 98.7194 812.883 95.4604 826.662 106.535C841.557 118.507 852.066 143.249 842.168 176.495C832.144 210.161 824.85 214.421 751.422 264.388L714.996 304.792L696.075 325.76C650.961 376.798 650.448 385.53 630.106 417.259C624.987 425.245 620.556 432.2 616.548 438.004C612.502 443.862 609.213 448.065 606.45 450.736C603.695 453.4 602.269 453.77 601.546 453.749C600.768 453.726 599.113 453.201 596.773 449.621L595.23 447.257L592.432 447.533C587.894 447.979 585.501 446.982 584.205 445.711C582.944 444.475 582.017 442.291 581.922 438.276C581.717 429.742 579.812 412.39 586.935 393.693C601.031 356.689 607.511 297.09 632.26 244.373C663.348 178.152 723.617 147.064 755.077 123.013Z" fill="#87CFE5" stroke="#0E6B96" stroke-width="12"/>
<path d="M387.09 66.8741C398.089 60.9326 409.877 59.6431 422.187 62.7906C434.709 65.9925 447.947 73.8592 460.942 86.5419C486.905 111.878 510.681 155.26 525.118 213.232C529.079 237.745 534.233 262.165 538.943 284.776C543.684 307.536 547.955 328.378 550.213 345.931C552.504 363.748 552.551 377.128 549.646 385.43C548.245 389.434 546.418 391.492 544.651 392.545C542.95 393.559 540.12 394.344 535.108 393.685L531.484 393.21L528.793 395.607C525.145 398.856 523.239 399.149 522.643 399.151C522.069 399.153 520.548 398.891 518.016 396.277C515.532 393.711 512.879 389.695 509.9 384.142C506.954 378.65 503.878 372.023 500.426 364.434C486.709 334.271 467.707 290.226 430.45 253.287L430.19 253.029L429.895 252.802L426.461 250.136C355.168 194.414 334.697 154.798 336.297 126.972C337.892 99.2436 361.693 80.5932 387.09 66.8741Z" fill="#8BCDE5" stroke="#0E6B96" stroke-width="12"/>
<g clip-path="url(#clip0_471_2799)">
<path d="M435.197 653.658C452.748 659.358 460.64 667.319 463.872 675.389C467.22 683.751 465.984 693.216 463.002 702.399C459.92 711.89 456.711 718.931 448.043 722.07C438.981 725.353 422.726 724.825 391.701 714.749C370.402 707.832 355.384 701.957 344.911 696.782C334.372 691.574 328.855 687.275 326.072 683.685C323.484 680.348 323.041 677.345 323.591 673.935C323.881 672.136 324.45 670.24 325.189 668.102C325.883 666.092 326.828 663.599 327.598 661.229C328.556 658.279 332.44 655.091 340.203 652.41C347.698 649.823 357.738 648.086 368.945 647.285C391.413 645.678 417.476 647.903 435.197 653.658Z" fill="#87CFE5" stroke="#0178B2" stroke-width="9"/>
<path d="M461.799 690.283C460.458 730.026 427.254 723.959 390.485 712.018C353.715 700.077 333.766 690.795 330.457 683.18C319.74 674.093 369.373 694.839 396.827 700.952C477.671 727.206 454.934 647.921 461.799 690.283Z" fill="#31A7BA"/>
</g>
<path d="M584.5 371C686.975 371 770 453.406 770 555C770 656.594 686.975 739 584.5 739C482.025 739 399 656.594 399 555C399 453.406 482.025 371 584.5 371Z" fill="#86D0E3" stroke="#0C74AB" stroke-width="7"/>
<path d="M711.5 683C677 722 613 737.5 588 735C481 741 400.5 646.895 403 553.5C404.566 495 390 633 529 692C603.5 729.5 711.5 683 711.5 683Z" fill="#37B4CA"/>
<g clip-path="url(#clip1_471_2799)">
<path d="M519.662 482.062C543.513 485.405 560.516 510.093 556.74 537.036C554.61 552.237 549.615 563.953 541.492 571.31C533.483 578.564 522.02 581.946 505.978 579.698C482.217 576.368 466.481 552.403 470.332 524.925C474.183 497.447 495.901 478.732 519.662 482.062Z" fill="#FEFEFE" stroke="#0F79AB" stroke-width="6"/>
<path d="M613.375 471.626C626.453 473.459 637.629 481.662 645.036 493.737C652.441 505.808 655.938 521.565 653.643 537.942C651.057 556.39 645.321 570.791 636.082 579.931C626.996 588.922 614.249 593.094 596.696 590.634C583.622 588.802 572.836 580.791 565.82 568.869C558.796 556.936 555.666 541.224 558.004 524.538C560.343 507.853 567.672 493.606 577.706 484.063C587.728 474.531 600.301 469.794 613.375 471.626Z" fill="#FEFEFE" stroke="#0F79AB" stroke-width="6"/>
<path d="M590.878 526.315C589.552 535.772 582.747 542.636 575.088 541.562C567.43 540.489 562.295 531.952 563.621 522.495C564.946 513.038 572.229 506.242 579.888 507.315C588.196 510.662 592.258 516.469 590.878 526.315Z" fill="#2B2A28"/>
<path d="M531.015 536.077C538.651 537.297 546.07 530.643 547.585 521.215C549.099 511.786 544.136 503.153 536.499 501.933C528.863 500.712 521.444 507.367 519.929 516.795C518.415 526.224 523.378 534.857 531.015 536.077Z" fill="#2B2A28"/>
<path opacity="0.77" d="M495.438 453.627L512.175 453.224L531.601 456.366L540.821 459.733L548.065 464.135L548.45 469.912L548.012 475.608L545.159 481.886L535.774 476.043L519.421 469.925L507.732 466.315L494.122 464.565L494.066 457.591L495.438 453.627Z" fill="#004F80"/>
</g>
<path d="M544.26 624.185C539.336 609.345 540.799 600.022 548.703 582.118" stroke="#0082AA" stroke-width="7" stroke-linecap="round"/>
<path d="M658.127 587.617C658.589 587.081 659.245 586.751 659.949 586.701C660.653 586.65 661.349 586.882 661.883 587.346C662.417 587.81 662.745 588.468 662.796 589.175C662.846 589.881 662.615 590.579 662.153 591.115C659.889 593.739 657.471 596.231 654.927 598.58C607.456 640.542 531.821 636.481 483.716 598.104C481.012 595.96 478.431 593.751 475.89 591.405C475.371 590.925 475.063 590.258 475.033 589.55C475.004 588.842 475.256 588.151 475.734 587.629C476.212 587.108 476.878 586.799 477.583 586.77C478.289 586.74 478.977 586.994 479.497 587.474C481.937 589.728 484.417 591.85 487.016 593.911C533.109 630.884 606.554 634.466 651.321 594.647C653.722 592.431 655.998 590.084 658.127 587.617Z" fill="#076FA2"/>
<path d="M519.492 615.459L519.552 615.478L519.614 615.492L528.725 617.417L528.778 617.428L528.83 617.435L536.804 618.464L536.837 618.468L543.148 618.963L541.906 634.816L541.356 637.594L538.079 639.923L535.125 641.126L530.999 641.178L527.238 640.883L523.285 639.461L519.402 636.533L515.631 631.697L513.461 624.953L512.047 618.221L512.436 613.258L519.492 615.459Z" fill="#FEFEFE" stroke="#0875A4" stroke-width="3"/>
<path d="M570.874 624.239L570.812 624.239L570.75 624.234L560.496 623.324L560.443 623.319L560.391 623.31L551.63 621.82L551.597 621.814L544.633 620.267L540.785 637.583L540.461 640.762L543.215 644.345L545.981 646.598L550.355 647.998L554.451 648.908L559.127 648.681L564.216 646.825L569.802 642.905L574.299 636.444L577.983 629.759L579.22 624.192L570.874 624.239Z" fill="#FEFEFE" stroke="#0578A5" stroke-width="3"/>
<path d="M545.701 584.565C556.03 588.313 567.634 582.446 571.619 571.461C575.605 560.476 570.463 548.533 560.135 544.786C549.806 541.038 538.202 546.905 534.217 557.89C530.231 568.875 535.373 580.818 545.701 584.565Z" fill="#ED6F7A"/>
<path d="M474.334 722.385L478.885 729.437L483.862 733.771L489.834 737.131L494.563 737.839L489.215 734.314L487.935 733.47L501.592 732.814L778.223 320.473L756.315 305.543L474.772 709.672L474.009 715.596L474.334 722.385Z" fill="#D3B256" stroke="#F1CD51"/>
<path d="M760.943 315.745L491.346 720.961" stroke="#F1CD51" stroke-width="21" stroke-linecap="round"/>
<path d="M755.605 303.442L778.467 324.114L806.445 283L830.015 328.338L838.239 331.292L845.829 330.928L862.37 328.878L885.573 326.927L900.37 318.263L893.429 312.316L845.047 314.638L839.054 308.646L836.716 299.548L884.009 294.348L887.877 285.789L883.367 280.982L832.139 283.441L823.988 272.11L823.467 261.25L868.268 253.657L872.237 247.187L864.346 241.286L817.387 243.54L810.84 235.9L808.462 225.967L827.649 219.604L848.399 216.096L850.924 209.276L843.074 204.211L803.639 206.103L798.186 200.086L796.362 191.8L815.175 187.548L834.382 181.602L836.968 176.036L830.601 172.155L809.77 173.992L791.391 177.386L787.811 172.116L787.53 166.268L802.468 160.527L824.561 155.28L829.518 149.6L824.08 145.256L789.928 146.895L767.467 164.301L789.763 252.402L755.605 303.442Z" fill="#B8BDC6"/>
<path d="M781.42 164.444C789.798 153.98 797.386 151.271 815.999 151.9" stroke="#B7B6AF" stroke-width="6" stroke-linecap="round"/>
<path d="M829.062 318.336C841.002 327.421 849.154 327.426 866.292 318.602" stroke="#B7B6AF" stroke-width="6" stroke-linecap="round"/>
<path d="M823.034 300.887C831.413 290.423 839.001 287.714 857.614 288.343" stroke="#B7B6AF" stroke-width="6" stroke-linecap="round"/>
<path d="M805.021 262.4C813.4 251.935 820.988 249.227 839.601 249.855" stroke="#B7B6AF" stroke-width="6" stroke-linecap="round"/>
<path d="M801.24 223.228C809.619 212.764 817.207 210.055 835.82 210.683" stroke="#B7B6AF" stroke-width="6" stroke-linecap="round"/>
<path d="M789.2 190.314C797.579 179.85 805.167 177.142 823.78 177.77" stroke="#B7B6AF" stroke-width="6" stroke-linecap="round"/>
<g clip-path="url(#clip2_471_2799)">
<path d="M723.947 622.131C724.202 617.262 722.537 614.92 720.154 613.427C717.254 611.61 712.462 610.491 705.214 609.726C691.398 608.269 670.035 608.311 646.813 603.409L646.477 603.338L646.155 603.22C629.605 597.131 614.833 591.765 601.641 589.71C588.983 587.739 578.188 588.881 568.918 595.337C563.967 606.636 563.088 615.722 564.855 622.993C566.642 630.344 571.195 636.117 577.639 640.695C590.787 650.034 611.859 654.419 632.783 655.774L632.943 655.784L633.103 655.806C652.65 658.417 674.626 654.3 692.294 647.101C701.096 643.514 708.681 639.221 714.258 634.753C719.813 630.303 723.073 625.923 723.947 622.131Z" fill="#87CFE5" stroke="#0076B8" stroke-width="7"/>
<path d="M604.82 614.101C605.142 614.114 605.464 614.24 605.715 614.44C605.963 614.64 606.12 614.898 606.15 615.167C606.181 615.437 606.083 615.698 605.878 615.903C605.674 616.108 605.381 616.24 605.063 616.262C604.376 616.305 603.71 616.345 603.023 616.381C590.885 617.375 577.28 614.772 565.868 609.548C565.214 609.266 564.593 608.996 563.943 608.705C565.16 606.885 566.377 605.066 567.593 603.246C568.166 603.578 568.71 603.891 569.285 604.215C579.347 610.129 590.599 613.608 602.798 614.003C603.477 614.04 604.137 614.073 604.82 614.101Z" fill="#0074AB"/>
<path d="M601.474 635.733C601.801 635.772 602.118 635.924 602.353 636.144C602.588 636.364 602.724 636.635 602.729 636.908C602.734 637.181 602.609 637.437 602.381 637.633C602.154 637.828 601.844 637.947 601.517 637.951C600.923 637.956 600.362 637.96 599.767 637.96C589.337 638.157 578.148 636.23 568.007 633.224C567.429 633.062 566.878 632.907 566.301 632.743C565.272 632.452 564.425 631.846 563.96 631.021C563.495 630.199 563.452 629.226 563.823 628.353C564.195 627.479 564.948 626.787 565.898 626.465C566.852 626.142 567.926 626.215 568.9 626.632C569.436 626.86 569.946 627.078 570.48 627.303C579.887 631.417 589.377 634.346 599.754 635.522C600.337 635.595 600.889 635.664 601.474 635.733Z" fill="#007BA4"/>
</g>
<g clip-path="url(#clip3_471_2799)">
<path d="M432.74 593.993C434.734 589.262 437.277 587.797 440.07 587.462C443.467 587.054 448.224 588.166 454.994 590.726C467.899 595.607 486.809 605.33 509.619 611.209L509.95 611.294L510.289 611.328C527.729 613.058 543.264 614.668 555.89 618.7C568.004 622.569 577.048 628.545 582.317 638.865C581.552 651.818 578.187 660.827 573.306 666.918C568.371 673.076 561.705 676.483 553.907 677.902C538 680.794 517.33 675.399 498.173 667.2L498.026 667.136L497.875 667.085C479.365 660.699 461.771 646.836 449.399 632.005C443.236 624.616 438.473 617.109 435.569 610.347C432.677 603.611 431.785 597.983 432.74 593.993Z" fill="#87CFE5" stroke="#0076B8" stroke-width="7"/>
<path d="M541.951 640.376C541.659 640.243 541.316 640.216 541.004 640.292C540.692 640.369 540.435 640.543 540.286 640.784C540.135 641.025 540.104 641.317 540.191 641.605C540.279 641.891 540.478 642.15 540.75 642.314C541.339 642.667 541.911 643.007 542.503 643.352C552.805 649.796 566.045 653.495 578.539 653.717C579.247 653.746 579.92 653.771 580.629 653.79C580.381 651.514 580.132 649.237 579.884 646.961C579.225 647.017 578.6 647.067 577.944 647.113C566.332 648.157 554.776 646.355 543.786 641.2C543.168 640.928 542.569 640.659 541.951 640.376Z" fill="#0074AB"/>
<path d="M535.052 662.396C534.744 662.284 534.394 662.285 534.085 662.387C533.777 662.489 533.533 662.684 533.404 662.941C533.275 663.197 533.269 663.497 533.381 663.785C533.494 664.073 533.715 664.327 534.002 664.478C534.526 664.752 535.022 665.011 535.549 665.28C544.7 670.195 555.493 673.439 565.849 675.187C566.435 675.295 566.993 675.398 567.579 675.504C568.624 675.695 569.651 675.504 570.438 674.933C571.225 674.365 571.707 673.462 571.776 672.466C571.845 671.469 571.494 670.473 570.799 669.737C570.101 668.998 569.116 668.58 568.063 668.534C567.485 668.507 566.933 668.483 566.358 668.454C556.147 668.089 546.402 666.564 536.672 662.975C536.122 662.781 535.602 662.596 535.052 662.396Z" fill="#007BA4"/>
</g>
<path opacity="0.7" d="M599.999 432.847L607.997 432.685L615.526 434.034L623.585 436.872L633.674 441.17L642.273 445.997L640.924 453.526L630.876 451.228L619.328 448.96L610.299 447.642L603.301 447.783L595.302 447.944L595.161 440.946L596.56 435.916L599.999 432.847Z" fill="#014C83"/>
<g clip-path="url(#clip4_471_2799)">
<path d="M639.756 722.712C621.824 718.358 610.778 721.621 603.595 727.609C596.154 733.814 591.964 743.663 589.401 754.221C586.752 765.133 585.563 773.747 591.129 781.656C596.947 789.924 610.93 798.551 642.628 806.247C664.39 811.531 680.287 814.291 691.967 815.173C703.723 816.061 710.745 815.004 715.073 813.097C719.096 811.324 721.129 808.669 722.551 805.062C723.301 803.159 723.869 801.006 724.429 798.522C724.955 796.188 725.536 793.246 726.198 790.52C727.021 787.129 725.512 781.862 720.455 774.906C715.573 768.19 708.077 760.866 699.08 753.791C681.044 739.607 657.863 727.107 639.756 722.712Z" fill="#87CFE5" stroke="#0178B2" stroke-width="9"/>
<path d="M597.109 743.18C576.275 782.37 607.593 795.169 645.162 804.29C682.731 813.411 704.662 815.649 711.658 810.144C725.707 807.38 672.438 799.543 645.936 790.022C563.336 769.968 626.303 706.068 597.109 743.18Z" fill="#31A7BA"/>
</g>
<defs>
<clipPath id="clip0_471_2799">
<rect width="151" height="79.9813" fill="white" transform="translate(336.704 617) rotate(17.9915)"/>
</clipPath>
<clipPath id="clip1_471_2799">
<rect width="189.284" height="127.952" fill="white" transform="translate(477.76 450) rotate(7.9782)"/>
</clipPath>
<clipPath id="clip2_471_2799">
<rect width="69.6706" height="166.504" fill="white" transform="matrix(0.206533 -0.97844 -0.97844 -0.206533 716.021 678.627)"/>
</clipPath>
<clipPath id="clip3_471_2799">
<rect width="73.4562" height="165.257" fill="white" transform="translate(414 651.131) rotate(-75.5462)"/>
</clipPath>
<clipPath id="clip4_471_2799">
<rect width="151" height="90" fill="white" transform="matrix(-0.97177 -0.235931 -0.235931 0.97177 742.972 742.625)"/>
</clipPath>
</defs>
</svg>
