<svg width="1100" height="850" viewBox="0 0 1100 850" fill="none" xmlns="http://www.w3.org/2000/svg">
<path d="M738.357 122.066C768.784 96.0975 794.598 91.4427 808.952 101.76C824.47 112.913 836.295 137.054 828.2 170.784C820.003 204.941 812.948 209.587 742.315 263.433L708.116 305.738L690.35 327.694C648.048 381.085 648.006 389.832 629.401 422.61C624.718 430.86 620.668 438.043 616.978 444.054C613.254 450.122 610.195 454.496 607.58 457.311C604.972 460.12 603.568 460.566 602.845 460.584C602.067 460.603 600.386 460.167 597.857 456.718L596.189 454.441L593.41 454.868C588.902 455.557 586.46 454.69 585.096 453.49C583.771 452.324 582.728 450.193 582.417 446.19C581.753 437.679 578.917 420.454 585.024 401.401C597.108 363.692 600.372 303.83 622.248 249.858C649.729 182.06 708.237 147.775 738.357 122.066Z" fill="#87CFE5" stroke="#0E6B96" stroke-width="12"/>
<g clip-path="url(#clip0_471_2602)">
<path d="M620.223 719.19C602.15 715.462 591.224 719.107 584.253 725.341C577.033 731.801 573.187 741.79 570.993 752.43C568.724 763.428 567.836 772.078 573.673 779.789C579.776 787.85 594.049 795.986 625.996 802.575C647.929 807.099 663.912 809.305 675.616 809.781C687.395 810.259 694.376 808.959 698.635 806.903C702.595 804.991 704.534 802.267 705.829 798.613C706.513 796.685 707.006 794.513 707.479 792.011C707.924 789.661 708.402 786.7 708.969 783.953C709.674 780.535 707.983 775.324 702.687 768.548C697.574 762.006 689.828 754.947 680.591 748.189C662.072 734.64 638.471 722.954 620.223 719.19Z" fill="#87CFE5" stroke="#0178B2" stroke-width="9"/>
<path d="M578.313 741.127C558.853 781.019 590.597 792.721 628.46 800.531C666.323 808.341 688.319 809.814 695.12 804.07C709.064 800.82 655.555 794.839 628.738 786.244C545.491 769.073 606.199 703.024 578.313 741.127Z" fill="#31A7BA"/>
</g>
<g clip-path="url(#clip1_471_2602)">
<path d="M487.27 708.85C505.716 709.352 515.521 715.397 520.882 723.06C526.435 730.999 527.895 741.602 527.6 752.462C527.295 763.687 526.184 772.311 518.738 778.484C510.955 784.937 495.2 789.596 462.592 788.709C440.206 788.101 424.142 786.596 412.639 784.384C401.062 782.158 394.563 779.297 390.887 776.321C387.469 773.556 386.203 770.461 385.777 766.607C385.553 764.574 385.569 762.346 385.68 759.803C385.784 757.413 385.995 754.421 386.071 751.617C386.166 748.129 389.004 743.442 395.708 738.055C402.181 732.855 411.335 727.753 421.872 723.285C442.997 714.327 468.645 708.344 487.27 708.85Z" fill="#87CFE5" stroke="#0178B2" stroke-width="9"/>
<path d="M523.057 739.786C532.885 783.069 499.306 787.206 460.66 786.156C422.015 785.106 400.264 781.514 394.956 774.367C382.124 768.016 435.584 774.422 463.655 772.184C548.624 774.493 504.617 696.317 523.057 739.786Z" fill="#31A7BA"/>
</g>
<g clip-path="url(#clip2_471_2602)">
<path d="M744.261 573.636C747.231 569.386 749.819 568.395 752.323 568.542C755.371 568.72 759.195 570.601 764.379 574.227C774.263 581.14 788.068 593.761 806.261 603.315L806.524 603.453L806.809 603.543C821.446 608.166 834.467 612.35 844.332 618.393C853.797 624.19 860.05 631.512 861.893 642.409C857.821 654.84 852.537 663.007 846.709 668.089C840.818 673.226 834.152 675.404 827.03 675.462C812.502 675.58 796.034 666.858 781.614 655.672L781.504 655.585L781.386 655.51C767.049 646.192 755.472 629.779 748.67 613.308C745.282 605.103 743.136 597.019 742.403 589.971C741.673 582.952 742.383 577.344 744.261 573.636Z" fill="#87CFE5" stroke="#0076B8" stroke-width="7"/>
<path d="M826.562 637.057C826.344 636.878 826.055 636.794 825.764 636.815C825.474 636.837 825.206 636.962 825.014 637.171C824.82 637.379 824.716 637.657 824.716 637.951C824.716 638.244 824.82 638.528 825.013 638.733C825.429 639.175 825.835 639.601 826.257 640.035C833.475 648.023 843.96 653.847 854.714 656.172C855.319 656.32 855.895 656.458 856.503 656.596C856.887 654.347 857.272 652.098 857.656 649.848C857.071 649.791 856.518 649.734 855.937 649.668C845.613 648.72 836.087 645.02 827.934 638.166C827.47 637.797 827.022 637.435 826.562 637.057Z" fill="#0074AB"/>
<path d="M814.794 657.242C814.557 657.082 814.254 657.024 813.96 657.07C813.666 657.118 813.404 657.266 813.225 657.492C813.046 657.719 812.961 658.009 812.982 658.308C813.004 658.606 813.129 658.889 813.337 659.084C813.719 659.439 814.079 659.773 814.465 660.123C821.091 666.434 829.577 671.403 838.079 674.847C838.557 675.051 839.014 675.245 839.493 675.446C840.347 675.808 841.286 675.797 842.117 675.376C842.948 674.958 843.603 674.164 843.925 673.209C844.247 672.255 844.205 671.229 843.797 670.398C843.388 669.564 842.646 668.992 841.747 668.77C841.253 668.646 840.782 668.529 840.292 668.404C831.551 666.326 823.519 663.202 816.044 658.078C815.619 657.796 815.217 657.529 814.794 657.242Z" fill="#007BA4"/>
</g>
<path d="M417.312 597.905C419.664 594.012 419.096 591.072 417.479 588.41C415.511 585.169 411.442 581.379 404.887 576.418C392.39 566.961 384.031 560.239 364.089 542.306L358.488 534.236L352.715 525.697C352.715 527.5 376.918 559.069 358.488 534.236C347.315 525.044 344 505 327 538C328 538 327.519 537 316.405 550.5C310.009 558.268 299.599 555.822 306.5 562.5C322 577.5 297.452 555.129 316.114 571.442L316.263 571.546L316.405 571.659C333.847 585.495 356.512 595.192 376.419 599.757C386.336 602.031 395.403 602.991 402.638 602.608C409.844 602.226 414.839 600.534 417.312 597.905Z" fill="#87CFE5"/>
<path d="M358.488 534.236L364.089 542.306C384.031 560.239 392.39 566.961 404.887 576.418C411.442 581.379 415.511 585.169 417.479 588.41C419.096 591.072 419.664 594.012 417.312 597.905C414.839 600.534 409.844 602.226 402.638 602.608C395.403 602.991 386.336 602.031 376.419 599.757C356.512 595.192 333.847 585.495 316.405 571.659L316.263 571.546L316.114 571.442C297.452 555.129 322 577.5 306.5 562.5C299.599 555.822 310.009 558.268 316.405 550.5C327.519 537 328 538 327 538C344 505 347.315 525.044 358.488 534.236ZM358.488 534.236L352.715 525.697C352.715 527.5 376.918 559.069 358.488 534.236Z" stroke="#0076B8" stroke-width="7"/>
<path d="M376.698 50.6676C387.641 44.5397 399.445 43.2929 411.838 46.6997C424.446 50.1653 437.842 58.5249 451.066 71.9282C477.488 98.7043 501.987 144.368 517.339 205.236C521.681 230.954 527.218 256.586 532.281 280.318C537.379 304.208 541.976 326.083 544.504 344.493C547.07 363.181 547.318 377.201 544.53 385.874C543.185 390.056 541.383 392.196 539.627 393.284C537.936 394.331 535.11 395.129 530.073 394.394L526.431 393.864L523.768 396.352C520.157 399.724 518.251 400.014 517.653 400.011C517.077 400.007 515.547 399.72 512.969 396.958C510.439 394.248 507.717 390.017 504.646 384.172C501.608 378.392 498.423 371.421 494.847 363.439C480.636 331.715 460.914 285.398 422.991 246.366L422.726 246.093L422.427 245.853L418.943 243.029C346.599 184.015 325.471 142.327 326.658 113.185C327.84 84.1472 351.432 64.8169 376.698 50.6676Z" fill="#8BCDE5" stroke="#0E6B96" stroke-width="12"/>
<path d="M284.112 708.153L290.997 713.365L297.553 715.84L304.897 717.051L310.214 716.124L303.511 714.55L301.881 714.168L316.204 708.946L451.788 325.001L422.572 311.167L280.875 695.868L281.79 701.784L284.112 708.153Z" fill="#D3B256" stroke="#F1CD51"/>
<path d="M429.139 325.788L293.145 704.966" stroke="#F1CD51" stroke-width="21" stroke-linecap="round"/>
<path d="M419.871 315.814L450.186 327.907L467.895 279.167L506.164 314.62L515.76 314.682L523.714 311.782L540.682 304.26L564.753 294.594L577.939 281.33L568.831 277.974L518.127 296.46L510.014 292.742L504.874 284.824L553.581 263.95L555.19 254.462L548.998 251.379L495.311 270.952L483.347 262.851L479.623 252.637L524.985 230.312L527.311 222.788L517.209 219.795L467.996 237.737L458.813 232.628L453.387 223.924L471.905 211.387L492.918 201.055L493.609 193.682L483.794 191.474L442.466 206.541L434.918 202.617L430.562 195.303L449.3 184.911L467.962 172.766L469.083 166.572L461.188 164.999L439.603 173.759L421.075 183.184L415.734 179.345L413.728 173.845L427.917 163.331L449.848 150.885L453.454 143.784L446.41 141.456L410.619 154.505L391.848 178.707L441.246 255.501L419.871 315.814Z" fill="#B8BDC6"/>
<path d="M406.707 174.155C412.549 161.327 419.817 156.185 439.767 150.529" stroke="#B7B6AF" stroke-width="6" stroke-linecap="round"/>
<path d="M502.231 305.371C517.563 310.05 526.222 307.314 541.847 293.111" stroke="#B7B6AF" stroke-width="6" stroke-linecap="round"/>
<path d="M490.734 290.705C496.577 277.877 503.845 272.735 523.795 267.079" stroke="#B7B6AF" stroke-width="6" stroke-linecap="round"/>
<path d="M460.369 259.937C466.212 247.108 473.48 241.967 493.43 236.311" stroke="#B7B6AF" stroke-width="6" stroke-linecap="round"/>
<path d="M444.917 223.732C450.76 210.904 458.028 205.762 477.978 200.106" stroke="#B7B6AF" stroke-width="6" stroke-linecap="round"/>
<path d="M422.522 196.29C428.365 183.462 435.633 178.32 455.583 172.664" stroke="#B7B6AF" stroke-width="6" stroke-linecap="round"/>
<path d="M585.5 368C687.975 368 771 450.406 771 552C771 653.594 687.975 736 585.5 736C483.025 736 400 653.594 400 552C400 450.406 483.025 368 585.5 368Z" fill="#86D0E3" stroke="#0C74AB" stroke-width="7"/>
<path d="M712.5 680.001C678 719.001 614 734.501 589 732.001C482 738.001 401.5 643.896 404 550.501C405.566 492.001 391 630.001 530 689.001C604.5 726.501 712.5 680.001 712.5 680.001Z" fill="#37B4CA"/>
<path opacity="0.77" d="M505.973 431.46L521.647 432.454L539.083 436.881L546.964 440.683L552.788 445.263L551.935 450.534L550.332 455.664L546.358 461.127L538.842 455.066L524.893 448.189L514.762 443.965L502.453 441.274L503.864 434.944L505.973 431.46Z" fill="#004F80"/>
<path opacity="0.7" d="M566.669 405.877L572.539 398.662L579.487 393.074L588.247 388.21L599.919 382.718L610.972 378.971L617.094 386.201L607.349 393.26L596.502 401.672L588.453 408.613L583.317 414.926L577.447 422.141L570.705 416.655L566.99 411.384L566.669 405.877Z" fill="#014C83"/>
<path d="M388.745 506.542C389.686 510.992 388.769 513.243 387.172 514.76C385.23 516.606 381.731 517.929 376.297 519.078C365.938 521.268 358.938 523.074 341.903 529.005L336.579 533.27L331.052 537.858C331.373 536.312 353.791 520.709 336.579 533.27C327.186 535.861 302.353 577.364 292.672 546.631C286.248 526.24 286.251 528.686 290.407 514.759C294.562 500.831 299.713 493.901 305.692 491.443C319.122 485.923 309.397 488.895 325.256 483.747L330.888 482.86L335.151 482.588C349.723 478.986 346.044 480.088 360.678 485.598C367.969 488.343 374.436 491.812 379.391 495.565C384.327 499.303 387.495 503.118 388.745 506.542Z" fill="#87CFE5"/>
<path d="M336.579 533.27L341.903 529.005C358.938 523.074 365.938 521.268 376.297 519.078C381.731 517.929 385.23 516.606 387.172 514.76C388.769 513.243 389.686 510.992 388.745 506.542C387.495 503.118 384.327 499.303 379.391 495.565C374.436 491.812 367.969 488.343 360.678 485.598C346.044 480.088 349.723 478.986 335.151 482.588L330.888 482.86L325.256 483.747C309.397 488.895 319.122 485.923 305.692 491.443C299.713 493.901 294.562 500.831 290.407 514.759C286.251 528.686 286.248 526.24 292.672 546.631C302.353 577.364 327.186 535.861 336.579 533.27ZM336.579 533.27L331.052 537.858C331.373 536.312 353.791 520.709 336.579 533.27Z" stroke="#0076B8" stroke-width="7"/>
<path d="M352.652 498.009C352.37 498.016 352.09 497.905 351.874 497.71C351.658 497.514 351.523 497.251 351.5 496.968C351.475 496.685 351.563 496.401 351.743 496.17C351.923 495.939 352.18 495.778 352.458 495.734C353.058 495.641 353.639 495.554 354.239 495.47C364.841 493.596 376.693 495.435 386.609 500.202C387.178 500.457 387.717 500.701 388.282 500.966C387.204 502.977 386.127 504.989 385.05 507C384.553 506.686 384.081 506.391 383.582 506.087C374.85 500.498 365.059 497.57 354.415 497.975C353.823 497.982 353.247 497.992 352.652 498.009Z" fill="#0074AB"/>
<path d="M336.018 513.984C335.736 513.978 335.462 513.854 335.254 513.649C335.048 513.444 334.926 513.175 334.915 512.891C334.904 512.607 335.005 512.328 335.196 512.105C335.386 511.882 335.65 511.734 335.93 511.703C336.533 511.638 337.118 511.578 337.722 511.523C348.399 510.144 360.152 512.533 369.836 517.756C370.392 518.037 370.919 518.307 371.471 518.597C370.302 520.556 369.132 522.515 367.962 524.474C367.48 524.138 367.022 523.821 366.538 523.494C358.076 517.504 348.432 514.124 337.781 514.033C337.189 514.012 336.613 513.996 336.018 513.984Z" fill="#0074AB"/>
<g clip-path="url(#clip3_471_2602)">
<path d="M515.692 482.59C555.32 485.862 560.722 467.713 569.764 501.509C574.866 520.577 574.975 525.065 571.153 537.286C567.384 549.337 558.772 558.218 543.506 562.302C520.897 568.351 495.915 546.351 486.693 511.884C477.471 477.415 476.065 479.318 515.692 482.59Z" fill="#FEFEFE" stroke="#0F79AB" stroke-width="6"/>
<path d="M559.156 522.399C567.247 517.458 569.762 506.83 564.773 498.663C559.784 490.496 549.181 487.881 541.091 492.823C533 497.765 530.485 508.392 535.474 516.559C540.462 524.726 551.065 527.341 559.156 522.399Z" fill="#2B2A28"/>
<path d="M606.394 425.045C618.225 422.724 630.519 427.502 640.851 437.431C651.18 447.358 659.367 462.291 662.785 479.711C666.635 499.333 666.448 515.843 661.523 528.113C656.681 540.183 647.11 548.516 631.23 551.632C619.402 553.952 607.506 549.245 597.56 539.347C587.604 529.439 579.747 514.434 576.265 496.686C572.782 478.938 574.388 462.077 579.862 449.14C585.331 436.219 594.567 427.366 606.394 425.045Z" fill="#FEFEFE" stroke="#0F79AB" stroke-width="6"/>
<path d="M618.092 494.445C620.513 503.496 615.884 512.596 607.074 514.953C598.264 517.31 589.159 511.885 586.737 502.834C584.316 493.784 589.495 484.536 598.305 482.179C608.755 481.578 615.571 485.023 618.092 494.445Z" fill="#2B2A28"/>
</g>
<path d="M582.599 590.108C574.051 577.016 573.087 567.628 576.161 548.3" stroke="#0082AA" stroke-width="7" stroke-linecap="round"/>
<path d="M562.057 592.547L562.117 592.561L562.18 592.57L571.409 593.816L571.462 593.823L571.515 593.826L579.543 594.262L579.576 594.264L585.907 594.29L585.841 610.192L585.498 613.003L582.402 615.568L579.545 616.986L575.435 617.344L571.662 617.328L567.614 616.202L563.526 613.569L559.408 609.026L556.744 602.46L554.836 595.851L554.857 590.874L562.057 592.547Z" fill="#FEFEFE" stroke="#0875A4" stroke-width="3"/>
<path d="M610.508 590.895L610.447 590.909L610.386 590.916L600.173 592.209L600.121 592.216L600.068 592.219L591.19 592.627L591.157 592.628L584.023 592.599L583.949 610.337L584.309 613.513L587.762 616.427L590.945 618.04L595.517 618.477L599.712 618.494L604.233 617.277L608.81 614.381L613.433 609.361L616.452 602.092L618.629 594.776L618.653 589.073L610.508 590.895Z" fill="#FEFEFE" stroke="#0578A5" stroke-width="3"/>
<path d="M580.825 555.796C591.495 552.941 597.654 541.316 594.581 529.831C591.508 518.346 580.367 511.349 569.697 514.204C559.027 517.059 552.868 528.684 555.94 540.17C559.013 551.655 570.154 558.651 580.825 555.796Z" fill="#ED6F7A"/>
<path d="M663.358 566.74L663.285 566.941L663.331 567.12C664.849 573.143 636.847 594.621 615.589 617.065C587.915 633.432 598.446 630.976 566.954 636.354C535.817 635.48 532.453 632.741 523.059 626.301C518.32 623.053 511.028 614.211 509.091 611.47C508.443 610.554 500.994 588.798 500.439 588.056C504.676 588.181 526.53 593.138 532.284 593.066C556.018 592.766 555.608 594.927 583.938 590.425C614.18 582.752 617.125 587.783 630.16 579.207C633.434 577.052 658.481 570.007 660.724 568.442C661.749 567.727 661.942 569.812 662.713 569.285C662.695 569.337 663.377 566.685 663.358 566.74Z" fill="#D20223" stroke="#076FA2" stroke-width="6"/>
<path d="M550.289 633.245C541.68 635.602 533.796 633.925 525.131 628.768C516.741 623.775 510.072 613.799 514.804 610.853C528.239 609.865 539.811 610.653 553.274 629.321C554.526 631.308 555.091 632.825 550.289 633.245Z" fill="#FF1863"/>
<path d="M614.564 584.3L614.501 584.318L614.434 584.331L604.665 586.127L604.609 586.137L604.553 586.143L596.024 587.021L595.989 587.025L589.248 587.382L590.085 604.179L590.585 607.131L594.006 609.681L597.117 611.03L601.511 611.194L605.529 610.982L609.785 609.581L614.013 606.587L618.18 601.573L620.7 594.498L622.414 587.416L622.152 582.158L614.564 584.3Z" fill="#FEFEFE" stroke="#0875A4" stroke-width="3"/>
<path d="M559.54 592.232L559.606 592.234L559.672 592.23L570.627 591.537L570.684 591.534L570.739 591.526L580.121 590.18L580.157 590.175L587.625 588.722L591.193 607.135L591.441 610.506L588.396 614.222L585.379 616.532L580.675 617.897L576.282 618.752L571.306 618.388L565.94 616.292L560.109 611.999L555.515 605.049L551.795 597.883L550.647 591.963L559.54 592.232Z" fill="#FEFEFE" stroke="#0578A5" stroke-width="3"/>
<defs>
<clipPath id="clip0_471_2602">
<rect width="151" height="90" fill="white" transform="matrix(-0.979383 -0.202011 -0.202011 0.979383 724.068 735.504)"/>
</clipPath>
<clipPath id="clip1_471_2602">
<rect width="151" height="90" fill="white" transform="translate(382.445 701) rotate(1.55664)"/>
</clipPath>
<clipPath id="clip2_471_2602">
<rect width="74.4055" height="144.158" fill="white" transform="translate(713 625.875) rotate(-62.2942)"/>
</clipPath>
<clipPath id="clip3_471_2602">
<rect width="196" height="148.189" fill="white" transform="translate(466 443.658) rotate(-14.9786)"/>
</clipPath>
</defs>
</svg>
