<svg width="1100" height="850" viewBox="0 0 1100 850" fill="none" xmlns="http://www.w3.org/2000/svg">
<path d="M738.357 122.066C768.784 96.0975 794.598 91.4427 808.952 101.76C824.47 112.913 836.295 137.054 828.2 170.784C820.003 204.941 812.948 209.587 742.315 263.433L708.116 305.738L690.35 327.694C648.048 381.085 648.006 389.832 629.401 422.61C624.718 430.86 620.668 438.043 616.978 444.054C613.254 450.122 610.195 454.496 607.58 457.311C604.972 460.12 603.568 460.566 602.845 460.584C602.067 460.603 600.386 460.167 597.857 456.718L596.189 454.441L593.41 454.868C588.902 455.557 586.46 454.69 585.096 453.49C583.771 452.324 582.728 450.193 582.417 446.19C581.753 437.679 578.917 420.454 585.024 401.401C597.108 363.692 600.372 303.83 622.248 249.858C649.729 182.06 708.237 147.775 738.357 122.066Z" fill="#87CFE5" stroke="#0E6B96" stroke-width="12"/>
<g clip-path="url(#clip0_471_2737)">
<path d="M633.955 706.21C616.582 699.991 605.253 702.072 597.479 707.27C589.426 712.656 584.221 722.009 580.56 732.237C576.775 742.81 574.685 751.25 579.387 759.702C584.302 768.537 597.297 778.59 628.008 789.584C649.092 797.131 664.609 801.551 676.131 803.659C687.728 805.781 694.822 805.47 699.327 804.03C703.515 802.691 705.816 800.265 707.61 796.828C708.557 795.015 709.349 792.933 710.167 790.522C710.936 788.257 711.824 785.392 712.77 782.751C713.946 779.465 713 774.069 708.704 766.619C704.557 759.426 697.874 751.353 689.674 743.369C673.232 727.363 651.498 712.49 633.955 706.21Z" fill="#87CFE5" stroke="#0178B2" stroke-width="9"/>
<path d="M589.389 722.07C564.54 758.847 594.336 774.875 630.734 787.904C667.132 800.934 688.705 805.47 696.243 800.733C710.504 799.466 658.358 786.058 633.007 773.797C552.98 745.149 622.331 688.242 589.389 722.07Z" fill="#31A7BA"/>
</g>
<g clip-path="url(#clip1_471_2737)">
<path d="M487.384 692.562C502.838 702.645 508.028 712.929 508.584 722.264C509.16 731.935 504.854 741.734 498.918 750.833C492.782 760.238 487.32 767.003 477.745 768.365C467.735 769.79 451.872 765.511 424.553 747.687C405.798 735.451 392.899 725.759 384.256 717.853C375.557 709.896 371.517 704.057 369.942 699.597C368.478 695.451 369.02 692.151 370.674 688.645C371.547 686.795 372.727 684.905 374.153 682.796C375.493 680.815 377.239 678.376 378.771 676.027C380.678 673.104 385.549 670.596 394.081 669.516C402.318 668.473 412.789 668.919 424.106 670.627C446.794 674.053 471.779 682.381 487.384 692.562Z" fill="#87CFE5" stroke="#0178B2" stroke-width="9"/>
<path d="M501.682 737.654C487.398 779.677 456.622 765.625 424.244 744.5C391.866 723.376 375.214 708.929 374.432 700.061C366.823 687.933 409.02 721.376 434.109 734.163C505.298 780.609 508.725 690.964 501.682 737.654Z" fill="#31A7BA"/>
</g>
<path d="M376.698 50.668C387.641 44.5401 399.445 43.2934 411.838 46.7001C424.446 50.1658 437.842 58.5254 451.066 71.9287C477.488 98.7048 501.987 144.368 517.339 205.237C521.681 230.955 527.218 256.587 532.281 280.319C537.379 304.208 541.976 326.083 544.504 344.494C547.07 363.181 547.318 377.201 544.53 385.874C543.185 390.057 541.383 392.197 539.627 393.284C537.936 394.332 535.11 395.13 530.073 394.395L526.431 393.864L523.768 396.352C520.157 399.724 518.251 400.015 517.653 400.011C517.077 400.008 515.547 399.72 512.969 396.959C510.439 394.248 507.717 390.017 504.646 384.173C501.608 378.392 498.423 371.421 494.847 363.439C480.636 331.715 460.914 285.398 422.991 246.366L422.726 246.093L422.427 245.853L418.943 243.029C346.599 184.015 325.471 142.327 326.658 113.186C327.84 84.1477 351.432 64.8174 376.698 50.668Z" fill="#8BCDE5" stroke="#0E6B96" stroke-width="12"/>
<path d="M585.5 368.001C687.975 368.001 771 450.407 771 552.001C771 653.595 687.975 736.001 585.5 736.001C483.025 736.001 400 653.595 400 552.001C400 450.407 483.025 368.001 585.5 368.001Z" fill="#86D0E3" stroke="#0C74AB" stroke-width="7"/>
<path d="M712.5 680.001C678 719.001 614 734.501 589 732.001C482 738.001 401.5 643.896 404 550.501C405.566 492.001 391 630.001 530 689.001C604.5 726.501 712.5 680.001 712.5 680.001Z" fill="#37B4CA"/>
<g clip-path="url(#clip2_471_2737)">
<path d="M748.337 582.597C745.317 578.382 742.719 577.421 740.216 577.596C737.171 577.81 733.369 579.735 728.226 583.421C718.423 590.447 704.765 603.227 686.684 612.99L686.422 613.131L686.139 613.225C671.556 618.016 658.584 622.351 648.79 628.507C639.393 634.413 633.224 641.807 631.507 652.724C635.723 665.107 641.1 673.213 646.986 678.227C652.937 683.295 659.628 685.397 666.75 685.372C681.278 685.322 697.644 676.411 711.934 665.059L712.043 664.971L712.16 664.894C726.388 655.411 737.775 638.865 744.386 622.317C747.68 614.073 749.731 605.965 750.383 598.91C751.032 591.882 750.257 586.283 748.337 582.597Z" fill="#87CFE5" stroke="#0076B8" stroke-width="7"/>
<path d="M666.774 646.964C666.99 646.783 667.278 646.696 667.569 646.713C667.859 646.732 668.129 646.854 668.324 647.06C668.52 647.267 668.627 647.543 668.631 647.837C668.634 648.129 668.533 648.415 668.343 648.622C667.931 649.069 667.531 649.499 667.114 649.939C659.988 658.01 649.571 663.954 638.845 666.403C638.242 666.558 637.667 666.703 637.061 666.848C636.65 664.603 636.24 662.359 635.83 660.114C636.414 660.05 636.967 659.987 637.547 659.914C647.859 658.846 657.342 655.037 665.415 648.089C665.874 647.715 666.318 647.348 666.774 646.964Z" fill="#0074AB"/>
<path d="M678.775 667.013C679.01 666.849 679.312 666.788 679.607 666.831C679.901 666.875 680.165 667.02 680.347 667.245C680.529 667.469 680.616 667.758 680.599 668.057C680.581 668.356 680.459 668.64 680.253 668.838C679.876 669.196 679.519 669.535 679.137 669.889C672.585 676.277 664.157 681.343 655.695 684.885C655.219 685.094 654.765 685.294 654.288 685.501C653.438 685.872 652.499 685.872 651.663 685.461C650.828 685.052 650.163 684.266 649.83 683.315C649.497 682.365 649.527 681.338 649.926 680.503C650.325 679.664 651.061 679.084 651.957 678.851C652.449 678.721 652.919 678.599 653.408 678.468C662.124 676.289 670.119 673.072 677.535 667.862C677.956 667.576 678.355 667.305 678.775 667.013Z" fill="#007BA4"/>
</g>
<path opacity="0.7" d="M622.809 403.839L632.104 403.489L640.888 405.022L650.322 408.394L662.151 413.539L672.26 419.371L670.868 428.742L659.133 426.078L645.655 423.48L635.129 422.013L626.996 422.319L617.701 422.669L617.374 413.984L618.883 407.715L622.809 403.839Z" fill="#014C83"/>
<g clip-path="url(#clip3_471_2737)">
<path d="M568.376 464.307C591.757 470.086 606.13 496.392 599.603 522.803C595.92 537.704 589.747 548.845 580.91 555.327C572.197 561.719 560.448 563.904 544.722 560.017C521.43 554.261 508.242 528.805 514.899 501.869C521.556 474.932 545.084 458.551 568.376 464.307Z" fill="#FEFEFE" stroke="#0F79AB" stroke-width="6"/>
<path d="M662.665 463.565C675.485 466.733 685.758 476.043 691.884 488.816C698.008 501.584 699.866 517.618 695.898 533.672C691.429 551.756 684.241 565.49 674.112 573.632C664.15 581.64 651.041 584.479 633.834 580.226C621.018 577.059 611.113 567.981 605.36 555.402C599.601 542.809 598.103 526.858 602.146 510.502C606.188 494.145 614.944 480.728 625.906 472.268C636.856 463.817 649.849 460.398 662.665 463.565Z" fill="#FEFEFE" stroke="#0F79AB" stroke-width="6"/>
<path d="M634.663 515.651C632.372 524.921 624.897 531.048 617.389 529.193C609.881 527.337 605.652 518.318 607.943 509.047C610.234 499.776 618.178 493.765 625.686 495.621C633.605 499.804 637.048 505.999 634.663 515.651Z" fill="#2B2A28"/>
<path d="M574.112 519.203C581.583 521.202 589.646 515.347 592.123 506.124C594.599 496.901 590.55 487.803 583.08 485.804C575.609 483.804 567.545 489.66 565.069 498.883C562.593 508.106 566.641 517.203 574.112 519.203Z" fill="#2B2A28"/>
</g>
<path d="M593.705 568.85C604.726 568.109 613.014 557.892 612.216 546.03C611.419 534.167 601.838 525.151 590.817 525.892C579.796 526.633 571.509 536.85 572.306 548.713C573.104 560.575 582.685 569.591 593.705 568.85Z" fill="#ED6F7A"/>
<path opacity="0.77" d="M542.973 423.46L558.647 424.454L576.083 428.881L583.964 432.683L589.789 437.263L588.935 442.534L587.332 447.664L583.358 453.127L575.843 447.066L561.893 440.189L551.763 435.965L539.453 433.274L540.864 426.944L542.973 423.46Z" fill="#004F80"/>
<path d="M587.26 605.185C582.336 590.345 583.799 581.022 591.703 563.118" stroke="#0082AA" stroke-width="7" stroke-linecap="round"/>
<path d="M701.126 568.617C701.588 568.081 702.244 567.751 702.948 567.701C703.652 567.65 704.348 567.882 704.882 568.346C705.416 568.81 705.744 569.468 705.795 570.175C705.845 570.881 705.614 571.579 705.152 572.115C702.888 574.739 700.47 577.231 697.926 579.58C650.455 621.542 574.82 617.481 526.715 579.104C524.011 576.96 521.43 574.751 518.889 572.405C518.37 571.925 518.062 571.258 518.032 570.55C518.003 569.842 518.255 569.151 518.733 568.629C519.211 568.108 519.877 567.799 520.582 567.77C521.288 567.74 521.976 567.994 522.496 568.474C524.936 570.728 527.416 572.85 530.015 574.911C576.108 611.884 649.553 615.466 694.32 575.647C696.721 573.431 698.997 571.084 701.126 568.617Z" fill="#076FA2"/>
<path d="M562.491 596.459L562.551 596.478L562.613 596.492L571.724 598.417L571.777 598.428L571.829 598.435L579.803 599.464L579.836 599.468L586.147 599.963L584.905 615.816L584.355 618.594L581.078 620.923L578.124 622.126L573.999 622.178L570.237 621.883L566.284 620.461L562.401 617.533L558.63 612.697L556.46 605.953L555.046 599.221L555.435 594.258L562.491 596.459Z" fill="#FEFEFE" stroke="#0875A4" stroke-width="3"/>
<path d="M613.874 605.239L613.812 605.239L613.75 605.234L603.496 604.324L603.443 604.319L603.391 604.31L594.63 602.82L594.597 602.814L587.633 601.267L583.785 618.583L583.461 621.762L586.215 625.345L588.981 627.598L593.355 628.998L597.451 629.908L602.127 629.681L607.216 627.825L612.802 623.905L617.299 617.444L620.983 610.759L622.22 605.192L613.874 605.239Z" fill="#FEFEFE" stroke="#0578A5" stroke-width="3"/>
<path d="M594.3 571.556C605.345 571.519 614.267 561.85 614.226 549.961C614.186 538.072 605.199 528.464 594.153 528.502C583.108 528.539 574.186 538.208 574.226 550.097C574.267 561.986 583.254 571.594 594.3 571.556Z" fill="#ED6F7A"/>
<path d="M453.641 721.219L460.819 726.02L467.507 728.11L474.909 728.89L480.164 727.654L473.38 726.474L471.731 726.187L485.724 720.139L598.68 328.938L568.707 316.832L449.692 709.144L450.951 714.996L453.641 721.219Z" fill="#D3B256" stroke="#F1CD51"/>
<path d="M576.115 331.045L462.472 717.51" stroke="#F1CD51" stroke-width="21" stroke-linecap="round"/>
<path d="M566.281 321.629L597.25 331.933L612.086 282.242L652.357 315.402L661.941 314.905L669.712 311.546L686.212 303.047L709.679 291.993L722.068 277.983L712.78 275.164L663.241 296.576L654.924 293.337L649.332 285.732L696.738 262.053L697.791 252.487L691.429 249.77L638.976 272.442L626.56 265.053L622.246 255.073L666.228 230.141L668.111 222.494L657.851 220.095L609.77 240.877L600.304 236.313L594.379 227.94L612.135 214.344L632.509 202.804L632.769 195.403L622.841 193.772L582.463 211.224L574.699 207.747L569.924 200.7L588.024 189.232L605.945 176.019L606.703 169.77L598.73 168.66L577.692 178.664L559.746 189.154L554.19 185.634L551.867 180.26L565.418 168.936L586.585 155.232L589.771 147.933L582.603 146.019L547.635 161.134L530.307 186.39L584.101 260.172L566.281 321.629Z" fill="#B8BDC6"/>
<path d="M544.875 180.979C549.96 167.831 556.915 162.274 576.501 155.464" stroke="#B7B6AF" stroke-width="6" stroke-linecap="round"/>
<path d="M647.893 306.399C663.471 310.175 671.956 306.939 686.726 291.849" stroke="#B7B6AF" stroke-width="6" stroke-linecap="round"/>
<path d="M635.559 292.428C640.643 279.281 647.599 273.723 667.185 266.914" stroke="#B7B6AF" stroke-width="6" stroke-linecap="round"/>
<path d="M603.45 263.484C608.535 250.337 615.49 244.78 635.077 237.97" stroke="#B7B6AF" stroke-width="6" stroke-linecap="round"/>
<path d="M585.913 228.242C590.998 215.095 597.953 209.538 617.539 202.728" stroke="#B7B6AF" stroke-width="6" stroke-linecap="round"/>
<path d="M561.955 202.153C567.04 189.006 573.995 183.449 593.581 176.639" stroke="#B7B6AF" stroke-width="6" stroke-linecap="round"/>
<g clip-path="url(#clip4_471_2737)">
<path d="M393.839 526.496C397.307 522.624 400.203 522.049 402.956 522.634C406.305 523.346 410.433 525.949 415.979 530.589C426.553 539.434 441.186 554.85 460.794 567.859L461.078 568.047L461.387 568.189C477.303 575.494 491.459 582.066 502.052 590.01C512.215 597.632 518.77 606.271 520.301 617.836C515.244 629.961 509.049 637.476 502.394 641.712C495.667 645.994 488.223 647.088 480.373 645.916C464.359 643.523 446.614 631.671 431.238 617.629L431.12 617.521L430.994 617.423C415.624 605.325 403.62 586.381 396.88 568.205C393.522 559.149 391.528 550.435 391.044 543.034C390.561 535.663 391.6 529.998 393.839 526.496Z" fill="#87CFE5" stroke="#0076B8" stroke-width="7"/>
<path d="M481.616 606.198C481.385 605.976 481.07 605.839 480.749 605.81C480.428 605.782 480.127 605.865 479.905 606.047C479.682 606.229 479.555 606.498 479.541 606.801C479.528 607.103 479.63 607.414 479.833 607.66C480.271 608.187 480.699 608.697 481.144 609.219C488.731 618.713 500.017 626.538 511.76 630.799C512.42 631.056 513.048 631.298 513.712 631.546C514.239 629.291 514.765 627.036 515.292 624.782C514.65 624.621 514.042 624.467 513.406 624.298C502.074 621.532 491.747 616.065 483.077 607.58C482.584 607.119 482.106 606.668 481.616 606.198Z" fill="#0074AB"/>
<path d="M467.725 624.994C467.471 624.787 467.14 624.675 466.813 624.672C466.488 624.67 466.192 624.777 465.984 624.98C465.776 625.183 465.67 625.468 465.68 625.78C465.69 626.091 465.814 626.405 466.035 626.643C466.439 627.074 466.821 627.482 467.23 627.91C474.241 635.571 483.364 642.167 492.574 647.193C493.092 647.487 493.586 647.766 494.105 648.057C495.029 648.578 496.064 648.729 497 648.439C497.934 648.151 498.692 647.445 499.091 646.515C499.489 645.586 499.491 644.52 499.079 643.592C498.667 642.66 497.875 641.942 496.894 641.556C496.356 641.343 495.842 641.141 495.308 640.927C485.772 637.269 477.066 632.655 469.063 626.072C468.608 625.708 468.178 625.363 467.725 624.994Z" fill="#007BA4"/>
</g>
<defs>
<clipPath id="clip0_471_2737">
<rect width="151" height="90" fill="white" transform="matrix(-0.941495 -0.337028 -0.337028 0.941495 734.497 736.891)"/>
</clipPath>
<clipPath id="clip1_471_2737">
<rect width="151" height="90" fill="white" transform="translate(402.178 631) rotate(33.122)"/>
</clipPath>
<clipPath id="clip2_471_2737">
<rect width="74.4055" height="144.158" fill="white" transform="matrix(-0.475131 -0.879915 -0.879915 0.475131 780.199 634.471)"/>
</clipPath>
<clipPath id="clip3_471_2737">
<rect width="189.284" height="127.952" fill="white" transform="translate(529.994 428.105) rotate(13.882)"/>
</clipPath>
<clipPath id="clip4_471_2737">
<rect width="74.4055" height="165.081" fill="white" transform="translate(357 575) rotate(-56.4371)"/>
</clipPath>
</defs>
</svg>
