<svg width="1100" height="850" viewBox="0 0 1100 850" fill="none" xmlns="http://www.w3.org/2000/svg">
<path d="M750.077 120.013C781.857 95.7194 807.884 92.4604 821.662 103.535C836.557 115.507 847.067 140.249 837.168 173.495C827.145 207.161 819.851 211.421 746.422 261.388L709.997 301.792L691.076 322.76C645.961 373.798 645.449 382.53 625.107 414.259C619.987 422.245 615.556 429.2 611.549 435.004C607.503 440.862 604.213 445.065 601.451 447.736C598.696 450.4 597.269 450.77 596.547 450.749C595.769 450.726 594.114 450.201 591.774 446.621L590.23 444.257L587.432 444.533C582.894 444.979 580.502 443.982 579.205 442.711C577.945 441.475 577.018 439.291 576.922 435.276C576.718 426.742 574.813 409.39 581.935 390.693C596.032 353.689 602.511 294.09 627.26 241.373C658.349 175.152 718.617 144.064 750.077 120.013Z" fill="#87CFE5" stroke="#0E6B96" stroke-width="12"/>
<path d="M361.402 60.8326C371.847 53.8909 383.522 51.7508 396.139 54.2059C408.973 56.7036 422.965 64.0211 437.17 76.3808C465.55 101.072 493.448 144.742 513.381 204.267C519.664 229.581 527.133 254.718 533.985 277.997C540.884 301.43 547.13 322.892 551.05 341.058C555.028 359.496 556.341 373.457 554.22 382.316C553.197 386.589 551.562 388.86 549.893 390.078C548.288 391.251 545.53 392.261 540.452 391.911L536.78 391.659L534.314 394.342C530.97 397.979 529.091 398.413 528.495 398.455C527.92 398.495 526.373 398.325 523.592 395.767C520.863 393.257 517.828 389.245 514.322 383.651C510.853 378.117 507.148 371.409 502.976 363.722C486.395 333.169 463.211 288.485 422.431 252.447L422.146 252.195L421.83 251.978L418.141 249.427C341.522 196.081 317.288 156.119 316.256 126.972C315.229 97.928 337.284 76.8609 361.402 60.8326Z" fill="#8BCDE5" stroke="#0E6B96" stroke-width="12"/>
<g clip-path="url(#clip0_471_1592)">
<path d="M760.827 540.418C754.831 540.928 752.339 542.897 751.04 545.426C749.461 548.503 749.148 553.295 749.807 560.4C751.065 573.942 755.809 594.527 754.93 617.671L754.917 618.006L754.844 618.335C751.05 635.232 747.748 650.303 748.139 663.338C748.515 675.844 752.281 686.072 762.193 694.003C777.067 697.02 788.345 696.456 796.829 693.623C805.406 690.759 811.448 685.474 815.619 678.551C824.125 664.428 824.846 643.437 821.902 623.059L821.879 622.903L821.871 622.746C820.762 603.5 810.911 582.957 798.246 567.047C791.936 559.12 785.031 552.476 778.355 547.795C771.705 543.133 765.646 540.67 760.827 540.418Z" fill="#87CFE5" stroke="#0076B8" stroke-width="7"/>
<path d="M777.201 656.485C777.146 656.172 777.229 655.842 777.418 655.57C777.607 655.299 777.888 655.108 778.209 655.037C778.531 654.965 778.871 655.019 779.167 655.184C779.462 655.35 779.688 655.611 779.784 655.915C779.988 656.57 780.183 657.206 780.377 657.863C784.257 669.407 784.07 682.924 780.203 694.736C780.003 695.41 779.81 696.05 779.598 696.722C777.11 695.832 774.622 694.942 772.135 694.052C772.415 693.448 772.677 692.875 772.946 692.271C777.95 681.654 779.723 670.268 777.526 658.448C777.422 657.789 777.316 657.147 777.201 656.485Z" fill="#0074AB"/>
<path d="M804.329 656.35C804.304 656.028 804.42 655.7 804.637 655.438C804.855 655.178 805.155 655.005 805.487 654.958C805.819 654.91 806.159 654.991 806.448 655.18C806.736 655.369 806.949 655.649 807.026 655.963C807.162 656.535 807.291 657.076 807.421 657.649C809.954 667.672 810.059 678.755 808.62 688.997C808.549 689.579 808.482 690.134 808.408 690.715C808.279 691.752 807.726 692.663 806.822 693.239C805.921 693.815 804.743 694.008 803.596 693.785C802.448 693.563 801.439 692.945 800.837 692.079C800.233 691.21 800.086 690.163 800.381 689.16C800.541 688.608 800.696 688.083 800.853 687.533C803.805 677.827 805.295 668.225 804.449 658.04C804.411 657.467 804.374 656.924 804.329 656.35Z" fill="#007BA4"/>
</g>
<g clip-path="url(#clip1_471_1592)">
<path d="M410.765 619.535C417.432 618.801 411.672 616.141 413.015 613.566C414.648 610.432 414.644 604.989 413.611 597.915C411.643 584.428 384.111 568.448 384.124 545.288L384.124 544.952L384.193 544.621C387.718 527.594 390.77 512.41 389.789 499.399C388.847 486.915 384.219 476.835 372.832 469.28C356.116 466.82 343.56 467.805 334.216 470.953C324.77 474.135 318.251 479.641 313.889 486.715C304.992 501.146 305.065 522.15 309.201 542.404L309.233 542.559L309.249 542.716C311.29 561.907 323.141 575.419 337.932 590.846C345.301 598.532 361.707 606.211 369.35 610.64C376.961 615.051 405.38 619.462 410.765 619.535Z" fill="#87CFE5" stroke="#0076B8" stroke-width="7"/>
<path d="M357.662 507.333C357.736 507.644 357.658 507.976 357.458 508.255C357.258 508.533 356.953 508.735 356.597 508.817C356.241 508.901 355.86 508.86 355.523 508.706C355.188 508.552 354.924 508.298 354.805 507.999C354.55 507.352 354.306 506.723 354.062 506.074C349.252 494.683 348.895 481.168 352.714 469.221C352.909 468.539 353.098 467.893 353.306 467.213C356.118 468.01 358.93 468.806 361.742 469.603C361.455 470.217 361.186 470.799 360.912 471.413C355.774 482.209 354.272 493.653 357.217 505.383C357.361 506.038 357.506 506.675 357.662 507.333Z" fill="#0074AB"/>
<path d="M327.41 508.48C327.451 508.801 327.335 509.133 327.104 509.402C326.872 509.67 326.545 509.855 326.177 509.914C325.808 509.974 325.425 509.906 325.095 509.728C324.766 509.55 324.516 509.278 324.418 508.967C324.242 508.401 324.076 507.865 323.907 507.297C320.663 497.376 320.082 486.304 321.259 476.016C321.313 475.431 321.366 474.874 321.424 474.291C321.524 473.249 322.103 472.318 323.087 471.709C324.068 471.1 325.374 470.863 326.663 471.043C327.952 471.223 329.104 471.802 329.811 472.646C330.521 473.491 330.729 474.532 330.442 475.546C330.286 476.103 330.136 476.634 329.984 477.189C327.096 486.998 325.836 496.649 327.205 506.795C327.272 507.366 327.336 507.907 327.41 508.48Z" fill="#007BA4"/>
</g>
<path d="M534.547 661.239L542.191 657.771L547.206 653.483L551.405 648.068L552.797 643.494L548.527 648.268L547.506 649.41L548.858 635.805L259.105 373.491L234.25 391.46L522.034 658.943L527.784 660.567L534.547 661.239Z" fill="#D3B256" stroke="#F1CD51"/>
<path d="M250.214 392.003L535.479 652.744" stroke="#F1CD51" stroke-width="21" stroke-linecap="round"/>
<path d="M237.261 395.488L261.059 375.902L224.488 342.202L272.791 325.528L276.918 317.826L277.67 310.265L278.065 293.602L279.535 270.364L273.132 254.456L266.233 260.452L261.441 308.652L254.636 313.702L245.293 314.682L247.078 267.138L239.179 262.057L233.762 265.814L228.689 316.849L216.286 323.252L205.467 322.177L204.521 276.746L198.702 271.873L191.708 278.813L187.058 325.596L178.541 330.953L168.366 331.851L164.883 311.938L164.453 290.898L158.077 287.401L151.916 294.424L148.011 333.71L141.259 338.223L132.796 338.813L131.346 319.581L128.278 299.71L123.151 296.337L118.379 302.066L117.144 322.941L117.809 341.619L112.071 344.389L106.245 343.81L102.755 328.192L100.801 305.568L95.9087 299.832L90.8148 304.575L87.4326 338.599L101.359 363.367L191.776 354.221L237.261 395.488Z" fill="#B8BDC6"/>
<path d="M103.545 349.587C94.4215 339.766 92.854 331.863 96.2026 313.543" stroke="#B7B6AF" stroke-width="6" stroke-linecap="round"/>
<path d="M262.757 325.005C273.493 314.526 274.692 306.462 268.475 288.216" stroke="#B7B6AF" stroke-width="6" stroke-linecap="round"/>
<path d="M244.613 328.413C235.489 318.592 233.922 310.689 237.27 292.369" stroke="#B7B6AF" stroke-width="6" stroke-linecap="round"/>
<path d="M203.902 340.592C194.778 330.77 193.21 322.868 196.559 304.548" stroke="#B7B6AF" stroke-width="6" stroke-linecap="round"/>
<path d="M164.599 338.594C155.475 328.772 153.908 320.87 157.256 302.55" stroke="#B7B6AF" stroke-width="6" stroke-linecap="round"/>
<path d="M130.277 345.681C121.153 335.859 119.585 327.956 122.934 309.636" stroke="#B7B6AF" stroke-width="6" stroke-linecap="round"/>
<path d="M579.5 368C681.975 368 765 450.406 765 552C765 653.594 681.975 736 579.5 736C477.025 736 394 653.594 394 552C394 450.406 477.025 368 579.5 368Z" fill="#86D0E3" stroke="#0C74AB" stroke-width="7"/>
<path d="M706.5 680C672 719 608 734.5 583 732C476 738 395.5 643.895 398 550.5C399.566 492 385 630 524 689C598.5 726.5 706.5 680 706.5 680Z" fill="#37B4CA"/>
<path opacity="0.77" d="M500.722 435.918L515.237 434.318L531.841 435.571L539.594 437.782L545.567 441.034L545.51 445.983L544.745 450.924L541.852 456.548L534.123 452.216L520.38 448.167L510.506 445.931L498.844 445.443L499.267 439.437L500.722 435.918Z" fill="#004F80"/>
<path opacity="0.7" d="M567.328 408.345L572.653 402.374L578.764 397.775L586.328 393.802L596.342 389.334L605.732 386.318L610.331 392.43L601.809 398.229L592.289 405.147L585.179 410.866L580.519 416.09L575.195 422.06L569.97 417.401L567.237 412.954L567.328 408.345Z" fill="#014C83"/>
<g clip-path="url(#clip2_471_1592)">
<path d="M504.058 491.254C543.814 492.01 548.055 473.555 559.22 506.71C565.519 525.417 565.913 529.889 562.872 542.328C559.874 554.593 551.841 564.002 536.865 569.045C514.684 576.514 488.359 556.14 476.972 522.325C465.586 488.511 464.303 490.499 504.058 491.254Z" fill="#FEFEFE" stroke="#0F79AB" stroke-width="6"/>
<path d="M549.956 528.231C557.717 522.786 559.554 512.021 554.058 504.186C548.562 496.352 537.815 494.414 530.054 499.858C522.292 505.302 520.455 516.067 525.951 523.902C531.447 531.737 542.194 533.675 549.956 528.231Z" fill="#2B2A28"/>
<path d="M590.933 428.081C602.593 425.015 615.166 429.005 626.106 438.26C637.043 447.512 646.159 461.897 650.673 479.066C655.758 498.405 656.617 514.893 652.48 527.451C648.411 539.802 639.387 548.725 623.736 552.841C612.08 555.905 599.909 551.961 589.357 542.713C578.792 533.455 570.001 518.978 565.402 501.486C560.802 483.994 561.336 467.065 565.981 453.808C570.62 440.566 579.277 431.146 590.933 428.081Z" fill="#FEFEFE" stroke="#0F79AB" stroke-width="6"/>
<path d="M607.003 496.6C609.993 505.479 605.95 514.855 597.306 517.765C588.663 520.675 579.233 515.837 576.243 506.958C573.253 498.08 577.836 488.522 586.48 485.612C596.87 484.351 603.891 487.356 607.003 496.6Z" fill="#2B2A28"/>
</g>
<path d="M577.641 594.318C568.281 581.794 566.724 572.486 568.568 553.002" stroke="#0082AA" stroke-width="7" stroke-linecap="round"/>
<path d="M674.125 523.652C674.394 522.998 674.912 522.478 675.564 522.207C676.217 521.937 676.95 521.937 677.603 522.209C678.256 522.48 678.776 523.001 679.047 523.655C679.318 524.31 679.32 525.045 679.05 525.7C677.731 528.905 676.224 532.033 674.552 535.065C642.768 589.874 569.723 609.914 511.958 588.699C508.715 587.519 505.569 586.238 502.417 584.815C501.773 584.524 501.27 583.988 501.017 583.326C500.766 582.663 500.788 581.928 501.077 581.282C501.366 580.636 501.899 580.133 502.559 579.882C503.219 579.632 503.952 579.654 504.597 579.946C507.625 581.314 510.648 582.544 513.764 583.678C569.177 604.197 639.993 584.395 669.888 532.473C671.466 529.611 672.885 526.665 674.125 523.652Z" fill="#076FA2"/>
<path d="M519.103 588.681L519.232 589.05L519.251 589.44C519.876 602.551 551.628 630.618 577.736 664.424C607.53 682.272 597.424 683.158 627.003 676.502C654.228 657.317 656.306 649.861 662.503 631.502C665.63 622.239 669.186 600.164 670.003 593.502C670.276 591.275 669.754 542.824 670.003 541.002C666.301 543.626 648.61 565.933 643.503 569.002C622.435 581.66 623.503 585.829 597.003 592.502C567.779 593.787 566.82 605.673 552.503 595.502C548.908 592.947 524.478 592.607 521.985 590.674C520.846 589.791 521.357 594.143 520.503 593.502C520.536 593.598 519.068 588.581 519.103 588.681Z" fill="#D20223" stroke="#076FA2" stroke-width="6"/>
<path d="M614.003 677.001C628.003 675.501 639.503 667.001 651.003 651.501C662.138 636.493 668.921 613.404 660.658 611.162C639.736 618.503 622.28 627.87 608.081 671.748C606.847 676.295 606.503 679.501 614.003 677.001Z" fill="#FF1863"/>
<path d="M557.294 598.054L557.355 598.064L557.419 598.069L566.708 598.728L566.762 598.732L566.814 598.731L574.854 598.658L574.887 598.658L581.207 598.283L582.148 614.157L581.984 616.984L579.057 619.74L576.295 621.336L572.216 621.954L568.45 622.177L564.339 621.309L560.092 618.941L555.694 614.667L552.62 608.284L550.297 601.809L550.003 596.84L557.294 598.054Z" fill="#FEFEFE" stroke="#0875A4" stroke-width="3"/>
<path d="M605.544 593.336L605.484 593.354L605.423 593.365L595.313 595.303L595.261 595.313L595.208 595.319L586.374 596.288L586.341 596.292L579.22 596.714L580.269 614.422L580.829 617.568L584.461 620.258L587.739 621.666L592.329 621.812L596.518 621.564L600.952 620.063L605.336 616.882L609.633 611.58L612.185 604.134L613.894 596.695L613.557 591.002L605.544 593.336Z" fill="#FEFEFE" stroke="#0578A5" stroke-width="3"/>
<path d="M573.697 560.188C584.165 556.663 589.575 544.671 585.781 533.404C581.987 522.136 570.425 515.859 559.957 519.384C549.489 522.909 544.079 534.901 547.873 546.168C551.667 557.436 563.229 563.713 573.697 560.188Z" fill="#ED6F7A"/>
<g clip-path="url(#clip3_471_1592)">
<path d="M459 716C477.453 716 487.418 721.777 492.985 729.291C498.752 737.076 500.5 747.636 500.5 758.5C500.5 769.729 499.623 778.38 492.348 784.753C484.743 791.415 469.12 796.5 436.5 796.5C414.106 796.5 398.008 795.432 386.449 793.533C374.815 791.622 368.241 788.939 364.485 786.064C360.993 783.392 359.644 780.333 359.114 776.492C358.834 774.466 358.79 772.239 358.831 769.693C358.871 767.301 359 764.305 359 761.5C359 758.01 361.71 753.248 368.265 747.682C374.594 742.307 383.607 736.959 394.018 732.206C414.892 722.677 440.368 716 459 716Z" fill="#87CFE5" stroke="#0178B2" stroke-width="9"/>
<path d="M495.614 745.952C506.614 788.952 473.16 794 434.5 794C395.84 794 374 791 368.5 784C355.5 778 409.114 782.952 437.114 779.952C522.114 779.952 476 703 495.614 745.952Z" fill="#31A7BA"/>
</g>
<g clip-path="url(#clip4_471_1592)">
<path d="M634.756 719.712C616.824 715.358 605.777 718.621 598.595 724.609C591.154 730.814 586.964 740.663 584.4 751.221C581.751 762.133 580.562 770.747 586.128 778.656C591.947 786.924 605.929 795.551 637.628 803.247C659.39 808.531 675.286 811.291 686.967 812.173C698.722 813.061 705.744 812.004 710.072 810.097C714.096 808.324 716.129 805.669 717.55 802.062C718.3 800.159 718.869 798.006 719.429 795.522C719.955 793.188 720.536 790.246 721.198 787.52C722.021 784.129 720.512 778.862 715.455 771.906C710.572 765.19 703.076 757.866 694.08 750.791C676.043 736.607 652.862 724.107 634.756 719.712Z" fill="#87CFE5" stroke="#0178B2" stroke-width="9"/>
<path d="M592.109 740.18C571.274 779.371 602.593 792.17 640.162 801.291C677.73 810.412 699.661 812.649 706.658 807.144C720.706 804.381 667.437 796.543 640.936 787.022C558.335 766.968 621.303 703.068 592.109 740.18Z" fill="#31A7BA"/>
</g>
<defs>
<clipPath id="clip0_471_1592">
<rect width="86.3952" height="162.483" fill="white" transform="matrix(-0.999279 -0.0379545 -0.0379545 0.999279 831.499 539.279)"/>
</clipPath>
<clipPath id="clip1_471_1592">
<rect width="96.4292" height="162.483" fill="white" transform="matrix(1 0.000557669 0.000557669 -1 302 626.483)"/>
</clipPath>
<clipPath id="clip2_471_1592">
<rect width="196" height="148.189" fill="white" transform="translate(452 455.548) rotate(-18.6099)"/>
</clipPath>
<clipPath id="clip3_471_1592">
<rect width="151" height="90" fill="white" transform="translate(354 711)"/>
</clipPath>
<clipPath id="clip4_471_1592">
<rect width="151" height="90" fill="white" transform="matrix(-0.97177 -0.235931 -0.235931 0.97177 737.971 739.626)"/>
</clipPath>
</defs>
</svg>
