<svg width="1100" height="850" viewBox="0 0 1100 850" fill="none" xmlns="http://www.w3.org/2000/svg">
<path d="M550.004 103.458C562.738 65.5375 582.48 48.2676 600.097 49.7313C619.142 51.3136 641.701 65.9325 652.109 99.0226C662.649 132.53 658.99 140.144 626.115 222.652L618.55 276.523L614.609 304.49C605.796 372.036 610.259 379.559 611.164 417.237C611.393 426.721 611.614 434.964 611.543 442.017C611.47 449.137 611.097 454.461 610.302 458.22C609.511 461.97 608.536 463.075 607.926 463.463C607.268 463.879 605.603 464.37 601.66 462.713L599.058 461.619L596.894 463.414C593.383 466.323 590.842 466.836 589.056 466.509C587.32 466.19 585.329 464.9 583.003 461.627C578.056 454.67 566.763 441.357 562.199 421.877C553.166 383.323 525.172 330.31 516.169 272.773C504.86 200.497 537.398 140.999 550.004 103.458Z" fill="#87CFE5" stroke="#0E6B96" stroke-width="12"/>
<path d="M274.209 109.052C283.334 100.449 294.481 96.3703 307.331 96.6627C320.403 96.9602 335.429 101.813 351.515 111.601C383.651 131.152 418.514 169.492 448.2 224.804C458.662 248.696 470.263 272.214 480.942 294.003C491.693 315.937 501.469 336.039 508.397 353.283C515.427 370.787 519.075 384.326 518.479 393.417C518.191 397.801 516.963 400.314 515.523 401.796C514.138 403.223 511.59 404.684 506.526 405.195L502.864 405.566L500.886 408.626C498.203 412.775 496.424 413.52 495.844 413.662C495.284 413.799 493.73 413.892 490.558 411.839C487.445 409.825 483.776 406.383 479.377 401.46C475.025 396.591 470.242 390.603 464.833 383.729C443.338 356.411 412.95 316.276 366.677 287.631L366.354 287.431L366.006 287.27L361.94 285.378C277.422 245.717 246.795 210.413 240.864 181.857C234.953 153.403 253.139 128.918 274.209 109.052Z" fill="#8BCDE5" stroke="#0E6B96" stroke-width="12"/>
<g clip-path="url(#clip0_468_1115)">
<path d="M648.819 738.228C647.615 719.815 641.201 710.248 633.339 705.183C625.195 699.936 614.543 698.88 603.702 699.589C592.497 700.321 583.922 701.761 578.037 709.436C571.885 717.459 567.83 733.38 569.957 765.93C571.418 788.277 573.534 804.272 576.182 815.682C578.848 827.166 581.954 833.551 585.068 837.112C587.962 840.422 591.103 841.569 594.97 841.847C597.01 841.995 599.235 841.893 601.773 841.686C604.157 841.49 607.139 841.166 609.938 840.983C613.42 840.755 617.995 837.741 623.122 830.837C628.072 824.171 632.822 814.828 636.885 804.129C645.032 782.678 650.034 756.821 648.819 738.228Z" fill="#87CFE5" stroke="#0178B2" stroke-width="9"/>
<path d="M616.543 703.646C572.917 695.474 570.061 729.186 572.582 767.764C575.104 806.341 579.522 827.939 586.866 832.971C593.701 845.552 585.263 792.375 586.43 764.239C580.887 679.42 660.682 720.417 616.543 703.646Z" fill="#31A7BA"/>
</g>
<path d="M585.5 366.001C687.975 366.001 771 448.407 771 550.001C771 651.595 687.975 734.001 585.5 734.001C483.025 734.001 400 651.595 400 550.001C400 448.407 483.025 366.001 585.5 366.001Z" fill="#86D0E3" stroke="#0C74AB" stroke-width="7"/>
<path d="M712.5 678.001C678 717.001 614 732.501 589 730.001C482 736.001 401.5 641.896 404 548.501C405.566 490.001 391 628.001 530 687.001C604.5 724.501 712.5 678.001 712.5 678.001Z" fill="#37B4CA"/>
<path d="M663.077 707.362L668.885 713.421L674.595 716.73L681.096 718.894L685.873 718.691L679.953 716.246L678.537 715.661L691.82 712.422L885.053 255.027L860.707 244.531L661.091 694.798L661.467 700.759L663.077 707.362Z" fill="#D3B256" stroke="#F1CD51"/>
<path d="M867.19 253.667L679.508 702.732" stroke="#F1CD51" stroke-width="21" stroke-linecap="round"/>
<path d="M859.618 242.602L885.992 258.553L905.647 212.871L937.404 252.904L946.039 254.242L953.421 252.442L969.272 247.286L991.681 240.961L1004.56 229.643L996.617 225.124L949.558 236.598L942.536 231.854L938.511 223.366L983.954 209.273L986.125 200.135L980.784 196.273L930.957 208.422L920.802 198.846L918.226 188.283L960.768 172.315L963.435 165.209L954.567 160.915L908.892 172.051L901.012 165.795L896.789 156.494L914.417 146.601L934.123 139.214L935.306 132.039L926.637 128.557L888.28 137.909L881.783 133.037L878.418 125.249L896.08 117.5L913.807 108.012L915.287 102.056L908.299 99.4558L888.197 105.218L870.798 112.043L866.281 107.549L864.894 101.861L878.469 93.3861L899.163 84.0364L902.95 77.5176L896.786 74.2861L863.567 82.3855L844.824 103.742L883.454 186.001L859.618 242.602Z" fill="#B8BDC6"/>
<path d="M858.549 101.231C864.786 89.3655 871.721 85.2645 890.114 82.3443" stroke="#B7B6AF" stroke-width="6" stroke-linecap="round"/>
<path d="M934.568 243.265C948.016 249.916 956.021 248.371 971.17 236.452" stroke="#B7B6AF" stroke-width="6" stroke-linecap="round"/>
<path d="M925.333 227.28C931.57 215.414 938.505 211.313 956.898 208.393" stroke="#B7B6AF" stroke-width="6" stroke-linecap="round"/>
<path d="M900.335 192.917C906.572 181.051 913.507 176.95 931.9 174.03" stroke="#B7B6AF" stroke-width="6" stroke-linecap="round"/>
<path d="M889.178 155.178C895.416 143.312 902.351 139.211 920.744 136.291" stroke="#B7B6AF" stroke-width="6" stroke-linecap="round"/>
<path d="M871.104 125.152C877.341 113.286 884.276 109.185 902.669 106.265" stroke="#B7B6AF" stroke-width="6" stroke-linecap="round"/>
<path d="M766.53 534.961C762.987 532.109 762.514 529.152 763.122 526.097C763.862 522.379 766.387 517.424 770.848 510.519C779.351 497.355 784.904 488.176 797.5 464.5L800 455L802.5 445C809.682 426.485 770.359 432.596 779.173 402.954C786.523 390.492 802 332.5 850 374.5C864.647 397 864.855 397.969 867 405C869.5 413.198 870.903 418 869.5 427.5C866.907 445.055 864.5 453.733 852.551 475.449L852.447 475.598L852.353 475.753C840.702 494.724 822.726 511.595 805.586 522.7C797.046 528.232 788.856 532.238 781.927 534.355C775.026 536.464 769.753 536.584 766.53 534.961Z" fill="#87CFE5" stroke="#0076B8" stroke-width="7"/>
<path d="M813.867 413.819C814.076 414.043 814.368 414.193 814.671 414.241C814.973 414.289 815.262 414.231 815.481 414.074C815.701 413.918 815.835 413.673 815.863 413.389C815.89 413.106 815.808 412.806 815.628 412.561C815.237 412.036 814.857 411.527 814.46 411.007C807.726 401.568 797.408 393.454 786.485 388.665C785.872 388.379 785.288 388.109 784.671 387.832C784.064 389.919 783.456 392.006 782.849 394.093C783.449 394.287 784.018 394.472 784.613 394.674C795.218 398.029 804.741 403.86 812.549 412.421C812.995 412.888 813.426 413.344 813.867 413.819Z" fill="#0074AB"/>
<path d="M827.173 392.645C827.321 392.874 827.561 393.041 827.832 393.114C828.102 393.186 828.382 393.157 828.616 393.03C828.851 392.903 829.024 392.685 829.107 392.421C829.189 392.157 829.174 391.868 829.056 391.622C828.801 391.093 828.551 390.581 828.288 390.056C823.955 380.581 816.037 372.027 806.89 366.542C806.38 366.218 805.894 365.912 805.378 365.596C804.396 367.502 803.413 369.408 802.43 371.314C802.948 371.55 803.436 371.776 803.947 372.019C813.089 376.128 820.731 382.465 826.235 391.213C826.553 391.691 826.86 392.158 827.173 392.645Z" fill="#0074AB"/>
<g clip-path="url(#clip1_468_1115)">
<path d="M548.663 623.137C549.096 618.236 551.659 615.972 555.031 614.599C559.134 612.928 565.619 612.057 575.279 611.671C593.693 610.936 621.804 612.104 653.143 608.407L653.597 608.353L654.039 608.252C676.783 603.011 697.074 598.402 714.763 597.035C731.734 595.723 745.762 597.439 756.941 604.408C761.672 616.012 761.392 625.179 757.917 632.386C754.403 639.671 747.499 645.226 738.293 649.482C719.512 658.165 691.085 661.457 663.331 661.714L663.118 661.716L662.905 661.729C636.765 663.32 608.491 658.029 586.376 649.871C575.358 645.807 566.053 641.097 559.419 636.318C552.812 631.558 549.213 626.99 548.663 623.137Z" fill="#87CFE5" stroke="#0076B8" stroke-width="7"/>
<path d="M706.722 621.353C706.295 621.35 705.852 621.459 705.491 621.646C705.132 621.834 704.884 622.085 704.802 622.354C704.719 622.622 704.807 622.89 705.044 623.107C705.28 623.323 705.645 623.472 706.061 623.509C706.957 623.59 707.828 623.665 708.727 623.736C724.545 625.374 742.862 623.479 758.709 618.836C759.614 618.587 760.474 618.348 761.375 618.091C760.061 616.2 758.748 614.309 757.434 612.418C756.628 612.721 755.862 613.007 755.055 613.301C740.877 618.708 725.517 621.608 709.398 621.362C708.499 621.363 707.625 621.361 706.722 621.353Z" fill="#0074AB"/>
<path d="M707.707 643.245C707.269 643.267 706.829 643.403 706.484 643.612C706.141 643.821 705.919 644.085 705.869 644.359C705.819 644.633 705.943 644.897 706.212 645.106C706.48 645.314 706.87 645.449 707.299 645.47C708.08 645.507 708.818 645.54 709.601 645.571C723.298 646.319 738.329 644.973 752.152 642.491C752.938 642.358 753.688 642.232 754.472 642.097C755.873 641.86 757.084 641.296 757.826 640.493C758.567 639.692 758.779 638.717 758.427 637.821C758.076 636.924 757.195 636.19 755.995 635.817C754.791 635.442 753.366 635.458 752.018 635.826C751.277 636.026 750.571 636.219 749.833 636.416C736.801 640.05 723.847 642.491 710.004 643.124C709.225 643.167 708.488 643.208 707.707 643.245Z" fill="#007BA4"/>
</g>
<path opacity="0.77" d="M547.315 386.918L559.167 376.613L574.684 367.513L582.963 364.681L590.326 363.848L593.422 368.198L595.886 372.975L596.896 379.654L587.289 380.622L572.531 385.529L562.356 389.641L551.705 396.375L548.262 390.879L547.315 386.918Z" fill="#004F80"/>
<g clip-path="url(#clip2_468_1115)">
<path d="M629.244 554.296L629.291 554.298L629.336 554.293L636.876 553.549L636.915 553.546L636.953 553.537L643.297 552.168L643.321 552.163L648.315 550.702L653.55 568.592L654.226 571.87L652.655 575.505L650.895 577.771L647.816 579.129L644.879 579.988L641.354 579.667L637.297 577.662L632.588 573.522L628.347 566.79L624.683 559.843L623 554.091L629.244 554.296Z" fill="#FEFEFE" stroke="#0578A5" stroke-width="3"/>
<path d="M674.537 545.31L674.474 545.333L674.406 545.35L664.565 547.754L664.508 547.768L664.452 547.777L655.817 549.118L655.782 549.123L648.937 549.813L650.805 568.239L651.493 571.461L655.131 574.113L658.381 575.459L662.867 575.446L666.946 575.036L671.197 573.309L675.322 569.832L679.263 564.137L681.403 556.249L682.72 548.39L682.136 542.621L674.537 545.31Z" fill="#FEFEFE" stroke="#0875A4" stroke-width="3"/>
<path d="M722.062 549.66C722.753 549.451 723.41 549.071 723.867 548.554C724.326 548.035 724.662 547.265 724.393 546.429L724.392 546.428C724.125 545.604 723.416 545.17 722.75 545.001C720.404 544.409 718.042 543.894 715.595 543.435L715.363 543.391C692.868 539.156 665.775 540.883 640.048 547.684C614.724 554.379 590.641 566.012 573.53 581.81L572.719 582.565L572.706 582.579C571.104 584.144 569.596 585.747 568.194 587.376L567.596 588.083C567.153 588.616 566.855 589.392 567.153 590.209L567.238 590.408C567.566 591.084 568.236 591.446 568.848 591.585L568.994 591.614C569.635 591.729 570.336 591.657 570.974 591.45L571.212 591.365C571.761 591.153 572.274 590.832 572.658 590.415L572.778 590.277L573.288 589.676L573.296 589.667C574.575 588.18 575.957 586.713 577.43 585.271L577.44 585.261L577.45 585.252C593.356 570.177 616.559 558.878 641.161 552.37C665.765 545.862 691.677 544.17 712.95 548.225L712.978 548.23L712.989 548.234C715.371 548.677 717.664 549.176 719.94 549.751C720.611 549.92 721.369 549.871 722.062 549.66Z" fill="#076FA2"/>
</g>
<path d="M575.26 433.975C599.545 423.857 629.366 437.872 640.927 465.62C647.451 481.276 649.328 495.213 645.822 506.744C642.364 518.114 633.491 527.725 617.158 534.53C592.965 544.61 564.74 530.577 552.949 502.278C541.157 473.977 551.068 444.055 575.26 433.975Z" fill="#FEFEFE" stroke="#0F79AB" stroke-width="6"/>
<path d="M662.153 396.978C674.094 392.003 687.659 393.471 700.012 400.165C712.36 406.857 723.284 418.685 729.644 433.95C736.809 451.145 739.271 466.432 736.12 478.94C733.021 491.242 724.4 501.228 708.372 507.906C696.435 512.879 683.295 511.381 671.35 504.624C659.392 497.86 648.8 485.887 642.32 470.334C635.839 454.782 634.797 438.83 638.414 425.576C642.027 412.337 650.216 401.952 662.153 396.978Z" fill="#FEFEFE" stroke="#0F79AB" stroke-width="6"/>
<path d="M651 550.256C658.107 536.329 658.068 526.891 652.957 508" stroke="#0082AA" stroke-width="7" stroke-linecap="round"/>
<path d="M666.448 523.181C677.001 518.785 681.897 506.44 677.384 495.61C672.872 484.78 660.659 479.564 650.107 483.961C639.554 488.358 634.658 500.702 639.171 511.532C643.683 522.363 655.896 527.578 666.448 523.181Z" fill="#ED6F7A"/>
<path d="M676.509 453.276C680.024 461.713 676.593 471.169 668.199 474.667C659.805 478.164 650.15 474.16 646.635 465.724C643.119 457.287 647.075 447.612 655.469 444.114C665.698 442.093 672.849 444.492 676.509 453.276Z" fill="#2B2A28"/>
<path d="M611.264 488.426C619.512 485.178 623.438 475.537 620.033 466.891C616.628 458.246 607.182 453.87 598.934 457.119C590.686 460.367 586.76 470.008 590.165 478.654C593.569 487.299 603.016 491.675 611.264 488.426Z" fill="#2B2A28"/>
<path opacity="0.7" d="M625.669 394.877L631.539 387.662L638.487 382.074L647.247 377.21L658.919 371.718L669.972 367.971L676.094 375.201L666.349 382.26L655.502 390.672L647.453 397.613L642.317 403.926L636.447 411.141L629.705 405.655L625.99 400.384L625.669 394.877Z" fill="#014C83"/>
<path d="M380.383 458.203C389.731 458.002 400.181 461.206 410.837 467.038C421.456 472.85 432.032 481.139 441.561 490.75C460.748 510.103 475.034 534.134 477.343 553.026C478.948 566.152 476.071 581.163 470.606 593.388C467.881 599.483 464.577 604.74 461.01 608.662C458.954 610.924 456.881 612.663 454.852 613.887C454.854 613.781 454.856 613.672 454.858 613.562C454.917 611.241 455.113 608.564 455.309 605.276C455.694 598.79 456.032 590.535 455 580.556C452.928 560.537 445.386 533.966 422.315 500.424L422.057 500.048L421.717 499.742C407.913 487.36 397.532 478.093 389.972 471.152C383.24 464.971 378.915 460.784 376.432 457.968C377.469 458.021 378.657 458.1 380.013 458.194L380.197 458.207L380.383 458.203Z" fill="#91E1E6" stroke="#0082AA" stroke-width="8"/>
<path d="M471.318 581.403C469.657 592.51 468.658 587.448 466.44 595.357C469.615 565.56 471.945 597.009 459.494 604.878C459.715 605.811 460.082 594.401 458.18 582.05C471.323 553.34 477.652 539.042 471.318 581.403Z" fill="#2FC7CE"/>
<path d="M350.668 468.986C351.675 462.335 354.092 458.889 357.453 457.761L357.579 457.719L357.699 457.666C361.913 455.825 367.641 456.05 374.58 458.605C381.472 461.142 389.185 465.848 397.019 472.343C412.681 485.327 428.407 505.109 438.611 527.618C448.878 550.268 454.235 572.504 454.511 590.052C454.649 598.83 453.512 606.285 451.207 611.996C448.911 617.681 445.532 621.48 441.214 623.367C432.55 627.152 420.565 623.114 407.424 611.187C394.509 599.466 381.441 580.911 371.175 558.277C363.229 538.631 355.366 514.426 351.946 494.389C350.23 484.329 349.675 475.546 350.668 468.986Z" fill="#2FC7CE" stroke="#0082AA" stroke-width="6"/>
<defs>
<clipPath id="clip0_468_1115">
<rect width="151" height="90" fill="white" transform="matrix(-0.0652214 -0.997871 -0.997871 0.0652214 660.656 842.679)"/>
</clipPath>
<clipPath id="clip1_468_1115">
<rect width="69.6706" height="221.382" fill="white" transform="translate(550.162 680.27) rotate(-96.7282)"/>
</clipPath>
<clipPath id="clip2_468_1115">
<rect width="161.407" height="56" fill="white" transform="translate(554 561.33) rotate(-16.3106)"/>
</clipPath>
</defs>
</svg>
