<svg width="1100" height="850" viewBox="0 0 1100 850" fill="none" xmlns="http://www.w3.org/2000/svg">
<g clip-path="url(#clip0_471_2424)">
<path d="M550.004 103.458C562.738 65.5375 582.48 48.2676 600.097 49.7313C619.142 51.3136 641.701 65.9325 652.109 99.0226C662.649 132.53 658.99 140.144 626.115 222.652L618.55 276.523L614.609 304.49C605.796 372.036 610.259 379.559 611.164 417.237C611.393 426.721 611.614 434.964 611.543 442.017C611.47 449.137 611.097 454.461 610.302 458.22C609.511 461.97 608.536 463.075 607.926 463.463C607.268 463.879 605.603 464.37 601.66 462.713L599.058 461.619L596.894 463.414C593.383 466.323 590.842 466.836 589.056 466.509C587.32 466.19 585.329 464.9 583.003 461.627C578.056 454.67 566.763 441.357 562.199 421.877C553.166 383.323 525.172 330.31 516.169 272.773C504.86 200.497 537.398 140.999 550.004 103.458Z" fill="#87CFE5" stroke="#0E6B96" stroke-width="12"/>
<path d="M274.209 109.052C283.334 100.449 294.481 96.3703 307.331 96.6627C320.403 96.9602 335.429 101.813 351.515 111.601C383.651 131.152 418.514 169.492 448.2 224.804C458.662 248.696 470.263 272.214 480.942 294.003C491.693 315.937 501.469 336.039 508.397 353.283C515.427 370.787 519.075 384.326 518.479 393.417C518.191 397.801 516.963 400.314 515.523 401.796C514.138 403.223 511.59 404.684 506.526 405.195L502.864 405.566L500.886 408.626C498.203 412.775 496.424 413.52 495.844 413.662C495.284 413.799 493.73 413.892 490.558 411.839C487.445 409.825 483.776 406.383 479.377 401.46C475.025 396.591 470.242 390.603 464.833 383.729C443.338 356.411 412.95 316.276 366.677 287.631L366.354 287.431L366.006 287.27L361.94 285.378C277.422 245.717 246.795 210.413 240.864 181.857C234.953 153.403 253.139 128.918 274.209 109.052Z" fill="#8BCDE5" stroke="#0E6B96" stroke-width="12"/>
<g clip-path="url(#clip1_471_2424)">
<path d="M456.722 667.405C476.462 673.451 485.35 682.498 489.002 691.845C492.784 701.528 491.416 712.672 488.085 723.548C484.642 734.79 481.052 743.163 471.316 747.159C461.138 751.337 442.866 751.309 407.971 740.623C384.015 733.286 367.121 726.942 355.339 721.254C343.48 715.53 337.27 710.69 334.133 706.582C331.217 702.763 330.712 699.258 331.322 695.239C331.644 693.119 332.279 690.875 333.105 688.34C333.88 685.958 334.938 683.001 335.797 680.193C336.867 676.699 341.226 672.82 349.945 669.395C358.363 666.088 369.644 663.686 382.239 662.339C407.49 659.639 436.79 661.301 456.722 667.405Z" fill="#87CFE5" stroke="#0178B2" stroke-width="9"/>
<path d="M486.706 709.385C485.289 756.037 447.954 750.13 406.598 737.464C365.242 724.799 342.798 714.64 339.061 705.83C326.994 695.564 382.829 718.087 413.702 724.257C504.63 752.105 478.893 659.96 486.706 709.385Z" fill="#31A7BA"/>
</g>
<g clip-path="url(#clip2_471_2424)">
<path d="M634 704.454C616.9 697.518 605.495 699.126 597.512 703.996C589.241 709.043 583.652 718.171 579.569 728.239C575.348 738.645 572.909 746.991 577.255 755.631C581.799 764.663 594.365 775.247 624.592 787.508C645.344 795.925 660.664 800.986 672.089 803.572C683.588 806.174 690.688 806.158 695.25 804.906C699.489 803.742 701.89 801.414 703.825 798.055C704.846 796.282 705.724 794.235 706.642 791.86C707.504 789.629 708.511 786.803 709.565 784.204C710.877 780.97 710.156 775.539 706.174 767.917C702.329 760.558 695.987 752.214 688.126 743.896C672.364 727.221 651.266 711.457 634 704.454Z" fill="#87CFE5" stroke="#0178B2" stroke-width="9"/>
<path d="M588.813 718.448C562.457 754.16 591.561 771.412 627.386 785.944C663.211 800.475 684.577 805.904 692.305 801.484C706.607 800.811 655.063 785.247 630.244 771.943C551.477 739.994 623.133 686.018 588.813 718.448Z" fill="#31A7BA"/>
</g>
<path d="M585.5 366.001C687.975 366.001 771 448.407 771 550.001C771 651.595 687.975 734.001 585.5 734.001C483.025 734.001 400 651.595 400 550.001C400 448.407 483.025 366.001 585.5 366.001Z" fill="#86D0E3" stroke="#0C74AB" stroke-width="7"/>
<path d="M712.501 678.001C678.001 717.001 614.001 732.501 589.001 730.001C482.001 736.001 401.501 641.896 404.001 548.501C405.566 490.001 391.001 628.001 530.001 687.001C604.501 724.501 712.501 678.001 712.501 678.001Z" fill="#37B4CA"/>
<path d="M541.268 449.571C566.835 443.374 594.099 461.88 601.179 491.094C605.175 507.577 604.85 521.636 599.584 532.477C594.392 543.166 584.125 551.272 566.928 555.44C541.457 561.614 515.773 543.34 508.551 513.545C501.33 483.749 515.797 455.744 541.268 449.571Z" fill="#FEFEFE" stroke="#0F79AB" stroke-width="6"/>
<path d="M632.876 426.614C645.448 423.567 658.618 427.138 669.771 435.681C680.921 444.221 689.862 457.612 693.757 473.683C698.145 491.787 698.187 507.271 693.119 519.133C688.135 530.799 678.058 539.314 661.184 543.404C648.616 546.45 635.872 542.916 625.13 534.374C614.377 525.824 605.787 512.342 601.818 495.968C597.849 479.593 599.313 463.675 604.958 451.149C610.597 438.637 620.308 429.661 632.876 426.614Z" fill="#FEFEFE" stroke="#0F79AB" stroke-width="6"/>
<path d="M604.025 577.292C599.468 562.336 601.161 553.051 609.504 535.348" stroke="#0082AA" stroke-width="7" stroke-linecap="round"/>
<path d="M617.387 551.937C628.497 549.244 635.263 537.817 632.499 526.414C629.735 515.012 618.488 507.951 607.378 510.644C596.268 513.337 589.502 524.763 592.266 536.166C595.03 547.569 606.277 554.63 617.387 551.937Z" fill="#ED6F7A"/>
<path d="M638.254 484.464C640.407 493.347 635.539 502.151 626.702 504.293C617.864 506.435 608.954 500.971 606.801 492.088C604.648 483.205 610.067 474.268 618.905 472.126C629.325 471.729 636.012 475.216 638.254 484.464Z" fill="#2B2A28"/>
<path d="M568.315 508.981C576.969 507.063 582.355 498.153 580.344 489.082C578.333 480.011 569.686 474.212 561.032 476.131C552.378 478.05 546.992 486.959 549.004 496.03C551.015 505.102 559.661 510.9 568.315 508.981Z" fill="#2B2A28"/>
<path opacity="0.77" d="M517.518 411.878L529.37 401.572L544.887 392.472L553.167 389.64L560.53 388.808L563.625 393.158L566.089 397.935L567.099 404.614L557.493 405.581L542.735 410.488L532.559 414.601L521.909 421.334L518.465 415.839L517.518 411.878Z" fill="#004F80"/>
<path opacity="0.7" d="M596.669 407.877L602.539 400.662L609.487 395.074L618.247 390.21L629.919 384.718L640.971 380.971L647.094 388.201L637.348 395.26L626.502 403.672L618.453 410.613L613.317 416.926L607.446 424.141L600.705 418.655L596.99 413.384L596.669 407.877Z" fill="#014C83"/>
<path d="M698.164 552.924L698.081 553.12L698.116 553.302C699.312 559.398 670.205 579.352 647.782 600.632C619.274 615.501 629.921 613.61 598.187 617.302C567.141 614.77 563.928 611.855 554.891 604.925C550.331 601.428 543.521 592.21 541.732 589.37C541.135 588.421 534.856 566.299 534.341 565.528C538.565 565.879 560.124 571.993 565.873 572.228C589.59 573.193 589.066 575.329 617.595 572.344C648.203 566.293 650.875 571.473 664.349 563.604C667.733 561.627 693.12 555.927 695.443 554.483C696.505 553.824 696.586 555.916 697.384 555.431C697.363 555.482 698.186 552.87 698.164 552.924Z" fill="#D20223" stroke="#076FA2" stroke-width="6"/>
<path d="M581.712 613.309C572.989 615.204 565.206 613.11 556.828 607.498C548.716 602.065 542.588 591.748 547.47 589.058C560.939 588.788 572.453 590.191 584.902 609.55C586.046 611.6 586.529 613.146 581.712 613.309Z" fill="#FF1863"/>
<path d="M648.504 567.859L648.44 567.874L648.372 567.883L638.522 569.156L638.465 569.163L638.409 569.166L629.845 569.589L629.81 569.591L623.059 569.588L623 586.406L623.343 589.38L626.623 592.108L629.657 593.622L634.037 594.02L638.06 594.022L642.385 592.85L646.766 590.086L651.194 585.3L654.088 578.369L656.176 571.389L656.195 566.124L648.504 567.859Z" fill="#FEFEFE" stroke="#0875A4" stroke-width="3"/>
<path d="M593.135 572.848L593.201 572.853L593.267 572.852L604.243 572.745L604.3 572.744L604.357 572.739L613.797 571.895L613.833 571.892L621.368 570.839L623.95 589.416L624.018 592.795L620.779 596.344L617.643 598.49L612.872 599.602L608.44 600.222L603.491 599.594L598.245 597.214L592.65 592.617L588.433 585.432L585.1 578.078L584.27 572.105L593.135 572.848Z" fill="#FEFEFE" stroke="#0578A5" stroke-width="3"/>
<path d="M885.377 456.665L885.184 448.274L883.207 441.978L879.873 435.991L876.211 432.916L878.928 438.717L879.577 440.105L867.592 433.524L416.216 640.428L427.087 664.609L878.358 467.273L882.106 462.622L885.377 456.665Z" fill="#D3B256" stroke="#F1CD51"/>
<path d="M428.475 653.492L870.131 448.985" stroke="#F1CD51" stroke-width="21" stroke-linecap="round"/>
<path d="M426.588 666.768L417.906 637.194L372.562 657.617L376.169 606.645L370.703 599.828L364.042 596.171L348.869 589.271L328.07 578.805L310.926 578.456L313.735 587.154L356.194 610.466L358.17 618.707L355.407 627.685L312.372 607.396L304.601 612.67L305.932 619.126L350.888 643.809L351.914 657.729L346.681 667.26L304.52 650.312L297.754 653.754L301.396 662.909L342.606 685.535L344.194 695.471L341.028 705.182L321.345 700.577L301.822 692.72L296.105 697.213L300.148 705.635L334.756 724.636L336.258 732.617L333.482 740.634L315.222 734.424L295.74 729.452L290.626 732.846L294.025 739.483L312.743 748.806L330.185 755.52L330.482 761.885L327.665 767.017L311.929 764.102L290.352 757.025L283.157 759.276L285.522 765.822L315.493 782.278L343.739 779.182L370.788 692.422L426.588 666.768Z" fill="#B8BDC6"/>
<path d="M331.92 771.766C319.308 776.307 311.423 774.649 295.884 764.384" stroke="#B7B6AF" stroke-width="6" stroke-linecap="round"/>
<path d="M371.753 615.67C366.324 601.684 359.377 597.418 340.154 595.981" stroke="#B7B6AF" stroke-width="6" stroke-linecap="round"/>
<path d="M367.771 633.697C355.158 638.238 347.274 636.58 331.735 626.314" stroke="#B7B6AF" stroke-width="6" stroke-linecap="round"/>
<path d="M363.007 675.923C350.394 680.464 342.509 678.806 326.97 668.54" stroke="#B7B6AF" stroke-width="6" stroke-linecap="round"/>
<path d="M345.753 711.293C333.141 715.834 325.256 714.176 309.717 703.91" stroke="#B7B6AF" stroke-width="6" stroke-linecap="round"/>
<path d="M338.811 745.645C326.198 750.185 318.314 748.528 302.775 738.262" stroke="#B7B6AF" stroke-width="6" stroke-linecap="round"/>
<g clip-path="url(#clip3_471_2424)">
<path d="M423.545 514.797C429.144 513.322 431.995 514.219 433.928 515.979C436.28 518.12 437.992 522.141 439.51 528.46C442.402 540.505 444.225 559.718 451.919 579.335L452.031 579.62L452.196 579.879C460.676 593.195 468.167 605.1 471.695 616.432C475.08 627.304 474.706 637.3 468.063 647.283C455.449 654.625 445.035 657.74 436.483 658.013C427.838 658.288 420.774 655.673 414.923 651.052C402.987 641.625 396.077 623.807 392.68 605.347L392.654 605.205L392.615 605.068C387.889 588.166 390.718 567.36 397.483 549.637C400.854 540.808 405.148 532.892 409.818 526.735C414.471 520.604 419.242 516.553 423.545 514.797Z" fill="#87CFE5" stroke="#0076B8" stroke-width="7"/>
<path d="M443.251 619.816C443.207 619.529 443.034 619.272 442.781 619.098C442.528 618.926 442.216 618.851 441.903 618.893C441.589 618.934 441.296 619.089 441.077 619.326C440.858 619.562 440.731 619.859 440.735 620.151C440.744 620.779 440.756 621.388 440.776 622.014C440.691 633.179 444.887 644.741 451.919 653.662C452.302 654.178 452.669 654.666 453.062 655.176C455.056 653.617 457.051 652.057 459.046 650.498C458.612 650.068 458.203 649.659 457.779 649.226C450.069 641.695 445.066 632.472 443.541 621.608C443.438 621.007 443.343 620.422 443.251 619.816Z" fill="#0074AB"/>
<path d="M418.565 628.36C418.491 628.075 418.288 627.83 418.013 627.675C417.738 627.52 417.413 627.467 417.098 627.533C416.782 627.598 416.497 627.776 416.291 628.03C416.085 628.285 415.975 628.594 415.999 628.888C416.045 629.423 416.09 629.929 416.143 630.464C416.828 639.89 420.034 649.453 424.393 657.799C424.631 658.277 424.858 658.733 425.098 659.208C425.524 660.059 426.298 660.666 427.291 660.872C428.281 661.08 429.408 660.87 430.384 660.312C431.361 659.755 432.094 658.901 432.382 657.964C432.672 657.024 432.494 656.078 431.927 655.309C431.617 654.886 431.32 654.483 431.014 654.061C425.439 646.658 421.225 638.878 418.959 629.852C418.823 629.347 418.695 628.868 418.565 628.36Z" fill="#007BA4"/>
</g>
<g clip-path="url(#clip4_471_2424)">
<path d="M749.852 431.095C744.201 431.253 741.81 433.026 740.528 435.409C738.968 438.309 738.558 442.947 739.007 449.885C739.861 463.11 743.825 483.372 742.439 505.803L742.419 506.128L742.342 506.443C738.366 522.643 734.897 537.097 734.95 549.78C735.001 561.949 738.295 572.095 747.425 580.358C761.34 584.125 771.959 584.211 780.006 581.937C788.14 579.638 793.951 574.845 798.04 568.355C806.38 555.115 807.566 534.766 805.29 514.806L805.272 514.653L805.268 514.5C804.69 495.743 795.923 475.235 784.398 459.067C778.655 451.013 772.323 444.171 766.157 439.248C760.017 434.345 754.378 431.612 749.852 431.095Z" fill="#87CFE5" stroke="#0076B8" stroke-width="7"/>
<path d="M762.445 544.758C762.401 544.451 762.487 544.136 762.671 543.882C762.855 543.629 763.124 543.459 763.428 543.409C763.733 543.357 764.051 543.429 764.325 543.606C764.598 543.783 764.805 544.05 764.887 544.35C765.064 544.998 765.232 545.627 765.398 546.275C768.768 557.708 768.266 570.827 764.344 582.082C764.139 582.726 763.942 583.337 763.726 583.977C761.408 582.973 759.09 581.968 756.772 580.964C757.05 580.393 757.311 579.851 757.578 579.28C762.541 569.249 764.484 558.289 762.703 546.684C762.621 546.037 762.537 545.408 762.445 544.758Z" fill="#0074AB"/>
<path d="M787.959 546.154C787.944 545.84 788.061 545.527 788.271 545.286C788.482 545.045 788.769 544.894 789.082 544.867C789.395 544.839 789.713 544.937 789.981 545.137C790.247 545.336 790.441 545.621 790.505 545.93C790.619 546.493 790.727 547.026 790.835 547.59C792.975 557.468 792.807 568.24 791.206 578.107C791.125 578.669 791.048 579.204 790.964 579.764C790.818 580.764 790.276 581.618 789.412 582.126C788.551 582.635 787.439 582.756 786.365 582.476C785.291 582.195 784.357 581.538 783.812 580.663C783.265 579.785 783.152 578.76 783.453 577.801C783.618 577.275 783.775 576.773 783.936 576.248C786.948 566.986 788.581 557.743 788.031 547.803C788.009 547.244 787.988 546.715 787.959 546.154Z" fill="#007BA4"/>
</g>
</g>
<defs>
<clipPath id="clip0_471_2424">
<rect width="1100" height="850" fill="white"/>
</clipPath>
<clipPath id="clip1_471_2424">
<rect width="168.937" height="94.2303" fill="white" transform="translate(345.932 627.999) rotate(17.0279)"/>
</clipPath>
<clipPath id="clip2_471_2424">
<rect width="151" height="90" fill="white" transform="matrix(-0.926672 -0.375871 -0.375871 0.926672 733.18 739.287)"/>
</clipPath>
<clipPath id="clip3_471_2424">
<rect width="83.2007" height="147.837" fill="white" transform="translate(359 536.378) rotate(-21.4152)"/>
</clipPath>
<clipPath id="clip4_471_2424">
<rect width="81.506" height="157.667" fill="white" transform="matrix(-0.995118 -0.0986893 -0.0616742 0.998096 816.34 433.967)"/>
</clipPath>
</defs>
</svg>
