<svg width="1100" height="850" viewBox="0 0 1100 850" fill="none" xmlns="http://www.w3.org/2000/svg">
<g clip-path="url(#clip0_471_2078)">
<path d="M724.69 114.886C751.588 85.2774 776.605 77.3953 792.149 85.814C808.953 94.915 823.737 117.366 819.973 151.85C816.161 186.768 809.751 192.27 746.495 254.617L717.922 300.908L703.076 324.934C667.866 383.247 668.93 391.929 654.62 426.796C651.019 435.573 647.909 443.21 645.01 449.64C642.082 456.13 639.602 460.856 637.364 463.979C635.132 467.095 633.796 467.715 633.081 467.825C632.312 467.942 630.589 467.722 627.644 464.621L625.701 462.573L622.998 463.347C618.614 464.601 616.081 464.05 614.577 463.033C613.115 462.043 611.811 460.062 610.996 456.129C609.261 447.771 604.27 431.043 607.917 411.371C615.136 372.436 610.802 312.643 625.676 256.337C644.361 185.608 698.063 144.198 724.69 114.886Z" fill="#87CFE5" stroke="#0E6B96" stroke-width="12"/>
<path d="M299.432 85.2229C308.336 76.3905 319.375 72.0309 332.229 71.9971C345.304 71.9629 360.448 76.4334 376.777 85.8094C409.399 104.539 445.224 141.983 476.303 196.524C487.368 220.142 499.561 243.358 510.79 264.87C522.094 286.524 532.377 306.372 539.74 323.435C547.212 340.754 551.202 354.196 550.836 363.299C550.66 367.689 549.496 370.233 548.095 371.751C546.746 373.213 544.236 374.738 539.186 375.377L535.535 375.841L533.635 378.95C531.059 383.166 529.299 383.955 528.722 384.112C528.166 384.263 526.615 384.396 523.392 382.424C520.229 380.49 516.474 377.141 511.952 372.332C507.478 367.575 502.544 361.71 496.962 354.976C474.781 328.211 443.385 288.86 396.4 261.399L396.072 261.206L395.72 261.055L391.607 259.266C306.11 221.762 274.598 187.247 267.944 158.851C261.314 130.555 278.873 105.617 299.432 85.2229Z" fill="#8BCDE5" stroke="#0E6B96" stroke-width="12"/>
<g clip-path="url(#clip1_471_2078)">
<path d="M670.703 718.771C659.451 704.145 648.796 699.769 639.446 699.938C629.759 700.114 620.324 705.167 611.713 711.791C602.812 718.638 596.49 724.608 595.875 734.26C595.231 744.35 600.727 759.833 620.616 785.688C634.271 803.438 644.933 815.546 653.486 823.55C662.093 831.606 668.229 835.181 672.798 836.405C677.044 837.543 680.292 836.747 683.66 834.826C685.436 833.812 687.228 832.489 689.22 830.904C691.093 829.414 693.389 827.484 695.612 825.774C698.378 823.646 700.5 818.595 700.915 810.006C701.316 801.713 700.06 791.308 697.479 780.158C692.304 757.803 682.063 733.539 670.703 718.771Z" fill="#87CFE5" stroke="#0178B2" stroke-width="9"/>
<path d="M624.638 708.013C583.849 725.513 600.246 755.107 623.818 785.749C647.39 816.391 663.084 831.873 671.986 831.964C684.668 838.609 648.053 799.134 633.359 775.112C581.532 707.74 670.641 697.37 624.638 708.013Z" fill="#31A7BA"/>
</g>
<path d="M582.5 369C684.975 369 768 451.406 768 553C768 654.594 684.975 737 582.5 737C480.025 737 397 654.594 397 553C397 451.406 480.025 369 582.5 369Z" fill="#86D0E3" stroke="#0C74AB" stroke-width="7"/>
<path d="M709.5 681C675 720 611 735.5 586 733C479 739 398.5 644.895 401 551.5C402.566 493 388 631 527 690C601.5 727.5 709.5 681 709.5 681Z" fill="#37B4CA"/>
<path opacity="0.77" d="M530.808 412.063L544.198 406.235L560.427 402.512L568.487 402.326L575.155 403.662L576.567 408.406L577.301 413.352L576.204 419.581L567.539 417.733L553.213 417.938L543.12 418.728L531.837 421.717L530.461 415.855L530.808 412.063Z" fill="#004F80"/>
<g clip-path="url(#clip2_471_2078)">
<path d="M575.582 569.951L575.631 569.965L575.681 569.973L583.937 571.377L583.98 571.385L584.023 571.387L591.202 571.855L591.23 571.857H597V590.498L596.698 593.833L593.895 596.88L591.315 598.561L587.615 599H584.221L580.569 597.701L576.876 594.637L573.153 589.342L570.736 581.69L569 573.993V568L575.582 569.951Z" fill="#FEFEFE" stroke="#0578A5" stroke-width="3"/>
<path d="M615.848 568.62L615.783 568.637L615.714 568.648L605.742 570.118L605.684 570.126L605.628 570.129L596.957 570.603L596.921 570.605L590.087 570.585L590.027 590.345L590.374 593.84L593.694 597.054L596.767 598.84L601.2 599.32L605.273 599.332L609.652 597.967L614.088 594.731L618.571 589.12L621.5 580.984L623.615 572.788L623.634 566.602L615.848 568.62Z" fill="#FEFEFE" stroke="#0875A4" stroke-width="3"/>
<path d="M688.513 587.999C689.314 587.992 690.131 587.813 690.78 587.445C691.43 587.076 692.027 586.431 692 585.553V585.551C691.973 584.685 691.353 584.07 690.697 583.721C688.384 582.494 686.031 581.336 683.57 580.208L683.336 580.101C660.713 569.718 631.337 563.767 601.836 563.07C572.797 562.383 543.54 566.784 520.408 577.141L519.31 577.638L519.291 577.647C517.099 578.7 514.994 579.814 512.996 580.985L512.139 581.494C511.501 581.881 510.942 582.543 511.005 583.41L511.034 583.625C511.172 584.366 511.772 584.902 512.38 585.207L512.527 585.277C513.173 585.566 513.941 585.694 514.685 585.675L514.965 585.66C515.615 585.611 516.262 585.447 516.8 585.155L516.971 585.056L517.701 584.622L517.712 584.615C519.536 583.547 521.464 582.527 523.481 581.558L523.495 581.551L523.508 581.545C545.133 571.544 573.349 567.216 601.561 567.879C629.776 568.543 657.883 574.197 679.262 584.063L679.29 584.075L679.301 584.082C681.698 585.177 683.983 586.299 686.227 587.49C686.888 587.841 687.71 588.007 688.513 587.999Z" fill="#076FA2"/>
</g>
<g clip-path="url(#clip3_471_2078)">
<path d="M547.727 458.785C571.261 457.119 592.623 477.752 594.543 504.889C595.627 520.201 593.251 532.696 586.982 541.574C580.801 550.327 570.517 556.008 554.688 557.129C531.244 558.788 511.244 538.601 509.285 510.924C507.326 483.246 524.283 460.444 547.727 458.785Z" fill="#FEFEFE" stroke="#0F79AB" stroke-width="6"/>
<path d="M635.349 429.182C648.252 428.268 660.644 433.981 670.221 444.26C679.795 454.536 686.384 469.227 687.551 485.723C688.866 504.304 686.331 519.58 679.361 530.433C672.506 541.108 661.153 547.827 643.833 549.053C630.933 549.966 618.955 544.361 609.784 534.152C600.603 523.931 594.375 509.209 593.186 492.402C591.996 475.595 596.088 460.142 603.738 448.73C611.379 437.331 622.449 430.095 635.349 429.182Z" fill="#FEFEFE" stroke="#0F79AB" stroke-width="6"/>
<path d="M596.929 551.868C606.105 551.219 613.01 543.15 612.352 533.846C611.693 524.542 603.72 517.527 594.544 518.176C585.368 518.826 578.463 526.894 579.121 536.198C579.78 545.502 587.752 552.518 596.929 551.868Z" fill="#ED6F7A"/>
<path d="M625.04 487.337C625.714 496.863 620.606 504.985 613.049 505.52C605.493 506.055 598.82 498.766 598.146 489.241C597.471 479.715 603.051 471.56 610.608 471.025C619.253 472.58 624.338 477.42 625.04 487.337Z" fill="#2B2A28"/>
<path d="M569.704 509.275C577.27 508.889 583.008 500.844 582.521 491.307C582.034 481.77 575.506 474.352 567.94 474.739C560.374 475.125 554.635 483.17 555.122 492.707C555.61 502.244 562.138 509.662 569.704 509.275Z" fill="#2B2A28"/>
</g>
<path opacity="0.7" d="M613.999 392.847L621.997 392.685L629.526 394.034L637.585 396.872L647.674 401.17L656.273 405.997L654.924 413.526L644.876 411.228L633.328 408.96L624.299 407.642L617.301 407.783L609.302 407.944L609.161 400.946L610.56 395.916L613.999 392.847Z" fill="#014C83"/>
<path d="M621.84 675.712L627.93 681.487L633.791 684.52L640.389 686.372L645.151 685.941L639.12 683.781L637.678 683.264L650.792 679.395L821.994 213.306L797.176 203.984L619.257 663.257L619.917 669.194L621.84 675.712Z" fill="#D3B256" stroke="#F1CD51"/>
<path d="M804.086 212.801L638.032 670.304" stroke="#F1CD51" stroke-width="21" stroke-linecap="round"/>
<path d="M795.989 202.11L823.093 216.786L840.548 170.219L874.178 208.692L882.867 209.616L890.155 207.466L905.742 201.561L927.823 194.175L940.151 182.255L931.999 178.119L885.541 191.824L878.3 187.421L873.875 179.134L918.595 162.891L920.328 153.66L914.809 150.056L865.617 164.567L855.017 155.487L851.941 145.059L893.673 127.08L895.997 119.855L886.935 115.989L841.843 129.291L833.674 123.417L829.012 114.328L846.149 103.606L865.48 95.2872L866.319 88.0638L857.494 84.9996L819.627 96.1701L812.904 91.6135L809.172 83.9951L826.444 75.4119L843.699 65.0901L844.894 59.07L837.789 56.8059L817.985 63.52L800.931 71.1666L796.205 66.8932L794.548 61.2781L807.704 52.1656L827.928 41.8397L831.4 35.1478L825.088 32.2139L792.294 41.888L774.59 64.1138L817.099 144.437L795.989 202.11Z" fill="#B8BDC6"/>
<path d="M788.18 60.9521C793.845 48.8023 800.576 44.3752 818.809 40.5813" stroke="#B7B6AF" stroke-width="6" stroke-linecap="round"/>
<path d="M870.885 199.199C884.635 205.201 892.557 203.277 907.121 190.648" stroke="#B7B6AF" stroke-width="6" stroke-linecap="round"/>
<path d="M860.898 183.672C866.563 171.523 873.294 167.095 891.527 163.302" stroke="#B7B6AF" stroke-width="6" stroke-linecap="round"/>
<path d="M834.291 150.541C839.955 138.391 846.687 133.964 864.92 130.17" stroke="#B7B6AF" stroke-width="6" stroke-linecap="round"/>
<path d="M821.347 113.376C827.012 101.226 833.743 96.7991 851.976 93.0051" stroke="#B7B6AF" stroke-width="6" stroke-linecap="round"/>
<path d="M801.861 84.2461C807.526 72.0962 814.257 67.6692 832.49 63.8753" stroke="#B7B6AF" stroke-width="6" stroke-linecap="round"/>
<g clip-path="url(#clip4_471_2078)">
<path d="M417.092 573.303C419.277 568.963 421.89 567.761 424.708 567.65C428.138 567.514 432.874 568.919 439.579 571.848C452.359 577.43 470.987 588.049 493.681 595.311L494.01 595.416L494.349 595.473C511.806 598.401 527.355 601.075 539.887 605.832C551.91 610.396 560.768 616.733 565.667 626.911C564.4 639.142 560.673 647.44 555.534 652.858C550.339 658.334 543.51 661.075 535.62 661.845C519.524 663.414 498.962 656.771 480.028 647.578L479.883 647.507L479.733 647.447C461.379 640.023 444.232 625.574 432.371 610.592C426.462 603.128 421.965 595.655 419.307 589.026C416.659 582.423 415.979 577.018 417.092 573.303Z" fill="#87CFE5" stroke="#0076B8" stroke-width="7"/>
<path d="M525.048 625.365C524.759 625.217 524.416 625.166 524.099 625.215C523.783 625.265 523.518 625.411 523.359 625.629C523.198 625.847 523.155 626.122 523.232 626.401C523.309 626.679 523.499 626.939 523.767 627.115C524.344 627.493 524.906 627.858 525.488 628.228C535.592 635.102 548.754 639.589 561.3 640.721C562.01 640.801 562.685 640.874 563.397 640.945C563.235 638.767 563.073 636.589 562.911 634.412C562.246 634.416 561.617 634.418 560.955 634.413C549.247 634.546 537.705 631.983 526.86 626.282C526.25 625.978 525.657 625.679 525.048 625.365Z" fill="#0074AB"/>
<path d="M517.269 645.744C516.964 645.615 516.613 645.59 516.298 645.664C515.985 645.739 515.732 645.906 515.593 646.139C515.453 646.373 515.435 646.657 515.537 646.939C515.639 647.221 515.851 647.477 516.134 647.642C516.65 647.941 517.138 648.223 517.658 648.517C526.664 653.855 537.384 657.729 547.723 660.151C548.308 660.297 548.865 660.436 549.45 660.58C550.492 660.838 551.531 660.733 552.345 660.25C553.157 659.768 553.676 658.948 553.784 658.008C553.892 657.068 553.577 656.096 552.906 655.347C552.234 654.594 551.26 654.125 550.204 654.004C549.623 653.936 549.07 653.872 548.493 653.802C538.247 652.702 528.514 650.536 518.875 646.413C518.33 646.188 517.814 645.975 517.269 645.744Z" fill="#007BA4"/>
</g>
<path d="M381.013 639.35C389.28 637.035 399.188 637.322 409.792 639.783C420.357 642.235 431.356 646.785 441.672 652.692C462.471 664.601 479.694 681.547 485.285 696.819C489.167 707.419 489.447 720.644 486.906 732.132C485.641 737.856 483.708 742.993 481.306 747.062C480.036 749.212 478.677 750.991 477.271 752.403C476.912 750.517 476.594 748.33 476.168 745.654C475.28 740.074 474.01 732.985 471.179 724.751C465.498 708.225 453.667 687.462 426.652 664.422L426.321 664.139L425.927 663.943C411.245 656.671 400.215 651.241 392.147 647.125C385.828 643.901 381.477 641.556 378.66 639.818C379.275 639.697 379.941 639.57 380.66 639.433L380.839 639.399L381.013 639.35Z" fill="#91E1E6" stroke="#0082AA" stroke-width="8"/>
<path d="M485.6 721.935C486.224 731.7 484.372 727.655 483.891 734.847C481.073 708.946 489.122 734.972 479.492 744.494C479.867 745.23 478.029 735.508 473.987 725.514C480.28 698.23 483.221 684.691 485.6 721.935Z" fill="#2FC7CE"/>
<path d="M356.79 654.984C356.434 649.242 357.902 645.826 360.675 644.107L360.78 644.041L360.879 643.967C364.284 641.447 369.413 640.327 376.038 640.878C382.627 641.425 390.363 643.605 398.555 647.265C414.939 654.585 432.668 667.608 445.994 684.191C459.423 700.902 468.386 718.376 471.941 733.049C475.553 747.959 473.382 758.857 466.416 764.015C459.428 769.188 448.061 768.542 434.174 761.56C420.5 754.685 405.372 742.092 391.949 725.401C381.138 710.663 369.549 692.074 362.715 675.992C359.283 667.915 357.143 660.683 356.79 654.984Z" fill="#2FC7CE" stroke="#0082AA" stroke-width="6"/>
<path d="M704.524 597.993C700.493 595.888 699.452 593.081 699.451 589.965C699.451 586.174 700.96 580.822 703.986 573.179C709.755 558.608 713.408 548.522 721.138 522.841L721.735 513.036L722.234 502.74C725.662 483.18 688.289 496.852 691.145 466.059C695.92 452.402 699.774 392.504 755.052 424.322C773.811 443.528 774.204 444.437 777.681 450.915C781.734 458.466 784.048 462.902 784.527 472.493C785.412 490.217 784.746 499.197 777.268 522.829L777.195 522.995L777.132 523.166C769.411 544.047 755.076 564.104 740.434 578.341C733.139 585.435 725.889 590.963 719.507 594.393C713.151 597.809 708.003 598.956 704.524 597.993Z" fill="#87CFE5" stroke="#0076B8" stroke-width="7"/>
<path d="M727.294 469.939C727.542 470.119 727.858 470.208 728.164 470.197C728.47 470.184 728.742 470.071 728.927 469.874C729.112 469.678 729.196 469.412 729.167 469.128C729.138 468.845 728.999 468.567 728.775 468.362C728.289 467.923 727.817 467.499 727.326 467.066C718.879 459.124 707.174 453.181 695.526 450.617C694.869 450.456 694.244 450.306 693.585 450.154C693.397 452.32 693.208 454.485 693.02 456.651C693.647 456.723 694.241 456.794 694.864 456.876C705.92 458.095 716.399 461.954 725.728 468.826C726.256 469.196 726.768 469.56 727.294 469.939Z" fill="#0074AB"/>
<path d="M736.208 446.574C736.398 446.771 736.666 446.887 736.946 446.906C737.225 446.923 737.494 446.841 737.699 446.67C737.904 446.5 738.032 446.253 738.061 445.977C738.09 445.702 738.019 445.422 737.855 445.204C737.501 444.735 737.156 444.281 736.796 443.818C730.697 435.371 721.26 428.529 711.218 424.935C710.655 424.717 710.118 424.512 709.551 424.303C708.959 426.364 708.368 428.425 707.776 430.486C708.33 430.617 708.853 430.743 709.401 430.881C719.17 433.126 727.902 437.849 735.008 445.353C735.414 445.76 735.806 446.159 736.208 446.574Z" fill="#0074AB"/>
</g>
<defs>
<clipPath id="clip0_471_2078">
<rect width="1100" height="850" fill="white"/>
</clipPath>
<clipPath id="clip1_471_2078">
<rect width="151" height="90" fill="white" transform="matrix(-0.609731 -0.792609 -0.792609 0.609731 738.688 798.946)"/>
</clipPath>
<clipPath id="clip2_471_2078">
<rect width="179" height="56" fill="white" transform="translate(506 552)"/>
</clipPath>
<clipPath id="clip3_471_2078">
<rect width="185.42" height="127.952" fill="white" transform="translate(501 436.091) rotate(-4.04858)"/>
</clipPath>
<clipPath id="clip4_471_2078">
<rect width="69.4239" height="167.165" fill="white" transform="translate(396.066 626.122) rotate(-72.2575)"/>
</clipPath>
</defs>
</svg>
