<svg width="1100" height="850" viewBox="0 0 1100 850" fill="none" xmlns="http://www.w3.org/2000/svg">
<g clip-path="url(#clip0_471_2257)">
<path d="M550.005 103.458C562.739 65.5375 582.481 48.2676 600.098 49.7313C619.143 51.3136 641.702 65.9325 652.11 99.0226C662.65 132.53 658.991 140.144 626.116 222.652L618.551 276.523L614.61 304.49C605.797 372.036 610.26 379.559 611.165 417.237C611.394 426.721 611.615 434.964 611.544 442.017C611.471 449.137 611.098 454.461 610.303 458.22C609.512 461.97 608.537 463.075 607.927 463.463C607.269 463.879 605.604 464.37 601.66 462.713L599.059 461.619L596.894 463.414C593.384 466.323 590.843 466.836 589.057 466.509C587.321 466.19 585.33 464.9 583.004 461.627C578.057 454.67 566.764 441.357 562.2 421.877C553.166 383.323 525.173 330.31 516.17 272.773C504.861 200.497 537.399 140.999 550.005 103.458Z" fill="#87CFE5" stroke="#0E6B96" stroke-width="12"/>
<path d="M274.21 109.052C283.335 100.449 294.482 96.3703 307.332 96.6627C320.404 96.9602 335.43 101.813 351.516 111.601C383.652 131.152 418.515 169.492 448.201 224.804C458.663 248.696 470.264 272.214 480.943 294.003C491.694 315.937 501.47 336.039 508.398 353.283C515.428 370.787 519.076 384.326 518.48 393.417C518.192 397.801 516.964 400.314 515.524 401.796C514.139 403.223 511.591 404.684 506.527 405.195L502.865 405.566L500.887 408.626C498.204 412.775 496.425 413.52 495.845 413.662C495.285 413.799 493.731 413.892 490.559 411.839C487.446 409.825 483.777 406.383 479.378 401.46C475.026 396.591 470.243 390.603 464.834 383.729C443.339 356.411 412.951 316.276 366.678 287.631L366.355 287.431L366.007 287.27L361.941 285.378C277.423 245.717 246.796 210.413 240.865 181.857C234.954 153.403 253.14 128.918 274.21 109.052Z" fill="#8BCDE5" stroke="#0E6B96" stroke-width="12"/>
<g clip-path="url(#clip1_471_2257)">
<path d="M657.473 718.179C645.464 704.169 634.593 700.363 625.265 701.026C615.601 701.715 606.446 707.26 598.197 714.33C589.671 721.638 583.674 727.934 583.57 737.605C583.461 747.715 589.768 762.886 610.997 787.652C625.572 804.655 636.86 816.182 645.824 823.723C654.846 831.311 661.162 834.557 665.789 835.538C670.09 836.45 673.291 835.483 676.552 833.386C678.273 832.28 679.992 830.864 681.898 829.176C683.688 827.589 685.879 825.54 688.009 823.715C690.658 821.444 692.51 816.287 692.471 807.688C692.432 799.385 690.627 789.061 687.46 778.063C681.11 756.014 669.599 732.326 657.473 718.179Z" fill="#87CFE5" stroke="#0178B2" stroke-width="9"/>
<path d="M610.904 709.873C571.097 729.506 589.037 758.192 614.197 787.544C639.357 816.896 655.849 831.526 664.743 831.146C677.759 837.111 639.107 799.627 623.162 776.416C567.843 711.881 656.28 696.812 610.904 709.873Z" fill="#31A7BA"/>
</g>
<path d="M585.501 366.001C687.976 366.001 771.001 448.407 771.001 550.001C771.001 651.595 687.976 734.001 585.501 734.001C483.026 734.001 400.001 651.595 400.001 550.001C400.001 448.407 483.026 366.001 585.501 366.001Z" fill="#86D0E3" stroke="#0C74AB" stroke-width="7"/>
<path d="M712.501 678.001C678.001 717.001 614.001 732.501 589.001 730.001C482.001 736.001 401.501 641.896 404.001 548.501C405.567 490.001 391.001 628.001 530.001 687.001C604.501 724.501 712.501 678.001 712.501 678.001Z" fill="#37B4CA"/>
<path opacity="0.77" d="M547.315 386.918L559.167 376.613L574.684 367.513L582.964 364.681L590.327 363.848L593.423 368.198L595.886 372.975L596.896 379.654L587.29 380.622L572.532 385.529L562.356 389.641L551.706 396.375L548.262 390.879L547.315 386.918Z" fill="#004F80"/>
<path d="M575.261 433.975C599.546 423.857 629.367 437.872 640.928 465.62C647.452 481.276 649.329 495.213 645.823 506.744C642.365 518.114 633.492 527.725 617.159 534.53C592.966 544.61 564.741 530.577 552.95 502.278C541.158 473.977 551.069 444.055 575.261 433.975Z" fill="#FEFEFE" stroke="#0F79AB" stroke-width="6"/>
<path d="M662.154 396.978C674.095 392.003 687.66 393.471 700.013 400.165C712.361 406.857 723.285 418.685 729.645 433.95C736.81 451.145 739.272 466.432 736.121 478.94C733.022 491.242 724.401 501.228 708.373 507.906C696.436 512.879 683.296 511.381 671.351 504.624C659.393 497.86 648.801 485.887 642.321 470.334C635.84 454.782 634.798 438.83 638.415 425.576C642.028 412.337 650.217 401.952 662.154 396.978Z" fill="#FEFEFE" stroke="#0F79AB" stroke-width="6"/>
<path d="M651.001 550.256C658.108 536.329 658.069 526.891 652.958 508" stroke="#0082AA" stroke-width="7" stroke-linecap="round"/>
<path d="M666.449 523.181C677.002 518.785 681.898 506.44 677.385 495.61C672.873 484.78 660.66 479.564 650.108 483.961C639.555 488.358 634.659 500.702 639.172 511.532C643.684 522.363 655.897 527.578 666.449 523.181Z" fill="#ED6F7A"/>
<path d="M676.51 453.276C680.025 461.713 676.594 471.169 668.2 474.667C659.806 478.164 650.151 474.16 646.636 465.724C643.12 457.287 647.076 447.612 655.47 444.114C665.699 442.093 672.85 444.492 676.51 453.276Z" fill="#2B2A28"/>
<path d="M611.265 488.426C619.513 485.178 623.439 475.537 620.034 466.891C616.629 458.246 607.183 453.87 598.935 457.119C590.687 460.367 586.761 470.008 590.166 478.654C593.57 487.299 603.017 491.675 611.265 488.426Z" fill="#2B2A28"/>
<path opacity="0.7" d="M625.67 394.877L631.54 387.662L638.488 382.074L647.248 377.21L658.92 371.718L669.973 367.971L676.095 375.201L666.35 382.26L655.503 390.672L647.454 397.613L642.318 403.926L636.448 411.141L629.706 405.655L625.991 400.384L625.67 394.877Z" fill="#014C83"/>
<path d="M369.732 576.432C378.905 574.626 389.751 575.984 401.251 579.896C412.711 583.795 424.556 590.141 435.596 597.97C457.826 613.734 476.033 634.949 481.558 653.162C485.396 665.816 485.144 681.099 481.864 694.082C480.228 700.555 477.878 706.302 475.039 710.779C473.402 713.36 471.659 715.43 469.871 716.985C469.855 716.88 469.838 716.773 469.821 716.664C469.48 714.367 469.213 711.697 468.84 708.424C468.104 701.969 467.016 693.778 464.283 684.126C458.799 664.761 446.798 639.884 418.301 610.81L417.982 610.484L417.595 610.242C401.867 600.418 390.046 593.075 381.405 587.539C373.709 582.607 368.729 579.227 365.799 576.88C366.83 576.754 368.013 576.627 369.365 576.487L369.549 576.468L369.732 576.432Z" fill="#91E1E6" stroke="#0082AA" stroke-width="8"/>
<path d="M480.503 682.153C480.778 693.38 478.924 688.565 478.099 696.737C476.101 666.839 483.805 697.419 472.894 707.312C473.272 708.192 471.671 696.889 467.673 685.05C475.681 654.507 479.456 639.334 480.503 682.153Z" fill="#2FC7CE"/>
<path d="M342.314 592.166C342.162 585.441 343.95 581.631 347.067 579.941L347.184 579.878L347.294 579.805C351.128 577.267 356.809 576.504 364.084 577.826C371.31 579.14 379.718 582.45 388.552 587.5C406.214 597.596 425.109 614.377 439.033 634.796C453.043 655.342 462.145 676.325 465.435 693.564C467.081 702.188 467.244 709.727 465.955 715.749C464.672 721.745 461.996 726.069 458.067 728.67C450.184 733.889 437.683 731.973 422.686 722.484C407.948 713.159 391.883 697.129 377.876 676.598C366.669 658.612 354.759 636.121 347.944 616.97C344.522 607.356 342.465 598.799 342.314 592.166Z" fill="#2FC7CE" stroke="#0082AA" stroke-width="6"/>
<path d="M554.863 564.806L554.991 564.977L555 565.161C555.295 571.366 588.326 583.79 615.184 599.096C646.419 606.725 635.628 607.431 667.325 603.435C696.867 593.56 699.291 589.962 706.411 581.073C710.003 576.589 714.414 566.011 715.472 562.825C715.826 561.761 716.638 538.779 716.954 537.908C712.936 539.258 693.462 550.346 687.935 551.947C665.136 558.55 666.155 560.499 637.738 564.416C606.572 565.852 605.214 571.521 590.251 567.098C586.492 565.987 560.478 566.517 557.877 565.67C556.69 565.283 557.11 567.334 556.219 567.054C556.252 567.099 554.829 564.759 554.863 564.806Z" fill="#D20223" stroke="#076FA2" stroke-width="6"/>
<path d="M682.369 595.623C691.292 595.379 698.349 591.486 705.145 584.035C711.724 576.821 715.21 565.339 709.826 563.894C696.682 566.849 685.837 570.962 678.374 592.734C677.753 594.999 677.653 596.615 682.369 595.623Z" fill="#FF1863"/>
<path d="M606.653 567.445L606.719 567.444L606.786 567.437L616.656 566.32L616.713 566.313L616.768 566.302L625.185 564.667L625.22 564.66L631.774 563.045L635.849 579.362L636.227 582.332L633.694 585.765L631.109 587.959L626.951 589.392L623.045 590.355L618.565 590.25L613.651 588.613L608.208 585.023L603.742 578.985L600.046 572.705L598.77 567.598L606.653 567.445Z" fill="#FEFEFE" stroke="#0875A4" stroke-width="3"/>
<path d="M661.611 559.062L661.548 559.083L661.483 559.098L650.799 561.616L650.744 561.629L650.688 561.637L641.32 563.073L641.284 563.078L633.716 563.856L635.647 582.512L636.388 585.809L640.381 588.482L643.938 589.816L648.837 589.757L653.288 589.3L657.944 587.508L662.47 583.944L666.805 578.143L669.183 570.158L670.663 562.221L670.042 556.223L661.611 559.062Z" fill="#FEFEFE" stroke="#0578A5" stroke-width="3"/>
<path d="M403.816 494.495L397.981 500.527L394.89 506.358L392.972 512.936L393.356 517.702L395.576 511.694L396.107 510.256L399.845 523.408L864.209 699.238L873.778 674.513L416.297 492.036L410.353 492.637L403.816 494.495Z" fill="#D3B256" stroke="#F1CD51"/>
<path d="M864.893 681.336L409.064 510.739" stroke="#F1CD51" stroke-width="21" stroke-linecap="round"/>
<path d="M875.665 673.352L860.721 700.309L907.112 718.226L868.306 751.471L867.295 760.151L869.372 767.46L875.123 783.104L882.289 805.258L894.086 817.704L898.302 809.594L885.06 763.001L889.535 755.805L897.865 751.463L913.663 796.341L922.876 798.166L926.535 792.683L912.513 743.35L921.699 732.84L932.157 729.868L949.719 771.777L956.921 774.173L960.878 765.15L948.025 719.928L953.98 711.817L963.114 707.246L973.666 724.489L981.792 743.901L989.006 744.813L992.158 736.018L981.365 698.042L985.988 691.365L993.643 687.708L1002.05 705.065L1012.2 722.422L1018.21 723.676L1020.55 716.595L1014.03 696.725L1006.55 679.596L1010.87 674.912L1016.5 673.312L1025.49 686.557L1035.61 706.883L1042.27 710.422L1045.26 704.139L1035.92 671.251L1013.87 653.327L933.125 695.035L875.665 673.352Z" fill="#B8BDC6"/>
<path d="M1016.89 666.947C1028.99 672.732 1033.35 679.507 1036.96 697.777" stroke="#B7B6AF" stroke-width="6" stroke-linecap="round"/>
<path d="M877.83 748.273C871.692 761.963 873.537 769.904 886.02 784.592" stroke="#B7B6AF" stroke-width="6" stroke-linecap="round"/>
<path d="M893.456 738.441C905.549 744.226 909.909 751.002 913.521 769.271" stroke="#B7B6AF" stroke-width="6" stroke-linecap="round"/>
<path d="M926.851 712.164C938.944 717.949 943.303 724.724 946.916 742.994" stroke="#B7B6AF" stroke-width="6" stroke-linecap="round"/>
<path d="M964.143 699.591C976.235 705.376 980.595 712.151 984.208 730.421" stroke="#B7B6AF" stroke-width="6" stroke-linecap="round"/>
<path d="M993.464 680.396C1005.56 686.181 1009.92 692.956 1013.53 711.226" stroke="#B7B6AF" stroke-width="6" stroke-linecap="round"/>
<g clip-path="url(#clip2_471_2257)">
<path d="M424.797 447.909C429.392 446.369 431.795 446.918 433.467 448.219C435.503 449.804 437.079 452.946 438.581 457.957C441.444 467.509 443.691 482.919 450.832 498.293L450.935 498.515L451.082 498.714C458.635 508.947 465.312 518.101 468.676 527.038C471.903 535.612 471.973 543.711 466.836 552.19C456.637 558.904 448.105 562.067 441.011 562.818C433.84 563.576 427.871 561.902 422.834 558.532C412.559 551.655 406.139 537.688 402.612 522.984L402.585 522.871L402.547 522.762C397.976 509.4 399.532 492.413 404.476 477.675C406.939 470.332 410.204 463.67 413.849 458.406C417.48 453.163 421.289 449.594 424.797 447.909Z" fill="#87CFE5" stroke="#0076B8" stroke-width="7"/>
<path d="M445.175 531.537C445.127 531.308 444.974 531.111 444.757 530.986C444.54 530.863 444.278 530.821 444.02 530.875C443.761 530.927 443.523 531.071 443.35 531.276C443.177 531.48 443.083 531.728 443.097 531.963C443.129 532.47 443.162 532.962 443.202 533.467C443.558 542.492 447.485 551.574 453.668 558.345C454.005 558.738 454.329 559.11 454.674 559.498C456.272 558.114 457.87 556.73 459.468 555.347C459.09 555.026 458.735 554.722 458.366 554.397C451.674 548.791 447.165 541.65 445.484 532.967C445.376 532.488 445.275 532.021 445.175 531.537Z" fill="#0074AB"/>
<path d="M424.993 539.971C424.921 539.746 424.743 539.56 424.509 539.452C424.274 539.344 424.003 539.322 423.743 539.394C423.483 539.466 423.253 539.628 423.092 539.846C422.93 540.064 422.851 540.321 422.882 540.558C422.941 540.987 422.997 541.393 423.062 541.822C423.99 549.395 427.019 556.922 430.958 563.395C431.174 563.767 431.38 564.121 431.598 564.49C431.984 565.151 432.651 565.593 433.483 565.698C434.314 565.805 435.242 565.565 436.032 565.054C436.822 564.543 437.398 563.808 437.602 563.033C437.807 562.256 437.623 561.502 437.122 560.916C436.848 560.593 436.587 560.286 436.316 559.964C431.403 554.329 427.605 548.304 425.378 541.152C425.246 540.753 425.121 540.374 424.993 539.971Z" fill="#007BA4"/>
</g>
<g clip-path="url(#clip3_471_2257)">
<path d="M774.84 526.851C769.619 525.929 767.044 527.028 765.357 528.87C763.304 531.111 761.934 535.086 760.859 541.232C758.811 552.947 758.108 571.395 752.03 590.733L751.942 591.013L751.804 591.274C744.684 604.681 738.403 616.658 735.735 627.75C733.174 638.391 734.024 647.874 740.634 656.807C752.599 662.711 762.327 664.779 770.2 664.303C778.159 663.821 784.519 660.724 789.662 655.821C800.154 645.819 805.602 628.262 807.789 610.396L807.806 610.259L807.835 610.125C811.323 593.628 807.669 574.064 800.554 557.775C797.01 549.66 792.663 542.493 788.059 537.035C783.473 531.598 778.883 528.152 774.84 526.851Z" fill="#87CFE5" stroke="#0076B8" stroke-width="7"/>
<path d="M762.046 628.523C762.072 628.247 762.218 627.987 762.441 627.8C762.665 627.614 762.948 627.516 763.238 627.529C763.528 627.541 763.805 627.663 764.019 627.869C764.232 628.075 764.364 628.347 764.375 628.625C764.399 629.224 764.418 629.805 764.432 630.403C765.076 641.024 761.804 652.392 755.793 661.49C755.467 662.014 755.155 662.51 754.82 663.03C752.908 661.717 750.995 660.404 749.083 659.091C749.461 658.645 749.816 658.221 750.184 657.771C756.888 649.939 761.019 640.728 761.87 630.254C761.934 629.674 761.992 629.109 762.046 628.523Z" fill="#0074AB"/>
<path d="M785.166 634.532C785.22 634.255 785.394 634.004 785.639 633.832C785.884 633.662 786.179 633.583 786.473 633.618C786.766 633.653 787.037 633.798 787.24 634.023C787.441 634.247 787.558 634.532 787.551 634.814C787.535 635.328 787.52 635.813 787.499 636.327C787.346 645.358 784.884 654.739 781.301 663.059C781.106 663.534 780.921 663.988 780.724 664.461C780.376 665.308 779.695 665.952 778.793 666.234C777.894 666.517 776.847 666.414 775.922 665.967C774.996 665.52 774.28 664.771 773.967 663.904C773.653 663.034 773.769 662.117 774.251 661.337C774.514 660.907 774.767 660.499 775.027 660.07C779.775 652.543 783.254 644.774 784.879 635.986C784.979 635.494 785.073 635.027 785.166 634.532Z" fill="#007BA4"/>
</g>
</g>
<defs>
<clipPath id="clip0_471_2257">
<rect width="1100" height="850" fill="white"/>
</clipPath>
<clipPath id="clip1_471_2257">
<rect width="151" height="90" fill="white" transform="matrix(-0.650809 -0.759242 -0.759242 0.650809 729.604 794.646)"/>
</clipPath>
<clipPath id="clip2_471_2257">
<rect width="69.6706" height="118.917" fill="white" transform="translate(372 469.35) rotate(-24.9142)"/>
</clipPath>
<clipPath id="clip3_471_2257">
<rect width="76.0506" height="142.21" fill="white" transform="matrix(-0.956233 -0.292608 -0.299832 0.953992 835.25 541.841)"/>
</clipPath>
</defs>
</svg>
