<svg width="1100" height="850" viewBox="0 0 1100 850" fill="none" xmlns="http://www.w3.org/2000/svg">
<g clip-path="url(#clip0_471_2853)">
<path d="M779.933 76.0134C811.713 51.7194 837.74 48.4604 851.518 59.5349C866.413 71.507 876.923 96.249 867.024 129.495C857.001 163.161 849.707 167.421 776.278 217.388L739.853 257.792L720.931 278.76C675.817 329.798 675.305 338.53 654.963 370.259C649.843 378.245 645.412 385.2 641.404 391.004C637.359 396.862 634.069 401.065 631.307 403.736C628.551 406.4 627.125 406.77 626.403 406.749C625.625 406.726 623.97 406.201 621.63 402.621L620.086 400.257L617.288 400.533C612.75 400.979 610.358 399.982 609.061 398.711C607.801 397.475 606.874 395.291 606.778 391.276C606.574 382.742 604.669 365.39 611.791 346.693C625.888 309.689 632.367 250.09 657.116 197.373C688.205 131.152 748.473 100.064 779.933 76.0134Z" fill="#87CFE5" stroke="#0E6B96" stroke-width="12"/>
<path d="M411.946 19.8741C422.945 13.9326 434.733 12.6431 447.043 15.7906C459.565 18.9925 472.802 26.8592 485.798 39.5419C511.76 64.8783 535.536 108.26 549.974 166.232C553.935 190.745 559.089 215.165 563.798 237.776C568.54 260.536 572.811 281.378 575.068 298.931C577.359 316.748 577.406 330.128 574.502 338.43C573.101 342.434 571.273 344.492 569.506 345.545C567.806 346.559 564.976 347.344 559.964 346.685L556.34 346.21L553.649 348.607C550 351.856 548.095 352.149 547.499 352.151C546.924 352.153 545.403 351.891 542.872 349.277C540.388 346.711 537.734 342.695 534.756 337.142C531.809 331.65 528.733 325.023 525.282 317.434C511.565 287.271 492.562 243.226 455.305 206.287L455.046 206.029L454.751 205.802L451.317 203.136C380.023 147.414 359.553 107.798 361.153 79.9719C362.748 52.2436 386.549 33.5932 411.946 19.8741Z" fill="#8BCDE5" stroke="#0E6B96" stroke-width="12"/>
<g clip-path="url(#clip1_471_2853)">
<path d="M665.755 669.712C647.823 665.358 636.777 668.621 629.594 674.609C622.153 680.814 617.963 690.663 615.4 701.221C612.751 712.133 611.562 720.747 617.128 728.656C622.946 736.924 636.929 745.551 668.627 753.247C690.389 758.531 706.286 761.291 717.966 762.173C729.722 763.061 736.744 762.004 741.072 760.097C745.095 758.324 747.128 755.669 748.55 752.062C749.3 750.159 749.868 748.006 750.428 745.522C750.954 743.188 751.535 740.246 752.197 737.52C753.02 734.129 751.511 728.862 746.454 721.906C741.572 715.19 734.076 707.866 725.079 700.791C707.043 686.607 683.862 674.107 665.755 669.712Z" fill="#87CFE5" stroke="#0178B2" stroke-width="9"/>
<path d="M623.108 690.18C602.274 729.37 633.592 742.169 671.161 751.29C708.73 760.411 730.661 762.649 737.657 757.144C751.706 754.38 698.437 746.543 671.935 737.022C589.335 716.968 652.302 653.068 623.108 690.18Z" fill="#31A7BA"/>
</g>
<g clip-path="url(#clip2_471_2853)">
<path d="M486.188 641.817C504.512 643.997 513.801 650.272 518.54 657.561C523.449 665.112 524.076 674.637 522.936 684.224C521.757 694.134 519.978 701.664 512.085 706.428C503.833 711.409 487.786 714.051 455.395 710.197C433.157 707.551 417.284 704.707 406.005 701.666C394.654 698.605 388.407 695.46 384.979 692.48C381.793 689.709 380.774 686.85 380.651 683.398C380.586 681.577 380.775 679.607 381.084 677.365C381.375 675.259 381.818 672.63 382.112 670.155C382.479 667.075 385.669 663.193 392.763 659.055C399.612 655.061 409.123 651.405 419.96 648.441C441.688 642.499 467.687 639.616 486.188 641.817Z" fill="#87CFE5" stroke="#0178B2" stroke-width="9"/>
<path d="M519.402 672.574C525.811 711.819 492.061 712.322 453.672 707.754C415.282 703.187 393.91 697.959 389.184 691.132C376.905 684.302 429.624 695.005 457.742 695.666C542.147 705.708 504.435 632.354 519.402 672.574Z" fill="#31A7BA"/>
</g>
<path d="M609.356 324C711.831 324 794.856 406.406 794.856 508C794.856 609.594 711.831 692 609.356 692C506.881 692 423.856 609.594 423.856 508C423.856 406.406 506.881 324 609.356 324Z" fill="#86D0E3" stroke="#0C74AB" stroke-width="7"/>
<path d="M736.356 636C701.856 675 637.856 690.5 612.856 688C505.856 694 425.356 599.895 427.856 506.5C429.422 448 414.856 586 553.856 645C628.356 682.5 736.356 636 736.356 636Z" fill="#37B4CA"/>
<g clip-path="url(#clip3_471_2853)">
<path d="M544.518 435.062C568.37 438.405 585.373 463.093 581.597 490.036C579.466 505.237 574.472 516.953 566.348 524.31C558.339 531.564 546.877 534.946 530.835 532.698C507.074 529.368 491.337 505.403 495.188 477.925C499.04 450.447 520.758 431.732 544.518 435.062Z" fill="#FEFEFE" stroke="#0F79AB" stroke-width="6"/>
<path d="M638.231 424.626C651.309 426.459 662.486 434.662 669.893 446.737C677.297 458.808 680.794 474.565 678.499 490.942C675.914 509.39 670.177 523.791 660.939 532.931C651.853 541.922 639.106 546.094 621.552 543.634C608.478 541.802 597.692 533.791 590.676 521.869C583.652 509.936 580.522 494.224 582.861 477.538C585.199 460.853 592.528 446.606 602.562 437.063C612.585 427.531 625.158 422.794 638.231 424.626Z" fill="#FEFEFE" stroke="#0F79AB" stroke-width="6"/>
<path d="M615.734 479.315C614.409 488.772 607.603 495.636 599.945 494.562C592.286 493.489 587.152 484.952 588.477 475.495C589.802 466.038 597.086 459.242 604.745 460.315C613.052 463.662 617.114 469.469 615.734 479.315Z" fill="#2B2A28"/>
<path d="M555.871 489.077C563.508 490.297 570.927 483.643 572.441 474.215C573.956 464.786 568.993 456.153 561.356 454.933C553.719 453.712 546.301 460.367 544.786 469.795C543.271 479.224 548.234 487.857 555.871 489.077Z" fill="#2B2A28"/>
<path opacity="0.77" d="M520.294 406.627L537.031 406.224L556.458 409.366L565.677 412.733L572.921 417.135L573.306 422.912L572.868 428.608L570.015 434.886L560.631 429.043L544.277 422.925L532.588 419.315L518.979 417.565L518.923 410.591L520.294 406.627Z" fill="#004F80"/>
</g>
<path d="M568.401 571.156C563.674 557.214 565.229 548.71 573.273 532.666" stroke="#0082AA" stroke-width="7" stroke-linecap="round"/>
<path d="M696.441 544.65C696.944 544.188 697.651 543.926 698.407 543.921C699.163 543.915 699.906 544.168 700.473 544.623C701.039 545.078 701.383 545.698 701.428 546.346C701.473 546.994 701.216 547.618 700.713 548.08C698.251 550.344 695.626 552.477 692.866 554.473C641.407 590.009 560.341 581.876 509.247 544.023C506.375 541.907 503.636 539.74 500.942 537.449C500.39 536.98 500.069 536.353 500.046 535.705C500.024 535.057 500.304 534.441 500.824 533.993C501.343 533.545 502.061 533.301 502.817 533.316C503.575 533.33 504.309 533.602 504.861 534.07C507.449 536.271 510.081 538.354 512.841 540.387C561.795 576.841 640.518 584.408 689.05 550.671C691.654 548.788 694.126 546.778 696.441 544.65Z" fill="#076FA2"/>
<path d="M511.763 539.667L511.858 539.868L511.82 540.048C510.528 546.123 517.122 546.727 542.5 569C574.661 585.079 572.308 583.517 608 588.5C642.866 587.204 663.107 604.246 673.204 597.648C678.298 594.319 685.873 585.335 687.858 582.554C688.522 581.625 695.391 559.658 695.963 558.904C691.219 559.088 667.044 564.363 660.586 564.367C633.943 564.385 634.55 566.551 602.465 562.407C568.019 555.1 565.06 560.196 549.853 551.751C546.033 549.63 517.457 542.885 514.833 541.342C513.636 540.637 513.562 542.735 512.661 542.216C512.685 542.268 511.738 539.612 511.763 539.667Z" fill="#D20223" stroke="#076FA2" stroke-width="6"/>
<path d="M628.49 605.446C639.557 609.017 653.592 604.754 665.39 598.948C676.814 593.325 681.336 589.446 683.836 583.446C670.336 587.446 650.836 583.446 628.49 597.586C626.677 599.975 621.836 607.946 628.49 605.446Z" fill="#FF1863"/>
<path d="M549.617 551.011L549.662 551.03L549.71 551.046L556.718 553.318L556.758 553.331L556.799 553.341L562.978 554.917L563.004 554.924L567.917 555.97L565.827 565.787L565.2 567.468L562.466 568.55L560.066 568.961L556.828 568.514L553.899 567.89L550.9 566.535L548.062 564.243L545.446 560.765L544.219 556.274L543.585 551.879L544.239 548.806L549.617 551.011Z" fill="#FEFEFE" stroke="#0875A4" stroke-width="3"/>
<path d="M588.905 559.344L588.857 559.339L588.808 559.33L580.802 557.867L580.761 557.86L580.72 557.849L573.907 556.093L573.881 556.086L568.479 554.432L564.801 566.441L564.425 568.676L566.448 571.443L568.532 573.266L571.909 574.609L575.086 575.582L578.761 575.793L582.823 574.878L587.353 572.534L591.126 568.297L594.27 563.835L595.452 559.974L588.905 559.344Z" fill="#FEFEFE" stroke="#0578A5" stroke-width="3"/>
<path d="M570.558 537.565C580.886 541.313 592.49 535.446 596.476 524.461C600.462 513.476 595.32 501.533 584.991 497.786C574.663 494.038 563.059 499.905 559.073 510.89C555.087 521.875 560.229 533.818 570.558 537.565Z" fill="#ED6F7A"/>
<path opacity="0.7" d="M624.855 385.847L632.854 385.685L640.383 387.034L648.441 389.872L658.53 394.17L667.129 398.997L665.78 406.526L655.732 404.228L644.184 401.96L635.156 400.642L628.157 400.783L620.159 400.944L620.018 393.946L621.417 388.916L624.855 385.847Z" fill="#014C83"/>
<g clip-path="url(#clip4_471_2853)">
<path d="M780.926 487.445C776.088 487.08 773.861 488.301 772.514 490.11C770.875 492.313 770.033 496.016 769.679 501.649C769.004 512.388 770.235 529.07 766.671 547.036L766.619 547.296L766.52 547.543C761.408 560.258 756.914 571.61 755.613 581.841C754.364 591.658 756.097 600.126 763.009 607.583C774.48 611.834 783.53 612.83 790.636 611.698C797.819 610.553 803.285 607.195 807.462 602.318C815.983 592.37 819.155 576.066 819.333 559.774L819.334 559.649L819.346 559.525C820.845 544.351 815.543 527.051 807.427 513.011C803.384 506.015 798.708 499.947 793.971 495.44C789.253 490.951 784.732 488.256 780.926 487.445Z" fill="#87CFE5" stroke="#0076B8" stroke-width="7"/>
<path d="M779.602 580.189C779.598 579.938 779.704 579.691 779.888 579.502C780.072 579.314 780.319 579.201 780.584 579.187C780.85 579.172 781.114 579.257 781.329 579.424C781.543 579.59 781.691 579.824 781.729 580.073C781.811 580.611 781.887 581.132 781.961 581.67C783.622 591.181 781.8 601.716 777.26 610.449C777.017 610.95 776.783 611.425 776.532 611.923C774.661 610.911 772.79 609.899 770.919 608.887C771.217 608.451 771.497 608.037 771.785 607.599C777.084 599.944 779.905 591.277 779.618 581.764C779.617 581.236 779.612 580.721 779.602 580.189Z" fill="#0074AB"/>
<path d="M801.22 583.538C801.24 583.284 801.373 583.042 801.578 582.866C801.784 582.69 802.044 582.593 802.314 582.598C802.585 582.604 802.846 582.71 803.052 582.894C803.259 583.079 803.393 583.325 803.415 583.58C803.453 584.044 803.489 584.483 803.521 584.947C804.298 593.098 803.011 601.769 800.597 609.585C800.469 610.031 800.346 610.456 800.215 610.9C799.985 611.694 799.431 612.335 798.64 612.67C797.852 613.005 796.89 613.006 796.004 612.686C795.118 612.366 794.39 611.754 794.019 611.001C793.645 610.246 793.657 609.409 794.016 608.663C794.212 608.253 794.4 607.862 794.593 607.453C798.146 600.247 800.52 592.937 801.107 584.874C801.147 584.422 801.185 583.993 801.22 583.538Z" fill="#007BA4"/>
</g>
<path d="M613.348 741.935L619.379 747.773L625.209 750.865L631.787 752.784L636.553 752.402L630.545 750.181L629.108 749.649L642.261 745.914L818.217 281.599L793.494 272.023L610.893 729.455L611.492 735.398L613.348 741.935Z" fill="#D3B256" stroke="#F1CD51"/>
<path d="M800.314 280.91L629.594 736.693" stroke="#F1CD51" stroke-width="21" stroke-linecap="round"/>
<path d="M792.327 270.138L819.28 285.089L837.209 238.703L870.444 277.518L879.124 278.531L886.433 276.456L902.079 270.709L924.235 263.549L936.683 251.756L928.575 247.538L881.979 260.767L874.784 256.29L870.444 247.959L915.327 232.173L917.154 222.96L911.672 219.3L862.335 233.308L851.828 224.12L848.858 213.661L890.772 196.11L893.17 188.909L884.148 184.95L838.922 197.79L830.813 191.833L826.245 182.698L843.49 172.151L862.905 164.03L863.818 156.816L855.025 153.661L817.045 164.445L810.37 159.819L806.715 152.163L824.074 143.757L841.434 133.612L842.69 127.604L835.609 125.268L815.737 131.779L798.606 139.251L793.924 134.93L792.325 129.298L805.573 120.32L825.901 110.202L829.442 103.546L823.16 100.547L790.269 109.886L772.339 131.93L814.025 212.683L792.327 270.138Z" fill="#B8BDC6"/>
<path d="M785.96 128.907C791.748 116.815 798.525 112.457 816.795 108.85" stroke="#B7B6AF" stroke-width="6" stroke-linecap="round"/>
<path d="M867.249 267.992C880.937 274.134 888.878 272.29 903.57 259.812" stroke="#B7B6AF" stroke-width="6" stroke-linecap="round"/>
<path d="M857.421 252.364C863.209 240.272 869.986 235.914 888.256 232.307" stroke="#B7B6AF" stroke-width="6" stroke-linecap="round"/>
<path d="M831.153 218.962C836.942 206.871 843.718 202.513 861.989 198.905" stroke="#B7B6AF" stroke-width="6" stroke-linecap="round"/>
<path d="M818.59 181.667C824.378 169.576 831.155 165.218 849.425 161.61" stroke="#B7B6AF" stroke-width="6" stroke-linecap="round"/>
<path d="M799.403 152.34C805.192 140.248 811.968 135.89 830.239 132.283" stroke="#B7B6AF" stroke-width="6" stroke-linecap="round"/>
<g clip-path="url(#clip5_471_2853)">
<path d="M518.74 596.993C520.734 592.262 523.277 590.797 526.07 590.462C529.467 590.054 534.224 591.166 540.994 593.726C553.899 598.607 572.809 608.33 595.619 614.209L595.95 614.294L596.289 614.328C613.729 616.058 629.264 617.668 641.89 621.7C654.004 625.569 663.048 631.545 668.317 641.865C667.552 654.818 664.187 663.827 659.306 669.918C654.371 676.076 647.705 679.483 639.907 680.902C624 683.794 603.33 678.399 584.173 670.2L584.026 670.136L583.875 670.085C565.365 663.699 547.771 649.836 535.399 635.005C529.236 627.616 524.473 620.109 521.569 613.347C518.677 606.611 517.785 600.983 518.74 596.993Z" fill="#87CFE5" stroke="#0076B8" stroke-width="7"/>
<path d="M627.951 643.376C627.659 643.243 627.316 643.216 627.004 643.292C626.692 643.369 626.435 643.543 626.286 643.784C626.135 644.025 626.104 644.317 626.191 644.605C626.279 644.891 626.478 645.15 626.75 645.314C627.339 645.667 627.911 646.007 628.503 646.352C638.805 652.796 652.045 656.495 664.539 656.717C665.247 656.746 665.92 656.771 666.629 656.79C666.381 654.514 666.132 652.237 665.884 649.961C665.225 650.017 664.6 650.067 663.944 650.113C652.332 651.157 640.776 649.355 629.786 644.2C629.168 643.928 628.569 643.659 627.951 643.376Z" fill="#0074AB"/>
<path d="M621.052 665.396C620.744 665.284 620.394 665.285 620.085 665.387C619.777 665.489 619.533 665.684 619.404 665.941C619.275 666.197 619.269 666.497 619.381 666.785C619.494 667.073 619.715 667.327 620.002 667.478C620.526 667.752 621.022 668.011 621.549 668.28C630.7 673.195 641.493 676.439 651.849 678.187C652.435 678.295 652.993 678.398 653.579 678.504C654.624 678.695 655.651 678.504 656.438 677.933C657.225 677.365 657.707 676.462 657.776 675.466C657.845 674.469 657.494 673.473 656.799 672.737C656.101 671.998 655.116 671.58 654.063 671.534C653.485 671.507 652.933 671.483 652.358 671.454C642.147 671.089 632.402 669.564 622.672 665.975C622.122 665.781 621.602 665.596 621.052 665.396Z" fill="#007BA4"/>
</g>
</g>
<defs>
<clipPath id="clip0_471_2853">
<rect width="1100" height="850" fill="white"/>
</clipPath>
<clipPath id="clip1_471_2853">
<rect width="151" height="90" fill="white" transform="matrix(-0.97177 -0.235931 -0.235931 0.97177 768.971 689.625)"/>
</clipPath>
<clipPath id="clip2_471_2853">
<rect width="151" height="79.9813" fill="white" transform="translate(382.449 625) rotate(6.78487)"/>
</clipPath>
<clipPath id="clip3_471_2853">
<rect width="189.284" height="127.952" fill="white" transform="translate(502.616 403) rotate(7.9782)"/>
</clipPath>
<clipPath id="clip4_471_2853">
<rect width="69.6706" height="128.493" fill="white" transform="matrix(-0.980886 -0.194583 -0.194583 0.980886 837.342 495.557)"/>
</clipPath>
<clipPath id="clip5_471_2853">
<rect width="73.4562" height="165.257" fill="white" transform="translate(500 654.131) rotate(-75.5462)"/>
</clipPath>
</defs>
</svg>
