<svg width="1100" height="850" viewBox="0 0 1100 850" fill="none" xmlns="http://www.w3.org/2000/svg">
<path d="M724.69 114.886C751.588 85.2774 776.605 77.3953 792.149 85.814C808.953 94.915 823.737 117.366 819.973 151.85C816.161 186.768 809.751 192.27 746.495 254.617L717.922 300.908L703.076 324.934C667.866 383.247 668.931 391.929 654.62 426.796C651.019 435.573 647.91 443.21 645.01 449.64C642.083 456.13 639.602 460.856 637.364 463.979C635.132 467.095 633.796 467.715 633.081 467.825C632.312 467.942 630.589 467.722 627.644 464.621L625.701 462.573L622.998 463.347C618.614 464.601 616.082 464.05 614.578 463.033C613.116 462.043 611.811 460.062 610.996 456.129C609.262 447.771 604.27 431.043 607.917 411.371C615.136 372.436 610.802 312.643 625.676 256.337C644.361 185.608 698.063 144.198 724.69 114.886Z" fill="#87CFE5" stroke="#0E6B96" stroke-width="12"/>
<path d="M299.432 85.2229C308.336 76.3905 319.376 72.0309 332.229 71.9971C345.305 71.9629 360.448 76.4334 376.777 85.8094C409.4 104.539 445.224 141.983 476.303 196.524C487.368 220.142 499.562 243.358 510.79 264.87C522.095 286.524 532.377 306.372 539.74 323.435C547.212 340.754 551.203 354.196 550.837 363.299C550.66 367.689 549.496 370.233 548.095 371.751C546.747 373.213 544.237 374.738 539.187 375.377L535.536 375.841L533.635 378.95C531.059 383.166 529.299 383.955 528.722 384.112C528.166 384.263 526.616 384.396 523.393 382.424C520.229 380.49 516.475 377.141 511.952 372.332C507.478 367.575 502.544 361.71 496.963 354.976C474.781 328.211 443.385 288.86 396.4 261.399L396.073 261.206L395.72 261.055L391.607 259.266C306.11 221.762 274.598 187.247 267.944 158.851C261.314 130.555 278.873 105.617 299.432 85.2229Z" fill="#8BCDE5" stroke="#0E6B96" stroke-width="12"/>
<g clip-path="url(#clip0_471_1925)">
<path d="M637.756 720.712C619.824 716.358 608.778 719.621 601.595 725.609C594.154 731.814 589.964 741.663 587.401 752.221C584.751 763.133 583.563 771.747 589.129 779.656C594.947 787.924 608.929 796.551 640.628 804.247C662.39 809.531 678.286 812.291 689.967 813.173C701.723 814.061 708.744 813.004 713.073 811.097C717.096 809.324 719.129 806.669 720.551 803.062C721.301 801.159 721.869 799.006 722.429 796.522C722.955 794.188 723.536 791.246 724.198 788.52C725.021 785.129 723.512 779.862 718.455 772.906C713.573 766.19 706.076 758.866 697.08 751.791C679.044 737.607 655.862 725.107 637.756 720.712Z" fill="#87CFE5" stroke="#0178B2" stroke-width="9"/>
<path d="M595.109 741.18C574.275 780.37 605.593 793.169 643.162 802.29C680.731 811.411 702.662 813.649 709.658 808.144C723.707 805.38 670.438 797.543 643.936 788.022C561.336 767.968 624.303 704.068 595.109 741.18Z" fill="#31A7BA"/>
</g>
<g clip-path="url(#clip1_471_1925)">
<path d="M489.364 703.677C507 709.108 514.824 717.561 517.933 726.381C521.154 735.518 519.717 746.125 516.52 756.508C513.215 767.24 509.831 775.25 501.003 779.199C491.774 783.329 475.347 783.591 444.172 773.992C422.769 767.402 407.698 761.643 397.209 756.427C386.653 751.178 381.16 746.679 378.416 742.826C375.865 739.245 375.476 735.924 376.099 732.097C376.428 730.078 377.041 727.937 377.83 725.516C378.572 723.242 379.578 720.416 380.403 717.735C381.43 714.4 385.421 710.646 393.324 707.255C400.954 703.981 411.141 701.522 422.49 700.043C445.244 697.079 471.557 698.194 489.364 703.677Z" fill="#87CFE5" stroke="#0178B2" stroke-width="9"/>
<path d="M515.543 743.077C513.402 787.411 479.943 782.391 442.995 771.014C406.047 759.637 386.057 750.343 382.86 742.035C372.202 732.475 421.985 752.984 449.628 758.357C530.864 783.37 509.437 696.256 515.543 743.077Z" fill="#31A7BA"/>
</g>
<path d="M582.5 369C684.975 369 768 451.406 768 553C768 654.594 684.975 737 582.5 737C480.025 737 397 654.594 397 553C397 451.406 480.025 369 582.5 369Z" fill="#86D0E3" stroke="#0C74AB" stroke-width="7"/>
<path d="M709.5 681C675 720 611 735.5 586 733C479 739 398.5 644.895 401 551.5C402.566 493 388 631 527 690C601.5 727.5 709.5 681 709.5 681Z" fill="#37B4CA"/>
<path opacity="0.77" d="M530.809 412.063L544.198 406.235L560.427 402.512L568.487 402.326L575.156 403.662L576.567 408.406L577.301 413.352L576.204 419.581L567.539 417.733L553.214 417.938L543.12 418.728L531.837 421.717L530.461 415.855L530.809 412.063Z" fill="#004F80"/>
<g clip-path="url(#clip2_471_1925)">
<path d="M559.582 570.951L559.631 570.965L559.681 570.973L567.938 572.377L567.98 572.385L568.023 572.387L575.203 572.855L575.23 572.857H581V591.498L580.699 594.833L577.895 597.88L575.316 599.561L571.616 600H568.222L564.569 598.701L560.877 595.637L557.154 590.342L554.736 582.69L553 574.993V569L559.582 570.951Z" fill="#FEFEFE" stroke="#0578A5" stroke-width="3"/>
<path d="M599.848 569.62L599.783 569.637L599.715 569.648L589.742 571.118L589.685 571.126L589.628 571.129L580.957 571.603L580.922 571.605L574.088 571.585L574.027 591.345L574.374 594.84L577.695 598.054L580.767 599.84L585.201 600.32L589.274 600.332L593.653 598.967L598.088 595.731L602.571 590.12L605.501 581.984L607.616 573.788L607.634 567.602L599.848 569.62Z" fill="#FEFEFE" stroke="#0875A4" stroke-width="3"/>
<path d="M672.513 588.999C673.314 588.992 674.132 588.813 674.78 588.445C675.43 588.076 676.027 587.431 676.001 586.553V586.551C675.973 585.685 675.354 585.07 674.697 584.721C672.384 583.494 670.031 582.336 667.57 581.208L667.337 581.101C644.713 570.718 615.338 564.767 585.837 564.07C556.797 563.383 527.541 567.784 504.408 578.141L503.31 578.638L503.292 578.647C501.099 579.7 498.995 580.814 496.996 581.985L496.139 582.494C495.502 582.881 494.943 583.543 495.006 584.41L495.034 584.625C495.172 585.366 495.772 585.902 496.381 586.207L496.527 586.277C497.173 586.566 497.942 586.694 498.685 586.675L498.966 586.66C499.615 586.611 500.262 586.447 500.801 586.155L500.971 586.056L501.701 585.622L501.713 585.615C503.536 584.547 505.464 583.527 507.481 582.558L507.495 582.551L507.509 582.545C529.134 572.544 557.349 568.216 585.561 568.879C613.777 569.543 641.883 575.197 663.262 585.063L663.291 585.075L663.301 585.082C665.699 586.177 667.984 587.299 670.227 588.49C670.888 588.841 671.71 589.007 672.513 588.999Z" fill="#076FA2"/>
</g>
<g clip-path="url(#clip3_471_1925)">
<path d="M535.753 450.829C559.346 450.679 579.337 472.641 579.51 499.846C579.608 515.196 576.434 527.513 569.608 535.969C562.877 544.308 552.249 549.316 536.381 549.417C512.878 549.566 494.217 528.136 494.04 500.39C493.864 472.644 512.251 450.978 535.753 450.829Z" fill="#FEFEFE" stroke="#0F79AB" stroke-width="6"/>
<path d="M625.096 426.917C638.031 426.835 650.03 433.332 658.927 444.205C667.821 455.075 673.452 470.159 673.557 486.696C673.676 505.323 670.165 520.404 662.511 530.787C654.984 541 643.223 546.976 625.86 547.086C612.928 547.169 601.335 540.806 592.839 530.028C584.334 519.239 579.065 504.146 578.958 487.298C578.85 470.45 583.927 455.291 592.294 444.394C600.652 433.51 612.164 427 625.096 426.917Z" fill="#FEFEFE" stroke="#0F79AB" stroke-width="6"/>
<path d="M578.872 546.882C588.071 546.823 595.481 539.215 595.421 529.888C595.362 520.561 587.857 513.047 578.657 513.106C569.458 513.164 562.049 520.773 562.108 530.1C562.168 539.427 569.673 546.941 578.872 546.882Z" fill="#ED6F7A"/>
<path d="M611.072 484.29C611.132 493.84 605.513 501.617 597.938 501.665C590.362 501.713 584.172 494.011 584.111 484.462C584.05 474.913 590.142 467.132 597.718 467.084C606.245 469.191 611.008 474.348 611.072 484.29Z" fill="#2B2A28"/>
<path d="M554.44 502.627C562.016 502.728 568.259 495.068 568.386 485.52C568.512 475.971 562.474 468.149 554.899 468.049C547.324 467.948 541.08 475.607 540.954 485.156C540.827 494.705 546.865 502.527 554.44 502.627Z" fill="#2B2A28"/>
</g>
<path opacity="0.7" d="M613.999 392.847L621.998 392.685L629.526 394.034L637.585 396.872L647.674 401.17L656.273 405.997L654.924 413.526L644.876 411.228L633.328 408.96L624.299 407.642L617.301 407.783L609.302 407.944L609.161 400.946L610.56 395.916L613.999 392.847Z" fill="#014C83"/>
<path d="M546.639 673.969L553.166 679.246L559.249 681.806L565.972 683.131L570.685 682.325L564.503 680.648L563.024 680.247L575.791 675.354L709.639 197.197L684.161 189.864L543.081 661.757L544.207 667.623L546.639 673.969Z" fill="#D3B256" stroke="#F1CD51"/>
<path d="M691.747 198.108L562.353 667.299" stroke="#F1CD51" stroke-width="21" stroke-linecap="round"/>
<path d="M682.831 188.091L711.01 200.579L724.731 152.779L761.295 188.475L770.03 188.71L777.125 185.992L792.197 178.873L813.626 169.766L824.973 156.909L816.521 153.431L771.29 170.763L763.724 166.945L758.659 159.034L801.955 139.308L802.953 129.97L797.167 126.813L749.276 145.165L737.991 136.95L734.101 126.798L774.282 105.579L776.028 98.1925L766.689 95.0542L722.789 111.877L714.181 106.667L708.816 97.9749L725.052 85.9318L743.665 76.1122L743.932 68.8451L734.892 66.4876L698.025 80.6147L690.964 76.6034L686.641 69.3036L703.182 59.3828L719.567 47.7302L720.283 41.6345L713.022 39.9387L693.81 48.1963L677.413 57.1662L672.364 53.2795L670.269 47.8128L682.664 37.6895L702.009 25.7983L704.942 18.853L698.418 16.4269L666.49 28.6614L650.597 52.2163L699.319 128.931L682.831 188.091Z" fill="#B8BDC6"/>
<path d="M663.895 47.9907C668.581 35.4314 674.942 30.4864 692.819 25.2639" stroke="#B7B6AF" stroke-width="6" stroke-linecap="round"/>
<path d="M757.263 179.272C771.444 184.169 779.189 181.625 792.709 167.886" stroke="#B7B6AF" stroke-width="6" stroke-linecap="round"/>
<path d="M746.081 164.583C750.767 152.024 757.128 147.079 775.005 141.856" stroke="#B7B6AF" stroke-width="6" stroke-linecap="round"/>
<path d="M716.938 133.656C721.625 121.097 727.986 116.152 745.862 110.929" stroke="#B7B6AF" stroke-width="6" stroke-linecap="round"/>
<path d="M701.1 97.6309C705.786 85.0715 712.147 80.1265 730.024 74.9041" stroke="#B7B6AF" stroke-width="6" stroke-linecap="round"/>
<path d="M679.374 70.1313C684.06 57.572 690.421 52.627 708.298 47.4046" stroke="#B7B6AF" stroke-width="6" stroke-linecap="round"/>
<g clip-path="url(#clip4_471_1925)">
<path d="M715.138 625.716C714.952 620.845 713.081 618.663 710.573 617.391C707.521 615.844 702.647 615.163 695.36 615.057C681.469 614.856 660.197 616.831 636.626 614.05L636.285 614.01L635.954 613.921C618.921 609.354 603.724 605.347 590.4 604.494C577.616 603.676 566.968 605.791 558.321 613.059C554.412 624.76 554.359 633.887 556.777 640.969C559.221 648.128 564.277 653.465 571.11 657.442C585.049 665.553 606.431 668.014 627.392 667.47L627.552 667.466L627.713 667.473C647.416 668.304 668.93 662.216 685.874 653.448C694.316 649.079 701.481 644.117 706.631 639.163C711.76 634.229 714.611 629.572 715.138 625.716Z" fill="#87CFE5" stroke="#0076B8" stroke-width="7"/>
<path d="M595.773 628.498C596.096 628.482 596.428 628.578 596.695 628.754C596.961 628.931 597.14 629.174 597.195 629.439C597.25 629.705 597.176 629.974 596.991 630.197C596.806 630.419 596.526 630.578 596.211 630.628C595.531 630.733 594.871 630.833 594.19 630.931C582.192 633.019 568.407 631.658 556.569 627.488C555.892 627.266 555.25 627.053 554.576 626.823C555.623 624.9 556.67 622.978 557.717 621.055C558.318 621.335 558.888 621.597 559.489 621.867C570.045 626.846 581.566 629.293 593.751 628.583C594.43 628.559 595.091 628.531 595.773 628.498Z" fill="#0074AB"/>
<path d="M594.398 650.344C594.727 650.353 595.056 650.476 595.311 650.674C595.564 650.872 595.724 651.129 595.754 651.4C595.784 651.672 595.682 651.939 595.473 652.154C595.265 652.369 594.966 652.516 594.641 652.549C594.051 652.608 593.492 652.663 592.899 652.716C582.529 653.857 571.212 652.949 560.841 650.873C560.25 650.764 559.688 650.66 559.099 650.548C558.047 650.352 557.149 649.825 556.612 649.046C556.074 648.269 555.943 647.304 556.234 646.4C556.525 645.497 557.212 644.74 558.13 644.333C559.05 643.925 560.126 643.9 561.134 644.227C561.688 644.406 562.216 644.577 562.768 644.753C572.508 647.999 582.225 650.057 592.666 650.289C593.253 650.31 593.809 650.329 594.398 650.344Z" fill="#007BA4"/>
</g>
<g clip-path="url(#clip5_471_1925)">
<path d="M403.361 560.733C407.928 564.696 411.798 564.676 415.5 563.241C420.005 561.494 425.591 557.18 433.123 549.954C447.481 536.178 467.416 513.139 493.97 491.842L494.355 491.533L494.772 491.276C516.258 478.065 535.369 466.219 549.734 453.567C563.516 441.428 572.482 428.937 574.778 414.065C568.253 400.174 560.106 392.347 551.276 388.743C542.349 385.099 532.393 385.63 521.847 389.104C500.334 396.19 476.3 415.563 455.397 437.071L455.237 437.237L455.066 437.392C434.211 456.466 417.725 483.253 408.31 507.733C403.62 519.929 400.766 531.349 399.961 540.74C399.16 550.092 400.434 556.92 403.361 560.733Z" fill="#87CFE5" stroke="#0076B8" stroke-width="7"/>
<path d="M522.683 438.518C522.367 438.856 521.943 439.107 521.511 439.225C521.081 439.342 520.679 439.315 520.386 439.144C520.091 438.973 519.925 438.669 519.914 438.294C519.902 437.918 520.045 437.502 520.322 437.143C520.921 436.371 521.505 435.623 522.112 434.857C532.481 421.031 547.772 408.35 563.6 400.016C564.491 399.525 565.337 399.062 566.232 398.582C566.891 401.27 567.55 403.959 568.209 406.648C567.345 407.013 566.527 407.361 565.67 407.735C550.424 414.093 536.467 423.576 524.669 436.415C523.998 437.118 523.349 437.804 522.683 438.518Z" fill="#0074AB"/>
<path d="M504.458 418.531C504.113 418.854 503.667 419.08 503.229 419.167C502.792 419.252 502.398 419.193 502.124 418.992C501.85 418.791 501.713 418.462 501.733 418.069C501.753 417.676 501.926 417.252 502.227 416.898C502.777 416.254 503.299 415.646 503.855 415.006C513.413 403.623 525.779 393.033 538.229 384.387C538.93 383.888 539.598 383.412 540.299 382.915C541.549 382.027 542.939 381.574 544.187 381.698C545.434 381.82 546.435 382.51 546.95 383.572C547.464 384.634 547.444 385.968 546.872 387.236C546.3 388.508 545.224 389.609 543.901 390.343C543.175 390.747 542.483 391.131 541.762 391.535C528.904 398.551 517.138 406.553 506.274 416.839C505.657 417.41 505.072 417.952 504.458 418.531Z" fill="#007BA4"/>
</g>
<defs>
<clipPath id="clip0_471_1925">
<rect width="151" height="90" fill="white" transform="matrix(-0.97177 -0.235931 -0.235931 0.97177 740.972 740.625)"/>
</clipPath>
<clipPath id="clip1_471_1925">
<rect width="151" height="90" fill="white" transform="translate(390.485 668) rotate(17.1141)"/>
</clipPath>
<clipPath id="clip2_471_1925">
<rect width="179" height="56" fill="white" transform="translate(490 553)"/>
</clipPath>
<clipPath id="clip3_471_1925">
<rect width="185.42" height="127.952" fill="white" transform="translate(490.581 425.18) rotate(-0.36456)"/>
</clipPath>
<clipPath id="clip4_471_1925">
<rect width="69.6706" height="166.504" fill="white" transform="matrix(0.117159 -0.993113 -0.993113 -0.117159 712.357 682.698)"/>
</clipPath>
<clipPath id="clip5_471_1925">
<rect width="86.0487" height="238.801" fill="white" transform="matrix(0.625664 0.780093 0.780093 -0.625664 355 509.409)"/>
</clipPath>
</defs>
</svg>
