<svg width="1100" height="850" viewBox="0 0 1100 850" fill="none" xmlns="http://www.w3.org/2000/svg">
<g clip-path="url(#clip0_470_1340)">
<path d="M777.357 88.0428C807.784 62.074 833.598 57.4193 847.952 67.7364C863.47 78.8896 875.295 103.03 867.2 136.761C859.003 170.917 851.948 175.564 781.315 229.409L747.116 271.715L729.35 293.671C687.048 347.062 687.006 355.809 668.401 388.586C663.718 396.837 659.668 404.019 655.978 410.031C652.254 416.099 649.195 420.472 646.58 423.287C643.972 426.096 642.568 426.542 641.845 426.561C641.067 426.58 639.386 426.144 636.857 422.695L635.189 420.418L632.41 420.844C627.902 421.533 625.46 420.666 624.096 419.467C622.771 418.3 621.728 416.17 621.417 412.166C620.753 403.655 617.917 386.43 624.024 367.378C636.108 329.669 639.372 269.807 661.248 215.835C688.729 148.037 747.237 113.751 777.357 88.0428Z" fill="#87CFE5" stroke="#0E6B96" stroke-width="12"/>
<g clip-path="url(#clip1_470_1340)">
<path d="M740.539 735.269C720.675 731.172 708.881 734.127 701.502 739.613C693.857 745.297 690.027 754.356 688.022 764.075C685.95 774.121 685.298 782.055 691.954 789.371C698.911 797.02 714.791 805.038 749.906 812.281C774.013 817.253 791.54 819.872 804.334 820.74C817.21 821.614 824.782 820.673 829.356 818.936C833.608 817.32 835.625 814.883 836.904 811.565C837.58 809.814 838.038 807.832 838.463 805.545C838.862 803.396 839.275 800.687 839.793 798.178C840.437 795.056 838.399 790.194 832.369 783.759C826.548 777.546 817.833 770.759 807.502 764.196C786.789 751.036 760.597 739.406 740.539 735.269Z" fill="#87CFE5" stroke="#0178B2" stroke-width="9"/>
<path d="M695.597 753.934C675.821 789.96 710.903 801.904 752.521 810.489C794.138 819.073 818.202 821.238 825.415 816.197C840.516 813.716 781.887 806.241 752.299 797.34C660.796 778.467 724.638 719.864 695.597 753.934Z" fill="#31A7BA"/>
</g>
<g clip-path="url(#clip2_470_1340)">
<path d="M729.166 586.19C726.55 581.582 727.094 578.425 728.772 575.719C730.814 572.426 735.1 568.818 742.032 564.266C755.246 555.588 776.791 544.405 797.814 527.431L798.119 527.185L798.386 526.901C812.111 512.275 824.396 499.288 836.693 490.355C848.492 481.786 859.922 477.227 872.387 478.646C882.848 487.052 888.133 495.44 889.875 503.452C891.635 511.551 889.843 519.566 885.567 527.411C876.843 543.416 857.736 558.757 837.311 571.069L837.154 571.164L837.004 571.269C818.573 584.081 794.437 591.616 773.15 593.885C762.544 595.015 752.823 594.817 745.04 593.395C737.288 591.978 731.882 589.425 729.166 586.19Z" fill="#87CFE5" stroke="#0076B8" stroke-width="7"/>
<path d="M845.302 515.786C844.983 515.969 844.72 516.26 844.565 516.586C844.411 516.912 844.378 517.246 844.478 517.524C844.577 517.802 844.803 518.005 845.108 518.097C845.413 518.19 845.772 518.165 846.104 518.018C846.817 517.7 847.507 517.389 848.216 517.062C860.928 511.655 873.374 501.972 882.343 490.888C882.866 490.27 883.36 489.68 883.874 489.056C881.767 487.922 879.659 486.789 877.552 485.655C877.136 486.28 876.74 486.871 876.317 487.488C869.044 498.534 859.392 507.834 847.291 514.629C846.626 515.021 845.976 515.4 845.302 515.786Z" fill="#0074AB"/>
<path d="M859.15 535.099C858.839 535.309 858.594 535.624 858.463 535.962C858.334 536.3 858.328 536.635 858.455 536.903C858.581 537.172 858.832 537.356 859.156 537.428C859.479 537.498 859.85 537.451 860.18 537.283C860.781 536.976 861.349 536.685 861.948 536.372C872.553 531.085 882.892 523.329 891.655 515.074C892.158 514.612 892.639 514.172 893.14 513.709C894.036 512.885 894.596 511.85 894.665 510.802C894.735 509.757 894.308 508.787 893.51 508.131C892.713 507.475 891.619 507.197 890.506 507.383C889.388 507.568 888.341 508.204 887.562 509.122C887.133 509.625 886.724 510.106 886.295 510.605C878.81 519.554 870.667 527.394 860.78 533.99C860.229 534.368 859.706 534.725 859.15 535.099Z" fill="#007BA4"/>
</g>
<g clip-path="url(#clip3_470_1340)">
<path d="M581.27 710.827C599.716 711.328 609.521 717.374 614.882 725.036C620.435 732.975 621.895 743.579 621.6 754.439C621.295 765.664 620.184 774.288 612.738 780.46C604.955 786.914 589.2 791.572 556.592 790.686C534.206 790.078 518.142 788.573 506.639 786.361C495.062 784.135 488.563 781.274 484.887 778.298C481.469 775.532 480.203 772.437 479.777 768.583C479.553 766.55 479.569 764.323 479.68 761.779C479.784 759.389 479.995 756.397 480.071 753.594C480.166 750.105 483.004 745.418 489.708 740.032C496.181 734.832 505.335 729.73 515.872 725.262C536.997 716.304 562.645 710.321 581.27 710.827Z" fill="#87CFE5" stroke="#0178B2" stroke-width="9"/>
<path d="M617.057 741.762C626.885 785.045 593.306 789.183 554.66 788.133C516.015 787.082 494.264 783.49 488.956 776.343C476.124 769.992 529.584 776.399 557.655 774.161C642.624 776.47 598.617 698.294 617.057 741.762Z" fill="#31A7BA"/>
</g>
<path d="M556.495 80.5403C533.279 50.4068 424.819 279.74 386.499 282.477C306.745 288.172 345.18 108.866 430.387 89.4438C703.41 27.2109 435.934 164.5 492.874 229.386L492.986 229.515L493.092 229.648C527.617 273.462 537.022 319.239 543.228 350.96C544.789 358.944 546.118 365.886 547.58 371.792C549.056 377.754 550.556 382.17 552.275 385.219C553.989 388.26 555.416 389.059 556.251 389.304C557.15 389.567 559.316 389.76 563.898 387.853L566.921 386.594L569.961 387.816C574.894 389.795 578.154 389.892 580.311 389.383C582.408 388.888 584.632 387.544 586.889 384.494C591.687 378.01 594.965 366.089 596.85 349.153C600.583 315.632 598.48 267.743 598.48 218.305C598.48 156.202 579.477 110.371 556.495 80.5403Z" fill="#87CFE5" stroke="#0E6B96" stroke-width="12"/>
<path d="M464.299 88.7831C486.465 82.1256 553.165 78.2528 542 78.4907C609 105.991 466 176.109 440.381 185.736C378.159 186.289 432.824 162.385 418.077 132.874C403.331 103.363 438.68 98.4095 464.299 88.7831Z" fill="#87CFE5"/>
<path d="M543.251 115.836C552.84 111.122 557.777 121.31 552.681 122.231C566.31 127.208 511.578 200.712 500.66 207.061C472.195 211.83 479.775 182.179 470.499 169.476C461.223 156.774 532.333 122.186 543.251 115.836Z" fill="#87CFE5"/>
<path d="M578.5 369.978C680.975 369.978 764 452.383 764 553.978C764 655.572 680.975 737.978 578.5 737.978C476.025 737.978 393 655.572 393 553.978C393 452.383 476.025 369.978 578.5 369.978Z" fill="#86D0E3" stroke="#0C74AB" stroke-width="7"/>
<path d="M705.5 681.977C671 720.977 607 736.477 582 733.977C475 739.977 394.5 645.872 397 552.477C398.566 493.977 384 631.977 523 690.977C597.5 728.477 705.5 681.977 705.5 681.977Z" fill="#37B4CA"/>
<path opacity="0.77" d="M506.011 487.337L520.881 492.393L536.554 501.223L543.167 506.953L547.591 512.897L545.39 517.761L542.502 522.294L537.239 526.528L531.568 518.713L519.902 508.429L511.227 501.705L500.049 495.89L503.065 490.149L506.011 487.337Z" fill="#004F80"/>
<path opacity="0.7" d="M579.393 495.956L586.422 489.865L594.232 485.562L603.7 482.285L616.146 478.894L627.68 477.113L632.46 485.293L621.641 490.561L609.504 496.972L600.377 502.417L594.226 507.747L587.197 513.838L581.505 507.27L578.757 501.436L579.393 495.956Z" fill="#014C83"/>
<path d="M796.229 648.561L803.96 653.122L811.295 654.943L819.501 655.396L825.487 653.867L818.022 652.981L816.174 652.761L832.026 645.93L976.593 241.401L943.827 230.42L792.444 636.458L793.555 642.357L796.229 648.561Z" fill="#D3B256" stroke="#F1CD51"/>
<path d="M951.384 244.621L806.285 644.351" stroke="#F1CD51" stroke-width="21" stroke-linecap="round"/>
<path d="M940.922 235.469L974.813 244.54L993.719 193.134L1036.83 225.099L1047.49 224.144L1056.29 220.354L1075.03 210.91L1101.63 198.534L1116.08 183.657L1105.9 181.213L1049.83 205.377L1040.75 202.46L1034.91 194.959L1088.72 168.581L1090.36 158.768L1083.43 156.292L1024.06 181.878L1010.63 174.915L1006.33 164.931L1056.4 137.433L1058.86 129.541L1047.58 127.571L993.168 151.024L982.877 146.808L976.707 138.539L997.091 123.834L1020.28 111.106L1020.93 103.54L1009.99 102.339L964.289 122.034L955.836 118.847L950.877 111.877L971.539 99.3291L992.09 85.008L993.236 78.5944L984.435 77.8339L960.581 89.0256L940.137 100.569L934.138 97.2349L931.821 91.8587L947.424 79.6696L971.603 64.6952L975.498 57.0971L967.631 55.4788L928.055 72.5356L907.576 99.1203L963.717 171.914L940.922 235.469Z" fill="#B8BDC6"/>
<path d="M924.02 92.9189C930.31 79.2638 938.306 73.2677 960.392 65.4039" stroke="#B7B6AF" stroke-width="6" stroke-linecap="round"/>
<path d="M1032.31 216.119C1049.42 219.246 1059.01 215.547 1076.15 199.457" stroke="#B7B6AF" stroke-width="6" stroke-linecap="round"/>
<path d="M1019.29 202.436C1025.58 188.78 1033.58 182.784 1055.66 174.921" stroke="#B7B6AF" stroke-width="6" stroke-linecap="round"/>
<path d="M985.044 174.392C991.334 160.737 999.33 154.741 1021.42 146.877" stroke="#B7B6AF" stroke-width="6" stroke-linecap="round"/>
<path d="M967.289 139.242C973.578 125.587 981.575 119.59 1003.66 111.727" stroke="#B7B6AF" stroke-width="6" stroke-linecap="round"/>
<path d="M941.955 113.733C948.245 100.078 956.241 94.0816 978.327 86.2179" stroke="#B7B6AF" stroke-width="6" stroke-linecap="round"/>
<g clip-path="url(#clip4_470_1340)">
<path d="M640.663 690.982C640.062 685.824 642.285 682.9 645.558 680.71C649.541 678.046 656.218 675.662 666.361 673.052C685.698 668.077 715.713 662.846 748.092 651.855L748.561 651.695L749.007 651.489C771.953 640.871 792.438 631.468 810.869 626.007C828.553 620.767 843.776 619.326 857.12 623.961C864.639 634.857 866.326 644.384 864.206 652.619C862.063 660.944 855.955 668.259 847.129 674.761C829.124 688.024 799.74 697.931 770.413 704.551L770.187 704.602L769.964 704.665C742.634 712.292 711.555 713.304 686.375 709.946C673.831 708.273 662.961 705.541 654.904 702.126C646.878 698.725 642.079 694.834 640.663 690.982Z" fill="#87CFE5" stroke="#0076B8" stroke-width="7"/>
<path d="M807.618 652.952C807.166 653.046 806.72 653.26 806.378 653.536C806.039 653.812 805.831 654.128 805.802 654.424C805.772 654.72 805.924 654.976 806.221 655.146C806.518 655.315 806.936 655.385 807.385 655.329C808.352 655.207 809.29 655.085 810.256 654.953C827.358 653.022 846.341 646.871 862.113 638.45C863.018 637.986 863.876 637.543 864.775 637.07C862.975 635.419 861.175 633.768 859.375 632.116C858.587 632.614 857.839 633.085 857.047 633.573C843.207 642.401 827.573 648.911 810.453 652.348C809.502 652.555 808.576 652.753 807.618 652.952Z" fill="#0074AB"/>
<path d="M813.398 675.326C812.939 675.448 812.503 675.689 812.183 675.984C811.864 676.278 811.687 676.602 811.693 676.896C811.7 677.19 811.888 677.434 812.217 677.588C812.547 677.741 812.989 677.792 813.447 677.716C814.282 677.574 815.071 677.44 815.907 677.292C830.57 674.929 846.192 670.098 860.289 664.37C861.093 664.054 861.86 663.752 862.661 663.433C864.092 662.867 865.253 662.008 865.864 661.009C866.476 660.012 866.489 658.958 865.923 658.113C865.358 657.268 864.266 656.711 862.914 656.601C861.559 656.489 860.053 656.833 858.705 657.521C857.965 657.898 857.259 658.257 856.52 658.631C843.509 665.366 830.323 670.851 815.804 674.674C814.988 674.897 814.216 675.108 813.398 675.326Z" fill="#007BA4"/>
</g>
<g clip-path="url(#clip5_470_1340)">
<path d="M506.045 535.02C521.471 545.502 539.049 533.702 533.116 561.762C529.768 577.594 519.408 589.175 510.894 596.44C502.5 603.604 498.08 602.095 482.749 596.586C461.679 589.014 448.16 572.283 453.923 545.851C481.469 478.503 478.981 506.838 506.045 535.02Z" fill="#FEFEFE" stroke="#0F79AB" stroke-width="6"/>
<path d="M588.791 558.313C602.169 561.142 607.087 557.505 619 565.447C626.5 570.447 625.172 571.947 622 586.947C617.537 608.054 618.459 604.926 608 614.947C597.713 624.804 590.457 629.244 572.5 625.447C559.126 622.619 549.893 617.206 543.773 603.089C537.646 588.958 535.92 570.688 539.957 551.597C541.848 542.65 535.791 561.313 542.583 547.147C550.291 534.812 575.416 555.485 588.791 558.313Z" fill="#FEFEFE" stroke="#0F79AB" stroke-width="6"/>
<path d="M579.345 584.131C577.498 592.866 569.866 598.65 561.668 596.917C553.47 595.183 548.322 586.697 550.169 577.962C552.016 569.227 560.159 563.551 568.357 565.285C577.152 569.21 581.268 575.037 579.345 584.131Z" fill="#2B2A28"/>
<path d="M513.8 572.34C522.344 571.668 528.749 564.495 528.106 556.318C527.463 548.141 520.015 542.058 511.471 542.73C502.926 543.402 496.521 550.576 497.165 558.752C497.808 566.929 505.256 573.013 513.8 572.34Z" fill="#2B2A28"/>
<path d="M532.448 615.129C543.001 610.732 547.897 598.388 543.384 587.557C538.872 576.727 526.659 571.511 516.107 575.908C505.554 580.305 500.658 592.649 505.171 603.479C509.683 614.31 521.896 619.525 532.448 615.129Z" fill="#ED6F7A"/>
</g>
<path d="M524.065 660.157C519.338 646.215 520.893 637.711 528.936 621.667" stroke="#0082AA" stroke-width="7" stroke-linecap="round"/>
<path d="M652.105 633.651C652.608 633.189 653.315 632.927 654.071 632.922C654.827 632.916 655.57 633.169 656.137 633.624C656.703 634.079 657.047 634.698 657.092 635.347C657.137 635.995 656.88 636.619 656.377 637.081C653.915 639.345 651.29 641.478 648.53 643.474C597.071 679.01 516.005 670.877 464.911 633.024C462.039 630.908 459.3 628.741 456.606 626.45C456.054 625.981 455.733 625.354 455.71 624.706C455.688 624.058 455.968 623.442 456.488 622.994C457.007 622.546 457.725 622.302 458.481 622.317C459.239 622.331 459.974 622.603 460.525 623.071C463.113 625.272 465.745 627.355 468.505 629.388C517.459 665.842 596.183 673.409 644.714 639.672C647.318 637.789 649.79 635.779 652.105 633.651Z" fill="#076FA2"/>
<path d="M467.427 628.668L467.522 628.869L467.483 629.049C466.192 635.124 499.069 656.335 524.447 678.608C556.608 694.687 544.627 692.359 580.319 697.342C615.185 696.046 618.771 693.247 628.868 686.649C633.962 683.32 641.537 674.336 643.522 671.555C644.186 670.625 651.054 648.659 651.626 647.905C646.883 648.089 622.708 653.364 616.249 653.368C589.606 653.386 590.213 655.552 558.129 651.408C523.683 644.101 520.723 649.197 505.516 640.752C501.697 638.631 473.12 631.886 470.497 630.343C469.299 629.638 469.225 631.736 468.324 631.217C468.348 631.269 467.401 628.613 467.427 628.668Z" fill="#D20223" stroke="#076FA2" stroke-width="6"/>
<path d="M584.155 694.447C595.222 698.018 609.256 693.755 621.055 687.948C632.479 682.326 637 678.447 639.5 672.447C626 676.447 606.5 672.447 584.155 686.587C582.342 688.976 577.5 696.947 584.155 694.447Z" fill="#FF1863"/>
<path d="M505.281 640.012L505.326 640.031L505.374 640.047L512.382 642.319L512.422 642.332L512.463 642.342L518.643 643.918L518.668 643.925L523.581 644.971L521.491 654.788L520.864 656.469L518.13 657.551L515.73 657.962L512.492 657.515L509.563 656.891L506.564 655.536L503.726 653.244L501.11 649.766L499.883 645.275L499.249 640.88L499.903 637.807L505.281 640.012Z" fill="#FEFEFE" stroke="#0875A4" stroke-width="3"/>
<path d="M544.57 648.345L544.521 648.34L544.473 648.331L536.467 646.868L536.425 646.861L536.385 646.85L529.571 645.094L529.545 645.087L524.143 643.433L520.465 655.442L520.09 657.677L522.113 660.444L524.196 662.267L527.573 663.61L530.751 664.583L534.426 664.794L538.487 663.878L543.017 661.535L546.79 657.298L549.934 652.836L551.117 648.975L544.57 648.345Z" fill="#FEFEFE" stroke="#0578A5" stroke-width="3"/>
</g>
<defs>
<clipPath id="clip0_470_1340">
<rect width="1100" height="850" fill="white"/>
</clipPath>
<clipPath id="clip1_470_1340">
<rect width="165.973" height="82.2096" fill="white" transform="matrix(-0.979383 -0.202011 -0.202011 0.979383 854.494 754.11)"/>
</clipPath>
<clipPath id="clip2_470_1340">
<rect width="75.6303" height="189.562" fill="white" transform="translate(764.511 637.061) rotate(-128.918)"/>
</clipPath>
<clipPath id="clip3_470_1340">
<rect width="151" height="90" fill="white" transform="translate(476.445 702.977) rotate(1.55664)"/>
</clipPath>
<clipPath id="clip4_470_1340">
<rect width="73.4562" height="239.888" fill="white" transform="translate(654.613 749.618) rotate(-108.751)"/>
</clipPath>
<clipPath id="clip5_470_1340">
<rect width="196" height="148.189" fill="white" transform="translate(461.657 457.947) rotate(11.9394)"/>
</clipPath>
</defs>
</svg>
