<svg width="1100" height="850" viewBox="0 0 1100 850" fill="none" xmlns="http://www.w3.org/2000/svg">
<path d="M750.077 120.013C781.857 95.7194 807.883 92.4604 821.662 103.535C836.557 115.507 847.066 140.249 837.168 173.495C827.144 207.161 819.85 211.421 746.422 261.388L709.996 301.792L691.075 322.76C645.961 373.798 645.448 382.53 625.106 414.259C619.987 422.245 615.556 429.2 611.548 435.004C607.502 440.862 604.213 445.065 601.45 447.736C598.695 450.4 597.269 450.77 596.546 450.749C595.768 450.726 594.113 450.201 591.773 446.621L590.23 444.257L587.432 444.533C582.894 444.979 580.501 443.982 579.205 442.711C577.944 441.475 577.017 439.291 576.922 435.276C576.717 426.742 574.812 409.39 581.935 390.693C596.031 353.689 602.511 294.09 627.26 241.373C658.348 175.152 718.617 144.064 750.077 120.013Z" fill="#87CFE5" stroke="#0E6B96" stroke-width="12"/>
<path d="M361.402 60.8326C371.847 53.8909 383.522 51.7508 396.139 54.2059C408.973 56.7036 422.965 64.0211 437.17 76.3808C465.55 101.072 493.448 144.742 513.381 204.267C519.664 229.581 527.133 254.718 533.985 277.997C540.884 301.43 547.13 322.892 551.05 341.058C555.028 359.496 556.341 373.457 554.22 382.316C553.197 386.589 551.562 388.86 549.893 390.078C548.288 391.251 545.53 392.261 540.452 391.911L536.78 391.659L534.314 394.342C530.97 397.979 529.091 398.413 528.495 398.455C527.92 398.495 526.373 398.325 523.592 395.767C520.863 393.257 517.828 389.245 514.322 383.651C510.853 378.117 507.148 371.409 502.976 363.722C486.395 333.169 463.211 288.485 422.431 252.447L422.146 252.195L421.83 251.978L418.141 249.427C341.522 196.081 317.288 156.119 316.256 126.972C315.229 97.928 337.284 76.8609 361.402 60.8326Z" fill="#8BCDE5" stroke="#0E6B96" stroke-width="12"/>
<path d="M579.5 368C681.975 368 765 450.406 765 552C765 653.594 681.975 736 579.5 736C477.025 736 394 653.594 394 552C394 450.406 477.025 368 579.5 368Z" fill="#86D0E3" stroke="#0C74AB" stroke-width="7"/>
<g clip-path="url(#clip0_471_1811)">
<path d="M759.692 554.489C755.242 550.437 752.104 549.948 749.367 550.714C746.036 551.647 742.308 554.675 737.545 559.987C728.466 570.114 716.591 587.585 699.018 602.671L698.763 602.89L698.472 603.059C683.5 611.761 670.2 619.583 660.905 628.729C651.987 637.505 647.045 647.219 647.964 659.881C655.861 672.842 663.941 680.73 671.785 685.028C679.715 689.372 687.698 690.213 695.611 688.566C711.752 685.206 727.639 671.468 740.586 655.458L740.685 655.335L740.794 655.222C754.157 641.327 762.53 620.139 765.592 600.035C767.118 590.019 767.298 580.439 766.194 572.36C765.094 564.313 762.782 558.195 759.692 554.489Z" fill="#87CFE5" stroke="#0076B8" stroke-width="7"/>
<path d="M685.684 645.387C685.877 645.135 686.175 644.971 686.503 644.925C686.831 644.879 687.162 644.955 687.432 645.143C687.704 645.33 687.895 645.617 687.975 645.946C688.054 646.274 688.016 646.618 687.858 646.895C687.516 647.49 687.182 648.065 686.833 648.654C681.002 659.346 670.96 668.397 659.668 673.588C659.037 673.9 658.436 674.193 657.8 674.494C656.762 672.064 655.724 669.635 654.686 667.205C655.319 667 655.917 666.803 656.543 666.589C667.732 663.044 677.289 656.606 684.465 646.96C684.878 646.436 685.277 645.922 685.684 645.387Z" fill="#0074AB"/>
<path d="M704.222 665.194C704.442 664.958 704.762 664.82 705.101 664.801C705.439 664.784 705.77 664.887 706.031 665.098C706.291 665.309 706.463 665.613 706.521 665.954C706.579 666.293 706.517 666.641 706.339 666.91C706.013 667.399 705.703 667.86 705.371 668.346C699.741 677.015 691.683 684.626 683.192 690.532C682.717 690.876 682.264 691.203 681.788 691.544C680.939 692.154 679.895 692.368 678.858 692.096C677.824 691.827 676.881 691.094 676.265 690.101C675.648 689.108 675.415 687.948 675.642 686.918C675.868 685.884 676.536 685.065 677.473 684.599C677.987 684.342 678.477 684.098 678.987 683.839C688.113 679.408 696.169 673.974 703.064 666.432C703.459 666.014 703.832 665.618 704.222 665.194Z" fill="#007BA4"/>
</g>
<path d="M706.5 680C672 719 608 734.5 583 732C476 738 395.5 643.895 398 550.5C399.566 492 385 630 524 689C598.5 726.5 706.5 680 706.5 680Z" fill="#37B4CA"/>
<path d="M474.864 681.17L483.002 683.225L489.597 683L496.256 681.385L500.197 678.678L493.882 679.747L492.372 680.003L501.913 670.211L438.987 284.458L408.351 283.005L466.515 671.571L469.996 676.426L474.864 681.17Z" fill="#D3B256" stroke="#F1CD51"/>
<path d="M420.491 293.385L480.89 675.11" stroke="#F1CD51" stroke-width="21" stroke-linecap="round"/>
<path d="M408.193 288.032L439.011 287.562L431.438 238.411L479.595 255.499L487.625 252.051L492.928 246.61L503.629 233.83L519.269 216.581L524.184 200.152L515.052 200.537L481.248 235.228L472.778 234.932L464.864 229.872L495.909 193.818L492.901 184.92L486.325 184.48L450.532 221.212L436.844 218.482L429.057 210.895L456.648 174.79L455.138 167.352L445.343 168.416L412.533 202.087L402.535 200.964L394.021 195.321L403.716 177.582L416.501 160.866L413.697 154.156L404.501 155.804L376.949 184.08L368.856 183.398L361.872 178.581L372.733 162.642L382.727 145.195L380.822 139.361L373.518 140.864L359.535 156.413L348.407 171.428L342.194 170.015L338.001 165.93L345.012 151.544L357.594 132.64L357.346 125.105L350.406 125.636L326.544 150.125L321.985 178.172L398.371 227.407L408.193 288.032Z" fill="#B8BDC6"/>
<path d="M332.287 168.763C331.279 155.395 334.982 148.24 349.025 136.007" stroke="#B7B6AF" stroke-width="6" stroke-linecap="round"/>
<path d="M472.077 248.833C487.005 247.336 492.971 241.781 499.489 223.64" stroke="#B7B6AF" stroke-width="6" stroke-linecap="round"/>
<path d="M455.769 240.183C454.761 226.815 458.464 219.66 472.506 207.427" stroke="#B7B6AF" stroke-width="6" stroke-linecap="round"/>
<path d="M416.349 224.314C415.341 210.947 419.044 203.792 433.086 191.558" stroke="#B7B6AF" stroke-width="6" stroke-linecap="round"/>
<path d="M386.87 198.243C385.862 184.876 389.565 177.72 403.608 165.487" stroke="#B7B6AF" stroke-width="6" stroke-linecap="round"/>
<path d="M355.62 182.379C354.612 169.011 358.315 161.856 372.358 149.623" stroke="#B7B6AF" stroke-width="6" stroke-linecap="round"/>
<path opacity="0.77" d="M500.722 435.918L515.237 434.318L531.841 435.571L539.594 437.782L545.567 441.034L545.51 445.983L544.745 450.924L541.852 456.548L534.123 452.216L520.38 448.167L510.506 445.931L498.844 445.443L499.267 439.437L500.722 435.918Z" fill="#004F80"/>
<path opacity="0.7" d="M567.328 408.345L572.653 402.374L578.764 397.775L586.328 393.802L596.342 389.334L605.732 386.318L610.331 392.43L601.809 398.229L592.289 405.147L585.179 410.866L580.519 416.09L575.195 422.06L569.97 417.401L567.237 412.954L567.328 408.345Z" fill="#014C83"/>
<g clip-path="url(#clip1_471_1811)">
<path d="M504.059 491.254C543.814 492.01 548.056 473.555 559.22 506.71C565.519 525.417 565.913 529.889 562.872 542.328C559.874 554.593 551.841 564.002 536.866 569.045C514.684 576.514 488.359 556.14 476.973 522.325C465.586 488.511 464.304 490.499 504.059 491.254Z" fill="#FEFEFE" stroke="#0F79AB" stroke-width="6"/>
<path d="M549.956 528.231C557.717 522.786 559.554 512.021 554.058 504.186C548.562 496.352 537.815 494.414 530.054 499.858C522.292 505.302 520.455 516.067 525.951 523.902C531.447 531.737 542.194 533.675 549.956 528.231Z" fill="#2B2A28"/>
<path d="M590.933 428.081C602.593 425.015 615.166 429.005 626.106 438.26C637.043 447.512 646.159 461.897 650.673 479.066C655.758 498.405 656.617 514.893 652.48 527.451C648.411 539.802 639.387 548.725 623.736 552.841C612.08 555.905 599.909 551.961 589.357 542.713C578.792 533.455 570.001 518.978 565.402 501.486C560.802 483.994 561.336 467.065 565.981 453.808C570.62 440.566 579.277 431.146 590.933 428.081Z" fill="#FEFEFE" stroke="#0F79AB" stroke-width="6"/>
<path d="M607.004 496.6C609.994 505.479 605.95 514.855 597.307 517.765C588.664 520.675 579.233 515.837 576.243 506.958C573.254 498.08 577.837 488.522 586.48 485.612C596.871 484.351 603.891 487.356 607.004 496.6Z" fill="#2B2A28"/>
</g>
<g clip-path="url(#clip2_471_1811)">
<path d="M385.968 600.02C390.527 601.794 393.438 600.76 395.824 598.706C398.726 596.207 401.721 591.496 405.36 584.083C412.298 569.952 420.828 547.392 434.837 524.399L435.04 524.066L435.282 523.763C447.751 508.178 458.815 494.246 466.075 480.958C473.04 468.208 476.276 456.462 473.814 444.684C464.981 435.967 456.635 432.233 448.963 431.851C441.208 431.465 433.855 434.486 426.886 439.873C412.67 450.863 400.018 471.747 390.326 493.411L390.252 493.578L390.168 493.739C379.827 513.562 374.952 538.028 374.758 558.899C374.661 569.297 375.729 578.628 377.77 585.895C379.802 593.132 382.687 597.926 385.968 600.02Z" fill="#87CFE5" stroke="#0076B8" stroke-width="7"/>
<path d="M441.445 476.777C441.303 477.113 441.054 477.414 440.762 477.616C440.47 477.817 440.16 477.903 439.891 477.851C439.62 477.801 439.41 477.616 439.295 477.337C439.181 477.058 439.171 476.708 439.279 476.365C439.512 475.627 439.741 474.912 439.983 474.176C443.9 461.058 451.85 447.504 461.43 437.074C461.962 436.471 462.47 435.9 463.009 435.303C464.264 437.15 465.518 438.996 466.773 440.843C466.224 441.345 465.706 441.822 465.166 442.328C455.467 451.12 447.622 461.92 442.35 474.673C442.042 475.378 441.746 476.065 441.445 476.777Z" fill="#0074AB"/>
<path d="M422.075 466.561C421.907 466.894 421.634 467.181 421.329 467.362C421.023 467.541 420.71 467.601 420.446 467.522C420.183 467.443 419.988 467.232 419.891 466.931C419.796 466.631 419.806 466.266 419.934 465.921C420.167 465.293 420.388 464.699 420.628 464.071C424.622 453.002 430.957 441.789 437.903 432.015C438.29 431.455 438.659 430.921 439.048 430.364C439.739 429.367 440.659 428.66 441.635 428.425C442.609 428.188 443.558 428.443 444.245 429.105C444.932 429.767 445.293 430.775 445.22 431.878C445.147 432.985 444.646 434.096 443.856 434.995C443.423 435.49 443.01 435.961 442.58 436.454C434.867 445.111 428.255 454.222 422.967 464.811C422.663 465.403 422.375 465.964 422.075 466.561Z" fill="#007BA4"/>
</g>
<path d="M577.689 594.343C568.329 581.818 566.773 572.51 568.616 553.026" stroke="#0082AA" stroke-width="7" stroke-linecap="round"/>
<path d="M674.173 523.676C674.443 523.022 674.961 522.502 675.613 522.232C676.265 521.961 676.998 521.962 677.652 522.233C678.305 522.505 678.824 523.025 679.095 523.68C679.367 524.334 679.368 525.07 679.099 525.724C677.779 528.929 676.273 532.057 674.601 535.09C642.816 589.899 569.771 609.938 512.007 588.723C508.764 587.543 505.617 586.263 502.466 584.84C501.821 584.548 501.318 584.012 501.066 583.35C500.815 582.687 500.836 581.952 501.125 581.307C501.414 580.661 501.947 580.157 502.607 579.907C503.268 579.656 504.001 579.679 504.645 579.97C507.673 581.338 510.697 582.568 513.813 583.702C569.225 604.222 640.041 584.419 669.937 532.497C671.515 529.635 672.933 526.69 674.173 523.676Z" fill="#076FA2"/>
<path d="M551.433 593.889L551.495 593.888L551.559 593.881L560.812 592.83L560.865 592.824L560.917 592.813L568.808 591.271L568.84 591.264L574.985 589.74L578.814 605.174L579.169 607.983L576.796 611.228L574.373 613.303L570.476 614.656L566.814 615.564L562.614 615.464L558.005 613.912L552.9 610.515L548.71 604.802L545.242 598.861L544.043 594.03L551.433 593.889Z" fill="#FEFEFE" stroke="#0875A4" stroke-width="3"/>
<path d="M602.958 585.987L602.899 586.007L602.838 586.021L592.822 588.397L592.77 588.409L592.718 588.417L583.935 589.77L583.902 589.776L576.806 590.507L578.625 608.153L579.322 611.272L583.067 613.801L586.403 615.065L590.995 615.011L595.169 614.581L599.534 612.888L603.776 609.519L607.837 604.035L610.063 596.485L611.446 588.979L610.861 583.306L602.958 585.987Z" fill="#FEFEFE" stroke="#0578A5" stroke-width="3"/>
<path d="M573.746 560.212C584.214 556.687 589.624 544.696 585.83 533.428C582.036 522.16 570.474 515.884 560.006 519.409C549.538 522.933 544.128 534.925 547.922 546.193C551.716 557.46 563.278 563.737 573.746 560.212Z" fill="#ED6F7A"/>
<g clip-path="url(#clip3_471_1811)">
<path d="M459 716C477.453 716 487.418 721.777 492.985 729.291C498.752 737.076 500.5 747.636 500.5 758.5C500.5 769.729 499.623 778.38 492.348 784.753C484.743 791.415 469.12 796.5 436.501 796.5C414.107 796.5 398.008 795.432 386.449 793.533C374.816 791.622 368.242 788.939 364.485 786.064C360.994 783.392 359.645 780.333 359.114 776.492C358.834 774.466 358.79 772.239 358.832 769.693C358.871 767.301 359.001 764.305 359.001 761.5C359.001 758.01 361.71 753.248 368.266 747.682C374.594 742.307 383.607 736.959 394.019 732.206C414.892 722.677 440.368 716 459 716Z" fill="#87CFE5" stroke="#0178B2" stroke-width="9"/>
<path d="M495.614 745.952C506.614 788.952 473.16 794 434.5 794C395.84 794 374 791 368.5 784C355.5 778 409.115 782.952 437.114 779.952C522.114 779.952 476 703 495.614 745.952Z" fill="#31A7BA"/>
</g>
<g clip-path="url(#clip4_471_1811)">
<path d="M634.755 719.712C616.823 715.358 605.777 718.621 598.594 724.609C591.153 730.814 586.963 740.663 584.4 751.221C581.751 762.133 580.562 770.747 586.128 778.656C591.946 786.924 605.929 795.551 637.627 803.247C659.389 808.531 675.286 811.291 686.966 812.173C698.722 813.061 705.744 812.004 710.072 810.097C714.095 808.324 716.128 805.669 717.55 802.062C718.3 800.159 718.868 798.006 719.428 795.522C719.954 793.188 720.535 790.246 721.197 787.52C722.02 784.129 720.511 778.862 715.454 771.906C710.572 765.19 703.076 757.866 694.079 750.791C676.043 736.607 652.862 724.107 634.755 719.712Z" fill="#87CFE5" stroke="#0178B2" stroke-width="9"/>
<path d="M592.108 740.18C571.274 779.371 602.592 792.17 640.161 801.291C677.73 810.412 699.661 812.649 706.657 807.144C720.706 804.381 667.437 796.543 640.935 787.022C558.335 766.968 621.302 703.068 592.108 740.18Z" fill="#31A7BA"/>
</g>
<defs>
<clipPath id="clip0_471_1811">
<rect width="86.3952" height="162.483" fill="white" transform="matrix(-0.651353 -0.758775 -0.758775 0.651353 808.562 605.554)"/>
</clipPath>
<clipPath id="clip1_471_1811">
<rect width="196" height="148.189" fill="white" transform="translate(452 455.548) rotate(-18.6099)"/>
</clipPath>
<clipPath id="clip2_471_1811">
<rect width="69.6706" height="188.892" fill="white" transform="matrix(0.853984 0.520299 0.520299 -0.853984 335.053 574.199)"/>
</clipPath>
<clipPath id="clip3_471_1811">
<rect width="151" height="90" fill="white" transform="translate(354 711)"/>
</clipPath>
<clipPath id="clip4_471_1811">
<rect width="151" height="90" fill="white" transform="matrix(-0.97177 -0.235931 -0.235931 0.97177 737.971 739.626)"/>
</clipPath>
</defs>
</svg>
