<svg width="1100" height="850" viewBox="0 0 1100 850" fill="none" xmlns="http://www.w3.org/2000/svg">
<g clip-path="url(#clip0_471_2196)">
<path d="M550.005 103.458C562.739 65.5375 582.481 48.2676 600.098 49.7313C619.143 51.3136 641.702 65.9325 652.11 99.0226C662.65 132.53 658.991 140.144 626.116 222.652L618.551 276.523L614.61 304.49C605.797 372.036 610.26 379.559 611.165 417.237C611.394 426.721 611.615 434.964 611.544 442.017C611.471 449.137 611.098 454.461 610.303 458.22C609.512 461.97 608.537 463.075 607.927 463.463C607.269 463.879 605.604 464.37 601.66 462.713L599.059 461.619L596.894 463.414C593.384 466.323 590.843 466.836 589.057 466.509C587.321 466.19 585.33 464.9 583.004 461.627C578.057 454.67 566.764 441.357 562.2 421.877C553.166 383.323 525.173 330.31 516.17 272.773C504.861 200.497 537.399 140.999 550.005 103.458Z" fill="#87CFE5" stroke="#0E6B96" stroke-width="12"/>
<path d="M274.21 109.052C283.335 100.449 294.482 96.3703 307.332 96.6627C320.404 96.9602 335.43 101.813 351.516 111.601C383.652 131.152 418.515 169.492 448.201 224.804C458.663 248.696 470.264 272.214 480.943 294.003C491.694 315.937 501.47 336.039 508.398 353.283C515.428 370.787 519.076 384.326 518.48 393.417C518.192 397.801 516.964 400.314 515.524 401.796C514.139 403.223 511.591 404.684 506.527 405.195L502.865 405.566L500.887 408.626C498.204 412.775 496.425 413.52 495.845 413.662C495.285 413.799 493.731 413.892 490.559 411.839C487.446 409.825 483.777 406.383 479.378 401.46C475.026 396.591 470.243 390.603 464.834 383.729C443.339 356.411 412.951 316.276 366.678 287.631L366.355 287.431L366.007 287.27L361.941 285.378C277.423 245.717 246.796 210.413 240.865 181.857C234.954 153.403 253.14 128.918 274.21 109.052Z" fill="#8BCDE5" stroke="#0E6B96" stroke-width="12"/>
<g clip-path="url(#clip1_471_2196)">
<path d="M671.099 705.621C654.307 697.971 642.844 699.096 634.662 703.626C626.187 708.32 620.218 717.205 615.714 727.091C611.059 737.31 608.271 745.546 612.249 754.362C616.408 763.577 628.517 774.681 658.201 788.205C678.58 797.489 693.673 803.191 704.979 806.255C716.357 809.339 723.453 809.623 728.062 808.564C732.348 807.58 734.844 805.355 736.919 802.08C738.013 800.352 738.977 798.344 739.994 796.01C740.95 793.817 742.075 791.036 743.237 788.484C744.684 785.308 744.193 779.851 740.535 772.068C737.004 764.554 731.02 755.95 723.515 747.308C708.47 729.983 688.055 713.345 671.099 705.621Z" fill="#87CFE5" stroke="#0178B2" stroke-width="9"/>
<path d="M625.362 717.698C597.525 752.268 625.876 770.732 661.057 786.759C696.239 802.787 717.357 809.111 725.264 805.021C739.582 804.95 688.739 787.229 664.503 772.891C587.151 737.652 661.018 686.743 625.362 717.698Z" fill="#31A7BA"/>
</g>
<path d="M585.501 366.001C687.976 366.001 771.001 448.407 771.001 550.001C771.001 651.595 687.976 734.001 585.501 734.001C483.026 734.001 400.001 651.595 400.001 550.001C400.001 448.407 483.026 366.001 585.501 366.001Z" fill="#86D0E3" stroke="#0C74AB" stroke-width="7"/>
<path d="M712.501 678.001C678.001 717.001 614.001 732.501 589.001 730.001C482.001 736.001 401.501 641.896 404.001 548.501C405.567 490.001 391.001 628.001 530.001 687.001C604.501 724.501 712.501 678.001 712.501 678.001Z" fill="#37B4CA"/>
<path opacity="0.77" d="M547.315 386.918L559.167 376.613L574.684 367.513L582.964 364.681L590.327 363.848L593.423 368.198L595.886 372.975L596.896 379.654L587.29 380.622L572.532 385.529L562.356 389.641L551.706 396.375L548.262 390.879L547.315 386.918Z" fill="#004F80"/>
<path d="M575.261 433.975C599.546 423.857 629.367 437.872 640.928 465.62C647.452 481.276 649.329 495.213 645.823 506.744C642.365 518.114 633.492 527.725 617.159 534.53C592.966 544.61 564.741 530.577 552.95 502.278C541.158 473.977 551.069 444.055 575.261 433.975Z" fill="#FEFEFE" stroke="#0F79AB" stroke-width="6"/>
<path d="M662.154 396.978C674.095 392.003 687.66 393.471 700.013 400.165C712.361 406.857 723.285 418.685 729.645 433.95C736.81 451.145 739.272 466.432 736.121 478.94C733.022 491.242 724.401 501.228 708.373 507.906C696.436 512.879 683.296 511.381 671.351 504.624C659.393 497.86 648.801 485.887 642.321 470.334C635.84 454.782 634.798 438.83 638.415 425.576C642.028 412.337 650.217 401.952 662.154 396.978Z" fill="#FEFEFE" stroke="#0F79AB" stroke-width="6"/>
<path d="M651.001 550.256C658.108 536.329 658.069 526.891 652.958 508" stroke="#0082AA" stroke-width="7" stroke-linecap="round"/>
<path d="M666.449 523.181C677.002 518.785 681.898 506.44 677.385 495.61C672.873 484.78 660.66 479.564 650.108 483.961C639.555 488.358 634.659 500.702 639.172 511.532C643.684 522.363 655.897 527.578 666.449 523.181Z" fill="#ED6F7A"/>
<path d="M676.51 453.276C680.025 461.713 676.594 471.169 668.2 474.667C659.806 478.164 650.151 474.16 646.636 465.724C643.12 457.287 647.076 447.612 655.47 444.114C665.699 442.093 672.85 444.492 676.51 453.276Z" fill="#2B2A28"/>
<path d="M611.265 488.426C619.513 485.178 623.439 475.537 620.034 466.891C616.629 458.246 607.183 453.87 598.935 457.119C590.687 460.367 586.761 470.008 590.166 478.654C593.57 487.299 603.017 491.675 611.265 488.426Z" fill="#2B2A28"/>
<path opacity="0.7" d="M625.67 394.877L631.54 387.662L638.488 382.074L647.248 377.21L658.92 371.718L669.973 367.971L676.095 375.201L666.35 382.26L655.503 390.672L647.454 397.613L642.318 403.926L636.448 411.141L629.706 405.655L625.991 400.384L625.67 394.877Z" fill="#014C83"/>
<path d="M328.595 672.493C334.307 665.092 343.362 658.97 354.591 654.338C365.782 649.722 378.875 646.695 392.339 645.314C419.448 642.532 447.122 646.501 463.275 656.566C474.498 663.558 484.376 675.223 490.459 687.152C493.492 693.099 495.51 698.972 496.322 704.211C496.791 707.231 496.843 709.936 496.523 712.284C496.441 712.215 496.357 712.146 496.274 712.075C494.503 710.572 492.543 708.739 490.107 706.522C485.301 702.15 479.088 696.703 470.673 691.242C453.791 680.284 428.375 669.471 387.783 666.366L387.329 666.332L386.877 666.404C368.573 669.373 354.842 671.635 344.694 673.161C335.655 674.519 329.681 675.257 325.931 675.421C326.623 674.647 327.43 673.772 328.355 672.776L328.481 672.641L328.595 672.493Z" fill="#91E1E6" stroke="#0082AA" stroke-width="8"/>
<path d="M481.579 679.073C489.18 687.34 484.614 684.938 489.376 691.63C468.178 670.45 494.119 688.384 492.426 703.015C493.29 703.428 484.64 695.979 473.833 689.704C459.74 661.449 452.586 647.545 481.579 679.073Z" fill="#2FC7CE"/>
<path d="M318.33 702.391C313.785 697.432 312.621 693.386 313.853 690.062L313.899 689.938L313.934 689.811C315.147 685.375 318.919 681.059 325.263 677.262C331.566 673.491 340.072 670.443 350.045 668.423C369.985 664.386 395.255 664.566 419.181 670.758C443.256 676.988 463.926 686.78 477.757 697.584C484.676 702.988 489.765 708.553 492.762 713.933C495.745 719.29 496.581 724.305 495.338 728.851C492.845 737.97 482.177 744.763 464.642 747.502C447.411 750.195 424.764 748.715 400.702 742.494C380.422 736.344 356.646 727.266 338.904 717.346C329.996 712.366 322.812 707.283 318.33 702.391Z" fill="#2FC7CE" stroke="#0082AA" stroke-width="6"/>
<path d="M554.863 564.806L554.991 564.977L555 565.161C555.295 571.366 588.326 583.79 615.184 599.096C646.419 606.725 635.628 607.431 667.325 603.435C696.867 593.56 699.291 589.962 706.411 581.073C710.003 576.589 714.414 566.011 715.472 562.825C715.826 561.761 716.638 538.779 716.954 537.908C712.936 539.258 693.462 550.346 687.935 551.947C665.136 558.55 666.155 560.499 637.738 564.416C606.572 565.852 605.214 571.521 590.251 567.098C586.492 565.987 560.478 566.517 557.877 565.67C556.69 565.283 557.11 567.334 556.219 567.054C556.252 567.099 554.829 564.759 554.863 564.806Z" fill="#D20223" stroke="#076FA2" stroke-width="6"/>
<path d="M682.369 595.623C691.292 595.379 698.349 591.486 705.145 584.035C711.724 576.821 715.21 565.339 709.826 563.894C696.682 566.849 685.837 570.962 678.374 592.734C677.753 594.999 677.653 596.615 682.369 595.623Z" fill="#FF1863"/>
<path d="M606.653 567.445L606.719 567.444L606.786 567.437L616.656 566.32L616.713 566.313L616.768 566.302L625.185 564.667L625.22 564.66L631.774 563.045L635.849 579.362L636.227 582.332L633.694 585.765L631.109 587.959L626.951 589.392L623.045 590.355L618.565 590.25L613.651 588.613L608.208 585.023L603.742 578.985L600.046 572.705L598.77 567.598L606.653 567.445Z" fill="#FEFEFE" stroke="#0875A4" stroke-width="3"/>
<path d="M661.611 559.062L661.548 559.083L661.483 559.098L650.799 561.616L650.744 561.629L650.688 561.637L641.32 563.073L641.284 563.078L633.716 563.856L635.647 582.512L636.388 585.809L640.381 588.482L643.938 589.816L648.837 589.757L653.288 589.3L657.944 587.508L662.47 583.944L666.805 578.143L669.183 570.158L670.663 562.221L670.042 556.223L661.611 559.062Z" fill="#FEFEFE" stroke="#0578A5" stroke-width="3"/>
<path d="M417.642 588.92L416.124 597.175L416.78 603.742L418.828 610.281L421.787 614.037L420.307 607.805L419.953 606.314L430.35 615.193L914.365 504.384L908.637 478.498L426.671 579.961L422.055 583.753L417.642 588.92Z" fill="#D3B256" stroke="#F1CD51"/>
<path d="M905.019 489.1L431.007 599.539" stroke="#F1CD51" stroke-width="21" stroke-linecap="round"/>
<path d="M909.565 476.486L912.054 507.207L960.603 496.43L946.708 545.603L950.674 553.39L956.452 558.325L969.905 568.165L988.142 582.641L1004.86 586.469L1003.88 577.382L967.043 545.924L966.783 537.453L971.314 529.224L1009.32 557.839L1018.01 554.256L1018.02 547.664L979.016 514.356L980.843 500.518L987.904 492.251L1025.74 517.416L1033.06 515.422L1031.36 505.718L995.61 475.185L996.075 465.134L1001.15 456.269L1019.48 464.781L1037 476.443L1043.51 473.206L1041.27 464.137L1011.25 438.497L1011.4 430.377L1015.75 423.092L1032.36 432.885L1050.43 441.714L1056.12 439.431L1054.14 432.242L1037.71 419.308L1022 409.188L1023 402.895L1026.81 398.444L1041.62 404.497L1061.31 415.813L1068.81 415.071L1067.82 408.181L1041.83 385.976L1013.54 383.264L969.416 462.713L909.565 476.486Z" fill="#B8BDC6"/>
<path d="M1023.6 392.928C1036.88 391.047 1044.26 394.273 1057.39 407.483" stroke="#B7B6AF" stroke-width="6" stroke-linecap="round"/>
<path d="M952.866 537.665C955.338 552.463 961.273 558.052 979.801 563.367" stroke="#B7B6AF" stroke-width="6" stroke-linecap="round"/>
<path d="M960.431 520.825C973.703 518.943 981.086 522.169 994.213 535.38" stroke="#B7B6AF" stroke-width="6" stroke-linecap="round"/>
<path d="M973.681 480.449C986.953 478.568 994.336 481.794 1007.46 495.004" stroke="#B7B6AF" stroke-width="6" stroke-linecap="round"/>
<path d="M997.765 449.326C1011.04 447.444 1018.42 450.67 1031.55 463.881" stroke="#B7B6AF" stroke-width="6" stroke-linecap="round"/>
<path d="M1011.55 417.103C1024.82 415.221 1032.2 418.448 1045.33 431.658" stroke="#B7B6AF" stroke-width="6" stroke-linecap="round"/>
<g clip-path="url(#clip2_471_2196)">
<path d="M414.509 484.096C418.619 481.487 421.383 481.712 423.727 482.949C426.579 484.454 429.66 487.868 433.513 493.489C440.859 504.203 450.228 521.902 464.702 538.704L464.912 538.947L465.156 539.155C477.722 549.851 488.879 559.432 496.469 569.337C503.751 578.84 507.512 588.336 505.994 599.184C498.374 608.845 490.882 614.046 483.798 616.164C476.636 618.305 469.625 617.38 462.818 614.302C448.93 608.021 435.85 592.744 425.464 576.097L425.385 575.969L425.296 575.848C414.426 560.959 408.322 540.747 406.788 522.583C406.023 513.533 406.408 505.143 407.828 498.328C409.242 491.54 411.604 486.686 414.509 484.096Z" fill="#87CFE5" stroke="#0076B8" stroke-width="7"/>
<path d="M473.915 578.716C473.761 578.456 473.511 578.251 473.227 578.143C472.944 578.035 472.651 578.033 472.404 578.14C472.157 578.247 471.974 578.457 471.886 578.728C471.798 578.998 471.812 579.305 471.934 579.579C472.198 580.169 472.457 580.74 472.729 581.326C477.21 591.859 485.456 601.835 495.011 608.706C495.543 609.109 496.051 609.489 496.589 609.884C497.632 607.981 498.675 606.078 499.717 604.175C499.177 603.865 498.666 603.569 498.132 603.253C488.574 597.839 480.603 590.241 474.889 580.341C474.559 579.798 474.24 579.267 473.915 578.716Z" fill="#0074AB"/>
<path d="M456.628 592.136C456.451 591.884 456.179 591.698 455.885 591.611C455.59 591.526 455.296 591.547 455.057 591.677C454.818 591.807 454.65 592.036 454.581 592.321C454.511 592.605 454.545 592.921 454.685 593.193C454.943 593.687 455.186 594.153 455.449 594.645C459.869 603.374 466.466 611.683 473.537 618.594C473.932 618.993 474.309 619.373 474.705 619.768C475.411 620.477 476.31 620.88 477.229 620.858C478.147 620.838 479.01 620.395 479.604 619.657C480.198 618.919 480.466 617.956 480.327 617.011C480.188 616.063 479.652 615.21 478.861 614.609C478.428 614.278 478.014 613.964 477.584 613.633C469.875 607.874 463.156 601.464 457.569 593.456C457.248 593.01 456.945 592.587 456.628 592.136Z" fill="#007BA4"/>
</g>
<path d="M729.568 637.801C726.51 634.435 726.501 631.441 727.574 628.516C728.881 624.957 732.143 620.454 737.619 614.322C748.058 602.634 754.965 594.426 771.075 572.986L775.016 563.987L779.035 554.495C788.997 537.316 749.202 537.264 762.499 509.344C771.691 498.17 795.96 443.275 836.878 492.2C847.865 516.697 847.92 517.686 848.95 524.965C850.151 533.451 850.794 538.412 847.936 547.58C842.656 564.522 838.935 572.723 823.767 592.327L823.642 592.458L823.524 592.596C809.076 609.535 788.705 623.419 770.052 631.735C760.759 635.878 752.047 638.568 744.874 639.587C737.73 640.602 732.502 639.904 729.568 637.801Z" fill="#87CFE5" stroke="#0076B8" stroke-width="7"/>
<path d="M795.092 525.45C795.264 525.703 795.529 525.896 795.821 525.991C796.112 526.085 796.407 526.072 796.648 525.951C796.889 525.831 797.059 525.61 797.13 525.334C797.201 525.058 797.167 524.749 797.026 524.48C796.722 523.9 796.425 523.339 796.113 522.764C790.922 512.396 781.985 502.782 771.935 496.359C771.374 495.981 770.839 495.625 770.272 495.255C769.349 497.223 768.426 499.191 767.502 501.159C768.066 501.443 768.599 501.715 769.155 502.005C779.113 506.962 787.619 514.197 794.007 523.865C794.375 524.395 794.73 524.912 795.092 525.45Z" fill="#0074AB"/>
<path d="M811.516 506.591C811.627 506.841 811.838 507.043 812.095 507.157C812.351 507.27 812.631 507.285 812.882 507.195C813.134 507.106 813.339 506.918 813.462 506.67C813.584 506.422 813.613 506.134 813.535 505.872C813.365 505.31 813.197 504.766 813.019 504.207C810.206 494.175 803.707 484.498 795.52 477.663C795.066 477.264 794.633 476.886 794.173 476.494C792.907 478.225 791.641 479.956 790.375 481.687C790.85 482 791.297 482.299 791.764 482.618C800.16 488.093 806.728 495.537 810.811 505.031C811.052 505.553 811.282 506.062 811.516 506.591Z" fill="#0074AB"/>
</g>
<defs>
<clipPath id="clip0_471_2196">
<rect width="1100" height="850" fill="white"/>
</clipPath>
<clipPath id="clip1_471_2196">
<rect width="151" height="90" fill="white" transform="matrix(-0.910015 -0.414576 -0.414576 0.910015 768.724 744.601)"/>
</clipPath>
<clipPath id="clip2_471_2196">
<rect width="69.6706" height="155.58" fill="white" transform="translate(369 518.472) rotate(-40.7434)"/>
</clipPath>
</defs>
</svg>
