<svg width="1100" height="850" viewBox="0 0 1100 850" fill="none" xmlns="http://www.w3.org/2000/svg">
<path d="M750.077 120.013C781.857 95.7194 807.883 92.4604 821.662 103.535C836.557 115.507 847.066 140.249 837.168 173.495C827.144 207.161 819.85 211.421 746.422 261.388L709.996 301.792L691.075 322.76C645.961 373.798 645.448 382.53 625.106 414.259C619.987 422.245 615.556 429.2 611.548 435.004C607.502 440.862 604.213 445.065 601.45 447.736C598.695 450.4 597.269 450.77 596.546 450.749C595.768 450.726 594.113 450.201 591.773 446.621L590.23 444.257L587.432 444.533C582.894 444.979 580.501 443.982 579.205 442.711C577.944 441.475 577.017 439.291 576.922 435.276C576.717 426.742 574.812 409.39 581.935 390.693C596.031 353.689 602.511 294.09 627.26 241.373C658.348 175.152 718.617 144.064 750.077 120.013Z" fill="#87CFE5" stroke="#0E6B96" stroke-width="12"/>
<path d="M361.402 60.8326C371.847 53.8909 383.522 51.7508 396.139 54.2059C408.973 56.7036 422.965 64.0211 437.17 76.3808C465.55 101.072 493.448 144.742 513.381 204.267C519.664 229.581 527.133 254.718 533.985 277.997C540.884 301.43 547.13 322.892 551.05 341.058C555.028 359.496 556.341 373.457 554.22 382.316C553.197 386.589 551.562 388.86 549.893 390.078C548.288 391.251 545.53 392.261 540.452 391.911L536.78 391.659L534.314 394.342C530.97 397.979 529.091 398.413 528.495 398.455C527.92 398.495 526.373 398.325 523.592 395.767C520.863 393.257 517.828 389.245 514.322 383.651C510.853 378.117 507.148 371.409 502.976 363.722C486.395 333.169 463.211 288.485 422.431 252.447L422.146 252.195L421.83 251.978L418.141 249.427C341.522 196.081 317.288 156.119 316.256 126.972C315.229 97.928 337.284 76.8609 361.402 60.8326Z" fill="#8BCDE5" stroke="#0E6B96" stroke-width="12"/>
<path d="M579.5 367.999C681.975 367.999 765 450.405 765 551.999C765 653.593 681.975 735.999 579.5 735.999C477.025 735.999 394 653.593 394 551.999C394 450.405 477.025 367.999 579.5 367.999Z" fill="#86D0E3" stroke="#0C74AB" stroke-width="7"/>
<path d="M706.5 679.999C672 718.999 608 734.499 583 731.999C476 737.999 395.5 643.894 398 550.499C399.566 491.999 385 629.999 524 688.999C598.5 726.499 706.5 679.999 706.5 679.999Z" fill="#37B4CA"/>
<path d="M428.609 713.526L436.747 715.581L443.342 715.356L450.001 713.742L453.943 711.035L447.627 712.103L446.117 712.359L455.658 702.567L392.732 316.814L362.096 315.361L420.26 703.927L423.741 708.783L428.609 713.526Z" fill="#D3B256" stroke="#F1CD51"/>
<path d="M374.236 325.741L434.635 707.466" stroke="#F1CD51" stroke-width="21" stroke-linecap="round"/>
<path d="M361.938 320.388L392.756 319.918L385.183 270.767L433.341 287.855L441.37 284.408L446.673 278.966L457.374 266.187L473.014 248.937L477.929 232.509L468.797 232.893L434.993 267.585L426.523 267.289L418.609 262.229L449.654 226.175L446.646 217.277L440.07 216.836L404.277 253.568L390.589 250.839L382.802 243.251L410.393 207.147L408.883 199.708L399.088 200.773L366.278 234.444L356.28 233.321L347.766 227.677L357.461 209.939L370.246 193.223L367.442 186.513L358.246 188.161L330.694 216.437L322.601 215.754L315.617 210.938L326.478 194.999L336.472 177.552L334.567 171.717L327.263 173.221L313.28 188.769L302.152 203.785L295.939 202.372L291.746 198.286L298.757 183.9L311.339 164.997L311.091 157.462L304.151 157.993L280.289 182.481L275.73 210.528L352.116 259.764L361.938 320.388Z" fill="#B8BDC6"/>
<path d="M286.032 201.119C285.024 187.752 288.728 180.596 302.77 168.363" stroke="#B7B6AF" stroke-width="6" stroke-linecap="round"/>
<path d="M425.822 281.189C440.75 279.693 446.716 274.137 453.235 255.996" stroke="#B7B6AF" stroke-width="6" stroke-linecap="round"/>
<path d="M409.514 272.539C408.506 259.172 412.209 252.016 426.251 239.783" stroke="#B7B6AF" stroke-width="6" stroke-linecap="round"/>
<path d="M370.094 256.671C369.086 243.303 372.789 236.148 386.831 223.915" stroke="#B7B6AF" stroke-width="6" stroke-linecap="round"/>
<path d="M340.615 230.6C339.607 217.232 343.311 210.077 357.353 197.844" stroke="#B7B6AF" stroke-width="6" stroke-linecap="round"/>
<path d="M309.365 214.735C308.357 201.368 312.061 194.212 326.103 181.979" stroke="#B7B6AF" stroke-width="6" stroke-linecap="round"/>
<path d="M379.133 616.455C385.005 618.5 400.829 618.112 402.999 616.455C405.639 614.438 396.484 609.943 398.499 603.5C402.34 591.218 377.632 562.239 387.065 542.505L387.202 542.22L387.394 541.965C397.268 528.865 405.998 517.146 410.47 505.664C414.762 494.648 414.993 484.203 408.546 473.203C395.571 464.411 384.673 460.222 375.58 459.162C366.388 458.091 358.697 460.173 352.173 464.455C338.863 473.191 330.379 491.121 325.597 510.039L325.56 510.184L325.51 510.324C319.409 527.498 323.82 543.761 329.91 562.833C332.945 572.334 343.537 585.451 348.125 592.286C352.694 599.094 374.66 614.236 379.133 616.455Z" fill="#87CFE5" stroke="#0076B8" stroke-width="7"/>
<path d="M380.382 499.558C380.317 499.853 380.117 500.105 379.837 500.263C379.557 500.42 379.22 500.469 378.888 500.397C378.557 500.326 378.254 500.138 378.036 499.872C377.818 499.606 377.701 499.285 377.723 498.981C377.772 498.328 377.824 497.695 377.884 497.044C378.497 485.408 383.697 473.747 391.75 465.094C392.191 464.592 392.612 464.116 393.063 463.621C395.089 465.426 397.116 467.231 399.143 469.036C398.654 469.444 398.192 469.833 397.713 470.246C389.025 477.39 383.114 486.541 380.804 497.718C380.657 498.334 380.519 498.935 380.382 499.558Z" fill="#0074AB"/>
<path d="M354.622 488.42C354.526 488.709 354.294 488.946 353.991 489.083C353.688 489.219 353.34 489.244 353.007 489.148C352.675 489.051 352.383 488.84 352.179 488.556C351.976 488.273 351.878 487.94 351.923 487.636C352.006 487.083 352.085 486.56 352.175 486.008C353.499 476.254 357.517 466.584 362.687 458.287C362.97 457.811 363.241 457.357 363.527 456.883C364.034 456.036 364.897 455.474 365.967 455.35C367.035 455.223 368.223 455.544 369.228 456.214C370.233 456.883 370.96 457.838 371.208 458.84C371.458 459.845 371.208 460.815 370.556 461.565C370.199 461.977 369.857 462.37 369.504 462.782C363.099 469.985 358.119 477.706 355.137 486.902C354.96 487.415 354.793 487.902 354.622 488.42Z" fill="#007BA4"/>
<g clip-path="url(#clip0_471_1757)">
<path d="M775.676 565.911C770.942 562.195 767.777 561.936 765.103 562.9C761.849 564.073 758.352 567.365 753.989 573.011C745.674 583.774 735.106 602.065 718.68 618.393L718.442 618.629L718.165 618.819C703.867 628.591 691.174 637.363 682.571 647.163C674.318 656.567 670.097 666.615 671.939 679.176C680.76 691.526 689.394 698.804 697.531 702.517C705.757 706.271 713.78 706.527 721.551 704.307C737.404 699.778 752.246 684.917 763.99 668.005L764.08 667.875L764.181 667.754C776.494 652.922 783.298 631.179 784.885 610.905C785.675 600.805 785.156 591.237 783.465 583.26C781.781 575.315 779.028 569.382 775.676 565.911Z" fill="#87CFE5" stroke="#0076B8" stroke-width="7"/>
<path d="M708.501 661.969C708.674 661.703 708.96 661.518 709.283 661.448C709.607 661.378 709.942 661.43 710.226 661.598C710.51 661.765 710.722 662.036 710.826 662.359C710.929 662.68 710.915 663.026 710.778 663.314C710.481 663.932 710.19 664.53 709.884 665.143C704.849 676.232 695.495 685.992 684.612 691.993C684.006 692.35 683.428 692.686 682.815 693.033C681.602 690.686 680.389 688.338 679.177 685.991C679.793 685.74 680.376 685.5 680.984 685.241C691.885 680.889 700.946 673.771 707.399 663.627C707.773 663.073 708.133 662.532 708.501 661.969Z" fill="#0074AB"/>
<path d="M728.434 680.37C728.636 680.118 728.945 679.957 729.281 679.914C729.618 679.872 729.956 679.95 730.231 680.142C730.506 680.333 730.7 680.624 730.782 680.959C730.864 681.294 730.829 681.645 730.67 681.927C730.381 682.438 730.106 682.921 729.81 683.429C724.828 692.487 717.346 700.665 709.31 707.175C708.861 707.552 708.433 707.912 707.982 708.287C707.181 708.957 706.155 709.246 705.101 709.051C704.05 708.858 703.057 708.196 702.369 707.251C701.682 706.305 701.365 705.165 701.515 704.121C701.666 703.074 702.272 702.208 703.172 701.675C703.666 701.381 704.137 701.102 704.627 700.807C713.405 695.722 721.043 689.714 727.369 681.688C727.732 681.243 728.075 680.821 728.434 680.37Z" fill="#007BA4"/>
</g>
<path opacity="0.77" d="M500.722 435.918L515.237 434.318L531.841 435.571L539.594 437.782L545.567 441.034L545.51 445.983L544.745 450.924L541.852 456.548L534.123 452.216L520.38 448.167L510.506 445.931L498.844 445.443L499.267 439.437L500.722 435.918Z" fill="#004F80"/>
<path opacity="0.7" d="M567.328 408.345L572.653 402.374L578.764 397.775L586.328 393.802L596.342 389.334L605.732 386.318L610.331 392.43L601.809 398.229L592.289 405.147L585.179 410.866L580.519 416.09L575.195 422.06L569.97 417.401L567.237 412.954L567.328 408.345Z" fill="#014C83"/>
<g clip-path="url(#clip1_471_1757)">
<path d="M504.059 491.254C543.814 492.01 548.056 473.555 559.22 506.71C565.519 525.417 565.913 529.889 562.872 542.328C559.874 554.593 551.841 564.002 536.866 569.045C514.684 576.514 488.359 556.14 476.973 522.325C465.586 488.511 464.304 490.499 504.059 491.254Z" fill="#FEFEFE" stroke="#0F79AB" stroke-width="6"/>
<path d="M549.956 528.231C557.717 522.786 559.554 512.021 554.058 504.186C548.562 496.352 537.815 494.414 530.054 499.858C522.292 505.302 520.455 516.067 525.951 523.902C531.447 531.737 542.194 533.675 549.956 528.231Z" fill="#2B2A28"/>
<path d="M590.933 428.081C602.593 425.015 615.166 429.005 626.106 438.26C637.043 447.512 646.159 461.897 650.673 479.066C655.758 498.405 656.617 514.893 652.48 527.451C648.411 539.802 639.387 548.725 623.736 552.841C612.08 555.905 599.909 551.961 589.357 542.713C578.792 533.455 570.001 518.978 565.402 501.486C560.802 483.994 561.336 467.065 565.981 453.808C570.62 440.566 579.277 431.146 590.933 428.081Z" fill="#FEFEFE" stroke="#0F79AB" stroke-width="6"/>
<path d="M607.004 496.6C609.994 505.479 605.95 514.855 597.307 517.765C588.664 520.675 579.233 515.837 576.243 506.958C573.254 498.08 577.837 488.522 586.48 485.612C596.871 484.351 603.891 487.356 607.004 496.6Z" fill="#2B2A28"/>
</g>
<path d="M577.689 594.342C568.329 581.817 566.773 572.509 568.616 553.025" stroke="#0082AA" stroke-width="7" stroke-linecap="round"/>
<path d="M674.173 523.675C674.443 523.021 674.961 522.501 675.613 522.231C676.265 521.96 676.998 521.961 677.652 522.232C678.305 522.504 678.824 523.024 679.095 523.679C679.367 524.333 679.368 525.069 679.099 525.723C677.779 528.928 676.273 532.056 674.601 535.089C642.816 589.898 569.771 609.937 512.007 588.722C508.764 587.542 505.617 586.262 502.466 584.839C501.821 584.547 501.318 584.011 501.066 583.349C500.815 582.686 500.836 581.951 501.125 581.306C501.414 580.66 501.947 580.156 502.607 579.906C503.268 579.655 504.001 579.678 504.645 579.969C507.673 581.337 510.697 582.567 513.813 583.701C569.225 604.221 640.041 584.418 669.937 532.496C671.515 529.635 672.933 526.689 674.173 523.675Z" fill="#076FA2"/>
<path d="M502.874 591.366L502.994 591.528L503.002 591.703C503.283 597.571 534.258 609.337 559.447 623.827C588.736 631.056 578.619 631.719 608.337 627.956C636.031 618.63 638.301 615.229 644.973 606.825C648.339 602.586 652.469 592.583 653.46 589.571C653.791 588.565 654.541 566.83 654.837 566.006C651.07 567.281 632.817 577.758 627.636 579.269C606.262 585.504 607.219 587.347 580.578 591.038C551.356 592.381 550.086 597.742 536.054 593.552C532.53 592.499 508.14 592.987 505.701 592.185C504.587 591.819 504.982 593.759 504.147 593.493C504.177 593.536 502.842 591.322 502.874 591.366Z" fill="#D20223" stroke="#076FA2" stroke-width="6"/>
<path d="M622.438 620.574C630.804 620.348 637.419 616.669 643.787 609.626C649.952 602.806 653.215 591.948 648.166 590.579C635.844 593.367 625.678 597.252 618.691 617.84C618.11 619.981 618.016 621.51 622.438 620.574Z" fill="#FF1863"/>
<path d="M551.433 593.888L551.495 593.887L551.559 593.88L560.812 592.829L560.865 592.823L560.917 592.812L568.808 591.27L568.84 591.263L574.985 589.739L578.814 605.173L579.169 607.982L576.796 611.227L574.373 613.302L570.476 614.655L566.814 615.563L562.614 615.463L558.005 613.911L552.9 610.514L548.71 604.801L545.242 598.86L544.043 594.029L551.433 593.888Z" fill="#FEFEFE" stroke="#0875A4" stroke-width="3"/>
<path d="M602.958 585.986L602.899 586.006L602.838 586.02L592.822 588.396L592.77 588.408L592.718 588.416L583.935 589.769L583.902 589.775L576.806 590.506L578.625 608.152L579.322 611.271L583.067 613.8L586.403 615.064L590.995 615.01L595.169 614.58L599.534 612.887L603.776 609.519L607.837 604.034L610.063 596.484L611.446 588.978L610.861 583.305L602.958 585.986Z" fill="#FEFEFE" stroke="#0578A5" stroke-width="3"/>
<path d="M573.746 560.211C584.214 556.686 589.624 544.695 585.83 533.427C582.036 522.159 570.474 515.883 560.006 519.408C549.538 522.933 544.128 534.924 547.922 546.192C551.716 557.459 563.278 563.736 573.746 560.211Z" fill="#ED6F7A"/>
<g clip-path="url(#clip2_471_1757)">
<path d="M459 716C477.453 716 487.418 721.777 492.985 729.291C498.752 737.076 500.5 747.636 500.5 758.5C500.5 769.729 499.623 778.38 492.348 784.753C484.743 791.415 469.12 796.5 436.501 796.5C414.107 796.5 398.008 795.432 386.449 793.533C374.816 791.622 368.242 788.939 364.485 786.064C360.994 783.392 359.645 780.333 359.114 776.492C358.834 774.466 358.79 772.239 358.832 769.693C358.871 767.301 359.001 764.305 359.001 761.5C359.001 758.01 361.71 753.248 368.266 747.682C374.594 742.307 383.607 736.959 394.019 732.206C414.892 722.677 440.368 716 459 716Z" fill="#87CFE5" stroke="#0178B2" stroke-width="9"/>
<path d="M495.614 745.952C506.614 788.952 473.16 794 434.5 794C395.84 794 374 791 368.5 784C355.5 778 409.115 782.952 437.114 779.952C522.114 779.952 476 703 495.614 745.952Z" fill="#31A7BA"/>
</g>
<g clip-path="url(#clip3_471_1757)">
<path d="M634.755 719.712C616.823 715.358 605.777 718.621 598.594 724.609C591.153 730.814 586.963 740.663 584.4 751.221C581.751 762.133 580.562 770.747 586.128 778.656C591.946 786.924 605.929 795.551 637.627 803.247C659.389 808.531 675.286 811.291 686.966 812.173C698.722 813.061 705.744 812.004 710.072 810.097C714.095 808.324 716.128 805.669 717.55 802.062C718.3 800.159 718.868 798.006 719.428 795.522C719.954 793.188 720.535 790.246 721.197 787.52C722.02 784.129 720.511 778.862 715.454 771.906C710.572 765.19 703.076 757.866 694.079 750.791C676.043 736.607 652.862 724.107 634.755 719.712Z" fill="#87CFE5" stroke="#0178B2" stroke-width="9"/>
<path d="M592.108 740.18C571.274 779.371 602.592 792.17 640.161 801.291C677.73 810.412 699.661 812.649 706.657 807.144C720.706 804.381 667.437 796.543 640.935 787.022C558.335 766.968 621.302 703.068 592.108 740.18Z" fill="#31A7BA"/>
</g>
<defs>
<clipPath id="clip0_471_1757">
<rect width="86.3952" height="162.483" fill="white" transform="matrix(-0.704995 -0.709212 -0.709212 0.704995 828.143 613.272)"/>
</clipPath>
<clipPath id="clip1_471_1757">
<rect width="196" height="148.189" fill="white" transform="translate(452 455.548) rotate(-18.6099)"/>
</clipPath>
<clipPath id="clip2_471_1757">
<rect width="151" height="90" fill="white" transform="translate(354 711)"/>
</clipPath>
<clipPath id="clip3_471_1757">
<rect width="151" height="90" fill="white" transform="matrix(-0.97177 -0.235931 -0.235931 0.97177 737.971 739.626)"/>
</clipPath>
</defs>
</svg>
