<svg width="1100" height="850" viewBox="0 0 1100 850" fill="none" xmlns="http://www.w3.org/2000/svg">
<path d="M634.226 99.8303C654.94 65.609 677.979 53.071 694.85 58.3493C713.088 64.0555 731.907 83.251 734.832 117.816C737.795 152.817 732.56 159.447 682.449 232.776L663.293 283.692L653.335 310.121C629.974 374.109 632.685 382.425 625.334 419.391C623.485 428.695 621.899 436.787 620.288 443.654C618.661 450.586 617.133 455.699 615.537 459.194C613.945 462.68 612.752 463.546 612.072 463.791C611.339 464.053 609.606 464.168 606.121 461.69L603.821 460.053L601.317 461.332C597.255 463.404 594.663 463.349 592.992 462.64C591.368 461.949 589.707 460.255 588.152 456.552C584.845 448.682 576.735 433.224 576.539 413.217C576.149 373.621 560.418 315.771 564.207 257.658C568.967 184.657 613.721 133.708 634.226 99.8303Z" fill="#87CFE5" stroke="#0E6B96" stroke-width="12"/>
<path d="M274.209 109.052C283.334 100.449 294.481 96.3703 307.331 96.6627C320.403 96.9602 335.429 101.813 351.515 111.601C383.651 131.152 418.514 169.492 448.2 224.804C458.662 248.696 470.263 272.214 480.942 294.003C491.693 315.937 501.469 336.039 508.397 353.283C515.427 370.787 519.075 384.326 518.479 393.417C518.191 397.801 516.963 400.314 515.523 401.796C514.138 403.223 511.59 404.684 506.526 405.195L502.864 405.566L500.886 408.626C498.203 412.775 496.424 413.52 495.844 413.662C495.284 413.799 493.73 413.892 490.558 411.839C487.445 409.825 483.776 406.383 479.377 401.46C475.025 396.591 470.242 390.603 464.833 383.729C443.338 356.411 412.95 316.276 366.677 287.631L366.354 287.431L366.006 287.27L361.94 285.378C277.422 245.717 246.795 210.413 240.864 181.857C234.953 153.403 253.139 128.918 274.209 109.052Z" fill="#8BCDE5" stroke="#0E6B96" stroke-width="12"/>
<g clip-path="url(#clip0_471_2476)">
<path d="M452.079 681.516C472.548 684.21 482.812 691.661 487.961 700.273C493.294 709.197 493.791 720.413 492.307 731.691C490.773 743.348 488.618 752.2 479.678 757.753C470.333 763.559 452.309 766.557 416.126 761.796C391.286 758.527 373.575 755.068 361.013 751.41C348.37 747.729 341.444 743.984 337.67 740.451C334.162 737.168 333.084 733.795 333.02 729.731C332.986 727.587 333.241 725.268 333.635 722.632C334.006 720.155 334.559 717.063 334.942 714.152C335.419 710.529 339.074 705.981 347.106 701.16C354.86 696.505 365.588 692.268 377.786 688.854C402.241 682.01 431.412 678.797 452.079 681.516Z" fill="#87CFE5" stroke="#0178B2" stroke-width="9"/>
<path d="M488.601 717.952C494.929 764.194 457.131 764.551 414.248 758.908C371.366 753.265 347.55 746.963 342.406 738.894C328.805 730.768 387.599 743.734 419.067 744.707C513.351 757.113 472.712 670.503 488.601 717.952Z" fill="#31A7BA"/>
</g>
<g clip-path="url(#clip1_471_2476)">
<path d="M634 704.454C616.901 697.518 605.495 699.126 597.512 703.996C589.241 709.043 583.653 718.171 579.569 728.239C575.348 738.645 572.909 746.991 577.256 755.631C581.799 764.663 594.365 775.247 624.593 787.508C645.345 795.925 660.664 800.986 672.089 803.572C683.588 806.174 690.689 806.158 695.25 804.906C699.49 803.742 701.89 801.414 703.825 798.055C704.846 796.282 705.724 794.235 706.642 791.86C707.505 789.629 708.511 786.803 709.565 784.204C710.877 780.97 710.156 775.539 706.174 767.917C702.329 760.558 695.988 752.214 688.126 743.896C672.364 727.221 651.266 711.457 634 704.454Z" fill="#87CFE5" stroke="#0178B2" stroke-width="9"/>
<path d="M588.813 718.448C562.457 754.16 591.56 771.412 627.386 785.944C663.211 800.475 684.577 805.904 692.305 801.484C706.607 800.811 655.063 785.247 630.244 771.943C551.477 739.994 623.133 686.018 588.813 718.448Z" fill="#31A7BA"/>
</g>
<path d="M585.5 366.001C687.975 366.001 771 448.407 771 550.001C771 651.595 687.975 734.001 585.5 734.001C483.025 734.001 400 651.595 400 550.001C400 448.407 483.025 366.001 585.5 366.001Z" fill="#86D0E3" stroke="#0C74AB" stroke-width="7"/>
<path d="M712.501 678.001C678.001 717.001 614.001 732.501 589.001 730.001C482.001 736.001 401.501 641.896 404.001 548.501C405.566 490.001 391.001 628.001 530.001 687.001C604.501 724.501 712.501 678.001 712.501 678.001Z" fill="#37B4CA"/>
<g clip-path="url(#clip2_471_2476)">
<path d="M547.41 468.448C586.156 477.382 594.11 460.198 598.201 494.942C600.509 514.546 599.972 519.003 594.433 530.548C588.971 541.932 579.171 549.483 563.477 551.33C540.233 554.067 518.673 528.704 514.501 493.269C510.329 457.833 508.664 459.514 547.41 468.448Z" fill="#FEFEFE" stroke="#0F79AB" stroke-width="6"/>
<path d="M584.7 514.091C593.417 510.364 597.433 500.208 593.67 491.409C589.907 482.609 579.79 478.498 571.073 482.225C562.356 485.953 558.34 496.108 562.103 504.908C565.866 513.707 575.982 517.819 584.7 514.091Z" fill="#2B2A28"/>
<path d="M645.441 424.538C657.483 423.942 668.963 430.437 677.76 441.749C686.555 453.057 692.51 469.012 693.389 486.742C694.378 506.714 691.82 523.025 685.183 534.461C678.656 545.709 667.986 552.58 651.823 553.38C639.785 553.977 628.689 547.609 620.27 536.384C611.84 525.147 606.222 509.169 605.327 491.105C604.432 473.04 608.444 456.585 615.721 444.57C622.991 432.568 633.403 425.135 645.441 424.538Z" fill="#FEFEFE" stroke="#0F79AB" stroke-width="6"/>
<path d="M647.042 494.899C648.138 504.204 642.249 512.544 633.191 513.611C624.134 514.677 615.903 507.999 614.808 498.694C613.712 489.39 620.167 480.983 629.224 479.916C639.652 480.824 645.902 485.212 647.042 494.899Z" fill="#2B2A28"/>
</g>
<path d="M604.025 577.292C599.468 562.336 601.161 553.051 609.504 535.348" stroke="#0082AA" stroke-width="7" stroke-linecap="round"/>
<path d="M617.387 551.937C628.497 549.244 635.263 537.817 632.499 526.414C629.736 515.012 618.489 507.951 607.379 510.644C596.269 513.337 589.503 524.763 592.267 536.166C595.03 547.569 606.277 554.63 617.387 551.937Z" fill="#ED6F7A"/>
<path opacity="0.77" d="M517.518 411.878L529.37 401.572L544.887 392.472L553.167 389.64L560.53 388.808L563.626 393.158L566.09 397.935L567.099 404.614L557.493 405.581L542.735 410.488L532.559 414.601L521.909 421.334L518.466 415.839L517.518 411.878Z" fill="#004F80"/>
<path opacity="0.7" d="M596.669 407.877L602.539 400.662L609.487 395.074L618.247 390.21L629.919 384.718L640.972 380.971L647.094 388.201L637.349 395.26L626.502 403.672L618.453 410.613L613.317 416.926L607.447 424.141L600.705 418.655L596.99 413.384L596.669 407.877Z" fill="#014C83"/>
<path d="M698.165 552.924L698.082 553.12L698.117 553.302C699.312 559.398 670.206 579.352 647.782 600.632C619.275 615.501 629.922 613.61 598.188 617.302C567.141 614.77 563.929 611.855 554.891 604.925C550.332 601.428 543.521 592.21 541.733 589.37C541.135 588.421 534.856 566.299 534.341 565.528C538.565 565.879 560.125 571.993 565.874 572.228C589.591 573.193 589.066 575.329 617.596 572.344C648.203 566.293 650.876 571.473 664.35 563.604C667.734 561.627 693.121 555.927 695.444 554.483C696.505 553.824 696.587 555.916 697.385 555.431C697.364 555.482 698.187 552.87 698.165 552.924Z" fill="#D20223" stroke="#076FA2" stroke-width="6"/>
<path d="M581.712 613.309C572.99 615.204 565.207 613.11 556.828 607.498C548.716 602.065 542.588 591.748 547.47 589.058C560.94 588.788 572.453 590.191 584.902 609.55C586.046 611.6 586.53 613.146 581.712 613.309Z" fill="#FF1863"/>
<path d="M648.505 567.859L648.44 567.874L648.373 567.883L638.523 569.156L638.466 569.163L638.41 569.166L629.846 569.589L629.811 569.591L623.06 569.588L623.001 586.406L623.343 589.38L626.623 592.108L629.658 593.622L634.037 594.02L638.06 594.022L642.386 592.85L646.767 590.086L651.195 585.3L654.088 578.369L656.177 571.389L656.196 566.124L648.505 567.859Z" fill="#FEFEFE" stroke="#0875A4" stroke-width="3"/>
<path d="M593.135 572.848L593.201 572.853L593.268 572.852L604.244 572.745L604.301 572.744L604.357 572.739L613.797 571.895L613.833 571.892L621.368 570.839L623.95 589.416L624.018 592.795L620.779 596.344L617.643 598.49L612.873 599.602L608.441 600.222L603.492 599.594L598.245 597.214L592.65 592.617L588.433 585.432L585.1 578.078L584.27 572.105L593.135 572.848Z" fill="#FEFEFE" stroke="#0578A5" stroke-width="3"/>
<path d="M765.742 738.411L772.396 733.297L776.306 727.98L779.164 721.753L779.481 716.982L776.407 722.601L775.672 723.946L773.896 710.389L340.213 468.585L327.134 491.646L753.036 739.02L759.003 739.294L765.742 738.411Z" fill="#D3B256" stroke="#F1CD51"/>
<path d="M336.921 486.195L762.925 721.575" stroke="#F1CD51" stroke-width="21" stroke-linecap="round"/>
<path d="M325.098 492.52L343.821 468.036L300.547 443.532L343.794 416.314L346.063 407.875L345.076 400.342L341.673 384.025L337.822 361.061L327.97 347.026L322.614 354.432L328.906 402.46L323.426 408.925L314.551 412.003L305.481 365.297L296.634 362.146L292.213 367.035L298.875 417.888L288.252 426.942L277.472 428.354L266.222 384.329L259.448 380.906L254.215 389.254L260.321 435.869L253.245 443.022L243.541 446.209L235.622 427.61L230.421 407.218L223.417 405.262L219.014 413.502L224.141 452.648L218.592 458.577L210.484 461.076L204.7 442.676L197.196 424.023L191.436 421.904L188.092 428.568L191.635 449.177L196.528 467.215L191.569 471.217L185.765 471.977L178.816 457.561L171.771 435.974L165.702 431.501L161.82 437.278L166.26 471.179L185.453 492.133L271.424 462.672L325.098 492.52Z" fill="#B8BDC6"/>
<path d="M184.449 478.217C173.332 470.727 170.009 463.387 169.105 444.785" stroke="#B7B6AF" stroke-width="6" stroke-linecap="round"/>
<path d="M333.904 418.086C341.977 405.44 341.312 397.315 331.11 380.96" stroke="#B7B6AF" stroke-width="6" stroke-linecap="round"/>
<path d="M317.01 425.529C305.892 418.039 302.569 410.699 301.665 392.097" stroke="#B7B6AF" stroke-width="6" stroke-linecap="round"/>
<path d="M280.133 446.644C269.015 439.153 265.692 431.814 264.789 413.212" stroke="#B7B6AF" stroke-width="6" stroke-linecap="round"/>
<path d="M241.405 453.632C230.287 446.142 226.964 438.803 226.06 420.201" stroke="#B7B6AF" stroke-width="6" stroke-linecap="round"/>
<path d="M209.592 468.336C198.475 460.846 195.152 453.506 194.248 434.905" stroke="#B7B6AF" stroke-width="6" stroke-linecap="round"/>
<g clip-path="url(#clip3_471_2476)">
<path d="M746.557 484.017C751.652 481.567 754.589 482.046 756.821 483.576C759.537 485.438 762.027 489.372 764.81 495.743C770.113 507.889 775.879 527.713 787.395 547.013L787.561 547.292L787.774 547.537C798.734 560.111 808.444 571.366 814.212 582.662C819.745 593.501 821.47 604.028 817.143 615.556C806.504 625.284 797.106 630.229 788.913 631.897C780.629 633.583 773.268 631.987 766.659 628.094C753.176 620.151 742.793 602.61 735.665 583.828L735.611 583.684L735.544 583.546C727.459 566.611 725.848 544.366 728.679 524.714C730.09 514.923 732.581 505.939 735.803 498.737C739.013 491.565 742.772 486.551 746.557 484.017Z" fill="#87CFE5" stroke="#0076B8" stroke-width="7"/>
<path d="M787.474 590.804C787.372 590.511 787.151 590.27 786.871 590.128C786.591 589.989 786.275 589.961 785.981 590.055C785.687 590.149 785.437 590.359 785.275 590.642C785.113 590.924 785.052 591.256 785.116 591.561C785.256 592.217 785.395 592.853 785.545 593.506C787.791 605.211 794.252 616.64 802.898 624.845C803.375 625.323 803.83 625.775 804.315 626.246C805.915 624.291 807.514 622.335 809.114 620.38C808.605 620 808.125 619.638 807.626 619.253C798.616 612.613 791.865 603.764 788.128 592.634C787.904 592.021 787.69 591.424 787.474 590.804Z" fill="#0074AB"/>
<path d="M765.439 603.742C765.309 603.456 765.062 603.232 764.764 603.113C764.466 602.996 764.142 602.993 763.851 603.113C763.56 603.232 763.322 603.464 763.176 603.764C763.031 604.064 762.99 604.406 763.074 604.71C763.23 605.263 763.379 605.785 763.541 606.337C766.168 616.096 771.257 625.592 777.203 633.627C777.532 634.089 777.846 634.53 778.177 634.989C778.766 635.811 779.639 636.322 780.64 636.377C781.638 636.434 782.682 636.032 783.508 635.291C784.333 634.549 784.862 633.537 784.945 632.509C785.029 631.478 784.66 630.515 783.953 629.802C783.565 629.409 783.195 629.035 782.811 628.643C775.889 621.792 770.2 614.326 766.131 605.24C765.894 604.733 765.671 604.253 765.439 603.742Z" fill="#007BA4"/>
</g>
<g clip-path="url(#clip4_471_2476)">
<path d="M440.426 641.161C446.07 639.861 448.175 637.741 449.068 635.284C450.153 632.294 449.798 627.938 448.202 621.639C445.158 609.631 437.833 591.776 435.516 570.831L435.483 570.528L435.508 570.222C436.82 554.489 437.911 540.466 435.762 528.794C433.7 517.595 428.718 508.921 418.194 503.175C403.612 502.544 392.944 504.633 385.248 508.37C377.467 512.148 372.431 517.749 369.401 524.562C363.222 538.46 365.396 557.447 370.977 575.368L371.02 575.505L371.05 575.645C374.729 592.805 386.914 609.906 401.148 622.446C408.24 628.693 415.723 633.703 422.722 636.979C429.693 640.242 435.801 641.608 440.426 641.161Z" fill="#87CFE5" stroke="#0076B8" stroke-width="7"/>
<path d="M409.01 539.032C409.104 539.306 409.071 539.614 408.928 539.886C408.784 540.156 408.543 540.367 408.246 540.476C407.949 540.586 407.618 540.585 407.314 540.477C407.01 540.37 406.759 540.166 406.627 539.907C406.343 539.346 406.07 538.801 405.796 538.238C400.526 528.395 398.862 516.208 400.936 505.039C401.035 504.405 401.132 503.802 401.243 503.168C403.734 503.62 406.225 504.072 408.717 504.524C408.532 505.107 408.36 505.659 408.187 506.24C404.865 516.493 404.728 526.985 408.432 537.311C408.621 537.89 408.809 538.452 409.01 539.032Z" fill="#0074AB"/>
<path d="M383.183 542.955C383.251 543.241 383.185 543.553 383.014 543.818C382.842 544.083 382.579 544.281 382.27 544.37C381.96 544.459 381.625 544.434 381.324 544.305C381.023 544.175 380.782 543.952 380.667 543.681C380.459 543.186 380.262 542.717 380.061 542.219C376.282 533.557 374.67 523.6 374.646 514.185C374.634 513.651 374.623 513.142 374.614 512.609C374.595 511.658 374.998 510.761 375.781 510.116C376.561 509.472 377.656 509.133 378.78 509.172C379.904 509.212 380.949 509.626 381.641 510.321C382.335 511.018 382.617 511.939 382.473 512.884C382.395 513.402 382.32 513.897 382.245 514.413C380.755 523.559 380.645 532.407 382.839 541.451C382.953 541.961 383.062 542.444 383.183 542.955Z" fill="#007BA4"/>
</g>
<defs>
<clipPath id="clip0_471_2476">
<rect width="168.937" height="94.2303" fill="white" transform="translate(336.293 661) rotate(7.49636)"/>
</clipPath>
<clipPath id="clip1_471_2476">
<rect width="151" height="90" fill="white" transform="matrix(-0.926672 -0.375871 -0.375871 0.926672 733.18 739.287)"/>
</clipPath>
<clipPath id="clip2_471_2476">
<rect width="196" height="148.189" fill="white" transform="translate(503.83 422.778) rotate(-6.71438)"/>
</clipPath>
<clipPath id="clip3_471_2476">
<rect width="81.506" height="157.667" fill="white" transform="matrix(0.839137 -0.54392 0.512389 0.858753 688.784 517.05)"/>
</clipPath>
<clipPath id="clip4_471_2476">
<rect width="83.2007" height="147.837" fill="white" transform="matrix(0.993939 -0.109934 -0.109934 -0.993939 373.252 652.087)"/>
</clipPath>
</defs>
</svg>
