<svg width="1100" height="850" viewBox="0 0 1100 850" fill="none" xmlns="http://www.w3.org/2000/svg">
<g clip-path="url(#clip0_471_2372)">
<path d="M550.005 103.458C562.739 65.5375 582.481 48.2676 600.098 49.7313C619.143 51.3136 641.702 65.9325 652.11 99.0226C662.65 132.53 658.991 140.144 626.116 222.652L618.551 276.523L614.61 304.49C605.797 372.036 610.26 379.559 611.165 417.237C611.394 426.721 611.615 434.964 611.544 442.017C611.471 449.137 611.098 454.461 610.303 458.22C609.512 461.97 608.537 463.075 607.927 463.463C607.269 463.879 605.604 464.37 601.66 462.713L599.059 461.619L596.894 463.414C593.384 466.323 590.843 466.836 589.057 466.509C587.321 466.19 585.33 464.9 583.004 461.627C578.057 454.67 566.764 441.357 562.2 421.877C553.166 383.323 525.173 330.31 516.17 272.773C504.861 200.497 537.399 140.999 550.005 103.458Z" fill="#87CFE5" stroke="#0E6B96" stroke-width="12"/>
<path d="M274.21 109.052C283.335 100.449 294.482 96.3703 307.332 96.6627C320.404 96.9602 335.43 101.813 351.516 111.601C383.652 131.152 418.515 169.492 448.201 224.804C458.663 248.696 470.264 272.214 480.943 294.003C491.694 315.937 501.47 336.039 508.398 353.283C515.428 370.787 519.076 384.326 518.48 393.417C518.192 397.801 516.964 400.314 515.524 401.796C514.139 403.223 511.591 404.684 506.527 405.195L502.865 405.566L500.887 408.626C498.204 412.775 496.425 413.52 495.845 413.662C495.285 413.799 493.731 413.892 490.559 411.839C487.446 409.825 483.777 406.383 479.378 401.46C475.026 396.591 470.243 390.603 464.834 383.729C443.339 356.411 412.951 316.276 366.678 287.631L366.355 287.431L366.007 287.27L361.941 285.378C277.423 245.717 246.796 210.413 240.865 181.857C234.954 153.403 253.14 128.918 274.21 109.052Z" fill="#8BCDE5" stroke="#0E6B96" stroke-width="12"/>
<g clip-path="url(#clip1_471_2372)">
<path d="M634.001 704.454C616.901 697.518 605.495 699.126 597.512 703.996C589.242 709.043 583.653 718.171 579.57 728.239C575.349 738.645 572.91 746.991 577.256 755.631C581.799 764.663 594.365 775.247 624.593 787.508C645.345 795.925 660.665 800.986 672.09 803.572C683.588 806.174 690.689 806.158 695.25 804.906C699.49 803.742 701.89 801.414 703.826 798.055C704.846 796.282 705.725 794.235 706.643 791.86C707.505 789.629 708.511 786.803 709.566 784.204C710.877 780.97 710.157 775.539 706.174 767.917C702.329 760.558 695.988 752.214 688.126 743.896C672.365 727.221 651.267 711.457 634.001 704.454Z" fill="#87CFE5" stroke="#0178B2" stroke-width="9"/>
<path d="M588.814 718.448C562.458 754.16 591.561 771.412 627.387 785.944C663.212 800.475 684.578 805.904 692.306 801.484C706.608 800.811 655.064 785.247 630.245 771.943C551.478 739.994 623.134 686.018 588.814 718.448Z" fill="#31A7BA"/>
</g>
<path d="M585.501 366.001C687.976 366.001 771.001 448.407 771.001 550.001C771.001 651.595 687.976 734.001 585.501 734.001C483.026 734.001 400.001 651.595 400.001 550.001C400.001 448.407 483.026 366.001 585.501 366.001Z" fill="#86D0E3" stroke="#0C74AB" stroke-width="7"/>
<path d="M712.501 678.001C678.001 717.001 614.001 732.501 589.001 730.001C482.001 736.001 401.501 641.896 404.001 548.501C405.567 490.001 391.001 628.001 530.001 687.001C604.501 724.501 712.501 678.001 712.501 678.001Z" fill="#37B4CA"/>
<path d="M556.268 439.571C581.836 433.374 609.099 451.88 616.18 481.094C620.175 497.577 619.851 511.636 614.585 522.477C609.392 533.166 599.125 541.272 581.929 545.44C556.458 551.614 530.774 533.34 523.552 503.545C516.33 473.749 530.797 445.744 556.268 439.571Z" fill="#FEFEFE" stroke="#0F79AB" stroke-width="6"/>
<path d="M647.877 416.614C660.449 413.567 673.619 417.138 684.772 425.681C695.922 434.221 704.863 447.612 708.758 463.683C713.146 481.787 713.188 497.271 708.12 509.133C703.136 520.799 693.059 529.314 676.185 533.404C663.617 536.45 650.873 532.916 640.131 524.374C629.378 515.824 620.788 502.342 616.819 485.968C612.85 469.593 614.314 453.675 619.959 441.149C625.598 428.637 635.309 419.661 647.877 416.614Z" fill="#FEFEFE" stroke="#0F79AB" stroke-width="6"/>
<path d="M619.025 567.292C614.469 552.336 616.162 543.051 624.504 525.348" stroke="#0082AA" stroke-width="7" stroke-linecap="round"/>
<path d="M632.388 541.937C643.498 539.244 650.264 527.817 647.5 516.414C644.736 505.012 633.489 497.951 622.379 500.644C611.269 503.337 604.503 514.763 607.267 526.166C610.031 537.569 621.278 544.63 632.388 541.937Z" fill="#ED6F7A"/>
<path d="M653.254 474.464C655.407 483.347 650.54 492.151 641.702 494.293C632.865 496.435 623.955 490.971 621.802 482.088C619.649 473.205 625.068 464.268 633.906 462.126C644.325 461.729 651.013 465.216 653.254 474.464Z" fill="#2B2A28"/>
<path d="M583.315 498.981C591.97 497.063 597.355 488.153 595.344 479.082C593.333 470.011 584.687 464.212 576.032 466.131C567.378 468.05 561.993 476.959 564.004 486.03C566.015 495.102 574.661 500.9 583.315 498.981Z" fill="#2B2A28"/>
<path opacity="0.77" d="M547.315 386.918L559.167 376.613L574.684 367.513L582.964 364.681L590.327 363.848L593.423 368.198L595.886 372.975L596.896 379.654L587.29 380.622L572.532 385.529L562.356 389.641L551.706 396.375L548.262 390.879L547.315 386.918Z" fill="#004F80"/>
<path opacity="0.7" d="M625.67 394.877L631.54 387.662L638.488 382.074L647.248 377.21L658.92 371.718L669.973 367.971L676.095 375.201L666.35 382.26L655.503 390.672L647.454 397.613L642.318 403.926L636.448 411.141L629.706 405.655L625.991 400.384L625.67 394.877Z" fill="#014C83"/>
<path d="M714.531 545.453L714.448 545.65L714.484 545.831C715.679 551.927 686.572 571.882 664.149 593.161C635.641 608.031 646.289 606.139 614.555 609.831C583.508 607.299 580.296 604.385 571.258 597.454C566.698 593.957 559.888 584.739 558.1 581.899C557.502 580.95 551.223 558.828 550.708 558.057C554.932 558.409 576.491 564.523 582.241 564.757C605.957 565.723 605.433 567.859 633.963 564.873C664.57 558.822 667.243 564.002 680.716 556.133C684.1 554.156 709.488 548.456 711.811 547.012C712.872 546.353 712.953 548.445 713.752 547.96C713.731 548.012 714.554 545.4 714.531 545.453Z" fill="#D20223" stroke="#076FA2" stroke-width="6"/>
<path d="M598.08 605.838C589.357 607.734 581.574 605.639 573.195 600.027C565.083 594.594 558.955 584.277 563.838 581.588C577.307 581.317 588.82 582.72 601.269 602.079C602.413 604.13 602.897 605.675 598.08 605.838Z" fill="#FF1863"/>
<path d="M664.871 560.388L664.807 560.403L664.739 560.412L654.889 561.685L654.832 561.693L654.776 561.695L646.212 562.118L646.177 562.12L639.426 562.117L639.367 578.935L639.71 581.91L642.99 584.638L646.024 586.151L650.403 586.549L654.427 586.551L658.752 585.379L663.133 582.615L667.561 577.829L670.455 570.899L672.543 563.918L672.562 558.654L664.871 560.388Z" fill="#FEFEFE" stroke="#0875A4" stroke-width="3"/>
<path d="M609.502 565.377L609.568 565.383L609.634 565.382L620.61 565.274L620.667 565.273L620.723 565.268L630.164 564.425L630.2 564.421L637.735 563.368L640.316 581.946L640.385 585.325L637.146 588.873L634.01 591.019L629.239 592.132L624.807 592.751L619.858 592.123L614.612 589.744L609.017 585.146L604.8 577.961L601.467 570.607L600.637 564.634L609.502 565.377Z" fill="#FEFEFE" stroke="#0578A5" stroke-width="3"/>
<g clip-path="url(#clip2_471_2372)">
<path d="M456.904 652.203C475.865 660.369 483.25 671.408 485.256 682.495C487.334 693.982 483.911 706.874 478.542 719.342C472.992 732.23 467.815 741.77 457.19 745.864C446.083 750.145 427.516 749.067 393.998 734.632C370.987 724.722 354.972 716.372 344.034 709.078C333.024 701.737 327.595 695.748 325.156 690.787C322.889 686.175 323.015 682.067 324.368 677.424C325.082 674.975 326.137 672.399 327.438 669.497C328.661 666.769 330.275 663.387 331.661 660.168C333.386 656.163 338.524 651.897 348.011 648.41C357.17 645.043 369.075 642.893 382.122 642.045C408.281 640.347 437.759 643.957 456.904 652.203Z" fill="#87CFE5" stroke="#0178B2" stroke-width="9"/>
<path d="M479.723 702.779C469.774 756.996 432.903 747.985 393.178 730.877C353.453 713.769 332.494 700.661 330.302 690.194C319.909 677.555 372.553 706.964 402.807 715.912C490.149 753.526 480.797 644.806 479.723 702.779Z" fill="#31A7BA"/>
</g>
<path d="M754.319 295.555L762.495 297.451L768.257 300.669L773.439 305.152L775.705 309.363L770.579 305.522L769.352 304.604L773.355 317.678L478.896 717.483L457.435 701.917L742.504 300.267L747.821 297.544L754.319 295.555Z" fill="#D3B256" stroke="#F1CD51"/>
<path d="M468.602 702.821L758.735 312.045" stroke="#F1CD51" stroke-width="21" stroke-linecap="round"/>
<path d="M455.221 701.965L482.408 716.487L453.182 756.723L503.82 763.568L509.383 770.308L511.607 777.573L515.273 793.833L521.286 816.327L518.138 833.184L510.194 828.663L496.013 782.347L488.347 778.735L478.995 779.612L490.098 825.876L483.353 832.411L477.303 829.794L462.288 780.754L448.868 776.916L438.473 780.099L446.482 824.828L441.736 830.751L433.514 825.322L419.75 780.369L410.346 776.792L400.193 777.913L400.695 798.122L404.414 818.836L398.85 823.519L391.428 817.845L379.87 780.095L372.362 776.999L363.948 778.085L366.31 797.227L367.212 817.313L362.848 821.629L357.042 816.95L351.725 796.726L348.702 778.283L342.531 776.696L336.933 778.41L336.584 794.409L339.12 816.975L335.451 823.561L329.523 819.913L319.514 787.22L328.295 760.196L418.745 751.375L455.221 701.965Z" fill="#B8BDC6"/>
<path d="M333.149 773.276C326.136 784.701 326.154 792.758 333.041 810.061" stroke="#B7B6AF" stroke-width="6" stroke-linecap="round"/>
<path d="M494.085 766.055C506.673 774.217 509.435 781.887 506.929 801" stroke="#B7B6AF" stroke-width="6" stroke-linecap="round"/>
<path d="M475.626 766.283C468.613 777.708 468.631 785.764 475.518 803.068" stroke="#B7B6AF" stroke-width="6" stroke-linecap="round"/>
<path d="M433.313 762.352C426.3 773.776 426.318 781.833 433.205 799.136" stroke="#B7B6AF" stroke-width="6" stroke-linecap="round"/>
<path d="M395.172 772.044C388.158 783.468 388.176 791.525 395.064 808.828" stroke="#B7B6AF" stroke-width="6" stroke-linecap="round"/>
<path d="M360.127 771.848C353.114 783.272 353.132 791.329 360.019 808.632" stroke="#B7B6AF" stroke-width="6" stroke-linecap="round"/>
<g clip-path="url(#clip3_471_2372)">
<path d="M674.855 654.851C675.892 649.125 674.297 646.556 671.734 645.055C668.614 643.229 663.173 642.417 654.804 642.274C638.849 642.003 613.831 644.27 587.386 640.943L587.003 640.895L586.644 640.79C568.191 635.38 551.71 630.632 536.576 629.597C522.055 628.604 509.243 631.062 497.412 639.582C489.902 653.323 487.497 664.05 488.463 672.379C489.441 680.799 493.896 687.084 500.747 691.774C514.725 701.342 538.73 704.287 563.022 703.701L563.209 703.696L563.392 703.705C585.882 704.731 612.236 697.63 634.012 687.368C644.861 682.255 654.392 676.442 661.599 670.632C668.777 664.846 673.258 659.381 674.855 654.851Z" fill="#87CFE5" stroke="#0076B8" stroke-width="7"/>
<path d="M536.6 657.82C536.976 657.802 537.334 657.916 537.596 658.124C537.858 658.332 538.002 658.618 537.996 658.93C537.992 659.242 537.837 659.558 537.567 659.82C537.296 660.081 536.933 660.267 536.557 660.324C535.747 660.447 534.961 660.563 534.151 660.675C519.789 663.1 504.256 661.466 491.686 656.535C490.963 656.273 490.278 656.021 489.561 655.748C491.261 653.491 492.961 651.235 494.662 648.978C495.282 649.308 495.871 649.618 496.495 649.937C507.379 655.815 520.025 658.72 534.248 657.916C535.037 657.889 535.805 657.858 536.6 657.82Z" fill="#0074AB"/>
<path d="M529.403 683.491C529.781 683.502 530.128 683.648 530.371 683.881C530.612 684.115 530.73 684.418 530.694 684.736C530.659 685.055 530.474 685.369 530.178 685.622C529.882 685.874 529.501 686.045 529.118 686.083C528.422 686.151 527.764 686.214 527.067 686.275C514.826 687.59 502.018 686.495 490.601 684.029C489.949 683.899 489.327 683.776 488.677 683.643C487.516 683.409 486.616 682.788 486.197 681.871C485.778 680.957 485.874 679.822 486.442 678.761C487.009 677.7 487.995 676.812 489.157 676.336C490.322 675.858 491.569 675.832 492.646 676.219C493.238 676.431 493.803 676.633 494.394 676.841C504.784 680.68 515.451 683.124 527.422 683.422C528.093 683.448 528.729 683.472 529.403 683.491Z" fill="#007BA4"/>
</g>
<g clip-path="url(#clip4_471_2372)">
<path d="M399.279 480.737C404.879 479.261 407.729 480.159 409.662 481.919C412.014 484.06 413.726 488.081 415.244 494.4C418.137 506.445 419.959 525.657 427.654 545.275L427.765 545.56L427.93 545.819C436.411 559.135 443.901 571.039 447.429 582.372C450.814 593.244 450.44 603.239 443.797 613.223C431.183 620.565 420.769 623.68 412.218 623.952C403.573 624.228 396.508 621.613 390.657 616.992C378.721 607.565 371.812 589.747 368.414 571.287L368.389 571.145L368.35 571.007C363.623 554.106 366.452 533.3 373.218 515.577C376.588 506.748 380.882 498.832 385.553 492.675C390.205 486.544 394.976 482.493 399.279 480.737Z" fill="#87CFE5" stroke="#0076B8" stroke-width="7"/>
<path d="M418.985 585.756C418.941 585.469 418.768 585.212 418.516 585.038C418.263 584.866 417.951 584.791 417.637 584.833C417.324 584.874 417.031 585.029 416.811 585.266C416.593 585.502 416.465 585.799 416.469 586.091C416.478 586.719 416.491 587.328 416.51 587.954C416.425 599.119 420.622 610.681 427.654 619.602C428.037 620.118 428.403 620.606 428.796 621.116C430.791 619.557 432.786 617.997 434.781 616.438C434.346 616.008 433.937 615.599 433.513 615.166C425.803 607.635 420.8 598.412 419.275 587.548C419.173 586.947 419.078 586.362 418.985 585.756Z" fill="#0074AB"/>
<path d="M394.3 594.3C394.226 594.015 394.023 593.77 393.748 593.614C393.473 593.46 393.148 593.407 392.833 593.472C392.517 593.538 392.232 593.716 392.025 593.97C391.82 594.225 391.71 594.534 391.734 594.828C391.78 595.363 391.825 595.869 391.878 596.404C392.563 605.829 395.769 615.393 400.128 623.739C400.366 624.217 400.592 624.672 400.833 625.148C401.259 625.999 402.033 626.606 403.026 626.812C404.016 627.02 405.143 626.81 406.119 626.252C407.096 625.694 407.828 624.841 408.117 623.904C408.407 622.964 408.229 622.017 407.662 621.249C407.352 620.826 407.055 620.423 406.749 620.001C401.174 612.598 396.96 604.818 394.694 595.792C394.558 595.287 394.43 594.808 394.3 594.3Z" fill="#007BA4"/>
</g>
</g>
<defs>
<clipPath id="clip0_471_2372">
<rect width="1100" height="850" fill="white"/>
</clipPath>
<clipPath id="clip1_471_2372">
<rect width="151" height="90" fill="white" transform="matrix(-0.926672 -0.375871 -0.375871 0.926672 733.181 739.287)"/>
</clipPath>
<clipPath id="clip2_471_2372">
<rect width="168.937" height="112.459" fill="white" transform="translate(351.482 600) rotate(23.2996)"/>
</clipPath>
<clipPath id="clip3_471_2372">
<rect width="85.7179" height="186.986" fill="white" transform="matrix(0.31708 -0.948399 -0.992179 -0.124826 657.013 721.811)"/>
</clipPath>
<clipPath id="clip4_471_2372">
<rect width="83.2007" height="147.837" fill="white" transform="translate(334.734 502.318) rotate(-21.4152)"/>
</clipPath>
</defs>
</svg>
