<svg width="1100" height="850" viewBox="0 0 1100 850" fill="none" xmlns="http://www.w3.org/2000/svg">
<path d="M750.077 120.013C781.857 95.7194 807.884 92.4604 821.662 103.535C836.557 115.507 847.067 140.249 837.168 173.495C827.145 207.161 819.851 211.421 746.422 261.388L709.997 301.792L691.076 322.76C645.961 373.798 645.449 382.53 625.107 414.259C619.987 422.245 615.556 429.2 611.549 435.004C607.503 440.862 604.213 445.065 601.451 447.736C598.696 450.4 597.269 450.77 596.547 450.749C595.769 450.726 594.114 450.201 591.774 446.621L590.23 444.257L587.432 444.533C582.894 444.979 580.502 443.982 579.205 442.711C577.945 441.475 577.018 439.291 576.922 435.276C576.718 426.742 574.813 409.39 581.935 390.693C596.032 353.689 602.511 294.09 627.26 241.373C658.349 175.152 718.617 144.064 750.077 120.013Z" fill="#87CFE5" stroke="#0E6B96" stroke-width="12"/>
<path d="M361.402 60.8326C371.847 53.8909 383.522 51.7508 396.139 54.2059C408.973 56.7036 422.965 64.0211 437.17 76.3808C465.55 101.072 493.448 144.742 513.381 204.267C519.664 229.581 527.133 254.718 533.985 277.997C540.884 301.43 547.13 322.892 551.05 341.058C555.028 359.496 556.341 373.457 554.22 382.316C553.197 386.589 551.562 388.86 549.893 390.078C548.288 391.251 545.53 392.261 540.452 391.911L536.78 391.659L534.314 394.342C530.97 397.979 529.091 398.413 528.495 398.455C527.92 398.495 526.373 398.325 523.592 395.767C520.863 393.257 517.828 389.245 514.322 383.651C510.853 378.117 507.148 371.409 502.976 363.722C486.395 333.169 463.211 288.485 422.431 252.447L422.146 252.195L421.83 251.978L418.141 249.427C341.522 196.081 317.288 156.119 316.256 126.972C315.229 97.928 337.284 76.8609 361.402 60.8326Z" fill="#8BCDE5" stroke="#0E6B96" stroke-width="12"/>
<g clip-path="url(#clip0_468_920)">
<path d="M734.196 565.782C737.626 560.837 740.575 559.657 743.414 559.791C746.869 559.955 751.18 562.071 757.012 566.182C768.128 574.019 783.612 588.388 804.117 599.156L804.414 599.312L804.736 599.412C821.277 604.541 835.99 609.187 847.097 616.02C857.753 622.577 864.745 630.937 866.684 643.483C861.889 657.883 855.781 667.38 849.098 673.325C842.342 679.335 834.75 681.941 826.669 682.108C810.186 682.447 791.626 672.615 775.423 659.91L775.299 659.812L775.167 659.727C759.033 649.177 746.129 630.401 738.643 611.493C734.913 602.073 732.593 592.777 731.86 584.655C731.13 576.567 732.014 570.086 734.196 565.782Z" fill="#87CFE5" stroke="#0076B8" stroke-width="7"/>
<path d="M826.676 637.803C826.432 637.601 826.105 637.508 825.775 637.536C825.445 637.565 825.14 637.713 824.918 637.957C824.695 638.2 824.573 638.522 824.569 638.861C824.565 639.199 824.68 639.525 824.895 639.759C825.361 640.263 825.816 640.749 826.288 641.244C834.365 650.36 846.178 656.932 858.346 659.464C859.03 659.626 859.682 659.777 860.37 659.928C860.837 657.328 861.305 654.727 861.773 652.127C861.11 652.069 860.482 652.011 859.825 651.943C848.126 650.993 837.371 646.858 828.217 639.064C827.696 638.645 827.193 638.234 826.676 637.803Z" fill="#0074AB"/>
<path d="M813.043 661.258C812.777 661.076 812.434 661.013 812.099 661.071C811.765 661.13 811.466 661.305 811.259 661.569C811.053 661.833 810.953 662.168 810.973 662.513C810.993 662.857 811.13 663.181 811.365 663.404C811.792 663.807 812.197 664.188 812.629 664.586C820.058 671.776 829.615 677.389 839.212 681.244C839.752 681.472 840.267 681.69 840.808 681.916C841.772 682.321 842.837 682.295 843.787 681.798C844.735 681.303 845.489 680.379 845.868 679.273C846.246 678.167 846.213 676.984 845.762 676.031C845.31 675.074 844.476 674.425 843.458 674.181C842.9 674.045 842.368 673.917 841.813 673.779C831.926 671.504 822.858 668.012 814.449 662.204C813.971 661.886 813.519 661.583 813.043 661.258Z" fill="#007BA4"/>
</g>
<g clip-path="url(#clip1_468_920)">
<path d="M421.725 629.393C427.807 626.565 421.498 625.887 421.946 623.018C422.491 619.526 420.746 614.371 417.504 607.998C411.324 595.851 380.127 589.519 372.73 567.572L372.622 567.254L372.581 566.918C370.473 549.659 368.507 534.295 363.415 522.282C358.529 510.756 350.919 502.687 337.713 499.172C321.088 502.189 309.508 507.14 301.662 513.111C293.731 519.148 289.316 526.451 287.447 534.549C283.634 551.068 290.424 570.944 300.821 588.81L300.902 588.947L300.967 589.09C309.041 606.619 324.592 615.63 343.541 625.514C352.982 630.438 370.983 632.465 379.64 634.216C388.263 635.96 416.599 631.047 421.725 629.393Z" fill="#87CFE5" stroke="#0076B8" stroke-width="7"/>
<path d="M335.515 540.078C335.684 540.349 335.716 540.689 335.617 541.017C335.516 541.344 335.292 541.633 334.981 541.825C334.671 542.018 334.296 542.101 333.928 542.063C333.56 542.024 333.23 541.869 333.021 541.623C332.572 541.092 332.14 540.574 331.701 540.038C323.499 530.784 318.837 518.093 318.633 505.552C318.6 504.844 318.572 504.171 318.552 503.461C321.471 503.316 324.39 503.171 327.309 503.026C327.233 503.699 327.165 504.337 327.102 505.006C325.687 516.879 327.926 528.202 334.47 538.373C334.815 538.948 335.156 539.505 335.515 540.078Z" fill="#0074AB"/>
<path d="M307.22 550.844C307.361 551.135 307.358 551.487 307.225 551.816C307.091 552.144 306.84 552.423 306.51 552.598C306.18 552.772 305.796 552.83 305.426 552.767C305.057 552.704 304.733 552.526 304.541 552.262C304.193 551.783 303.864 551.328 303.522 550.844C297.275 542.482 293.182 532.178 291.005 522.054C290.87 521.483 290.741 520.938 290.61 520.367C290.372 519.348 290.622 518.281 291.36 517.389C292.094 516.498 293.255 515.856 294.534 515.614C295.813 515.372 297.09 515.552 298.029 516.125C298.973 516.699 299.503 517.618 299.555 518.671C299.586 519.248 299.613 519.8 299.647 520.374C300.049 530.592 301.944 540.139 306.487 549.313C306.733 549.833 306.966 550.325 307.22 550.844Z" fill="#007BA4"/>
</g>
<path d="M535.245 626.276L541.389 620.557L544.78 614.896L547.038 608.427L546.904 603.647L544.374 609.531L543.769 610.939L540.724 597.61L182.592 441.065L164.742 466.006L522.652 628.077L528.619 627.789L535.245 626.276Z" fill="#D3B256" stroke="#F1CD51"/>
<path d="M180.049 461.444L533.427 617.926" stroke="#F1CD51" stroke-width="21" stroke-linecap="round"/>
<path d="M168.877 468.867L185.211 442.729L139.821 422.409L180.313 391.24L181.777 382.625L180.085 375.217L175.161 359.293L169.164 336.795L158.034 323.749L153.399 331.628L164.186 378.849L159.34 385.801L150.794 389.702L137.366 344.058L128.261 341.754L124.32 347.038L135.741 397.037L126.019 407.052L115.419 409.473L100.074 366.703L93.0069 363.933L88.584 372.737L99.0531 418.569L92.6822 426.357L83.3213 430.444L73.6859 412.673L66.587 392.862L59.4299 391.574L55.8222 400.192L64.6139 438.681L59.6476 445.106L51.8116 448.358L44.3203 430.584L35.0927 412.721L29.1585 411.153L26.4566 418.103L31.9249 438.287L38.4951 455.783L33.9357 460.235L28.2284 461.538L19.9525 447.841L10.9056 427.013L4.44276 423.131L1.12169 429.248L8.73561 462.581L29.8162 481.634L112.63 444.208L168.877 468.867Z" fill="#B8BDC6"/>
<path d="M27.5063 467.874C15.7327 461.464 11.7332 454.47 9.08166 436.036" stroke="#B7B6AF" stroke-width="6" stroke-linecap="round"/>
<path d="M170.634 393.936C177.481 380.586 176.053 372.56 164.356 357.238" stroke="#B7B6AF" stroke-width="6" stroke-linecap="round"/>
<path d="M154.516 402.937C142.742 396.527 138.743 389.533 136.091 371.099" stroke="#B7B6AF" stroke-width="6" stroke-linecap="round"/>
<path d="M119.792 427.43C108.018 421.02 104.018 414.026 101.367 395.592" stroke="#B7B6AF" stroke-width="6" stroke-linecap="round"/>
<path d="M81.8936 438.035C70.1199 431.625 66.1204 424.631 63.4689 406.198" stroke="#B7B6AF" stroke-width="6" stroke-linecap="round"/>
<path d="M51.6074 455.669C39.8337 449.259 35.8343 442.265 33.1827 423.831" stroke="#B7B6AF" stroke-width="6" stroke-linecap="round"/>
<path d="M579.5 368C681.975 368 765 450.406 765 552C765 653.594 681.975 736 579.5 736C477.025 736 394 653.594 394 552C394 450.406 477.025 368 579.5 368Z" fill="#86D0E3" stroke="#0C74AB" stroke-width="7"/>
<path d="M706.5 680C672 719 608 734.5 583 732C476 738 395.5 643.895 398 550.5C399.566 492 385 630 524 689C598.5 726.5 706.5 680 706.5 680Z" fill="#37B4CA"/>
<path opacity="0.77" d="M500.722 435.918L515.237 434.318L531.841 435.571L539.594 437.782L545.567 441.034L545.51 445.983L544.745 450.924L541.852 456.548L534.123 452.216L520.38 448.167L510.506 445.931L498.844 445.443L499.267 439.437L500.722 435.918Z" fill="#004F80"/>
<path opacity="0.7" d="M567.328 408.345L572.653 402.374L578.764 397.775L586.328 393.802L596.342 389.334L605.732 386.318L610.331 392.43L601.809 398.229L592.289 405.147L585.179 410.866L580.519 416.09L575.195 422.06L569.97 417.401L567.237 412.954L567.328 408.345Z" fill="#014C83"/>
<g clip-path="url(#clip2_468_920)">
<path d="M504.058 491.254C543.814 492.01 548.055 473.555 559.22 506.71C565.519 525.417 565.913 529.889 562.872 542.328C559.874 554.593 551.841 564.002 536.865 569.045C514.684 576.514 488.359 556.14 476.972 522.325C465.586 488.511 464.303 490.499 504.058 491.254Z" fill="#FEFEFE" stroke="#0F79AB" stroke-width="6"/>
<path d="M549.956 528.231C557.717 522.786 559.554 512.021 554.058 504.186C548.562 496.352 537.815 494.414 530.054 499.858C522.292 505.302 520.455 516.067 525.951 523.902C531.447 531.737 542.194 533.675 549.956 528.231Z" fill="#2B2A28"/>
<path d="M590.933 428.081C602.593 425.015 615.166 429.005 626.106 438.26C637.043 447.512 646.159 461.897 650.673 479.066C655.758 498.405 656.617 514.893 652.48 527.451C648.411 539.802 639.387 548.725 623.736 552.841C612.08 555.905 599.909 551.961 589.357 542.713C578.792 533.455 570.001 518.978 565.402 501.486C560.802 483.994 561.336 467.065 565.981 453.808C570.62 440.566 579.277 431.146 590.933 428.081Z" fill="#FEFEFE" stroke="#0F79AB" stroke-width="6"/>
<path d="M607.003 496.6C609.993 505.479 605.95 514.855 597.306 517.765C588.663 520.675 579.233 515.837 576.243 506.958C573.253 498.08 577.836 488.522 586.48 485.612C596.87 484.351 603.891 487.356 607.003 496.6Z" fill="#2B2A28"/>
</g>
<path d="M577.641 594.318C568.281 581.794 566.724 572.486 568.568 553.002" stroke="#0082AA" stroke-width="7" stroke-linecap="round"/>
<path d="M674.125 523.652C674.394 522.998 674.912 522.478 675.564 522.207C676.217 521.937 676.95 521.937 677.603 522.209C678.256 522.48 678.776 523.001 679.047 523.655C679.318 524.31 679.32 525.045 679.05 525.7C677.731 528.905 676.224 532.033 674.552 535.065C642.768 589.874 569.723 609.914 511.958 588.699C508.715 587.519 505.569 586.238 502.417 584.815C501.773 584.524 501.27 583.988 501.017 583.326C500.766 582.663 500.788 581.928 501.077 581.282C501.366 580.636 501.899 580.133 502.559 579.882C503.219 579.632 503.952 579.654 504.597 579.946C507.625 581.314 510.648 582.544 513.764 583.678C569.177 604.197 639.993 584.395 669.888 532.473C671.466 529.611 672.885 526.665 674.125 523.652Z" fill="#076FA2"/>
<path d="M519.103 588.681L519.232 589.05L519.251 589.44C519.876 602.551 551.628 630.618 577.736 664.424C607.53 682.272 597.424 683.158 627.003 676.502C654.228 657.317 656.306 649.861 662.503 631.502C665.63 622.239 669.186 600.164 670.003 593.502C670.276 591.275 669.754 542.824 670.003 541.002C666.301 543.626 648.61 565.933 643.503 569.002C622.435 581.66 623.503 585.829 597.003 592.502C567.779 593.787 566.82 605.673 552.503 595.502C548.908 592.947 524.478 592.607 521.985 590.674C520.846 589.791 521.357 594.143 520.503 593.502C520.536 593.598 519.068 588.581 519.103 588.681Z" fill="#D20223" stroke="#076FA2" stroke-width="6"/>
<path d="M614.003 677.001C628.003 675.501 639.503 667.001 651.003 651.501C662.138 636.493 668.921 613.404 660.658 611.162C639.736 618.503 622.28 627.87 608.081 671.748C606.847 676.295 606.503 679.501 614.003 677.001Z" fill="#FF1863"/>
<path d="M557.294 598.054L557.355 598.064L557.419 598.069L566.708 598.728L566.762 598.732L566.814 598.731L574.854 598.658L574.887 598.658L581.207 598.283L582.148 614.157L581.984 616.984L579.057 619.74L576.295 621.336L572.216 621.954L568.45 622.177L564.339 621.309L560.092 618.941L555.694 614.667L552.62 608.284L550.297 601.809L550.003 596.84L557.294 598.054Z" fill="#FEFEFE" stroke="#0875A4" stroke-width="3"/>
<path d="M605.544 593.336L605.484 593.354L605.423 593.365L595.313 595.303L595.261 595.313L595.208 595.319L586.374 596.288L586.341 596.292L579.22 596.714L580.269 614.422L580.829 617.568L584.461 620.258L587.739 621.666L592.329 621.812L596.518 621.564L600.952 620.063L605.336 616.882L609.633 611.58L612.185 604.134L613.894 596.695L613.557 591.002L605.544 593.336Z" fill="#FEFEFE" stroke="#0578A5" stroke-width="3"/>
<path d="M573.697 560.188C584.165 556.663 589.575 544.671 585.781 533.404C581.987 522.136 570.425 515.859 559.957 519.384C549.489 522.909 544.079 534.901 547.873 546.168C551.667 557.436 563.229 563.713 573.697 560.188Z" fill="#ED6F7A"/>
<g clip-path="url(#clip3_468_920)">
<path d="M459 716C477.453 716 487.418 721.777 492.985 729.291C498.752 737.076 500.5 747.636 500.5 758.5C500.5 769.729 499.623 778.38 492.348 784.753C484.743 791.415 469.12 796.5 436.5 796.5C414.106 796.5 398.008 795.432 386.449 793.533C374.815 791.622 368.241 788.939 364.485 786.064C360.993 783.392 359.644 780.333 359.114 776.492C358.834 774.466 358.79 772.239 358.831 769.693C358.871 767.301 359 764.305 359 761.5C359 758.01 361.71 753.248 368.265 747.682C374.594 742.307 383.607 736.959 394.018 732.206C414.892 722.677 440.368 716 459 716Z" fill="#87CFE5" stroke="#0178B2" stroke-width="9"/>
<path d="M495.614 745.952C506.614 788.952 473.16 794 434.5 794C395.84 794 374 791 368.5 784C355.5 778 409.114 782.952 437.114 779.952C522.114 779.952 476 703 495.614 745.952Z" fill="#31A7BA"/>
</g>
<g clip-path="url(#clip4_468_920)">
<path d="M634.756 719.712C616.824 715.358 605.777 718.621 598.595 724.609C591.154 730.814 586.964 740.663 584.4 751.221C581.751 762.133 580.562 770.747 586.128 778.656C591.947 786.924 605.929 795.551 637.628 803.247C659.39 808.531 675.286 811.291 686.967 812.173C698.722 813.061 705.744 812.004 710.072 810.097C714.096 808.324 716.129 805.669 717.55 802.062C718.3 800.159 718.869 798.006 719.429 795.522C719.955 793.188 720.536 790.246 721.198 787.52C722.021 784.129 720.512 778.862 715.455 771.906C710.572 765.19 703.076 757.866 694.08 750.791C676.043 736.607 652.862 724.107 634.756 719.712Z" fill="#87CFE5" stroke="#0178B2" stroke-width="9"/>
<path d="M592.109 740.18C571.274 779.371 602.593 792.17 640.162 801.291C677.73 810.412 699.661 812.649 706.658 807.144C720.706 804.381 667.437 796.543 640.936 787.022C558.335 766.968 621.303 703.068 592.109 740.18Z" fill="#31A7BA"/>
</g>
<defs>
<clipPath id="clip0_468_920">
<rect width="86.3952" height="162.483" fill="white" transform="translate(698 626.492) rotate(-62.2942)"/>
</clipPath>
<clipPath id="clip1_468_920">
<rect width="96.4292" height="162.483" fill="white" transform="matrix(0.947616 -0.319411 -0.319411 -0.947616 320.899 670.774)"/>
</clipPath>
<clipPath id="clip2_468_920">
<rect width="196" height="148.189" fill="white" transform="translate(452 455.548) rotate(-18.6099)"/>
</clipPath>
<clipPath id="clip3_468_920">
<rect width="151" height="90" fill="white" transform="translate(354 711)"/>
</clipPath>
<clipPath id="clip4_468_920">
<rect width="151" height="90" fill="white" transform="matrix(-0.97177 -0.235931 -0.235931 0.97177 737.971 739.626)"/>
</clipPath>
</defs>
</svg>
