<svg width="1100" height="850" viewBox="0 0 1100 850" fill="none" xmlns="http://www.w3.org/2000/svg">
<path d="M755.077 123.013C786.857 98.7194 812.883 95.4604 826.662 106.535C841.557 118.507 852.066 143.249 842.168 176.495C832.144 210.161 824.85 214.421 751.422 264.388L714.996 304.792L696.075 325.76C650.961 376.798 650.448 385.53 630.106 417.259C624.987 425.245 620.556 432.2 616.548 438.004C612.502 443.862 609.213 448.065 606.45 450.736C603.695 453.4 602.269 453.77 601.546 453.749C600.768 453.726 599.113 453.201 596.773 449.621L595.23 447.257L592.432 447.533C587.894 447.979 585.501 446.982 584.205 445.711C582.944 444.475 582.017 442.291 581.922 438.276C581.717 429.742 579.812 412.39 586.935 393.693C601.031 356.689 607.511 297.09 632.26 244.373C663.348 178.152 723.617 147.064 755.077 123.013Z" fill="#87CFE5" stroke="#0E6B96" stroke-width="12"/>
<path d="M387.09 66.8741C398.089 60.9326 409.877 59.6431 422.187 62.7906C434.709 65.9925 447.947 73.8592 460.942 86.5419C486.905 111.878 510.681 155.26 525.118 213.232C529.079 237.745 534.233 262.165 538.943 284.776C543.684 307.536 547.955 328.378 550.213 345.931C552.504 363.748 552.551 377.128 549.646 385.43C548.245 389.434 546.418 391.492 544.651 392.545C542.95 393.559 540.12 394.344 535.108 393.685L531.484 393.21L528.793 395.607C525.145 398.856 523.239 399.149 522.643 399.151C522.069 399.153 520.548 398.891 518.016 396.277C515.532 393.711 512.879 389.695 509.9 384.142C506.954 378.65 503.878 372.023 500.426 364.434C486.709 334.271 467.707 290.226 430.45 253.287L430.19 253.029L429.895 252.802L426.461 250.136C355.168 194.414 334.697 154.798 336.297 126.972C337.892 99.2436 361.693 80.5932 387.09 66.8741Z" fill="#8BCDE5" stroke="#0E6B96" stroke-width="12"/>
<path d="M584.5 371C686.975 371 770 453.406 770 555C770 656.594 686.975 739 584.5 739C482.025 739 399 656.594 399 555C399 453.406 482.025 371 584.5 371Z" fill="#86D0E3" stroke="#0C74AB" stroke-width="7"/>
<path d="M711.5 683C677 722 613 737.5 588 735C481 741 400.5 646.895 403 553.5C404.566 495 390 633 529 692C603.5 729.5 711.5 683 711.5 683Z" fill="#37B4CA"/>
<g clip-path="url(#clip0_470_1289)">
<path d="M586.988 472.053C609.628 480.267 621.144 507.944 611.864 533.518C606.629 547.948 599.313 558.374 589.842 563.887C580.503 569.323 568.588 570.256 553.36 564.73C530.806 556.547 520.38 529.841 529.844 503.758C539.308 477.675 564.434 463.869 586.988 472.053Z" fill="#FEFEFE" stroke="#0F79AB" stroke-width="6"/>
<path d="M680.829 481.27C693.242 485.774 702.475 496.116 707.218 509.465C711.959 522.808 712.114 538.948 706.473 554.494C700.12 572.005 691.522 584.904 680.59 591.93C669.837 598.842 656.502 600.281 639.84 594.235C627.43 589.732 618.539 579.659 614.147 566.543C609.75 553.412 609.944 537.393 615.691 521.554C621.438 505.716 631.561 493.299 643.356 486.043C655.137 478.795 668.419 476.767 680.829 481.27Z" fill="#FEFEFE" stroke="#0F79AB" stroke-width="6"/>
<path d="M647.482 530.108C644.225 539.084 636.145 544.388 628.875 541.75C621.605 539.112 618.352 529.697 621.609 520.72C624.866 511.743 633.4 506.604 640.67 509.242C648.103 514.238 650.873 520.762 647.482 530.108Z" fill="#2B2A28"/>
<path d="M586.896 527.247C594.113 530.024 602.75 525.052 606.187 516.142C609.623 507.233 606.557 497.758 599.34 494.981C592.122 492.204 583.485 497.176 580.048 506.086C576.612 514.996 579.678 524.47 586.896 527.247Z" fill="#2B2A28"/>
<path opacity="0.77" d="M569.185 439.213L585.642 442.289L603.995 449.389L612.316 454.594L618.49 460.403L617.669 466.134L616.06 471.616L611.967 477.166L603.998 469.505L589.268 460.129L578.581 454.174L565.63 449.641L567.021 442.807L569.185 439.213Z" fill="#004F80"/>
</g>
<path d="M595.701 589.565C606.03 593.313 617.634 587.446 621.619 576.461C625.605 565.476 620.463 553.533 610.135 549.786C599.806 546.038 588.202 551.905 584.217 562.89C580.231 573.875 585.373 585.818 595.701 589.565Z" fill="#ED6F7A"/>
<path d="M531.268 745.318L538.302 749.897L544.615 751.82L551.439 752.448L556.044 751.163L549.723 750.129L548.211 749.881L560.409 743.705L644.508 254.342L618.412 249.661L526.476 733.535L528.199 739.255L531.268 745.318Z" fill="#D3B256" stroke="#F1CD51"/>
<path d="M626.804 257.083L546.215 737.071" stroke="#F1CD51" stroke-width="21" stroke-linecap="round"/>
<path d="M616.906 248.033L646.217 257.565L654.964 208.609L694.996 240.367L703.709 239.705L710.488 236.273L724.75 227.646L745.132 216.389L755.101 202.436L746.336 199.843L703.121 221.723L695.204 218.701L689.354 211.352L730.399 187.289L730.434 177.897L724.354 175.351L678.598 198.518L666.53 191.504L661.619 181.804L699.412 156.576L700.392 149.049L690.78 146.885L648.836 168.122L639.74 163.822L633.511 155.726L648.426 142.082L665.935 130.405L665.454 123.149L656.22 121.731L620.997 139.565L613.562 136.299L608.513 129.481L623.949 117.916L639.052 104.644L639.139 98.5071L631.742 97.565L613.478 107.75L598.089 118.354L592.667 115.006L590.023 109.783L601.314 98.4414L619.337 84.6287L621.542 77.4192L614.804 75.675L584.3 91.1197L570.906 116.18L627.24 187.493L616.906 248.033Z" fill="#B8BDC6"/>
<path d="M583.701 110.614C587.075 97.6399 592.895 92.0686 610.142 85.0402" stroke="#B7B6AF" stroke-width="6" stroke-linecap="round"/>
<path d="M690.041 231.626C704.65 235.043 712.093 231.718 724.133 216.664" stroke="#B7B6AF" stroke-width="6" stroke-linecap="round"/>
<path d="M677.412 218.162C680.786 205.188 686.606 199.616 703.853 192.588" stroke="#B7B6AF" stroke-width="6" stroke-linecap="round"/>
<path d="M645.251 190.387C648.625 177.413 654.445 171.842 671.691 164.814" stroke="#B7B6AF" stroke-width="6" stroke-linecap="round"/>
<path d="M625.801 156.176C629.175 143.202 634.995 137.631 652.241 130.602" stroke="#B7B6AF" stroke-width="6" stroke-linecap="round"/>
<path d="M601.369 131.05C604.743 118.076 610.563 112.505 627.81 105.476" stroke="#B7B6AF" stroke-width="6" stroke-linecap="round"/>
<g clip-path="url(#clip1_470_1289)">
<path d="M723.947 622.131C724.202 617.262 722.537 614.92 720.154 613.427C717.254 611.61 712.462 610.491 705.214 609.726C691.398 608.269 670.035 608.311 646.813 603.409L646.477 603.338L646.155 603.22C629.605 597.131 614.833 591.765 601.641 589.71C588.983 587.739 578.188 588.881 568.918 595.337C563.967 606.636 563.088 615.722 564.855 622.993C566.642 630.344 571.195 636.117 577.639 640.695C590.787 650.034 611.859 654.419 632.783 655.774L632.943 655.784L633.103 655.806C652.65 658.417 674.626 654.3 692.294 647.101C701.096 643.514 708.681 639.221 714.258 634.753C719.813 630.303 723.073 625.923 723.947 622.131Z" fill="#87CFE5" stroke="#0076B8" stroke-width="7"/>
<path d="M604.82 614.101C605.142 614.114 605.464 614.24 605.715 614.44C605.963 614.64 606.12 614.898 606.15 615.167C606.181 615.437 606.083 615.698 605.878 615.903C605.674 616.108 605.381 616.24 605.063 616.262C604.376 616.305 603.71 616.345 603.023 616.381C590.885 617.375 577.28 614.772 565.868 609.548C565.214 609.266 564.593 608.996 563.943 608.705C565.16 606.885 566.377 605.066 567.593 603.246C568.166 603.578 568.71 603.891 569.285 604.215C579.347 610.129 590.599 613.608 602.798 614.003C603.477 614.04 604.137 614.073 604.82 614.101Z" fill="#0074AB"/>
<path d="M601.474 635.733C601.801 635.772 602.118 635.924 602.353 636.144C602.588 636.364 602.724 636.635 602.729 636.908C602.734 637.181 602.609 637.437 602.381 637.633C602.154 637.828 601.844 637.947 601.517 637.951C600.923 637.956 600.362 637.96 599.767 637.96C589.337 638.157 578.148 636.23 568.007 633.224C567.429 633.062 566.878 632.907 566.301 632.743C565.272 632.452 564.425 631.846 563.96 631.021C563.495 630.199 563.452 629.226 563.823 628.353C564.195 627.479 564.948 626.787 565.898 626.465C566.852 626.142 567.926 626.215 568.9 626.632C569.436 626.86 569.946 627.078 570.48 627.303C579.887 631.417 589.377 634.346 599.754 635.522C600.337 635.595 600.889 635.664 601.474 635.733Z" fill="#007BA4"/>
</g>
<g clip-path="url(#clip2_470_1289)">
<path d="M404.878 597.288C404.438 602.403 406.006 604.884 408.32 606.482C411.136 608.426 415.863 609.659 423.046 610.549C436.739 612.244 458.001 612.453 480.923 617.881L481.255 617.959L481.571 618.087C497.807 624.684 512.303 630.499 525.353 632.815C537.874 635.037 548.661 633.964 558.132 627.289C563.491 615.471 564.713 605.932 563.232 598.268C561.735 590.52 557.425 584.399 551.187 579.51C538.46 569.538 517.657 564.679 496.886 563.007L496.727 562.995L496.569 562.97C477.217 559.994 455.189 564.061 437.332 571.418C428.435 575.084 420.723 579.507 415.002 584.137C409.304 588.748 405.892 593.313 404.878 597.288Z" fill="#87CFE5" stroke="#0076B8" stroke-width="7"/>
<path d="M523.121 607.141C522.8 607.122 522.485 606.987 522.244 606.774C522.003 606.56 521.857 606.287 521.838 606.004C521.817 605.72 521.925 605.447 522.136 605.234C522.347 605.021 522.644 604.885 522.962 604.866C523.647 604.829 524.311 604.795 524.996 604.766C537.114 603.864 550.553 606.761 561.71 612.387C562.351 612.691 562.958 612.983 563.594 613.296C562.313 615.195 561.033 617.093 559.752 618.991C559.195 618.635 558.666 618.299 558.106 617.953C548.319 611.617 537.255 607.827 525.129 607.267C524.455 607.22 523.799 607.178 523.121 607.141Z" fill="#0074AB"/>
<path d="M527.278 584.443C526.953 584.399 526.644 584.235 526.418 584.001C526.193 583.766 526.069 583.48 526.074 583.193C526.079 582.906 526.213 582.638 526.447 582.435C526.681 582.232 526.994 582.111 527.319 582.111C527.911 582.113 528.47 582.115 529.062 582.123C539.449 582.039 550.51 584.198 560.487 587.477C561.056 587.654 561.599 587.823 562.166 588.003C563.179 588.321 563.999 588.968 564.43 589.84C564.861 590.71 564.867 591.733 564.464 592.647C564.061 593.56 563.285 594.279 562.327 594.606C561.366 594.935 560.299 594.845 559.346 594.395C558.822 594.149 558.323 593.914 557.8 593.671C548.596 589.236 539.263 586.044 528.981 584.686C528.404 584.601 527.858 584.522 527.278 584.443Z" fill="#007BA4"/>
</g>
<path opacity="0.7" d="M651.999 428.847L659.997 428.685L667.526 430.034L675.585 432.872L685.674 437.17L694.273 441.997L692.924 449.526L682.876 447.228L671.328 444.96L662.299 443.642L655.301 443.783L647.302 443.944L647.161 436.946L648.56 431.916L651.999 428.847Z" fill="#014C83"/>
<g clip-path="url(#clip3_470_1289)">
<path d="M412.709 642.93C423.459 657.929 425.092 669.019 422.907 677.434C420.644 686.152 414.035 693.039 406.188 698.664C398.077 704.478 391.317 708.243 382.476 705.63C373.233 702.898 360.459 692.832 341.456 666.32C328.41 648.118 319.803 634.48 314.44 624.103C309.043 613.658 307.151 606.925 307.039 602.384C306.935 598.163 308.359 595.482 310.824 593.063C312.125 591.786 313.708 590.597 315.571 589.314C317.322 588.107 319.562 586.661 321.587 585.209C324.108 583.402 329.126 583.139 336.966 585.585C344.534 587.947 353.648 592.503 363.147 598.505C382.19 610.537 401.854 627.787 412.709 642.93Z" fill="#87CFE5" stroke="#0178B2" stroke-width="9"/>
<path d="M412.404 688.196C387.754 719.399 364.618 694.822 342.096 663.4C319.574 631.978 309.017 612.673 310.869 604.579C307.63 590.907 335.287 637.047 353.766 658.251C403.284 727.338 432.002 650.018 412.404 688.196Z" fill="#31A7BA"/>
</g>
<g clip-path="url(#clip4_470_1289)">
<path d="M639.756 722.712C621.824 718.358 610.778 721.621 603.595 727.609C596.154 733.814 591.964 743.663 589.401 754.221C586.752 765.133 585.563 773.747 591.129 781.656C596.947 789.924 610.93 798.551 642.628 806.247C664.39 811.531 680.287 814.291 691.967 815.173C703.723 816.061 710.745 815.004 715.073 813.097C719.096 811.324 721.129 808.669 722.551 805.062C723.301 803.159 723.869 801.006 724.429 798.522C724.955 796.188 725.536 793.246 726.198 790.52C727.021 787.129 725.512 781.862 720.455 774.906C715.573 768.19 708.077 760.866 699.08 753.791C681.044 739.607 657.863 727.107 639.756 722.712Z" fill="#87CFE5" stroke="#0178B2" stroke-width="9"/>
<path d="M597.109 743.18C576.275 782.37 607.593 795.169 645.162 804.29C682.731 813.411 704.662 815.649 711.658 810.144C725.707 807.38 672.438 799.543 645.936 790.022C563.336 769.968 626.303 706.068 597.109 743.18Z" fill="#31A7BA"/>
</g>
<defs>
<clipPath id="clip0_470_1289">
<rect width="189.284" height="127.952" fill="white" transform="translate(552.643 432) rotate(19.9429)"/>
</clipPath>
<clipPath id="clip1_470_1289">
<rect width="69.6706" height="166.504" fill="white" transform="matrix(0.206533 -0.97844 -0.97844 -0.206533 716.021 678.627)"/>
</clipPath>
<clipPath id="clip2_470_1289">
<rect width="73.4562" height="165.257" fill="white" transform="matrix(-0.230404 0.973095 0.973095 0.230404 414.924 538)"/>
</clipPath>
<clipPath id="clip3_470_1289">
<rect width="151" height="79.9813" fill="white" transform="translate(355.15 555) rotate(54.3685)"/>
</clipPath>
<clipPath id="clip4_470_1289">
<rect width="151" height="90" fill="white" transform="matrix(-0.97177 -0.235931 -0.235931 0.97177 742.972 742.625)"/>
</clipPath>
</defs>
</svg>
