<svg width="1100" height="850" viewBox="0 0 1100 850" fill="none" xmlns="http://www.w3.org/2000/svg">
<g clip-path="url(#clip0_471_2027)">
<path d="M724.69 114.886C751.588 85.2774 776.605 77.3953 792.149 85.814C808.953 94.915 823.737 117.366 819.973 151.85C816.161 186.768 809.751 192.27 746.495 254.617L717.922 300.908L703.076 324.934C667.866 383.247 668.93 391.929 654.62 426.796C651.019 435.573 647.909 443.21 645.01 449.64C642.082 456.13 639.602 460.856 637.364 463.979C635.132 467.095 633.796 467.715 633.081 467.825C632.312 467.942 630.589 467.722 627.644 464.621L625.701 462.573L622.998 463.347C618.614 464.601 616.081 464.05 614.577 463.033C613.115 462.043 611.811 460.062 610.996 456.129C609.261 447.771 604.27 431.043 607.917 411.371C615.136 372.436 610.802 312.643 625.676 256.337C644.361 185.608 698.063 144.198 724.69 114.886Z" fill="#87CFE5" stroke="#0E6B96" stroke-width="12"/>
<path d="M299.432 85.2229C308.336 76.3905 319.375 72.0309 332.229 71.9971C345.304 71.9629 360.448 76.4334 376.777 85.8094C409.399 104.539 445.224 141.983 476.303 196.524C487.368 220.142 499.561 243.358 510.79 264.87C522.094 286.524 532.377 306.372 539.74 323.435C547.212 340.754 551.202 354.196 550.836 363.299C550.66 367.689 549.496 370.233 548.095 371.751C546.746 373.213 544.236 374.738 539.186 375.377L535.535 375.841L533.635 378.95C531.059 383.166 529.299 383.955 528.722 384.112C528.166 384.263 526.615 384.396 523.392 382.424C520.229 380.49 516.474 377.141 511.952 372.332C507.478 367.575 502.544 361.71 496.962 354.976C474.781 328.211 443.385 288.86 396.4 261.399L396.072 261.206L395.72 261.055L391.607 259.266C306.11 221.762 274.598 187.247 267.944 158.851C261.314 130.555 278.873 105.617 299.432 85.2229Z" fill="#8BCDE5" stroke="#0E6B96" stroke-width="12"/>
<g clip-path="url(#clip1_471_2027)">
<path d="M664.855 717.467C651.925 704.302 640.821 701.239 631.559 702.533C621.964 703.873 613.205 710.025 605.454 717.637C597.442 725.505 591.884 732.192 592.435 741.848C593.01 751.942 600.329 766.652 623.185 789.925C638.876 805.903 650.918 816.64 660.372 823.557C669.886 830.518 676.407 833.329 681.09 833.994C685.443 834.613 688.571 833.432 691.683 831.119C693.325 829.899 694.945 828.37 696.732 826.557C698.411 824.853 700.458 822.661 702.459 820.695C704.949 818.25 706.448 812.98 705.827 804.403C705.227 796.122 702.728 785.944 698.824 775.186C690.996 753.616 677.91 730.761 664.855 717.467Z" fill="#87CFE5" stroke="#0178B2" stroke-width="9"/>
<path d="M617.83 712.331C579.443 734.612 599.282 762.018 626.371 789.601C653.459 817.184 670.902 830.664 679.75 829.683C693.14 834.754 652.041 799.971 634.562 777.892C575.004 717.247 662.219 696.229 617.83 712.331Z" fill="#31A7BA"/>
</g>
<path d="M582.5 369C684.975 369 768 451.406 768 553C768 654.594 684.975 737 582.5 737C480.025 737 397 654.594 397 553C397 451.406 480.025 369 582.5 369Z" fill="#86D0E3" stroke="#0C74AB" stroke-width="7"/>
<path d="M709.5 681C675 720 611 735.5 586 733C479 739 398.5 644.895 401 551.5C402.566 493 388 631 527 690C601.5 727.5 709.5 681 709.5 681Z" fill="#37B4CA"/>
<g clip-path="url(#clip2_471_2027)">
<path d="M474.008 697.133C488.752 708.23 493.24 718.837 493.17 728.189C493.097 737.877 488.143 747.366 481.611 756.046C474.858 765.018 468.956 771.403 459.311 772.12C449.228 772.871 433.688 767.539 407.624 747.924C389.731 734.458 377.511 723.924 369.417 715.457C361.27 706.935 357.631 700.837 356.358 696.282C355.175 692.047 355.937 688.792 357.823 685.404C358.818 683.617 360.121 681.81 361.685 679.802C363.155 677.914 365.061 675.598 366.747 673.357C368.846 670.568 373.874 668.393 382.459 667.887C390.747 667.398 401.165 668.544 412.342 671.007C434.75 675.946 459.121 685.93 474.008 697.133Z" fill="#87CFE5" stroke="#0178B2" stroke-width="9"/>
<path d="M485.253 743.082C468.185 784.054 438.419 767.971 407.53 744.724C376.64 721.477 360.993 705.947 360.808 697.047C354.029 684.435 393.89 720.631 418.066 735.071C485.982 786.183 495.409 696.969 485.253 743.082Z" fill="#31A7BA"/>
</g>
<path opacity="0.77" d="M530.808 412.063L544.198 406.235L560.427 402.512L568.487 402.326L575.155 403.662L576.567 408.406L577.301 413.352L576.204 419.581L567.539 417.733L553.213 417.938L543.12 418.728L531.837 421.717L530.461 415.855L530.808 412.063Z" fill="#004F80"/>
<g clip-path="url(#clip3_471_2027)">
<path d="M575.582 569.951L575.631 569.965L575.681 569.973L583.937 571.377L583.98 571.385L584.023 571.387L591.202 571.855L591.23 571.857H597V590.498L596.698 593.833L593.895 596.88L591.315 598.561L587.615 599H584.221L580.569 597.701L576.876 594.637L573.153 589.342L570.736 581.69L569 573.993V568L575.582 569.951Z" fill="#FEFEFE" stroke="#0578A5" stroke-width="3"/>
<path d="M615.848 568.62L615.783 568.637L615.714 568.648L605.742 570.118L605.684 570.126L605.628 570.129L596.957 570.603L596.921 570.605L590.087 570.585L590.027 590.345L590.374 593.84L593.694 597.054L596.767 598.84L601.2 599.32L605.273 599.332L609.652 597.967L614.088 594.731L618.571 589.12L621.5 580.984L623.615 572.788L623.634 566.602L615.848 568.62Z" fill="#FEFEFE" stroke="#0875A4" stroke-width="3"/>
<path d="M688.513 587.999C689.314 587.992 690.131 587.813 690.78 587.445C691.43 587.076 692.027 586.431 692 585.553V585.551C691.973 584.685 691.353 584.07 690.697 583.721C688.384 582.494 686.031 581.336 683.57 580.208L683.336 580.101C660.713 569.718 631.337 563.767 601.836 563.07C572.797 562.383 543.54 566.784 520.408 577.141L519.31 577.638L519.291 577.647C517.099 578.7 514.994 579.814 512.996 580.985L512.139 581.494C511.501 581.881 510.942 582.543 511.005 583.41L511.034 583.625C511.172 584.366 511.772 584.902 512.38 585.207L512.527 585.277C513.173 585.566 513.941 585.694 514.685 585.675L514.965 585.66C515.615 585.611 516.262 585.447 516.8 585.155L516.971 585.056L517.701 584.622L517.712 584.615C519.536 583.547 521.464 582.527 523.481 581.558L523.495 581.551L523.508 581.545C545.133 571.544 573.349 567.216 601.561 567.879C629.776 568.543 657.883 574.197 679.262 584.063L679.29 584.075L679.301 584.082C681.698 585.177 683.983 586.299 686.227 587.49C686.888 587.841 687.71 588.007 688.513 587.999Z" fill="#076FA2"/>
</g>
<g clip-path="url(#clip4_471_2027)">
<path d="M547.727 458.785C571.261 457.119 592.623 477.752 594.543 504.889C595.627 520.201 593.251 532.696 586.982 541.574C580.801 550.327 570.517 556.008 554.688 557.129C531.244 558.788 511.244 538.601 509.285 510.924C507.326 483.246 524.283 460.444 547.727 458.785Z" fill="#FEFEFE" stroke="#0F79AB" stroke-width="6"/>
<path d="M635.349 429.182C648.252 428.268 660.644 433.981 670.221 444.26C679.795 454.536 686.384 469.227 687.551 485.723C688.866 504.304 686.331 519.58 679.361 530.433C672.506 541.108 661.153 547.827 643.833 549.053C630.933 549.966 618.955 544.361 609.784 534.152C600.603 523.931 594.375 509.209 593.186 492.402C591.996 475.595 596.088 460.142 603.738 448.73C611.379 437.331 622.449 430.095 635.349 429.182Z" fill="#FEFEFE" stroke="#0F79AB" stroke-width="6"/>
<path d="M596.929 551.868C606.105 551.219 613.01 543.15 612.352 533.846C611.693 524.542 603.72 517.527 594.544 518.176C585.368 518.826 578.463 526.894 579.121 536.198C579.78 545.502 587.752 552.518 596.929 551.868Z" fill="#ED6F7A"/>
<path d="M625.04 487.337C625.714 496.863 620.606 504.985 613.049 505.52C605.493 506.055 598.82 498.766 598.146 489.241C597.471 479.715 603.051 471.56 610.608 471.025C619.253 472.58 624.338 477.42 625.04 487.337Z" fill="#2B2A28"/>
<path d="M569.704 509.275C577.27 508.889 583.008 500.844 582.521 491.307C582.034 481.77 575.506 474.352 567.94 474.739C560.374 475.125 554.635 483.17 555.122 492.707C555.61 502.244 562.138 509.662 569.704 509.275Z" fill="#2B2A28"/>
</g>
<path opacity="0.7" d="M613.999 392.847L621.997 392.685L629.526 394.034L637.585 396.872L647.674 401.17L656.273 405.997L654.924 413.526L644.876 411.228L633.328 408.96L624.299 407.642L617.301 407.783L609.302 407.944L609.161 400.946L610.56 395.916L613.999 392.847Z" fill="#014C83"/>
<path d="M567.84 672.712L573.93 678.487L579.791 681.52L586.389 683.372L591.151 682.941L585.12 680.781L583.678 680.264L596.792 676.395L767.994 210.306L743.176 200.984L565.257 660.257L565.917 666.194L567.84 672.712Z" fill="#D3B256" stroke="#F1CD51"/>
<path d="M750.086 209.801L584.032 667.304" stroke="#F1CD51" stroke-width="21" stroke-linecap="round"/>
<path d="M741.989 199.11L769.093 213.786L786.548 167.219L820.178 205.692L828.867 206.616L836.155 204.466L851.742 198.561L873.823 191.175L886.151 179.255L877.999 175.119L831.541 188.824L824.3 184.421L819.875 176.134L864.595 159.891L866.328 150.66L860.809 147.056L811.617 161.567L801.017 152.487L797.941 142.059L839.673 124.08L841.997 116.855L832.935 112.989L787.843 126.291L779.674 120.417L775.012 111.328L792.149 100.606L811.48 92.2872L812.319 85.0638L803.494 81.9996L765.627 93.1701L758.904 88.6135L755.172 80.9951L772.444 72.4119L789.699 62.0901L790.894 56.07L783.789 53.8059L763.985 60.52L746.931 68.1666L742.205 63.8932L740.548 58.2781L753.704 49.1656L773.928 38.8397L777.4 32.1478L771.088 29.2139L738.294 38.888L720.59 61.1138L763.099 141.437L741.989 199.11Z" fill="#B8BDC6"/>
<path d="M734.18 57.9521C739.845 45.8023 746.576 41.3752 764.809 37.5813" stroke="#B7B6AF" stroke-width="6" stroke-linecap="round"/>
<path d="M816.885 196.199C830.635 202.201 838.557 200.277 853.121 187.648" stroke="#B7B6AF" stroke-width="6" stroke-linecap="round"/>
<path d="M806.898 180.672C812.563 168.523 819.294 164.095 837.527 160.302" stroke="#B7B6AF" stroke-width="6" stroke-linecap="round"/>
<path d="M780.291 147.541C785.955 135.391 792.687 130.964 810.92 127.17" stroke="#B7B6AF" stroke-width="6" stroke-linecap="round"/>
<path d="M767.347 110.376C773.012 98.2261 779.743 93.7991 797.976 90.0051" stroke="#B7B6AF" stroke-width="6" stroke-linecap="round"/>
<path d="M747.861 81.2461C753.526 69.0962 760.257 64.6692 778.49 60.8753" stroke="#B7B6AF" stroke-width="6" stroke-linecap="round"/>
<g clip-path="url(#clip5_471_2027)">
<path d="M682.565 661.88C677.839 663.076 675.218 661.897 673.29 659.849C670.945 657.358 668.916 652.874 666.759 645.913C662.646 632.643 658.539 611.678 649.221 589.85L649.086 589.534L648.907 589.241C639.72 574.189 631.588 560.74 627.01 548.198C622.618 536.164 621.643 525.352 626.175 515.006C636.298 507.954 645.04 505.328 652.516 505.65C660.074 505.975 666.621 509.32 672.364 514.752C684.078 525.836 692.472 545.655 697.864 565.918L697.906 566.073L697.958 566.226C704.315 584.894 704.544 607.251 700.913 625.981C699.104 635.312 696.365 643.586 693.065 649.924C689.779 656.238 686.116 660.286 682.565 661.88Z" fill="#87CFE5" stroke="#0076B8" stroke-width="7"/>
<path d="M651.554 546.58C651.63 546.894 651.816 547.185 652.061 547.392C652.305 547.597 652.589 547.701 652.859 547.678C653.129 547.656 653.366 547.509 653.528 547.269C653.689 547.028 653.762 546.715 653.721 546.399C653.631 545.717 653.541 545.055 653.442 544.375C652.06 532.275 646.865 519.434 639.524 509.254C639.121 508.667 638.735 508.111 638.324 507.529C636.775 509.076 635.226 510.623 633.677 512.17C634.114 512.668 634.527 513.14 634.956 513.641C642.711 522.363 648.309 532.725 651.066 544.616C651.234 545.275 651.394 545.916 651.554 546.58Z" fill="#0074AB"/>
<path d="M672.125 539.097C672.226 539.411 672.437 539.691 672.699 539.88C672.961 540.067 673.252 540.148 673.521 540.1C673.79 540.052 674.017 539.879 674.165 539.618C674.313 539.357 674.369 539.03 674.309 538.709C674.199 538.125 674.094 537.573 673.978 536.99C672.146 526.72 668.082 516.118 663.165 506.754C662.893 506.218 662.635 505.708 662.361 505.175C661.876 504.221 661.117 503.508 660.218 503.212C659.321 502.916 658.358 503.062 657.574 503.596C656.789 504.131 656.256 505.003 656.125 505.998C655.993 506.997 656.273 508.036 656.871 508.911C657.199 509.392 657.512 509.85 657.836 510.33C663.699 518.759 668.416 527.5 671.583 537.451C671.769 538.008 671.944 538.536 672.125 539.097Z" fill="#007BA4"/>
</g>
<g clip-path="url(#clip6_471_2027)">
<path d="M399.913 508.641C404.201 504.454 407.289 503.847 410.014 504.499C413.331 505.293 417.098 508.147 421.948 513.223C431.195 522.9 443.403 539.742 461.179 553.999L461.437 554.205L461.729 554.362C476.761 562.397 490.116 569.626 499.55 578.323C508.601 586.667 513.748 596.096 513.182 608.673C505.73 621.819 497.958 629.948 490.323 634.51C482.604 639.123 474.737 640.266 466.872 638.944C450.83 636.246 434.757 623.257 421.529 607.905L421.428 607.787L421.316 607.679C407.734 594.438 398.886 573.778 395.315 553.984C393.536 544.123 393.099 534.641 393.971 526.596C394.84 518.583 396.959 512.432 399.913 508.641Z" fill="#87CFE5" stroke="#0076B8" stroke-width="7"/>
<path d="M475.513 595.789C475.315 595.546 475.016 595.396 474.691 595.363C474.366 595.331 474.041 595.419 473.779 595.615C473.516 595.812 473.334 596.103 473.264 596.432C473.195 596.76 473.242 597.099 473.405 597.367C473.759 597.943 474.105 598.5 474.466 599.069C480.518 609.433 490.687 618.006 501.987 622.707C502.619 622.991 503.221 623.258 503.858 623.532C504.818 621.084 505.778 618.637 506.738 616.19C506.107 616.012 505.51 615.841 504.886 615.653C493.732 612.578 484.114 606.574 476.76 597.3C476.338 596.796 475.93 596.303 475.513 595.789Z" fill="#0074AB"/>
<path d="M457.729 616.131C457.506 615.905 457.186 615.781 456.851 615.776C456.515 615.772 456.191 615.886 455.94 616.106C455.688 616.325 455.526 616.633 455.478 616.973C455.431 617.311 455.5 617.653 455.684 617.913C456.02 618.384 456.338 618.829 456.68 619.297C462.478 627.665 470.648 634.889 479.198 640.407C479.677 640.729 480.134 641.036 480.614 641.355C481.469 641.927 482.507 642.097 483.524 641.788C484.539 641.48 485.451 640.718 486.033 639.71C486.616 638.703 486.814 637.544 486.563 636.533C486.311 635.518 485.629 634.732 484.69 634.307C484.176 634.073 483.685 633.85 483.174 633.614C474.034 629.581 465.926 624.513 458.908 617.311C458.506 616.913 458.127 616.535 457.729 616.131Z" fill="#007BA4"/>
</g>
</g>
<defs>
<clipPath id="clip0_471_2027">
<rect width="1100" height="850" fill="white"/>
</clipPath>
<clipPath id="clip1_471_2027">
<rect width="151" height="90" fill="white" transform="matrix(-0.70068 -0.713476 -0.713476 0.70068 741.994 788.879)"/>
</clipPath>
<clipPath id="clip2_471_2027">
<rect width="151" height="90" fill="white" transform="translate(393.119 630) rotate(36.9644)"/>
</clipPath>
<clipPath id="clip3_471_2027">
<rect width="179" height="56" fill="white" transform="translate(506 552)"/>
</clipPath>
<clipPath id="clip4_471_2027">
<rect width="185.42" height="127.952" fill="white" transform="translate(501 436.091) rotate(-4.04858)"/>
</clipPath>
<clipPath id="clip5_471_2027">
<rect width="69.6706" height="166.504" fill="white" transform="translate(736.447 643.134) rotate(156.883)"/>
</clipPath>
<clipPath id="clip6_471_2027">
<rect width="86.0487" height="159.861" fill="white" transform="translate(353 561.126) rotate(-51.2691)"/>
</clipPath>
</defs>
</svg>
