<svg width="1100" height="850" viewBox="0 0 1100 850" fill="none" xmlns="http://www.w3.org/2000/svg">
<path d="M905.739 238.341C945.741 238.46 968.358 251.745 972.527 268.924C977.034 287.495 970.28 313.514 942.164 333.831C913.693 354.405 905.314 353.335 816.648 348.172L763.142 357.989L735.36 363.074C668.483 376.023 662.753 382.631 627.285 395.378C618.357 398.588 610.605 401.398 603.89 403.556C597.111 405.733 591.941 407.058 588.123 407.491C584.315 407.923 582.959 407.347 582.399 406.89C581.796 406.397 580.805 404.972 581.133 400.707L581.35 397.893L578.964 396.406C575.095 393.992 573.807 391.743 573.554 389.945C573.309 388.197 573.905 385.901 576.277 382.66C581.318 375.771 590.388 360.855 607.433 350.378C641.167 329.642 682.64 286.352 734.398 259.655C799.414 226.12 866.139 238.224 905.739 238.341Z" fill="#87CFE5" stroke="#0E6B96" stroke-width="12"/>
<g clip-path="url(#clip0_467_816)">
<path d="M425.619 540.12C425.642 534.822 424.048 532.467 421.846 531.108C419.166 529.454 414.816 528.759 408.278 528.712C395.815 528.624 376.639 530.973 355.586 528.17L355.281 528.13L354.988 528.036C339.874 523.23 326.386 519.014 314.457 518.212C303.011 517.443 293.369 519.843 285.322 527.83C281.356 540.594 280.953 550.522 282.847 558.202C284.762 565.967 289.093 571.724 295.072 575.985C307.27 584.676 326.371 587.151 345.211 586.362L345.356 586.356L345.5 586.362C363.157 587.08 382.71 580.255 398.264 570.559C406.013 565.728 412.64 560.263 417.457 554.826C422.255 549.41 424.996 544.319 425.619 540.12Z" fill="#87CFE5" stroke="#0076B8" stroke-width="7"/>
<path d="M318.345 544.27C318.635 544.25 318.929 544.351 319.162 544.541C319.394 544.73 319.546 544.993 319.584 545.281C319.623 545.569 319.546 545.862 319.371 546.107C319.197 546.351 318.939 546.526 318.654 546.583C318.04 546.704 317.443 546.819 316.828 546.931C305.975 549.316 293.652 547.966 283.186 543.542C282.587 543.307 282.019 543.081 281.423 542.837C282.438 540.736 283.453 538.635 284.468 536.534C284.997 536.832 285.498 537.112 286.028 537.4C295.31 542.717 305.558 545.27 316.526 544.383C317.137 544.349 317.731 544.313 318.345 544.27Z" fill="#0074AB"/>
<path d="M316.257 568.045C316.553 568.051 316.843 568.182 317.064 568.395C317.284 568.608 317.417 568.887 317.434 569.181C317.45 569.476 317.348 569.767 317.153 570.004C316.957 570.24 316.683 570.402 316.39 570.441C315.857 570.511 315.353 570.576 314.819 570.639C305.465 571.978 295.34 571.097 286.109 568.937C285.583 568.824 285.082 568.716 284.558 568.6C283.622 568.396 282.835 567.831 282.383 566.989C281.931 566.149 281.851 565.101 282.147 564.115C282.444 563.13 283.09 562.3 283.93 561.849C284.772 561.396 285.74 561.359 286.632 561.705C287.122 561.894 287.589 562.075 288.078 562.261C296.697 565.7 305.34 567.848 314.704 568.001C315.231 568.018 315.729 568.034 316.257 568.045Z" fill="#007BA4"/>
</g>
<path d="M584.557 358.437L582.894 350.21L579.841 344.36L575.508 339.052L571.364 336.668L575.056 341.901L575.94 343.153L562.986 338.779L242.294 562.212L254.222 590.468L579.508 370.115L582.382 364.877L584.557 358.437Z" fill="#D3B256" stroke="#F1CD51"/>
<path d="M258.337 575.034L576.488 355.622" stroke="#F1CD51" stroke-width="21" stroke-linecap="round"/>
<path d="M258.823 588.439L245.082 560.849L204.029 588.916L198.63 538.103L192.052 532.351L184.853 529.921L168.704 525.792L146.39 519.141L129.451 521.807L133.743 529.877L179.636 545.372L183.028 553.138L181.885 562.462L135.956 550.044L129.231 556.6L131.676 562.722L180.268 579.128L183.721 592.652L180.243 602.953L135.761 593.672L129.705 598.248L134.897 606.621L179.44 621.661L182.747 631.163L181.337 641.279L161.151 640.201L140.551 635.894L135.712 641.322L141.171 648.903L178.577 661.533L181.458 669.126L180.132 677.505L161.065 674.598L141.013 673.124L136.574 677.363L141.086 683.3L161.15 689.192L179.5 692.739L180.91 698.953L179.037 704.5L163.035 704.393L140.55 701.215L133.862 704.694L137.34 710.723L169.735 721.661L196.998 713.653L208.394 623.492L258.823 588.439Z" fill="#B8BDC6"/>
<path d="M184.061 708.428C172.441 715.113 164.388 714.865 147.288 707.487" stroke="#B7B6AF" stroke-width="6" stroke-linecap="round"/>
<path d="M195.867 547.764C188.067 534.948 180.479 531.968 161.303 533.928" stroke="#B7B6AF" stroke-width="6" stroke-linecap="round"/>
<path d="M195.113 566.209C183.493 572.894 175.44 572.646 158.34 565.268" stroke="#B7B6AF" stroke-width="6" stroke-linecap="round"/>
<path d="M197.836 608.615C186.217 615.3 178.163 615.052 161.064 607.675" stroke="#B7B6AF" stroke-width="6" stroke-linecap="round"/>
<path d="M187.061 646.466C175.442 653.151 167.389 652.903 150.289 645.525" stroke="#B7B6AF" stroke-width="6" stroke-linecap="round"/>
<path d="M186.258 681.502C174.639 688.187 166.586 687.939 149.486 680.561" stroke="#B7B6AF" stroke-width="6" stroke-linecap="round"/>
<path d="M207.528 239.254C212.499 227.739 221.119 219.579 233.034 214.758C245.155 209.854 260.874 208.359 279.52 210.974C316.773 216.198 363.97 237.594 413.136 276.623C432.206 294.417 452.173 311.417 470.609 327.195C489.169 343.076 506.107 357.662 519.298 370.752C532.687 384.04 541.399 395.026 544.452 403.61C545.924 407.749 545.792 410.544 545.057 412.475C544.351 414.334 542.59 416.684 538.142 419.16L534.927 420.95L534.322 424.544C533.502 429.416 532.164 430.804 531.687 431.165C531.227 431.512 529.837 432.213 526.112 431.585C522.456 430.968 517.724 429.261 511.734 426.483C505.81 423.736 499.046 420.132 491.357 415.963C460.799 399.393 417 374.576 363.166 366.602L362.79 366.546L362.406 366.537L357.923 366.41C264.608 363.468 222.504 343.183 205.747 319.312C189.049 295.525 196.05 265.84 207.528 239.254Z" fill="#8BCDE5" stroke="#0E6B96" stroke-width="12"/>
<g clip-path="url(#clip1_467_816)">
<path d="M753.587 551.267C755.565 545.584 758.09 543.656 760.861 543.024C764.233 542.255 768.954 543.137 775.675 545.534C788.485 550.102 807.256 559.792 829.898 564.666L830.226 564.736L830.563 564.746C847.873 565.251 863.293 565.78 875.826 569.384C887.85 572.842 896.828 579.021 902.061 590.588C901.304 605.746 897.967 616.533 893.124 624.053C888.227 631.654 881.612 636.201 873.872 638.529C858.084 643.277 837.567 638.783 818.55 630.889L818.404 630.828L818.254 630.781C799.881 624.945 782.414 610.319 770.132 594.111C764.012 586.037 759.283 577.703 756.399 570.076C753.527 562.479 752.64 555.999 753.587 551.267Z" fill="#87CFE5" stroke="#0076B8" stroke-width="7"/>
<path d="M861.996 595.846C861.706 595.716 861.366 595.714 861.056 595.83C860.746 595.946 860.491 596.171 860.343 596.465C860.194 596.759 860.163 597.102 860.249 597.429C860.336 597.756 860.534 598.04 860.805 598.208C861.389 598.568 861.957 598.914 862.545 599.264C872.771 605.88 885.914 609.043 898.315 608.218C899.018 608.191 899.686 608.162 900.389 608.123C900.142 605.492 899.895 602.862 899.648 600.231C898.994 600.353 898.374 600.466 897.722 600.576C886.197 602.799 874.727 601.7 863.818 596.647C863.204 596.383 862.609 596.122 861.996 595.846Z" fill="#0074AB"/>
<path d="M855.153 622.098C854.848 621.995 854.501 622.026 854.194 622.171C853.888 622.318 853.646 622.566 853.518 622.876C853.39 623.186 853.384 623.535 853.495 623.862C853.607 624.188 853.827 624.464 854.112 624.616C854.632 624.889 855.124 625.148 855.647 625.415C864.732 630.349 875.445 633.193 885.724 634.333C886.306 634.408 886.86 634.48 887.441 634.552C888.478 634.684 889.498 634.373 890.279 633.64C891.06 632.909 891.539 631.816 891.607 630.649C891.675 629.482 891.326 628.351 890.635 627.554C889.943 626.754 888.966 626.352 887.92 626.39C887.346 626.409 886.799 626.428 886.227 626.445C876.092 626.904 866.42 625.972 856.762 622.633C856.216 622.454 855.699 622.284 855.153 622.098Z" fill="#007BA4"/>
</g>
<path d="M581.5 371C683.975 371 767 453.406 767 555C767 656.594 683.975 739 581.5 739C479.025 739 396 656.594 396 555C396 453.406 479.025 371 581.5 371Z" fill="#86D0E3" stroke="#0C74AB" stroke-width="7"/>
<path d="M708.5 683C674 722 610 737.5 585 735C478 741 397.5 646.895 400 553.5C401.566 495 387 633 526 692C600.5 729.5 708.5 683 708.5 683Z" fill="#37B4CA"/>
<path opacity="0.77" d="M544.722 459.918L559.237 458.318L575.841 459.571L583.594 461.782L589.567 465.034L589.51 469.983L588.746 474.924L585.852 480.548L578.123 476.216L564.381 472.167L554.506 469.931L542.844 469.443L543.267 463.437L544.722 459.918Z" fill="#004F80"/>
<path opacity="0.7" d="M610.328 464.345L615.653 458.374L621.765 453.775L629.328 449.802L639.343 445.334L648.732 442.318L653.331 448.43L644.809 454.229L635.289 461.147L628.179 466.866L623.52 472.09L618.195 478.06L612.971 473.401L610.238 468.954L610.328 464.345Z" fill="#014C83"/>
<g clip-path="url(#clip2_467_816)">
<path d="M560.5 518.999C592.683 518.999 609.5 500.961 619.023 529.242C624.396 545.198 625.436 559.079 621.477 570.149C617.574 581.064 608.606 589.801 592.683 595.163C569.098 603.105 542.967 586.965 533.255 558.122C523.543 529.279 525.5 514.5 560.5 518.999Z" fill="#FEFEFE" stroke="#0F79AB" stroke-width="6"/>
<path d="M652.5 484.755C665.459 480.391 678.501 473 692.5 476C705.63 478.814 699.5 475.001 707.5 488.501C714.385 508.947 718.911 522.945 714.997 536.892C711.149 550.609 701.51 561.067 684.115 566.924C671.16 571.286 657.208 568.119 644.762 559.072C632.303 550.017 621.531 535.16 615.303 516.667C612.385 508.001 610.86 526.248 615.304 511.5C619.742 496.769 639.545 489.117 652.5 484.755Z" fill="#FEFEFE" stroke="#0F79AB" stroke-width="6"/>
<path d="M659.004 518.6C661.993 527.479 657.95 536.855 649.307 539.765C640.664 542.675 631.233 537.837 628.243 528.958C625.254 520.08 629.837 510.522 638.48 507.612C648.87 506.351 655.891 509.356 659.004 518.6Z" fill="#2B2A28"/>
<path d="M598.59 552.23C606.352 546.785 608.189 536.02 602.693 528.186C597.197 520.351 586.45 518.413 578.688 523.857C570.927 529.301 569.09 540.066 574.586 547.901C580.081 555.736 590.829 557.674 598.59 552.23Z" fill="#2B2A28"/>
</g>
<path d="M531.489 597.945L531.623 598.312L531.646 598.701C532.424 611.804 564.5 639.5 591 673C621 690.5 616 692 645.5 685C672.5 665.5 696.451 646.329 702.435 627.899C705.454 618.601 706.584 610.059 707.323 603.387C707.57 601.158 707.782 599.069 708.009 597.245C704.337 599.912 699.887 602.961 694.816 606.088C673.897 618.99 641.786 633.667 610.249 627.796C581.042 629.42 558.074 616.677 543.64 606.673C540.015 604.16 536.91 601.807 534.395 599.904C533.246 599.034 532.247 598.281 531.387 597.65C531.421 597.746 531.453 597.845 531.489 597.945Z" fill="#D20223" stroke="#076FA2" stroke-width="6"/>
<path d="M709.081 588.592C709.524 588.04 710.168 587.689 710.87 587.614C711.572 587.539 712.276 587.747 712.825 588.192C713.375 588.637 713.725 589.284 713.8 589.988C713.875 590.693 713.668 591.398 713.225 591.95C711.052 594.65 708.722 597.224 706.259 599.659C660.259 643.228 584.529 641.769 535.133 605.068C532.357 603.018 529.702 600.899 527.082 598.642C526.546 598.18 526.216 597.524 526.161 596.817C526.108 596.111 526.337 595.412 526.797 594.874C527.256 594.337 527.911 594.005 528.614 593.951C529.319 593.898 530.015 594.127 530.551 594.589C533.068 596.758 535.619 598.794 538.287 600.764C585.624 636.131 659.149 637.187 702.52 595.852C704.844 593.554 707.038 591.131 709.081 588.592Z" fill="#076FA2"/>
<path d="M654.138 628.414L654.078 628.432L654.017 628.443L643.907 630.381L643.855 630.391L643.802 630.397L634.969 631.366L634.935 631.37L627.814 631.792L628.864 649.5L629.423 652.646L633.055 655.336L636.333 656.744L640.923 656.89L645.112 656.642L649.546 655.141L653.931 651.961L658.227 646.658L660.779 639.212L662.488 631.773L662.151 626.08L654.138 628.414Z" fill="#FEFEFE" stroke="#0578A5" stroke-width="3"/>
<path d="M602.107 631.284L602.168 631.294L602.231 631.299L611.521 631.958L611.574 631.962L611.627 631.961L619.667 631.888L619.7 631.888L626.02 631.514L626.96 647.388L626.796 650.214L623.869 652.971L621.108 654.567L617.029 655.184L613.262 655.407L609.151 654.54L604.904 652.171L600.507 647.898L597.433 641.514L595.11 635.039L594.815 630.07L602.107 631.284Z" fill="#FEFEFE" stroke="#0875A4" stroke-width="3"/>
<path d="M572.538 646.434C576.997 655.851 593.04 671.913 607.73 680.732C623.735 686.211 621.51 689.532 623.219 682.861C616.548 665.981 608.243 651.901 570.854 640.486C566.985 639.495 569.565 640.156 572.538 646.434Z" fill="#FF1863"/>
<path d="M622.46 627.366C633.2 608.557 635.674 595.071 635.648 567.312" stroke="#0082AA" stroke-width="7" stroke-linecap="round"/>
<path d="M641.324 587.671C651.792 584.146 657.202 572.155 653.408 560.887C649.614 549.619 638.052 543.343 627.584 546.868C617.116 550.392 611.705 562.384 615.5 573.652C619.294 584.919 630.856 591.196 641.324 587.671Z" fill="#ED6F7A"/>
<g clip-path="url(#clip3_467_816)">
<path d="M461 719C479.453 719 489.418 724.777 494.985 732.291C500.752 740.076 502.5 750.636 502.5 761.5C502.5 772.729 501.623 781.38 494.348 787.753C486.743 794.415 471.12 799.5 438.5 799.5C416.106 799.5 400.008 798.432 388.449 796.533C376.815 794.622 370.241 791.939 366.485 789.064C362.993 786.392 361.644 783.333 361.114 779.492C360.834 777.466 360.79 775.239 360.831 772.693C360.871 770.301 361 767.305 361 764.5C361 761.01 363.71 756.248 370.265 750.682C376.594 745.307 385.607 739.959 396.018 735.206C416.892 725.677 442.368 719 461 719Z" fill="#87CFE5" stroke="#0178B2" stroke-width="9"/>
<path d="M497.614 748.952C508.614 791.952 475.16 797 436.5 797C397.84 797 376 794 370.5 787C357.5 781 411.114 785.952 439.114 782.952C524.114 782.952 478 706 497.614 748.952Z" fill="#31A7BA"/>
</g>
<g clip-path="url(#clip4_467_816)">
<path d="M636.756 722.712C618.824 718.358 607.777 721.621 600.594 727.609C593.153 733.814 588.963 743.663 586.4 754.221C583.751 765.133 582.562 773.747 588.128 781.656C593.947 789.924 607.929 798.551 639.628 806.247C661.39 811.531 677.286 814.291 688.966 815.173C700.722 816.061 707.744 815.004 712.072 813.097C716.096 811.324 718.128 808.669 719.55 805.062C720.3 803.159 720.869 801.006 721.428 798.522C721.955 796.188 722.536 793.246 723.197 790.52C724.021 787.129 722.511 781.862 717.454 774.906C712.572 768.19 705.076 760.866 696.08 753.791C678.043 739.607 654.862 727.107 636.756 722.712Z" fill="#87CFE5" stroke="#0178B2" stroke-width="9"/>
<path d="M594.109 743.18C573.274 782.371 604.593 795.17 642.162 804.291C679.73 813.412 701.661 815.649 708.658 810.144C722.706 807.381 669.437 799.543 642.936 790.022C560.335 769.968 623.303 706.068 594.109 743.18Z" fill="#31A7BA"/>
</g>
<defs>
<clipPath id="clip0_467_816">
<rect width="76" height="149" fill="white" transform="matrix(0.131946 -0.991257 -0.991257 -0.131946 420.899 602.125)"/>
</clipPath>
<clipPath id="clip1_467_816">
<rect width="86.3952" height="162.483" fill="white" transform="translate(735 619.461) rotate(-77.8518)"/>
</clipPath>
<clipPath id="clip2_467_816">
<rect width="196" height="148.189" fill="white" transform="translate(504 477.548) rotate(-18.6099)"/>
</clipPath>
<clipPath id="clip3_467_816">
<rect width="151" height="90" fill="white" transform="translate(356 714)"/>
</clipPath>
<clipPath id="clip4_467_816">
<rect width="151" height="90" fill="white" transform="matrix(-0.97177 -0.235931 -0.235931 0.97177 739.971 742.626)"/>
</clipPath>
</defs>
</svg>
