<svg width="1100" height="850" viewBox="0 0 1100 850" fill="none" xmlns="http://www.w3.org/2000/svg">
<path d="M750.077 120.013C781.857 95.7194 807.883 92.4604 821.662 103.535C836.557 115.507 847.066 140.249 837.168 173.495C827.144 207.161 819.85 211.421 746.422 261.388L709.996 301.792L691.075 322.76C645.961 373.798 645.448 382.53 625.106 414.259C619.987 422.245 615.556 429.2 611.548 435.004C607.502 440.862 604.213 445.065 601.45 447.736C598.695 450.4 597.269 450.77 596.546 450.749C595.768 450.726 594.113 450.201 591.773 446.621L590.23 444.257L587.432 444.533C582.894 444.979 580.501 443.982 579.205 442.711C577.944 441.475 577.017 439.291 576.922 435.276C576.717 426.742 574.812 409.39 581.935 390.693C596.031 353.689 602.511 294.09 627.26 241.373C658.348 175.152 718.617 144.064 750.077 120.013Z" fill="#87CFE5" stroke="#0E6B96" stroke-width="12"/>
<path d="M361.402 60.8326C371.847 53.8909 383.522 51.7508 396.139 54.2059C408.973 56.7036 422.965 64.0211 437.17 76.3808C465.55 101.072 493.448 144.742 513.381 204.267C519.664 229.581 527.133 254.718 533.985 277.997C540.884 301.43 547.13 322.892 551.05 341.058C555.028 359.496 556.341 373.457 554.22 382.316C553.197 386.589 551.562 388.86 549.893 390.078C548.288 391.251 545.53 392.261 540.452 391.911L536.78 391.659L534.314 394.342C530.97 397.979 529.091 398.413 528.495 398.455C527.92 398.495 526.373 398.325 523.592 395.767C520.863 393.257 517.828 389.245 514.322 383.651C510.853 378.117 507.148 371.409 502.976 363.722C486.395 333.169 463.211 288.485 422.431 252.447L422.146 252.195L421.83 251.978L418.141 249.427C341.522 196.081 317.288 156.119 316.256 126.972C315.229 97.928 337.284 76.8609 361.402 60.8326Z" fill="#8BCDE5" stroke="#0E6B96" stroke-width="12"/>
<path d="M579.5 368C681.975 368 765 450.406 765 552C765 653.594 681.975 736 579.5 736C477.025 736 394 653.594 394 552C394 450.406 477.025 368 579.5 368Z" fill="#86D0E3" stroke="#0C74AB" stroke-width="7"/>
<g clip-path="url(#clip0_471_1702)">
<path d="M768.435 534.686C762.647 533.036 759.619 533.993 757.508 535.897C754.94 538.213 752.947 542.583 751.044 549.46C747.415 562.568 744.55 583.497 735.519 604.824L735.388 605.133L735.202 605.414C725.662 619.867 717.229 632.787 712.971 645.113C708.886 656.939 708.779 667.838 715.234 678.769C728.071 686.866 738.816 690.339 747.752 690.699C756.787 691.064 764.312 688.266 770.666 683.273C783.629 673.085 791.749 653.715 796.225 633.617L796.259 633.463L796.307 633.313C802.097 614.925 800.173 592.225 793.975 572.856C790.887 563.207 786.788 554.546 782.206 547.801C777.643 541.083 772.851 536.631 768.435 534.686Z" fill="#87CFE5" stroke="#0076B8" stroke-width="7"/>
<path d="M742.574 649.013C742.634 648.701 742.828 648.422 743.101 648.235C743.374 648.048 743.704 647.969 744.03 648.017C744.357 648.064 744.655 648.236 744.873 648.495C745.09 648.754 745.209 649.079 745.191 649.397C745.149 650.081 745.106 650.745 745.055 651.428C744.587 663.598 739.618 676.17 731.813 685.842C731.387 686.401 730.979 686.931 730.542 687.484C728.532 685.769 726.522 684.055 724.512 682.34C724.988 681.875 725.436 681.433 725.902 680.963C734.347 672.812 740.043 662.795 742.181 650.964C742.318 650.31 742.447 649.673 742.574 649.013Z" fill="#0074AB"/>
<path d="M767.986 658.51C768.077 658.201 768.302 657.935 768.597 657.767C768.893 657.601 769.235 657.546 769.562 657.62C769.889 657.693 770.179 657.889 770.382 658.168C770.585 658.447 770.684 658.785 770.644 659.106C770.569 659.689 770.498 660.24 770.416 660.822C769.229 671.091 765.396 681.492 760.418 690.557C760.145 691.076 759.885 691.571 759.61 692.088C759.121 693.012 758.281 693.668 757.232 693.885C756.185 694.104 755.015 693.867 754.021 693.252C753.027 692.637 752.303 691.701 752.048 690.678C751.791 689.651 752.025 688.62 752.656 687.786C753.002 687.328 753.333 686.891 753.674 686.433C759.878 678.405 764.677 669.956 767.498 660.134C767.666 659.584 767.824 659.064 767.986 658.51Z" fill="#007BA4"/>
</g>
<path d="M706.5 680C672 719 608 734.5 583 732C476 738 395.5 643.895 398 550.5C399.566 492 385 630 524 689C598.5 726.5 706.5 680 706.5 680Z" fill="#37B4CA"/>
<path d="M466.097 705.399L474.482 705.024L480.733 702.91L486.645 699.446L489.64 695.719L483.9 698.561L482.527 699.241L488.845 687.116L317.519 335.815L287.762 343.244L455.337 698.61L460.069 702.258L466.097 705.399Z" fill="#D3B256" stroke="#F1CD51"/>
<path d="M302.377 349.689L470.123 697.861" stroke="#F1CD51" stroke-width="21" stroke-linecap="round"/>
<path d="M289.057 348.103L318.436 338.78L297.032 293.89L348.07 296.389L354.767 290.776L358.279 284.038L364.847 268.719L374.859 247.697L374.835 230.549L366.2 233.546L343.816 276.501L335.62 278.656L326.584 276.09L345.933 232.624L340.492 224.969L334.067 226.44L310.366 271.922L296.471 273.249L286.829 268.225L302.857 225.705L299.269 219.017L290.196 222.856L268.47 264.548L258.571 266.351L248.793 263.398L252.97 243.619L260.401 223.93L255.784 218.311L247.452 222.537L229.207 257.549L221.261 259.225L213.186 256.623L218.997 238.232L223.545 218.647L220.041 213.608L213.479 217.15L204.565 236.066L198.231 253.65L191.874 254.086L186.683 251.38L189.255 235.585L195.861 213.859L193.454 206.715L186.961 209.222L171.161 239.543L174.87 267.715L262.197 292.873L289.057 348.103Z" fill="#B8BDC6"/>
<path d="M182.027 255.739C177.214 243.228 178.7 235.309 188.625 219.551" stroke="#B7B6AF" stroke-width="6" stroke-linecap="round"/>
<path d="M338.952 292.171C352.817 286.44 356.931 279.401 357.95 260.152" stroke="#B7B6AF" stroke-width="6" stroke-linecap="round"/>
<path d="M320.843 288.582C316.029 276.071 317.515 268.152 327.441 252.394" stroke="#B7B6AF" stroke-width="6" stroke-linecap="round"/>
<path d="M278.523 284.736C273.71 272.225 275.196 264.306 285.121 248.548" stroke="#B7B6AF" stroke-width="6" stroke-linecap="round"/>
<path d="M242.787 268.255C237.973 255.744 239.459 247.825 249.385 232.067" stroke="#B7B6AF" stroke-width="6" stroke-linecap="round"/>
<path d="M208.293 262.061C203.479 249.549 204.965 241.631 214.891 225.873" stroke="#B7B6AF" stroke-width="6" stroke-linecap="round"/>
<path d="M417.449 614.938C424.138 614.454 418.482 611.581 419.92 609.057C421.669 605.987 421.869 600.548 421.102 593.44C419.639 579.889 392.725 562.89 393.604 539.746L393.617 539.411L393.697 539.083C397.857 522.2 401.475 507.14 400.981 494.101C400.507 481.591 396.26 471.346 385.163 463.369C368.55 460.286 355.967 460.801 346.512 463.596C336.953 466.423 330.233 471.682 325.609 478.588C316.179 492.676 315.466 513.667 318.841 534.062L318.867 534.218L318.877 534.375C320.199 553.629 331.536 567.576 345.74 583.545C352.816 591.501 368.923 599.789 376.395 604.501C383.836 609.193 412.07 614.664 417.449 614.938Z" fill="#87CFE5" stroke="#0076B8" stroke-width="7"/>
<path d="M368.579 500.827C368.641 501.141 368.55 501.47 368.341 501.742C368.131 502.012 367.818 502.202 367.46 502.271C367.101 502.342 366.721 502.286 366.39 502.119C366.061 501.953 365.807 501.69 365.699 501.386C365.468 500.73 365.248 500.093 365.028 499.435C360.648 487.872 360.797 474.353 365.06 462.557C365.28 461.883 365.494 461.244 365.727 460.573C368.507 461.474 371.287 462.375 374.068 463.277C373.758 463.879 373.467 464.451 373.17 465.054C367.632 475.651 365.703 487.03 368.208 498.862C368.326 499.522 368.447 500.164 368.579 500.827Z" fill="#0074AB"/>
<path d="M338.306 500.843C338.334 501.165 338.206 501.493 337.965 501.753C337.724 502.012 337.389 502.184 337.019 502.23C336.649 502.276 336.269 502.194 335.945 502.004C335.623 501.814 335.384 501.532 335.297 501.217C335.142 500.645 334.997 500.104 334.849 499.53C331.979 489.494 331.812 478.408 333.373 468.171C333.449 467.589 333.522 467.035 333.602 466.454C333.742 465.417 334.355 464.508 335.361 463.936C336.364 463.365 337.678 463.177 338.959 463.404C340.241 463.632 341.37 464.254 342.045 465.123C342.723 465.995 342.892 467.042 342.567 468.045C342.39 468.596 342.221 469.121 342.048 469.67C338.795 479.364 337.175 488.962 338.164 499.151C338.209 499.725 338.253 500.268 338.306 500.843Z" fill="#007BA4"/>
<path opacity="0.77" d="M500.722 435.918L515.237 434.318L531.841 435.571L539.594 437.782L545.567 441.034L545.51 445.983L544.745 450.924L541.852 456.548L534.123 452.216L520.38 448.167L510.506 445.931L498.844 445.443L499.267 439.437L500.722 435.918Z" fill="#004F80"/>
<path opacity="0.7" d="M567.328 408.345L572.653 402.374L578.764 397.775L586.328 393.802L596.342 389.334L605.732 386.318L610.331 392.43L601.809 398.229L592.289 405.147L585.179 410.866L580.519 416.09L575.195 422.06L569.97 417.401L567.237 412.954L567.328 408.345Z" fill="#014C83"/>
<g clip-path="url(#clip1_471_1702)">
<path d="M504.059 491.254C543.814 492.01 548.056 473.555 559.22 506.71C565.519 525.417 565.913 529.889 562.872 542.328C559.874 554.593 551.841 564.002 536.866 569.045C514.684 576.514 488.359 556.14 476.973 522.325C465.586 488.511 464.304 490.499 504.059 491.254Z" fill="#FEFEFE" stroke="#0F79AB" stroke-width="6"/>
<path d="M549.956 528.231C557.717 522.786 559.554 512.021 554.058 504.186C548.562 496.352 537.815 494.414 530.054 499.858C522.292 505.302 520.455 516.067 525.951 523.902C531.447 531.737 542.194 533.675 549.956 528.231Z" fill="#2B2A28"/>
<path d="M590.933 428.081C602.593 425.015 615.166 429.005 626.106 438.26C637.043 447.512 646.159 461.897 650.673 479.066C655.758 498.405 656.617 514.893 652.48 527.451C648.411 539.802 639.387 548.725 623.736 552.841C612.08 555.905 599.909 551.961 589.357 542.713C578.792 533.455 570.001 518.978 565.402 501.486C560.802 483.994 561.336 467.065 565.981 453.808C570.62 440.566 579.277 431.146 590.933 428.081Z" fill="#FEFEFE" stroke="#0F79AB" stroke-width="6"/>
<path d="M607.004 496.6C609.994 505.479 605.95 514.855 597.307 517.765C588.664 520.675 579.233 515.837 576.243 506.958C573.254 498.08 577.837 488.522 586.48 485.612C596.871 484.351 603.891 487.356 607.004 496.6Z" fill="#2B2A28"/>
</g>
<path d="M577.659 594.327C568.299 581.803 566.742 572.494 568.586 553.011" stroke="#0082AA" stroke-width="7" stroke-linecap="round"/>
<path d="M674.143 523.661C674.413 523.006 674.93 522.487 675.583 522.216C676.235 521.946 676.968 521.946 677.621 522.218C678.274 522.489 678.794 523.009 679.065 523.664C679.337 524.319 679.338 525.054 679.068 525.708C677.749 528.914 676.243 532.041 674.57 535.074C642.786 589.883 569.741 609.923 511.976 588.708C508.733 587.528 505.587 586.247 502.435 584.824C501.791 584.533 501.288 583.997 501.036 583.334C500.784 582.672 500.806 581.937 501.095 581.291C501.384 580.645 501.917 580.142 502.577 579.891C503.237 579.64 503.97 579.663 504.615 579.954C507.643 581.322 510.666 582.553 513.783 583.687C569.195 604.206 640.011 584.403 669.907 532.482C671.484 529.62 672.903 526.674 674.143 523.661Z" fill="#076FA2"/>
<path d="M512.414 590.789L512.539 591.057L512.552 591.342C513.009 600.917 544.382 621.027 570.042 645.404C599.59 658.068 589.478 658.846 619.125 653.601C646.579 639.23 648.75 633.753 655.179 620.253C658.423 613.443 662.259 597.261 663.161 592.381C663.462 590.749 663.561 555.34 663.833 554.005C660.099 555.971 642.134 572.503 636.991 574.811C615.774 584.333 616.787 587.368 590.218 592.584C560.996 593.898 559.885 602.599 545.707 595.347C542.146 593.525 517.736 593.59 515.269 592.209C514.143 591.578 514.597 594.753 513.752 594.295C513.784 594.365 512.381 590.717 512.414 590.789Z" fill="#D20223" stroke="#076FA2" stroke-width="6"/>
<path d="M617.747 649.545C628.611 648.79 637.378 643.049 645.994 632.376C654.337 622.042 659.117 605.92 652.638 604.162C636.512 608.883 623.128 615.105 613.024 645.716C612.162 648.893 611.963 651.144 617.747 649.545Z" fill="#FF1863"/>
<path d="M557.313 598.062L557.374 598.073L557.437 598.078L566.727 598.737L566.78 598.74L566.833 598.74L574.873 598.667L574.906 598.667L581.226 598.292L582.167 614.166L582.002 616.993L579.075 619.749L576.314 621.345L572.235 621.962L568.468 622.186L564.357 621.318L560.11 618.95L555.713 614.676L552.639 608.293L550.316 601.818L550.021 596.849L557.313 598.062Z" fill="#FEFEFE" stroke="#0875A4" stroke-width="3"/>
<path d="M605.562 593.345L605.502 593.363L605.441 593.374L595.332 595.312L595.279 595.322L595.227 595.327L586.393 596.297L586.359 596.301L579.238 596.723L580.288 614.431L580.848 617.577L584.479 620.267L587.757 621.675L592.348 621.821L596.536 621.573L600.97 620.072L605.355 616.891L609.651 611.589L612.204 604.143L613.913 596.704L613.575 591.011L605.562 593.345Z" fill="#FEFEFE" stroke="#0578A5" stroke-width="3"/>
<path d="M573.716 560.197C584.184 556.672 589.594 544.68 585.8 533.412C582.006 522.145 570.444 515.868 559.976 519.393C549.508 522.918 544.097 534.91 547.891 546.177C551.686 557.445 563.247 563.722 573.716 560.197Z" fill="#ED6F7A"/>
<g clip-path="url(#clip2_471_1702)">
<path d="M459 716C477.453 716 487.418 721.777 492.985 729.291C498.752 737.076 500.5 747.636 500.5 758.5C500.5 769.729 499.623 778.38 492.348 784.753C484.743 791.415 469.12 796.5 436.501 796.5C414.107 796.5 398.008 795.432 386.449 793.533C374.816 791.622 368.242 788.939 364.485 786.064C360.994 783.392 359.645 780.333 359.114 776.492C358.834 774.466 358.79 772.239 358.832 769.693C358.871 767.301 359.001 764.305 359.001 761.5C359.001 758.01 361.71 753.248 368.266 747.682C374.594 742.307 383.607 736.959 394.019 732.206C414.892 722.677 440.368 716 459 716Z" fill="#87CFE5" stroke="#0178B2" stroke-width="9"/>
<path d="M495.614 745.952C506.614 788.952 473.16 794 434.5 794C395.84 794 374 791 368.5 784C355.5 778 409.115 782.952 437.114 779.952C522.114 779.952 476 703 495.614 745.952Z" fill="#31A7BA"/>
</g>
<g clip-path="url(#clip3_471_1702)">
<path d="M634.755 719.712C616.823 715.358 605.777 718.621 598.594 724.609C591.153 730.814 586.963 740.663 584.4 751.221C581.751 762.133 580.562 770.747 586.128 778.656C591.946 786.924 605.929 795.551 637.627 803.247C659.389 808.531 675.286 811.291 686.966 812.173C698.722 813.061 705.744 812.004 710.072 810.097C714.095 808.324 716.128 805.669 717.55 802.062C718.3 800.159 718.868 798.006 719.428 795.522C719.954 793.188 720.535 790.246 721.197 787.52C722.02 784.129 720.511 778.862 715.454 771.906C710.572 765.19 703.076 757.866 694.079 750.791C676.043 736.607 652.862 724.107 634.755 719.712Z" fill="#87CFE5" stroke="#0178B2" stroke-width="9"/>
<path d="M592.108 740.18C571.274 779.371 602.592 792.17 640.161 801.291C677.73 810.412 699.661 812.649 706.657 807.144C720.706 804.381 667.437 796.543 640.935 787.022C558.335 766.968 621.302 703.068 592.108 740.18Z" fill="#31A7BA"/>
</g>
<defs>
<clipPath id="clip0_471_1702">
<rect width="86.3952" height="162.483" fill="white" transform="matrix(-0.92084 -0.389941 -0.389941 0.92084 834.915 558.689)"/>
</clipPath>
<clipPath id="clip1_471_1702">
<rect width="196" height="148.189" fill="white" transform="translate(452 455.548) rotate(-18.6099)"/>
</clipPath>
<clipPath id="clip2_471_1702">
<rect width="151" height="90" fill="white" transform="translate(354 711)"/>
</clipPath>
<clipPath id="clip3_471_1702">
<rect width="151" height="90" fill="white" transform="matrix(-0.97177 -0.235931 -0.235931 0.97177 737.971 739.626)"/>
</clipPath>
</defs>
</svg>
