<svg width="1100" height="850" viewBox="0 0 1100 850" fill="none" xmlns="http://www.w3.org/2000/svg">
<path d="M738.357 122.066C768.784 96.0975 794.598 91.4427 808.952 101.76C824.47 112.913 836.295 137.054 828.2 170.784C820.003 204.941 812.948 209.587 742.315 263.433L708.116 305.738L690.35 327.694C648.048 381.085 648.006 389.832 629.401 422.61C624.718 430.86 620.668 438.043 616.978 444.054C613.254 450.122 610.195 454.496 607.58 457.311C604.972 460.12 603.568 460.566 602.845 460.584C602.067 460.603 600.386 460.167 597.857 456.718L596.189 454.441L593.41 454.868C588.902 455.557 586.46 454.69 585.096 453.49C583.771 452.324 582.728 450.193 582.417 446.19C581.753 437.679 578.917 420.454 585.024 401.401C597.108 363.692 600.372 303.83 622.248 249.858C649.729 182.06 708.237 147.775 738.357 122.066Z" fill="#87CFE5" stroke="#0E6B96" stroke-width="12"/>
<g clip-path="url(#clip0_471_2668)">
<path d="M612.044 712.211C593.612 711.322 583.38 716.612 577.458 723.849C571.322 731.347 569.067 741.81 568.543 752.662C568.002 763.878 568.461 772.561 575.42 779.277C582.695 786.298 598.055 792.13 630.637 793.702C653.005 794.782 669.136 794.491 680.773 793.152C692.485 791.804 699.181 789.441 703.072 786.75C706.688 784.25 708.183 781.259 708.898 777.448C709.275 775.438 709.427 773.215 709.508 770.671C709.584 768.28 709.599 765.28 709.734 762.479C709.902 758.993 707.425 754.106 701.146 748.23C695.084 742.557 686.339 736.78 676.169 731.531C655.779 721.007 630.654 713.11 612.044 712.211Z" fill="#87CFE5" stroke="#0178B2" stroke-width="9"/>
<path d="M574.029 740.364C560.969 782.784 594.141 789.439 632.756 791.302C671.371 793.166 693.331 791.222 699.162 784.495C712.436 779.129 658.645 781.49 630.822 777.144C545.921 773.047 595.691 698.407 574.029 740.364Z" fill="#31A7BA"/>
</g>
<g clip-path="url(#clip1_471_2668)">
<path d="M473.271 704.85C491.717 705.352 501.522 711.397 506.882 719.06C512.436 726.999 513.896 737.602 513.601 748.462C513.296 759.687 512.185 768.311 504.739 774.484C496.956 780.937 481.201 785.596 448.593 784.709C426.207 784.101 410.143 782.596 398.64 780.384C387.063 778.158 380.564 775.297 376.888 772.321C373.47 769.556 372.204 766.461 371.778 762.607C371.554 760.574 371.57 758.346 371.681 755.803C371.785 753.413 371.996 750.421 372.072 747.617C372.167 744.129 375.005 739.442 381.709 734.055C388.182 728.855 397.336 723.753 407.873 719.285C428.998 710.327 454.646 704.344 473.271 704.85Z" fill="#87CFE5" stroke="#0178B2" stroke-width="9"/>
<path d="M509.057 735.786C518.885 779.069 485.306 783.206 446.661 782.156C408.015 781.106 386.264 777.514 380.957 770.367C368.125 764.016 421.584 770.422 449.655 768.184C534.624 770.493 490.617 692.317 509.057 735.786Z" fill="#31A7BA"/>
</g>
<path d="M376.698 50.668C387.641 44.5401 399.445 43.2934 411.838 46.7001C424.446 50.1658 437.842 58.5254 451.066 71.9287C477.488 98.7048 501.987 144.368 517.339 205.237C521.681 230.955 527.218 256.587 532.281 280.319C537.379 304.208 541.976 326.083 544.504 344.494C547.07 363.181 547.318 377.201 544.53 385.874C543.185 390.057 541.383 392.197 539.627 393.284C537.936 394.332 535.11 395.13 530.073 394.395L526.431 393.864L523.768 396.352C520.157 399.724 518.251 400.015 517.653 400.011C517.077 400.008 515.547 399.72 512.969 396.959C510.439 394.248 507.717 390.017 504.646 384.173C501.608 378.392 498.423 371.421 494.847 363.439C480.636 331.715 460.914 285.398 422.991 246.366L422.726 246.093L422.427 245.853L418.943 243.029C346.599 184.015 325.471 142.327 326.658 113.186C327.84 84.1477 351.432 64.8174 376.698 50.668Z" fill="#8BCDE5" stroke="#0E6B96" stroke-width="12"/>
<path d="M585.5 368.001C687.975 368.001 771 450.407 771 552.001C771 653.595 687.975 736.001 585.5 736.001C483.025 736.001 400 653.595 400 552.001C400 450.407 483.025 368.001 585.5 368.001Z" fill="#86D0E3" stroke="#0C74AB" stroke-width="7"/>
<g clip-path="url(#clip2_471_2668)">
<path d="M773.324 552.051C768.419 550.369 765.745 551.093 763.808 552.688C761.451 554.628 759.471 558.402 757.42 564.387C753.511 575.797 749.798 594.13 740.734 612.571L740.602 612.838L740.426 613.078C731.326 625.441 723.275 636.496 718.867 647.192C714.638 657.454 713.903 667.055 718.837 676.944C729.454 684.585 738.536 688.068 746.239 688.738C754.027 689.415 760.695 687.245 766.483 683.095C778.288 674.626 786.45 657.874 791.505 640.337L791.543 640.203L791.593 640.073C797.683 624.095 797.36 604.012 793.146 586.698C791.047 578.071 788.015 570.277 784.453 564.152C780.905 558.051 777.026 553.939 773.324 552.051Z" fill="#87CFE5" stroke="#0076B8" stroke-width="7"/>
<path d="M744.223 651.795C744.294 651.522 744.478 651.284 744.725 651.129C744.972 650.976 745.262 650.919 745.541 650.974C745.82 651.029 746.068 651.191 746.241 651.428C746.414 651.665 746.497 651.956 746.462 652.236C746.386 652.838 746.31 653.421 746.225 654.021C745.103 664.728 740.066 675.613 732.749 683.83C732.347 684.306 731.963 684.757 731.553 685.227C729.917 683.637 728.281 682.047 726.644 680.456C727.083 680.065 727.497 679.693 727.927 679.297C735.708 672.446 741.222 663.842 743.769 653.499C743.925 652.928 744.074 652.372 744.223 651.795Z" fill="#0074AB"/>
<path d="M765.627 661.165C765.724 660.895 765.934 660.67 766.199 660.534C766.465 660.399 766.764 660.364 767.042 660.442C767.32 660.519 767.559 660.703 767.718 660.957C767.877 661.211 767.943 661.513 767.89 661.794C767.79 662.305 767.696 662.788 767.591 663.298C765.959 672.301 762.032 681.317 757.194 689.111C756.928 689.557 756.674 689.983 756.405 690.428C755.929 691.223 755.164 691.768 754.244 691.919C753.326 692.07 752.329 691.815 751.507 691.234C750.684 690.653 750.113 689.8 749.953 688.887C749.791 687.973 750.054 687.073 750.649 686.363C750.975 685.973 751.287 685.601 751.609 685.211C757.445 678.38 762.091 671.122 765.11 662.576C765.287 662.098 765.454 661.646 765.627 661.165Z" fill="#007BA4"/>
</g>
<path d="M712.5 680.001C678 719.001 614 734.501 589 732.001C482 738.001 401.5 643.896 404 550.501C405.566 492.001 391 630.001 530 689.001C604.5 726.501 712.5 680.001 712.5 680.001Z" fill="#37B4CA"/>
<path opacity="0.77" d="M505.973 431.46L521.647 432.454L539.083 436.881L546.964 440.683L552.789 445.263L551.935 450.534L550.332 455.664L546.358 461.127L538.843 455.066L524.893 448.189L514.763 443.965L502.453 441.274L503.864 434.944L505.973 431.46Z" fill="#004F80"/>
<path opacity="0.7" d="M566.669 405.877L572.539 398.662L579.487 393.074L588.247 388.21L599.919 382.718L610.972 378.971L617.094 386.201L607.349 393.26L596.502 401.672L588.453 408.613L583.317 414.926L577.447 422.141L570.705 416.655L566.99 411.384L566.669 405.877Z" fill="#014C83"/>
<path d="M582.599 590.108C574.051 577.016 573.087 567.628 576.16 548.3" stroke="#0082AA" stroke-width="7" stroke-linecap="round"/>
<path d="M562.057 592.547L562.117 592.561L562.18 592.57L571.409 593.816L571.462 593.823L571.515 593.826L579.543 594.262L579.576 594.264L585.907 594.29L585.841 610.192L585.498 613.003L582.402 615.568L579.545 616.986L575.435 617.344L571.662 617.328L567.614 616.202L563.526 613.569L559.408 609.026L556.744 602.46L554.836 595.851L554.857 590.874L562.057 592.547Z" fill="#FEFEFE" stroke="#0875A4" stroke-width="3"/>
<path d="M610.509 590.895L610.448 590.909L610.386 590.916L600.174 592.209L600.121 592.216L600.068 592.219L591.191 592.627L591.157 592.628L584.024 592.599L583.95 610.337L584.309 613.513L587.763 616.427L590.945 618.04L595.517 618.477L599.713 618.494L604.233 617.277L608.81 614.381L613.434 609.361L616.453 602.092L618.629 594.776L618.653 589.073L610.509 590.895Z" fill="#FEFEFE" stroke="#0578A5" stroke-width="3"/>
<g clip-path="url(#clip3_471_2668)">
<path d="M535.787 458.11C559.843 459.266 579.026 482.302 577.72 509.476C576.984 524.808 573.078 536.931 565.659 544.998C558.344 552.951 547.237 557.364 531.057 556.587C507.092 555.436 489.237 533.005 490.568 505.29C491.899 477.575 511.821 456.959 535.787 458.11Z" fill="#FEFEFE" stroke="#0F79AB" stroke-width="6"/>
<path d="M628.16 439.177C641.35 439.811 653.228 446.961 661.704 458.311C670.178 469.657 675.097 485.03 674.303 501.548C673.41 520.155 669.009 535.019 660.642 544.963C652.414 554.744 640.1 560.06 622.395 559.21C609.209 558.577 597.737 551.582 589.664 540.35C581.582 529.106 577.033 513.745 577.841 496.915C578.649 480.086 584.65 465.231 593.772 454.814C602.885 444.407 614.973 438.544 628.16 439.177Z" fill="#FEFEFE" stroke="#0F79AB" stroke-width="6"/>
<path d="M610.739 495.689C610.281 505.228 604.13 512.683 596.405 512.312C588.681 511.941 582.79 503.908 583.248 494.369C583.706 484.831 590.339 477.399 598.064 477.77C606.642 480.346 611.216 485.759 610.739 495.689Z" fill="#2B2A28"/>
<path d="M552.015 510.866C559.731 511.385 566.512 504.083 567.161 494.555C567.81 485.028 562.081 476.883 554.365 476.364C546.649 475.844 539.867 483.147 539.218 492.674C538.569 502.202 544.298 510.346 552.015 510.866Z" fill="#2B2A28"/>
</g>
<path d="M580.824 555.796C591.495 552.941 597.654 541.316 594.581 529.831C591.508 518.346 580.367 511.349 569.696 514.204C559.026 517.059 552.867 528.684 555.94 540.17C559.013 551.655 570.154 558.651 580.824 555.796Z" fill="#ED6F7A"/>
<path d="M663.358 566.739L663.286 566.94L663.331 567.119C664.85 573.143 636.847 594.62 615.59 617.065C587.915 633.432 598.446 630.975 566.954 636.353C535.817 635.479 532.454 632.74 523.06 626.301C518.32 623.052 511.028 614.21 509.091 611.47C508.444 610.553 500.995 588.798 500.439 588.055C504.676 588.181 526.531 593.138 532.284 593.065C556.019 592.766 555.609 594.927 583.939 590.425C614.18 582.752 617.126 587.782 630.16 579.206C633.434 577.052 658.482 570.007 660.725 568.441C661.749 567.726 661.942 569.811 662.713 569.284C662.695 569.337 663.378 566.685 663.358 566.739Z" fill="#D20223" stroke="#076FA2" stroke-width="6"/>
<path d="M550.29 633.244C541.681 635.602 533.797 633.925 525.131 628.768C516.741 623.774 510.072 613.798 514.804 610.853C528.24 609.865 539.812 610.653 553.274 629.32C554.526 631.307 555.092 632.825 550.29 633.244Z" fill="#FF1863"/>
<path d="M614.565 584.299L614.501 584.317L614.435 584.33L604.666 586.126L604.609 586.137L604.554 586.142L596.024 587.021L595.989 587.025L589.248 587.382L590.085 604.179L590.586 607.131L594.007 609.68L597.117 611.03L601.512 611.194L605.529 610.981L609.786 609.581L614.013 606.587L618.18 601.572L620.7 594.497L622.414 587.415L622.152 582.157L614.565 584.299Z" fill="#FEFEFE" stroke="#0875A4" stroke-width="3"/>
<path d="M559.54 592.232L559.606 592.234L559.672 592.229L570.627 591.537L570.684 591.533L570.739 591.525L580.121 590.18L580.157 590.174L587.625 588.721L591.193 607.135L591.441 610.505L588.396 614.221L585.379 616.531L580.675 617.896L576.282 618.751L571.306 618.388L565.94 616.291L560.109 611.999L555.515 605.048L551.795 597.883L550.647 591.962L559.54 592.232Z" fill="#FEFEFE" stroke="#0578A5" stroke-width="3"/>
<path d="M412.641 711.219L419.819 716.02L426.507 718.11L433.909 718.89L439.164 717.654L432.38 716.474L430.731 716.187L444.724 710.139L557.68 318.938L527.707 306.832L408.692 699.144L409.951 704.996L412.641 711.219Z" fill="#D3B256" stroke="#F1CD51"/>
<path d="M535.115 321.045L421.472 707.51" stroke="#F1CD51" stroke-width="21" stroke-linecap="round"/>
<path d="M525.281 311.629L556.25 321.932L571.086 272.242L611.357 305.402L620.941 304.904L628.712 301.545L645.212 293.046L668.679 281.993L681.068 267.982L671.78 265.163L622.241 286.575L613.924 283.337L608.332 275.732L655.738 252.053L656.791 242.487L650.429 239.77L597.976 262.441L585.56 255.053L581.246 245.073L625.228 220.14L627.111 212.493L616.851 210.094L568.77 230.876L559.304 226.312L553.379 217.94L571.135 204.343L591.509 192.803L591.769 185.402L581.841 183.771L541.463 201.224L533.699 197.746L528.924 190.699L547.024 179.232L564.945 166.019L565.703 159.769L557.73 158.66L536.692 168.664L518.746 179.154L513.19 175.633L510.867 170.26L524.418 158.936L545.585 145.231L548.771 137.932L541.603 136.019L506.635 151.133L489.307 176.389L543.101 250.171L525.281 311.629Z" fill="#B8BDC6"/>
<path d="M503.875 170.978C508.96 157.831 515.915 152.274 535.501 145.464" stroke="#B7B6AF" stroke-width="6" stroke-linecap="round"/>
<path d="M606.893 296.398C622.471 300.175 630.956 296.938 645.726 281.848" stroke="#B7B6AF" stroke-width="6" stroke-linecap="round"/>
<path d="M594.559 282.428C599.643 269.281 606.599 263.723 626.185 256.914" stroke="#B7B6AF" stroke-width="6" stroke-linecap="round"/>
<path d="M562.45 253.484C567.535 240.337 574.49 234.78 594.077 227.97" stroke="#B7B6AF" stroke-width="6" stroke-linecap="round"/>
<path d="M544.913 218.242C549.998 205.095 556.953 199.537 576.539 192.728" stroke="#B7B6AF" stroke-width="6" stroke-linecap="round"/>
<path d="M520.955 192.153C526.04 179.006 532.995 173.449 552.581 166.639" stroke="#B7B6AF" stroke-width="6" stroke-linecap="round"/>
<g clip-path="url(#clip4_471_2668)">
<path d="M412.044 502.051C416.949 500.369 419.623 501.093 421.56 502.688C423.917 504.628 425.897 508.402 427.948 514.387C431.858 525.797 435.57 544.13 444.635 562.571L444.766 562.838L444.943 563.078C454.042 575.441 462.094 586.496 466.501 597.192C470.73 607.454 471.465 617.055 466.532 626.944C455.914 634.585 446.832 638.068 439.129 638.738C431.342 639.415 424.673 637.245 418.886 633.095C407.08 624.626 398.918 607.874 393.864 590.337L393.825 590.203L393.775 590.073C387.685 574.095 388.008 554.012 392.222 536.698C394.321 528.071 397.353 520.277 400.915 514.152C404.463 508.051 408.342 503.939 412.044 502.051Z" fill="#87CFE5" stroke="#0076B8" stroke-width="7"/>
<path d="M441.145 601.795C441.075 601.522 440.891 601.284 440.643 601.129C440.396 600.976 440.106 600.919 439.827 600.974C439.548 601.029 439.3 601.191 439.127 601.428C438.955 601.665 438.871 601.956 438.906 602.236C438.982 602.838 439.058 603.421 439.143 604.021C440.266 614.728 445.303 625.613 452.619 633.83C453.021 634.306 453.405 634.757 453.815 635.227C455.451 633.637 457.087 632.047 458.724 630.456C458.285 630.065 457.871 629.693 457.441 629.297C449.66 622.446 444.146 613.842 441.6 603.499C441.443 602.928 441.294 602.372 441.145 601.795Z" fill="#0074AB"/>
<path d="M419.741 611.165C419.644 610.895 419.434 610.67 419.169 610.534C418.903 610.399 418.604 610.364 418.326 610.442C418.048 610.519 417.809 610.703 417.65 610.957C417.491 611.211 417.425 611.513 417.479 611.794C417.578 612.305 417.672 612.788 417.777 613.298C419.409 622.301 423.336 631.317 428.174 639.111C428.44 639.557 428.694 639.983 428.963 640.428C429.44 641.223 430.205 641.768 431.124 641.919C432.042 642.07 433.039 641.815 433.862 641.234C434.684 640.653 435.255 639.8 435.416 638.887C435.577 637.973 435.314 637.073 434.719 636.363C434.393 635.973 434.081 635.601 433.759 635.211C427.923 628.38 423.277 621.122 420.258 612.576C420.081 612.098 419.914 611.646 419.741 611.165Z" fill="#007BA4"/>
</g>
<defs>
<clipPath id="clip0_471_2668">
<rect width="151" height="90" fill="white" transform="matrix(-0.998838 -0.0482029 -0.0482029 0.998838 717.163 712.279)"/>
</clipPath>
<clipPath id="clip1_471_2668">
<rect width="151" height="90" fill="white" transform="translate(368.445 697) rotate(1.55664)"/>
</clipPath>
<clipPath id="clip2_471_2668">
<rect width="74.4055" height="144.158" fill="white" transform="matrix(-0.897438 -0.44114 -0.44114 0.897438 829.368 575.823)"/>
</clipPath>
<clipPath id="clip3_471_2668">
<rect width="189.284" height="127.952" fill="white" transform="translate(491.138 430) rotate(2.74964)"/>
</clipPath>
<clipPath id="clip4_471_2668">
<rect width="74.4055" height="144.158" fill="white" transform="translate(356 525.823) rotate(-26.1766)"/>
</clipPath>
</defs>
</svg>
