<svg width="1100" height="850" viewBox="0 0 1100 850" fill="none" xmlns="http://www.w3.org/2000/svg">
<path d="M738.357 122.066C768.784 96.0975 794.598 91.4427 808.952 101.76C824.47 112.913 836.295 137.054 828.2 170.784C820.003 204.941 812.948 209.587 742.315 263.433L708.116 305.738L690.35 327.694C648.048 381.085 648.006 389.832 629.401 422.61C624.718 430.86 620.668 438.043 616.978 444.054C613.254 450.122 610.195 454.496 607.58 457.311C604.972 460.12 603.568 460.566 602.845 460.584C602.067 460.603 600.386 460.167 597.857 456.718L596.189 454.441L593.41 454.868C588.902 455.557 586.46 454.69 585.096 453.49C583.771 452.324 582.728 450.193 582.417 446.19C581.753 437.679 578.917 420.454 585.024 401.401C597.108 363.692 600.372 303.83 622.248 249.858C649.729 182.06 708.237 147.775 738.357 122.066Z" fill="#87CFE5" stroke="#0E6B96" stroke-width="12"/>
<g clip-path="url(#clip0_470_1185)">
<path d="M620.223 719.19C602.15 715.462 591.224 719.107 584.253 725.341C577.033 731.801 573.187 741.79 570.993 752.43C568.724 763.428 567.836 772.078 573.673 779.789C579.776 787.85 594.049 795.986 625.996 802.575C647.929 807.099 663.912 809.305 675.616 809.781C687.395 810.259 694.376 808.959 698.635 806.903C702.595 804.991 704.534 802.267 705.829 798.613C706.513 796.685 707.006 794.513 707.479 792.011C707.924 789.661 708.402 786.7 708.969 783.953C709.674 780.535 707.983 775.324 702.687 768.548C697.574 762.006 689.828 754.947 680.591 748.189C662.072 734.64 638.471 722.954 620.223 719.19Z" fill="#87CFE5" stroke="#0178B2" stroke-width="9"/>
<path d="M578.313 741.127C558.853 781.019 590.597 792.721 628.46 800.531C666.323 808.341 688.319 809.814 695.12 804.07C709.064 800.82 655.555 794.839 628.738 786.244C545.491 769.073 606.199 703.024 578.313 741.127Z" fill="#31A7BA"/>
</g>
<g clip-path="url(#clip1_470_1185)">
<path d="M744.261 573.636C747.231 569.386 749.819 568.395 752.323 568.542C755.371 568.72 759.195 570.601 764.379 574.227C774.263 581.14 788.068 593.761 806.261 603.315L806.524 603.453L806.809 603.543C821.446 608.166 834.467 612.35 844.332 618.393C853.797 624.19 860.05 631.512 861.893 642.409C857.821 654.84 852.537 663.007 846.709 668.089C840.818 673.226 834.152 675.404 827.03 675.462C812.502 675.58 796.034 666.858 781.614 655.672L781.504 655.585L781.386 655.51C767.049 646.192 755.472 629.779 748.67 613.308C745.282 605.103 743.136 597.019 742.403 589.971C741.673 582.952 742.383 577.344 744.261 573.636Z" fill="#87CFE5" stroke="#0076B8" stroke-width="7"/>
<path d="M826.562 637.057C826.344 636.878 826.055 636.794 825.764 636.815C825.474 636.837 825.206 636.962 825.014 637.171C824.82 637.379 824.716 637.657 824.716 637.951C824.716 638.244 824.82 638.528 825.013 638.733C825.429 639.175 825.835 639.601 826.257 640.035C833.475 648.023 843.96 653.847 854.714 656.172C855.319 656.32 855.895 656.458 856.503 656.596C856.887 654.347 857.272 652.098 857.656 649.848C857.071 649.791 856.518 649.734 855.937 649.668C845.613 648.72 836.087 645.02 827.934 638.166C827.47 637.797 827.022 637.435 826.562 637.057Z" fill="#0074AB"/>
<path d="M814.794 657.242C814.557 657.082 814.254 657.024 813.96 657.07C813.666 657.118 813.404 657.266 813.225 657.492C813.046 657.719 812.961 658.009 812.982 658.308C813.004 658.606 813.129 658.889 813.337 659.084C813.719 659.439 814.079 659.773 814.465 660.123C821.091 666.434 829.577 671.403 838.079 674.847C838.557 675.051 839.014 675.245 839.493 675.446C840.347 675.808 841.286 675.797 842.117 675.376C842.948 674.958 843.603 674.164 843.925 673.209C844.247 672.255 844.205 671.229 843.797 670.398C843.388 669.564 842.646 668.992 841.747 668.77C841.253 668.646 840.782 668.529 840.292 668.404C831.551 666.326 823.519 663.202 816.044 658.078C815.619 657.796 815.217 657.529 814.794 657.242Z" fill="#007BA4"/>
</g>
<path d="M417.312 597.905C419.664 594.012 419.096 591.072 417.479 588.41C415.511 585.169 411.442 581.379 404.887 576.418C392.39 566.961 384.031 560.239 364.089 542.306L358.488 534.236L352.715 525.697C352.715 527.5 376.918 559.069 358.488 534.236C347.315 525.044 344 505 327 538C328 538 327.519 537 316.405 550.5C310.009 558.268 299.599 555.822 306.5 562.5C322 577.5 297.452 555.129 316.114 571.442L316.263 571.546L316.405 571.659C333.847 585.495 356.512 595.192 376.419 599.757C386.336 602.031 395.403 602.991 402.638 602.608C409.844 602.226 414.839 600.534 417.312 597.905Z" fill="#87CFE5"/>
<path d="M358.488 534.236L364.089 542.306C384.031 560.239 392.39 566.961 404.887 576.418C411.442 581.379 415.511 585.169 417.479 588.41C419.096 591.072 419.664 594.012 417.312 597.905C414.839 600.534 409.844 602.226 402.638 602.608C395.403 602.991 386.336 602.031 376.419 599.757C356.512 595.192 333.847 585.495 316.405 571.659L316.263 571.546L316.114 571.442C297.452 555.129 322 577.5 306.5 562.5C299.599 555.822 310.009 558.268 316.405 550.5C327.519 537 328 538 327 538C344 505 347.315 525.044 358.488 534.236ZM358.488 534.236L352.715 525.697C352.715 527.5 376.918 559.069 358.488 534.236Z" stroke="#0076B8" stroke-width="7"/>
<path d="M193.751 650.812L198.469 658.045L203.801 662.591L210.304 666.214L215.622 667.139L209.845 663.392L208.44 662.48L223.685 662.408L481.093 346.912L458.275 324.015L194.858 638.157L193.719 644.033L193.751 650.812Z" fill="#D3B256" stroke="#F1CD51"/>
<path d="M459.512 339.996L203.33 650.867" stroke="#F1CD51" stroke-width="21" stroke-linecap="round"/>
<path d="M454.162 327.476L478.603 349.105L511.748 309.223L535.776 355.526L544.787 358.829L553.252 358.789L571.765 357.447L597.686 356.488L614.58 348.463L607.143 342.226L553.175 342.481L546.797 336.238L544.637 327.049L597.532 323.872L602.255 315.486L597.469 310.491L540.327 310.76L531.806 299.092L531.755 288.22L581.993 282.546L586.725 276.252L578.23 270.019L525.85 270.266L518.934 262.354L516.77 252.328L538.438 246.79L561.706 244.171L564.849 237.465L556.358 232.069L512.37 232.277L506.593 226.031L504.967 217.676L526.115 214.231L547.784 209.11L550.933 203.659L544.035 199.51L520.758 200.456L500.136 203.063L496.406 197.644L496.379 191.79L513.286 186.692L538.134 182.393L543.928 176.929L538.086 172.357L499.991 172.537L474.143 188.968L494.669 277.941L454.162 327.476Z" fill="#B8BDC6"/>
<path d="M489.666 189.707C499.502 179.61 508.08 177.228 528.768 178.65" stroke="#B7B6AF" stroke-width="6" stroke-linecap="round"/>
<path d="M535.203 345.492C548.05 355.079 557.124 355.431 576.63 347.348" stroke="#B7B6AF" stroke-width="6" stroke-linecap="round"/>
<path d="M529.341 327.802C539.177 317.705 547.755 315.323 568.443 316.745" stroke="#B7B6AF" stroke-width="6" stroke-linecap="round"/>
<path d="M511.167 288.581C521.002 278.483 529.581 276.101 550.268 277.524" stroke="#B7B6AF" stroke-width="6" stroke-linecap="round"/>
<path d="M508.865 249.283C518.701 239.186 527.279 236.804 547.966 238.226" stroke="#B7B6AF" stroke-width="6" stroke-linecap="round"/>
<path d="M497.066 215.886C506.902 205.789 515.48 203.407 536.168 204.829" stroke="#B7B6AF" stroke-width="6" stroke-linecap="round"/>
<path d="M376.698 50.668C387.641 44.5401 399.445 43.2934 411.838 46.7001C424.446 50.1658 437.842 58.5254 451.066 71.9287C477.488 98.7048 501.987 144.368 517.339 205.237C521.681 230.955 527.218 256.587 532.281 280.319C537.379 304.208 541.976 326.083 544.504 344.494C547.07 363.181 547.318 377.201 544.53 385.874C543.185 390.057 541.383 392.197 539.627 393.284C537.936 394.332 535.11 395.13 530.073 394.395L526.431 393.864L523.768 396.352C520.157 399.724 518.251 400.015 517.653 400.011C517.077 400.008 515.547 399.72 512.969 396.959C510.439 394.248 507.717 390.017 504.646 384.173C501.608 378.392 498.423 371.421 494.847 363.439C480.636 331.715 460.914 285.398 422.991 246.366L422.726 246.093L422.427 245.853L418.943 243.029C346.599 184.015 325.471 142.327 326.658 113.186C327.84 84.1477 351.432 64.8174 376.698 50.668Z" fill="#8BCDE5" stroke="#0E6B96" stroke-width="12"/>
<path d="M585.5 368.001C687.975 368.001 771 450.407 771 552.001C771 653.595 687.975 736.001 585.5 736.001C483.025 736.001 400 653.595 400 552.001C400 450.407 483.025 368.001 585.5 368.001Z" fill="#86D0E3" stroke="#0C74AB" stroke-width="7"/>
<path d="M712.5 680.001C678 719.001 614 734.501 589 732.001C482 738.001 401.5 643.896 404 550.501C405.566 492.001 391 630.001 530 689.001C604.5 726.501 712.5 680.001 712.5 680.001Z" fill="#37B4CA"/>
<path opacity="0.77" d="M505.973 431.46L521.647 432.454L539.083 436.881L546.964 440.683L552.788 445.263L551.935 450.534L550.332 455.664L546.358 461.127L538.842 455.066L524.893 448.189L514.762 443.965L502.453 441.274L503.864 434.944L505.973 431.46Z" fill="#004F80"/>
<path opacity="0.7" d="M566.669 405.877L572.539 398.662L579.487 393.074L588.247 388.21L599.919 382.718L610.972 378.971L617.094 386.201L607.349 393.26L596.502 401.672L588.453 408.613L583.317 414.926L577.447 422.141L570.705 416.655L566.99 411.384L566.669 405.877Z" fill="#014C83"/>
<g clip-path="url(#clip2_470_1185)">
<path d="M441.271 714.85C459.717 715.352 469.521 721.397 474.882 729.06C480.435 736.999 481.896 747.602 481.601 758.462C481.296 769.687 480.184 778.311 472.739 784.484C464.955 790.937 449.2 795.596 416.593 794.709C394.207 794.101 378.143 792.596 366.64 790.384C355.063 788.158 348.564 785.297 344.887 782.321C341.469 779.556 340.204 776.461 339.778 772.607C339.553 770.574 339.569 768.346 339.681 765.803C339.785 763.413 339.996 760.421 340.072 757.617C340.167 754.129 343.004 749.442 349.709 744.055C356.181 738.855 365.336 733.753 375.872 729.285C396.997 720.327 422.645 714.344 441.271 714.85Z" fill="#87CFE5" stroke="#0178B2" stroke-width="9"/>
<path d="M477.057 745.786C486.885 789.069 453.306 793.206 414.661 792.156C376.015 791.106 354.264 787.514 348.957 780.367C336.125 774.016 389.584 780.422 417.655 778.184C502.624 780.493 458.617 702.317 477.057 745.786Z" fill="#31A7BA"/>
</g>
<path d="M380.015 511.864C378.577 516.179 376.648 517.658 374.504 518.159C371.895 518.77 368.207 518.142 362.938 516.387C352.893 513.04 345.941 511.058 328.244 507.564L321.494 508.552L314.407 509.716C315.465 508.544 342.695 506.416 321.494 508.552C312.081 506.039 269.673 529.292 276.857 497.882C281.623 477.042 280.389 479.153 291.016 469.238C301.643 459.322 309.59 455.947 315.991 456.849C330.369 458.876 320.477 456.524 336.762 460.099L342.069 462.181L345.885 464.102C360.279 468.36 356.547 467.451 366.388 479.604C371.29 485.659 375.116 491.921 377.494 497.664C379.863 503.385 380.668 508.278 380.015 511.864Z" fill="#87CFE5"/>
<path d="M321.494 508.552L328.244 507.564C345.941 511.058 352.893 513.04 362.938 516.387C368.207 518.142 371.895 518.77 374.504 518.159C376.648 517.658 378.577 516.179 380.015 511.864C380.668 508.278 379.863 503.385 377.494 497.664C375.116 491.921 371.29 485.659 366.388 479.604C356.547 467.451 360.279 468.36 345.885 464.102L342.069 462.181L336.762 460.099C320.477 456.524 330.369 458.876 315.991 456.849C309.59 455.947 301.643 459.322 291.016 469.238C280.389 479.153 281.623 477.042 276.857 497.882C269.673 529.292 312.081 506.039 321.494 508.552ZM321.494 508.552L314.407 509.716C315.465 508.544 342.695 506.416 321.494 508.552Z" stroke="#0076B8" stroke-width="7"/>
<path d="M338.351 481.861C338.069 481.868 337.79 481.757 337.573 481.562C337.357 481.367 337.223 481.104 337.199 480.821C337.174 480.537 337.262 480.254 337.442 480.022C337.622 479.791 337.879 479.631 338.157 479.587C338.757 479.494 339.339 479.407 339.938 479.323C350.54 477.448 362.392 479.288 372.308 484.055C372.877 484.309 373.416 484.554 373.981 484.818C372.904 486.83 371.826 488.841 370.749 490.853C370.252 490.539 369.78 490.244 369.281 489.939C360.549 484.35 350.759 481.423 340.114 481.828C339.522 481.834 338.947 481.845 338.351 481.861Z" fill="#0074AB"/>
<path d="M347.017 501.984C346.736 501.978 346.461 501.854 346.254 501.649C346.048 501.444 345.925 501.175 345.915 500.891C345.903 500.607 346.004 500.328 346.195 500.105C346.386 499.882 346.65 499.734 346.93 499.703C347.533 499.638 348.118 499.578 348.721 499.523C359.399 498.144 371.152 500.533 380.836 505.756C381.392 506.037 381.919 506.307 382.471 506.597C381.301 508.556 380.131 510.515 378.962 512.474C378.48 512.138 378.022 511.821 377.538 511.494C369.076 505.504 359.432 502.124 348.78 502.033C348.189 502.012 347.613 501.996 347.017 501.984Z" fill="#0074AB"/>
<g clip-path="url(#clip3_470_1185)">
<path d="M515.692 482.59C555.32 485.862 560.722 467.713 569.764 501.509C574.866 520.577 574.975 525.065 571.153 537.286C567.384 549.337 558.772 558.218 543.506 562.302C520.897 568.351 495.915 546.351 486.693 511.884C477.471 477.415 476.065 479.318 515.692 482.59Z" fill="#FEFEFE" stroke="#0F79AB" stroke-width="6"/>
<path d="M559.156 522.399C567.247 517.458 569.762 506.83 564.773 498.663C559.784 490.496 549.181 487.881 541.091 492.823C533 497.765 530.485 508.392 535.474 516.559C540.462 524.726 551.065 527.341 559.156 522.399Z" fill="#2B2A28"/>
<path d="M606.394 425.045C618.225 422.724 630.519 427.502 640.851 437.431C651.18 447.358 659.367 462.291 662.785 479.711C666.635 499.333 666.448 515.843 661.523 528.113C656.681 540.183 647.11 548.516 631.23 551.632C619.402 553.952 607.506 549.245 597.56 539.347C587.604 529.439 579.747 514.434 576.265 496.686C572.782 478.938 574.388 462.077 579.862 449.14C585.331 436.219 594.567 427.366 606.394 425.045Z" fill="#FEFEFE" stroke="#0F79AB" stroke-width="6"/>
<path d="M618.092 494.445C620.513 503.496 615.884 512.596 607.074 514.953C598.264 517.31 589.159 511.885 586.737 502.834C584.316 493.784 589.495 484.536 598.305 482.179C608.755 481.578 615.571 485.023 618.092 494.445Z" fill="#2B2A28"/>
</g>
<path d="M582.599 590.108C574.051 577.016 573.087 567.628 576.161 548.3" stroke="#0082AA" stroke-width="7" stroke-linecap="round"/>
<path d="M683.365 525.694C683.675 525.058 684.225 524.572 684.893 524.344C685.561 524.115 686.293 524.162 686.928 524.474C687.562 524.786 688.048 525.339 688.277 526.009C688.506 526.68 688.461 527.414 688.151 528.049C686.631 531.165 684.93 534.191 683.069 537.112C647.877 589.798 573.709 605.171 517.404 580.34C514.242 578.957 511.183 577.479 508.128 575.859C507.503 575.528 507.035 574.961 506.826 574.284C506.617 573.607 506.685 572.875 507.014 572.249C507.343 571.622 507.908 571.154 508.582 570.945C509.257 570.737 509.987 570.806 510.612 571.138C513.547 572.695 516.487 574.114 519.525 575.443C573.527 599.431 645.454 584.153 678.578 534.229C680.334 531.473 681.937 528.623 683.365 525.694Z" fill="#076FA2"/>
<path d="M524.535 580.775L524.641 581.15L524.635 581.541C524.428 594.665 554.339 624.687 578.254 660.078C606.858 679.777 596.716 680.022 626.657 675.253C655.043 657.831 657.588 650.521 664.936 632.591C668.643 623.545 673.59 601.74 674.827 595.143C675.241 592.938 677.789 544.551 678.152 542.748C674.291 545.133 655.223 566.274 649.932 569.013C628.105 580.311 628.907 584.54 602.038 589.521C572.791 588.952 571.08 600.754 557.437 589.697C554.01 586.919 529.651 585.032 527.286 582.946C526.205 581.992 526.439 586.368 525.628 585.674C525.655 585.772 524.507 580.672 524.535 580.775Z" fill="#D20223" stroke="#076FA2" stroke-width="6"/>
<path d="M613.652 674.928C627.719 674.317 639.734 666.563 652.193 651.822C664.255 637.55 672.487 614.936 664.382 612.175C643.037 618.177 625.023 626.419 608.074 669.31C606.555 673.77 606.009 676.947 613.652 674.928Z" fill="#FF1863"/>
<path d="M562.057 592.547L562.117 592.561L562.18 592.57L571.409 593.816L571.462 593.823L571.515 593.826L579.543 594.262L579.576 594.264L585.907 594.29L585.841 610.192L585.498 613.003L582.402 615.568L579.545 616.986L575.435 617.344L571.662 617.328L567.614 616.202L563.526 613.569L559.408 609.026L556.744 602.46L554.836 595.851L554.857 590.874L562.057 592.547Z" fill="#FEFEFE" stroke="#0875A4" stroke-width="3"/>
<path d="M610.509 590.895L610.448 590.909L610.386 590.916L600.174 592.209L600.121 592.216L600.068 592.219L591.191 592.627L591.157 592.628L584.024 592.599L583.95 610.337L584.309 613.513L587.763 616.427L590.945 618.04L595.517 618.477L599.713 618.494L604.233 617.277L608.81 614.381L613.434 609.361L616.453 602.092L618.629 594.776L618.653 589.073L610.509 590.895Z" fill="#FEFEFE" stroke="#0578A5" stroke-width="3"/>
<path d="M580.825 555.796C591.495 552.941 597.654 541.316 594.581 529.831C591.508 518.346 580.367 511.349 569.697 514.204C559.027 517.059 552.868 528.684 555.94 540.17C559.013 551.655 570.154 558.651 580.825 555.796Z" fill="#ED6F7A"/>
<defs>
<clipPath id="clip0_470_1185">
<rect width="151" height="90" fill="white" transform="matrix(-0.979383 -0.202011 -0.202011 0.979383 724.068 735.504)"/>
</clipPath>
<clipPath id="clip1_470_1185">
<rect width="74.4055" height="144.158" fill="white" transform="translate(713 625.875) rotate(-62.2942)"/>
</clipPath>
<clipPath id="clip2_470_1185">
<rect width="151" height="90" fill="white" transform="translate(336.445 707) rotate(1.55664)"/>
</clipPath>
<clipPath id="clip3_470_1185">
<rect width="196" height="148.189" fill="white" transform="translate(466 443.658) rotate(-14.9786)"/>
</clipPath>
</defs>
</svg>
