<svg width="1100" height="850" viewBox="0 0 1100 850" fill="none" xmlns="http://www.w3.org/2000/svg">
<path d="M750.077 120.013C781.857 95.7194 807.883 92.4604 821.662 103.535C836.557 115.507 847.066 140.249 837.168 173.495C827.144 207.161 819.85 211.421 746.422 261.388L709.996 301.792L691.075 322.76C645.961 373.798 645.448 382.53 625.106 414.259C619.987 422.245 615.556 429.2 611.548 435.004C607.502 440.862 604.213 445.065 601.45 447.736C598.695 450.4 597.269 450.77 596.546 450.749C595.768 450.726 594.113 450.201 591.773 446.621L590.23 444.257L587.432 444.533C582.894 444.979 580.501 443.982 579.205 442.711C577.944 441.475 577.017 439.291 576.922 435.276C576.717 426.742 574.812 409.39 581.935 390.693C596.031 353.689 602.511 294.09 627.26 241.373C658.348 175.152 718.617 144.064 750.077 120.013Z" fill="#87CFE5" stroke="#0E6B96" stroke-width="12"/>
<path d="M361.402 60.8326C371.847 53.8909 383.522 51.7508 396.139 54.2059C408.973 56.7036 422.965 64.0211 437.17 76.3808C465.55 101.072 493.448 144.742 513.381 204.267C519.664 229.581 527.133 254.718 533.985 277.997C540.884 301.43 547.13 322.892 551.05 341.058C555.028 359.496 556.341 373.457 554.22 382.316C553.197 386.589 551.562 388.86 549.893 390.078C548.288 391.251 545.53 392.261 540.452 391.911L536.78 391.659L534.314 394.342C530.97 397.979 529.091 398.413 528.495 398.455C527.92 398.495 526.373 398.325 523.592 395.767C520.863 393.257 517.828 389.245 514.322 383.651C510.853 378.117 507.148 371.409 502.976 363.722C486.395 333.169 463.211 288.485 422.431 252.447L422.146 252.195L421.83 251.978L418.141 249.427C341.522 196.081 317.288 156.119 316.256 126.972C315.229 97.928 337.284 76.8609 361.402 60.8326Z" fill="#8BCDE5" stroke="#0E6B96" stroke-width="12"/>
<path d="M579.5 368C681.975 368 765 450.406 765 552C765 653.594 681.975 736 579.5 736C477.025 736 394 653.594 394 552C394 450.406 477.025 368 579.5 368Z" fill="#86D0E3" stroke="#0C74AB" stroke-width="7"/>
<g clip-path="url(#clip0_471_1870)">
<path d="M755.588 571.341C752.6 566.117 749.765 564.686 746.925 564.574C743.468 564.437 738.989 566.171 732.824 569.761C721.07 576.605 704.398 589.577 683.036 598.527L682.727 598.657L682.398 598.728C665.475 602.404 650.414 605.756 638.757 611.601C627.572 617.208 619.881 624.931 616.862 637.262C620.39 652.023 625.652 662.015 631.794 668.516C638.004 675.089 645.342 678.344 653.377 679.211C669.769 680.978 689.112 672.792 706.355 661.54L706.487 661.453L706.626 661.379C723.614 652.268 738.098 634.682 747.195 616.494C751.727 607.433 754.845 598.373 756.279 590.346C757.707 582.351 757.388 575.818 755.588 571.341Z" fill="#87CFE5" stroke="#0076B8" stroke-width="7"/>
<path d="M657.212 635.072C657.473 634.891 657.807 634.827 658.133 634.883C658.459 634.941 658.75 635.115 658.95 635.377C659.151 635.639 659.245 635.97 659.219 636.308C659.194 636.645 659.052 636.96 658.816 637.175C658.309 637.636 657.814 638.081 657.3 638.533C648.463 646.914 636.125 652.438 623.783 653.905C623.087 654.007 622.425 654.101 621.727 654.192C621.486 651.561 621.246 648.929 621.005 646.298C621.671 646.298 622.301 646.295 622.962 646.284C634.699 646.352 645.773 643.165 655.568 636.194C656.123 635.822 656.66 635.456 657.212 635.072Z" fill="#0074AB"/>
<path d="M668.759 659.62C669.041 659.462 669.387 659.429 669.716 659.516C670.043 659.604 670.327 659.803 670.51 660.084C670.692 660.365 670.763 660.708 670.713 661.05C670.663 661.39 670.498 661.702 670.245 661.903C669.785 662.268 669.348 662.612 668.883 662.972C660.859 669.49 650.851 674.254 640.956 677.262C640.398 677.442 639.866 677.615 639.308 677.792C638.313 678.112 637.254 677.994 636.351 677.417C635.449 676.842 634.778 675.855 634.497 674.721C634.215 673.587 634.35 672.411 634.883 671.5C635.416 670.586 636.304 670.012 637.338 669.857C637.906 669.77 638.448 669.689 639.012 669.6C649.059 668.19 658.396 665.497 667.276 660.441C667.78 660.165 668.257 659.903 668.759 659.62Z" fill="#007BA4"/>
</g>
<path d="M706.5 680C672 719 608 734.5 583 732C476 738 395.5 643.895 398 550.5C399.566 492 385 630 524 689C598.5 726.5 706.5 680 706.5 680Z" fill="#37B4CA"/>
<path opacity="0.77" d="M500.722 435.918L515.237 434.318L531.841 435.571L539.594 437.782L545.567 441.034L545.51 445.983L544.745 450.924L541.852 456.548L534.123 452.216L520.38 448.167L510.506 445.931L498.844 445.443L499.267 439.437L500.722 435.918Z" fill="#004F80"/>
<path opacity="0.7" d="M567.328 408.345L572.653 402.374L578.764 397.775L586.328 393.802L596.342 389.334L605.732 386.318L610.331 392.43L601.809 398.229L592.289 405.147L585.179 410.866L580.519 416.09L575.195 422.06L569.97 417.401L567.237 412.954L567.328 408.345Z" fill="#014C83"/>
<g clip-path="url(#clip1_471_1870)">
<path d="M549.956 528.231C557.717 522.786 559.554 512.021 554.058 504.186C548.562 496.352 537.815 494.414 530.054 499.858C522.292 505.302 520.455 516.067 525.951 523.902C531.447 531.737 542.194 533.675 549.956 528.231Z" fill="#2B2A28"/>
<path d="M590.933 428.081C602.593 425.015 615.166 429.005 626.106 438.26C637.043 447.512 646.159 461.897 650.673 479.066C655.758 498.405 656.617 514.893 652.48 527.451C648.411 539.802 639.387 548.725 623.736 552.841C612.08 555.905 599.909 551.961 589.357 542.713C578.792 533.455 570.001 518.978 565.402 501.486C560.802 483.994 561.336 467.065 565.981 453.808C570.62 440.566 579.277 431.146 590.933 428.081Z" fill="#FEFEFE" stroke="#0F79AB" stroke-width="6"/>
<path d="M607.004 496.6C609.994 505.479 605.95 514.855 597.307 517.765C588.664 520.675 579.233 515.837 576.243 506.958C573.254 498.08 577.837 488.522 586.48 485.612C596.871 484.351 603.891 487.356 607.004 496.6Z" fill="#2B2A28"/>
<path d="M514.631 476.461C536.878 468.608 562.95 482.83 572.006 508.484C577.116 522.958 578.142 535.636 574.454 545.859C570.819 555.94 562.411 564.147 547.448 569.429C525.285 577.252 500.644 563.099 491.408 536.934C482.173 510.769 492.468 484.284 514.631 476.461Z" fill="#FEFEFE" stroke="#0F79AB" stroke-width="6"/>
<path d="M561.272 511.091C562.72 520.53 558.29 529.041 550.802 530.19C543.314 531.338 536.07 524.618 534.622 515.179C533.174 505.74 538.071 497.157 545.559 496.008C554.302 496.853 559.764 501.263 561.272 511.091Z" fill="#2B2A28"/>
</g>
<path d="M577.69 594.343C568.33 581.818 566.774 572.51 568.617 553.026" stroke="#0082AA" stroke-width="7" stroke-linecap="round"/>
<path d="M661.698 600.189C662.173 600.474 662.797 600.595 663.433 600.527C664.068 600.458 664.662 600.205 665.085 599.823C665.507 599.441 665.724 598.962 665.687 598.49C665.649 598.019 665.361 597.594 664.886 597.309C662.557 595.913 660.106 594.627 657.559 593.452C610.252 572.768 543.162 586.383 504.673 618.547C502.507 620.346 500.46 622.17 498.465 624.079C498.056 624.469 497.859 624.952 497.915 625.421C497.972 625.891 498.279 626.308 498.766 626.581C499.254 626.854 499.885 626.961 500.518 626.878C501.152 626.795 501.737 626.529 502.146 626.139C504.062 624.305 506.03 622.552 508.11 620.823C544.966 589.872 610.156 576.889 654.797 596.557C657.201 597.665 659.508 598.877 661.698 600.189Z" fill="#076FA2"/>
<path d="M551.434 593.889L551.496 593.888L551.56 593.881L560.813 592.83L560.866 592.824L560.918 592.813L568.809 591.271L568.841 591.264L574.986 589.74L578.815 605.174L579.17 607.983L576.797 611.228L574.374 613.303L570.477 614.656L566.815 615.564L562.614 615.464L558.006 613.912L552.901 610.515L548.711 604.802L545.243 598.861L544.044 594.03L551.434 593.889Z" fill="#FEFEFE" stroke="#0875A4" stroke-width="3"/>
<path d="M602.959 585.987L602.9 586.007L602.839 586.021L592.823 588.397L592.771 588.409L592.719 588.417L583.936 589.77L583.903 589.776L576.807 590.507L578.626 608.153L579.323 611.272L583.068 613.801L586.404 615.065L590.996 615.011L595.17 614.581L599.535 612.888L603.777 609.519L607.838 604.035L610.064 596.485L611.447 588.979L610.862 583.306L602.959 585.987Z" fill="#FEFEFE" stroke="#0578A5" stroke-width="3"/>
<path d="M580.694 561.187C591.162 557.662 596.573 545.67 592.778 534.403C588.984 523.135 577.422 516.858 566.954 520.383C556.486 523.908 551.076 535.9 554.87 547.167C558.664 558.435 570.226 564.712 580.694 561.187Z" fill="#ED6F7A"/>
<path d="M489.771 660.981L497.752 663.578L504.348 663.796L511.1 662.633L515.214 660.196L508.842 660.839L507.317 660.992L517.495 651.863L480.614 262.755L450.144 259.248L482.085 650.843L485.233 655.921L489.771 660.981Z" fill="#D3B256" stroke="#F1CD51"/>
<path d="M461.561 270.42L496.191 655.339" stroke="#F1CD51" stroke-width="21" stroke-linecap="round"/>
<path d="M449.649 264.254L480.429 265.854L476.174 216.305L523.075 236.588L531.318 233.688L536.975 228.615L548.509 216.583L565.273 200.423L571.279 184.361L562.142 184.131L526.085 216.475L517.655 215.611L510.098 210.031L543.493 176.142L541.09 167.063L534.558 166.181L496.38 200.427L482.906 196.785L475.646 188.692L505.599 154.521L504.592 146.998L494.748 147.402L459.751 178.795L449.85 177.002L441.735 170.8L452.599 153.753L466.477 137.933L464.131 131.05L454.845 132.077L425.456 158.439L417.427 157.214L410.783 151.94L422.689 136.766L433.832 120.029L432.323 114.08L424.935 115.09L409.939 129.664L397.828 143.899L391.724 142.072L387.815 137.714L395.776 123.831L409.599 105.815L409.857 98.2804L402.897 98.3443L377.445 121.175L371.013 148.853L443.92 203.106L449.649 264.254Z" fill="#B8BDC6"/>
<path d="M381.924 140.157C381.816 126.752 385.991 119.862 400.823 108.599" stroke="#B7B6AF" stroke-width="6" stroke-linecap="round"/>
<path d="M516.021 229.434C531.016 228.943 537.342 223.8 545.064 206.138" stroke="#B7B6AF" stroke-width="6" stroke-linecap="round"/>
<path d="M500.33 219.707C500.222 206.302 504.397 199.411 519.229 188.149" stroke="#B7B6AF" stroke-width="6" stroke-linecap="round"/>
<path d="M462.065 201.228C461.958 187.823 466.133 180.932 480.965 169.669" stroke="#B7B6AF" stroke-width="6" stroke-linecap="round"/>
<path d="M434.404 173.235C434.296 159.83 438.472 152.94 453.304 141.677" stroke="#B7B6AF" stroke-width="6" stroke-linecap="round"/>
<path d="M404.289 155.309C404.181 141.904 408.356 135.013 423.188 123.75" stroke="#B7B6AF" stroke-width="6" stroke-linecap="round"/>
<g clip-path="url(#clip2_471_1870)">
<path d="M384.858 587.815C388.905 590.563 391.974 590.206 394.758 588.737C398.145 586.95 402.117 583.027 407.321 576.615C417.241 564.392 430.596 544.309 449.389 525.027L449.661 524.748L449.965 524.507C465.602 512.103 479.499 500.995 489.545 489.665C499.183 478.794 504.963 468.068 505.194 456.039C498.533 445.568 491.232 440.063 483.84 437.976C476.367 435.867 468.525 437.169 460.528 440.862C444.215 448.398 427.216 465.926 412.929 484.877L412.82 485.022L412.701 485.161C398.192 502.172 387.974 524.929 383.12 545.229C380.702 555.342 379.658 564.676 380.023 572.215C380.387 579.724 382.128 585.041 384.858 587.815Z" fill="#87CFE5" stroke="#0076B8" stroke-width="7"/>
<path d="M466.472 480.086C466.258 480.382 465.948 480.62 465.619 480.752C465.29 480.882 464.968 480.897 464.717 480.786C464.464 480.677 464.301 480.45 464.251 480.152C464.202 479.854 464.271 479.511 464.453 479.201C464.845 478.534 465.228 477.888 465.629 477.224C472.378 465.314 483.155 453.879 494.824 445.853C495.478 445.384 496.1 444.941 496.759 444.48C497.569 446.56 498.379 448.641 499.189 450.721C498.543 451.087 497.931 451.436 497.291 451.809C485.873 458.212 475.813 466.986 467.824 478.238C467.366 478.856 466.925 479.46 466.472 480.086Z" fill="#0074AB"/>
<path d="M449.875 465.8C449.636 466.087 449.306 466.306 448.968 466.414C448.631 466.52 448.312 466.509 448.073 466.373C447.834 466.237 447.69 465.988 447.664 465.673C447.637 465.359 447.73 465.006 447.931 464.698C448.299 464.138 448.647 463.608 449.021 463.05C455.388 453.153 464.068 443.64 473.022 435.665C473.525 435.206 474.004 434.768 474.507 434.311C475.404 433.495 476.459 433.011 477.462 433C478.464 432.987 479.333 433.447 479.854 434.246C480.376 435.045 480.503 436.108 480.185 437.167C479.867 438.229 479.13 439.2 478.159 439.9C477.627 440.285 477.118 440.652 476.589 441.037C467.137 447.752 458.656 455.154 451.136 464.293C450.707 464.803 450.301 465.286 449.875 465.8Z" fill="#007BA4"/>
</g>
<g clip-path="url(#clip3_471_1870)">
<path d="M459 716C477.453 716 487.418 721.777 492.985 729.291C498.752 737.076 500.5 747.636 500.5 758.5C500.5 769.729 499.623 778.38 492.348 784.753C484.743 791.415 469.12 796.5 436.501 796.5C414.107 796.5 398.008 795.432 386.449 793.533C374.816 791.622 368.242 788.939 364.485 786.064C360.994 783.392 359.645 780.333 359.114 776.492C358.834 774.466 358.79 772.239 358.832 769.693C358.871 767.301 359.001 764.305 359.001 761.5C359.001 758.01 361.71 753.248 368.266 747.682C374.594 742.307 383.607 736.959 394.019 732.206C414.892 722.677 440.368 716 459 716Z" fill="#87CFE5" stroke="#0178B2" stroke-width="9"/>
<path d="M495.614 745.952C506.614 788.952 473.16 794 434.5 794C395.84 794 374 791 368.5 784C355.5 778 409.115 782.952 437.114 779.952C522.114 779.952 476 703 495.614 745.952Z" fill="#31A7BA"/>
</g>
<g clip-path="url(#clip4_471_1870)">
<path d="M634.755 719.712C616.823 715.358 605.777 718.621 598.594 724.609C591.153 730.814 586.963 740.663 584.4 751.221C581.751 762.133 580.562 770.747 586.128 778.656C591.946 786.924 605.929 795.551 637.627 803.247C659.389 808.531 675.286 811.291 686.966 812.173C698.722 813.061 705.744 812.004 710.072 810.097C714.095 808.324 716.128 805.669 717.55 802.062C718.3 800.159 718.868 798.006 719.428 795.522C719.954 793.188 720.535 790.246 721.197 787.52C722.02 784.129 720.511 778.862 715.454 771.906C710.572 765.19 703.076 757.866 694.079 750.791C676.043 736.607 652.862 724.107 634.755 719.712Z" fill="#87CFE5" stroke="#0178B2" stroke-width="9"/>
<path d="M592.108 740.18C571.274 779.371 602.592 792.17 640.161 801.291C677.73 810.412 699.661 812.649 706.657 807.144C720.706 804.381 667.437 796.543 640.935 787.022C558.335 766.968 621.302 703.068 592.108 740.18Z" fill="#31A7BA"/>
</g>
<defs>
<clipPath id="clip0_471_1870">
<rect width="86.3952" height="162.483" fill="white" transform="matrix(-0.386417 -0.922324 -0.922324 0.386417 786.384 634.96)"/>
</clipPath>
<clipPath id="clip1_471_1870">
<rect width="196" height="148.189" fill="white" transform="translate(452 455.548) rotate(-18.6099)"/>
</clipPath>
<clipPath id="clip2_471_1870">
<rect width="69.6706" height="188.892" fill="white" transform="matrix(0.716119 0.697978 0.697978 -0.716119 341 551.27)"/>
</clipPath>
<clipPath id="clip3_471_1870">
<rect width="151" height="90" fill="white" transform="translate(354 711)"/>
</clipPath>
<clipPath id="clip4_471_1870">
<rect width="151" height="90" fill="white" transform="matrix(-0.97177 -0.235931 -0.235931 0.97177 737.971 739.626)"/>
</clipPath>
</defs>
</svg>
