<svg width="1100" height="850" viewBox="0 0 1100 850" fill="none" xmlns="http://www.w3.org/2000/svg">
<path d="M724.69 114.886C751.588 85.2774 776.605 77.3953 792.149 85.814C808.953 94.915 823.737 117.366 819.973 151.85C816.161 186.768 809.751 192.27 746.495 254.617L717.922 300.908L703.076 324.934C667.866 383.247 668.93 391.929 654.62 426.796C651.019 435.573 647.909 443.21 645.01 449.64C642.082 456.13 639.602 460.856 637.364 463.979C635.132 467.095 633.796 467.715 633.081 467.825C632.312 467.942 630.589 467.722 627.644 464.621L625.701 462.573L622.998 463.347C618.614 464.601 616.081 464.05 614.577 463.033C613.115 462.043 611.811 460.062 610.996 456.129C609.261 447.771 604.27 431.043 607.917 411.371C615.136 372.436 610.802 312.643 625.676 256.337C644.361 185.608 698.063 144.198 724.69 114.886Z" fill="#87CFE5" stroke="#0E6B96" stroke-width="12"/>
<path d="M299.432 85.2229C308.336 76.3905 319.375 72.0309 332.229 71.9971C345.304 71.9629 360.448 76.4334 376.777 85.8094C409.399 104.539 445.224 141.983 476.303 196.524C487.368 220.142 499.561 243.358 510.79 264.87C522.094 286.524 532.377 306.372 539.74 323.435C547.212 340.754 551.202 354.196 550.836 363.299C550.66 367.689 549.496 370.233 548.095 371.751C546.746 373.213 544.236 374.738 539.186 375.377L535.535 375.841L533.635 378.95C531.059 383.166 529.299 383.955 528.722 384.112C528.166 384.263 526.615 384.396 523.392 382.424C520.229 380.49 516.474 377.141 511.952 372.332C507.478 367.575 502.544 361.71 496.962 354.976C474.781 328.211 443.385 288.86 396.4 261.399L396.072 261.206L395.72 261.055L391.607 259.266C306.11 221.762 274.598 187.247 267.944 158.851C261.314 130.555 278.873 105.617 299.432 85.2229Z" fill="#8BCDE5" stroke="#0E6B96" stroke-width="12"/>
<g clip-path="url(#clip0_471_1976)">
<path d="M652.271 717.065C636.447 707.571 624.93 707.397 616.291 710.976C607.34 714.685 600.408 722.84 594.818 732.156C589.041 741.785 585.342 749.654 588.301 758.861C591.395 768.487 602.175 780.885 630.146 797.668C649.348 809.191 663.702 816.557 674.591 820.877C685.549 825.224 692.567 826.305 697.267 825.773C701.636 825.278 704.367 823.349 706.798 820.328C708.08 818.735 709.264 816.848 710.538 814.644C711.735 812.572 713.166 809.936 714.609 807.531C716.404 804.539 716.531 799.061 713.774 790.915C711.112 783.051 706.136 773.827 699.653 764.395C686.657 745.485 668.247 726.651 652.271 717.065Z" fill="#87CFE5" stroke="#0178B2" stroke-width="9"/>
<path d="M605.464 723.909C573.908 755.122 599.997 776.663 633.147 796.554C666.298 816.445 686.569 825.109 694.886 821.937C709.121 823.48 660.6 800.141 638.134 783.163C565.247 739.429 644.382 697.171 605.464 723.909Z" fill="#31A7BA"/>
</g>
<path d="M582.5 369C684.975 369 768 451.406 768 553C768 654.594 684.975 737 582.5 737C480.025 737 397 654.594 397 553C397 451.406 480.025 369 582.5 369Z" fill="#86D0E3" stroke="#0C74AB" stroke-width="7"/>
<path d="M709.5 681C675 720 611 735.5 586 733C479 739 398.5 644.895 401 551.5C402.566 493 388 631 527 690C601.5 727.5 709.5 681 709.5 681Z" fill="#37B4CA"/>
<g clip-path="url(#clip1_471_1976)">
<path d="M474.008 697.133C488.752 708.23 493.24 718.837 493.17 728.189C493.097 737.877 488.143 747.366 481.611 756.046C474.858 765.018 468.956 771.403 459.311 772.12C449.228 772.871 433.688 767.539 407.624 747.924C389.731 734.458 377.511 723.924 369.417 715.457C361.27 706.935 357.631 700.837 356.358 696.282C355.175 692.047 355.937 688.792 357.823 685.404C358.818 683.617 360.121 681.81 361.685 679.802C363.155 677.914 365.061 675.598 366.747 673.357C368.846 670.568 373.874 668.393 382.459 667.887C390.747 667.398 401.165 668.544 412.342 671.007C434.75 675.946 459.121 685.93 474.008 697.133Z" fill="#87CFE5" stroke="#0178B2" stroke-width="9"/>
<path d="M485.253 743.082C468.185 784.054 438.419 767.971 407.53 744.724C376.64 721.477 360.993 705.947 360.808 697.047C354.029 684.435 393.89 720.631 418.066 735.071C485.982 786.183 495.409 696.969 485.253 743.082Z" fill="#31A7BA"/>
</g>
<path opacity="0.77" d="M530.808 412.063L544.198 406.235L560.427 402.512L568.487 402.326L575.155 403.662L576.567 408.406L577.301 413.352L576.204 419.581L567.539 417.733L553.213 417.938L543.12 418.728L531.837 421.717L530.461 415.855L530.808 412.063Z" fill="#004F80"/>
<g clip-path="url(#clip2_471_1976)">
<path d="M559.582 570.951L559.631 570.965L559.681 570.973L567.937 572.377L567.98 572.385L568.023 572.387L575.202 572.855L575.23 572.857H581V591.498L580.698 594.833L577.895 597.88L575.315 599.561L571.615 600H568.221L564.569 598.701L560.876 595.637L557.153 590.342L554.736 582.69L553 574.993V569L559.582 570.951Z" fill="#FEFEFE" stroke="#0578A5" stroke-width="3"/>
<path d="M599.848 569.62L599.783 569.637L599.714 569.648L589.742 571.118L589.684 571.126L589.628 571.129L580.957 571.603L580.921 571.605L574.087 571.585L574.027 591.345L574.374 594.84L577.694 598.054L580.767 599.84L585.2 600.32L589.273 600.332L593.652 598.967L598.088 595.731L602.571 590.12L605.5 581.984L607.615 573.788L607.634 567.602L599.848 569.62Z" fill="#FEFEFE" stroke="#0875A4" stroke-width="3"/>
<path d="M672.513 588.999C673.314 588.992 674.131 588.813 674.78 588.445C675.43 588.076 676.027 587.431 676 586.553V586.551C675.973 585.685 675.353 585.07 674.697 584.721C672.384 583.494 670.031 582.336 667.57 581.208L667.336 581.101C644.713 570.718 615.337 564.767 585.836 564.07C556.797 563.383 527.54 567.784 504.408 578.141L503.31 578.638L503.291 578.647C501.099 579.7 498.994 580.814 496.996 581.985L496.139 582.494C495.501 582.881 494.942 583.543 495.005 584.41L495.034 584.625C495.172 585.366 495.772 585.902 496.38 586.207L496.527 586.277C497.173 586.566 497.941 586.694 498.685 586.675L498.965 586.66C499.615 586.611 500.262 586.447 500.8 586.155L500.971 586.056L501.701 585.622L501.712 585.615C503.536 584.547 505.464 583.527 507.481 582.558L507.495 582.551L507.508 582.545C529.133 572.544 557.349 568.216 585.561 568.879C613.776 569.543 641.883 575.197 663.262 585.063L663.29 585.075L663.301 585.082C665.698 586.177 667.983 587.299 670.227 588.49C670.888 588.841 671.71 589.007 672.513 588.999Z" fill="#076FA2"/>
</g>
<g clip-path="url(#clip3_471_1976)">
<path d="M535.753 450.829C559.345 450.679 579.337 472.641 579.51 499.846C579.607 515.196 576.433 527.513 569.607 535.969C562.876 544.308 552.248 549.316 536.38 549.417C512.877 549.566 494.216 528.136 494.04 500.39C493.863 472.644 512.25 450.978 535.753 450.829Z" fill="#FEFEFE" stroke="#0F79AB" stroke-width="6"/>
<path d="M625.095 426.917C638.031 426.835 650.03 433.332 658.927 444.205C667.82 455.075 673.452 470.159 673.557 486.696C673.675 505.323 670.164 520.404 662.511 530.787C654.984 541 643.223 546.976 625.86 547.086C612.928 547.169 601.334 540.806 592.839 530.028C584.333 519.239 579.064 504.146 578.957 487.298C578.85 470.45 583.926 455.291 592.294 444.394C600.652 433.51 612.163 427 625.095 426.917Z" fill="#FEFEFE" stroke="#0F79AB" stroke-width="6"/>
<path d="M578.871 546.882C588.071 546.823 595.48 539.215 595.421 529.888C595.361 520.561 587.856 513.047 578.657 513.106C569.457 513.164 562.048 520.773 562.107 530.1C562.167 539.427 569.672 546.941 578.871 546.882Z" fill="#ED6F7A"/>
<path d="M611.071 484.29C611.132 493.84 605.513 501.617 597.937 501.665C590.361 501.713 584.171 494.011 584.11 484.462C584.049 474.913 590.141 467.132 597.717 467.084C606.245 469.191 611.008 474.348 611.071 484.29Z" fill="#2B2A28"/>
<path d="M554.44 502.627C562.015 502.728 568.258 495.068 568.385 485.52C568.512 475.971 562.473 468.149 554.898 468.049C547.323 467.948 541.08 475.607 540.953 485.156C540.826 494.705 546.865 502.527 554.44 502.627Z" fill="#2B2A28"/>
</g>
<path opacity="0.7" d="M613.999 392.847L621.997 392.685L629.526 394.034L637.585 396.872L647.674 401.17L656.273 405.997L654.924 413.526L644.876 411.228L633.328 408.96L624.299 407.642L617.301 407.783L609.302 407.944L609.161 400.946L610.56 395.916L613.999 392.847Z" fill="#014C83"/>
<path d="M546.638 673.969L553.166 679.246L559.248 681.806L565.971 683.131L570.684 682.325L564.502 680.648L563.023 680.247L575.791 675.354L709.638 197.197L684.16 189.864L543.08 661.757L544.207 667.623L546.638 673.969Z" fill="#D3B256" stroke="#F1CD51"/>
<path d="M691.747 198.108L562.352 667.299" stroke="#F1CD51" stroke-width="21" stroke-linecap="round"/>
<path d="M682.83 188.091L711.009 200.579L724.731 152.779L761.295 188.475L770.03 188.71L777.125 185.992L792.196 178.873L813.626 169.766L824.973 156.909L816.52 153.431L771.289 170.763L763.724 166.945L758.658 159.034L801.954 139.308L802.953 129.97L797.166 126.813L749.275 145.165L737.99 136.95L734.1 126.798L774.281 105.579L776.028 98.1925L766.688 95.0542L722.788 111.877L714.181 106.667L708.816 97.9749L725.051 85.9318L743.665 76.1122L743.931 68.8451L734.891 66.4876L698.025 80.6147L690.964 76.6034L686.641 69.3036L703.181 59.3828L719.567 47.7302L720.282 41.6345L713.021 39.9387L693.809 48.1963L677.413 57.1662L672.364 53.2795L670.269 47.8128L682.663 37.6895L702.008 25.7983L704.941 18.853L698.417 16.4269L666.49 28.6614L650.597 52.2163L699.319 128.931L682.83 188.091Z" fill="#B8BDC6"/>
<path d="M663.894 47.9907C668.581 35.4314 674.942 30.4864 692.818 25.2639" stroke="#B7B6AF" stroke-width="6" stroke-linecap="round"/>
<path d="M757.262 179.272C771.443 184.169 779.188 181.625 792.709 167.886" stroke="#B7B6AF" stroke-width="6" stroke-linecap="round"/>
<path d="M746.08 164.583C750.767 152.024 757.128 147.079 775.004 141.856" stroke="#B7B6AF" stroke-width="6" stroke-linecap="round"/>
<path d="M716.938 133.656C721.625 121.097 727.986 116.152 745.862 110.929" stroke="#B7B6AF" stroke-width="6" stroke-linecap="round"/>
<path d="M701.099 97.6309C705.786 85.0715 712.147 80.1265 730.023 74.9041" stroke="#B7B6AF" stroke-width="6" stroke-linecap="round"/>
<path d="M679.373 70.1313C684.06 57.572 690.421 52.627 708.297 47.4046" stroke="#B7B6AF" stroke-width="6" stroke-linecap="round"/>
<g clip-path="url(#clip4_471_1976)">
<path d="M715.137 625.716C714.951 620.845 713.081 618.663 710.573 617.391C707.52 615.844 702.647 615.163 695.36 615.057C681.469 614.856 660.196 616.831 636.626 614.05L636.285 614.01L635.954 613.921C618.921 609.354 603.724 605.347 590.4 604.494C577.616 603.676 566.968 605.791 558.321 613.059C554.412 624.76 554.359 633.887 556.777 640.969C559.221 648.128 564.277 653.465 571.11 657.442C585.049 665.553 606.431 668.014 627.391 667.47L627.552 667.466L627.713 667.473C647.416 668.304 668.93 662.216 685.874 653.448C694.315 649.079 701.481 644.117 706.631 639.163C711.76 634.229 714.611 629.572 715.137 625.716Z" fill="#87CFE5" stroke="#0076B8" stroke-width="7"/>
<path d="M595.773 628.498C596.095 628.482 596.427 628.578 596.695 628.754C596.961 628.931 597.14 629.174 597.194 629.439C597.25 629.705 597.175 629.974 596.99 630.197C596.805 630.419 596.526 630.578 596.21 630.628C595.531 630.733 594.871 630.833 594.19 630.931C582.191 633.019 568.407 631.658 556.569 627.488C555.892 627.266 555.25 627.053 554.576 626.823C555.623 624.9 556.67 622.978 557.717 621.055C558.318 621.335 558.888 621.597 559.489 621.867C570.045 626.846 581.565 629.293 593.751 628.583C594.43 628.559 595.09 628.531 595.773 628.498Z" fill="#0074AB"/>
<path d="M594.398 650.344C594.727 650.353 595.056 650.476 595.311 650.674C595.564 650.872 595.724 651.129 595.754 651.4C595.784 651.672 595.682 651.939 595.473 652.154C595.265 652.369 594.966 652.516 594.641 652.549C594.051 652.608 593.492 652.663 592.899 652.716C582.529 653.857 571.212 652.949 560.841 650.873C560.25 650.764 559.688 650.66 559.099 650.548C558.047 650.352 557.149 649.825 556.612 649.046C556.074 648.269 555.943 647.304 556.234 646.4C556.525 645.497 557.212 644.74 558.13 644.333C559.05 643.925 560.126 643.9 561.134 644.227C561.688 644.406 562.216 644.577 562.768 644.753C572.508 647.999 582.225 650.057 592.666 650.289C593.253 650.31 593.809 650.329 594.398 650.344Z" fill="#007BA4"/>
</g>
<g clip-path="url(#clip5_471_1976)">
<path d="M389.913 565.505C394.201 569.692 397.289 570.299 400.014 569.646C403.331 568.852 407.098 565.998 411.948 560.922C421.195 551.246 433.403 534.404 451.179 520.147L451.437 519.94L451.729 519.784C466.761 511.749 480.116 504.52 489.55 495.823C498.601 487.478 503.748 478.05 503.182 465.472C495.73 452.327 487.958 444.198 480.323 439.635C472.604 435.023 464.737 433.879 456.872 435.201C440.83 437.9 424.757 450.888 411.529 466.241L411.428 466.359L411.316 466.466C397.734 479.708 388.886 500.368 385.315 520.161C383.536 530.022 383.099 539.505 383.971 547.55C384.84 555.563 386.959 561.713 389.913 565.505Z" fill="#87CFE5" stroke="#0076B8" stroke-width="7"/>
<path d="M465.513 478.356C465.315 478.599 465.016 478.75 464.691 478.783C464.366 478.815 464.041 478.727 463.779 478.53C463.516 478.334 463.334 478.043 463.264 477.714C463.195 477.385 463.242 477.046 463.405 476.779C463.759 476.202 464.105 475.646 464.466 475.076C470.518 464.713 480.687 456.14 491.987 451.438C492.619 451.154 493.221 450.887 493.858 450.614C494.818 453.061 495.778 455.508 496.738 457.955C496.107 458.134 495.51 458.305 494.886 458.492C483.732 461.567 474.114 467.571 466.76 476.846C466.338 477.349 465.93 477.842 465.513 478.356Z" fill="#0074AB"/>
<path d="M447.729 458.015C447.506 458.241 447.186 458.365 446.851 458.37C446.515 458.374 446.191 458.259 445.94 458.04C445.688 457.821 445.526 457.512 445.478 457.173C445.431 456.834 445.5 456.493 445.684 456.233C446.02 455.761 446.338 455.316 446.68 454.849C452.478 446.481 460.648 439.256 469.198 433.738C469.677 433.416 470.134 433.109 470.614 432.791C471.469 432.219 472.507 432.048 473.524 432.358C474.539 432.665 475.451 433.428 476.033 434.435C476.616 435.443 476.814 436.601 476.563 437.613C476.311 438.628 475.629 439.413 474.69 439.838C474.176 440.073 473.685 440.295 473.174 440.531C464.034 444.564 455.926 449.632 448.908 456.834C448.506 457.233 448.127 457.61 447.729 458.015Z" fill="#007BA4"/>
</g>
<defs>
<clipPath id="clip0_471_1976">
<rect width="151" height="90" fill="white" transform="matrix(-0.857485 -0.514509 -0.514509 0.857485 744.879 766.801)"/>
</clipPath>
<clipPath id="clip1_471_1976">
<rect width="151" height="90" fill="white" transform="translate(393.119 630) rotate(36.9644)"/>
</clipPath>
<clipPath id="clip2_471_1976">
<rect width="179" height="56" fill="white" transform="translate(490 553)"/>
</clipPath>
<clipPath id="clip3_471_1976">
<rect width="185.42" height="127.952" fill="white" transform="translate(490.58 425.18) rotate(-0.36456)"/>
</clipPath>
<clipPath id="clip4_471_1976">
<rect width="69.6706" height="166.504" fill="white" transform="matrix(0.117159 -0.993113 -0.993113 -0.117159 712.357 682.698)"/>
</clipPath>
<clipPath id="clip5_471_1976">
<rect width="86.0487" height="159.861" fill="white" transform="matrix(0.625664 0.780093 0.780093 -0.625664 343 513.02)"/>
</clipPath>
</defs>
</svg>
