<svg width="1100" height="850" viewBox="0 0 1100 850" fill="none" xmlns="http://www.w3.org/2000/svg">
<path d="M634.226 99.8303C654.94 65.609 677.979 53.071 694.85 58.3493C713.088 64.0555 731.907 83.251 734.832 117.816C737.795 152.817 732.56 159.447 682.449 232.776L663.293 283.692L653.335 310.121C629.974 374.109 632.685 382.425 625.334 419.391C623.485 428.695 621.899 436.787 620.288 443.654C618.661 450.586 617.133 455.699 615.537 459.194C613.945 462.68 612.752 463.546 612.072 463.791C611.339 464.053 609.606 464.168 606.121 461.69L603.821 460.053L601.317 461.332C597.255 463.404 594.663 463.349 592.992 462.64C591.368 461.949 589.707 460.255 588.152 456.552C584.845 448.682 576.735 433.224 576.539 413.217C576.149 373.621 560.418 315.771 564.207 257.658C568.967 184.657 613.721 133.708 634.226 99.8303Z" fill="#87CFE5" stroke="#0E6B96" stroke-width="12"/>
<g clip-path="url(#clip0_471_2540)">
<path d="M403.009 623.658C408.361 621.448 410.089 619.01 410.565 616.44C411.144 613.312 410.077 609.074 407.465 603.124C402.487 591.78 392.324 575.374 386.592 555.096L386.509 554.802L386.483 554.496C385.188 538.762 383.957 524.751 379.916 513.591C376.039 502.885 369.698 495.149 358.371 491.213C343.884 492.991 333.706 496.806 326.729 501.759C319.677 506.766 315.63 513.12 313.763 520.338C309.956 535.064 315.224 553.434 323.679 570.192L323.744 570.32L323.796 570.454C330.25 586.774 345.082 601.637 361.186 611.663C369.209 616.658 377.415 620.368 384.858 622.448C392.27 624.519 398.52 624.861 403.009 623.658Z" fill="#87CFE5" stroke="#0076B8" stroke-width="7"/>
<path d="M355.213 528.093C355.351 528.347 355.369 528.657 355.273 528.948C355.175 529.238 354.972 529.487 354.697 529.643C354.423 529.8 354.095 529.853 353.778 529.797C353.461 529.742 353.18 529.582 353.006 529.347C352.634 528.841 352.276 528.349 351.912 527.838C345.095 518.996 341.447 507.249 341.655 495.892C341.648 495.25 341.645 494.639 341.649 493.995C344.181 494.031 346.713 494.067 349.245 494.103C349.159 494.708 349.08 495.281 349.004 495.883C347.416 506.543 349.007 516.914 354.36 526.49C354.642 527.03 354.92 527.554 355.213 528.093Z" fill="#0074AB"/>
<path d="M330.384 536.212C330.497 536.483 330.483 536.801 330.358 537.091C330.232 537.381 330.006 537.619 329.715 537.758C329.425 537.897 329.09 537.927 328.771 537.849C328.454 537.771 328.179 537.591 328.021 537.342C327.734 536.888 327.463 536.458 327.182 536C322.029 528.078 318.802 518.522 317.228 509.239C317.128 508.714 317.033 508.214 316.937 507.69C316.762 506.755 317.012 505.803 317.678 505.039C318.341 504.275 319.366 503.761 320.481 503.615C321.595 503.469 322.695 503.705 323.491 504.277C324.291 504.85 324.721 505.712 324.734 506.667C324.743 507.192 324.75 507.692 324.761 508.214C324.797 517.48 326.144 526.225 329.796 534.785C329.993 535.27 330.18 535.728 330.384 536.212Z" fill="#007BA4"/>
</g>
<g clip-path="url(#clip1_471_2540)">
<path d="M445.58 686.182C466.191 684.996 477.668 690.394 484.338 697.891C491.248 705.658 493.835 716.584 494.488 727.939C495.164 739.677 494.704 748.776 486.962 755.905C478.868 763.357 461.724 769.676 425.29 771.772C400.277 773.211 382.231 773.129 369.207 771.888C356.098 770.638 348.594 768.255 344.225 765.492C340.165 762.923 338.474 759.812 337.65 755.832C337.216 753.732 337.033 751.407 336.926 748.743C336.826 746.24 336.791 743.099 336.622 740.168C336.412 736.52 339.152 731.368 346.139 725.129C352.885 719.104 362.63 712.934 373.973 707.298C396.715 695.996 424.769 687.379 445.58 686.182Z" fill="#87CFE5" stroke="#0178B2" stroke-width="9"/>
<path d="M488.276 715.137C503.148 759.377 466.086 766.803 422.905 769.288C379.724 771.772 355.149 770.039 348.585 763.076C333.704 757.639 393.886 759.37 424.98 754.435C519.92 748.973 463.786 671.501 488.276 715.137Z" fill="#31A7BA"/>
</g>
<path d="M491.486 825.54L499.875 825.29L506.158 823.27L512.121 819.895L515.171 816.213L509.389 818.969L508.006 819.627L514.504 807.597L304.519 357.647L280.413 368.683L480.83 818.594L485.507 822.31L491.486 825.54Z" fill="#D3B256" stroke="#F1CD51"/>
<path d="M291.539 369.995L499.061 810.242" stroke="#F1CD51" stroke-width="21" stroke-linecap="round"/>
<path d="M278.251 368.2L307.765 359.315L287.032 314.112L338.027 317.37L344.807 311.857L348.418 305.172L355.214 289.953L365.538 269.082L365.77 251.936L357.091 254.804L334.07 297.421L325.843 299.454L316.846 296.753L336.84 253.58L331.513 245.845L325.067 247.22L300.691 292.344L286.778 293.465L277.213 288.297L293.871 246.021L290.384 239.28L281.254 242.984L258.91 284.347L248.985 286.003L239.252 282.904L243.723 263.19L251.446 243.614L246.914 237.927L238.52 242.028L219.756 276.765L211.785 278.322L203.75 275.601L209.834 257.298L214.673 237.783L211.244 232.692L204.631 236.136L195.436 254.918L188.841 272.405L182.479 272.746L177.328 269.964L180.135 254.209L187.064 232.584L184.764 225.404L178.234 227.814L161.984 257.897L165.273 286.121L252.216 312.576L278.251 368.2Z" fill="#B8BDC6"/>
<path d="M172.608 274.251C167.981 261.67 169.585 253.774 179.744 238.166" stroke="#B7B6AF" stroke-width="6" stroke-linecap="round"/>
<path d="M328.972 313.016C342.921 307.491 347.139 300.515 348.445 281.283" stroke="#B7B6AF" stroke-width="6" stroke-linecap="round"/>
<path d="M310.919 309.157C306.292 296.576 307.896 288.68 318.055 273.071" stroke="#B7B6AF" stroke-width="6" stroke-linecap="round"/>
<path d="M268.661 304.682C264.034 292.1 265.638 284.204 275.797 268.596" stroke="#B7B6AF" stroke-width="6" stroke-linecap="round"/>
<path d="M233.174 287.671C228.547 275.089 230.151 267.194 240.31 251.585" stroke="#B7B6AF" stroke-width="6" stroke-linecap="round"/>
<path d="M198.775 280.963C194.148 268.382 195.752 260.486 205.911 244.878" stroke="#B7B6AF" stroke-width="6" stroke-linecap="round"/>
<path d="M274.209 109.052C283.334 100.449 294.481 96.3703 307.331 96.6627C320.403 96.9602 335.429 101.813 351.515 111.601C383.651 131.152 418.514 169.492 448.2 224.804C458.662 248.696 470.263 272.214 480.942 294.003C491.693 315.937 501.469 336.039 508.397 353.283C515.427 370.787 519.075 384.326 518.479 393.417C518.191 397.801 516.963 400.314 515.523 401.796C514.138 403.223 511.59 404.684 506.526 405.195L502.864 405.566L500.886 408.626C498.203 412.775 496.424 413.52 495.844 413.662C495.284 413.799 493.73 413.892 490.558 411.839C487.445 409.825 483.776 406.383 479.377 401.46C475.025 396.591 470.242 390.603 464.833 383.729C443.338 356.411 412.95 316.276 366.677 287.631L366.354 287.431L366.006 287.27L361.94 285.378C277.422 245.717 246.795 210.413 240.864 181.857C234.953 153.403 253.139 128.918 274.209 109.052Z" fill="#8BCDE5" stroke="#0E6B96" stroke-width="12"/>
<g clip-path="url(#clip2_471_2540)">
<path d="M746.557 484.017C751.652 481.567 754.589 482.046 756.821 483.576C759.537 485.438 762.027 489.372 764.81 495.743C770.113 507.889 775.879 527.713 787.395 547.013L787.561 547.292L787.774 547.537C798.734 560.111 808.444 571.366 814.212 582.662C819.745 593.501 821.47 604.028 817.143 615.556C806.504 625.284 797.106 630.229 788.913 631.897C780.629 633.583 773.268 631.987 766.659 628.094C753.176 620.151 742.793 602.61 735.665 583.828L735.611 583.684L735.544 583.546C727.459 566.611 725.848 544.366 728.679 524.714C730.09 514.923 732.581 505.939 735.803 498.737C739.013 491.565 742.772 486.551 746.557 484.017Z" fill="#87CFE5" stroke="#0076B8" stroke-width="7"/>
<path d="M787.474 590.804C787.372 590.511 787.151 590.27 786.871 590.128C786.591 589.989 786.275 589.961 785.981 590.055C785.687 590.149 785.437 590.359 785.275 590.642C785.113 590.924 785.052 591.256 785.116 591.561C785.256 592.217 785.395 592.853 785.545 593.506C787.791 605.211 794.252 616.64 802.898 624.845C803.375 625.323 803.83 625.775 804.315 626.246C805.915 624.291 807.514 622.335 809.114 620.38C808.605 620 808.125 619.638 807.626 619.253C798.616 612.613 791.865 603.764 788.128 592.634C787.904 592.021 787.69 591.424 787.474 590.804Z" fill="#0074AB"/>
<path d="M765.439 603.742C765.309 603.456 765.062 603.232 764.764 603.113C764.466 602.996 764.142 602.993 763.851 603.113C763.56 603.232 763.322 603.464 763.176 603.764C763.031 604.064 762.99 604.406 763.074 604.71C763.23 605.263 763.379 605.785 763.541 606.337C766.168 616.096 771.257 625.592 777.203 633.627C777.532 634.089 777.846 634.53 778.177 634.989C778.766 635.811 779.639 636.322 780.64 636.377C781.638 636.434 782.682 636.032 783.508 635.291C784.333 634.549 784.862 633.537 784.945 632.509C785.029 631.478 784.66 630.515 783.953 629.802C783.565 629.409 783.195 629.035 782.811 628.643C775.889 621.792 770.2 614.326 766.131 605.24C765.894 604.733 765.671 604.253 765.439 603.742Z" fill="#007BA4"/>
</g>
<g clip-path="url(#clip3_471_2540)">
<path d="M626.286 707.117C608.281 703.073 597.293 706.525 590.214 712.637C582.881 718.969 578.862 728.889 576.481 739.489C574.02 750.446 572.98 759.078 578.682 766.89C584.642 775.057 598.771 783.442 630.597 790.59C652.447 795.498 668.389 797.984 680.083 798.664C691.852 799.349 698.855 798.172 703.149 796.19C707.142 794.348 709.128 791.659 710.488 788.028C711.205 786.112 711.736 783.949 712.253 781.456C712.739 779.113 713.269 776.161 713.884 773.425C714.648 770.02 713.048 764.78 707.872 757.912C702.875 751.282 695.254 744.088 686.137 737.169C667.858 723.298 644.465 711.2 626.286 707.117Z" fill="#87CFE5" stroke="#0178B2" stroke-width="9"/>
<path d="M583.998 728.317C563.842 767.861 595.377 780.118 633.097 788.59C670.817 797.062 692.784 798.921 699.684 793.296C713.683 790.291 660.287 783.373 633.625 774.31C550.691 755.683 612.548 690.707 583.998 728.317Z" fill="#31A7BA"/>
</g>
<path d="M585.5 366.001C687.975 366.001 771 448.407 771 550.001C771 651.595 687.975 734.001 585.5 734.001C483.025 734.001 400 651.595 400 550.001C400 448.407 483.025 366.001 585.5 366.001Z" fill="#86D0E3" stroke="#0C74AB" stroke-width="7"/>
<path d="M712.501 678.001C678.001 717.001 614.001 732.501 589.001 730.001C482.001 736.001 401.501 641.896 404.001 548.501C405.566 490.001 391.001 628.001 530.001 687.001C604.501 724.501 712.501 678.001 712.501 678.001Z" fill="#37B4CA"/>
<g clip-path="url(#clip4_471_2540)">
<path d="M547.406 468.448C586.151 477.382 594.106 460.198 598.196 494.942C600.504 514.546 599.968 519.003 594.428 530.548C588.967 541.932 579.167 549.483 563.473 551.33C540.229 554.067 518.668 528.704 514.496 493.269C510.325 457.833 508.66 459.514 547.406 468.448Z" fill="#FEFEFE" stroke="#0F79AB" stroke-width="6"/>
<path d="M584.695 514.091C593.412 510.364 597.429 500.208 593.666 491.409C589.903 482.609 579.786 478.498 571.069 482.225C562.352 485.953 558.336 496.108 562.098 504.908C565.861 513.707 575.978 517.819 584.695 514.091Z" fill="#2B2A28"/>
<path d="M645.437 424.538C657.478 423.942 668.958 430.437 677.756 441.749C686.551 453.057 692.506 469.012 693.384 486.742C694.374 506.714 691.816 523.025 685.179 534.461C678.651 545.709 667.982 552.58 651.819 553.38C639.781 553.977 628.685 547.609 620.265 536.384C611.836 525.147 606.217 509.169 605.323 491.105C604.428 473.04 608.44 456.585 615.717 444.57C622.986 432.568 633.399 425.135 645.437 424.538Z" fill="#FEFEFE" stroke="#0F79AB" stroke-width="6"/>
<path d="M647.038 494.899C648.133 504.204 642.244 512.544 633.187 513.611C624.129 514.677 615.899 507.999 614.803 498.694C613.708 489.39 620.163 480.983 629.22 479.916C639.647 480.824 645.898 485.212 647.038 494.899Z" fill="#2B2A28"/>
</g>
<path d="M604.025 577.292C599.468 562.336 601.161 553.051 609.504 535.348" stroke="#0082AA" stroke-width="7" stroke-linecap="round"/>
<path d="M617.387 551.937C628.497 549.244 635.263 537.817 632.499 526.414C629.736 515.012 618.489 507.951 607.379 510.644C596.269 513.337 589.503 524.763 592.267 536.166C595.03 547.569 606.277 554.63 617.387 551.937Z" fill="#ED6F7A"/>
<path opacity="0.77" d="M511.695 420.341L526.645 415.529L544.491 413.266L553.217 413.92L560.314 416.051L561.449 421.268L561.835 426.629L560.136 433.167L550.924 430.277L535.425 428.983L524.452 428.761L512.011 430.762L511.008 424.355L511.695 420.341Z" fill="#004F80"/>
<path opacity="0.7" d="M584.669 415.877L590.539 408.662L597.487 403.074L606.247 398.21L617.919 392.718L628.972 388.971L635.094 396.201L625.349 403.26L614.502 411.672L606.453 418.613L601.317 424.926L595.447 432.141L588.705 426.655L584.99 421.384L584.669 415.877Z" fill="#014C83"/>
<path d="M699.715 525.985C700.081 525.379 700.672 524.945 701.358 524.777C702.044 524.608 702.768 524.721 703.372 525.089C703.977 525.457 704.411 526.05 704.579 526.738C704.747 527.427 704.636 528.154 704.271 528.759C702.478 531.726 700.512 534.588 698.397 537.33C658.63 586.654 583.384 595.325 529.528 565.553C526.503 563.892 523.588 562.147 520.691 560.26C520.098 559.874 519.683 559.267 519.534 558.574C519.387 557.881 519.52 557.158 519.904 556.564C520.288 555.97 520.892 555.553 521.582 555.406C522.273 555.259 522.994 555.394 523.587 555.78C526.371 557.593 529.172 559.27 532.079 560.866C583.716 589.592 656.723 580.815 694.183 534.057C696.179 531.469 698.03 528.774 699.715 525.985Z" fill="#076FA2"/>
<path d="M529.643 567.676L529.725 567.96L529.695 568.243C528.687 577.777 556.628 602.433 578.272 630.437C605.544 647.457 595.432 646.684 625.532 646.02C654.856 636.001 657.837 630.919 666.249 618.558C670.492 612.321 676.75 596.913 678.385 592.227C678.932 590.661 684.427 555.68 684.899 554.402C680.91 555.776 660.634 569.376 655.199 570.874C632.779 577.051 633.318 580.204 606.264 581.31C577.183 578.154 574.759 586.584 561.852 577.256C558.611 574.913 534.476 571.255 532.248 569.515C531.231 568.719 531.196 571.926 530.431 571.345C530.452 571.419 529.621 567.599 529.643 567.676Z" fill="#D20223" stroke="#076FA2" stroke-width="6"/>
<path d="M624.79 641.802C635.642 642.712 645.182 638.374 655.324 629.139C665.144 620.198 672.326 604.992 666.191 602.267C649.534 604.475 635.357 608.585 620.705 637.297C619.369 640.306 618.83 642.501 624.79 641.802Z" fill="#FF1863"/>
<path d="M572.909 581.709L572.968 581.728L573.03 581.743L582.11 583.81L582.162 583.822L582.214 583.829L590.172 584.983L590.204 584.987L596.507 585.581L595.018 601.413L594.425 604.181L591.111 606.459L588.139 607.616L584.014 607.604L580.257 607.25L576.326 605.767L572.49 602.778L568.795 597.884L566.73 591.107L565.421 584.354L565.888 579.398L572.909 581.709Z" fill="#FEFEFE" stroke="#0875A4" stroke-width="3"/>
<path d="M621.314 584.401L621.252 584.409L621.19 584.411L610.903 584.785L610.85 584.787L610.797 584.785L601.918 584.397L601.885 584.395L594.783 583.727L593.121 601.388L593.194 604.583L596.373 607.794L599.398 609.686L603.913 610.53L608.091 610.923L612.701 610.116L617.52 607.64L622.574 603.055L626.232 596.085L629.055 588.994L629.589 583.315L621.314 584.401Z" fill="#FEFEFE" stroke="#0578A5" stroke-width="3"/>
<defs>
<clipPath id="clip0_471_2540">
<rect width="83.2007" height="147.837" fill="white" transform="matrix(0.962295 -0.272007 -0.272007 -0.962295 338.548 645.491)"/>
</clipPath>
<clipPath id="clip1_471_2540">
<rect width="168.937" height="94.2303" fill="white" transform="translate(328 687.703) rotate(-3.29268)"/>
</clipPath>
<clipPath id="clip2_471_2540">
<rect width="81.506" height="157.667" fill="white" transform="matrix(0.839137 -0.54392 0.512389 0.858753 688.784 517.05)"/>
</clipPath>
<clipPath id="clip3_471_2540">
<rect width="151" height="90" fill="white" transform="matrix(-0.975693 -0.219143 -0.219143 0.975693 729.829 725.248)"/>
</clipPath>
<clipPath id="clip4_471_2540">
<rect width="196" height="148.189" fill="white" transform="translate(503.825 422.778) rotate(-6.71438)"/>
</clipPath>
</defs>
</svg>
