<svg width="1100" height="850" viewBox="0 0 1100 850" fill="none" xmlns="http://www.w3.org/2000/svg">
<path d="M867.783 200.015C905.579 186.914 931.315 191.981 940.925 206.818C951.314 222.858 953.534 249.648 933.708 278.112C913.632 306.936 905.369 308.694 819.975 333.111L772.716 360.053L748.173 374.029C689.328 408.343 686.103 416.473 656.836 440.222C649.47 446.2 643.082 451.414 637.456 455.668C631.777 459.962 627.336 462.922 623.875 464.591C620.423 466.257 618.953 466.161 618.273 465.915C617.542 465.649 616.135 464.631 615.036 460.497L614.311 457.769L611.568 457.154C607.119 456.154 605.16 454.456 604.328 452.843C603.518 451.274 603.323 448.91 604.491 445.068C606.974 436.9 610.607 419.825 623.234 404.306C648.224 373.589 673.069 319.029 713.102 276.734C763.39 223.604 830.368 212.986 867.783 200.015Z" fill="#87CFE5" stroke="#0E6B96" stroke-width="12"/>
<g clip-path="url(#clip0_471_1482)">
<path d="M426.354 564.718C428.091 559.714 427.345 556.969 425.702 554.97C423.702 552.537 419.812 550.471 413.641 548.311C401.877 544.192 382.975 540.204 363.964 530.736L363.688 530.599L363.44 530.415C350.697 520.974 339.302 512.618 328.274 507.996C317.694 503.562 307.795 502.711 297.595 507.662C289.71 518.454 286.113 527.717 285.418 535.597C284.716 543.563 286.95 550.412 291.227 556.38C299.954 568.552 317.224 577.079 335.305 582.433L335.444 582.474L335.578 582.526C352.051 588.924 372.76 588.797 390.616 584.66C399.513 582.598 407.552 579.574 413.87 575.989C420.162 572.419 424.405 568.489 426.354 564.718Z" fill="#87CFE5" stroke="#0076B8" stroke-width="7"/>
<path d="M323.515 533.909C323.796 533.984 324.042 534.175 324.201 534.429C324.359 534.684 324.418 534.981 324.361 535.266C324.304 535.552 324.136 535.804 323.892 535.979C323.648 536.153 323.347 536.235 323.059 536.197C322.439 536.113 321.837 536.028 321.219 535.935C310.178 534.677 298.956 529.41 290.487 521.835C289.996 521.419 289.532 521.021 289.047 520.597C290.688 518.938 292.328 517.279 293.969 515.62C294.372 516.073 294.756 516.5 295.164 516.945C302.225 524.98 311.094 530.714 321.758 533.426C322.347 533.592 322.92 533.75 323.515 533.909Z" fill="#0074AB"/>
<path d="M313.842 555.727C314.12 555.829 314.352 556.046 314.492 556.319C314.631 556.592 314.667 556.899 314.587 557.183C314.507 557.467 314.317 557.71 314.055 557.87C313.793 558.03 313.482 558.095 313.192 558.037C312.665 557.93 312.167 557.829 311.642 557.716C302.358 555.953 293.063 551.841 285.029 546.809C284.568 546.532 284.129 546.267 283.671 545.988C282.851 545.492 282.29 544.703 282.135 543.76C281.979 542.819 282.243 541.8 282.842 540.964C283.442 540.128 284.322 539.552 285.263 539.397C286.206 539.241 287.134 539.519 287.865 540.136C288.268 540.474 288.651 540.796 289.054 541.131C296.094 547.175 303.576 552.006 312.387 555.183C312.879 555.37 313.346 555.545 313.842 555.727Z" fill="#007BA4"/>
</g>
<path d="M624.185 459.991L625.596 451.718L624.855 445.161L622.723 438.648L619.716 434.932L621.276 441.144L621.65 442.629L611.14 433.885L231.507 526.86L232.461 557.516L615.271 469.068L619.838 465.216L624.185 459.991Z" fill="#D3B256" stroke="#F1CD51"/>
<path d="M241.857 544.599L617.672 454.459" stroke="#F1CD51" stroke-width="21" stroke-linecap="round"/>
<path d="M237.484 557.28L234.599 526.593L186.193 537.996L199.453 488.647L195.387 480.912L189.546 476.053L175.967 466.387L157.544 452.147L140.781 448.535L141.88 457.609L179.115 488.589L179.484 497.056L175.06 505.343L136.683 477.22L128.049 480.916L128.125 487.507L167.55 520.309L165.902 534.169L158.948 542.527L120.792 517.852L113.495 519.94L115.324 529.621L151.463 559.69L151.128 569.746L146.169 578.676L127.725 570.402L110.058 558.967L103.589 562.288L105.952 571.326L136.302 596.577L136.255 604.698L132.001 612.039L115.26 602.461L97.0834 593.866L91.4162 596.222L93.4873 603.385L110.084 616.106L125.926 626.023L125.004 632.328L121.26 636.828L106.369 630.966L86.5373 619.906L79.0449 620.744L80.1185 627.62L106.402 649.489L134.72 651.835L177.816 571.824L237.484 557.28Z" fill="#B8BDC6"/>
<path d="M124.533 642.302C111.285 644.354 103.862 641.224 90.5653 628.184" stroke="#B7B6AF" stroke-width="6" stroke-linecap="round"/>
<path d="M193.397 496.664C190.735 481.899 184.729 476.387 166.133 471.311" stroke="#B7B6AF" stroke-width="6" stroke-linecap="round"/>
<path d="M186.051 513.601C172.804 515.653 165.38 512.523 152.084 499.483" stroke="#B7B6AF" stroke-width="6" stroke-linecap="round"/>
<path d="M173.323 554.144C160.076 556.196 152.652 553.066 139.356 540.025" stroke="#B7B6AF" stroke-width="6" stroke-linecap="round"/>
<path d="M149.643 585.575C136.395 587.628 128.972 584.497 115.675 571.457" stroke="#B7B6AF" stroke-width="6" stroke-linecap="round"/>
<path d="M136.278 617.973C123.031 620.025 115.607 616.895 102.31 603.855" stroke="#B7B6AF" stroke-width="6" stroke-linecap="round"/>
<path d="M233.988 207.553C241.371 197.414 251.575 191.351 264.259 189.27C277.162 187.152 292.824 189.152 310.439 195.807C345.629 209.099 386.962 240.355 426.335 289.247C441.022 310.801 456.759 331.777 471.272 351.225C485.883 370.801 499.197 388.756 509.184 404.428C519.321 420.335 525.402 432.97 526.492 442.014C527.017 446.377 526.274 449.074 525.132 450.795C524.033 452.453 521.799 454.359 516.915 455.795L513.385 456.834L512.004 460.207C510.132 464.779 508.521 465.839 507.977 466.086C507.452 466.323 505.942 466.701 502.446 465.269C499.015 463.863 494.774 461.156 489.543 457.128C484.368 453.145 478.563 448.141 471.98 442.382C445.817 419.494 408.551 385.649 357.791 366.025L357.437 365.888L357.065 365.795L352.719 364.684C262.339 341.283 225.729 312.23 214.635 285.257C203.581 258.379 216.942 230.962 233.988 207.553Z" fill="#8BCDE5" stroke="#0E6B96" stroke-width="12"/>
<g clip-path="url(#clip1_471_1482)">
<path d="M753.587 551.267C755.565 545.584 758.089 543.656 760.86 543.024C764.233 542.255 768.954 543.137 775.674 545.534C788.485 550.102 807.256 559.792 829.898 564.666L830.226 564.736L830.562 564.746C847.873 565.251 863.293 565.78 875.826 569.384C887.85 572.842 896.828 579.021 902.06 590.588C901.304 605.746 897.967 616.533 893.123 624.053C888.227 631.654 881.611 636.201 873.872 638.529C858.083 643.277 837.566 638.783 818.55 630.889L818.404 630.828L818.254 630.781C799.881 624.945 782.414 610.319 770.131 594.111C764.012 586.037 759.283 577.703 756.399 570.076C753.526 562.479 752.64 555.999 753.587 551.267Z" fill="#87CFE5" stroke="#0076B8" stroke-width="7"/>
<path d="M861.995 595.846C861.705 595.716 861.365 595.714 861.055 595.83C860.745 595.946 860.491 596.171 860.342 596.465C860.193 596.759 860.162 597.102 860.249 597.429C860.336 597.756 860.533 598.04 860.804 598.208C861.388 598.568 861.956 598.914 862.544 599.264C872.77 605.88 885.913 609.043 898.314 608.218C899.017 608.191 899.685 608.162 900.388 608.123C900.141 605.492 899.894 602.862 899.647 600.231C898.993 600.353 898.373 600.466 897.721 600.576C886.196 602.799 874.726 601.7 863.817 596.647C863.204 596.383 862.608 596.122 861.995 595.846Z" fill="#0074AB"/>
<path d="M855.153 622.098C854.848 621.995 854.501 622.026 854.194 622.171C853.888 622.318 853.646 622.566 853.518 622.876C853.39 623.186 853.384 623.535 853.495 623.862C853.607 624.188 853.826 624.464 854.112 624.616C854.632 624.889 855.124 625.148 855.647 625.415C864.731 630.349 875.444 633.193 885.724 634.333C886.305 634.408 886.86 634.48 887.441 634.552C888.478 634.684 889.498 634.373 890.279 633.64C891.06 632.909 891.538 631.816 891.607 630.649C891.675 629.482 891.326 628.351 890.635 627.554C889.943 626.754 888.965 626.352 887.92 626.39C887.346 626.409 886.798 626.428 886.227 626.445C876.092 626.904 866.42 625.972 856.761 622.633C856.215 622.454 855.699 622.284 855.153 622.098Z" fill="#007BA4"/>
</g>
<path d="M581.5 371C683.975 371 767 453.406 767 555C767 656.594 683.975 739 581.5 739C479.025 739 396 656.594 396 555C396 453.406 479.025 371 581.5 371Z" fill="#86D0E3" stroke="#0C74AB" stroke-width="7"/>
<path d="M708.5 683C674 722 610 737.5 585 735C478 741 397.5 646.895 400 553.5C401.566 495 387 633 526 692C600.5 729.5 708.5 683 708.5 683Z" fill="#37B4CA"/>
<path opacity="0.77" d="M544.722 459.918L559.237 458.318L575.841 459.571L583.594 461.782L589.567 465.034L589.51 469.983L588.745 474.924L585.852 480.548L578.123 476.216L564.38 472.167L554.506 469.931L542.844 469.443L543.267 463.437L544.722 459.918Z" fill="#004F80"/>
<path opacity="0.7" d="M610.328 464.345L615.653 458.374L621.764 453.775L629.328 449.802L639.342 445.334L648.732 442.318L653.331 448.43L644.809 454.229L635.289 461.147L628.179 466.866L623.519 472.09L618.195 478.06L612.97 473.401L610.237 468.954L610.328 464.345Z" fill="#014C83"/>
<g clip-path="url(#clip2_471_1482)">
<path d="M560.5 518.999C592.682 518.999 609.5 500.961 619.022 529.242C624.395 545.198 625.436 559.079 621.477 570.149C617.573 581.064 608.606 589.801 592.682 595.163C569.098 603.105 542.966 586.965 533.254 558.122C523.542 529.279 525.5 514.5 560.5 518.999Z" fill="#FEFEFE" stroke="#0F79AB" stroke-width="6"/>
<path d="M652.5 484.755C665.459 480.391 678.501 473 692.5 476C705.63 478.814 699.5 475.001 707.5 488.501C714.385 508.947 718.911 522.945 714.997 536.892C711.149 550.609 701.51 561.067 684.115 566.924C671.16 571.286 657.208 568.119 644.762 559.072C632.303 550.017 621.531 535.16 615.303 516.667C612.385 508.001 610.86 526.248 615.304 511.5C619.742 496.769 639.545 489.117 652.5 484.755Z" fill="#FEFEFE" stroke="#0F79AB" stroke-width="6"/>
<path d="M659.003 518.6C661.993 527.479 657.95 536.855 649.306 539.765C640.663 542.675 631.233 537.837 628.243 528.958C625.253 520.08 629.836 510.522 638.48 507.612C648.87 506.351 655.891 509.356 659.003 518.6Z" fill="#2B2A28"/>
<path d="M598.59 552.23C606.352 546.785 608.188 536.02 602.693 528.186C597.197 520.351 586.449 518.413 578.688 523.857C570.926 529.301 569.09 540.066 574.585 547.901C580.081 555.736 590.828 557.674 598.59 552.23Z" fill="#2B2A28"/>
</g>
<path d="M531.489 597.945L531.623 598.312L531.646 598.701C532.424 611.804 564.5 639.5 591 673C621 690.5 616 692 645.5 685C672.5 665.5 696.451 646.329 702.435 627.899C705.454 618.601 706.584 610.059 707.323 603.387C707.57 601.158 707.782 599.069 708.009 597.245C704.337 599.912 699.887 602.961 694.816 606.088C673.897 618.99 641.786 633.667 610.249 627.796C581.042 629.42 558.074 616.677 543.64 606.673C540.015 604.16 536.91 601.807 534.395 599.904C533.246 599.034 532.247 598.281 531.387 597.65C531.421 597.746 531.453 597.845 531.489 597.945Z" fill="#D20223" stroke="#076FA2" stroke-width="6"/>
<path d="M709.081 588.592C709.524 588.04 710.168 587.689 710.87 587.614C711.572 587.539 712.276 587.747 712.825 588.192C713.375 588.637 713.725 589.284 713.8 589.988C713.875 590.693 713.668 591.398 713.225 591.95C711.052 594.65 708.722 597.224 706.259 599.659C660.259 643.228 584.529 641.769 535.133 605.068C532.357 603.018 529.702 600.899 527.082 598.642C526.546 598.18 526.216 597.524 526.161 596.817C526.108 596.111 526.337 595.412 526.797 594.874C527.256 594.337 527.911 594.005 528.614 593.951C529.319 593.898 530.015 594.127 530.551 594.589C533.068 596.758 535.619 598.794 538.287 600.764C585.624 636.131 659.149 637.187 702.52 595.852C704.844 593.554 707.038 591.131 709.081 588.592Z" fill="#076FA2"/>
<path d="M654.138 628.414L654.078 628.432L654.017 628.443L643.907 630.381L643.855 630.391L643.802 630.397L634.969 631.366L634.935 631.37L627.814 631.792L628.864 649.5L629.423 652.646L633.055 655.336L636.333 656.744L640.923 656.89L645.112 656.642L649.546 655.141L653.931 651.961L658.227 646.658L660.779 639.212L662.488 631.773L662.151 626.08L654.138 628.414Z" fill="#FEFEFE" stroke="#0578A5" stroke-width="3"/>
<path d="M602.107 631.284L602.168 631.294L602.231 631.299L611.521 631.958L611.574 631.962L611.627 631.961L619.667 631.888L619.7 631.888L626.02 631.514L626.96 647.388L626.796 650.214L623.869 652.971L621.108 654.567L617.029 655.184L613.262 655.407L609.151 654.54L604.904 652.171L600.507 647.898L597.433 641.514L595.11 635.039L594.815 630.07L602.107 631.284Z" fill="#FEFEFE" stroke="#0875A4" stroke-width="3"/>
<path d="M572.537 646.434C576.997 655.851 593.039 671.913 607.73 680.732C623.735 686.211 621.51 689.532 623.219 682.861C616.548 665.981 608.243 651.901 570.854 640.486C566.985 639.495 569.564 640.156 572.537 646.434Z" fill="#FF1863"/>
<path d="M622.459 627.366C633.2 608.557 635.674 595.071 635.648 567.312" stroke="#0082AA" stroke-width="7" stroke-linecap="round"/>
<path d="M641.323 587.671C651.792 584.146 657.202 572.155 653.408 560.887C649.614 549.619 638.052 543.343 627.584 546.868C617.116 550.392 611.705 562.384 615.499 573.652C619.293 584.919 630.855 591.196 641.323 587.671Z" fill="#ED6F7A"/>
<g clip-path="url(#clip3_471_1482)">
<path d="M461 719C479.453 719 489.418 724.777 494.985 732.291C500.752 740.076 502.5 750.636 502.5 761.5C502.5 772.729 501.623 781.38 494.348 787.753C486.743 794.415 471.12 799.5 438.5 799.5C416.106 799.5 400.008 798.432 388.449 796.533C376.815 794.622 370.241 791.939 366.485 789.064C362.993 786.392 361.644 783.333 361.114 779.492C360.834 777.466 360.79 775.239 360.831 772.693C360.871 770.301 361 767.305 361 764.5C361 761.01 363.71 756.248 370.265 750.682C376.594 745.307 385.607 739.959 396.018 735.206C416.892 725.677 442.368 719 461 719Z" fill="#87CFE5" stroke="#0178B2" stroke-width="9"/>
<path d="M497.614 748.952C508.614 791.952 475.16 797 436.5 797C397.84 797 376 794 370.5 787C357.5 781 411.114 785.952 439.114 782.952C524.114 782.952 478 706 497.614 748.952Z" fill="#31A7BA"/>
</g>
<g clip-path="url(#clip4_471_1482)">
<path d="M636.756 722.712C618.824 718.358 607.777 721.621 600.595 727.609C593.154 733.814 588.964 743.663 586.4 754.221C583.751 765.133 582.562 773.747 588.128 781.656C593.947 789.924 607.929 798.551 639.628 806.247C661.39 811.531 677.286 814.291 688.967 815.173C700.722 816.061 707.744 815.004 712.072 813.097C716.096 811.324 718.129 808.669 719.55 805.062C720.3 803.159 720.869 801.006 721.429 798.522C721.955 796.188 722.536 793.246 723.198 790.52C724.021 787.129 722.512 781.862 717.455 774.906C712.572 768.19 705.076 760.866 696.08 753.791C678.043 739.607 654.862 727.107 636.756 722.712Z" fill="#87CFE5" stroke="#0178B2" stroke-width="9"/>
<path d="M594.109 743.18C573.274 782.371 604.593 795.17 642.162 804.291C679.73 813.412 701.661 815.649 708.658 810.144C722.706 807.381 669.437 799.543 642.936 790.022C560.335 769.968 623.303 706.068 594.109 743.18Z" fill="#31A7BA"/>
</g>
<defs>
<clipPath id="clip0_471_1482">
<rect width="76" height="149" fill="white" transform="matrix(0.445809 -0.895128 -0.895128 -0.445809 401.811 621.854)"/>
</clipPath>
<clipPath id="clip1_471_1482">
<rect width="86.3952" height="162.483" fill="white" transform="translate(735 619.461) rotate(-77.8518)"/>
</clipPath>
<clipPath id="clip2_471_1482">
<rect width="196" height="148.189" fill="white" transform="translate(504 477.548) rotate(-18.6099)"/>
</clipPath>
<clipPath id="clip3_471_1482">
<rect width="151" height="90" fill="white" transform="translate(356 714)"/>
</clipPath>
<clipPath id="clip4_471_1482">
<rect width="151" height="90" fill="white" transform="matrix(-0.97177 -0.235931 -0.235931 0.97177 739.971 742.626)"/>
</clipPath>
</defs>
</svg>
