<svg width="1100" height="850" viewBox="0 0 1100 850" fill="none" xmlns="http://www.w3.org/2000/svg">
<path d="M773.075 129.675C806.791 108.15 833 107.098 845.795 119.296C859.627 132.482 868.011 158.023 855.342 190.315C842.514 223.015 834.887 226.645 757.504 270.237L717.8 307.424L697.176 326.721C647.917 373.77 646.669 382.428 623.722 412.327C617.947 419.853 612.945 426.409 608.462 431.854C603.937 437.35 600.304 441.261 597.326 443.688C594.356 446.111 592.904 446.359 592.185 446.278C591.412 446.189 589.807 445.526 587.778 441.761L586.439 439.276L583.628 439.315C579.069 439.376 576.769 438.18 575.584 436.805C574.432 435.467 573.693 433.213 573.936 429.204C574.453 420.683 574.019 403.232 582.693 385.203C599.862 349.52 611.347 290.68 640.456 240.239C677.021 176.877 739.698 150.986 773.075 129.675Z" fill="#87CFE5" stroke="#0E6B96" stroke-width="12"/>
<g clip-path="url(#clip0_471_1537)">
<path d="M421.718 582.361C424.612 577.924 424.552 575.08 423.44 572.743C422.086 569.9 418.811 566.956 413.344 563.368C402.924 556.53 385.543 548.096 369.382 534.316L369.148 534.117L368.951 533.879C358.866 521.639 349.825 510.778 340.241 503.63C331.045 496.773 321.644 493.556 310.55 495.897C300.292 504.465 294.565 512.585 291.988 520.064C289.383 527.625 289.896 534.811 292.605 541.635C298.134 555.554 312.834 568 329.086 577.562L329.211 577.635L329.328 577.718C343.769 587.904 363.896 592.784 382.222 593.081C391.353 593.229 399.885 592.235 406.881 590.283C413.85 588.338 418.916 585.549 421.718 582.361Z" fill="#87CFE5" stroke="#0076B8" stroke-width="7"/>
<path d="M329.364 527.627C329.618 527.768 329.811 528.012 329.904 528.298C329.995 528.583 329.98 528.886 329.856 529.149C329.733 529.412 329.509 529.616 329.229 529.727C328.95 529.837 328.639 529.844 328.369 529.737C327.787 529.506 327.223 529.279 326.646 529.039C316.235 525.152 306.618 517.33 300.229 507.934C299.853 507.412 299.499 506.914 299.131 506.385C301.123 505.171 303.116 503.957 305.109 502.744C305.391 503.281 305.66 503.789 305.948 504.318C310.86 513.821 318.082 521.527 327.775 526.734C328.306 527.038 328.825 527.33 329.364 527.627Z" fill="#0074AB"/>
<path d="M314.708 546.464C314.953 546.63 315.126 546.897 315.196 547.196C315.264 547.494 315.225 547.8 315.079 548.057C314.933 548.313 314.69 548.503 314.397 548.595C314.104 548.687 313.786 548.674 313.519 548.548C313.034 548.318 312.575 548.099 312.092 547.862C303.509 543.91 295.482 537.675 288.902 530.851C288.522 530.471 288.159 530.108 287.782 529.726C287.106 529.047 286.752 528.146 286.83 527.193C286.906 526.242 287.407 525.318 288.191 524.651C288.975 523.984 289.968 523.638 290.919 523.715C291.872 523.792 292.704 524.286 293.266 525.061C293.575 525.486 293.869 525.891 294.178 526.313C299.551 533.879 305.645 540.373 313.427 545.585C313.86 545.884 314.27 546.168 314.708 546.464Z" fill="#007BA4"/>
</g>
<path d="M621.129 585.359L625.823 578.401L627.848 572.121L628.588 565.308L627.378 560.683L626.241 566.986L625.97 568.494L619.994 556.197L235.764 484.556L224.007 512.883L609.268 589.958L615.016 588.33L621.129 585.359Z" fill="#D3B256" stroke="#F1CD51"/>
<path d="M237.889 504.982L617.473 577.635" stroke="#F1CD51" stroke-width="21" stroke-linecap="round"/>
<path d="M228.681 514.736L238.692 485.585L189.886 476.038L222.295 436.532L221.775 427.808L218.455 420.974L210.062 406.573L199.14 386.01L185.352 375.814L182.616 384.535L203.786 428.102L200.635 435.969L193.191 441.698L169.803 400.265L160.413 400.076L157.768 406.113L180.183 452.243L172.972 464.194L163.194 468.946L138.587 430.745L131.078 429.642L128.757 439.217L149.304 481.503L144.856 490.528L136.659 496.623L123.26 481.486L111.872 463.789L104.609 464.151L103.04 473.361L120.295 508.871L116.908 516.252L110.008 521.188L98.6972 505.565L85.6744 490.246L79.5397 490.06L78.4767 497.44L88.361 515.868L98.712 531.429L95.2754 536.795L90.0098 539.353L78.855 527.879L65.3391 509.631L58.1667 507.309L56.3124 514.018L71.2559 544.77L96.094 558.572L168.319 503.413L228.681 514.736Z" fill="#B8BDC6"/>
<path d="M90.7373 545.689C77.8204 542.104 72.3451 536.193 65.5999 518.834" stroke="#B7B6AF" stroke-width="6" stroke-linecap="round"/>
<path d="M213.475 441.344C217.13 426.793 213.927 419.296 199.072 407.012" stroke="#B7B6AF" stroke-width="6" stroke-linecap="round"/>
<path d="M199.805 453.751C186.888 450.165 181.413 444.255 174.668 426.896" stroke="#B7B6AF" stroke-width="6" stroke-linecap="round"/>
<path d="M171.508 485.453C158.591 481.867 153.116 475.957 146.37 458.598" stroke="#B7B6AF" stroke-width="6" stroke-linecap="round"/>
<path d="M136.983 504.341C124.066 500.755 118.591 494.844 111.845 477.485" stroke="#B7B6AF" stroke-width="6" stroke-linecap="round"/>
<path d="M111.46 528.358C98.5436 524.773 93.0682 518.862 86.323 501.503" stroke="#B7B6AF" stroke-width="6" stroke-linecap="round"/>
<path d="M340.169 128.919C350.533 121.855 362.182 119.579 374.827 121.886C387.69 124.234 401.766 131.387 416.115 143.58C444.781 167.937 473.188 211.278 493.816 270.567C500.395 295.805 508.156 320.854 515.28 344.051C522.452 367.401 528.949 388.789 533.081 406.908C537.275 425.298 538.751 439.242 536.733 448.126C535.76 452.411 534.153 454.7 532.498 455.937C530.906 457.129 528.16 458.172 523.078 457.881L519.404 457.672L516.969 460.383C513.668 464.059 511.794 464.515 511.199 464.564C510.624 464.611 509.075 464.459 506.265 461.934C503.507 459.456 500.425 455.48 496.854 449.927C493.321 444.435 489.537 437.77 485.276 430.132C468.339 399.775 444.633 355.365 403.435 319.807L403.148 319.558L402.829 319.345L399.11 316.837C321.873 264.391 297.173 224.715 295.801 195.582C294.434 166.552 316.241 145.228 340.169 128.919Z" fill="#8BCDE5" stroke="#0E6B96" stroke-width="12"/>
<g clip-path="url(#clip1_471_1537)">
<path d="M753.587 551.267C755.565 545.584 758.09 543.656 760.861 543.024C764.233 542.255 768.954 543.137 775.675 545.534C788.485 550.102 807.256 559.792 829.898 564.666L830.226 564.736L830.563 564.746C847.873 565.251 863.293 565.78 875.826 569.384C887.85 572.842 896.828 579.021 902.061 590.588C901.304 605.746 897.967 616.533 893.124 624.053C888.227 631.654 881.612 636.201 873.872 638.529C858.084 643.277 837.567 638.783 818.55 630.889L818.404 630.828L818.254 630.781C799.881 624.945 782.414 610.319 770.132 594.111C764.012 586.037 759.283 577.703 756.399 570.076C753.527 562.479 752.64 555.999 753.587 551.267Z" fill="#87CFE5" stroke="#0076B8" stroke-width="7"/>
<path d="M861.996 595.846C861.706 595.716 861.366 595.714 861.055 595.83C860.746 595.946 860.491 596.171 860.343 596.465C860.194 596.759 860.162 597.102 860.249 597.429C860.336 597.756 860.534 598.04 860.804 598.208C861.388 598.568 861.956 598.914 862.545 599.264C872.771 605.88 885.914 609.043 898.315 608.218C899.018 608.191 899.685 608.162 900.389 608.123C900.142 605.492 899.895 602.862 899.648 600.231C898.994 600.353 898.374 600.466 897.722 600.576C886.197 602.799 874.727 601.7 863.818 596.647C863.204 596.383 862.609 596.122 861.996 595.846Z" fill="#0074AB"/>
<path d="M855.154 622.098C854.848 621.995 854.501 622.026 854.194 622.171C853.888 622.318 853.646 622.566 853.518 622.876C853.39 623.186 853.384 623.535 853.496 623.862C853.607 624.188 853.827 624.464 854.112 624.616C854.632 624.889 855.124 625.148 855.648 625.415C864.732 630.349 875.445 633.193 885.724 634.333C886.306 634.408 886.86 634.48 887.442 634.552C888.479 634.684 889.498 634.373 890.279 633.64C891.06 632.909 891.539 631.816 891.607 630.649C891.675 629.482 891.326 628.351 890.636 627.554C889.944 626.754 888.966 626.352 887.92 626.39C887.346 626.409 886.799 626.428 886.228 626.445C876.093 626.904 866.42 625.972 856.762 622.633C856.216 622.454 855.699 622.284 855.154 622.098Z" fill="#007BA4"/>
</g>
<path d="M581.5 371C683.975 371 767 453.406 767 555C767 656.594 683.975 739 581.5 739C479.025 739 396 656.594 396 555C396 453.406 479.025 371 581.5 371Z" fill="#86D0E3" stroke="#0C74AB" stroke-width="7"/>
<path d="M708.5 683C674 722 610 737.5 585 735C478 741 397.5 646.895 400 553.5C401.566 495 387 633 526 692C600.5 729.5 708.5 683 708.5 683Z" fill="#37B4CA"/>
<path opacity="0.77" d="M544.722 459.918L559.237 458.318L575.841 459.571L583.594 461.782L589.567 465.034L589.51 469.983L588.745 474.924L585.852 480.548L578.123 476.216L564.38 472.167L554.506 469.931L542.844 469.443L543.267 463.437L544.722 459.918Z" fill="#004F80"/>
<path opacity="0.7" d="M610.328 464.345L615.653 458.374L621.764 453.775L629.328 449.802L639.342 445.334L648.732 442.318L653.331 448.43L644.809 454.229L635.289 461.147L628.179 466.866L623.519 472.09L618.195 478.06L612.97 473.401L610.237 468.954L610.328 464.345Z" fill="#014C83"/>
<g clip-path="url(#clip2_471_1537)">
<path d="M560.5 518.999C592.682 518.999 609.5 500.961 619.022 529.242C624.395 545.198 625.436 559.079 621.477 570.149C617.573 581.064 608.606 589.801 592.682 595.163C569.098 603.105 542.966 586.965 533.254 558.122C523.542 529.279 525.5 514.5 560.5 518.999Z" fill="#FEFEFE" stroke="#0F79AB" stroke-width="6"/>
<path d="M652.5 484.755C665.459 480.391 678.501 473 692.5 476C705.63 478.814 699.5 475.001 707.5 488.501C714.385 508.947 718.911 522.945 714.997 536.892C711.149 550.609 701.51 561.067 684.115 566.924C671.16 571.286 657.208 568.119 644.762 559.072C632.303 550.017 621.531 535.16 615.303 516.667C612.385 508.001 610.86 526.248 615.304 511.5C619.742 496.769 639.545 489.117 652.5 484.755Z" fill="#FEFEFE" stroke="#0F79AB" stroke-width="6"/>
<path d="M659.003 518.6C661.993 527.479 657.95 536.855 649.306 539.765C640.663 542.675 631.233 537.837 628.243 528.958C625.253 520.08 629.836 510.522 638.48 507.612C648.87 506.351 655.891 509.356 659.003 518.6Z" fill="#2B2A28"/>
<path d="M598.59 552.23C606.352 546.785 608.188 536.02 602.693 528.186C597.197 520.351 586.449 518.413 578.688 523.857C570.926 529.301 569.09 540.066 574.585 547.901C580.081 555.736 590.828 557.674 598.59 552.23Z" fill="#2B2A28"/>
</g>
<path d="M713.844 597.945L713.71 598.312L713.687 598.701C712.91 611.804 680.833 639.5 654.333 673C624.333 690.5 629.333 692 599.833 685C572.833 665.5 548.882 646.329 542.899 627.899C539.88 618.601 538.75 610.059 538.01 603.387C537.763 601.158 537.552 599.069 537.325 597.245C540.996 599.912 545.447 602.961 550.517 606.088C571.436 618.99 603.547 633.667 635.084 627.796C664.291 629.42 687.26 616.677 701.694 606.673C705.319 604.16 708.424 601.807 710.939 599.904C712.087 599.034 713.086 598.281 713.947 597.65C713.913 597.746 713.88 597.845 713.844 597.945Z" fill="#D20223" stroke="#076FA2" stroke-width="6"/>
<path d="M536.253 588.592C535.809 588.04 535.166 587.689 534.463 587.614C533.761 587.539 533.058 587.747 532.508 588.192C531.959 588.637 531.608 589.284 531.533 589.988C531.458 590.693 531.665 591.398 532.109 591.95C534.282 594.65 536.612 597.224 539.074 599.659C585.075 643.228 660.805 641.769 710.2 605.068C712.977 603.018 715.632 600.899 718.251 598.642C718.787 598.18 719.118 597.524 719.172 596.817C719.226 596.111 718.997 595.412 718.537 594.874C718.077 594.337 717.423 594.005 716.719 593.951C716.015 593.898 715.318 594.127 714.782 594.589C712.266 596.758 709.714 598.794 707.046 600.764C659.71 636.131 586.185 637.187 542.813 595.852C540.49 593.554 538.295 591.131 536.253 588.592Z" fill="#076FA2"/>
<path d="M591.196 628.414L591.255 628.432L591.316 628.443L601.426 630.381L601.479 630.391L601.531 630.397L610.365 631.366L610.399 631.37L617.519 631.792L616.47 649.5L615.91 652.646L612.279 655.336L609.001 656.744L604.41 656.89L600.222 656.642L595.788 655.141L591.403 651.961L587.107 646.658L584.554 639.212L582.845 631.773L583.183 626.08L591.196 628.414Z" fill="#FEFEFE" stroke="#0578A5" stroke-width="3"/>
<path d="M643.227 631.284L643.166 631.294L643.102 631.299L633.813 631.958L633.759 631.962L633.707 631.961L625.667 631.888L625.634 631.888L619.314 631.514L618.373 647.388L618.537 650.214L621.464 652.971L624.226 654.567L628.305 655.184L632.071 655.407L636.182 654.54L640.429 652.171L644.827 647.898L647.901 641.514L650.224 635.039L650.518 630.07L643.227 631.284Z" fill="#FEFEFE" stroke="#0875A4" stroke-width="3"/>
<path d="M672.796 646.434C668.337 655.851 652.294 671.913 637.603 680.732C621.599 686.211 623.824 689.532 622.115 682.861C628.786 665.981 637.09 651.901 674.479 640.486C678.349 639.495 675.769 640.156 672.796 646.434Z" fill="#FF1863"/>
<path d="M622.459 627.366C633.2 608.557 635.674 595.071 635.648 567.312" stroke="#0082AA" stroke-width="7" stroke-linecap="round"/>
<path d="M641.323 587.671C651.792 584.146 657.202 572.155 653.408 560.887C649.614 549.619 638.052 543.343 627.584 546.868C617.116 550.392 611.705 562.384 615.499 573.652C619.293 584.919 630.855 591.196 641.323 587.671Z" fill="#ED6F7A"/>
<g clip-path="url(#clip3_471_1537)">
<path d="M461 719C479.453 719 489.418 724.777 494.985 732.291C500.752 740.076 502.5 750.636 502.5 761.5C502.5 772.729 501.623 781.38 494.348 787.753C486.743 794.415 471.12 799.5 438.5 799.5C416.106 799.5 400.008 798.432 388.449 796.533C376.815 794.622 370.241 791.939 366.485 789.064C362.993 786.392 361.644 783.333 361.114 779.492C360.834 777.466 360.79 775.239 360.831 772.693C360.871 770.301 361 767.305 361 764.5C361 761.01 363.71 756.248 370.265 750.682C376.594 745.307 385.607 739.959 396.018 735.206C416.892 725.677 442.368 719 461 719Z" fill="#87CFE5" stroke="#0178B2" stroke-width="9"/>
<path d="M497.614 748.952C508.614 791.952 475.16 797 436.5 797C397.84 797 376 794 370.5 787C357.5 781 411.114 785.952 439.114 782.952C524.114 782.952 478 706 497.614 748.952Z" fill="#31A7BA"/>
</g>
<g clip-path="url(#clip4_471_1537)">
<path d="M636.756 722.712C618.824 718.358 607.777 721.621 600.595 727.609C593.154 733.814 588.964 743.663 586.4 754.221C583.751 765.133 582.562 773.747 588.128 781.656C593.947 789.924 607.929 798.551 639.628 806.247C661.39 811.531 677.286 814.291 688.967 815.173C700.722 816.061 707.744 815.004 712.072 813.097C716.096 811.324 718.129 808.669 719.55 805.062C720.3 803.159 720.869 801.006 721.429 798.522C721.955 796.188 722.536 793.246 723.198 790.52C724.021 787.129 722.512 781.862 717.455 774.906C712.572 768.19 705.076 760.866 696.08 753.791C678.043 739.607 654.862 727.107 636.756 722.712Z" fill="#87CFE5" stroke="#0178B2" stroke-width="9"/>
<path d="M594.109 743.18C573.274 782.371 604.593 795.17 642.162 804.291C679.73 813.412 701.661 815.649 708.658 810.144C722.706 807.381 669.437 799.543 642.936 790.022C560.335 769.968 623.303 706.068 594.109 743.18Z" fill="#31A7BA"/>
</g>
<defs>
<clipPath id="clip0_471_1537">
<rect width="76" height="149" fill="white" transform="matrix(0.648794 -0.760964 -0.760964 -0.648794 384.103 631.879)"/>
</clipPath>
<clipPath id="clip1_471_1537">
<rect width="86.3952" height="162.483" fill="white" transform="translate(735 619.461) rotate(-77.8518)"/>
</clipPath>
<clipPath id="clip2_471_1537">
<rect width="196" height="148.189" fill="white" transform="translate(504 477.548) rotate(-18.6099)"/>
</clipPath>
<clipPath id="clip3_471_1537">
<rect width="151" height="90" fill="white" transform="translate(356 714)"/>
</clipPath>
<clipPath id="clip4_471_1537">
<rect width="151" height="90" fill="white" transform="matrix(-0.97177 -0.235931 -0.235931 0.97177 739.971 742.626)"/>
</clipPath>
</defs>
</svg>
