<svg width="1100" height="850" viewBox="0 0 1100 850" fill="none" xmlns="http://www.w3.org/2000/svg">
<g clip-path="url(#clip0_471_2913)">
<path d="M779.934 76.0134C811.714 51.7194 837.741 48.4604 851.519 59.5349C866.414 71.507 876.924 96.249 867.025 129.495C857.002 163.161 849.708 167.421 776.279 217.388L739.854 257.792L720.932 278.76C675.818 329.798 675.306 338.53 654.964 370.259C649.844 378.245 645.413 385.2 641.405 391.004C637.36 396.862 634.07 401.065 631.308 403.736C628.552 406.4 627.126 406.77 626.404 406.749C625.626 406.726 623.971 406.201 621.631 402.621L620.087 400.257L617.289 400.533C612.751 400.979 610.359 399.982 609.062 398.711C607.802 397.475 606.875 395.291 606.779 391.276C606.575 382.742 604.67 365.39 611.792 346.693C625.889 309.689 632.368 250.09 657.117 197.373C688.206 131.152 748.474 100.064 779.934 76.0134Z" fill="#87CFE5" stroke="#0E6B96" stroke-width="12"/>
<g clip-path="url(#clip1_471_2913)">
<path d="M665.756 669.712C647.824 665.358 636.777 668.621 629.594 674.609C622.153 680.814 617.963 690.663 615.4 701.221C612.751 712.133 611.562 720.747 617.128 728.656C622.947 736.924 636.929 745.551 668.628 753.247C690.39 758.531 706.286 761.291 717.966 762.173C729.722 763.061 736.744 762.004 741.072 760.097C745.096 758.324 747.128 755.669 748.55 752.062C749.3 750.159 749.869 748.006 750.428 745.522C750.955 743.188 751.536 740.246 752.197 737.52C753.021 734.129 751.511 728.862 746.454 721.906C741.572 715.19 734.076 707.866 725.08 700.791C707.043 686.607 683.862 674.107 665.756 669.712Z" fill="#87CFE5" stroke="#0178B2" stroke-width="9"/>
<path d="M623.109 690.18C602.274 729.37 633.593 742.169 671.162 751.29C708.73 760.411 730.661 762.649 737.658 757.144C751.706 754.38 698.437 746.543 671.936 737.022C589.335 716.968 652.303 653.068 623.109 690.18Z" fill="#31A7BA"/>
</g>
<path d="M546.635 57.4206C523.419 27.8334 414.959 253.009 376.64 255.696C296.886 261.288 335.32 85.2326 420.527 66.1627C693.55 5.05802 426.075 139.858 483.014 203.568L483.127 203.695L483.232 203.825C517.758 246.844 527.162 291.792 533.368 322.938C534.93 330.777 536.258 337.594 537.72 343.393C539.196 349.246 540.696 353.582 542.415 356.576C544.13 359.562 545.557 360.346 546.391 360.587C547.29 360.845 549.457 361.035 554.038 359.162L557.061 357.926L560.102 359.125C565.034 361.069 568.294 361.164 570.451 360.664C572.549 360.178 574.773 358.859 577.029 355.864C581.828 349.497 585.105 337.793 586.991 321.163C590.724 288.25 588.62 241.229 588.62 192.687C588.62 131.711 569.617 86.7108 546.635 57.4206Z" fill="#87CFE5" stroke="#0E6B96" stroke-width="12"/>
<path d="M454.439 65.514C476.605 58.9772 543.305 55.1746 532.139 55.4082C599.139 82.4097 456.14 151.257 430.521 160.709C368.299 161.252 422.964 137.781 408.217 108.805C393.47 79.8291 428.82 74.9659 454.439 65.514Z" fill="#87CFE5"/>
<path d="M533.391 92.0772C542.98 87.4489 547.917 97.452 542.821 98.3558C556.45 103.242 501.718 175.414 490.799 181.648C462.335 186.331 469.915 157.217 460.639 144.745C451.363 132.273 522.473 98.3116 533.391 92.0772Z" fill="#87CFE5"/>
<g clip-path="url(#clip2_471_2913)">
<path d="M486.189 641.817C504.513 643.997 513.802 650.272 518.541 657.561C523.45 665.112 524.077 674.637 522.937 684.224C521.758 694.134 519.978 701.664 512.085 706.428C503.834 711.409 487.787 714.051 455.396 710.197C433.158 707.551 417.284 704.707 406.006 701.666C394.655 698.605 388.408 695.46 384.98 692.48C381.793 689.709 380.775 686.85 380.651 683.398C380.586 681.577 380.776 679.607 381.085 677.365C381.375 675.259 381.819 672.63 382.113 670.155C382.479 667.075 385.67 663.193 392.763 659.055C399.612 655.061 409.123 651.405 419.961 648.441C441.689 642.499 467.688 639.616 486.189 641.817Z" fill="#87CFE5" stroke="#0178B2" stroke-width="9"/>
<path d="M519.402 672.574C525.81 711.819 492.061 712.322 453.671 707.754C415.282 703.187 393.91 697.959 389.184 691.132C376.905 684.302 429.623 695.005 457.742 695.666C542.147 705.708 504.435 632.354 519.402 672.574Z" fill="#31A7BA"/>
</g>
<path d="M609.357 324C711.832 324 794.857 406.406 794.857 508C794.857 609.594 711.832 692 609.357 692C506.882 692 423.857 609.594 423.857 508C423.857 406.406 506.882 324 609.357 324Z" fill="#86D0E3" stroke="#0C74AB" stroke-width="7"/>
<path d="M736.357 636C701.857 675 637.857 690.5 612.857 688C505.857 694 425.357 599.895 427.857 506.5C429.423 448 414.857 586 553.857 645C628.357 682.5 736.357 636 736.357 636Z" fill="#37B4CA"/>
<path d="M568.401 571.156C563.674 557.214 565.229 548.71 573.273 532.666" stroke="#0082AA" stroke-width="7" stroke-linecap="round"/>
<path d="M696.442 544.65C696.944 544.188 697.652 543.926 698.408 543.921C699.164 543.915 699.907 544.168 700.473 544.623C701.04 545.078 701.384 545.698 701.429 546.346C701.474 546.994 701.217 547.618 700.714 548.08C698.251 550.344 695.626 552.477 692.867 554.473C641.408 590.009 560.341 581.876 509.248 544.023C506.376 541.907 503.637 539.74 500.942 537.449C500.391 536.98 500.07 536.353 500.047 535.705C500.025 535.057 500.305 534.441 500.824 533.993C501.344 533.545 502.061 533.301 502.818 533.316C503.575 533.33 504.31 533.602 504.861 534.07C507.45 536.271 510.082 538.354 512.842 540.387C561.795 576.841 640.519 584.408 689.05 550.671C691.654 548.788 694.126 546.778 696.442 544.65Z" fill="#076FA2"/>
<path d="M511.764 539.667L511.859 539.868L511.82 540.048C510.529 546.123 517.122 546.727 542.5 569C574.661 585.079 572.309 583.517 608 588.5C642.867 587.204 663.107 604.246 673.204 597.648C678.298 594.319 685.873 585.335 687.859 582.554C688.522 581.625 695.391 559.658 695.963 558.904C691.219 559.088 667.044 564.363 660.586 564.367C633.943 564.385 634.55 566.551 602.465 562.407C568.02 555.1 565.06 560.196 549.853 551.751C546.033 549.63 517.457 542.885 514.834 541.342C513.636 540.637 513.562 542.735 512.661 542.216C512.685 542.268 511.738 539.612 511.764 539.667Z" fill="#D20223" stroke="#076FA2" stroke-width="6"/>
<path d="M628.491 605.446C639.558 609.017 653.593 604.754 665.391 598.948C676.815 593.325 681.337 589.446 683.837 583.446C670.337 587.446 650.837 583.446 628.491 597.586C626.678 599.975 621.837 607.946 628.491 605.446Z" fill="#FF1863"/>
<path d="M549.617 551.011L549.662 551.03L549.71 551.046L556.718 553.318L556.758 553.331L556.799 553.341L562.979 554.917L563.004 554.924L567.918 555.97L565.827 565.787L565.2 567.468L562.467 568.55L560.066 568.961L556.828 568.514L553.899 567.89L550.9 566.535L548.062 564.243L545.446 560.765L544.219 556.274L543.585 551.879L544.239 548.806L549.617 551.011Z" fill="#FEFEFE" stroke="#0875A4" stroke-width="3"/>
<path d="M588.906 559.344L588.858 559.339L588.809 559.33L580.803 557.867L580.762 557.86L580.721 557.849L573.908 556.093L573.882 556.086L568.48 554.432L564.802 566.441L564.426 568.676L566.449 571.443L568.533 573.266L571.91 574.609L575.087 575.582L578.762 575.793L582.824 574.878L587.354 572.534L591.127 568.297L594.271 563.835L595.453 559.974L588.906 559.344Z" fill="#FEFEFE" stroke="#0578A5" stroke-width="3"/>
<path d="M570.558 537.565C580.887 541.313 592.491 535.446 596.476 524.461C600.462 513.476 595.32 501.533 584.992 497.786C574.664 494.038 563.06 499.905 559.074 510.89C555.088 521.875 560.23 533.818 570.558 537.565Z" fill="#ED6F7A"/>
<g clip-path="url(#clip3_471_2913)">
<path d="M780.926 487.445C776.088 487.08 773.861 488.301 772.514 490.11C770.875 492.313 770.033 496.016 769.679 501.649C769.004 512.388 770.235 529.07 766.671 547.036L766.619 547.296L766.52 547.543C761.408 560.258 756.914 571.61 755.613 581.841C754.364 591.658 756.097 600.126 763.009 607.583C774.48 611.834 783.53 612.83 790.636 611.698C797.819 610.553 803.285 607.195 807.462 602.318C815.983 592.37 819.155 576.066 819.333 559.774L819.334 559.649L819.346 559.525C820.845 544.351 815.543 527.051 807.427 513.011C803.384 506.015 798.708 499.947 793.971 495.44C789.253 490.951 784.732 488.256 780.926 487.445Z" fill="#87CFE5" stroke="#0076B8" stroke-width="7"/>
<path d="M779.601 580.189C779.597 579.938 779.703 579.691 779.887 579.502C780.072 579.314 780.319 579.201 780.584 579.187C780.849 579.172 781.113 579.257 781.328 579.424C781.542 579.59 781.69 579.824 781.729 580.073C781.81 580.611 781.887 581.132 781.96 581.67C783.621 591.181 781.8 601.716 777.259 610.449C777.016 610.95 776.783 611.425 776.531 611.923C774.66 610.911 772.79 609.899 770.919 608.887C771.216 608.451 771.496 608.037 771.785 607.599C777.084 599.944 779.905 591.277 779.617 581.764C779.616 581.236 779.612 580.721 779.601 580.189Z" fill="#0074AB"/>
<path d="M801.22 583.538C801.24 583.284 801.373 583.042 801.578 582.866C801.783 582.69 802.044 582.593 802.314 582.598C802.584 582.604 802.845 582.71 803.052 582.894C803.258 583.079 803.393 583.325 803.415 583.58C803.453 584.044 803.488 584.483 803.521 584.947C804.297 593.098 803.01 601.769 800.597 609.585C800.468 610.031 800.346 610.456 800.215 610.9C799.984 611.694 799.431 612.335 798.64 612.67C797.851 613.005 796.889 613.006 796.003 612.686C795.117 612.366 794.39 611.754 794.018 611.001C793.644 610.246 793.657 609.409 794.016 608.663C794.212 608.253 794.4 607.862 794.593 607.453C798.145 600.247 800.519 592.937 801.106 584.874C801.147 584.422 801.184 583.993 801.22 583.538Z" fill="#007BA4"/>
</g>
<path d="M613.349 741.935L619.379 747.773L625.209 750.865L631.787 752.784L636.553 752.402L630.546 750.181L629.108 749.649L642.261 745.914L818.217 281.599L793.494 272.023L610.893 729.455L611.493 735.398L613.349 741.935Z" fill="#D3B256" stroke="#F1CD51"/>
<path d="M800.315 280.91L629.594 736.693" stroke="#F1CD51" stroke-width="21" stroke-linecap="round"/>
<path d="M792.327 270.138L819.28 285.089L837.21 238.703L870.444 277.518L879.124 278.531L886.433 276.456L902.079 270.709L924.235 263.549L936.684 251.756L928.575 247.538L881.979 260.767L874.784 256.29L870.444 247.959L915.327 232.173L917.154 222.96L911.672 219.3L862.335 233.308L851.828 224.12L848.858 213.661L890.772 196.11L893.17 188.909L884.148 184.95L838.922 197.79L830.813 191.833L826.245 182.698L843.49 172.151L862.905 164.03L863.819 156.816L855.025 153.661L817.046 164.445L810.37 159.819L806.715 152.163L824.075 143.757L841.434 133.612L842.69 127.604L835.609 125.268L815.737 131.779L798.607 139.251L793.924 134.93L792.325 129.298L805.573 120.32L825.902 110.202L829.442 103.546L823.16 100.547L790.269 109.886L772.339 131.93L814.025 212.683L792.327 270.138Z" fill="#B8BDC6"/>
<path d="M785.96 128.907C791.748 116.815 798.525 112.457 816.796 108.85" stroke="#B7B6AF" stroke-width="6" stroke-linecap="round"/>
<path d="M867.249 267.992C880.937 274.134 888.878 272.29 903.57 259.812" stroke="#B7B6AF" stroke-width="6" stroke-linecap="round"/>
<path d="M857.421 252.364C863.209 240.272 869.986 235.914 888.257 232.307" stroke="#B7B6AF" stroke-width="6" stroke-linecap="round"/>
<path d="M831.153 218.962C836.942 206.871 843.718 202.513 861.989 198.905" stroke="#B7B6AF" stroke-width="6" stroke-linecap="round"/>
<path d="M818.59 181.667C824.378 169.576 831.155 165.218 849.426 161.61" stroke="#B7B6AF" stroke-width="6" stroke-linecap="round"/>
<path d="M799.403 152.34C805.191 140.248 811.968 135.89 830.239 132.283" stroke="#B7B6AF" stroke-width="6" stroke-linecap="round"/>
<g clip-path="url(#clip4_471_2913)">
<path d="M518.74 596.993C520.734 592.262 523.277 590.797 526.07 590.462C529.467 590.054 534.224 591.166 540.994 593.726C553.899 598.607 572.809 608.33 595.619 614.209L595.95 614.294L596.289 614.328C613.729 616.058 629.264 617.668 641.89 621.7C654.004 625.569 663.048 631.545 668.317 641.865C667.552 654.818 664.187 663.827 659.306 669.918C654.371 676.076 647.705 679.483 639.907 680.902C624 683.794 603.33 678.399 584.173 670.2L584.026 670.136L583.875 670.085C565.365 663.699 547.771 649.836 535.399 635.005C529.236 627.616 524.473 620.109 521.569 613.347C518.677 606.611 517.785 600.983 518.74 596.993Z" fill="#87CFE5" stroke="#0076B8" stroke-width="7"/>
<path d="M627.951 643.376C627.659 643.243 627.316 643.216 627.004 643.292C626.692 643.369 626.435 643.543 626.286 643.784C626.135 644.025 626.104 644.317 626.191 644.605C626.279 644.891 626.478 645.15 626.75 645.314C627.339 645.667 627.911 646.007 628.503 646.352C638.805 652.796 652.045 656.495 664.539 656.717C665.247 656.746 665.92 656.771 666.629 656.79C666.381 654.514 666.132 652.237 665.884 649.961C665.225 650.017 664.6 650.067 663.944 650.113C652.332 651.157 640.776 649.355 629.786 644.2C629.168 643.928 628.569 643.659 627.951 643.376Z" fill="#0074AB"/>
<path d="M621.052 665.396C620.744 665.284 620.394 665.285 620.085 665.387C619.777 665.489 619.533 665.684 619.404 665.941C619.275 666.197 619.269 666.497 619.381 666.785C619.494 667.073 619.715 667.327 620.002 667.478C620.526 667.752 621.022 668.011 621.549 668.28C630.7 673.195 641.493 676.439 651.849 678.187C652.435 678.295 652.993 678.398 653.579 678.504C654.624 678.695 655.651 678.504 656.438 677.933C657.225 677.365 657.707 676.462 657.776 675.466C657.845 674.469 657.494 673.473 656.799 672.737C656.101 671.998 655.116 671.58 654.063 671.534C653.485 671.507 652.933 671.483 652.358 671.454C642.147 671.089 632.402 669.564 622.672 665.975C622.122 665.781 621.602 665.596 621.052 665.396Z" fill="#007BA4"/>
</g>
<g clip-path="url(#clip5_471_2913)">
<path d="M556.045 455.073C571.471 465.554 589.049 453.755 583.116 481.815C579.768 497.647 569.408 509.228 560.894 516.493C552.5 523.656 548.08 522.148 532.749 516.639C511.679 509.067 498.16 492.336 503.923 465.904C531.469 398.556 528.981 426.891 556.045 455.073Z" fill="#FEFEFE" stroke="#0F79AB" stroke-width="6"/>
<path d="M638.791 478.365C652.169 481.194 657.087 477.558 669 485.5C676.5 490.5 675.172 492 672 507C667.537 528.107 668.459 524.979 658 535C647.713 544.857 640.457 549.297 622.5 545.5C609.126 542.672 599.893 537.258 593.773 523.142C587.646 509.011 585.92 490.741 589.957 471.649C591.848 462.703 585.791 481.365 592.583 467.2C600.291 454.865 625.416 475.538 638.791 478.365Z" fill="#FEFEFE" stroke="#0F79AB" stroke-width="6"/>
<path d="M629.344 504.184C627.497 512.919 619.866 518.703 611.668 516.97C603.47 515.236 598.322 506.75 600.169 498.015C602.016 489.28 610.159 483.604 618.357 485.337C627.152 489.263 631.267 495.09 629.344 504.184Z" fill="#2B2A28"/>
<path d="M563.8 492.393C572.344 491.721 578.749 484.547 578.106 476.371C577.463 468.194 570.015 462.111 561.471 462.783C552.926 463.455 546.521 470.628 547.165 478.805C547.808 486.982 555.256 493.065 563.8 492.393Z" fill="#2B2A28"/>
<path d="M582.448 535.181C593.001 530.785 597.897 518.44 593.384 507.61C588.872 496.78 576.659 491.564 566.107 495.961C555.554 500.358 550.658 512.702 555.171 523.532C559.683 534.363 571.896 539.578 582.448 535.181Z" fill="#ED6F7A"/>
<path opacity="0.7" d="M626.998 424.847L634.997 424.685L642.526 426.034L650.584 428.872L660.673 433.17L669.272 437.997L667.924 445.526L657.875 443.228L646.327 440.96L637.299 439.642L630.3 439.783L622.302 439.944L622.161 432.946L623.56 427.916L626.998 424.847Z" fill="#014C83"/>
<path opacity="0.7" d="M603.286 420.096L597.738 414.332L591.456 409.969L583.747 406.285L573.57 402.201L564.073 399.544L559.71 405.826L568.446 411.297L578.222 417.849L585.544 423.293L590.398 428.337L595.946 434.1L600.99 429.246L603.552 424.698L603.286 420.096Z" fill="#014C83"/>
</g>
</g>
<defs>
<clipPath id="clip0_471_2913">
<rect width="1100" height="850" fill="white"/>
</clipPath>
<clipPath id="clip1_471_2913">
<rect width="151" height="90" fill="white" transform="matrix(-0.97177 -0.235931 -0.235931 0.97177 768.971 689.625)"/>
</clipPath>
<clipPath id="clip2_471_2913">
<rect width="151" height="79.9813" fill="white" transform="translate(382.449 625) rotate(6.78487)"/>
</clipPath>
<clipPath id="clip3_471_2913">
<rect width="69.6706" height="128.493" fill="white" transform="matrix(-0.980886 -0.194583 -0.194583 0.980886 837.342 495.557)"/>
</clipPath>
<clipPath id="clip4_471_2913">
<rect width="73.4562" height="165.257" fill="white" transform="translate(500 654.131) rotate(-75.5462)"/>
</clipPath>
<clipPath id="clip5_471_2913">
<rect width="196" height="148.189" fill="white" transform="translate(511.657 378) rotate(11.9394)"/>
</clipPath>
</defs>
</svg>
