<svg width="1100" height="850" viewBox="0 0 1100 850" fill="none" xmlns="http://www.w3.org/2000/svg">
<g clip-path="url(#clip0_468_1036)">
<path d="M753.077 121.013C784.857 96.7194 810.883 93.4604 824.662 104.535C839.557 116.507 850.066 141.249 840.168 174.495C830.144 208.161 822.85 212.421 749.422 262.388L712.996 302.792L694.075 323.76C648.961 374.798 648.448 383.53 628.106 415.259C622.987 423.245 618.556 430.2 614.548 436.004C610.502 441.862 607.213 446.065 604.45 448.736C601.695 451.4 600.269 451.77 599.546 451.749C598.768 451.726 597.113 451.201 594.773 447.621L593.23 445.257L590.432 445.533C585.894 445.979 583.501 444.982 582.205 443.711C580.944 442.475 580.017 440.291 579.922 436.276C579.717 427.742 577.812 410.39 584.935 391.693C599.031 354.689 605.511 295.09 630.26 242.373C661.348 176.152 721.617 145.064 753.077 121.013Z" fill="#87CFE5" stroke="#0E6B96" stroke-width="12"/>
<path d="M380.742 47.3804C391.703 41.2855 403.51 40.0744 415.894 43.5185C428.491 47.0223 441.861 55.4222 455.046 68.8654C481.386 95.721 505.747 141.458 520.916 202.373C525.18 228.104 530.639 253.752 535.631 277.5C540.657 301.404 545.188 323.293 547.661 341.711C550.17 360.406 550.376 374.427 547.562 383.091C546.204 387.27 544.396 389.405 542.636 390.487C540.943 391.529 538.114 392.318 533.079 391.568L529.439 391.027L526.768 393.507C523.147 396.868 521.24 397.152 520.642 397.147C520.066 397.142 518.537 396.85 515.968 394.081C513.446 391.362 510.736 387.123 507.683 381.27C504.663 375.48 501.499 368.5 497.947 360.507C483.831 328.74 464.25 282.364 426.444 243.217L426.18 242.944L425.882 242.702L422.406 239.868C350.24 180.636 329.239 138.884 330.513 109.747C331.783 80.7125 355.433 61.4535 380.742 47.3804Z" fill="#8BCDE5" stroke="#0E6B96" stroke-width="12"/>
<path d="M582.5 369.001C684.975 369.001 768 451.407 768 553.001C768 654.595 684.975 737.001 582.5 737.001C480.025 737.001 397 654.595 397 553.001C397 451.407 480.025 369.001 582.5 369.001Z" fill="#86D0E3" stroke="#0C74AB" stroke-width="7"/>
<path d="M709.5 681.001C675 720.001 611 735.501 586 733.001C479 739.001 398.5 644.896 401 551.501C402.566 493.001 388 631.001 527 690.001C601.5 727.501 709.5 681.001 709.5 681.001Z" fill="#37B4CA"/>
<path opacity="0.77" d="M530.808 412.063L544.198 406.235L560.427 402.512L568.487 402.326L575.155 403.662L576.567 408.406L577.301 413.352L576.204 419.581L567.539 417.733L553.213 417.938L543.12 418.728L531.837 421.717L530.461 415.855L530.808 412.063Z" fill="#004F80"/>
<g clip-path="url(#clip1_468_1036)">
<path d="M559.582 570.951L559.631 570.965L559.681 570.973L567.937 572.377L567.98 572.385L568.023 572.387L575.202 572.855L575.23 572.857H581V591.498L580.698 594.833L577.895 597.88L575.315 599.561L571.615 600H568.221L564.569 598.701L560.876 595.637L557.153 590.342L554.736 582.69L553 574.993V569L559.582 570.951Z" fill="#FEFEFE" stroke="#0578A5" stroke-width="3"/>
<path d="M599.848 569.62L599.783 569.637L599.714 569.648L589.742 571.118L589.684 571.126L589.628 571.129L580.957 571.603L580.921 571.605L574.087 571.585L574.027 591.345L574.374 594.84L577.694 598.054L580.767 599.84L585.2 600.32L589.273 600.332L593.652 598.967L598.088 595.731L602.571 590.12L605.5 581.984L607.615 573.788L607.634 567.602L599.848 569.62Z" fill="#FEFEFE" stroke="#0875A4" stroke-width="3"/>
<path d="M672.513 589C673.313 588.992 674.131 588.813 674.779 588.445C675.429 588.076 676.026 587.431 676 586.553V586.552C675.972 585.686 675.353 585.07 674.696 584.721C672.384 583.494 670.031 582.337 667.569 581.209L667.336 581.101C644.712 570.719 615.337 564.767 585.836 564.07C556.796 563.384 527.54 567.785 504.407 578.141L503.31 578.638L503.291 578.647C501.099 579.7 498.994 580.815 496.995 581.985L496.139 582.495C495.501 582.882 494.942 583.543 495.005 584.411L495.033 584.626C495.171 585.367 495.771 585.903 496.38 586.208L496.526 586.277C497.172 586.566 497.941 586.695 498.685 586.676L498.965 586.661C499.614 586.611 500.261 586.447 500.8 586.155L500.971 586.056L501.7 585.623L501.712 585.616C503.536 584.548 505.463 583.528 507.48 582.558L507.494 582.552L507.508 582.546C529.133 572.544 557.348 568.216 585.561 568.88C613.776 569.543 641.882 575.197 663.262 585.063L663.29 585.076L663.301 585.083C665.698 586.177 667.983 587.3 670.227 588.491C670.887 588.842 671.71 589.007 672.513 589Z" fill="#076FA2"/>
</g>
<g clip-path="url(#clip2_468_1036)">
<path d="M535.752 450.829C559.344 450.679 579.336 472.642 579.509 499.847C579.607 515.196 576.433 527.513 569.606 535.97C562.876 544.308 552.247 549.316 536.38 549.417C512.877 549.567 494.216 528.137 494.039 500.391C493.863 472.644 512.25 450.979 535.752 450.829Z" fill="#FEFEFE" stroke="#0F79AB" stroke-width="6"/>
<path d="M625.095 426.918C638.03 426.836 650.029 433.332 658.926 444.206C667.82 455.075 673.451 470.16 673.556 486.696C673.675 505.324 670.164 520.405 662.51 530.787C654.983 541 643.222 546.976 625.859 547.087C612.927 547.169 601.334 540.806 592.838 530.028C584.333 519.239 579.064 504.147 578.957 487.298C578.849 470.45 583.926 455.292 592.293 444.395C600.651 433.51 612.163 427 625.095 426.918Z" fill="#FEFEFE" stroke="#0F79AB" stroke-width="6"/>
<path d="M562.351 546.847C571.55 546.788 578.959 539.18 578.9 529.853C578.841 520.526 571.335 513.012 562.136 513.071C552.937 513.129 545.528 520.738 545.587 530.065C545.646 539.392 553.152 546.905 562.351 546.847Z" fill="#ED6F7A"/>
<path d="M611.071 484.29C611.132 493.839 605.513 501.616 597.937 501.665C590.361 501.713 584.171 494.011 584.11 484.461C584.049 474.912 590.141 467.132 597.717 467.084C606.245 469.191 611.008 474.348 611.071 484.29Z" fill="#2B2A28"/>
<path d="M554.44 502.627C562.015 502.727 568.259 495.068 568.386 485.519C568.512 475.971 562.474 468.148 554.899 468.048C547.324 467.948 541.08 475.607 540.953 485.156C540.827 494.704 546.865 502.526 554.44 502.627Z" fill="#2B2A28"/>
</g>
<path d="M565.744 668.758L573.476 672.023L580.03 672.801L586.857 672.215L591.163 670.136L584.758 670.235L583.226 670.259L594.142 662.025L590.503 165.501L563.991 165.502L558.946 658.007L561.652 663.333L565.744 668.758Z" fill="#D3B256" stroke="#F1CD51"/>
<path d="M573.562 171.325L579 658.001" stroke="#F1CD51" stroke-width="21" stroke-linecap="round"/>
<path d="M562.221 164.166L592.755 168.372L592.719 118.641L637.73 142.831L646.19 140.64L652.256 136.065L664.77 125.055L682.844 110.376L690.192 94.8821L681.107 93.8777L642.436 123.045L634.109 121.469L627.053 115.268L663.204 84.3354L661.58 75.0847L655.146 73.6521L614.2 104.535L601.083 99.7625L594.536 91.0824L627.28 59.5767L626.916 51.9953L617.072 51.5628L579.538 79.8722L569.825 77.2465L562.266 70.3778L574.537 54.3136L589.708 39.7286L587.954 32.6712L578.614 32.9064L547.094 56.6798L539.199 54.7783L533.025 48.9591L546.176 34.8501L558.699 19.1198L557.7 13.064L550.253 13.4429L534.075 26.6926L520.8 39.8479L514.873 37.5095L511.347 32.8355L520.458 19.6788L535.759 2.90044L536.656 -4.58513L529.716 -5.11201L502.418 15.4767L493.661 42.5086L561.702 102.753L562.221 164.166Z" fill="#B8BDC6"/>
<path d="M505.271 34.7695C506.3 21.4038 511.045 14.8922 526.779 4.92879" stroke="#B7B6AF" stroke-width="6" stroke-linecap="round"/>
<path d="M631.31 135.103C646.292 135.886 653.031 131.298 662.224 114.355" stroke="#B7B6AF" stroke-width="6" stroke-linecap="round"/>
<path d="M616.501 124.08C617.531 110.714 622.276 104.203 638.01 94.2393" stroke="#B7B6AF" stroke-width="6" stroke-linecap="round"/>
<path d="M579.941 102.421C580.971 89.0551 585.716 82.5436 601.45 72.5802" stroke="#B7B6AF" stroke-width="6" stroke-linecap="round"/>
<path d="M554.755 72.1816C555.785 58.8159 560.53 52.3043 576.264 42.3409" stroke="#B7B6AF" stroke-width="6" stroke-linecap="round"/>
<path d="M526.271 51.7646C527.3 38.3989 532.045 31.8874 547.779 21.9239" stroke="#B7B6AF" stroke-width="6" stroke-linecap="round"/>
<g clip-path="url(#clip3_468_1036)">
<path d="M715.137 625.716C714.951 620.844 713.08 618.662 710.572 617.391C707.52 615.844 702.646 615.163 695.359 615.057C681.468 614.856 660.196 616.83 636.626 614.05L636.284 614.009L635.953 613.921C618.921 609.354 603.724 605.346 590.399 604.494C577.615 603.676 566.968 605.791 558.32 613.058C554.411 624.759 554.359 633.887 556.776 640.969C559.221 648.128 564.277 653.465 571.109 657.441C585.048 665.553 606.43 668.013 627.391 667.469L627.552 667.465L627.712 667.472C647.416 668.304 668.929 662.215 685.873 653.447C694.315 649.079 701.48 644.117 706.63 639.163C711.759 634.228 714.61 629.572 715.137 625.716Z" fill="#87CFE5" stroke="#0076B8" stroke-width="7"/>
<path d="M595.773 628.498C596.095 628.482 596.427 628.578 596.695 628.755C596.961 628.931 597.14 629.174 597.194 629.44C597.25 629.705 597.175 629.974 596.99 630.197C596.805 630.42 596.526 630.578 596.21 630.628C595.531 630.734 594.871 630.834 594.19 630.931C582.191 633.02 568.407 631.659 556.569 627.489C555.892 627.267 555.25 627.054 554.576 626.823C555.623 624.901 556.67 622.978 557.717 621.056C558.318 621.335 558.888 621.598 559.489 621.868C570.045 626.847 581.565 629.294 593.751 628.584C594.43 628.559 595.09 628.532 595.773 628.498Z" fill="#0074AB"/>
<path d="M594.398 650.344C594.727 650.353 595.056 650.476 595.311 650.674C595.564 650.872 595.724 651.129 595.754 651.4C595.784 651.672 595.682 651.939 595.473 652.154C595.265 652.369 594.966 652.516 594.641 652.549C594.051 652.608 593.492 652.663 592.899 652.716C582.529 653.857 571.212 652.949 560.841 650.873C560.25 650.764 559.688 650.66 559.099 650.548C558.047 650.352 557.149 649.825 556.612 649.046C556.074 648.269 555.943 647.304 556.234 646.4C556.525 645.497 557.212 644.74 558.13 644.333C559.05 643.925 560.126 643.9 561.134 644.227C561.688 644.406 562.216 644.577 562.768 644.753C572.508 647.999 582.225 650.057 592.666 650.289C593.253 650.31 593.809 650.329 594.398 650.344Z" fill="#007BA4"/>
</g>
<g clip-path="url(#clip4_468_1036)">
<path d="M446.591 448.094C449.199 452.233 452.154 453.134 455.293 452.904C459.113 452.623 464.323 450.618 471.659 446.827C485.644 439.6 505.925 426.547 530.868 416.407L531.229 416.26L531.604 416.16C550.899 411.057 568.082 406.446 581.825 400.087C595.01 393.987 604.601 386.473 609.632 375.543C607.721 363.281 603.236 355.313 597.299 350.44C591.296 345.515 583.589 343.566 574.783 343.748C556.817 344.119 534.221 353.372 513.54 365.015L513.382 365.104L513.217 365.184C493.11 374.959 474.632 391.72 462.055 408.376C455.789 416.674 451.093 424.809 448.409 431.863C445.735 438.889 445.2 444.459 446.591 448.094Z" fill="#87CFE5" stroke="#0076B8" stroke-width="7"/>
<path d="M564.52 382.069C564.206 382.255 563.826 382.348 563.471 382.337C563.118 382.325 562.817 382.21 562.631 382.008C562.444 381.806 562.385 381.533 562.459 381.24C562.533 380.948 562.734 380.661 563.024 380.45C563.651 379.995 564.261 379.557 564.893 379.109C575.848 370.899 590.303 364.738 604.209 362.057C604.996 361.889 605.744 361.732 606.532 361.574C606.441 363.804 606.35 366.035 606.26 368.265C605.52 368.342 604.82 368.417 604.084 368.503C591.058 369.796 578.326 373.806 566.499 380.917C565.832 381.301 565.186 381.676 564.52 382.069Z" fill="#0074AB"/>
<path d="M555.034 362.332C554.7 362.5 554.31 362.568 553.958 362.532C553.606 362.494 553.318 362.355 553.153 362.135C552.988 361.915 552.957 361.629 553.059 361.33C553.16 361.032 553.386 360.745 553.694 360.544C554.255 360.177 554.787 359.832 555.353 359.47C565.151 352.952 576.914 347.711 588.313 343.99C588.957 343.77 589.572 343.561 590.216 343.345C591.364 342.955 592.525 342.935 593.449 343.326C594.372 343.716 594.983 344.485 595.142 345.426C595.3 346.368 594.99 347.392 594.275 348.235C593.558 349.081 592.494 349.676 591.324 349.928C590.682 350.068 590.069 350.2 589.43 350.341C578.08 352.708 567.344 356.095 556.793 361.457C556.195 361.751 555.63 362.031 555.034 362.332Z" fill="#007BA4"/>
</g>
<path opacity="0.7" d="M613.999 392.847L621.997 392.685L629.526 394.034L637.585 396.872L647.674 401.17L656.273 405.997L654.924 413.526L644.876 411.228L633.328 408.96L624.299 407.642L617.301 407.783L609.302 407.944L609.161 400.946L610.56 395.916L613.999 392.847Z" fill="#014C83"/>
<g clip-path="url(#clip5_468_1036)">
<path d="M462 717C480.453 717 490.418 722.777 495.985 730.291C501.752 738.076 503.5 748.636 503.5 759.5C503.5 770.729 502.623 779.38 495.348 785.753C487.743 792.415 472.12 797.5 439.501 797.5C417.107 797.5 401.008 796.432 389.449 794.533C377.816 792.622 371.242 789.939 367.485 787.064C363.994 784.392 362.645 781.333 362.114 777.492C361.834 775.466 361.79 773.239 361.832 770.693C361.871 768.301 362.001 765.305 362.001 762.5C362.001 759.01 364.71 754.248 371.266 748.682C377.594 743.307 386.607 737.959 397.019 733.206C417.892 723.677 443.368 717 462 717Z" fill="#87CFE5" stroke="#0178B2" stroke-width="9"/>
<path d="M498.614 746.952C509.614 789.952 476.16 795 437.5 795C398.84 795 377 792 371.5 785C358.5 779 412.115 783.952 440.114 780.952C525.114 780.952 479 704 498.614 746.952Z" fill="#31A7BA"/>
</g>
<g clip-path="url(#clip6_468_1036)">
<path d="M637.755 720.712C619.823 716.358 608.777 719.621 601.594 725.609C594.153 731.814 589.963 741.663 587.4 752.221C584.751 763.133 583.562 771.747 589.128 779.656C594.946 787.924 608.929 796.551 640.627 804.247C662.389 809.531 678.286 812.291 689.966 813.173C701.722 814.061 708.744 813.004 713.072 811.097C717.095 809.324 719.128 806.669 720.55 803.062C721.3 801.159 721.868 799.006 722.428 796.522C722.954 794.188 723.535 791.246 724.197 788.52C725.02 785.129 723.511 779.862 718.454 772.906C713.572 766.19 706.076 758.866 697.079 751.791C679.043 737.607 655.862 725.107 637.755 720.712Z" fill="#87CFE5" stroke="#0178B2" stroke-width="9"/>
<path d="M595.108 741.18C574.274 780.371 605.592 793.17 643.161 802.291C680.73 811.412 702.661 813.649 709.657 808.144C723.706 805.381 670.437 797.543 643.935 788.022C561.335 767.968 624.302 704.068 595.108 741.18Z" fill="#31A7BA"/>
</g>
</g>
<defs>
<clipPath id="clip0_468_1036">
<rect width="1100" height="850" fill="white"/>
</clipPath>
<clipPath id="clip1_468_1036">
<rect width="179" height="56" fill="white" transform="translate(490 553)"/>
</clipPath>
<clipPath id="clip2_468_1036">
<rect width="185.42" height="127.952" fill="white" transform="translate(490.58 425.18) rotate(-0.36456)"/>
</clipPath>
<clipPath id="clip3_468_1036">
<rect width="69.6706" height="166.504" fill="white" transform="matrix(0.117159 -0.993113 -0.993113 -0.117159 712.356 682.698)"/>
</clipPath>
<clipPath id="clip4_468_1036">
<rect width="69.6706" height="188.892" fill="white" transform="matrix(0.376631 0.926364 0.926364 -0.376631 421.041 397.042)"/>
</clipPath>
<clipPath id="clip5_468_1036">
<rect width="151" height="90" fill="white" transform="translate(357 712)"/>
</clipPath>
<clipPath id="clip6_468_1036">
<rect width="151" height="90" fill="white" transform="matrix(-0.97177 -0.235931 -0.235931 0.97177 740.971 740.626)"/>
</clipPath>
</defs>
</svg>
