<svg width="1100" height="850" viewBox="0 0 1100 850" fill="none" xmlns="http://www.w3.org/2000/svg">
<g clip-path="url(#clip0_471_2144)">
<path d="M550.004 103.458C562.738 65.5375 582.48 48.2676 600.097 49.7313C619.142 51.3136 641.701 65.9325 652.109 99.0226C662.649 132.53 658.99 140.144 626.115 222.652L618.55 276.523L614.609 304.49C605.796 372.036 610.259 379.559 611.164 417.237C611.393 426.721 611.614 434.964 611.543 442.017C611.47 449.137 611.097 454.461 610.302 458.22C609.511 461.97 608.536 463.075 607.926 463.463C607.268 463.879 605.603 464.37 601.66 462.713L599.058 461.619L596.894 463.414C593.383 466.323 590.842 466.836 589.056 466.509C587.32 466.19 585.329 464.9 583.003 461.627C578.056 454.67 566.763 441.357 562.199 421.877C553.166 383.323 525.172 330.31 516.169 272.773C504.86 200.497 537.398 140.999 550.004 103.458Z" fill="#87CFE5" stroke="#0E6B96" stroke-width="12"/>
<path d="M274.209 109.052C283.334 100.449 294.481 96.3703 307.331 96.6627C320.403 96.9602 335.429 101.813 351.515 111.601C383.651 131.152 418.514 169.492 448.2 224.804C458.662 248.696 470.263 272.214 480.942 294.003C491.693 315.937 501.469 336.039 508.397 353.283C515.427 370.787 519.075 384.326 518.479 393.417C518.191 397.801 516.963 400.314 515.523 401.796C514.138 403.223 511.59 404.684 506.526 405.195L502.864 405.566L500.886 408.626C498.203 412.775 496.424 413.52 495.844 413.662C495.284 413.799 493.73 413.892 490.558 411.839C487.445 409.825 483.776 406.383 479.377 401.46C475.025 396.591 470.242 390.603 464.833 383.729C443.338 356.411 412.95 316.276 366.677 287.631L366.354 287.431L366.006 287.27L361.94 285.378C277.422 245.717 246.795 210.413 240.864 181.857C234.953 153.403 253.139 128.918 274.209 109.052Z" fill="#8BCDE5" stroke="#0E6B96" stroke-width="12"/>
<g clip-path="url(#clip1_471_2144)">
<path d="M657.472 718.179C645.463 704.169 634.592 700.363 625.264 701.026C615.6 701.715 606.445 707.26 598.196 714.33C589.67 721.638 583.673 727.934 583.569 737.605C583.46 747.715 589.767 762.886 610.996 787.652C625.571 804.655 636.859 816.182 645.823 823.723C654.845 831.311 661.161 834.557 665.788 835.538C670.089 836.45 673.29 835.483 676.551 833.386C678.272 832.28 679.991 830.864 681.897 829.176C683.687 827.589 685.878 825.54 688.008 823.715C690.657 821.444 692.509 816.287 692.47 807.688C692.431 799.385 690.626 789.061 687.459 778.063C681.109 756.014 669.598 732.326 657.472 718.179Z" fill="#87CFE5" stroke="#0178B2" stroke-width="9"/>
<path d="M610.903 709.873C571.096 729.506 589.036 758.192 614.196 787.544C639.356 816.896 655.848 831.526 664.742 831.146C677.758 837.111 639.106 799.627 623.161 776.416C567.842 711.881 656.279 696.812 610.903 709.873Z" fill="#31A7BA"/>
</g>
<path d="M585.5 366.001C687.975 366.001 771 448.407 771 550.001C771 651.595 687.975 734.001 585.5 734.001C483.025 734.001 400 651.595 400 550.001C400 448.407 483.025 366.001 585.5 366.001Z" fill="#86D0E3" stroke="#0C74AB" stroke-width="7"/>
<path d="M712.5 678.001C678 717.001 614 732.501 589 730.001C482 736.001 401.5 641.896 404 548.501C405.566 490.001 391 628.001 530 687.001C604.5 724.501 712.5 678.001 712.5 678.001Z" fill="#37B4CA"/>
<path opacity="0.77" d="M547.314 386.918L559.166 376.613L574.683 367.513L582.963 364.681L590.326 363.848L593.422 368.198L595.885 372.975L596.895 379.654L587.289 380.622L572.531 385.529L562.355 389.641L551.705 396.375L548.261 390.879L547.314 386.918Z" fill="#004F80"/>
<g clip-path="url(#clip2_471_2144)">
<path d="M629.244 554.296L629.291 554.298L629.336 554.293L636.876 553.549L636.915 553.546L636.953 553.537L643.297 552.168L643.321 552.163L648.315 550.702L653.55 568.592L654.226 571.87L652.655 575.505L650.895 577.771L647.816 579.129L644.879 579.988L641.354 579.667L637.297 577.662L632.588 573.522L628.347 566.79L624.683 559.843L623 554.091L629.244 554.296Z" fill="#FEFEFE" stroke="#0578A5" stroke-width="3"/>
<path d="M674.537 545.31L674.473 545.333L674.406 545.35L664.564 547.754L664.508 547.768L664.451 547.777L655.817 549.118L655.781 549.123L648.937 549.813L650.804 568.239L651.493 571.461L655.131 574.113L658.381 575.459L662.867 575.446L666.946 575.036L671.197 573.309L675.322 569.832L679.263 564.137L681.402 556.249L682.72 548.39L682.135 542.621L674.537 545.31Z" fill="#FEFEFE" stroke="#0875A4" stroke-width="3"/>
<path d="M722.061 549.66C722.752 549.451 723.409 549.071 723.867 548.554C724.326 548.035 724.661 547.265 724.392 546.429L724.392 546.428C724.124 545.604 723.416 545.17 722.749 545.001C720.403 544.409 718.042 543.894 715.595 543.435L715.363 543.391C692.868 539.156 665.774 540.883 640.048 547.684C614.723 554.379 590.64 566.012 573.529 581.81L572.719 582.565L572.705 582.579C571.104 584.144 569.595 585.747 568.194 587.376L567.596 588.083C567.153 588.616 566.855 589.392 567.153 590.209L567.238 590.408C567.565 591.084 568.235 591.446 568.847 591.585L568.994 591.614C569.634 591.729 570.335 591.657 570.973 591.45L571.212 591.365C571.76 591.153 572.274 590.832 572.658 590.415L572.778 590.277L573.288 589.676L573.296 589.667C574.574 588.18 575.956 586.713 577.429 585.271L577.439 585.261L577.449 585.252C593.355 570.177 616.558 558.878 641.16 552.37C665.765 545.862 691.677 544.17 712.95 548.225L712.978 548.23L712.989 548.234C715.371 548.677 717.664 549.176 719.94 549.751C720.61 549.92 721.368 549.871 722.061 549.66Z" fill="#076FA2"/>
</g>
<path d="M575.26 433.975C599.545 423.857 629.366 437.872 640.927 465.62C647.451 481.276 649.328 495.213 645.822 506.744C642.364 518.114 633.491 527.725 617.158 534.53C592.965 544.61 564.74 530.577 552.949 502.278C541.157 473.977 551.068 444.055 575.26 433.975Z" fill="#FEFEFE" stroke="#0F79AB" stroke-width="6"/>
<path d="M662.153 396.978C674.094 392.003 687.659 393.471 700.012 400.165C712.36 406.857 723.284 418.685 729.644 433.95C736.809 451.145 739.271 466.432 736.12 478.94C733.021 491.242 724.4 501.228 708.372 507.906C696.435 512.879 683.295 511.381 671.35 504.624C659.392 497.86 648.8 485.887 642.32 470.334C635.839 454.782 634.797 438.83 638.414 425.576C642.027 412.337 650.216 401.952 662.153 396.978Z" fill="#FEFEFE" stroke="#0F79AB" stroke-width="6"/>
<path d="M651 550.256C658.107 536.329 658.068 526.891 652.957 508" stroke="#0082AA" stroke-width="7" stroke-linecap="round"/>
<path d="M666.448 523.181C677.001 518.785 681.897 506.44 677.384 495.61C672.872 484.78 660.659 479.564 650.107 483.961C639.554 488.358 634.658 500.702 639.171 511.532C643.683 522.363 655.896 527.578 666.448 523.181Z" fill="#ED6F7A"/>
<path d="M676.509 453.276C680.024 461.713 676.593 471.169 668.199 474.667C659.805 478.164 650.15 474.16 646.635 465.724C643.119 457.287 647.075 447.612 655.469 444.114C665.698 442.093 672.849 444.492 676.509 453.276Z" fill="#2B2A28"/>
<path d="M611.264 488.426C619.512 485.178 623.438 475.537 620.033 466.891C616.628 458.246 607.182 453.87 598.934 457.119C590.686 460.367 586.76 470.008 590.165 478.654C593.569 487.299 603.016 491.675 611.264 488.426Z" fill="#2B2A28"/>
<path opacity="0.7" d="M625.669 394.877L631.539 387.662L638.487 382.074L647.247 377.21L658.919 371.718L669.972 367.971L676.094 375.201L666.349 382.26L655.502 390.672L647.453 397.613L642.317 403.926L636.447 411.141L629.705 405.655L625.99 400.384L625.669 394.877Z" fill="#014C83"/>
<path d="M369.731 576.433C378.904 574.627 389.75 575.985 401.25 579.897C412.71 583.795 424.555 590.142 435.595 597.971C457.825 613.735 476.032 634.95 481.557 653.163C485.395 665.817 485.143 681.099 481.863 694.082C480.227 700.555 477.877 706.302 475.038 710.779C473.401 713.361 471.658 715.43 469.87 716.986C469.854 716.88 469.837 716.773 469.821 716.665C469.479 714.368 469.212 711.697 468.839 708.425C468.103 701.969 467.015 693.779 464.282 684.126C458.798 664.761 446.797 639.884 418.3 610.81L417.981 610.485L417.594 610.242C401.866 600.419 390.045 593.076 381.404 587.539C373.708 582.608 368.728 579.228 365.798 576.881C366.829 576.754 368.012 576.628 369.364 576.488L369.548 576.469L369.731 576.433Z" fill="#91E1E6" stroke="#0082AA" stroke-width="8"/>
<path d="M480.502 682.153C480.777 693.381 478.923 688.565 478.098 696.738C476.1 666.839 483.804 697.419 472.893 707.313C473.271 708.193 471.67 696.89 467.672 685.05C475.68 654.508 479.455 639.334 480.502 682.153Z" fill="#2FC7CE"/>
<path d="M342.313 592.166C342.161 585.441 343.949 581.631 347.066 579.941L347.183 579.878L347.293 579.805C351.127 577.267 356.808 576.504 364.083 577.826C371.309 579.14 379.717 582.45 388.551 587.5C406.213 597.596 425.108 614.377 439.032 634.796C453.042 655.342 462.144 676.325 465.434 693.564C467.08 702.188 467.243 709.727 465.954 715.749C464.671 721.745 461.995 726.069 458.066 728.67C450.183 733.889 437.682 731.973 422.685 722.484C407.947 713.159 391.882 697.129 377.875 676.598C366.668 658.612 354.758 636.121 347.943 616.97C344.521 607.356 342.464 598.799 342.313 592.166Z" fill="#2FC7CE" stroke="#0082AA" stroke-width="6"/>
<path d="M538.065 656.038L540.438 664.089L543.988 669.652L548.767 674.562L553.103 676.577L548.969 671.685L547.98 670.514L561.266 673.743L943.115 356.347L926.318 335.835L542.076 643.967L539.67 649.434L538.065 656.038Z" fill="#D3B256" stroke="#F1CD51"/>
<path d="M927.876 346.929L554.786 659.479" stroke="#F1CD51" stroke-width="21" stroke-linecap="round"/>
<path d="M926.237 333.621L942.327 359.91L980.781 328.374L990.583 378.524L997.638 383.682L1005.02 385.476L1021.47 388.183L1044.28 392.866L1060.92 388.735L1055.94 381.07L1008.87 369.629L1004.82 362.188L1005.14 352.801L1051.98 361.172L1058.11 354.055L1055.14 348.169L1005.3 336.056L1000.69 322.884L1003.25 312.32L1048.38 317.692L1054.01 312.607L1048.11 304.717L1002.43 293.614L998.303 284.435L998.827 274.234L1019.03 273.551L1039.93 276.048L1044.28 270.219L1038.18 263.142L999.813 253.818L996.282 246.504L996.873 238.041L1016.12 239.277L1036.23 239L1040.28 234.39L1035.27 228.869L1014.77 224.746L996.177 222.81L994.231 216.743L995.613 211.054L1011.56 209.767L1034.24 210.975L1040.6 206.927L1036.61 201.223L1003.39 193.148L976.924 203.499L973.422 294.31L926.237 333.621Z" fill="#B8BDC6"/>
<path d="M990.267 207.578C1001.26 199.907 1009.3 199.452 1026.98 205.313" stroke="#B7B6AF" stroke-width="6" stroke-linecap="round"/>
<path d="M992.495 368.661C1001.38 380.749 1009.2 383.056 1028.13 379.434" stroke="#B7B6AF" stroke-width="6" stroke-linecap="round"/>
<path d="M991.641 350.219C1002.63 342.548 1010.68 342.093 1028.36 347.954" stroke="#B7B6AF" stroke-width="6" stroke-linecap="round"/>
<path d="M985.235 308.211C996.229 300.54 1004.27 300.085 1021.95 305.946" stroke="#B7B6AF" stroke-width="6" stroke-linecap="round"/>
<path d="M992.674 269.566C1003.67 261.895 1011.71 261.441 1029.39 267.302" stroke="#B7B6AF" stroke-width="6" stroke-linecap="round"/>
<path d="M990.423 234.592C1001.42 226.921 1009.46 226.467 1027.14 232.327" stroke="#B7B6AF" stroke-width="6" stroke-linecap="round"/>
<g clip-path="url(#clip3_471_2144)">
<path d="M462.103 590.912C463.518 586.231 466.091 584.581 469.129 583.973C472.826 583.234 478.283 583.789 486.216 585.504C501.337 588.774 523.924 595.996 550.188 599.178L550.569 599.224L550.95 599.221C570.567 599.039 588.053 598.942 602.722 601.438C616.795 603.834 627.82 608.542 635.392 617.75C636.718 630.077 634.502 638.946 630.115 645.214C625.679 651.55 618.864 655.466 610.461 657.62C593.318 662.012 569.506 659.066 546.901 653.309L546.728 653.265L546.551 653.232C524.968 649.123 503.143 637.85 486.944 625.116C478.874 618.772 472.336 612.171 467.983 606.08C463.647 600.013 461.714 594.784 462.103 590.912Z" fill="#87CFE5" stroke="#0076B8" stroke-width="7"/>
<path d="M590.913 623.386C590.566 623.291 590.183 623.301 589.849 623.405C589.516 623.51 589.261 623.701 589.136 623.945C589.01 624.189 589.023 624.468 589.169 624.731C589.314 624.993 589.578 625.216 589.907 625.343C590.619 625.616 591.31 625.877 592.024 626.142C604.521 631.161 619.815 633.279 633.698 632.186C634.488 632.14 635.237 632.094 636.026 632.038C635.369 629.911 634.712 627.785 634.055 625.659C633.333 625.78 632.65 625.893 631.93 626.005C619.237 628.202 606.129 627.702 593.085 623.974C592.354 623.781 591.645 623.589 590.913 623.386Z" fill="#0074AB"/>
<path d="M586.964 644.924C586.604 644.85 586.216 644.888 585.891 645.016C585.566 645.146 585.329 645.355 585.229 645.611C585.129 645.867 585.172 646.151 585.345 646.412C585.518 646.673 585.806 646.889 586.15 647.003C586.776 647.207 587.369 647.4 587.998 647.599C598.965 651.293 611.469 653.235 623.239 653.809C623.906 653.85 624.543 653.889 625.209 653.928C626.399 654 627.505 653.713 628.282 653.091C629.059 652.471 629.442 651.568 629.351 650.618C629.26 649.669 628.704 648.763 627.809 648.14C626.913 647.514 625.751 647.222 624.576 647.287C623.93 647.323 623.315 647.357 622.673 647.39C611.296 648.109 600.241 647.683 588.856 645.303C588.214 645.177 587.606 645.056 586.964 644.924Z" fill="#007BA4"/>
</g>
<path d="M753.567 550.801C750.509 547.435 750.5 544.441 751.573 541.516C752.88 537.957 756.142 533.454 761.618 527.322C772.057 515.634 778.964 507.426 795.075 485.986L799.015 476.987L803.034 467.495C812.996 450.316 773.201 450.264 786.498 422.344C795.69 411.17 819.959 356.275 860.877 405.2C871.864 429.697 871.919 430.686 872.949 437.965C874.15 446.451 874.793 451.412 871.935 460.58C866.655 477.522 862.934 485.723 847.766 505.327L847.641 505.458L847.523 505.596C833.075 522.535 812.704 536.419 794.051 544.735C784.758 548.878 776.046 551.568 768.873 552.587C761.729 553.602 756.501 552.904 753.567 550.801Z" fill="#87CFE5" stroke="#0076B8" stroke-width="7"/>
<path d="M819.092 438.45C819.264 438.703 819.529 438.896 819.821 438.991C820.112 439.085 820.407 439.072 820.648 438.951C820.889 438.831 821.059 438.61 821.13 438.334C821.201 438.058 821.167 437.749 821.026 437.48C820.722 436.9 820.425 436.339 820.113 435.764C814.922 425.396 805.985 415.782 795.935 409.359C795.374 408.981 794.839 408.625 794.272 408.255C793.349 410.223 792.426 412.191 791.502 414.159C792.066 414.443 792.599 414.715 793.155 415.005C803.113 419.962 811.619 427.197 818.007 436.865C818.375 437.395 818.73 437.912 819.092 438.45Z" fill="#0074AB"/>
<path d="M835.516 419.591C835.627 419.841 835.838 420.043 836.095 420.157C836.351 420.27 836.631 420.285 836.882 420.195C837.134 420.106 837.339 419.918 837.462 419.67C837.584 419.422 837.613 419.134 837.535 418.872C837.365 418.31 837.197 417.766 837.019 417.207C834.206 407.175 827.707 397.498 819.52 390.663C819.066 390.264 818.633 389.886 818.173 389.494C816.907 391.225 815.641 392.956 814.375 394.687C814.85 395 815.297 395.299 815.764 395.618C824.16 401.093 830.728 408.537 834.811 418.031C835.052 418.553 835.282 419.062 835.516 419.591Z" fill="#0074AB"/>
</g>
<defs>
<clipPath id="clip0_471_2144">
<rect width="1100" height="850" fill="white"/>
</clipPath>
<clipPath id="clip1_471_2144">
<rect width="151" height="90" fill="white" transform="matrix(-0.650809 -0.759242 -0.759242 0.650809 729.604 794.646)"/>
</clipPath>
<clipPath id="clip2_471_2144">
<rect width="161.407" height="56" fill="white" transform="translate(554 561.33) rotate(-16.3106)"/>
</clipPath>
<clipPath id="clip3_471_2144">
<rect width="69.6706" height="185.608" fill="white" transform="translate(450.926 646.889) rotate(-83.0924)"/>
</clipPath>
</defs>
</svg>
