<svg width="476" height="786" viewBox="0 0 476 786" fill="none" xmlns="http://www.w3.org/2000/svg">
<g clip-path="url(#clip0_229_336)">
<path d="M132.578 1.54358C142.909 -1.54686 152.937 0.0334363 162.483 6.01333C172.193 12.0965 181.536 22.8451 189.687 38.1754C205.972 68.8014 216.732 116.289 216.756 175.597C214.991 200.161 214.233 224.922 213.479 247.833C212.721 270.896 211.968 291.998 210.225 309.449C208.455 327.162 205.74 340.064 201.626 347.367C199.642 350.889 197.705 352.434 196.025 353.025C194.408 353.595 191.903 353.674 187.888 351.839L184.985 350.513L182.263 352.178C178.573 354.435 176.935 354.261 176.441 354.12C175.965 353.984 174.759 353.368 173.201 350.243C171.672 347.176 170.301 342.672 168.978 336.609C167.668 330.612 166.485 323.491 165.189 315.353C160.038 283.01 153.367 236.026 130.117 191.518L129.955 191.207L129.758 190.918L127.463 187.527C79.8933 116.773 71.0951 73.7051 78.1476 47.2799C85.1752 20.9482 108.724 8.67943 132.578 1.54358Z" fill="#8BCDE5" stroke="#0E6B96" stroke-width="12"/>
<path d="M271.113 51.1865C290.506 22.5221 313.822 11.2083 331.885 14.5752C351.412 18.215 372.471 32.6943 377.905 60.3935C383.408 88.4422 373.271 131.79 325.708 193.513L325.614 193.636L325.526 193.762C296.686 235.44 288.83 278.986 283.646 309.16C282.342 316.755 281.232 323.359 280.011 328.977C278.778 334.648 277.525 338.849 276.089 341.749C274.657 344.642 273.465 345.402 272.768 345.635C272.017 345.885 270.207 346.069 266.38 344.255L263.855 343.057L261.315 344.219C257.195 346.102 254.472 346.194 252.67 345.71C250.918 345.239 249.06 343.961 247.175 341.059C243.167 334.891 240.429 323.552 238.854 307.441C235.736 275.554 237.493 230 237.493 182.972C237.493 123.897 251.916 79.5632 271.113 51.1865Z" fill="#87CFE5" stroke="#0E6B96" stroke-width="12"/>
<path d="M237.5 335C339.975 335 423 417.406 423 519C423 620.594 339.975 703 237.5 703C135.025 703 52 620.594 52 519C52 417.406 135.025 335 237.5 335Z" fill="#86D0E3" stroke="#0C74AB" stroke-width="7"/>
<path d="M364.5 647C330 686 266 701.5 241 699C134 705 53.5 610.895 56 517.5C57.566 459 43 597 182 656C256.5 693.5 364.5 647 364.5 647Z" fill="#37B4CA"/>
<path opacity="0.77" d="M173.5 394L182.5 382.5L195 371.5L202 367.5L208.5 365.5L212 369L215 373L217 379L208.5 381.5L196 388.5L187.5 394L179 402L175 397.5L173.5 394Z" fill="#004F80"/>
<path opacity="0.7" d="M264.5 358.5H272.5L280 360L288 363L298 367.5L306.5 372.5L305 380L295 377.5L283.5 375L274.5 373.5H267.5H259.5V366.5L261 361.5L264.5 358.5Z" fill="#014C83"/>
<g clip-path="url(#clip1_229_336)">
<path d="M193.5 432.038C218.48 432.038 239.5 456.267 239.5 486.107C239.5 502.944 236.056 516.431 228.771 525.659C221.589 534.757 210.302 540.176 193.5 540.176C168.614 540.176 149 516.541 149 486.107C149 455.673 168.614 432.038 193.5 432.038Z" fill="#FEFEFE" stroke="#0F79AB" stroke-width="6"/>
<path d="M288.176 405.004C301.85 405.004 314.49 412.616 323.821 425.275C333.149 437.929 339 455.44 339 474.592C339 496.166 335.187 513.606 327.027 525.574C319.002 537.346 306.53 544.181 288.176 544.181C274.506 544.181 262.294 536.727 253.386 524.182C244.468 511.624 239 494.106 239 474.592C239 455.079 244.468 437.561 253.386 425.003C262.294 412.458 274.506 405.004 288.176 405.004Z" fill="#FEFEFE" stroke="#0F79AB" stroke-width="6"/>
<path d="M241 550.189C252.046 550.189 261 540.551 261 528.661C261 516.772 252.046 507.134 241 507.134C229.954 507.134 221 516.772 221 528.661C221 540.551 229.954 550.189 241 550.189Z" fill="#ED6F7A"/>
<path d="M273.5 490.112C273.5 501.172 267.508 510.138 259.5 510.138C251.492 510.138 245 501.172 245 490.112C245 479.053 251.492 470.087 259.5 470.087C268.5 472.59 273.5 478.598 273.5 490.112Z" fill="#2B2A28"/>
<path d="M221.5 510.138C229.508 510.138 236 501.172 236 490.112C236 479.053 229.508 470.087 221.5 470.087C213.492 470.087 207 479.053 207 490.112C207 501.172 213.492 510.138 221.5 510.138Z" fill="#2B2A28"/>
<path d="M271 479.599C272 483.103 268.761 486.107 266 486.107C263.239 486.107 261 483.642 261 480.6C261 477.559 263.239 475.093 266 475.093C268.761 475.093 271 476.557 271 479.599Z" fill="#F9FAFB"/>
<path d="M233 479.599C234 483.103 230.761 486.107 228 486.107C225.239 486.107 223 483.642 223 480.6C223 477.559 225.239 475.093 228 475.093C230.761 475.093 233 476.557 233 479.599Z" fill="#F9FAFB"/>
</g>
<g clip-path="url(#clip2_229_336)">
<path d="M71.7473 555.193C76.6878 556.397 79.2743 555.377 81.078 553.545C83.2728 551.316 84.9775 547.255 86.6077 540.928C89.7155 528.866 92.1778 509.754 99.905 489.971L100.017 489.684L100.175 489.42C108.332 475.841 115.543 463.707 119.187 452.322C122.684 441.398 122.783 431.516 117.28 421.934C106.325 415.243 97.1527 412.638 89.5221 412.761C81.8079 412.886 75.3809 415.8 69.9513 420.646C58.8754 430.532 51.9276 448.496 48.0909 466.934L48.0617 467.076L48.0209 467.214C43.0637 484.17 44.6896 504.646 49.9674 521.887C52.5969 530.477 56.0907 538.119 59.998 544.001C63.8896 549.86 67.9782 553.652 71.7473 555.193Z" fill="#87CFE5" stroke="#0076B8" stroke-width="7"/>
<path d="M93.9141 450.279C93.8624 450.564 93.6965 450.827 93.4632 451.011C93.2297 451.193 92.9477 451.282 92.6694 451.255C92.3908 451.229 92.1358 451.088 91.9501 450.864C91.7649 450.641 91.6639 450.352 91.6797 450.063C91.7154 449.44 91.7529 448.837 91.7974 448.215C92.2054 437.162 96.4576 425.518 103.129 416.36C103.494 415.831 103.842 415.331 104.215 414.808C105.931 416.26 107.646 417.713 109.361 419.165C108.954 419.611 108.571 420.035 108.173 420.484C100.956 428.296 96.0849 437.661 94.2507 448.491C94.1334 449.09 94.023 449.674 93.9141 450.279Z" fill="#0074AB"/>
<path d="M72.2225 442.953C72.1445 443.238 71.952 443.49 71.6996 443.657C71.447 443.822 71.1548 443.889 70.8756 443.839C70.5964 443.789 70.3491 443.626 70.1758 443.384C70.0032 443.141 69.9184 442.84 69.9527 442.547C70.0172 442.015 70.0788 441.512 70.1492 440.98C71.1703 431.614 74.4505 421.995 78.7079 413.529C78.9412 413.044 79.1637 412.583 79.3992 412.1C79.8169 411.238 80.5349 410.602 81.431 410.352C82.3249 410.101 83.3234 410.257 84.1716 410.764C85.0198 411.271 85.6379 412.083 85.855 412.998C86.0736 413.915 85.8732 414.861 85.3333 415.648C85.0375 416.082 84.755 416.494 84.4628 416.926C79.1599 424.514 75.0563 432.413 72.6398 441.457C72.4961 441.963 72.3609 442.443 72.2225 442.953Z" fill="#007BA4"/>
</g>
<g clip-path="url(#clip3_229_336)">
<path d="M199 700.999C217.453 700.999 227.418 706.775 232.985 714.29C238.752 722.075 240.5 732.635 240.5 743.499C240.5 754.728 239.623 763.379 232.348 769.751C224.743 776.414 209.12 781.499 176.501 781.499C154.107 781.499 138.008 780.43 126.449 778.532C114.816 776.621 108.242 773.938 104.485 771.063C100.994 768.391 99.6447 765.331 99.1142 761.491C98.8344 759.465 98.7901 757.237 98.832 754.692C98.8714 752.3 99.0009 749.303 99.0009 746.499C99.0009 743.009 101.71 738.247 108.266 732.68C114.594 727.306 123.607 721.957 134.019 717.205C154.892 707.676 180.368 700.999 199 700.999Z" fill="#87CFE5" stroke="#0178B2" stroke-width="9"/>
<path d="M235.614 730.95C246.614 773.95 213.16 778.999 174.5 778.999C135.84 778.999 114 775.998 108.5 768.999C95.5005 762.998 149.115 767.95 177.114 764.95C262.114 764.95 216 687.998 235.614 730.95Z" fill="#31A7BA"/>
</g>
<g clip-path="url(#clip4_229_336)">
<path d="M291 700.999C272.547 700.999 262.582 706.775 257.015 714.29C251.248 722.075 249.5 732.635 249.5 743.499C249.5 754.728 250.377 763.379 257.652 769.751C265.257 776.414 280.88 781.499 313.499 781.499C335.893 781.499 351.992 780.43 363.551 778.532C375.184 776.621 381.758 773.938 385.515 771.063C389.006 768.391 390.355 765.331 390.886 761.491C391.166 759.465 391.21 757.237 391.168 754.692C391.129 752.3 390.999 749.303 390.999 746.499C390.999 743.009 388.29 738.247 381.734 732.68C375.406 727.306 366.393 721.957 355.981 717.205C335.108 707.676 309.632 700.999 291 700.999Z" fill="#87CFE5" stroke="#0178B2" stroke-width="9"/>
<path d="M254.386 730.95C243.386 773.95 276.84 778.999 315.5 778.999C354.16 778.999 376 775.998 381.5 768.999C394.5 762.998 340.885 767.95 312.886 764.95C227.886 764.95 274 687.998 254.386 730.95Z" fill="#31A7BA"/>
</g>
<g clip-path="url(#clip5_229_336)">
<path d="M144.218 534.979C143.683 534.391 142.936 534.039 142.141 534.002C141.346 533.965 140.569 534.245 139.981 534.78C139.392 535.316 139.041 536.063 139.003 536.858C138.966 537.653 139.246 538.43 139.782 539.018C142.405 541.901 145.198 544.63 148.13 547.196C202.771 592.971 287.849 586.305 340.959 541.892C343.945 539.41 346.79 536.859 349.586 534.155C350.158 533.601 350.486 532.844 350.5 532.048C350.513 531.253 350.209 530.484 349.656 529.913C349.103 529.341 348.345 529.012 347.55 528.999C346.754 528.986 345.986 529.289 345.414 529.842C342.728 532.441 339.994 534.892 337.125 537.277C286.242 580.059 203.618 586.126 152.081 542.681C149.315 540.26 146.685 537.689 144.218 534.979Z" fill="#076FA2"/>
<path d="M209.668 576.961L209.736 576.977L209.806 576.986L221.306 578.486L221.365 578.494L221.425 578.497L231.425 578.997L231.463 578.999H239.5V598.915L239.08 602.478L235.175 605.734L231.582 607.53L226.429 607.999H221.701L216.614 606.611L211.471 603.337L206.285 597.68L202.918 589.504L200.5 581.281V574.877L209.668 576.961Z" fill="#FEFEFE" stroke="#0578A5" stroke-width="3"/>
<path d="M268.38 576.721L268.312 576.737L268.241 576.747L257.837 578.102L257.777 578.11L257.718 578.113L248.67 578.565L248.633 578.567H241.5V596.42L241.873 599.578L245.349 602.472L248.561 604.078L253.19 604.499H257.441L262.007 603.253L266.626 600.317L271.287 595.235L274.319 587.876L276.5 580.465V574.876L268.38 576.721Z" fill="#FEFEFE" stroke="#0875A4" stroke-width="3"/>
</g>
<g clip-path="url(#clip6_229_336)">
<path d="M413.915 498.503C408.661 499.179 406.536 501.07 405.48 503.433C404.194 506.307 404.079 510.71 404.896 517.197C406.453 529.564 411.311 548.261 411.311 569.5V569.808L411.257 570.111C408.486 585.727 406.087 599.653 406.866 611.584C407.614 623.031 411.266 632.272 420.244 639.195C433.42 641.442 443.315 640.532 450.678 637.641C458.121 634.718 463.257 629.665 466.692 623.176C473.697 609.938 473.631 590.677 470.362 572.106L470.337 571.964L470.324 571.82C468.707 554.223 459.362 535.742 447.697 521.603C441.886 514.558 435.595 508.711 429.57 504.653C423.568 500.612 418.16 498.567 413.915 498.503Z" fill="#87CFE5" stroke="#0076B8" stroke-width="7"/>
<path d="M432.183 604.292C432.125 604.007 432.187 603.702 432.343 603.446C432.501 603.191 432.741 603.006 433.022 602.93C433.302 602.853 433.603 602.891 433.868 603.032C434.133 603.173 434.341 603.405 434.435 603.68C434.636 604.273 434.829 604.849 435.021 605.444C438.817 615.888 439.105 628.281 436.1 639.239C435.947 639.864 435.798 640.457 435.634 641.08C433.417 640.351 431.201 639.622 428.984 638.893C429.21 638.33 429.422 637.796 429.638 637.233C433.683 627.33 434.861 616.835 432.535 606.08C432.421 605.479 432.307 604.895 432.183 604.292Z" fill="#0074AB"/>
<path d="M456.026 603.224C455.994 602.93 456.085 602.625 456.267 602.378C456.449 602.132 456.708 601.963 456.998 601.908C457.288 601.853 457.59 601.915 457.85 602.078C458.11 602.241 458.306 602.491 458.384 602.776C458.523 603.295 458.654 603.786 458.787 604.307C461.349 613.403 461.812 623.556 460.889 632.991C460.846 633.527 460.805 634.038 460.759 634.573C460.68 635.528 460.225 636.382 459.449 636.941C458.676 637.5 457.648 637.718 456.632 637.554C455.615 637.39 454.708 636.859 454.15 636.086C453.59 635.311 453.425 634.357 453.651 633.427C453.774 632.916 453.892 632.429 454.012 631.92C456.283 622.923 457.272 614.072 456.188 604.769C456.136 604.245 456.085 603.749 456.026 603.224Z" fill="#007BA4"/>
</g>
</g>
<defs>
<clipPath id="clip0_229_336">
<rect width="476" height="786" fill="white"/>
</clipPath>
<clipPath id="clip1_229_336">
<rect width="196" height="148.189" fill="white" transform="translate(146 402)"/>
</clipPath>
<clipPath id="clip2_229_336">
<rect width="72.9017" height="149" fill="white" transform="matrix(0.931467 0.363826 0.363826 -0.931467 15 536.789)"/>
</clipPath>
<clipPath id="clip3_229_336">
<rect width="151" height="90" fill="white" transform="translate(94 695.999)"/>
</clipPath>
<clipPath id="clip4_229_336">
<rect width="151" height="90" fill="white" transform="matrix(-1 0 0 1 396 695.999)"/>
</clipPath>
<clipPath id="clip5_229_336">
<rect width="212" height="81" fill="white" transform="translate(139 528.999)"/>
</clipPath>
<clipPath id="clip6_229_336">
<rect width="76" height="149" fill="white" transform="matrix(-1 0 0 1 476.001 495)"/>
</clipPath>
</defs>
</svg>
